%TF.GenerationSoftware,KiCad,Pcbnew,(5.1.8)-1*%
%TF.CreationDate,2021-01-06T18:40:03+10:00*%
%TF.ProjectId,OpenRetroPad,4f70656e-5265-4747-926f-5061642e6b69,rev?*%
%TF.SameCoordinates,Original*%
%TF.FileFunction,Legend,Top*%
%TF.FilePolarity,Positive*%
%FSLAX46Y46*%
G04 Gerber Fmt 4.6, Leading zero omitted, Abs format (unit mm)*
G04 Created by KiCad (PCBNEW (5.1.8)-1) date 2021-01-06 18:40:03*
%MOMM*%
%LPD*%
G01*
G04 APERTURE LIST*
%ADD10C,0.120000*%
%ADD11C,0.150000*%
G04 APERTURE END LIST*
D10*
%TO.C,R9*%
X111491500Y-100567258D02*
X111491500Y-100092742D01*
X112536500Y-100567258D02*
X112536500Y-100092742D01*
%TO.C,D4*%
X109501000Y-99530000D02*
X109501000Y-101815000D01*
X109501000Y-101815000D02*
X110971000Y-101815000D01*
X110971000Y-101815000D02*
X110971000Y-99530000D01*
%TO.C,R8*%
X129525500Y-119998258D02*
X129525500Y-119523742D01*
X130570500Y-119998258D02*
X130570500Y-119523742D01*
%TO.C,R7*%
X127747500Y-119998258D02*
X127747500Y-119523742D01*
X128792500Y-119998258D02*
X128792500Y-119523742D01*
%TO.C,D3*%
X130783000Y-117259000D02*
X130783000Y-114974000D01*
X130783000Y-114974000D02*
X129313000Y-114974000D01*
X129313000Y-114974000D02*
X129313000Y-117259000D01*
%TO.C,D2*%
X129005000Y-117259000D02*
X129005000Y-114974000D01*
X129005000Y-114974000D02*
X127535000Y-114974000D01*
X127535000Y-114974000D02*
X127535000Y-117259000D01*
%TO.C,SW1*%
X134666000Y-129197000D02*
X134366000Y-129197000D01*
X131526000Y-125057000D02*
X131826000Y-125057000D01*
X134366000Y-125057000D02*
X134666000Y-125057000D01*
X131526000Y-129197000D02*
X131526000Y-125057000D01*
X131826000Y-129197000D02*
X131526000Y-129197000D01*
X134666000Y-125057000D02*
X134666000Y-129197000D01*
%TO.C,SW2*%
X128570000Y-129197000D02*
X128270000Y-129197000D01*
X125430000Y-125057000D02*
X125730000Y-125057000D01*
X128270000Y-125057000D02*
X128570000Y-125057000D01*
X125430000Y-129197000D02*
X125430000Y-125057000D01*
X125730000Y-129197000D02*
X125430000Y-129197000D01*
X128570000Y-125057000D02*
X128570000Y-129197000D01*
%TO.C,J1*%
X112072500Y-86230000D02*
X111622500Y-86230000D01*
X112072500Y-86230000D02*
X112072500Y-86680000D01*
X111522500Y-91830000D02*
X111522500Y-91380000D01*
X109672500Y-91830000D02*
X111522500Y-91830000D01*
X107122500Y-84030000D02*
X107372500Y-84030000D01*
X107122500Y-91830000D02*
X107372500Y-91830000D01*
X109672500Y-84030000D02*
X111522500Y-84030000D01*
X111522500Y-84030000D02*
X111522500Y-84480000D01*
%TO.C,J2*%
X122960000Y-87030000D02*
X137960000Y-87030000D01*
X137960000Y-87030000D02*
X137960000Y-58030000D01*
X137960000Y-58030000D02*
X122960000Y-58030000D01*
X122960000Y-58030000D02*
X122960000Y-87030000D01*
X137960000Y-64910000D02*
X122960000Y-64910000D01*
%TO.C,Y1*%
X120268000Y-110966000D02*
X120268000Y-106966000D01*
X116968000Y-110966000D02*
X120268000Y-110966000D01*
%TO.C,R6*%
X137399500Y-98027258D02*
X137399500Y-97552742D01*
X138444500Y-98027258D02*
X138444500Y-97552742D01*
%TO.C,U2*%
X130425113Y-101263014D02*
X130937765Y-101775666D01*
X130937765Y-101775666D02*
X130425113Y-102288318D01*
X121239795Y-102288318D02*
X120727143Y-101775666D01*
X120727143Y-101775666D02*
X121239795Y-101263014D01*
X125319802Y-106368325D02*
X125832454Y-106880977D01*
X125832454Y-106880977D02*
X126345106Y-106368325D01*
X126345106Y-97183007D02*
X125832454Y-96670355D01*
%TO.C,R3*%
X132348500Y-119998258D02*
X132348500Y-119523742D01*
X131303500Y-119998258D02*
X131303500Y-119523742D01*
%TO.C,D1*%
X132561000Y-117944000D02*
X132561000Y-115659000D01*
X131091000Y-117944000D02*
X132561000Y-117944000D01*
X131091000Y-115659000D02*
X131091000Y-117944000D01*
%TO.C,FB1*%
X117747622Y-86082000D02*
X116948378Y-86082000D01*
X117747622Y-87202000D02*
X116948378Y-87202000D01*
%TO.C,C4*%
X118565000Y-71458748D02*
X118565000Y-71981252D01*
X117095000Y-71458748D02*
X117095000Y-71981252D01*
%TO.C,C1*%
X117086748Y-83249000D02*
X117609252Y-83249000D01*
X117086748Y-84719000D02*
X117609252Y-84719000D01*
%TO.C,R2*%
X120981530Y-96185816D02*
X120645997Y-95850283D01*
X120242603Y-96924743D02*
X119907070Y-96589210D01*
%TO.C,R1*%
X122059161Y-95108185D02*
X121723628Y-94772652D01*
X121320234Y-95847112D02*
X120984701Y-95511579D01*
%TO.C,C7*%
X122139531Y-94493470D02*
X122338342Y-94692281D01*
X122860780Y-93772221D02*
X123059591Y-93971032D01*
%TO.C,U1*%
X119586000Y-76390000D02*
X118326000Y-76390000D01*
X112766000Y-76390000D02*
X114026000Y-76390000D01*
X119586000Y-80150000D02*
X119586000Y-76390000D01*
X112766000Y-82400000D02*
X112766000Y-76390000D01*
%TO.C,R5*%
X123458500Y-127364258D02*
X123458500Y-126889742D01*
X122413500Y-127364258D02*
X122413500Y-126889742D01*
%TO.C,R4*%
X137682500Y-127364258D02*
X137682500Y-126889742D01*
X136637500Y-127364258D02*
X136637500Y-126889742D01*
%TO.C,FB3*%
X130077060Y-109022960D02*
X129846855Y-109253165D01*
X130798309Y-109744209D02*
X130568104Y-109974414D01*
%TO.C,FB2*%
X130259493Y-93627519D02*
X130029288Y-93397314D01*
X129538244Y-94348768D02*
X129308039Y-94118563D01*
%TO.C,C15*%
X123950000Y-126986420D02*
X123950000Y-127267580D01*
X124970000Y-126986420D02*
X124970000Y-127267580D01*
%TO.C,C14*%
X135126000Y-126986420D02*
X135126000Y-127267580D01*
X136146000Y-126986420D02*
X136146000Y-127267580D01*
%TO.C,C13*%
X129506170Y-108881086D02*
X129704981Y-108682275D01*
X128784921Y-108159837D02*
X128983732Y-107961026D01*
%TO.C,C12*%
X131838208Y-98803993D02*
X132037019Y-99002804D01*
X132559457Y-98082744D02*
X132758268Y-98281555D01*
%TO.C,C11*%
X117965034Y-104222962D02*
X118163845Y-104421773D01*
X118686283Y-103501713D02*
X118885094Y-103700524D01*
%TO.C,C10*%
X129166166Y-94689453D02*
X128967355Y-94490642D01*
X128444917Y-95410702D02*
X128246106Y-95211891D01*
%TO.C,C8*%
X118906639Y-97726362D02*
X119105450Y-97925173D01*
X119627888Y-97005113D02*
X119826699Y-97203924D01*
%TO.C,C9*%
X117829009Y-98803993D02*
X118027820Y-99002804D01*
X118550258Y-98082744D02*
X118749069Y-98281555D01*
%TO.C,C6*%
X115038000Y-71579420D02*
X115038000Y-71860580D01*
X114018000Y-71579420D02*
X114018000Y-71860580D01*
%TO.C,C5*%
X116562000Y-71579420D02*
X116562000Y-71860580D01*
X115542000Y-71579420D02*
X115542000Y-71860580D01*
%TO.C,C3*%
X115372035Y-106326529D02*
X115173224Y-106525340D01*
X116093284Y-107047778D02*
X115894473Y-107246589D01*
%TO.C,C2*%
X120306342Y-112022836D02*
X120107531Y-112221647D01*
X121027591Y-112744085D02*
X120828780Y-112942896D01*
%TO.C,J3*%
X152870000Y-120780000D02*
X140530000Y-120780000D01*
X140530000Y-120780000D02*
X140530000Y-67560000D01*
X140530000Y-67560000D02*
X152870000Y-67560000D01*
X139635662Y-77800000D02*
X139635662Y-77300000D01*
X139635662Y-77300000D02*
X140068675Y-77550000D01*
X140068675Y-77550000D02*
X139635662Y-77800000D01*
%TO.C,R9*%
D11*
X111914000Y-102887428D02*
X111714000Y-102601714D01*
X111571142Y-102887428D02*
X111571142Y-102287428D01*
X111799714Y-102287428D01*
X111856857Y-102316000D01*
X111885428Y-102344571D01*
X111914000Y-102401714D01*
X111914000Y-102487428D01*
X111885428Y-102544571D01*
X111856857Y-102573142D01*
X111799714Y-102601714D01*
X111571142Y-102601714D01*
X112199714Y-102887428D02*
X112314000Y-102887428D01*
X112371142Y-102858857D01*
X112399714Y-102830285D01*
X112456857Y-102744571D01*
X112485428Y-102630285D01*
X112485428Y-102401714D01*
X112456857Y-102344571D01*
X112428285Y-102316000D01*
X112371142Y-102287428D01*
X112256857Y-102287428D01*
X112199714Y-102316000D01*
X112171142Y-102344571D01*
X112142571Y-102401714D01*
X112142571Y-102544571D01*
X112171142Y-102601714D01*
X112199714Y-102630285D01*
X112256857Y-102658857D01*
X112371142Y-102658857D01*
X112428285Y-102630285D01*
X112456857Y-102601714D01*
X112485428Y-102544571D01*
%TO.C,D4*%
X109793142Y-102887428D02*
X109793142Y-102287428D01*
X109936000Y-102287428D01*
X110021714Y-102316000D01*
X110078857Y-102373142D01*
X110107428Y-102430285D01*
X110136000Y-102544571D01*
X110136000Y-102630285D01*
X110107428Y-102744571D01*
X110078857Y-102801714D01*
X110021714Y-102858857D01*
X109936000Y-102887428D01*
X109793142Y-102887428D01*
X110650285Y-102487428D02*
X110650285Y-102887428D01*
X110507428Y-102258857D02*
X110364571Y-102687428D01*
X110736000Y-102687428D01*
%TO.C,R8*%
X129948000Y-122064428D02*
X129748000Y-121778714D01*
X129605142Y-122064428D02*
X129605142Y-121464428D01*
X129833714Y-121464428D01*
X129890857Y-121493000D01*
X129919428Y-121521571D01*
X129948000Y-121578714D01*
X129948000Y-121664428D01*
X129919428Y-121721571D01*
X129890857Y-121750142D01*
X129833714Y-121778714D01*
X129605142Y-121778714D01*
X130290857Y-121721571D02*
X130233714Y-121693000D01*
X130205142Y-121664428D01*
X130176571Y-121607285D01*
X130176571Y-121578714D01*
X130205142Y-121521571D01*
X130233714Y-121493000D01*
X130290857Y-121464428D01*
X130405142Y-121464428D01*
X130462285Y-121493000D01*
X130490857Y-121521571D01*
X130519428Y-121578714D01*
X130519428Y-121607285D01*
X130490857Y-121664428D01*
X130462285Y-121693000D01*
X130405142Y-121721571D01*
X130290857Y-121721571D01*
X130233714Y-121750142D01*
X130205142Y-121778714D01*
X130176571Y-121835857D01*
X130176571Y-121950142D01*
X130205142Y-122007285D01*
X130233714Y-122035857D01*
X130290857Y-122064428D01*
X130405142Y-122064428D01*
X130462285Y-122035857D01*
X130490857Y-122007285D01*
X130519428Y-121950142D01*
X130519428Y-121835857D01*
X130490857Y-121778714D01*
X130462285Y-121750142D01*
X130405142Y-121721571D01*
%TO.C,R7*%
X128170000Y-122064428D02*
X127970000Y-121778714D01*
X127827142Y-122064428D02*
X127827142Y-121464428D01*
X128055714Y-121464428D01*
X128112857Y-121493000D01*
X128141428Y-121521571D01*
X128170000Y-121578714D01*
X128170000Y-121664428D01*
X128141428Y-121721571D01*
X128112857Y-121750142D01*
X128055714Y-121778714D01*
X127827142Y-121778714D01*
X128370000Y-121464428D02*
X128770000Y-121464428D01*
X128512857Y-122064428D01*
%TO.C,D3*%
X129605142Y-114190428D02*
X129605142Y-113590428D01*
X129748000Y-113590428D01*
X129833714Y-113619000D01*
X129890857Y-113676142D01*
X129919428Y-113733285D01*
X129948000Y-113847571D01*
X129948000Y-113933285D01*
X129919428Y-114047571D01*
X129890857Y-114104714D01*
X129833714Y-114161857D01*
X129748000Y-114190428D01*
X129605142Y-114190428D01*
X130148000Y-113590428D02*
X130519428Y-113590428D01*
X130319428Y-113819000D01*
X130405142Y-113819000D01*
X130462285Y-113847571D01*
X130490857Y-113876142D01*
X130519428Y-113933285D01*
X130519428Y-114076142D01*
X130490857Y-114133285D01*
X130462285Y-114161857D01*
X130405142Y-114190428D01*
X130233714Y-114190428D01*
X130176571Y-114161857D01*
X130148000Y-114133285D01*
%TO.C,D2*%
X127827142Y-114190428D02*
X127827142Y-113590428D01*
X127970000Y-113590428D01*
X128055714Y-113619000D01*
X128112857Y-113676142D01*
X128141428Y-113733285D01*
X128170000Y-113847571D01*
X128170000Y-113933285D01*
X128141428Y-114047571D01*
X128112857Y-114104714D01*
X128055714Y-114161857D01*
X127970000Y-114190428D01*
X127827142Y-114190428D01*
X128398571Y-113647571D02*
X128427142Y-113619000D01*
X128484285Y-113590428D01*
X128627142Y-113590428D01*
X128684285Y-113619000D01*
X128712857Y-113647571D01*
X128741428Y-113704714D01*
X128741428Y-113761857D01*
X128712857Y-113847571D01*
X128370000Y-114190428D01*
X128741428Y-114190428D01*
%TO.C,SW1*%
X131052857Y-127927000D02*
X131081428Y-127841285D01*
X131081428Y-127698428D01*
X131052857Y-127641285D01*
X131024285Y-127612714D01*
X130967142Y-127584142D01*
X130910000Y-127584142D01*
X130852857Y-127612714D01*
X130824285Y-127641285D01*
X130795714Y-127698428D01*
X130767142Y-127812714D01*
X130738571Y-127869857D01*
X130710000Y-127898428D01*
X130652857Y-127927000D01*
X130595714Y-127927000D01*
X130538571Y-127898428D01*
X130510000Y-127869857D01*
X130481428Y-127812714D01*
X130481428Y-127669857D01*
X130510000Y-127584142D01*
X130481428Y-127384142D02*
X131081428Y-127241285D01*
X130652857Y-127127000D01*
X131081428Y-127012714D01*
X130481428Y-126869857D01*
X131081428Y-126327000D02*
X131081428Y-126669857D01*
X131081428Y-126498428D02*
X130481428Y-126498428D01*
X130567142Y-126555571D01*
X130624285Y-126612714D01*
X130652857Y-126669857D01*
%TO.C,SW2*%
X129492857Y-127927000D02*
X129521428Y-127841285D01*
X129521428Y-127698428D01*
X129492857Y-127641285D01*
X129464285Y-127612714D01*
X129407142Y-127584142D01*
X129350000Y-127584142D01*
X129292857Y-127612714D01*
X129264285Y-127641285D01*
X129235714Y-127698428D01*
X129207142Y-127812714D01*
X129178571Y-127869857D01*
X129150000Y-127898428D01*
X129092857Y-127927000D01*
X129035714Y-127927000D01*
X128978571Y-127898428D01*
X128950000Y-127869857D01*
X128921428Y-127812714D01*
X128921428Y-127669857D01*
X128950000Y-127584142D01*
X128921428Y-127384142D02*
X129521428Y-127241285D01*
X129092857Y-127127000D01*
X129521428Y-127012714D01*
X128921428Y-126869857D01*
X128978571Y-126669857D02*
X128950000Y-126641285D01*
X128921428Y-126584142D01*
X128921428Y-126441285D01*
X128950000Y-126384142D01*
X128978571Y-126355571D01*
X129035714Y-126327000D01*
X129092857Y-126327000D01*
X129178571Y-126355571D01*
X129521428Y-126698428D01*
X129521428Y-126327000D01*
%TO.C,J1*%
X109782000Y-82505428D02*
X109782000Y-82934000D01*
X109753428Y-83019714D01*
X109696285Y-83076857D01*
X109610571Y-83105428D01*
X109553428Y-83105428D01*
X110382000Y-83105428D02*
X110039142Y-83105428D01*
X110210571Y-83105428D02*
X110210571Y-82505428D01*
X110153428Y-82591142D01*
X110096285Y-82648285D01*
X110039142Y-82676857D01*
%TO.C,J2*%
X123244000Y-87301428D02*
X123244000Y-87730000D01*
X123215428Y-87815714D01*
X123158285Y-87872857D01*
X123072571Y-87901428D01*
X123015428Y-87901428D01*
X123501142Y-87358571D02*
X123529714Y-87330000D01*
X123586857Y-87301428D01*
X123729714Y-87301428D01*
X123786857Y-87330000D01*
X123815428Y-87358571D01*
X123844000Y-87415714D01*
X123844000Y-87472857D01*
X123815428Y-87558571D01*
X123472571Y-87901428D01*
X123844000Y-87901428D01*
%TO.C,Y1*%
X118332285Y-111745714D02*
X118332285Y-112031428D01*
X118132285Y-111431428D02*
X118332285Y-111745714D01*
X118532285Y-111431428D01*
X119046571Y-112031428D02*
X118703714Y-112031428D01*
X118875142Y-112031428D02*
X118875142Y-111431428D01*
X118818000Y-111517142D01*
X118760857Y-111574285D01*
X118703714Y-111602857D01*
%TO.C,R6*%
X136763428Y-97890000D02*
X136477714Y-98090000D01*
X136763428Y-98232857D02*
X136163428Y-98232857D01*
X136163428Y-98004285D01*
X136192000Y-97947142D01*
X136220571Y-97918571D01*
X136277714Y-97890000D01*
X136363428Y-97890000D01*
X136420571Y-97918571D01*
X136449142Y-97947142D01*
X136477714Y-98004285D01*
X136477714Y-98232857D01*
X136163428Y-97375714D02*
X136163428Y-97490000D01*
X136192000Y-97547142D01*
X136220571Y-97575714D01*
X136306285Y-97632857D01*
X136420571Y-97661428D01*
X136649142Y-97661428D01*
X136706285Y-97632857D01*
X136734857Y-97604285D01*
X136763428Y-97547142D01*
X136763428Y-97432857D01*
X136734857Y-97375714D01*
X136706285Y-97347142D01*
X136649142Y-97318571D01*
X136506285Y-97318571D01*
X136449142Y-97347142D01*
X136420571Y-97375714D01*
X136392000Y-97432857D01*
X136392000Y-97547142D01*
X136420571Y-97604285D01*
X136449142Y-97632857D01*
X136506285Y-97661428D01*
%TO.C,U2*%
X129149795Y-97811827D02*
X128806343Y-98155278D01*
X128786140Y-98215888D01*
X128786140Y-98256294D01*
X128806343Y-98316903D01*
X128887155Y-98397715D01*
X128947764Y-98417918D01*
X128988170Y-98417918D01*
X129048780Y-98397715D01*
X129392231Y-98054263D01*
X129533653Y-98276497D02*
X129574059Y-98276497D01*
X129634668Y-98296700D01*
X129735683Y-98397715D01*
X129755886Y-98458324D01*
X129755886Y-98498730D01*
X129735683Y-98559339D01*
X129695277Y-98599746D01*
X129614465Y-98640152D01*
X129129592Y-98640152D01*
X129392231Y-98902791D01*
%TO.C,R3*%
X131726000Y-122064428D02*
X131526000Y-121778714D01*
X131383142Y-122064428D02*
X131383142Y-121464428D01*
X131611714Y-121464428D01*
X131668857Y-121493000D01*
X131697428Y-121521571D01*
X131726000Y-121578714D01*
X131726000Y-121664428D01*
X131697428Y-121721571D01*
X131668857Y-121750142D01*
X131611714Y-121778714D01*
X131383142Y-121778714D01*
X131926000Y-121464428D02*
X132297428Y-121464428D01*
X132097428Y-121693000D01*
X132183142Y-121693000D01*
X132240285Y-121721571D01*
X132268857Y-121750142D01*
X132297428Y-121807285D01*
X132297428Y-121950142D01*
X132268857Y-122007285D01*
X132240285Y-122035857D01*
X132183142Y-122064428D01*
X132011714Y-122064428D01*
X131954571Y-122035857D01*
X131926000Y-122007285D01*
%TO.C,D1*%
X131383142Y-114190428D02*
X131383142Y-113590428D01*
X131526000Y-113590428D01*
X131611714Y-113619000D01*
X131668857Y-113676142D01*
X131697428Y-113733285D01*
X131726000Y-113847571D01*
X131726000Y-113933285D01*
X131697428Y-114047571D01*
X131668857Y-114104714D01*
X131611714Y-114161857D01*
X131526000Y-114190428D01*
X131383142Y-114190428D01*
X132297428Y-114190428D02*
X131954571Y-114190428D01*
X132126000Y-114190428D02*
X132126000Y-113590428D01*
X132068857Y-113676142D01*
X132011714Y-113733285D01*
X131954571Y-113761857D01*
%TO.C,FB1*%
X114308000Y-86571142D02*
X114108000Y-86571142D01*
X114108000Y-86885428D02*
X114108000Y-86285428D01*
X114393714Y-86285428D01*
X114822285Y-86571142D02*
X114908000Y-86599714D01*
X114936571Y-86628285D01*
X114965142Y-86685428D01*
X114965142Y-86771142D01*
X114936571Y-86828285D01*
X114908000Y-86856857D01*
X114850857Y-86885428D01*
X114622285Y-86885428D01*
X114622285Y-86285428D01*
X114822285Y-86285428D01*
X114879428Y-86314000D01*
X114908000Y-86342571D01*
X114936571Y-86399714D01*
X114936571Y-86456857D01*
X114908000Y-86514000D01*
X114879428Y-86542571D01*
X114822285Y-86571142D01*
X114622285Y-86571142D01*
X115536571Y-86885428D02*
X115193714Y-86885428D01*
X115365142Y-86885428D02*
X115365142Y-86285428D01*
X115308000Y-86371142D01*
X115250857Y-86428285D01*
X115193714Y-86456857D01*
%TO.C,C4*%
X117756000Y-68944285D02*
X117727428Y-68972857D01*
X117641714Y-69001428D01*
X117584571Y-69001428D01*
X117498857Y-68972857D01*
X117441714Y-68915714D01*
X117413142Y-68858571D01*
X117384571Y-68744285D01*
X117384571Y-68658571D01*
X117413142Y-68544285D01*
X117441714Y-68487142D01*
X117498857Y-68430000D01*
X117584571Y-68401428D01*
X117641714Y-68401428D01*
X117727428Y-68430000D01*
X117756000Y-68458571D01*
X118270285Y-68601428D02*
X118270285Y-69001428D01*
X118127428Y-68372857D02*
X117984571Y-68801428D01*
X118356000Y-68801428D01*
%TO.C,C1*%
X114708000Y-84288285D02*
X114679428Y-84316857D01*
X114593714Y-84345428D01*
X114536571Y-84345428D01*
X114450857Y-84316857D01*
X114393714Y-84259714D01*
X114365142Y-84202571D01*
X114336571Y-84088285D01*
X114336571Y-84002571D01*
X114365142Y-83888285D01*
X114393714Y-83831142D01*
X114450857Y-83774000D01*
X114536571Y-83745428D01*
X114593714Y-83745428D01*
X114679428Y-83774000D01*
X114708000Y-83802571D01*
X115279428Y-84345428D02*
X114936571Y-84345428D01*
X115108000Y-84345428D02*
X115108000Y-83745428D01*
X115050857Y-83831142D01*
X114993714Y-83888285D01*
X114936571Y-83916857D01*
%TO.C,R2*%
X118609360Y-94863219D02*
X118669969Y-94519767D01*
X118366923Y-94620782D02*
X118791187Y-94196518D01*
X118952812Y-94358143D01*
X118973015Y-94418752D01*
X118973015Y-94459158D01*
X118952812Y-94519767D01*
X118892203Y-94580376D01*
X118831593Y-94600579D01*
X118791187Y-94600579D01*
X118730578Y-94580376D01*
X118568954Y-94418752D01*
X119154842Y-94640985D02*
X119195248Y-94640985D01*
X119255857Y-94661188D01*
X119356873Y-94762204D01*
X119377076Y-94822813D01*
X119377076Y-94863219D01*
X119356873Y-94923828D01*
X119316467Y-94964234D01*
X119235654Y-95004640D01*
X118750781Y-95004640D01*
X119013421Y-95267280D01*
%TO.C,R1*%
X119625360Y-93847218D02*
X119685969Y-93503766D01*
X119382923Y-93604781D02*
X119807187Y-93180517D01*
X119968812Y-93342142D01*
X119989015Y-93402751D01*
X119989015Y-93443157D01*
X119968812Y-93503766D01*
X119908203Y-93564375D01*
X119847593Y-93584578D01*
X119807187Y-93584578D01*
X119746578Y-93564375D01*
X119584954Y-93402751D01*
X120029421Y-94251279D02*
X119786984Y-94008842D01*
X119908203Y-94130061D02*
X120332467Y-93705796D01*
X120231451Y-93726000D01*
X120150639Y-93726000D01*
X120090030Y-93705796D01*
%TO.C,C7*%
X120681766Y-92790812D02*
X120641360Y-92790812D01*
X120560548Y-92750406D01*
X120520142Y-92710000D01*
X120479735Y-92629187D01*
X120479735Y-92548375D01*
X120499938Y-92487766D01*
X120560548Y-92386751D01*
X120621157Y-92326142D01*
X120722172Y-92265532D01*
X120782781Y-92245329D01*
X120863593Y-92245329D01*
X120944406Y-92285735D01*
X120984812Y-92326142D01*
X121025218Y-92406954D01*
X121025218Y-92447360D01*
X121207045Y-92548375D02*
X121489888Y-92831218D01*
X120883796Y-93073654D01*
%TO.C,U1*%
X111302857Y-76887428D02*
X111302857Y-77373142D01*
X111331428Y-77430285D01*
X111360000Y-77458857D01*
X111417142Y-77487428D01*
X111531428Y-77487428D01*
X111588571Y-77458857D01*
X111617142Y-77430285D01*
X111645714Y-77373142D01*
X111645714Y-76887428D01*
X112245714Y-77487428D02*
X111902857Y-77487428D01*
X112074285Y-77487428D02*
X112074285Y-76887428D01*
X112017142Y-76973142D01*
X111960000Y-77030285D01*
X111902857Y-77058857D01*
%TO.C,R5*%
X123207428Y-124941000D02*
X122921714Y-125141000D01*
X123207428Y-125283857D02*
X122607428Y-125283857D01*
X122607428Y-125055285D01*
X122636000Y-124998142D01*
X122664571Y-124969571D01*
X122721714Y-124941000D01*
X122807428Y-124941000D01*
X122864571Y-124969571D01*
X122893142Y-124998142D01*
X122921714Y-125055285D01*
X122921714Y-125283857D01*
X122607428Y-124398142D02*
X122607428Y-124683857D01*
X122893142Y-124712428D01*
X122864571Y-124683857D01*
X122836000Y-124626714D01*
X122836000Y-124483857D01*
X122864571Y-124426714D01*
X122893142Y-124398142D01*
X122950285Y-124369571D01*
X123093142Y-124369571D01*
X123150285Y-124398142D01*
X123178857Y-124426714D01*
X123207428Y-124483857D01*
X123207428Y-124626714D01*
X123178857Y-124683857D01*
X123150285Y-124712428D01*
%TO.C,R4*%
X137431428Y-124941000D02*
X137145714Y-125141000D01*
X137431428Y-125283857D02*
X136831428Y-125283857D01*
X136831428Y-125055285D01*
X136860000Y-124998142D01*
X136888571Y-124969571D01*
X136945714Y-124941000D01*
X137031428Y-124941000D01*
X137088571Y-124969571D01*
X137117142Y-124998142D01*
X137145714Y-125055285D01*
X137145714Y-125283857D01*
X137031428Y-124426714D02*
X137431428Y-124426714D01*
X136802857Y-124569571D02*
X137231428Y-124712428D01*
X137231428Y-124341000D01*
%TO.C,FB3*%
X131696142Y-108019248D02*
X131554720Y-108160670D01*
X131776954Y-108382903D02*
X131352690Y-107958639D01*
X131554720Y-107756609D01*
X132059796Y-107655593D02*
X132140609Y-107615187D01*
X132181015Y-107615187D01*
X132241624Y-107635390D01*
X132302233Y-107696000D01*
X132322436Y-107756609D01*
X132322436Y-107797015D01*
X132302233Y-107857624D01*
X132140609Y-108019248D01*
X131716345Y-107594984D01*
X131857766Y-107453563D01*
X131918375Y-107433360D01*
X131958781Y-107433360D01*
X132019390Y-107453563D01*
X132059796Y-107493969D01*
X132080000Y-107554578D01*
X132080000Y-107594984D01*
X132059796Y-107655593D01*
X131918375Y-107797015D01*
X132100203Y-107211126D02*
X132362842Y-106948487D01*
X132383045Y-107251532D01*
X132443654Y-107190923D01*
X132504264Y-107170720D01*
X132544670Y-107170720D01*
X132605279Y-107190923D01*
X132706294Y-107291938D01*
X132726497Y-107352548D01*
X132726497Y-107392954D01*
X132706294Y-107453563D01*
X132585076Y-107574781D01*
X132524467Y-107594984D01*
X132484061Y-107594984D01*
%TO.C,FB2*%
X127692751Y-91564142D02*
X127551329Y-91422720D01*
X127329096Y-91644954D02*
X127753360Y-91220690D01*
X127955390Y-91422720D01*
X128056406Y-91927796D02*
X128096812Y-92008609D01*
X128096812Y-92049015D01*
X128076609Y-92109624D01*
X128016000Y-92170233D01*
X127955390Y-92190436D01*
X127914984Y-92190436D01*
X127854375Y-92170233D01*
X127692751Y-92008609D01*
X128117015Y-91584345D01*
X128258436Y-91725766D01*
X128278639Y-91786375D01*
X128278639Y-91826781D01*
X128258436Y-91887390D01*
X128218030Y-91927796D01*
X128157421Y-91948000D01*
X128117015Y-91948000D01*
X128056406Y-91927796D01*
X127914984Y-91786375D01*
X128480670Y-92028812D02*
X128521076Y-92028812D01*
X128581685Y-92049015D01*
X128682700Y-92150030D01*
X128702903Y-92210639D01*
X128702903Y-92251045D01*
X128682700Y-92311654D01*
X128642294Y-92352061D01*
X128561482Y-92392467D01*
X128076609Y-92392467D01*
X128339248Y-92655106D01*
%TO.C,C15*%
X124674285Y-124972714D02*
X124702857Y-125001285D01*
X124731428Y-125087000D01*
X124731428Y-125144142D01*
X124702857Y-125229857D01*
X124645714Y-125287000D01*
X124588571Y-125315571D01*
X124474285Y-125344142D01*
X124388571Y-125344142D01*
X124274285Y-125315571D01*
X124217142Y-125287000D01*
X124160000Y-125229857D01*
X124131428Y-125144142D01*
X124131428Y-125087000D01*
X124160000Y-125001285D01*
X124188571Y-124972714D01*
X124731428Y-124401285D02*
X124731428Y-124744142D01*
X124731428Y-124572714D02*
X124131428Y-124572714D01*
X124217142Y-124629857D01*
X124274285Y-124687000D01*
X124302857Y-124744142D01*
X124131428Y-123858428D02*
X124131428Y-124144142D01*
X124417142Y-124172714D01*
X124388571Y-124144142D01*
X124360000Y-124087000D01*
X124360000Y-123944142D01*
X124388571Y-123887000D01*
X124417142Y-123858428D01*
X124474285Y-123829857D01*
X124617142Y-123829857D01*
X124674285Y-123858428D01*
X124702857Y-123887000D01*
X124731428Y-123944142D01*
X124731428Y-124087000D01*
X124702857Y-124144142D01*
X124674285Y-124172714D01*
%TO.C,C14*%
X135850285Y-124972714D02*
X135878857Y-125001285D01*
X135907428Y-125087000D01*
X135907428Y-125144142D01*
X135878857Y-125229857D01*
X135821714Y-125287000D01*
X135764571Y-125315571D01*
X135650285Y-125344142D01*
X135564571Y-125344142D01*
X135450285Y-125315571D01*
X135393142Y-125287000D01*
X135336000Y-125229857D01*
X135307428Y-125144142D01*
X135307428Y-125087000D01*
X135336000Y-125001285D01*
X135364571Y-124972714D01*
X135907428Y-124401285D02*
X135907428Y-124744142D01*
X135907428Y-124572714D02*
X135307428Y-124572714D01*
X135393142Y-124629857D01*
X135450285Y-124687000D01*
X135478857Y-124744142D01*
X135507428Y-123887000D02*
X135907428Y-123887000D01*
X135278857Y-124029857D02*
X135707428Y-124172714D01*
X135707428Y-123801285D01*
%TO.C,C13*%
X130942780Y-107104264D02*
X130942780Y-107144670D01*
X130902374Y-107225482D01*
X130861968Y-107265888D01*
X130781156Y-107306294D01*
X130700344Y-107306294D01*
X130639734Y-107286091D01*
X130538719Y-107225482D01*
X130478110Y-107164873D01*
X130417501Y-107063857D01*
X130397298Y-107003248D01*
X130397298Y-106922436D01*
X130437704Y-106841624D01*
X130478110Y-106801218D01*
X130558922Y-106760812D01*
X130599328Y-106760812D01*
X131387247Y-106740609D02*
X131144811Y-106983045D01*
X131266029Y-106861827D02*
X130841765Y-106437563D01*
X130861968Y-106538578D01*
X130861968Y-106619390D01*
X130841765Y-106680000D01*
X131104405Y-106174923D02*
X131367044Y-105912284D01*
X131387247Y-106215329D01*
X131447856Y-106154720D01*
X131508466Y-106134517D01*
X131548872Y-106134517D01*
X131609481Y-106154720D01*
X131710496Y-106255735D01*
X131730699Y-106316345D01*
X131730699Y-106356751D01*
X131710496Y-106417360D01*
X131589278Y-106538578D01*
X131528669Y-106558781D01*
X131488263Y-106558781D01*
%TO.C,C12*%
X132885136Y-97410392D02*
X132844730Y-97410392D01*
X132763918Y-97369986D01*
X132723512Y-97329580D01*
X132683106Y-97248768D01*
X132683106Y-97167956D01*
X132703309Y-97107346D01*
X132763918Y-97006331D01*
X132824527Y-96945722D01*
X132925543Y-96885113D01*
X132986152Y-96864910D01*
X133066964Y-96864910D01*
X133147776Y-96905316D01*
X133188182Y-96945722D01*
X133228588Y-97026534D01*
X133228588Y-97066940D01*
X133248791Y-97854859D02*
X133006355Y-97612423D01*
X133127573Y-97733641D02*
X133551837Y-97309377D01*
X133450822Y-97329580D01*
X133370010Y-97329580D01*
X133309401Y-97309377D01*
X133794274Y-97632626D02*
X133834680Y-97632626D01*
X133895289Y-97652829D01*
X133996304Y-97753844D01*
X134016507Y-97814453D01*
X134016507Y-97854859D01*
X133996304Y-97915468D01*
X133955898Y-97955875D01*
X133875086Y-97996281D01*
X133390213Y-97996281D01*
X133652852Y-98258920D01*
%TO.C,C11*%
X116161735Y-101986781D02*
X116121329Y-101986781D01*
X116040517Y-101946375D01*
X116000111Y-101905969D01*
X115959705Y-101825157D01*
X115959705Y-101744345D01*
X115979908Y-101683735D01*
X116040517Y-101582720D01*
X116101126Y-101522111D01*
X116202142Y-101461502D01*
X116262751Y-101441299D01*
X116343563Y-101441299D01*
X116424375Y-101481705D01*
X116464781Y-101522111D01*
X116505187Y-101602923D01*
X116505187Y-101643329D01*
X116525390Y-102431248D02*
X116282954Y-102188812D01*
X116404172Y-102310030D02*
X116828436Y-101885766D01*
X116727421Y-101905969D01*
X116646609Y-101905969D01*
X116586000Y-101885766D01*
X116929451Y-102835309D02*
X116687015Y-102592873D01*
X116808233Y-102714091D02*
X117232497Y-102289827D01*
X117131482Y-102310030D01*
X117050670Y-102310030D01*
X116990061Y-102289827D01*
%TO.C,C10*%
X126575735Y-93096781D02*
X126535329Y-93096781D01*
X126454517Y-93056375D01*
X126414111Y-93015969D01*
X126373705Y-92935157D01*
X126373705Y-92854345D01*
X126393908Y-92793735D01*
X126454517Y-92692720D01*
X126515126Y-92632111D01*
X126616142Y-92571502D01*
X126676751Y-92551299D01*
X126757563Y-92551299D01*
X126838375Y-92591705D01*
X126878781Y-92632111D01*
X126919187Y-92712923D01*
X126919187Y-92753329D01*
X126939390Y-93541248D02*
X126696954Y-93298812D01*
X126818172Y-93420030D02*
X127242436Y-92995766D01*
X127141421Y-93015969D01*
X127060609Y-93015969D01*
X127000000Y-92995766D01*
X127626294Y-93379624D02*
X127666700Y-93420030D01*
X127686903Y-93480639D01*
X127686903Y-93521045D01*
X127666700Y-93581654D01*
X127606091Y-93682670D01*
X127505076Y-93783685D01*
X127404061Y-93844294D01*
X127343451Y-93864497D01*
X127303045Y-93864497D01*
X127242436Y-93844294D01*
X127202030Y-93803888D01*
X127181827Y-93743279D01*
X127181827Y-93702873D01*
X127202030Y-93642264D01*
X127262639Y-93541248D01*
X127363654Y-93440233D01*
X127464670Y-93379624D01*
X127525279Y-93359421D01*
X127565685Y-93359421D01*
X127626294Y-93379624D01*
%TO.C,C8*%
X117633766Y-95838812D02*
X117593360Y-95838812D01*
X117512548Y-95798406D01*
X117472142Y-95758000D01*
X117431735Y-95677187D01*
X117431735Y-95596375D01*
X117451938Y-95535766D01*
X117512548Y-95434751D01*
X117573157Y-95374142D01*
X117674172Y-95313532D01*
X117734781Y-95293329D01*
X117815593Y-95293329D01*
X117896406Y-95333735D01*
X117936812Y-95374142D01*
X117977218Y-95454954D01*
X117977218Y-95495360D01*
X118078233Y-95879218D02*
X118058030Y-95818609D01*
X118058030Y-95778203D01*
X118078233Y-95717593D01*
X118098436Y-95697390D01*
X118159045Y-95677187D01*
X118199451Y-95677187D01*
X118260061Y-95697390D01*
X118340873Y-95778203D01*
X118361076Y-95838812D01*
X118361076Y-95879218D01*
X118340873Y-95939827D01*
X118320670Y-95960030D01*
X118260061Y-95980233D01*
X118219654Y-95980233D01*
X118159045Y-95960030D01*
X118078233Y-95879218D01*
X118017624Y-95859015D01*
X117977218Y-95859015D01*
X117916609Y-95879218D01*
X117835796Y-95960030D01*
X117815593Y-96020639D01*
X117815593Y-96061045D01*
X117835796Y-96121654D01*
X117916609Y-96202467D01*
X117977218Y-96222670D01*
X118017624Y-96222670D01*
X118078233Y-96202467D01*
X118159045Y-96121654D01*
X118179248Y-96061045D01*
X118179248Y-96020639D01*
X118159045Y-95960030D01*
%TO.C,C9*%
X116363767Y-97108812D02*
X116323361Y-97108812D01*
X116242549Y-97068406D01*
X116202143Y-97028000D01*
X116161736Y-96947187D01*
X116161736Y-96866375D01*
X116181939Y-96805766D01*
X116242549Y-96704751D01*
X116303158Y-96644142D01*
X116404173Y-96583532D01*
X116464782Y-96563329D01*
X116545594Y-96563329D01*
X116626407Y-96603735D01*
X116666813Y-96644142D01*
X116707219Y-96724954D01*
X116707219Y-96765360D01*
X116525391Y-97351248D02*
X116606204Y-97432061D01*
X116666813Y-97452264D01*
X116707219Y-97452264D01*
X116808234Y-97432061D01*
X116909249Y-97371451D01*
X117070874Y-97209827D01*
X117091077Y-97149218D01*
X117091077Y-97108812D01*
X117070874Y-97048203D01*
X116990062Y-96967390D01*
X116929452Y-96947187D01*
X116889046Y-96947187D01*
X116828437Y-96967390D01*
X116727422Y-97068406D01*
X116707219Y-97129015D01*
X116707219Y-97169421D01*
X116727422Y-97230030D01*
X116808234Y-97310842D01*
X116868843Y-97331045D01*
X116909249Y-97331045D01*
X116969858Y-97310842D01*
%TO.C,C6*%
X114360000Y-68944285D02*
X114331428Y-68972857D01*
X114245714Y-69001428D01*
X114188571Y-69001428D01*
X114102857Y-68972857D01*
X114045714Y-68915714D01*
X114017142Y-68858571D01*
X113988571Y-68744285D01*
X113988571Y-68658571D01*
X114017142Y-68544285D01*
X114045714Y-68487142D01*
X114102857Y-68430000D01*
X114188571Y-68401428D01*
X114245714Y-68401428D01*
X114331428Y-68430000D01*
X114360000Y-68458571D01*
X114874285Y-68401428D02*
X114760000Y-68401428D01*
X114702857Y-68430000D01*
X114674285Y-68458571D01*
X114617142Y-68544285D01*
X114588571Y-68658571D01*
X114588571Y-68887142D01*
X114617142Y-68944285D01*
X114645714Y-68972857D01*
X114702857Y-69001428D01*
X114817142Y-69001428D01*
X114874285Y-68972857D01*
X114902857Y-68944285D01*
X114931428Y-68887142D01*
X114931428Y-68744285D01*
X114902857Y-68687142D01*
X114874285Y-68658571D01*
X114817142Y-68630000D01*
X114702857Y-68630000D01*
X114645714Y-68658571D01*
X114617142Y-68687142D01*
X114588571Y-68744285D01*
%TO.C,C5*%
X115960000Y-68944285D02*
X115931428Y-68972857D01*
X115845714Y-69001428D01*
X115788571Y-69001428D01*
X115702857Y-68972857D01*
X115645714Y-68915714D01*
X115617142Y-68858571D01*
X115588571Y-68744285D01*
X115588571Y-68658571D01*
X115617142Y-68544285D01*
X115645714Y-68487142D01*
X115702857Y-68430000D01*
X115788571Y-68401428D01*
X115845714Y-68401428D01*
X115931428Y-68430000D01*
X115960000Y-68458571D01*
X116502857Y-68401428D02*
X116217142Y-68401428D01*
X116188571Y-68687142D01*
X116217142Y-68658571D01*
X116274285Y-68630000D01*
X116417142Y-68630000D01*
X116474285Y-68658571D01*
X116502857Y-68687142D01*
X116531428Y-68744285D01*
X116531428Y-68887142D01*
X116502857Y-68944285D01*
X116474285Y-68972857D01*
X116417142Y-69001428D01*
X116274285Y-69001428D01*
X116217142Y-68972857D01*
X116188571Y-68944285D01*
%TO.C,C3*%
X114888812Y-106140233D02*
X114888812Y-106180639D01*
X114848406Y-106261451D01*
X114808000Y-106301857D01*
X114727187Y-106342264D01*
X114646375Y-106342264D01*
X114585766Y-106322061D01*
X114484751Y-106261451D01*
X114424142Y-106200842D01*
X114363532Y-106099827D01*
X114343329Y-106039218D01*
X114343329Y-105958406D01*
X114383735Y-105877593D01*
X114424142Y-105837187D01*
X114504954Y-105796781D01*
X114545360Y-105796781D01*
X114646375Y-105614954D02*
X114909015Y-105352314D01*
X114929218Y-105655360D01*
X114989827Y-105594751D01*
X115050436Y-105574548D01*
X115090842Y-105574548D01*
X115151451Y-105594751D01*
X115252467Y-105695766D01*
X115272670Y-105756375D01*
X115272670Y-105796781D01*
X115252467Y-105857390D01*
X115131248Y-105978609D01*
X115070639Y-105998812D01*
X115030233Y-105998812D01*
%TO.C,C2*%
X121659536Y-113716262D02*
X121659536Y-113756668D01*
X121619130Y-113837480D01*
X121578724Y-113877886D01*
X121497911Y-113918293D01*
X121417099Y-113918293D01*
X121356490Y-113898090D01*
X121255475Y-113837480D01*
X121194866Y-113776871D01*
X121134256Y-113675856D01*
X121114053Y-113615247D01*
X121114053Y-113534435D01*
X121154459Y-113453622D01*
X121194866Y-113413216D01*
X121275678Y-113372810D01*
X121316084Y-113372810D01*
X121477708Y-113211186D02*
X121477708Y-113170780D01*
X121497911Y-113110171D01*
X121598927Y-113009155D01*
X121659536Y-112988952D01*
X121699942Y-112988952D01*
X121760551Y-113009155D01*
X121800957Y-113049561D01*
X121841363Y-113130374D01*
X121841363Y-113615247D01*
X122104003Y-113352607D01*
%TO.C,J3*%
X140760000Y-66301428D02*
X140760000Y-66730000D01*
X140731428Y-66815714D01*
X140674285Y-66872857D01*
X140588571Y-66901428D01*
X140531428Y-66901428D01*
X140988571Y-66301428D02*
X141360000Y-66301428D01*
X141160000Y-66530000D01*
X141245714Y-66530000D01*
X141302857Y-66558571D01*
X141331428Y-66587142D01*
X141360000Y-66644285D01*
X141360000Y-66787142D01*
X141331428Y-66844285D01*
X141302857Y-66872857D01*
X141245714Y-66901428D01*
X141074285Y-66901428D01*
X141017142Y-66872857D01*
X140988571Y-66844285D01*
%TD*%
M02*
