%TF.GenerationSoftware,KiCad,Pcbnew,(5.1.8)-1*%
%TF.CreationDate,2021-01-03T01:00:04+10:00*%
%TF.ProjectId,OpenRetroPad,4f70656e-5265-4747-926f-5061642e6b69,rev?*%
%TF.SameCoordinates,Original*%
%TF.FileFunction,Copper,L2,Inr*%
%TF.FilePolarity,Positive*%
%FSLAX46Y46*%
G04 Gerber Fmt 4.6, Leading zero omitted, Abs format (unit mm)*
G04 Created by KiCad (PCBNEW (5.1.8)-1) date 2021-01-03 01:00:04*
%MOMM*%
%LPD*%
G01*
G04 APERTURE LIST*
%TA.AperFunction,ComponentPad*%
%ADD10O,1.900000X1.200000*%
%TD*%
%TA.AperFunction,ComponentPad*%
%ADD11C,1.450000*%
%TD*%
%TA.AperFunction,ComponentPad*%
%ADD12O,1.700000X1.700000*%
%TD*%
%TA.AperFunction,ComponentPad*%
%ADD13R,1.700000X1.700000*%
%TD*%
%TA.AperFunction,ComponentPad*%
%ADD14C,0.500000*%
%TD*%
%TA.AperFunction,ComponentPad*%
%ADD15C,0.800000*%
%TD*%
%TA.AperFunction,ComponentPad*%
%ADD16C,6.400000*%
%TD*%
%TA.AperFunction,ComponentPad*%
%ADD17C,4.000000*%
%TD*%
%TA.AperFunction,ComponentPad*%
%ADD18C,1.600000*%
%TD*%
%TA.AperFunction,ComponentPad*%
%ADD19R,1.600000X1.600000*%
%TD*%
%TA.AperFunction,ViaPad*%
%ADD20C,0.600000*%
%TD*%
%TA.AperFunction,Conductor*%
%ADD21C,0.254000*%
%TD*%
%TA.AperFunction,Conductor*%
%ADD22C,0.100000*%
%TD*%
G04 APERTURE END LIST*
D10*
%TO.N,GND*%
%TO.C,J1*%
X108522500Y-91430000D03*
X108522500Y-84430000D03*
D11*
X111222500Y-90430000D03*
X111222500Y-85430000D03*
%TD*%
D12*
%TO.N,PF1*%
%TO.C,J2*%
X132380000Y-82690000D03*
%TO.N,PB2*%
X129840000Y-82690000D03*
%TO.N,PB4*%
X127300000Y-82690000D03*
%TO.N,+3V3*%
X124760000Y-82690000D03*
%TO.N,PB3*%
X132380000Y-85230000D03*
%TO.N,PB1*%
X129840000Y-85230000D03*
%TO.N,PB5*%
X127300000Y-85230000D03*
D13*
%TO.N,GND*%
X124760000Y-85230000D03*
%TD*%
D14*
%TO.N,GND*%
%TO.C,U2*%
X125832454Y-105063713D03*
X125010442Y-104241701D03*
X124188431Y-103419689D03*
X123366419Y-102597678D03*
X122544407Y-101775666D03*
X126654466Y-104241701D03*
X125832454Y-103419689D03*
X125010442Y-102597678D03*
X124188431Y-101775666D03*
X123366419Y-100953654D03*
X127476477Y-103419689D03*
X126654466Y-102597678D03*
X125832454Y-101775666D03*
X125010442Y-100953654D03*
X124188431Y-100131643D03*
X128298489Y-102597678D03*
X127476477Y-101775666D03*
X126654466Y-100953654D03*
X125832454Y-100131643D03*
X125010442Y-99309631D03*
X129120501Y-101775666D03*
X128298489Y-100953654D03*
X127476477Y-100131643D03*
X126654466Y-99309631D03*
X125832454Y-98487619D03*
%TD*%
D15*
%TO.N,N/C*%
%TO.C,H4*%
X149457056Y-124532944D03*
X147760000Y-123830000D03*
X146062944Y-124532944D03*
X145360000Y-126230000D03*
X146062944Y-127927056D03*
X147760000Y-128630000D03*
X149457056Y-127927056D03*
X150160000Y-126230000D03*
D16*
X147760000Y-126230000D03*
%TD*%
D15*
%TO.N,N/C*%
%TO.C,H3*%
X113457056Y-124532944D03*
X111760000Y-123830000D03*
X110062944Y-124532944D03*
X109360000Y-126230000D03*
X110062944Y-127927056D03*
X111760000Y-128630000D03*
X113457056Y-127927056D03*
X114160000Y-126230000D03*
D16*
X111760000Y-126230000D03*
%TD*%
D15*
%TO.N,N/C*%
%TO.C,H2*%
X149457056Y-60532944D03*
X147760000Y-59830000D03*
X146062944Y-60532944D03*
X145360000Y-62230000D03*
X146062944Y-63927056D03*
X147760000Y-64630000D03*
X149457056Y-63927056D03*
X150160000Y-62230000D03*
D16*
X147760000Y-62230000D03*
%TD*%
D15*
%TO.N,N/C*%
%TO.C,H1*%
X113457056Y-60532944D03*
X111760000Y-59830000D03*
X110062944Y-60532944D03*
X109360000Y-62230000D03*
X110062944Y-63927056D03*
X111760000Y-64630000D03*
X113457056Y-63927056D03*
X114160000Y-62230000D03*
D16*
X111760000Y-62230000D03*
%TD*%
D17*
%TO.N,GND*%
%TO.C,J3*%
X143810000Y-70620000D03*
X143810000Y-117720000D03*
D18*
%TO.N,+5V*%
X145230000Y-109405000D03*
%TO.N,PD0*%
X145230000Y-106635000D03*
%TO.N,PD2*%
X145230000Y-103865000D03*
%TO.N,PD4*%
X145230000Y-101095000D03*
%TO.N,PB4*%
X145230000Y-98325000D03*
%TO.N,PB6*%
X145230000Y-95555000D03*
%TO.N,PC6*%
X145230000Y-92785000D03*
%TO.N,PF6*%
X145230000Y-90015000D03*
%TO.N,PF4*%
X145230000Y-87245000D03*
%TO.N,PB1*%
X145230000Y-84475000D03*
%TO.N,PB3*%
X145230000Y-81705000D03*
%TO.N,+5V*%
X145230000Y-78935000D03*
%TO.N,GND*%
X142390000Y-110790000D03*
%TO.N,+3V3*%
X142390000Y-108020000D03*
%TO.N,PD1*%
X142390000Y-105250000D03*
%TO.N,PD3*%
X142390000Y-102480000D03*
%TO.N,PD7*%
X142390000Y-99710000D03*
%TO.N,PB5*%
X142390000Y-96940000D03*
%TO.N,Net-(J3-Pad7)*%
X142390000Y-94170000D03*
%TO.N,PF7*%
X142390000Y-91400000D03*
%TO.N,PF5*%
X142390000Y-88630000D03*
%TO.N,PE6*%
X142390000Y-85860000D03*
%TO.N,PB2*%
X142390000Y-83090000D03*
%TO.N,+3V3*%
X142390000Y-80320000D03*
D19*
%TO.N,GND*%
X142390000Y-77550000D03*
%TD*%
D20*
%TO.N,GND*%
X117348000Y-96520000D03*
X114046000Y-108204000D03*
X119126000Y-114046000D03*
X116840000Y-104139990D03*
X135636000Y-128016000D03*
X124460000Y-128016000D03*
X122682000Y-92709996D03*
X116052000Y-69622006D03*
X120904000Y-106426000D03*
X116332000Y-111506000D03*
X130048000Y-122174000D03*
X112014000Y-98044000D03*
X113030000Y-89730000D03*
%TO.N,+5V*%
X119888000Y-86106000D03*
X131318000Y-93472000D03*
X133858000Y-100076000D03*
X123952000Y-93980000D03*
X117866738Y-100030000D03*
X118110000Y-105410000D03*
X137160000Y-128016000D03*
X122936000Y-128016000D03*
X130810000Y-110951998D03*
X137922000Y-94742000D03*
X118364000Y-87630000D03*
X110236000Y-98044000D03*
%TO.N,+3V3*%
X121666000Y-72390000D03*
X121666000Y-73406000D03*
X121666000Y-74422000D03*
X121666000Y-75438000D03*
X110490000Y-72390000D03*
X110490000Y-73406000D03*
X110490000Y-74422000D03*
X110490000Y-75438000D03*
X111506000Y-75438000D03*
X111506000Y-74422000D03*
X111506000Y-73406000D03*
X111506000Y-72390000D03*
X120650000Y-75438000D03*
X120650000Y-74422000D03*
X120650000Y-73406000D03*
X120650000Y-72390000D03*
X116586000Y-79502000D03*
X115824000Y-78740000D03*
X116586000Y-77978000D03*
X115824000Y-77216000D03*
%TO.N,PB2*%
X119355972Y-92177972D03*
X117323972Y-94209972D03*
%TO.N,PB1*%
X119888000Y-92710000D03*
X117856000Y-94742000D03*
%TO.N,PB3*%
X118823943Y-91645943D03*
X116791943Y-93677943D03*
%TO.N,PE2*%
X133096000Y-122174000D03*
X131826000Y-103124000D03*
%TO.N,RESET*%
X120650000Y-103632000D03*
X127000000Y-122174000D03*
%TO.N,PF1*%
X128270000Y-97536000D03*
X125730000Y-87376000D03*
%TO.N,PC7*%
X131064000Y-103886000D03*
X131826000Y-113538000D03*
%TO.N,PB0*%
X121158000Y-99314000D03*
X126238000Y-114554000D03*
%TO.N,PD5*%
X126746000Y-107696000D03*
X130048000Y-113538000D03*
%TD*%
D21*
%TO.N,GND*%
X145473558Y-57952368D02*
X144682967Y-58480624D01*
X144010624Y-59152967D01*
X143482368Y-59943558D01*
X143118499Y-60822016D01*
X142933000Y-61754582D01*
X142933000Y-62705418D01*
X143118499Y-63637984D01*
X143482368Y-64516442D01*
X144010624Y-65307033D01*
X144682967Y-65979376D01*
X145473558Y-66507632D01*
X146352016Y-66871501D01*
X147284582Y-67057000D01*
X148235418Y-67057000D01*
X149167984Y-66871501D01*
X150046442Y-66507632D01*
X150837033Y-65979376D01*
X151509376Y-65307033D01*
X152037632Y-64516442D01*
X152100001Y-64365870D01*
X152100000Y-124094128D01*
X152037632Y-123943558D01*
X151509376Y-123152967D01*
X150837033Y-122480624D01*
X150046442Y-121952368D01*
X149167984Y-121588499D01*
X148235418Y-121403000D01*
X147284582Y-121403000D01*
X146352016Y-121588499D01*
X145473558Y-121952368D01*
X144682967Y-122480624D01*
X144010624Y-123152967D01*
X143482368Y-123943558D01*
X143118499Y-124822016D01*
X142933000Y-125754582D01*
X142933000Y-126705418D01*
X143118499Y-127637984D01*
X143482368Y-128516442D01*
X144010624Y-129307033D01*
X144682967Y-129979376D01*
X145473558Y-130507632D01*
X145624128Y-130570000D01*
X113895872Y-130570000D01*
X114046442Y-130507632D01*
X114837033Y-129979376D01*
X115509376Y-129307033D01*
X116037632Y-128516442D01*
X116283066Y-127923911D01*
X122001000Y-127923911D01*
X122001000Y-128108089D01*
X122036932Y-128288729D01*
X122107414Y-128458889D01*
X122209738Y-128612028D01*
X122339972Y-128742262D01*
X122493111Y-128844586D01*
X122663271Y-128915068D01*
X122843911Y-128951000D01*
X123028089Y-128951000D01*
X123208729Y-128915068D01*
X123378889Y-128844586D01*
X123532028Y-128742262D01*
X123662262Y-128612028D01*
X123764586Y-128458889D01*
X123835068Y-128288729D01*
X123871000Y-128108089D01*
X123871000Y-127923911D01*
X136225000Y-127923911D01*
X136225000Y-128108089D01*
X136260932Y-128288729D01*
X136331414Y-128458889D01*
X136433738Y-128612028D01*
X136563972Y-128742262D01*
X136717111Y-128844586D01*
X136887271Y-128915068D01*
X137067911Y-128951000D01*
X137252089Y-128951000D01*
X137432729Y-128915068D01*
X137602889Y-128844586D01*
X137756028Y-128742262D01*
X137886262Y-128612028D01*
X137988586Y-128458889D01*
X138059068Y-128288729D01*
X138095000Y-128108089D01*
X138095000Y-127923911D01*
X138059068Y-127743271D01*
X137988586Y-127573111D01*
X137886262Y-127419972D01*
X137756028Y-127289738D01*
X137602889Y-127187414D01*
X137432729Y-127116932D01*
X137252089Y-127081000D01*
X137067911Y-127081000D01*
X136887271Y-127116932D01*
X136717111Y-127187414D01*
X136563972Y-127289738D01*
X136433738Y-127419972D01*
X136331414Y-127573111D01*
X136260932Y-127743271D01*
X136225000Y-127923911D01*
X123871000Y-127923911D01*
X123835068Y-127743271D01*
X123764586Y-127573111D01*
X123662262Y-127419972D01*
X123532028Y-127289738D01*
X123378889Y-127187414D01*
X123208729Y-127116932D01*
X123028089Y-127081000D01*
X122843911Y-127081000D01*
X122663271Y-127116932D01*
X122493111Y-127187414D01*
X122339972Y-127289738D01*
X122209738Y-127419972D01*
X122107414Y-127573111D01*
X122036932Y-127743271D01*
X122001000Y-127923911D01*
X116283066Y-127923911D01*
X116401501Y-127637984D01*
X116587000Y-126705418D01*
X116587000Y-125754582D01*
X116401501Y-124822016D01*
X116037632Y-123943558D01*
X115509376Y-123152967D01*
X114837033Y-122480624D01*
X114240317Y-122081911D01*
X126065000Y-122081911D01*
X126065000Y-122266089D01*
X126100932Y-122446729D01*
X126171414Y-122616889D01*
X126273738Y-122770028D01*
X126403972Y-122900262D01*
X126557111Y-123002586D01*
X126727271Y-123073068D01*
X126907911Y-123109000D01*
X127092089Y-123109000D01*
X127272729Y-123073068D01*
X127442889Y-123002586D01*
X127596028Y-122900262D01*
X127726262Y-122770028D01*
X127828586Y-122616889D01*
X127899068Y-122446729D01*
X127935000Y-122266089D01*
X127935000Y-122081911D01*
X132161000Y-122081911D01*
X132161000Y-122266089D01*
X132196932Y-122446729D01*
X132267414Y-122616889D01*
X132369738Y-122770028D01*
X132499972Y-122900262D01*
X132653111Y-123002586D01*
X132823271Y-123073068D01*
X133003911Y-123109000D01*
X133188089Y-123109000D01*
X133368729Y-123073068D01*
X133538889Y-123002586D01*
X133692028Y-122900262D01*
X133822262Y-122770028D01*
X133924586Y-122616889D01*
X133995068Y-122446729D01*
X134031000Y-122266089D01*
X134031000Y-122081911D01*
X133995068Y-121901271D01*
X133924586Y-121731111D01*
X133822262Y-121577972D01*
X133692028Y-121447738D01*
X133538889Y-121345414D01*
X133368729Y-121274932D01*
X133188089Y-121239000D01*
X133003911Y-121239000D01*
X132823271Y-121274932D01*
X132653111Y-121345414D01*
X132499972Y-121447738D01*
X132369738Y-121577972D01*
X132267414Y-121731111D01*
X132196932Y-121901271D01*
X132161000Y-122081911D01*
X127935000Y-122081911D01*
X127899068Y-121901271D01*
X127828586Y-121731111D01*
X127726262Y-121577972D01*
X127596028Y-121447738D01*
X127442889Y-121345414D01*
X127272729Y-121274932D01*
X127092089Y-121239000D01*
X126907911Y-121239000D01*
X126727271Y-121274932D01*
X126557111Y-121345414D01*
X126403972Y-121447738D01*
X126273738Y-121577972D01*
X126171414Y-121731111D01*
X126100932Y-121901271D01*
X126065000Y-122081911D01*
X114240317Y-122081911D01*
X114046442Y-121952368D01*
X113167984Y-121588499D01*
X112235418Y-121403000D01*
X111284582Y-121403000D01*
X110352016Y-121588499D01*
X109473558Y-121952368D01*
X108682967Y-122480624D01*
X108010624Y-123152967D01*
X107482368Y-123943558D01*
X107420000Y-124094128D01*
X107420000Y-119567499D01*
X142142106Y-119567499D01*
X142358228Y-119934258D01*
X142818105Y-120174938D01*
X143316098Y-120321275D01*
X143833071Y-120367648D01*
X144349159Y-120312273D01*
X144844526Y-120157279D01*
X145261772Y-119934258D01*
X145477894Y-119567499D01*
X143810000Y-117899605D01*
X142142106Y-119567499D01*
X107420000Y-119567499D01*
X107420000Y-117743071D01*
X141162352Y-117743071D01*
X141217727Y-118259159D01*
X141372721Y-118754526D01*
X141595742Y-119171772D01*
X141962501Y-119387894D01*
X143630395Y-117720000D01*
X143989605Y-117720000D01*
X145657499Y-119387894D01*
X146024258Y-119171772D01*
X146264938Y-118711895D01*
X146411275Y-118213902D01*
X146457648Y-117696929D01*
X146402273Y-117180841D01*
X146247279Y-116685474D01*
X146024258Y-116268228D01*
X145657499Y-116052106D01*
X143989605Y-117720000D01*
X143630395Y-117720000D01*
X141962501Y-116052106D01*
X141595742Y-116268228D01*
X141355062Y-116728105D01*
X141208725Y-117226098D01*
X141162352Y-117743071D01*
X107420000Y-117743071D01*
X107420000Y-115872501D01*
X142142106Y-115872501D01*
X143810000Y-117540395D01*
X145477894Y-115872501D01*
X145261772Y-115505742D01*
X144801895Y-115265062D01*
X144303902Y-115118725D01*
X143786929Y-115072352D01*
X143270841Y-115127727D01*
X142775474Y-115282721D01*
X142358228Y-115505742D01*
X142142106Y-115872501D01*
X107420000Y-115872501D01*
X107420000Y-114461911D01*
X125303000Y-114461911D01*
X125303000Y-114646089D01*
X125338932Y-114826729D01*
X125409414Y-114996889D01*
X125511738Y-115150028D01*
X125641972Y-115280262D01*
X125795111Y-115382586D01*
X125965271Y-115453068D01*
X126145911Y-115489000D01*
X126330089Y-115489000D01*
X126510729Y-115453068D01*
X126680889Y-115382586D01*
X126834028Y-115280262D01*
X126964262Y-115150028D01*
X127066586Y-114996889D01*
X127137068Y-114826729D01*
X127173000Y-114646089D01*
X127173000Y-114461911D01*
X127137068Y-114281271D01*
X127066586Y-114111111D01*
X126964262Y-113957972D01*
X126834028Y-113827738D01*
X126680889Y-113725414D01*
X126510729Y-113654932D01*
X126330089Y-113619000D01*
X126145911Y-113619000D01*
X125965271Y-113654932D01*
X125795111Y-113725414D01*
X125641972Y-113827738D01*
X125511738Y-113957972D01*
X125409414Y-114111111D01*
X125338932Y-114281271D01*
X125303000Y-114461911D01*
X107420000Y-114461911D01*
X107420000Y-113445911D01*
X129113000Y-113445911D01*
X129113000Y-113630089D01*
X129148932Y-113810729D01*
X129219414Y-113980889D01*
X129321738Y-114134028D01*
X129451972Y-114264262D01*
X129605111Y-114366586D01*
X129775271Y-114437068D01*
X129955911Y-114473000D01*
X130140089Y-114473000D01*
X130320729Y-114437068D01*
X130490889Y-114366586D01*
X130644028Y-114264262D01*
X130774262Y-114134028D01*
X130876586Y-113980889D01*
X130937000Y-113835036D01*
X130997414Y-113980889D01*
X131099738Y-114134028D01*
X131229972Y-114264262D01*
X131383111Y-114366586D01*
X131553271Y-114437068D01*
X131733911Y-114473000D01*
X131918089Y-114473000D01*
X132098729Y-114437068D01*
X132268889Y-114366586D01*
X132422028Y-114264262D01*
X132552262Y-114134028D01*
X132654586Y-113980889D01*
X132725068Y-113810729D01*
X132761000Y-113630089D01*
X132761000Y-113445911D01*
X132725068Y-113265271D01*
X132654586Y-113095111D01*
X132552262Y-112941972D01*
X132422028Y-112811738D01*
X132268889Y-112709414D01*
X132098729Y-112638932D01*
X131918089Y-112603000D01*
X131733911Y-112603000D01*
X131553271Y-112638932D01*
X131383111Y-112709414D01*
X131229972Y-112811738D01*
X131099738Y-112941972D01*
X130997414Y-113095111D01*
X130937000Y-113240964D01*
X130876586Y-113095111D01*
X130774262Y-112941972D01*
X130644028Y-112811738D01*
X130490889Y-112709414D01*
X130320729Y-112638932D01*
X130140089Y-112603000D01*
X129955911Y-112603000D01*
X129775271Y-112638932D01*
X129605111Y-112709414D01*
X129451972Y-112811738D01*
X129321738Y-112941972D01*
X129219414Y-113095111D01*
X129148932Y-113265271D01*
X129113000Y-113445911D01*
X107420000Y-113445911D01*
X107420000Y-110859909D01*
X129875000Y-110859909D01*
X129875000Y-111044087D01*
X129910932Y-111224727D01*
X129981414Y-111394887D01*
X130083738Y-111548026D01*
X130213972Y-111678260D01*
X130367111Y-111780584D01*
X130537271Y-111851066D01*
X130717911Y-111886998D01*
X130902089Y-111886998D01*
X131082729Y-111851066D01*
X131247775Y-111782702D01*
X141576903Y-111782702D01*
X141648486Y-112026671D01*
X141903996Y-112147571D01*
X142178184Y-112216300D01*
X142460512Y-112230217D01*
X142740130Y-112188787D01*
X143006292Y-112093603D01*
X143131514Y-112026671D01*
X143203097Y-111782702D01*
X142390000Y-110969605D01*
X141576903Y-111782702D01*
X131247775Y-111782702D01*
X131252889Y-111780584D01*
X131406028Y-111678260D01*
X131536262Y-111548026D01*
X131638586Y-111394887D01*
X131709068Y-111224727D01*
X131745000Y-111044087D01*
X131745000Y-110860512D01*
X140949783Y-110860512D01*
X140991213Y-111140130D01*
X141086397Y-111406292D01*
X141153329Y-111531514D01*
X141397298Y-111603097D01*
X142210395Y-110790000D01*
X142569605Y-110790000D01*
X143382702Y-111603097D01*
X143626671Y-111531514D01*
X143747571Y-111276004D01*
X143816300Y-111001816D01*
X143830217Y-110719488D01*
X143788787Y-110439870D01*
X143693603Y-110173708D01*
X143626671Y-110048486D01*
X143382702Y-109976903D01*
X142569605Y-110790000D01*
X142210395Y-110790000D01*
X141397298Y-109976903D01*
X141153329Y-110048486D01*
X141032429Y-110303996D01*
X140963700Y-110578184D01*
X140949783Y-110860512D01*
X131745000Y-110860512D01*
X131745000Y-110859909D01*
X131709068Y-110679269D01*
X131638586Y-110509109D01*
X131536262Y-110355970D01*
X131406028Y-110225736D01*
X131252889Y-110123412D01*
X131082729Y-110052930D01*
X130902089Y-110016998D01*
X130717911Y-110016998D01*
X130537271Y-110052930D01*
X130367111Y-110123412D01*
X130213972Y-110225736D01*
X130083738Y-110355970D01*
X129981414Y-110509109D01*
X129910932Y-110679269D01*
X129875000Y-110859909D01*
X107420000Y-110859909D01*
X107420000Y-107603911D01*
X125811000Y-107603911D01*
X125811000Y-107788089D01*
X125846932Y-107968729D01*
X125917414Y-108138889D01*
X126019738Y-108292028D01*
X126149972Y-108422262D01*
X126303111Y-108524586D01*
X126473271Y-108595068D01*
X126653911Y-108631000D01*
X126838089Y-108631000D01*
X127018729Y-108595068D01*
X127188889Y-108524586D01*
X127342028Y-108422262D01*
X127472262Y-108292028D01*
X127574586Y-108138889D01*
X127645068Y-107968729D01*
X127681000Y-107788089D01*
X127681000Y-107603911D01*
X127645068Y-107423271D01*
X127574586Y-107253111D01*
X127472262Y-107099972D01*
X127342028Y-106969738D01*
X127188889Y-106867414D01*
X127018729Y-106796932D01*
X126838089Y-106761000D01*
X126653911Y-106761000D01*
X126473271Y-106796932D01*
X126303111Y-106867414D01*
X126149972Y-106969738D01*
X126019738Y-107099972D01*
X125917414Y-107253111D01*
X125846932Y-107423271D01*
X125811000Y-107603911D01*
X107420000Y-107603911D01*
X107420000Y-105317911D01*
X117175000Y-105317911D01*
X117175000Y-105502089D01*
X117210932Y-105682729D01*
X117281414Y-105852889D01*
X117383738Y-106006028D01*
X117513972Y-106136262D01*
X117667111Y-106238586D01*
X117837271Y-106309068D01*
X118017911Y-106345000D01*
X118202089Y-106345000D01*
X118382729Y-106309068D01*
X118552889Y-106238586D01*
X118706028Y-106136262D01*
X118836262Y-106006028D01*
X118938586Y-105852889D01*
X119009068Y-105682729D01*
X119045000Y-105502089D01*
X119045000Y-105317911D01*
X119009068Y-105137271D01*
X118938586Y-104967111D01*
X118836262Y-104813972D01*
X118706028Y-104683738D01*
X118552889Y-104581414D01*
X118382729Y-104510932D01*
X118202089Y-104475000D01*
X118017911Y-104475000D01*
X117837271Y-104510932D01*
X117667111Y-104581414D01*
X117513972Y-104683738D01*
X117383738Y-104813972D01*
X117281414Y-104967111D01*
X117210932Y-105137271D01*
X117175000Y-105317911D01*
X107420000Y-105317911D01*
X107420000Y-103539911D01*
X119715000Y-103539911D01*
X119715000Y-103724089D01*
X119750932Y-103904729D01*
X119821414Y-104074889D01*
X119923738Y-104228028D01*
X120053972Y-104358262D01*
X120207111Y-104460586D01*
X120377271Y-104531068D01*
X120557911Y-104567000D01*
X120742089Y-104567000D01*
X120922729Y-104531068D01*
X121092889Y-104460586D01*
X121246028Y-104358262D01*
X121376262Y-104228028D01*
X121478586Y-104074889D01*
X121549068Y-103904729D01*
X121571111Y-103793911D01*
X130129000Y-103793911D01*
X130129000Y-103978089D01*
X130164932Y-104158729D01*
X130235414Y-104328889D01*
X130337738Y-104482028D01*
X130467972Y-104612262D01*
X130621111Y-104714586D01*
X130791271Y-104785068D01*
X130971911Y-104821000D01*
X131156089Y-104821000D01*
X131336729Y-104785068D01*
X131506889Y-104714586D01*
X131660028Y-104612262D01*
X131790262Y-104482028D01*
X131892586Y-104328889D01*
X131963068Y-104158729D01*
X131985576Y-104045576D01*
X132098729Y-104023068D01*
X132268889Y-103952586D01*
X132422028Y-103850262D01*
X132552262Y-103720028D01*
X132654586Y-103566889D01*
X132725068Y-103396729D01*
X132761000Y-103216089D01*
X132761000Y-103031911D01*
X132725068Y-102851271D01*
X132654586Y-102681111D01*
X132552262Y-102527972D01*
X132422028Y-102397738D01*
X132268889Y-102295414D01*
X132098729Y-102224932D01*
X131918089Y-102189000D01*
X131733911Y-102189000D01*
X131553271Y-102224932D01*
X131383111Y-102295414D01*
X131229972Y-102397738D01*
X131099738Y-102527972D01*
X130997414Y-102681111D01*
X130926932Y-102851271D01*
X130904424Y-102964424D01*
X130791271Y-102986932D01*
X130621111Y-103057414D01*
X130467972Y-103159738D01*
X130337738Y-103289972D01*
X130235414Y-103443111D01*
X130164932Y-103613271D01*
X130129000Y-103793911D01*
X121571111Y-103793911D01*
X121585000Y-103724089D01*
X121585000Y-103539911D01*
X121549068Y-103359271D01*
X121478586Y-103189111D01*
X121376262Y-103035972D01*
X121246028Y-102905738D01*
X121092889Y-102803414D01*
X120922729Y-102732932D01*
X120742089Y-102697000D01*
X120557911Y-102697000D01*
X120377271Y-102732932D01*
X120207111Y-102803414D01*
X120053972Y-102905738D01*
X119923738Y-103035972D01*
X119821414Y-103189111D01*
X119750932Y-103359271D01*
X119715000Y-103539911D01*
X107420000Y-103539911D01*
X107420000Y-99937911D01*
X116931738Y-99937911D01*
X116931738Y-100122089D01*
X116967670Y-100302729D01*
X117038152Y-100472889D01*
X117140476Y-100626028D01*
X117270710Y-100756262D01*
X117423849Y-100858586D01*
X117594009Y-100929068D01*
X117774649Y-100965000D01*
X117958827Y-100965000D01*
X118139467Y-100929068D01*
X118309627Y-100858586D01*
X118462766Y-100756262D01*
X118593000Y-100626028D01*
X118695324Y-100472889D01*
X118765806Y-100302729D01*
X118801738Y-100122089D01*
X118801738Y-99937911D01*
X118765806Y-99757271D01*
X118695324Y-99587111D01*
X118593000Y-99433972D01*
X118462766Y-99303738D01*
X118340303Y-99221911D01*
X120223000Y-99221911D01*
X120223000Y-99406089D01*
X120258932Y-99586729D01*
X120329414Y-99756889D01*
X120431738Y-99910028D01*
X120561972Y-100040262D01*
X120715111Y-100142586D01*
X120885271Y-100213068D01*
X121065911Y-100249000D01*
X121250089Y-100249000D01*
X121430729Y-100213068D01*
X121600889Y-100142586D01*
X121754028Y-100040262D01*
X121810379Y-99983911D01*
X132923000Y-99983911D01*
X132923000Y-100168089D01*
X132958932Y-100348729D01*
X133029414Y-100518889D01*
X133131738Y-100672028D01*
X133261972Y-100802262D01*
X133415111Y-100904586D01*
X133585271Y-100975068D01*
X133765911Y-101011000D01*
X133950089Y-101011000D01*
X134130729Y-100975068D01*
X134300889Y-100904586D01*
X134454028Y-100802262D01*
X134584262Y-100672028D01*
X134686586Y-100518889D01*
X134757068Y-100348729D01*
X134793000Y-100168089D01*
X134793000Y-99983911D01*
X134757068Y-99803271D01*
X134686586Y-99633111D01*
X134584262Y-99479972D01*
X134454028Y-99349738D01*
X134300889Y-99247414D01*
X134130729Y-99176932D01*
X133950089Y-99141000D01*
X133765911Y-99141000D01*
X133585271Y-99176932D01*
X133415111Y-99247414D01*
X133261972Y-99349738D01*
X133131738Y-99479972D01*
X133029414Y-99633111D01*
X132958932Y-99803271D01*
X132923000Y-99983911D01*
X121810379Y-99983911D01*
X121884262Y-99910028D01*
X121986586Y-99756889D01*
X122057068Y-99586729D01*
X122093000Y-99406089D01*
X122093000Y-99221911D01*
X122057068Y-99041271D01*
X121986586Y-98871111D01*
X121884262Y-98717972D01*
X121754028Y-98587738D01*
X121600889Y-98485414D01*
X121430729Y-98414932D01*
X121250089Y-98379000D01*
X121065911Y-98379000D01*
X120885271Y-98414932D01*
X120715111Y-98485414D01*
X120561972Y-98587738D01*
X120431738Y-98717972D01*
X120329414Y-98871111D01*
X120258932Y-99041271D01*
X120223000Y-99221911D01*
X118340303Y-99221911D01*
X118309627Y-99201414D01*
X118139467Y-99130932D01*
X117958827Y-99095000D01*
X117774649Y-99095000D01*
X117594009Y-99130932D01*
X117423849Y-99201414D01*
X117270710Y-99303738D01*
X117140476Y-99433972D01*
X117038152Y-99587111D01*
X116967670Y-99757271D01*
X116931738Y-99937911D01*
X107420000Y-99937911D01*
X107420000Y-97951911D01*
X109301000Y-97951911D01*
X109301000Y-98136089D01*
X109336932Y-98316729D01*
X109407414Y-98486889D01*
X109509738Y-98640028D01*
X109639972Y-98770262D01*
X109793111Y-98872586D01*
X109963271Y-98943068D01*
X110143911Y-98979000D01*
X110328089Y-98979000D01*
X110508729Y-98943068D01*
X110678889Y-98872586D01*
X110832028Y-98770262D01*
X110962262Y-98640028D01*
X111064586Y-98486889D01*
X111135068Y-98316729D01*
X111171000Y-98136089D01*
X111171000Y-97951911D01*
X111135068Y-97771271D01*
X111064586Y-97601111D01*
X110962262Y-97447972D01*
X110958201Y-97443911D01*
X127335000Y-97443911D01*
X127335000Y-97628089D01*
X127370932Y-97808729D01*
X127441414Y-97978889D01*
X127543738Y-98132028D01*
X127673972Y-98262262D01*
X127827111Y-98364586D01*
X127997271Y-98435068D01*
X128177911Y-98471000D01*
X128362089Y-98471000D01*
X128542729Y-98435068D01*
X128712889Y-98364586D01*
X128866028Y-98262262D01*
X128996262Y-98132028D01*
X129098586Y-97978889D01*
X129169068Y-97808729D01*
X129205000Y-97628089D01*
X129205000Y-97443911D01*
X129169068Y-97263271D01*
X129098586Y-97093111D01*
X128996262Y-96939972D01*
X128866028Y-96809738D01*
X128712889Y-96707414D01*
X128542729Y-96636932D01*
X128362089Y-96601000D01*
X128177911Y-96601000D01*
X127997271Y-96636932D01*
X127827111Y-96707414D01*
X127673972Y-96809738D01*
X127543738Y-96939972D01*
X127441414Y-97093111D01*
X127370932Y-97263271D01*
X127335000Y-97443911D01*
X110958201Y-97443911D01*
X110832028Y-97317738D01*
X110678889Y-97215414D01*
X110508729Y-97144932D01*
X110328089Y-97109000D01*
X110143911Y-97109000D01*
X109963271Y-97144932D01*
X109793111Y-97215414D01*
X109639972Y-97317738D01*
X109509738Y-97447972D01*
X109407414Y-97601111D01*
X109336932Y-97771271D01*
X109301000Y-97951911D01*
X107420000Y-97951911D01*
X107420000Y-93585854D01*
X115856943Y-93585854D01*
X115856943Y-93770032D01*
X115892875Y-93950672D01*
X115963357Y-94120832D01*
X116065681Y-94273971D01*
X116195915Y-94404205D01*
X116349054Y-94506529D01*
X116452527Y-94549388D01*
X116495386Y-94652861D01*
X116597710Y-94806000D01*
X116727944Y-94936234D01*
X116881083Y-95038558D01*
X116984555Y-95081417D01*
X117027414Y-95184889D01*
X117129738Y-95338028D01*
X117259972Y-95468262D01*
X117413111Y-95570586D01*
X117583271Y-95641068D01*
X117763911Y-95677000D01*
X117948089Y-95677000D01*
X118128729Y-95641068D01*
X118298889Y-95570586D01*
X118452028Y-95468262D01*
X118582262Y-95338028D01*
X118684586Y-95184889D01*
X118755068Y-95014729D01*
X118791000Y-94834089D01*
X118791000Y-94649911D01*
X118755068Y-94469271D01*
X118684586Y-94299111D01*
X118582262Y-94145972D01*
X118452028Y-94015738D01*
X118298889Y-93913414D01*
X118237319Y-93887911D01*
X123017000Y-93887911D01*
X123017000Y-94072089D01*
X123052932Y-94252729D01*
X123123414Y-94422889D01*
X123225738Y-94576028D01*
X123355972Y-94706262D01*
X123509111Y-94808586D01*
X123679271Y-94879068D01*
X123859911Y-94915000D01*
X124044089Y-94915000D01*
X124224729Y-94879068D01*
X124394889Y-94808586D01*
X124548028Y-94706262D01*
X124604379Y-94649911D01*
X136987000Y-94649911D01*
X136987000Y-94834089D01*
X137022932Y-95014729D01*
X137093414Y-95184889D01*
X137195738Y-95338028D01*
X137325972Y-95468262D01*
X137479111Y-95570586D01*
X137649271Y-95641068D01*
X137829911Y-95677000D01*
X138014089Y-95677000D01*
X138194729Y-95641068D01*
X138364889Y-95570586D01*
X138518028Y-95468262D01*
X138648262Y-95338028D01*
X138750586Y-95184889D01*
X138821068Y-95014729D01*
X138857000Y-94834089D01*
X138857000Y-94649911D01*
X138821068Y-94469271D01*
X138750586Y-94299111D01*
X138648262Y-94145972D01*
X138518028Y-94015738D01*
X138364889Y-93913414D01*
X138194729Y-93842932D01*
X138014089Y-93807000D01*
X137829911Y-93807000D01*
X137649271Y-93842932D01*
X137479111Y-93913414D01*
X137325972Y-94015738D01*
X137195738Y-94145972D01*
X137093414Y-94299111D01*
X137022932Y-94469271D01*
X136987000Y-94649911D01*
X124604379Y-94649911D01*
X124678262Y-94576028D01*
X124780586Y-94422889D01*
X124851068Y-94252729D01*
X124887000Y-94072089D01*
X124887000Y-93887911D01*
X124851068Y-93707271D01*
X124780586Y-93537111D01*
X124678262Y-93383972D01*
X124674201Y-93379911D01*
X130383000Y-93379911D01*
X130383000Y-93564089D01*
X130418932Y-93744729D01*
X130489414Y-93914889D01*
X130591738Y-94068028D01*
X130721972Y-94198262D01*
X130875111Y-94300586D01*
X131045271Y-94371068D01*
X131225911Y-94407000D01*
X131410089Y-94407000D01*
X131590729Y-94371068D01*
X131760889Y-94300586D01*
X131914028Y-94198262D01*
X132044262Y-94068028D01*
X132146586Y-93914889D01*
X132217068Y-93744729D01*
X132253000Y-93564089D01*
X132253000Y-93379911D01*
X132217068Y-93199271D01*
X132146586Y-93029111D01*
X132044262Y-92875972D01*
X131914028Y-92745738D01*
X131760889Y-92643414D01*
X131590729Y-92572932D01*
X131410089Y-92537000D01*
X131225911Y-92537000D01*
X131045271Y-92572932D01*
X130875111Y-92643414D01*
X130721972Y-92745738D01*
X130591738Y-92875972D01*
X130489414Y-93029111D01*
X130418932Y-93199271D01*
X130383000Y-93379911D01*
X124674201Y-93379911D01*
X124548028Y-93253738D01*
X124394889Y-93151414D01*
X124224729Y-93080932D01*
X124044089Y-93045000D01*
X123859911Y-93045000D01*
X123679271Y-93080932D01*
X123509111Y-93151414D01*
X123355972Y-93253738D01*
X123225738Y-93383972D01*
X123123414Y-93537111D01*
X123052932Y-93707271D01*
X123017000Y-93887911D01*
X118237319Y-93887911D01*
X118195417Y-93870555D01*
X118152558Y-93767083D01*
X118050234Y-93613944D01*
X117920000Y-93483710D01*
X117766861Y-93381386D01*
X117663388Y-93338527D01*
X117620529Y-93235054D01*
X117518205Y-93081915D01*
X117387971Y-92951681D01*
X117234832Y-92849357D01*
X117064672Y-92778875D01*
X116884032Y-92742943D01*
X116699854Y-92742943D01*
X116519214Y-92778875D01*
X116349054Y-92849357D01*
X116195915Y-92951681D01*
X116065681Y-93081915D01*
X115963357Y-93235054D01*
X115892875Y-93405214D01*
X115856943Y-93585854D01*
X107420000Y-93585854D01*
X107420000Y-92412761D01*
X107582554Y-92522390D01*
X107807004Y-92616493D01*
X108045500Y-92665000D01*
X108395500Y-92665000D01*
X108395500Y-91557000D01*
X108649500Y-91557000D01*
X108649500Y-92665000D01*
X108999500Y-92665000D01*
X109237996Y-92616493D01*
X109462446Y-92522390D01*
X109664225Y-92386307D01*
X109835578Y-92213474D01*
X109969921Y-92010533D01*
X110062091Y-91785282D01*
X110065962Y-91747609D01*
X109941231Y-91557000D01*
X108649500Y-91557000D01*
X108395500Y-91557000D01*
X108375500Y-91557000D01*
X108375500Y-91369133D01*
X110462972Y-91369133D01*
X110525465Y-91605450D01*
X110768178Y-91718850D01*
X111028349Y-91782719D01*
X111295982Y-91794604D01*
X111560791Y-91754048D01*
X111812600Y-91662609D01*
X111919535Y-91605450D01*
X111933179Y-91553854D01*
X117888943Y-91553854D01*
X117888943Y-91738032D01*
X117924875Y-91918672D01*
X117995357Y-92088832D01*
X118097681Y-92241971D01*
X118227915Y-92372205D01*
X118381054Y-92474529D01*
X118484527Y-92517388D01*
X118527386Y-92620861D01*
X118629710Y-92774000D01*
X118759944Y-92904234D01*
X118913083Y-93006558D01*
X119016555Y-93049417D01*
X119059414Y-93152889D01*
X119161738Y-93306028D01*
X119291972Y-93436262D01*
X119445111Y-93538586D01*
X119615271Y-93609068D01*
X119795911Y-93645000D01*
X119980089Y-93645000D01*
X120160729Y-93609068D01*
X120330889Y-93538586D01*
X120484028Y-93436262D01*
X120614262Y-93306028D01*
X120716586Y-93152889D01*
X120787068Y-92982729D01*
X120823000Y-92802089D01*
X120823000Y-92617911D01*
X120787068Y-92437271D01*
X120716586Y-92267111D01*
X120614262Y-92113972D01*
X120484028Y-91983738D01*
X120330889Y-91881414D01*
X120227417Y-91838555D01*
X120184558Y-91735083D01*
X120082234Y-91581944D01*
X119952000Y-91451710D01*
X119798861Y-91349386D01*
X119695388Y-91306527D01*
X119652529Y-91203054D01*
X119550205Y-91049915D01*
X119419971Y-90919681D01*
X119266832Y-90817357D01*
X119096672Y-90746875D01*
X118916032Y-90710943D01*
X118731854Y-90710943D01*
X118551214Y-90746875D01*
X118381054Y-90817357D01*
X118227915Y-90919681D01*
X118097681Y-91049915D01*
X117995357Y-91203054D01*
X117924875Y-91373214D01*
X117888943Y-91553854D01*
X111933179Y-91553854D01*
X111982028Y-91369133D01*
X111222500Y-90609605D01*
X110462972Y-91369133D01*
X108375500Y-91369133D01*
X108375500Y-91303000D01*
X108395500Y-91303000D01*
X108395500Y-90195000D01*
X108649500Y-90195000D01*
X108649500Y-91303000D01*
X109941231Y-91303000D01*
X110055003Y-91129138D01*
X110283367Y-91189528D01*
X111042895Y-90430000D01*
X111402105Y-90430000D01*
X112161633Y-91189528D01*
X112397950Y-91127035D01*
X112511350Y-90884322D01*
X112575219Y-90624151D01*
X112587104Y-90356518D01*
X112546548Y-90091709D01*
X112455109Y-89839900D01*
X112397950Y-89732965D01*
X112161633Y-89670472D01*
X111402105Y-90430000D01*
X111042895Y-90430000D01*
X110283367Y-89670472D01*
X110047050Y-89732965D01*
X109933650Y-89975678D01*
X109869781Y-90235849D01*
X109857896Y-90503482D01*
X109893115Y-90733442D01*
X109835578Y-90646526D01*
X109664225Y-90473693D01*
X109462446Y-90337610D01*
X109237996Y-90243507D01*
X108999500Y-90195000D01*
X108649500Y-90195000D01*
X108395500Y-90195000D01*
X108045500Y-90195000D01*
X107807004Y-90243507D01*
X107582554Y-90337610D01*
X107420000Y-90447239D01*
X107420000Y-89490867D01*
X110462972Y-89490867D01*
X111222500Y-90250395D01*
X111982028Y-89490867D01*
X111919535Y-89254550D01*
X111676822Y-89141150D01*
X111416651Y-89077281D01*
X111149018Y-89065396D01*
X110884209Y-89105952D01*
X110632400Y-89197391D01*
X110525465Y-89254550D01*
X110462972Y-89490867D01*
X107420000Y-89490867D01*
X107420000Y-87537911D01*
X117429000Y-87537911D01*
X117429000Y-87722089D01*
X117464932Y-87902729D01*
X117535414Y-88072889D01*
X117637738Y-88226028D01*
X117767972Y-88356262D01*
X117921111Y-88458586D01*
X118091271Y-88529068D01*
X118271911Y-88565000D01*
X118456089Y-88565000D01*
X118636729Y-88529068D01*
X118806889Y-88458586D01*
X118960028Y-88356262D01*
X119090262Y-88226028D01*
X119192586Y-88072889D01*
X119263068Y-87902729D01*
X119299000Y-87722089D01*
X119299000Y-87537911D01*
X119263068Y-87357271D01*
X119192586Y-87187111D01*
X119090262Y-87033972D01*
X118960028Y-86903738D01*
X118806889Y-86801414D01*
X118636729Y-86730932D01*
X118456089Y-86695000D01*
X118271911Y-86695000D01*
X118091271Y-86730932D01*
X117921111Y-86801414D01*
X117767972Y-86903738D01*
X117637738Y-87033972D01*
X117535414Y-87187111D01*
X117464932Y-87357271D01*
X117429000Y-87537911D01*
X107420000Y-87537911D01*
X107420000Y-86369133D01*
X110462972Y-86369133D01*
X110525465Y-86605450D01*
X110768178Y-86718850D01*
X111028349Y-86782719D01*
X111295982Y-86794604D01*
X111560791Y-86754048D01*
X111812600Y-86662609D01*
X111919535Y-86605450D01*
X111982028Y-86369133D01*
X111222500Y-85609605D01*
X110462972Y-86369133D01*
X107420000Y-86369133D01*
X107420000Y-85412761D01*
X107582554Y-85522390D01*
X107807004Y-85616493D01*
X108045500Y-85665000D01*
X108395500Y-85665000D01*
X108395500Y-84557000D01*
X108649500Y-84557000D01*
X108649500Y-85665000D01*
X108999500Y-85665000D01*
X109237996Y-85616493D01*
X109462446Y-85522390D01*
X109664225Y-85386307D01*
X109835578Y-85213474D01*
X109898671Y-85118164D01*
X109869781Y-85235849D01*
X109857896Y-85503482D01*
X109898452Y-85768291D01*
X109989891Y-86020100D01*
X110047050Y-86127035D01*
X110283367Y-86189528D01*
X111042895Y-85430000D01*
X111402105Y-85430000D01*
X112161633Y-86189528D01*
X112397950Y-86127035D01*
X112450803Y-86013911D01*
X118953000Y-86013911D01*
X118953000Y-86198089D01*
X118988932Y-86378729D01*
X119059414Y-86548889D01*
X119161738Y-86702028D01*
X119291972Y-86832262D01*
X119445111Y-86934586D01*
X119615271Y-87005068D01*
X119795911Y-87041000D01*
X119980089Y-87041000D01*
X120160729Y-87005068D01*
X120330889Y-86934586D01*
X120484028Y-86832262D01*
X120614262Y-86702028D01*
X120716586Y-86548889D01*
X120787068Y-86378729D01*
X120823000Y-86198089D01*
X120823000Y-86080000D01*
X123271928Y-86080000D01*
X123284188Y-86204482D01*
X123320498Y-86324180D01*
X123379463Y-86434494D01*
X123458815Y-86531185D01*
X123555506Y-86610537D01*
X123665820Y-86669502D01*
X123785518Y-86705812D01*
X123910000Y-86718072D01*
X124474250Y-86715000D01*
X124633000Y-86556250D01*
X124633000Y-85357000D01*
X123433750Y-85357000D01*
X123275000Y-85515750D01*
X123271928Y-86080000D01*
X120823000Y-86080000D01*
X120823000Y-86013911D01*
X120787068Y-85833271D01*
X120716586Y-85663111D01*
X120614262Y-85509972D01*
X120484028Y-85379738D01*
X120330889Y-85277414D01*
X120160729Y-85206932D01*
X119980089Y-85171000D01*
X119795911Y-85171000D01*
X119615271Y-85206932D01*
X119445111Y-85277414D01*
X119291972Y-85379738D01*
X119161738Y-85509972D01*
X119059414Y-85663111D01*
X118988932Y-85833271D01*
X118953000Y-86013911D01*
X112450803Y-86013911D01*
X112511350Y-85884322D01*
X112575219Y-85624151D01*
X112587104Y-85356518D01*
X112546548Y-85091709D01*
X112455109Y-84839900D01*
X112397950Y-84732965D01*
X112161633Y-84670472D01*
X111402105Y-85430000D01*
X111042895Y-85430000D01*
X110283367Y-84670472D01*
X110055003Y-84730862D01*
X109941231Y-84557000D01*
X108649500Y-84557000D01*
X108395500Y-84557000D01*
X108375500Y-84557000D01*
X108375500Y-84490867D01*
X110462972Y-84490867D01*
X111222500Y-85250395D01*
X111982028Y-84490867D01*
X111952710Y-84380000D01*
X123271928Y-84380000D01*
X123275000Y-84944250D01*
X123433750Y-85103000D01*
X124633000Y-85103000D01*
X124633000Y-85083000D01*
X124887000Y-85083000D01*
X124887000Y-85103000D01*
X124907000Y-85103000D01*
X124907000Y-85357000D01*
X124887000Y-85357000D01*
X124887000Y-86556250D01*
X125045750Y-86715000D01*
X125068586Y-86715124D01*
X125003738Y-86779972D01*
X124901414Y-86933111D01*
X124830932Y-87103271D01*
X124795000Y-87283911D01*
X124795000Y-87468089D01*
X124830932Y-87648729D01*
X124901414Y-87818889D01*
X125003738Y-87972028D01*
X125133972Y-88102262D01*
X125287111Y-88204586D01*
X125457271Y-88275068D01*
X125637911Y-88311000D01*
X125822089Y-88311000D01*
X126002729Y-88275068D01*
X126172889Y-88204586D01*
X126326028Y-88102262D01*
X126456262Y-87972028D01*
X126558586Y-87818889D01*
X126629068Y-87648729D01*
X126665000Y-87468089D01*
X126665000Y-87283911D01*
X126629068Y-87103271D01*
X126558586Y-86933111D01*
X126456262Y-86779972D01*
X126326028Y-86649738D01*
X126172889Y-86547414D01*
X126079584Y-86508766D01*
X126140537Y-86434494D01*
X126199502Y-86324180D01*
X126221513Y-86251620D01*
X126353368Y-86383475D01*
X126596589Y-86545990D01*
X126866842Y-86657932D01*
X127153740Y-86715000D01*
X127446260Y-86715000D01*
X127733158Y-86657932D01*
X128003411Y-86545990D01*
X128246632Y-86383475D01*
X128453475Y-86176632D01*
X128570000Y-86002240D01*
X128686525Y-86176632D01*
X128893368Y-86383475D01*
X129136589Y-86545990D01*
X129406842Y-86657932D01*
X129693740Y-86715000D01*
X129986260Y-86715000D01*
X130273158Y-86657932D01*
X130543411Y-86545990D01*
X130786632Y-86383475D01*
X130993475Y-86176632D01*
X131110000Y-86002240D01*
X131226525Y-86176632D01*
X131433368Y-86383475D01*
X131676589Y-86545990D01*
X131946842Y-86657932D01*
X132233740Y-86715000D01*
X132526260Y-86715000D01*
X132813158Y-86657932D01*
X133083411Y-86545990D01*
X133326632Y-86383475D01*
X133533475Y-86176632D01*
X133695990Y-85933411D01*
X133807932Y-85663158D01*
X133865000Y-85376260D01*
X133865000Y-85083740D01*
X133807932Y-84796842D01*
X133695990Y-84526589D01*
X133533475Y-84283368D01*
X133326632Y-84076525D01*
X133152240Y-83960000D01*
X133326632Y-83843475D01*
X133533475Y-83636632D01*
X133695990Y-83393411D01*
X133807932Y-83123158D01*
X133865000Y-82836260D01*
X133865000Y-82543740D01*
X133807932Y-82256842D01*
X133695990Y-81986589D01*
X133533475Y-81743368D01*
X133326632Y-81536525D01*
X133083411Y-81374010D01*
X132813158Y-81262068D01*
X132526260Y-81205000D01*
X132233740Y-81205000D01*
X131946842Y-81262068D01*
X131676589Y-81374010D01*
X131433368Y-81536525D01*
X131226525Y-81743368D01*
X131110000Y-81917760D01*
X130993475Y-81743368D01*
X130786632Y-81536525D01*
X130543411Y-81374010D01*
X130273158Y-81262068D01*
X129986260Y-81205000D01*
X129693740Y-81205000D01*
X129406842Y-81262068D01*
X129136589Y-81374010D01*
X128893368Y-81536525D01*
X128686525Y-81743368D01*
X128570000Y-81917760D01*
X128453475Y-81743368D01*
X128246632Y-81536525D01*
X128003411Y-81374010D01*
X127733158Y-81262068D01*
X127446260Y-81205000D01*
X127153740Y-81205000D01*
X126866842Y-81262068D01*
X126596589Y-81374010D01*
X126353368Y-81536525D01*
X126146525Y-81743368D01*
X126030000Y-81917760D01*
X125913475Y-81743368D01*
X125706632Y-81536525D01*
X125463411Y-81374010D01*
X125193158Y-81262068D01*
X124906260Y-81205000D01*
X124613740Y-81205000D01*
X124326842Y-81262068D01*
X124056589Y-81374010D01*
X123813368Y-81536525D01*
X123606525Y-81743368D01*
X123444010Y-81986589D01*
X123332068Y-82256842D01*
X123275000Y-82543740D01*
X123275000Y-82836260D01*
X123332068Y-83123158D01*
X123444010Y-83393411D01*
X123606525Y-83636632D01*
X123738380Y-83768487D01*
X123665820Y-83790498D01*
X123555506Y-83849463D01*
X123458815Y-83928815D01*
X123379463Y-84025506D01*
X123320498Y-84135820D01*
X123284188Y-84255518D01*
X123271928Y-84380000D01*
X111952710Y-84380000D01*
X111919535Y-84254550D01*
X111676822Y-84141150D01*
X111416651Y-84077281D01*
X111149018Y-84065396D01*
X110884209Y-84105952D01*
X110632400Y-84197391D01*
X110525465Y-84254550D01*
X110462972Y-84490867D01*
X108375500Y-84490867D01*
X108375500Y-84303000D01*
X108395500Y-84303000D01*
X108395500Y-83195000D01*
X108649500Y-83195000D01*
X108649500Y-84303000D01*
X109941231Y-84303000D01*
X110065962Y-84112391D01*
X110062091Y-84074718D01*
X109969921Y-83849467D01*
X109835578Y-83646526D01*
X109664225Y-83473693D01*
X109462446Y-83337610D01*
X109237996Y-83243507D01*
X108999500Y-83195000D01*
X108649500Y-83195000D01*
X108395500Y-83195000D01*
X108045500Y-83195000D01*
X107807004Y-83243507D01*
X107582554Y-83337610D01*
X107420000Y-83447239D01*
X107420000Y-77123911D01*
X114889000Y-77123911D01*
X114889000Y-77308089D01*
X114924932Y-77488729D01*
X114995414Y-77658889D01*
X115097738Y-77812028D01*
X115227972Y-77942262D01*
X115281458Y-77978000D01*
X115227972Y-78013738D01*
X115097738Y-78143972D01*
X114995414Y-78297111D01*
X114924932Y-78467271D01*
X114889000Y-78647911D01*
X114889000Y-78832089D01*
X114924932Y-79012729D01*
X114995414Y-79182889D01*
X115097738Y-79336028D01*
X115227972Y-79466262D01*
X115381111Y-79568586D01*
X115551271Y-79639068D01*
X115664424Y-79661576D01*
X115686932Y-79774729D01*
X115757414Y-79944889D01*
X115859738Y-80098028D01*
X115989972Y-80228262D01*
X116143111Y-80330586D01*
X116313271Y-80401068D01*
X116493911Y-80437000D01*
X116678089Y-80437000D01*
X116858729Y-80401068D01*
X117028889Y-80330586D01*
X117182028Y-80228262D01*
X117312262Y-80098028D01*
X117414586Y-79944889D01*
X117485068Y-79774729D01*
X117521000Y-79594089D01*
X117521000Y-79409911D01*
X117485068Y-79229271D01*
X117414586Y-79059111D01*
X117312262Y-78905972D01*
X117182028Y-78775738D01*
X117128542Y-78740000D01*
X117182028Y-78704262D01*
X117312262Y-78574028D01*
X117414586Y-78420889D01*
X117443948Y-78350000D01*
X140951928Y-78350000D01*
X140964188Y-78474482D01*
X141000498Y-78594180D01*
X141059463Y-78704494D01*
X141138815Y-78801185D01*
X141235506Y-78880537D01*
X141345820Y-78939502D01*
X141465518Y-78975812D01*
X141590000Y-78988072D01*
X141859613Y-78986461D01*
X141710273Y-79048320D01*
X141475241Y-79205363D01*
X141275363Y-79405241D01*
X141118320Y-79640273D01*
X141010147Y-79901426D01*
X140955000Y-80178665D01*
X140955000Y-80461335D01*
X141010147Y-80738574D01*
X141118320Y-80999727D01*
X141275363Y-81234759D01*
X141475241Y-81434637D01*
X141710273Y-81591680D01*
X141971426Y-81699853D01*
X141997301Y-81705000D01*
X141971426Y-81710147D01*
X141710273Y-81818320D01*
X141475241Y-81975363D01*
X141275363Y-82175241D01*
X141118320Y-82410273D01*
X141010147Y-82671426D01*
X140955000Y-82948665D01*
X140955000Y-83231335D01*
X141010147Y-83508574D01*
X141118320Y-83769727D01*
X141275363Y-84004759D01*
X141475241Y-84204637D01*
X141710273Y-84361680D01*
X141971426Y-84469853D01*
X141997301Y-84475000D01*
X141971426Y-84480147D01*
X141710273Y-84588320D01*
X141475241Y-84745363D01*
X141275363Y-84945241D01*
X141118320Y-85180273D01*
X141010147Y-85441426D01*
X140955000Y-85718665D01*
X140955000Y-86001335D01*
X141010147Y-86278574D01*
X141118320Y-86539727D01*
X141275363Y-86774759D01*
X141475241Y-86974637D01*
X141710273Y-87131680D01*
X141971426Y-87239853D01*
X141997301Y-87245000D01*
X141971426Y-87250147D01*
X141710273Y-87358320D01*
X141475241Y-87515363D01*
X141275363Y-87715241D01*
X141118320Y-87950273D01*
X141010147Y-88211426D01*
X140955000Y-88488665D01*
X140955000Y-88771335D01*
X141010147Y-89048574D01*
X141118320Y-89309727D01*
X141275363Y-89544759D01*
X141475241Y-89744637D01*
X141710273Y-89901680D01*
X141971426Y-90009853D01*
X141997301Y-90015000D01*
X141971426Y-90020147D01*
X141710273Y-90128320D01*
X141475241Y-90285363D01*
X141275363Y-90485241D01*
X141118320Y-90720273D01*
X141010147Y-90981426D01*
X140955000Y-91258665D01*
X140955000Y-91541335D01*
X141010147Y-91818574D01*
X141118320Y-92079727D01*
X141275363Y-92314759D01*
X141475241Y-92514637D01*
X141710273Y-92671680D01*
X141971426Y-92779853D01*
X141997301Y-92785000D01*
X141971426Y-92790147D01*
X141710273Y-92898320D01*
X141475241Y-93055363D01*
X141275363Y-93255241D01*
X141118320Y-93490273D01*
X141010147Y-93751426D01*
X140955000Y-94028665D01*
X140955000Y-94311335D01*
X141010147Y-94588574D01*
X141118320Y-94849727D01*
X141275363Y-95084759D01*
X141475241Y-95284637D01*
X141710273Y-95441680D01*
X141971426Y-95549853D01*
X141997301Y-95555000D01*
X141971426Y-95560147D01*
X141710273Y-95668320D01*
X141475241Y-95825363D01*
X141275363Y-96025241D01*
X141118320Y-96260273D01*
X141010147Y-96521426D01*
X140955000Y-96798665D01*
X140955000Y-97081335D01*
X141010147Y-97358574D01*
X141118320Y-97619727D01*
X141275363Y-97854759D01*
X141475241Y-98054637D01*
X141710273Y-98211680D01*
X141971426Y-98319853D01*
X141997301Y-98325000D01*
X141971426Y-98330147D01*
X141710273Y-98438320D01*
X141475241Y-98595363D01*
X141275363Y-98795241D01*
X141118320Y-99030273D01*
X141010147Y-99291426D01*
X140955000Y-99568665D01*
X140955000Y-99851335D01*
X141010147Y-100128574D01*
X141118320Y-100389727D01*
X141275363Y-100624759D01*
X141475241Y-100824637D01*
X141710273Y-100981680D01*
X141971426Y-101089853D01*
X141997301Y-101095000D01*
X141971426Y-101100147D01*
X141710273Y-101208320D01*
X141475241Y-101365363D01*
X141275363Y-101565241D01*
X141118320Y-101800273D01*
X141010147Y-102061426D01*
X140955000Y-102338665D01*
X140955000Y-102621335D01*
X141010147Y-102898574D01*
X141118320Y-103159727D01*
X141275363Y-103394759D01*
X141475241Y-103594637D01*
X141710273Y-103751680D01*
X141971426Y-103859853D01*
X141997301Y-103865000D01*
X141971426Y-103870147D01*
X141710273Y-103978320D01*
X141475241Y-104135363D01*
X141275363Y-104335241D01*
X141118320Y-104570273D01*
X141010147Y-104831426D01*
X140955000Y-105108665D01*
X140955000Y-105391335D01*
X141010147Y-105668574D01*
X141118320Y-105929727D01*
X141275363Y-106164759D01*
X141475241Y-106364637D01*
X141710273Y-106521680D01*
X141971426Y-106629853D01*
X141997301Y-106635000D01*
X141971426Y-106640147D01*
X141710273Y-106748320D01*
X141475241Y-106905363D01*
X141275363Y-107105241D01*
X141118320Y-107340273D01*
X141010147Y-107601426D01*
X140955000Y-107878665D01*
X140955000Y-108161335D01*
X141010147Y-108438574D01*
X141118320Y-108699727D01*
X141275363Y-108934759D01*
X141475241Y-109134637D01*
X141710273Y-109291680D01*
X141971426Y-109399853D01*
X141999882Y-109405513D01*
X141773708Y-109486397D01*
X141648486Y-109553329D01*
X141576903Y-109797298D01*
X142390000Y-110610395D01*
X143203097Y-109797298D01*
X143131514Y-109553329D01*
X142876004Y-109432429D01*
X142773711Y-109406788D01*
X142808574Y-109399853D01*
X143069727Y-109291680D01*
X143304759Y-109134637D01*
X143504637Y-108934759D01*
X143661680Y-108699727D01*
X143769853Y-108438574D01*
X143825000Y-108161335D01*
X143825000Y-107878665D01*
X143769853Y-107601426D01*
X143661680Y-107340273D01*
X143504637Y-107105241D01*
X143304759Y-106905363D01*
X143069727Y-106748320D01*
X142808574Y-106640147D01*
X142782699Y-106635000D01*
X142808574Y-106629853D01*
X143069727Y-106521680D01*
X143304759Y-106364637D01*
X143504637Y-106164759D01*
X143661680Y-105929727D01*
X143769853Y-105668574D01*
X143825000Y-105391335D01*
X143825000Y-105108665D01*
X143769853Y-104831426D01*
X143661680Y-104570273D01*
X143504637Y-104335241D01*
X143304759Y-104135363D01*
X143069727Y-103978320D01*
X142808574Y-103870147D01*
X142782699Y-103865000D01*
X142808574Y-103859853D01*
X143069727Y-103751680D01*
X143304759Y-103594637D01*
X143504637Y-103394759D01*
X143661680Y-103159727D01*
X143769853Y-102898574D01*
X143825000Y-102621335D01*
X143825000Y-102338665D01*
X143769853Y-102061426D01*
X143661680Y-101800273D01*
X143504637Y-101565241D01*
X143304759Y-101365363D01*
X143069727Y-101208320D01*
X142808574Y-101100147D01*
X142782699Y-101095000D01*
X142808574Y-101089853D01*
X143069727Y-100981680D01*
X143304759Y-100824637D01*
X143504637Y-100624759D01*
X143661680Y-100389727D01*
X143769853Y-100128574D01*
X143825000Y-99851335D01*
X143825000Y-99568665D01*
X143769853Y-99291426D01*
X143661680Y-99030273D01*
X143504637Y-98795241D01*
X143304759Y-98595363D01*
X143069727Y-98438320D01*
X142808574Y-98330147D01*
X142782699Y-98325000D01*
X142808574Y-98319853D01*
X143069727Y-98211680D01*
X143304759Y-98054637D01*
X143504637Y-97854759D01*
X143661680Y-97619727D01*
X143769853Y-97358574D01*
X143825000Y-97081335D01*
X143825000Y-96798665D01*
X143769853Y-96521426D01*
X143661680Y-96260273D01*
X143504637Y-96025241D01*
X143304759Y-95825363D01*
X143069727Y-95668320D01*
X142808574Y-95560147D01*
X142782699Y-95555000D01*
X142808574Y-95549853D01*
X143069727Y-95441680D01*
X143304759Y-95284637D01*
X143504637Y-95084759D01*
X143661680Y-94849727D01*
X143769853Y-94588574D01*
X143825000Y-94311335D01*
X143825000Y-94028665D01*
X143769853Y-93751426D01*
X143661680Y-93490273D01*
X143504637Y-93255241D01*
X143304759Y-93055363D01*
X143069727Y-92898320D01*
X142808574Y-92790147D01*
X142782699Y-92785000D01*
X142808574Y-92779853D01*
X143069727Y-92671680D01*
X143304759Y-92514637D01*
X143504637Y-92314759D01*
X143661680Y-92079727D01*
X143769853Y-91818574D01*
X143825000Y-91541335D01*
X143825000Y-91258665D01*
X143769853Y-90981426D01*
X143661680Y-90720273D01*
X143504637Y-90485241D01*
X143304759Y-90285363D01*
X143069727Y-90128320D01*
X142808574Y-90020147D01*
X142782699Y-90015000D01*
X142808574Y-90009853D01*
X143069727Y-89901680D01*
X143304759Y-89744637D01*
X143504637Y-89544759D01*
X143661680Y-89309727D01*
X143769853Y-89048574D01*
X143825000Y-88771335D01*
X143825000Y-88488665D01*
X143769853Y-88211426D01*
X143661680Y-87950273D01*
X143504637Y-87715241D01*
X143304759Y-87515363D01*
X143069727Y-87358320D01*
X142808574Y-87250147D01*
X142782699Y-87245000D01*
X142808574Y-87239853D01*
X143069727Y-87131680D01*
X143304759Y-86974637D01*
X143504637Y-86774759D01*
X143661680Y-86539727D01*
X143769853Y-86278574D01*
X143825000Y-86001335D01*
X143825000Y-85718665D01*
X143769853Y-85441426D01*
X143661680Y-85180273D01*
X143504637Y-84945241D01*
X143304759Y-84745363D01*
X143069727Y-84588320D01*
X142808574Y-84480147D01*
X142782699Y-84475000D01*
X142808574Y-84469853D01*
X143069727Y-84361680D01*
X143304759Y-84204637D01*
X143504637Y-84004759D01*
X143661680Y-83769727D01*
X143769853Y-83508574D01*
X143825000Y-83231335D01*
X143825000Y-82948665D01*
X143769853Y-82671426D01*
X143661680Y-82410273D01*
X143504637Y-82175241D01*
X143304759Y-81975363D01*
X143069727Y-81818320D01*
X142808574Y-81710147D01*
X142782699Y-81705000D01*
X142808574Y-81699853D01*
X143069727Y-81591680D01*
X143304759Y-81434637D01*
X143504637Y-81234759D01*
X143661680Y-80999727D01*
X143769853Y-80738574D01*
X143825000Y-80461335D01*
X143825000Y-80178665D01*
X143769853Y-79901426D01*
X143661680Y-79640273D01*
X143504637Y-79405241D01*
X143304759Y-79205363D01*
X143069727Y-79048320D01*
X142920387Y-78986461D01*
X143190000Y-78988072D01*
X143314482Y-78975812D01*
X143434180Y-78939502D01*
X143544494Y-78880537D01*
X143641185Y-78801185D01*
X143647356Y-78793665D01*
X143795000Y-78793665D01*
X143795000Y-79076335D01*
X143850147Y-79353574D01*
X143958320Y-79614727D01*
X144115363Y-79849759D01*
X144315241Y-80049637D01*
X144550273Y-80206680D01*
X144811426Y-80314853D01*
X144837301Y-80320000D01*
X144811426Y-80325147D01*
X144550273Y-80433320D01*
X144315241Y-80590363D01*
X144115363Y-80790241D01*
X143958320Y-81025273D01*
X143850147Y-81286426D01*
X143795000Y-81563665D01*
X143795000Y-81846335D01*
X143850147Y-82123574D01*
X143958320Y-82384727D01*
X144115363Y-82619759D01*
X144315241Y-82819637D01*
X144550273Y-82976680D01*
X144811426Y-83084853D01*
X144837301Y-83090000D01*
X144811426Y-83095147D01*
X144550273Y-83203320D01*
X144315241Y-83360363D01*
X144115363Y-83560241D01*
X143958320Y-83795273D01*
X143850147Y-84056426D01*
X143795000Y-84333665D01*
X143795000Y-84616335D01*
X143850147Y-84893574D01*
X143958320Y-85154727D01*
X144115363Y-85389759D01*
X144315241Y-85589637D01*
X144550273Y-85746680D01*
X144811426Y-85854853D01*
X144837301Y-85860000D01*
X144811426Y-85865147D01*
X144550273Y-85973320D01*
X144315241Y-86130363D01*
X144115363Y-86330241D01*
X143958320Y-86565273D01*
X143850147Y-86826426D01*
X143795000Y-87103665D01*
X143795000Y-87386335D01*
X143850147Y-87663574D01*
X143958320Y-87924727D01*
X144115363Y-88159759D01*
X144315241Y-88359637D01*
X144550273Y-88516680D01*
X144811426Y-88624853D01*
X144837301Y-88630000D01*
X144811426Y-88635147D01*
X144550273Y-88743320D01*
X144315241Y-88900363D01*
X144115363Y-89100241D01*
X143958320Y-89335273D01*
X143850147Y-89596426D01*
X143795000Y-89873665D01*
X143795000Y-90156335D01*
X143850147Y-90433574D01*
X143958320Y-90694727D01*
X144115363Y-90929759D01*
X144315241Y-91129637D01*
X144550273Y-91286680D01*
X144811426Y-91394853D01*
X144837301Y-91400000D01*
X144811426Y-91405147D01*
X144550273Y-91513320D01*
X144315241Y-91670363D01*
X144115363Y-91870241D01*
X143958320Y-92105273D01*
X143850147Y-92366426D01*
X143795000Y-92643665D01*
X143795000Y-92926335D01*
X143850147Y-93203574D01*
X143958320Y-93464727D01*
X144115363Y-93699759D01*
X144315241Y-93899637D01*
X144550273Y-94056680D01*
X144811426Y-94164853D01*
X144837301Y-94170000D01*
X144811426Y-94175147D01*
X144550273Y-94283320D01*
X144315241Y-94440363D01*
X144115363Y-94640241D01*
X143958320Y-94875273D01*
X143850147Y-95136426D01*
X143795000Y-95413665D01*
X143795000Y-95696335D01*
X143850147Y-95973574D01*
X143958320Y-96234727D01*
X144115363Y-96469759D01*
X144315241Y-96669637D01*
X144550273Y-96826680D01*
X144811426Y-96934853D01*
X144837301Y-96940000D01*
X144811426Y-96945147D01*
X144550273Y-97053320D01*
X144315241Y-97210363D01*
X144115363Y-97410241D01*
X143958320Y-97645273D01*
X143850147Y-97906426D01*
X143795000Y-98183665D01*
X143795000Y-98466335D01*
X143850147Y-98743574D01*
X143958320Y-99004727D01*
X144115363Y-99239759D01*
X144315241Y-99439637D01*
X144550273Y-99596680D01*
X144811426Y-99704853D01*
X144837301Y-99710000D01*
X144811426Y-99715147D01*
X144550273Y-99823320D01*
X144315241Y-99980363D01*
X144115363Y-100180241D01*
X143958320Y-100415273D01*
X143850147Y-100676426D01*
X143795000Y-100953665D01*
X143795000Y-101236335D01*
X143850147Y-101513574D01*
X143958320Y-101774727D01*
X144115363Y-102009759D01*
X144315241Y-102209637D01*
X144550273Y-102366680D01*
X144811426Y-102474853D01*
X144837301Y-102480000D01*
X144811426Y-102485147D01*
X144550273Y-102593320D01*
X144315241Y-102750363D01*
X144115363Y-102950241D01*
X143958320Y-103185273D01*
X143850147Y-103446426D01*
X143795000Y-103723665D01*
X143795000Y-104006335D01*
X143850147Y-104283574D01*
X143958320Y-104544727D01*
X144115363Y-104779759D01*
X144315241Y-104979637D01*
X144550273Y-105136680D01*
X144811426Y-105244853D01*
X144837301Y-105250000D01*
X144811426Y-105255147D01*
X144550273Y-105363320D01*
X144315241Y-105520363D01*
X144115363Y-105720241D01*
X143958320Y-105955273D01*
X143850147Y-106216426D01*
X143795000Y-106493665D01*
X143795000Y-106776335D01*
X143850147Y-107053574D01*
X143958320Y-107314727D01*
X144115363Y-107549759D01*
X144315241Y-107749637D01*
X144550273Y-107906680D01*
X144811426Y-108014853D01*
X144837301Y-108020000D01*
X144811426Y-108025147D01*
X144550273Y-108133320D01*
X144315241Y-108290363D01*
X144115363Y-108490241D01*
X143958320Y-108725273D01*
X143850147Y-108986426D01*
X143795000Y-109263665D01*
X143795000Y-109546335D01*
X143850147Y-109823574D01*
X143958320Y-110084727D01*
X144115363Y-110319759D01*
X144315241Y-110519637D01*
X144550273Y-110676680D01*
X144811426Y-110784853D01*
X145088665Y-110840000D01*
X145371335Y-110840000D01*
X145648574Y-110784853D01*
X145909727Y-110676680D01*
X146144759Y-110519637D01*
X146344637Y-110319759D01*
X146501680Y-110084727D01*
X146609853Y-109823574D01*
X146665000Y-109546335D01*
X146665000Y-109263665D01*
X146609853Y-108986426D01*
X146501680Y-108725273D01*
X146344637Y-108490241D01*
X146144759Y-108290363D01*
X145909727Y-108133320D01*
X145648574Y-108025147D01*
X145622699Y-108020000D01*
X145648574Y-108014853D01*
X145909727Y-107906680D01*
X146144759Y-107749637D01*
X146344637Y-107549759D01*
X146501680Y-107314727D01*
X146609853Y-107053574D01*
X146665000Y-106776335D01*
X146665000Y-106493665D01*
X146609853Y-106216426D01*
X146501680Y-105955273D01*
X146344637Y-105720241D01*
X146144759Y-105520363D01*
X145909727Y-105363320D01*
X145648574Y-105255147D01*
X145622699Y-105250000D01*
X145648574Y-105244853D01*
X145909727Y-105136680D01*
X146144759Y-104979637D01*
X146344637Y-104779759D01*
X146501680Y-104544727D01*
X146609853Y-104283574D01*
X146665000Y-104006335D01*
X146665000Y-103723665D01*
X146609853Y-103446426D01*
X146501680Y-103185273D01*
X146344637Y-102950241D01*
X146144759Y-102750363D01*
X145909727Y-102593320D01*
X145648574Y-102485147D01*
X145622699Y-102480000D01*
X145648574Y-102474853D01*
X145909727Y-102366680D01*
X146144759Y-102209637D01*
X146344637Y-102009759D01*
X146501680Y-101774727D01*
X146609853Y-101513574D01*
X146665000Y-101236335D01*
X146665000Y-100953665D01*
X146609853Y-100676426D01*
X146501680Y-100415273D01*
X146344637Y-100180241D01*
X146144759Y-99980363D01*
X145909727Y-99823320D01*
X145648574Y-99715147D01*
X145622699Y-99710000D01*
X145648574Y-99704853D01*
X145909727Y-99596680D01*
X146144759Y-99439637D01*
X146344637Y-99239759D01*
X146501680Y-99004727D01*
X146609853Y-98743574D01*
X146665000Y-98466335D01*
X146665000Y-98183665D01*
X146609853Y-97906426D01*
X146501680Y-97645273D01*
X146344637Y-97410241D01*
X146144759Y-97210363D01*
X145909727Y-97053320D01*
X145648574Y-96945147D01*
X145622699Y-96940000D01*
X145648574Y-96934853D01*
X145909727Y-96826680D01*
X146144759Y-96669637D01*
X146344637Y-96469759D01*
X146501680Y-96234727D01*
X146609853Y-95973574D01*
X146665000Y-95696335D01*
X146665000Y-95413665D01*
X146609853Y-95136426D01*
X146501680Y-94875273D01*
X146344637Y-94640241D01*
X146144759Y-94440363D01*
X145909727Y-94283320D01*
X145648574Y-94175147D01*
X145622699Y-94170000D01*
X145648574Y-94164853D01*
X145909727Y-94056680D01*
X146144759Y-93899637D01*
X146344637Y-93699759D01*
X146501680Y-93464727D01*
X146609853Y-93203574D01*
X146665000Y-92926335D01*
X146665000Y-92643665D01*
X146609853Y-92366426D01*
X146501680Y-92105273D01*
X146344637Y-91870241D01*
X146144759Y-91670363D01*
X145909727Y-91513320D01*
X145648574Y-91405147D01*
X145622699Y-91400000D01*
X145648574Y-91394853D01*
X145909727Y-91286680D01*
X146144759Y-91129637D01*
X146344637Y-90929759D01*
X146501680Y-90694727D01*
X146609853Y-90433574D01*
X146665000Y-90156335D01*
X146665000Y-89873665D01*
X146609853Y-89596426D01*
X146501680Y-89335273D01*
X146344637Y-89100241D01*
X146144759Y-88900363D01*
X145909727Y-88743320D01*
X145648574Y-88635147D01*
X145622699Y-88630000D01*
X145648574Y-88624853D01*
X145909727Y-88516680D01*
X146144759Y-88359637D01*
X146344637Y-88159759D01*
X146501680Y-87924727D01*
X146609853Y-87663574D01*
X146665000Y-87386335D01*
X146665000Y-87103665D01*
X146609853Y-86826426D01*
X146501680Y-86565273D01*
X146344637Y-86330241D01*
X146144759Y-86130363D01*
X145909727Y-85973320D01*
X145648574Y-85865147D01*
X145622699Y-85860000D01*
X145648574Y-85854853D01*
X145909727Y-85746680D01*
X146144759Y-85589637D01*
X146344637Y-85389759D01*
X146501680Y-85154727D01*
X146609853Y-84893574D01*
X146665000Y-84616335D01*
X146665000Y-84333665D01*
X146609853Y-84056426D01*
X146501680Y-83795273D01*
X146344637Y-83560241D01*
X146144759Y-83360363D01*
X145909727Y-83203320D01*
X145648574Y-83095147D01*
X145622699Y-83090000D01*
X145648574Y-83084853D01*
X145909727Y-82976680D01*
X146144759Y-82819637D01*
X146344637Y-82619759D01*
X146501680Y-82384727D01*
X146609853Y-82123574D01*
X146665000Y-81846335D01*
X146665000Y-81563665D01*
X146609853Y-81286426D01*
X146501680Y-81025273D01*
X146344637Y-80790241D01*
X146144759Y-80590363D01*
X145909727Y-80433320D01*
X145648574Y-80325147D01*
X145622699Y-80320000D01*
X145648574Y-80314853D01*
X145909727Y-80206680D01*
X146144759Y-80049637D01*
X146344637Y-79849759D01*
X146501680Y-79614727D01*
X146609853Y-79353574D01*
X146665000Y-79076335D01*
X146665000Y-78793665D01*
X146609853Y-78516426D01*
X146501680Y-78255273D01*
X146344637Y-78020241D01*
X146144759Y-77820363D01*
X145909727Y-77663320D01*
X145648574Y-77555147D01*
X145371335Y-77500000D01*
X145088665Y-77500000D01*
X144811426Y-77555147D01*
X144550273Y-77663320D01*
X144315241Y-77820363D01*
X144115363Y-78020241D01*
X143958320Y-78255273D01*
X143850147Y-78516426D01*
X143795000Y-78793665D01*
X143647356Y-78793665D01*
X143720537Y-78704494D01*
X143779502Y-78594180D01*
X143815812Y-78474482D01*
X143828072Y-78350000D01*
X143825000Y-77835750D01*
X143666250Y-77677000D01*
X142517000Y-77677000D01*
X142517000Y-77697000D01*
X142263000Y-77697000D01*
X142263000Y-77677000D01*
X141113750Y-77677000D01*
X140955000Y-77835750D01*
X140951928Y-78350000D01*
X117443948Y-78350000D01*
X117485068Y-78250729D01*
X117521000Y-78070089D01*
X117521000Y-77885911D01*
X117485068Y-77705271D01*
X117414586Y-77535111D01*
X117312262Y-77381972D01*
X117182028Y-77251738D01*
X117028889Y-77149414D01*
X116858729Y-77078932D01*
X116745576Y-77056424D01*
X116723068Y-76943271D01*
X116652586Y-76773111D01*
X116637144Y-76750000D01*
X140951928Y-76750000D01*
X140955000Y-77264250D01*
X141113750Y-77423000D01*
X142263000Y-77423000D01*
X142263000Y-76273750D01*
X142517000Y-76273750D01*
X142517000Y-77423000D01*
X143666250Y-77423000D01*
X143825000Y-77264250D01*
X143828072Y-76750000D01*
X143815812Y-76625518D01*
X143779502Y-76505820D01*
X143720537Y-76395506D01*
X143641185Y-76298815D01*
X143544494Y-76219463D01*
X143434180Y-76160498D01*
X143314482Y-76124188D01*
X143190000Y-76111928D01*
X142675750Y-76115000D01*
X142517000Y-76273750D01*
X142263000Y-76273750D01*
X142104250Y-76115000D01*
X141590000Y-76111928D01*
X141465518Y-76124188D01*
X141345820Y-76160498D01*
X141235506Y-76219463D01*
X141138815Y-76298815D01*
X141059463Y-76395506D01*
X141000498Y-76505820D01*
X140964188Y-76625518D01*
X140951928Y-76750000D01*
X116637144Y-76750000D01*
X116550262Y-76619972D01*
X116420028Y-76489738D01*
X116266889Y-76387414D01*
X116096729Y-76316932D01*
X115916089Y-76281000D01*
X115731911Y-76281000D01*
X115551271Y-76316932D01*
X115381111Y-76387414D01*
X115227972Y-76489738D01*
X115097738Y-76619972D01*
X114995414Y-76773111D01*
X114924932Y-76943271D01*
X114889000Y-77123911D01*
X107420000Y-77123911D01*
X107420000Y-72297911D01*
X109555000Y-72297911D01*
X109555000Y-72482089D01*
X109590932Y-72662729D01*
X109661414Y-72832889D01*
X109704920Y-72898000D01*
X109661414Y-72963111D01*
X109590932Y-73133271D01*
X109555000Y-73313911D01*
X109555000Y-73498089D01*
X109590932Y-73678729D01*
X109661414Y-73848889D01*
X109704920Y-73914000D01*
X109661414Y-73979111D01*
X109590932Y-74149271D01*
X109555000Y-74329911D01*
X109555000Y-74514089D01*
X109590932Y-74694729D01*
X109661414Y-74864889D01*
X109704920Y-74930000D01*
X109661414Y-74995111D01*
X109590932Y-75165271D01*
X109555000Y-75345911D01*
X109555000Y-75530089D01*
X109590932Y-75710729D01*
X109661414Y-75880889D01*
X109763738Y-76034028D01*
X109893972Y-76164262D01*
X110047111Y-76266586D01*
X110217271Y-76337068D01*
X110397911Y-76373000D01*
X110582089Y-76373000D01*
X110762729Y-76337068D01*
X110932889Y-76266586D01*
X110998000Y-76223080D01*
X111063111Y-76266586D01*
X111233271Y-76337068D01*
X111413911Y-76373000D01*
X111598089Y-76373000D01*
X111778729Y-76337068D01*
X111948889Y-76266586D01*
X112102028Y-76164262D01*
X112232262Y-76034028D01*
X112334586Y-75880889D01*
X112405068Y-75710729D01*
X112441000Y-75530089D01*
X112441000Y-75345911D01*
X112405068Y-75165271D01*
X112334586Y-74995111D01*
X112291080Y-74930000D01*
X112334586Y-74864889D01*
X112405068Y-74694729D01*
X112441000Y-74514089D01*
X112441000Y-74329911D01*
X112405068Y-74149271D01*
X112334586Y-73979111D01*
X112291080Y-73914000D01*
X112334586Y-73848889D01*
X112405068Y-73678729D01*
X112441000Y-73498089D01*
X112441000Y-73313911D01*
X112405068Y-73133271D01*
X112334586Y-72963111D01*
X112291080Y-72898000D01*
X112334586Y-72832889D01*
X112405068Y-72662729D01*
X112441000Y-72482089D01*
X112441000Y-72297911D01*
X119715000Y-72297911D01*
X119715000Y-72482089D01*
X119750932Y-72662729D01*
X119821414Y-72832889D01*
X119864920Y-72898000D01*
X119821414Y-72963111D01*
X119750932Y-73133271D01*
X119715000Y-73313911D01*
X119715000Y-73498089D01*
X119750932Y-73678729D01*
X119821414Y-73848889D01*
X119864920Y-73914000D01*
X119821414Y-73979111D01*
X119750932Y-74149271D01*
X119715000Y-74329911D01*
X119715000Y-74514089D01*
X119750932Y-74694729D01*
X119821414Y-74864889D01*
X119864920Y-74930000D01*
X119821414Y-74995111D01*
X119750932Y-75165271D01*
X119715000Y-75345911D01*
X119715000Y-75530089D01*
X119750932Y-75710729D01*
X119821414Y-75880889D01*
X119923738Y-76034028D01*
X120053972Y-76164262D01*
X120207111Y-76266586D01*
X120377271Y-76337068D01*
X120557911Y-76373000D01*
X120742089Y-76373000D01*
X120922729Y-76337068D01*
X121092889Y-76266586D01*
X121158000Y-76223080D01*
X121223111Y-76266586D01*
X121393271Y-76337068D01*
X121573911Y-76373000D01*
X121758089Y-76373000D01*
X121938729Y-76337068D01*
X122108889Y-76266586D01*
X122262028Y-76164262D01*
X122392262Y-76034028D01*
X122494586Y-75880889D01*
X122565068Y-75710729D01*
X122601000Y-75530089D01*
X122601000Y-75345911D01*
X122565068Y-75165271D01*
X122494586Y-74995111D01*
X122451080Y-74930000D01*
X122494586Y-74864889D01*
X122565068Y-74694729D01*
X122601000Y-74514089D01*
X122601000Y-74329911D01*
X122565068Y-74149271D01*
X122494586Y-73979111D01*
X122451080Y-73914000D01*
X122494586Y-73848889D01*
X122565068Y-73678729D01*
X122601000Y-73498089D01*
X122601000Y-73313911D01*
X122565068Y-73133271D01*
X122494586Y-72963111D01*
X122451080Y-72898000D01*
X122494586Y-72832889D01*
X122565068Y-72662729D01*
X122601000Y-72482089D01*
X122601000Y-72467499D01*
X142142106Y-72467499D01*
X142358228Y-72834258D01*
X142818105Y-73074938D01*
X143316098Y-73221275D01*
X143833071Y-73267648D01*
X144349159Y-73212273D01*
X144844526Y-73057279D01*
X145261772Y-72834258D01*
X145477894Y-72467499D01*
X143810000Y-70799605D01*
X142142106Y-72467499D01*
X122601000Y-72467499D01*
X122601000Y-72297911D01*
X122565068Y-72117271D01*
X122494586Y-71947111D01*
X122392262Y-71793972D01*
X122262028Y-71663738D01*
X122108889Y-71561414D01*
X121938729Y-71490932D01*
X121758089Y-71455000D01*
X121573911Y-71455000D01*
X121393271Y-71490932D01*
X121223111Y-71561414D01*
X121158000Y-71604920D01*
X121092889Y-71561414D01*
X120922729Y-71490932D01*
X120742089Y-71455000D01*
X120557911Y-71455000D01*
X120377271Y-71490932D01*
X120207111Y-71561414D01*
X120053972Y-71663738D01*
X119923738Y-71793972D01*
X119821414Y-71947111D01*
X119750932Y-72117271D01*
X119715000Y-72297911D01*
X112441000Y-72297911D01*
X112405068Y-72117271D01*
X112334586Y-71947111D01*
X112232262Y-71793972D01*
X112102028Y-71663738D01*
X111948889Y-71561414D01*
X111778729Y-71490932D01*
X111598089Y-71455000D01*
X111413911Y-71455000D01*
X111233271Y-71490932D01*
X111063111Y-71561414D01*
X110998000Y-71604920D01*
X110932889Y-71561414D01*
X110762729Y-71490932D01*
X110582089Y-71455000D01*
X110397911Y-71455000D01*
X110217271Y-71490932D01*
X110047111Y-71561414D01*
X109893972Y-71663738D01*
X109763738Y-71793972D01*
X109661414Y-71947111D01*
X109590932Y-72117271D01*
X109555000Y-72297911D01*
X107420000Y-72297911D01*
X107420000Y-70643071D01*
X141162352Y-70643071D01*
X141217727Y-71159159D01*
X141372721Y-71654526D01*
X141595742Y-72071772D01*
X141962501Y-72287894D01*
X143630395Y-70620000D01*
X143989605Y-70620000D01*
X145657499Y-72287894D01*
X146024258Y-72071772D01*
X146264938Y-71611895D01*
X146411275Y-71113902D01*
X146457648Y-70596929D01*
X146402273Y-70080841D01*
X146247279Y-69585474D01*
X146024258Y-69168228D01*
X145657499Y-68952106D01*
X143989605Y-70620000D01*
X143630395Y-70620000D01*
X141962501Y-68952106D01*
X141595742Y-69168228D01*
X141355062Y-69628105D01*
X141208725Y-70126098D01*
X141162352Y-70643071D01*
X107420000Y-70643071D01*
X107420000Y-68772501D01*
X142142106Y-68772501D01*
X143810000Y-70440395D01*
X145477894Y-68772501D01*
X145261772Y-68405742D01*
X144801895Y-68165062D01*
X144303902Y-68018725D01*
X143786929Y-67972352D01*
X143270841Y-68027727D01*
X142775474Y-68182721D01*
X142358228Y-68405742D01*
X142142106Y-68772501D01*
X107420000Y-68772501D01*
X107420000Y-64365872D01*
X107482368Y-64516442D01*
X108010624Y-65307033D01*
X108682967Y-65979376D01*
X109473558Y-66507632D01*
X110352016Y-66871501D01*
X111284582Y-67057000D01*
X112235418Y-67057000D01*
X113167984Y-66871501D01*
X114046442Y-66507632D01*
X114837033Y-65979376D01*
X115509376Y-65307033D01*
X116037632Y-64516442D01*
X116401501Y-63637984D01*
X116587000Y-62705418D01*
X116587000Y-61754582D01*
X116401501Y-60822016D01*
X116037632Y-59943558D01*
X115509376Y-59152967D01*
X114837033Y-58480624D01*
X114046442Y-57952368D01*
X113895872Y-57890000D01*
X145624128Y-57890000D01*
X145473558Y-57952368D01*
%TA.AperFunction,Conductor*%
D22*
G36*
X145473558Y-57952368D02*
G01*
X144682967Y-58480624D01*
X144010624Y-59152967D01*
X143482368Y-59943558D01*
X143118499Y-60822016D01*
X142933000Y-61754582D01*
X142933000Y-62705418D01*
X143118499Y-63637984D01*
X143482368Y-64516442D01*
X144010624Y-65307033D01*
X144682967Y-65979376D01*
X145473558Y-66507632D01*
X146352016Y-66871501D01*
X147284582Y-67057000D01*
X148235418Y-67057000D01*
X149167984Y-66871501D01*
X150046442Y-66507632D01*
X150837033Y-65979376D01*
X151509376Y-65307033D01*
X152037632Y-64516442D01*
X152100001Y-64365870D01*
X152100000Y-124094128D01*
X152037632Y-123943558D01*
X151509376Y-123152967D01*
X150837033Y-122480624D01*
X150046442Y-121952368D01*
X149167984Y-121588499D01*
X148235418Y-121403000D01*
X147284582Y-121403000D01*
X146352016Y-121588499D01*
X145473558Y-121952368D01*
X144682967Y-122480624D01*
X144010624Y-123152967D01*
X143482368Y-123943558D01*
X143118499Y-124822016D01*
X142933000Y-125754582D01*
X142933000Y-126705418D01*
X143118499Y-127637984D01*
X143482368Y-128516442D01*
X144010624Y-129307033D01*
X144682967Y-129979376D01*
X145473558Y-130507632D01*
X145624128Y-130570000D01*
X113895872Y-130570000D01*
X114046442Y-130507632D01*
X114837033Y-129979376D01*
X115509376Y-129307033D01*
X116037632Y-128516442D01*
X116283066Y-127923911D01*
X122001000Y-127923911D01*
X122001000Y-128108089D01*
X122036932Y-128288729D01*
X122107414Y-128458889D01*
X122209738Y-128612028D01*
X122339972Y-128742262D01*
X122493111Y-128844586D01*
X122663271Y-128915068D01*
X122843911Y-128951000D01*
X123028089Y-128951000D01*
X123208729Y-128915068D01*
X123378889Y-128844586D01*
X123532028Y-128742262D01*
X123662262Y-128612028D01*
X123764586Y-128458889D01*
X123835068Y-128288729D01*
X123871000Y-128108089D01*
X123871000Y-127923911D01*
X136225000Y-127923911D01*
X136225000Y-128108089D01*
X136260932Y-128288729D01*
X136331414Y-128458889D01*
X136433738Y-128612028D01*
X136563972Y-128742262D01*
X136717111Y-128844586D01*
X136887271Y-128915068D01*
X137067911Y-128951000D01*
X137252089Y-128951000D01*
X137432729Y-128915068D01*
X137602889Y-128844586D01*
X137756028Y-128742262D01*
X137886262Y-128612028D01*
X137988586Y-128458889D01*
X138059068Y-128288729D01*
X138095000Y-128108089D01*
X138095000Y-127923911D01*
X138059068Y-127743271D01*
X137988586Y-127573111D01*
X137886262Y-127419972D01*
X137756028Y-127289738D01*
X137602889Y-127187414D01*
X137432729Y-127116932D01*
X137252089Y-127081000D01*
X137067911Y-127081000D01*
X136887271Y-127116932D01*
X136717111Y-127187414D01*
X136563972Y-127289738D01*
X136433738Y-127419972D01*
X136331414Y-127573111D01*
X136260932Y-127743271D01*
X136225000Y-127923911D01*
X123871000Y-127923911D01*
X123835068Y-127743271D01*
X123764586Y-127573111D01*
X123662262Y-127419972D01*
X123532028Y-127289738D01*
X123378889Y-127187414D01*
X123208729Y-127116932D01*
X123028089Y-127081000D01*
X122843911Y-127081000D01*
X122663271Y-127116932D01*
X122493111Y-127187414D01*
X122339972Y-127289738D01*
X122209738Y-127419972D01*
X122107414Y-127573111D01*
X122036932Y-127743271D01*
X122001000Y-127923911D01*
X116283066Y-127923911D01*
X116401501Y-127637984D01*
X116587000Y-126705418D01*
X116587000Y-125754582D01*
X116401501Y-124822016D01*
X116037632Y-123943558D01*
X115509376Y-123152967D01*
X114837033Y-122480624D01*
X114240317Y-122081911D01*
X126065000Y-122081911D01*
X126065000Y-122266089D01*
X126100932Y-122446729D01*
X126171414Y-122616889D01*
X126273738Y-122770028D01*
X126403972Y-122900262D01*
X126557111Y-123002586D01*
X126727271Y-123073068D01*
X126907911Y-123109000D01*
X127092089Y-123109000D01*
X127272729Y-123073068D01*
X127442889Y-123002586D01*
X127596028Y-122900262D01*
X127726262Y-122770028D01*
X127828586Y-122616889D01*
X127899068Y-122446729D01*
X127935000Y-122266089D01*
X127935000Y-122081911D01*
X132161000Y-122081911D01*
X132161000Y-122266089D01*
X132196932Y-122446729D01*
X132267414Y-122616889D01*
X132369738Y-122770028D01*
X132499972Y-122900262D01*
X132653111Y-123002586D01*
X132823271Y-123073068D01*
X133003911Y-123109000D01*
X133188089Y-123109000D01*
X133368729Y-123073068D01*
X133538889Y-123002586D01*
X133692028Y-122900262D01*
X133822262Y-122770028D01*
X133924586Y-122616889D01*
X133995068Y-122446729D01*
X134031000Y-122266089D01*
X134031000Y-122081911D01*
X133995068Y-121901271D01*
X133924586Y-121731111D01*
X133822262Y-121577972D01*
X133692028Y-121447738D01*
X133538889Y-121345414D01*
X133368729Y-121274932D01*
X133188089Y-121239000D01*
X133003911Y-121239000D01*
X132823271Y-121274932D01*
X132653111Y-121345414D01*
X132499972Y-121447738D01*
X132369738Y-121577972D01*
X132267414Y-121731111D01*
X132196932Y-121901271D01*
X132161000Y-122081911D01*
X127935000Y-122081911D01*
X127899068Y-121901271D01*
X127828586Y-121731111D01*
X127726262Y-121577972D01*
X127596028Y-121447738D01*
X127442889Y-121345414D01*
X127272729Y-121274932D01*
X127092089Y-121239000D01*
X126907911Y-121239000D01*
X126727271Y-121274932D01*
X126557111Y-121345414D01*
X126403972Y-121447738D01*
X126273738Y-121577972D01*
X126171414Y-121731111D01*
X126100932Y-121901271D01*
X126065000Y-122081911D01*
X114240317Y-122081911D01*
X114046442Y-121952368D01*
X113167984Y-121588499D01*
X112235418Y-121403000D01*
X111284582Y-121403000D01*
X110352016Y-121588499D01*
X109473558Y-121952368D01*
X108682967Y-122480624D01*
X108010624Y-123152967D01*
X107482368Y-123943558D01*
X107420000Y-124094128D01*
X107420000Y-119567499D01*
X142142106Y-119567499D01*
X142358228Y-119934258D01*
X142818105Y-120174938D01*
X143316098Y-120321275D01*
X143833071Y-120367648D01*
X144349159Y-120312273D01*
X144844526Y-120157279D01*
X145261772Y-119934258D01*
X145477894Y-119567499D01*
X143810000Y-117899605D01*
X142142106Y-119567499D01*
X107420000Y-119567499D01*
X107420000Y-117743071D01*
X141162352Y-117743071D01*
X141217727Y-118259159D01*
X141372721Y-118754526D01*
X141595742Y-119171772D01*
X141962501Y-119387894D01*
X143630395Y-117720000D01*
X143989605Y-117720000D01*
X145657499Y-119387894D01*
X146024258Y-119171772D01*
X146264938Y-118711895D01*
X146411275Y-118213902D01*
X146457648Y-117696929D01*
X146402273Y-117180841D01*
X146247279Y-116685474D01*
X146024258Y-116268228D01*
X145657499Y-116052106D01*
X143989605Y-117720000D01*
X143630395Y-117720000D01*
X141962501Y-116052106D01*
X141595742Y-116268228D01*
X141355062Y-116728105D01*
X141208725Y-117226098D01*
X141162352Y-117743071D01*
X107420000Y-117743071D01*
X107420000Y-115872501D01*
X142142106Y-115872501D01*
X143810000Y-117540395D01*
X145477894Y-115872501D01*
X145261772Y-115505742D01*
X144801895Y-115265062D01*
X144303902Y-115118725D01*
X143786929Y-115072352D01*
X143270841Y-115127727D01*
X142775474Y-115282721D01*
X142358228Y-115505742D01*
X142142106Y-115872501D01*
X107420000Y-115872501D01*
X107420000Y-114461911D01*
X125303000Y-114461911D01*
X125303000Y-114646089D01*
X125338932Y-114826729D01*
X125409414Y-114996889D01*
X125511738Y-115150028D01*
X125641972Y-115280262D01*
X125795111Y-115382586D01*
X125965271Y-115453068D01*
X126145911Y-115489000D01*
X126330089Y-115489000D01*
X126510729Y-115453068D01*
X126680889Y-115382586D01*
X126834028Y-115280262D01*
X126964262Y-115150028D01*
X127066586Y-114996889D01*
X127137068Y-114826729D01*
X127173000Y-114646089D01*
X127173000Y-114461911D01*
X127137068Y-114281271D01*
X127066586Y-114111111D01*
X126964262Y-113957972D01*
X126834028Y-113827738D01*
X126680889Y-113725414D01*
X126510729Y-113654932D01*
X126330089Y-113619000D01*
X126145911Y-113619000D01*
X125965271Y-113654932D01*
X125795111Y-113725414D01*
X125641972Y-113827738D01*
X125511738Y-113957972D01*
X125409414Y-114111111D01*
X125338932Y-114281271D01*
X125303000Y-114461911D01*
X107420000Y-114461911D01*
X107420000Y-113445911D01*
X129113000Y-113445911D01*
X129113000Y-113630089D01*
X129148932Y-113810729D01*
X129219414Y-113980889D01*
X129321738Y-114134028D01*
X129451972Y-114264262D01*
X129605111Y-114366586D01*
X129775271Y-114437068D01*
X129955911Y-114473000D01*
X130140089Y-114473000D01*
X130320729Y-114437068D01*
X130490889Y-114366586D01*
X130644028Y-114264262D01*
X130774262Y-114134028D01*
X130876586Y-113980889D01*
X130937000Y-113835036D01*
X130997414Y-113980889D01*
X131099738Y-114134028D01*
X131229972Y-114264262D01*
X131383111Y-114366586D01*
X131553271Y-114437068D01*
X131733911Y-114473000D01*
X131918089Y-114473000D01*
X132098729Y-114437068D01*
X132268889Y-114366586D01*
X132422028Y-114264262D01*
X132552262Y-114134028D01*
X132654586Y-113980889D01*
X132725068Y-113810729D01*
X132761000Y-113630089D01*
X132761000Y-113445911D01*
X132725068Y-113265271D01*
X132654586Y-113095111D01*
X132552262Y-112941972D01*
X132422028Y-112811738D01*
X132268889Y-112709414D01*
X132098729Y-112638932D01*
X131918089Y-112603000D01*
X131733911Y-112603000D01*
X131553271Y-112638932D01*
X131383111Y-112709414D01*
X131229972Y-112811738D01*
X131099738Y-112941972D01*
X130997414Y-113095111D01*
X130937000Y-113240964D01*
X130876586Y-113095111D01*
X130774262Y-112941972D01*
X130644028Y-112811738D01*
X130490889Y-112709414D01*
X130320729Y-112638932D01*
X130140089Y-112603000D01*
X129955911Y-112603000D01*
X129775271Y-112638932D01*
X129605111Y-112709414D01*
X129451972Y-112811738D01*
X129321738Y-112941972D01*
X129219414Y-113095111D01*
X129148932Y-113265271D01*
X129113000Y-113445911D01*
X107420000Y-113445911D01*
X107420000Y-110859909D01*
X129875000Y-110859909D01*
X129875000Y-111044087D01*
X129910932Y-111224727D01*
X129981414Y-111394887D01*
X130083738Y-111548026D01*
X130213972Y-111678260D01*
X130367111Y-111780584D01*
X130537271Y-111851066D01*
X130717911Y-111886998D01*
X130902089Y-111886998D01*
X131082729Y-111851066D01*
X131247775Y-111782702D01*
X141576903Y-111782702D01*
X141648486Y-112026671D01*
X141903996Y-112147571D01*
X142178184Y-112216300D01*
X142460512Y-112230217D01*
X142740130Y-112188787D01*
X143006292Y-112093603D01*
X143131514Y-112026671D01*
X143203097Y-111782702D01*
X142390000Y-110969605D01*
X141576903Y-111782702D01*
X131247775Y-111782702D01*
X131252889Y-111780584D01*
X131406028Y-111678260D01*
X131536262Y-111548026D01*
X131638586Y-111394887D01*
X131709068Y-111224727D01*
X131745000Y-111044087D01*
X131745000Y-110860512D01*
X140949783Y-110860512D01*
X140991213Y-111140130D01*
X141086397Y-111406292D01*
X141153329Y-111531514D01*
X141397298Y-111603097D01*
X142210395Y-110790000D01*
X142569605Y-110790000D01*
X143382702Y-111603097D01*
X143626671Y-111531514D01*
X143747571Y-111276004D01*
X143816300Y-111001816D01*
X143830217Y-110719488D01*
X143788787Y-110439870D01*
X143693603Y-110173708D01*
X143626671Y-110048486D01*
X143382702Y-109976903D01*
X142569605Y-110790000D01*
X142210395Y-110790000D01*
X141397298Y-109976903D01*
X141153329Y-110048486D01*
X141032429Y-110303996D01*
X140963700Y-110578184D01*
X140949783Y-110860512D01*
X131745000Y-110860512D01*
X131745000Y-110859909D01*
X131709068Y-110679269D01*
X131638586Y-110509109D01*
X131536262Y-110355970D01*
X131406028Y-110225736D01*
X131252889Y-110123412D01*
X131082729Y-110052930D01*
X130902089Y-110016998D01*
X130717911Y-110016998D01*
X130537271Y-110052930D01*
X130367111Y-110123412D01*
X130213972Y-110225736D01*
X130083738Y-110355970D01*
X129981414Y-110509109D01*
X129910932Y-110679269D01*
X129875000Y-110859909D01*
X107420000Y-110859909D01*
X107420000Y-107603911D01*
X125811000Y-107603911D01*
X125811000Y-107788089D01*
X125846932Y-107968729D01*
X125917414Y-108138889D01*
X126019738Y-108292028D01*
X126149972Y-108422262D01*
X126303111Y-108524586D01*
X126473271Y-108595068D01*
X126653911Y-108631000D01*
X126838089Y-108631000D01*
X127018729Y-108595068D01*
X127188889Y-108524586D01*
X127342028Y-108422262D01*
X127472262Y-108292028D01*
X127574586Y-108138889D01*
X127645068Y-107968729D01*
X127681000Y-107788089D01*
X127681000Y-107603911D01*
X127645068Y-107423271D01*
X127574586Y-107253111D01*
X127472262Y-107099972D01*
X127342028Y-106969738D01*
X127188889Y-106867414D01*
X127018729Y-106796932D01*
X126838089Y-106761000D01*
X126653911Y-106761000D01*
X126473271Y-106796932D01*
X126303111Y-106867414D01*
X126149972Y-106969738D01*
X126019738Y-107099972D01*
X125917414Y-107253111D01*
X125846932Y-107423271D01*
X125811000Y-107603911D01*
X107420000Y-107603911D01*
X107420000Y-105317911D01*
X117175000Y-105317911D01*
X117175000Y-105502089D01*
X117210932Y-105682729D01*
X117281414Y-105852889D01*
X117383738Y-106006028D01*
X117513972Y-106136262D01*
X117667111Y-106238586D01*
X117837271Y-106309068D01*
X118017911Y-106345000D01*
X118202089Y-106345000D01*
X118382729Y-106309068D01*
X118552889Y-106238586D01*
X118706028Y-106136262D01*
X118836262Y-106006028D01*
X118938586Y-105852889D01*
X119009068Y-105682729D01*
X119045000Y-105502089D01*
X119045000Y-105317911D01*
X119009068Y-105137271D01*
X118938586Y-104967111D01*
X118836262Y-104813972D01*
X118706028Y-104683738D01*
X118552889Y-104581414D01*
X118382729Y-104510932D01*
X118202089Y-104475000D01*
X118017911Y-104475000D01*
X117837271Y-104510932D01*
X117667111Y-104581414D01*
X117513972Y-104683738D01*
X117383738Y-104813972D01*
X117281414Y-104967111D01*
X117210932Y-105137271D01*
X117175000Y-105317911D01*
X107420000Y-105317911D01*
X107420000Y-103539911D01*
X119715000Y-103539911D01*
X119715000Y-103724089D01*
X119750932Y-103904729D01*
X119821414Y-104074889D01*
X119923738Y-104228028D01*
X120053972Y-104358262D01*
X120207111Y-104460586D01*
X120377271Y-104531068D01*
X120557911Y-104567000D01*
X120742089Y-104567000D01*
X120922729Y-104531068D01*
X121092889Y-104460586D01*
X121246028Y-104358262D01*
X121376262Y-104228028D01*
X121478586Y-104074889D01*
X121549068Y-103904729D01*
X121571111Y-103793911D01*
X130129000Y-103793911D01*
X130129000Y-103978089D01*
X130164932Y-104158729D01*
X130235414Y-104328889D01*
X130337738Y-104482028D01*
X130467972Y-104612262D01*
X130621111Y-104714586D01*
X130791271Y-104785068D01*
X130971911Y-104821000D01*
X131156089Y-104821000D01*
X131336729Y-104785068D01*
X131506889Y-104714586D01*
X131660028Y-104612262D01*
X131790262Y-104482028D01*
X131892586Y-104328889D01*
X131963068Y-104158729D01*
X131985576Y-104045576D01*
X132098729Y-104023068D01*
X132268889Y-103952586D01*
X132422028Y-103850262D01*
X132552262Y-103720028D01*
X132654586Y-103566889D01*
X132725068Y-103396729D01*
X132761000Y-103216089D01*
X132761000Y-103031911D01*
X132725068Y-102851271D01*
X132654586Y-102681111D01*
X132552262Y-102527972D01*
X132422028Y-102397738D01*
X132268889Y-102295414D01*
X132098729Y-102224932D01*
X131918089Y-102189000D01*
X131733911Y-102189000D01*
X131553271Y-102224932D01*
X131383111Y-102295414D01*
X131229972Y-102397738D01*
X131099738Y-102527972D01*
X130997414Y-102681111D01*
X130926932Y-102851271D01*
X130904424Y-102964424D01*
X130791271Y-102986932D01*
X130621111Y-103057414D01*
X130467972Y-103159738D01*
X130337738Y-103289972D01*
X130235414Y-103443111D01*
X130164932Y-103613271D01*
X130129000Y-103793911D01*
X121571111Y-103793911D01*
X121585000Y-103724089D01*
X121585000Y-103539911D01*
X121549068Y-103359271D01*
X121478586Y-103189111D01*
X121376262Y-103035972D01*
X121246028Y-102905738D01*
X121092889Y-102803414D01*
X120922729Y-102732932D01*
X120742089Y-102697000D01*
X120557911Y-102697000D01*
X120377271Y-102732932D01*
X120207111Y-102803414D01*
X120053972Y-102905738D01*
X119923738Y-103035972D01*
X119821414Y-103189111D01*
X119750932Y-103359271D01*
X119715000Y-103539911D01*
X107420000Y-103539911D01*
X107420000Y-99937911D01*
X116931738Y-99937911D01*
X116931738Y-100122089D01*
X116967670Y-100302729D01*
X117038152Y-100472889D01*
X117140476Y-100626028D01*
X117270710Y-100756262D01*
X117423849Y-100858586D01*
X117594009Y-100929068D01*
X117774649Y-100965000D01*
X117958827Y-100965000D01*
X118139467Y-100929068D01*
X118309627Y-100858586D01*
X118462766Y-100756262D01*
X118593000Y-100626028D01*
X118695324Y-100472889D01*
X118765806Y-100302729D01*
X118801738Y-100122089D01*
X118801738Y-99937911D01*
X118765806Y-99757271D01*
X118695324Y-99587111D01*
X118593000Y-99433972D01*
X118462766Y-99303738D01*
X118340303Y-99221911D01*
X120223000Y-99221911D01*
X120223000Y-99406089D01*
X120258932Y-99586729D01*
X120329414Y-99756889D01*
X120431738Y-99910028D01*
X120561972Y-100040262D01*
X120715111Y-100142586D01*
X120885271Y-100213068D01*
X121065911Y-100249000D01*
X121250089Y-100249000D01*
X121430729Y-100213068D01*
X121600889Y-100142586D01*
X121754028Y-100040262D01*
X121810379Y-99983911D01*
X132923000Y-99983911D01*
X132923000Y-100168089D01*
X132958932Y-100348729D01*
X133029414Y-100518889D01*
X133131738Y-100672028D01*
X133261972Y-100802262D01*
X133415111Y-100904586D01*
X133585271Y-100975068D01*
X133765911Y-101011000D01*
X133950089Y-101011000D01*
X134130729Y-100975068D01*
X134300889Y-100904586D01*
X134454028Y-100802262D01*
X134584262Y-100672028D01*
X134686586Y-100518889D01*
X134757068Y-100348729D01*
X134793000Y-100168089D01*
X134793000Y-99983911D01*
X134757068Y-99803271D01*
X134686586Y-99633111D01*
X134584262Y-99479972D01*
X134454028Y-99349738D01*
X134300889Y-99247414D01*
X134130729Y-99176932D01*
X133950089Y-99141000D01*
X133765911Y-99141000D01*
X133585271Y-99176932D01*
X133415111Y-99247414D01*
X133261972Y-99349738D01*
X133131738Y-99479972D01*
X133029414Y-99633111D01*
X132958932Y-99803271D01*
X132923000Y-99983911D01*
X121810379Y-99983911D01*
X121884262Y-99910028D01*
X121986586Y-99756889D01*
X122057068Y-99586729D01*
X122093000Y-99406089D01*
X122093000Y-99221911D01*
X122057068Y-99041271D01*
X121986586Y-98871111D01*
X121884262Y-98717972D01*
X121754028Y-98587738D01*
X121600889Y-98485414D01*
X121430729Y-98414932D01*
X121250089Y-98379000D01*
X121065911Y-98379000D01*
X120885271Y-98414932D01*
X120715111Y-98485414D01*
X120561972Y-98587738D01*
X120431738Y-98717972D01*
X120329414Y-98871111D01*
X120258932Y-99041271D01*
X120223000Y-99221911D01*
X118340303Y-99221911D01*
X118309627Y-99201414D01*
X118139467Y-99130932D01*
X117958827Y-99095000D01*
X117774649Y-99095000D01*
X117594009Y-99130932D01*
X117423849Y-99201414D01*
X117270710Y-99303738D01*
X117140476Y-99433972D01*
X117038152Y-99587111D01*
X116967670Y-99757271D01*
X116931738Y-99937911D01*
X107420000Y-99937911D01*
X107420000Y-97951911D01*
X109301000Y-97951911D01*
X109301000Y-98136089D01*
X109336932Y-98316729D01*
X109407414Y-98486889D01*
X109509738Y-98640028D01*
X109639972Y-98770262D01*
X109793111Y-98872586D01*
X109963271Y-98943068D01*
X110143911Y-98979000D01*
X110328089Y-98979000D01*
X110508729Y-98943068D01*
X110678889Y-98872586D01*
X110832028Y-98770262D01*
X110962262Y-98640028D01*
X111064586Y-98486889D01*
X111135068Y-98316729D01*
X111171000Y-98136089D01*
X111171000Y-97951911D01*
X111135068Y-97771271D01*
X111064586Y-97601111D01*
X110962262Y-97447972D01*
X110958201Y-97443911D01*
X127335000Y-97443911D01*
X127335000Y-97628089D01*
X127370932Y-97808729D01*
X127441414Y-97978889D01*
X127543738Y-98132028D01*
X127673972Y-98262262D01*
X127827111Y-98364586D01*
X127997271Y-98435068D01*
X128177911Y-98471000D01*
X128362089Y-98471000D01*
X128542729Y-98435068D01*
X128712889Y-98364586D01*
X128866028Y-98262262D01*
X128996262Y-98132028D01*
X129098586Y-97978889D01*
X129169068Y-97808729D01*
X129205000Y-97628089D01*
X129205000Y-97443911D01*
X129169068Y-97263271D01*
X129098586Y-97093111D01*
X128996262Y-96939972D01*
X128866028Y-96809738D01*
X128712889Y-96707414D01*
X128542729Y-96636932D01*
X128362089Y-96601000D01*
X128177911Y-96601000D01*
X127997271Y-96636932D01*
X127827111Y-96707414D01*
X127673972Y-96809738D01*
X127543738Y-96939972D01*
X127441414Y-97093111D01*
X127370932Y-97263271D01*
X127335000Y-97443911D01*
X110958201Y-97443911D01*
X110832028Y-97317738D01*
X110678889Y-97215414D01*
X110508729Y-97144932D01*
X110328089Y-97109000D01*
X110143911Y-97109000D01*
X109963271Y-97144932D01*
X109793111Y-97215414D01*
X109639972Y-97317738D01*
X109509738Y-97447972D01*
X109407414Y-97601111D01*
X109336932Y-97771271D01*
X109301000Y-97951911D01*
X107420000Y-97951911D01*
X107420000Y-93585854D01*
X115856943Y-93585854D01*
X115856943Y-93770032D01*
X115892875Y-93950672D01*
X115963357Y-94120832D01*
X116065681Y-94273971D01*
X116195915Y-94404205D01*
X116349054Y-94506529D01*
X116452527Y-94549388D01*
X116495386Y-94652861D01*
X116597710Y-94806000D01*
X116727944Y-94936234D01*
X116881083Y-95038558D01*
X116984555Y-95081417D01*
X117027414Y-95184889D01*
X117129738Y-95338028D01*
X117259972Y-95468262D01*
X117413111Y-95570586D01*
X117583271Y-95641068D01*
X117763911Y-95677000D01*
X117948089Y-95677000D01*
X118128729Y-95641068D01*
X118298889Y-95570586D01*
X118452028Y-95468262D01*
X118582262Y-95338028D01*
X118684586Y-95184889D01*
X118755068Y-95014729D01*
X118791000Y-94834089D01*
X118791000Y-94649911D01*
X118755068Y-94469271D01*
X118684586Y-94299111D01*
X118582262Y-94145972D01*
X118452028Y-94015738D01*
X118298889Y-93913414D01*
X118237319Y-93887911D01*
X123017000Y-93887911D01*
X123017000Y-94072089D01*
X123052932Y-94252729D01*
X123123414Y-94422889D01*
X123225738Y-94576028D01*
X123355972Y-94706262D01*
X123509111Y-94808586D01*
X123679271Y-94879068D01*
X123859911Y-94915000D01*
X124044089Y-94915000D01*
X124224729Y-94879068D01*
X124394889Y-94808586D01*
X124548028Y-94706262D01*
X124604379Y-94649911D01*
X136987000Y-94649911D01*
X136987000Y-94834089D01*
X137022932Y-95014729D01*
X137093414Y-95184889D01*
X137195738Y-95338028D01*
X137325972Y-95468262D01*
X137479111Y-95570586D01*
X137649271Y-95641068D01*
X137829911Y-95677000D01*
X138014089Y-95677000D01*
X138194729Y-95641068D01*
X138364889Y-95570586D01*
X138518028Y-95468262D01*
X138648262Y-95338028D01*
X138750586Y-95184889D01*
X138821068Y-95014729D01*
X138857000Y-94834089D01*
X138857000Y-94649911D01*
X138821068Y-94469271D01*
X138750586Y-94299111D01*
X138648262Y-94145972D01*
X138518028Y-94015738D01*
X138364889Y-93913414D01*
X138194729Y-93842932D01*
X138014089Y-93807000D01*
X137829911Y-93807000D01*
X137649271Y-93842932D01*
X137479111Y-93913414D01*
X137325972Y-94015738D01*
X137195738Y-94145972D01*
X137093414Y-94299111D01*
X137022932Y-94469271D01*
X136987000Y-94649911D01*
X124604379Y-94649911D01*
X124678262Y-94576028D01*
X124780586Y-94422889D01*
X124851068Y-94252729D01*
X124887000Y-94072089D01*
X124887000Y-93887911D01*
X124851068Y-93707271D01*
X124780586Y-93537111D01*
X124678262Y-93383972D01*
X124674201Y-93379911D01*
X130383000Y-93379911D01*
X130383000Y-93564089D01*
X130418932Y-93744729D01*
X130489414Y-93914889D01*
X130591738Y-94068028D01*
X130721972Y-94198262D01*
X130875111Y-94300586D01*
X131045271Y-94371068D01*
X131225911Y-94407000D01*
X131410089Y-94407000D01*
X131590729Y-94371068D01*
X131760889Y-94300586D01*
X131914028Y-94198262D01*
X132044262Y-94068028D01*
X132146586Y-93914889D01*
X132217068Y-93744729D01*
X132253000Y-93564089D01*
X132253000Y-93379911D01*
X132217068Y-93199271D01*
X132146586Y-93029111D01*
X132044262Y-92875972D01*
X131914028Y-92745738D01*
X131760889Y-92643414D01*
X131590729Y-92572932D01*
X131410089Y-92537000D01*
X131225911Y-92537000D01*
X131045271Y-92572932D01*
X130875111Y-92643414D01*
X130721972Y-92745738D01*
X130591738Y-92875972D01*
X130489414Y-93029111D01*
X130418932Y-93199271D01*
X130383000Y-93379911D01*
X124674201Y-93379911D01*
X124548028Y-93253738D01*
X124394889Y-93151414D01*
X124224729Y-93080932D01*
X124044089Y-93045000D01*
X123859911Y-93045000D01*
X123679271Y-93080932D01*
X123509111Y-93151414D01*
X123355972Y-93253738D01*
X123225738Y-93383972D01*
X123123414Y-93537111D01*
X123052932Y-93707271D01*
X123017000Y-93887911D01*
X118237319Y-93887911D01*
X118195417Y-93870555D01*
X118152558Y-93767083D01*
X118050234Y-93613944D01*
X117920000Y-93483710D01*
X117766861Y-93381386D01*
X117663388Y-93338527D01*
X117620529Y-93235054D01*
X117518205Y-93081915D01*
X117387971Y-92951681D01*
X117234832Y-92849357D01*
X117064672Y-92778875D01*
X116884032Y-92742943D01*
X116699854Y-92742943D01*
X116519214Y-92778875D01*
X116349054Y-92849357D01*
X116195915Y-92951681D01*
X116065681Y-93081915D01*
X115963357Y-93235054D01*
X115892875Y-93405214D01*
X115856943Y-93585854D01*
X107420000Y-93585854D01*
X107420000Y-92412761D01*
X107582554Y-92522390D01*
X107807004Y-92616493D01*
X108045500Y-92665000D01*
X108395500Y-92665000D01*
X108395500Y-91557000D01*
X108649500Y-91557000D01*
X108649500Y-92665000D01*
X108999500Y-92665000D01*
X109237996Y-92616493D01*
X109462446Y-92522390D01*
X109664225Y-92386307D01*
X109835578Y-92213474D01*
X109969921Y-92010533D01*
X110062091Y-91785282D01*
X110065962Y-91747609D01*
X109941231Y-91557000D01*
X108649500Y-91557000D01*
X108395500Y-91557000D01*
X108375500Y-91557000D01*
X108375500Y-91369133D01*
X110462972Y-91369133D01*
X110525465Y-91605450D01*
X110768178Y-91718850D01*
X111028349Y-91782719D01*
X111295982Y-91794604D01*
X111560791Y-91754048D01*
X111812600Y-91662609D01*
X111919535Y-91605450D01*
X111933179Y-91553854D01*
X117888943Y-91553854D01*
X117888943Y-91738032D01*
X117924875Y-91918672D01*
X117995357Y-92088832D01*
X118097681Y-92241971D01*
X118227915Y-92372205D01*
X118381054Y-92474529D01*
X118484527Y-92517388D01*
X118527386Y-92620861D01*
X118629710Y-92774000D01*
X118759944Y-92904234D01*
X118913083Y-93006558D01*
X119016555Y-93049417D01*
X119059414Y-93152889D01*
X119161738Y-93306028D01*
X119291972Y-93436262D01*
X119445111Y-93538586D01*
X119615271Y-93609068D01*
X119795911Y-93645000D01*
X119980089Y-93645000D01*
X120160729Y-93609068D01*
X120330889Y-93538586D01*
X120484028Y-93436262D01*
X120614262Y-93306028D01*
X120716586Y-93152889D01*
X120787068Y-92982729D01*
X120823000Y-92802089D01*
X120823000Y-92617911D01*
X120787068Y-92437271D01*
X120716586Y-92267111D01*
X120614262Y-92113972D01*
X120484028Y-91983738D01*
X120330889Y-91881414D01*
X120227417Y-91838555D01*
X120184558Y-91735083D01*
X120082234Y-91581944D01*
X119952000Y-91451710D01*
X119798861Y-91349386D01*
X119695388Y-91306527D01*
X119652529Y-91203054D01*
X119550205Y-91049915D01*
X119419971Y-90919681D01*
X119266832Y-90817357D01*
X119096672Y-90746875D01*
X118916032Y-90710943D01*
X118731854Y-90710943D01*
X118551214Y-90746875D01*
X118381054Y-90817357D01*
X118227915Y-90919681D01*
X118097681Y-91049915D01*
X117995357Y-91203054D01*
X117924875Y-91373214D01*
X117888943Y-91553854D01*
X111933179Y-91553854D01*
X111982028Y-91369133D01*
X111222500Y-90609605D01*
X110462972Y-91369133D01*
X108375500Y-91369133D01*
X108375500Y-91303000D01*
X108395500Y-91303000D01*
X108395500Y-90195000D01*
X108649500Y-90195000D01*
X108649500Y-91303000D01*
X109941231Y-91303000D01*
X110055003Y-91129138D01*
X110283367Y-91189528D01*
X111042895Y-90430000D01*
X111402105Y-90430000D01*
X112161633Y-91189528D01*
X112397950Y-91127035D01*
X112511350Y-90884322D01*
X112575219Y-90624151D01*
X112587104Y-90356518D01*
X112546548Y-90091709D01*
X112455109Y-89839900D01*
X112397950Y-89732965D01*
X112161633Y-89670472D01*
X111402105Y-90430000D01*
X111042895Y-90430000D01*
X110283367Y-89670472D01*
X110047050Y-89732965D01*
X109933650Y-89975678D01*
X109869781Y-90235849D01*
X109857896Y-90503482D01*
X109893115Y-90733442D01*
X109835578Y-90646526D01*
X109664225Y-90473693D01*
X109462446Y-90337610D01*
X109237996Y-90243507D01*
X108999500Y-90195000D01*
X108649500Y-90195000D01*
X108395500Y-90195000D01*
X108045500Y-90195000D01*
X107807004Y-90243507D01*
X107582554Y-90337610D01*
X107420000Y-90447239D01*
X107420000Y-89490867D01*
X110462972Y-89490867D01*
X111222500Y-90250395D01*
X111982028Y-89490867D01*
X111919535Y-89254550D01*
X111676822Y-89141150D01*
X111416651Y-89077281D01*
X111149018Y-89065396D01*
X110884209Y-89105952D01*
X110632400Y-89197391D01*
X110525465Y-89254550D01*
X110462972Y-89490867D01*
X107420000Y-89490867D01*
X107420000Y-87537911D01*
X117429000Y-87537911D01*
X117429000Y-87722089D01*
X117464932Y-87902729D01*
X117535414Y-88072889D01*
X117637738Y-88226028D01*
X117767972Y-88356262D01*
X117921111Y-88458586D01*
X118091271Y-88529068D01*
X118271911Y-88565000D01*
X118456089Y-88565000D01*
X118636729Y-88529068D01*
X118806889Y-88458586D01*
X118960028Y-88356262D01*
X119090262Y-88226028D01*
X119192586Y-88072889D01*
X119263068Y-87902729D01*
X119299000Y-87722089D01*
X119299000Y-87537911D01*
X119263068Y-87357271D01*
X119192586Y-87187111D01*
X119090262Y-87033972D01*
X118960028Y-86903738D01*
X118806889Y-86801414D01*
X118636729Y-86730932D01*
X118456089Y-86695000D01*
X118271911Y-86695000D01*
X118091271Y-86730932D01*
X117921111Y-86801414D01*
X117767972Y-86903738D01*
X117637738Y-87033972D01*
X117535414Y-87187111D01*
X117464932Y-87357271D01*
X117429000Y-87537911D01*
X107420000Y-87537911D01*
X107420000Y-86369133D01*
X110462972Y-86369133D01*
X110525465Y-86605450D01*
X110768178Y-86718850D01*
X111028349Y-86782719D01*
X111295982Y-86794604D01*
X111560791Y-86754048D01*
X111812600Y-86662609D01*
X111919535Y-86605450D01*
X111982028Y-86369133D01*
X111222500Y-85609605D01*
X110462972Y-86369133D01*
X107420000Y-86369133D01*
X107420000Y-85412761D01*
X107582554Y-85522390D01*
X107807004Y-85616493D01*
X108045500Y-85665000D01*
X108395500Y-85665000D01*
X108395500Y-84557000D01*
X108649500Y-84557000D01*
X108649500Y-85665000D01*
X108999500Y-85665000D01*
X109237996Y-85616493D01*
X109462446Y-85522390D01*
X109664225Y-85386307D01*
X109835578Y-85213474D01*
X109898671Y-85118164D01*
X109869781Y-85235849D01*
X109857896Y-85503482D01*
X109898452Y-85768291D01*
X109989891Y-86020100D01*
X110047050Y-86127035D01*
X110283367Y-86189528D01*
X111042895Y-85430000D01*
X111402105Y-85430000D01*
X112161633Y-86189528D01*
X112397950Y-86127035D01*
X112450803Y-86013911D01*
X118953000Y-86013911D01*
X118953000Y-86198089D01*
X118988932Y-86378729D01*
X119059414Y-86548889D01*
X119161738Y-86702028D01*
X119291972Y-86832262D01*
X119445111Y-86934586D01*
X119615271Y-87005068D01*
X119795911Y-87041000D01*
X119980089Y-87041000D01*
X120160729Y-87005068D01*
X120330889Y-86934586D01*
X120484028Y-86832262D01*
X120614262Y-86702028D01*
X120716586Y-86548889D01*
X120787068Y-86378729D01*
X120823000Y-86198089D01*
X120823000Y-86080000D01*
X123271928Y-86080000D01*
X123284188Y-86204482D01*
X123320498Y-86324180D01*
X123379463Y-86434494D01*
X123458815Y-86531185D01*
X123555506Y-86610537D01*
X123665820Y-86669502D01*
X123785518Y-86705812D01*
X123910000Y-86718072D01*
X124474250Y-86715000D01*
X124633000Y-86556250D01*
X124633000Y-85357000D01*
X123433750Y-85357000D01*
X123275000Y-85515750D01*
X123271928Y-86080000D01*
X120823000Y-86080000D01*
X120823000Y-86013911D01*
X120787068Y-85833271D01*
X120716586Y-85663111D01*
X120614262Y-85509972D01*
X120484028Y-85379738D01*
X120330889Y-85277414D01*
X120160729Y-85206932D01*
X119980089Y-85171000D01*
X119795911Y-85171000D01*
X119615271Y-85206932D01*
X119445111Y-85277414D01*
X119291972Y-85379738D01*
X119161738Y-85509972D01*
X119059414Y-85663111D01*
X118988932Y-85833271D01*
X118953000Y-86013911D01*
X112450803Y-86013911D01*
X112511350Y-85884322D01*
X112575219Y-85624151D01*
X112587104Y-85356518D01*
X112546548Y-85091709D01*
X112455109Y-84839900D01*
X112397950Y-84732965D01*
X112161633Y-84670472D01*
X111402105Y-85430000D01*
X111042895Y-85430000D01*
X110283367Y-84670472D01*
X110055003Y-84730862D01*
X109941231Y-84557000D01*
X108649500Y-84557000D01*
X108395500Y-84557000D01*
X108375500Y-84557000D01*
X108375500Y-84490867D01*
X110462972Y-84490867D01*
X111222500Y-85250395D01*
X111982028Y-84490867D01*
X111952710Y-84380000D01*
X123271928Y-84380000D01*
X123275000Y-84944250D01*
X123433750Y-85103000D01*
X124633000Y-85103000D01*
X124633000Y-85083000D01*
X124887000Y-85083000D01*
X124887000Y-85103000D01*
X124907000Y-85103000D01*
X124907000Y-85357000D01*
X124887000Y-85357000D01*
X124887000Y-86556250D01*
X125045750Y-86715000D01*
X125068586Y-86715124D01*
X125003738Y-86779972D01*
X124901414Y-86933111D01*
X124830932Y-87103271D01*
X124795000Y-87283911D01*
X124795000Y-87468089D01*
X124830932Y-87648729D01*
X124901414Y-87818889D01*
X125003738Y-87972028D01*
X125133972Y-88102262D01*
X125287111Y-88204586D01*
X125457271Y-88275068D01*
X125637911Y-88311000D01*
X125822089Y-88311000D01*
X126002729Y-88275068D01*
X126172889Y-88204586D01*
X126326028Y-88102262D01*
X126456262Y-87972028D01*
X126558586Y-87818889D01*
X126629068Y-87648729D01*
X126665000Y-87468089D01*
X126665000Y-87283911D01*
X126629068Y-87103271D01*
X126558586Y-86933111D01*
X126456262Y-86779972D01*
X126326028Y-86649738D01*
X126172889Y-86547414D01*
X126079584Y-86508766D01*
X126140537Y-86434494D01*
X126199502Y-86324180D01*
X126221513Y-86251620D01*
X126353368Y-86383475D01*
X126596589Y-86545990D01*
X126866842Y-86657932D01*
X127153740Y-86715000D01*
X127446260Y-86715000D01*
X127733158Y-86657932D01*
X128003411Y-86545990D01*
X128246632Y-86383475D01*
X128453475Y-86176632D01*
X128570000Y-86002240D01*
X128686525Y-86176632D01*
X128893368Y-86383475D01*
X129136589Y-86545990D01*
X129406842Y-86657932D01*
X129693740Y-86715000D01*
X129986260Y-86715000D01*
X130273158Y-86657932D01*
X130543411Y-86545990D01*
X130786632Y-86383475D01*
X130993475Y-86176632D01*
X131110000Y-86002240D01*
X131226525Y-86176632D01*
X131433368Y-86383475D01*
X131676589Y-86545990D01*
X131946842Y-86657932D01*
X132233740Y-86715000D01*
X132526260Y-86715000D01*
X132813158Y-86657932D01*
X133083411Y-86545990D01*
X133326632Y-86383475D01*
X133533475Y-86176632D01*
X133695990Y-85933411D01*
X133807932Y-85663158D01*
X133865000Y-85376260D01*
X133865000Y-85083740D01*
X133807932Y-84796842D01*
X133695990Y-84526589D01*
X133533475Y-84283368D01*
X133326632Y-84076525D01*
X133152240Y-83960000D01*
X133326632Y-83843475D01*
X133533475Y-83636632D01*
X133695990Y-83393411D01*
X133807932Y-83123158D01*
X133865000Y-82836260D01*
X133865000Y-82543740D01*
X133807932Y-82256842D01*
X133695990Y-81986589D01*
X133533475Y-81743368D01*
X133326632Y-81536525D01*
X133083411Y-81374010D01*
X132813158Y-81262068D01*
X132526260Y-81205000D01*
X132233740Y-81205000D01*
X131946842Y-81262068D01*
X131676589Y-81374010D01*
X131433368Y-81536525D01*
X131226525Y-81743368D01*
X131110000Y-81917760D01*
X130993475Y-81743368D01*
X130786632Y-81536525D01*
X130543411Y-81374010D01*
X130273158Y-81262068D01*
X129986260Y-81205000D01*
X129693740Y-81205000D01*
X129406842Y-81262068D01*
X129136589Y-81374010D01*
X128893368Y-81536525D01*
X128686525Y-81743368D01*
X128570000Y-81917760D01*
X128453475Y-81743368D01*
X128246632Y-81536525D01*
X128003411Y-81374010D01*
X127733158Y-81262068D01*
X127446260Y-81205000D01*
X127153740Y-81205000D01*
X126866842Y-81262068D01*
X126596589Y-81374010D01*
X126353368Y-81536525D01*
X126146525Y-81743368D01*
X126030000Y-81917760D01*
X125913475Y-81743368D01*
X125706632Y-81536525D01*
X125463411Y-81374010D01*
X125193158Y-81262068D01*
X124906260Y-81205000D01*
X124613740Y-81205000D01*
X124326842Y-81262068D01*
X124056589Y-81374010D01*
X123813368Y-81536525D01*
X123606525Y-81743368D01*
X123444010Y-81986589D01*
X123332068Y-82256842D01*
X123275000Y-82543740D01*
X123275000Y-82836260D01*
X123332068Y-83123158D01*
X123444010Y-83393411D01*
X123606525Y-83636632D01*
X123738380Y-83768487D01*
X123665820Y-83790498D01*
X123555506Y-83849463D01*
X123458815Y-83928815D01*
X123379463Y-84025506D01*
X123320498Y-84135820D01*
X123284188Y-84255518D01*
X123271928Y-84380000D01*
X111952710Y-84380000D01*
X111919535Y-84254550D01*
X111676822Y-84141150D01*
X111416651Y-84077281D01*
X111149018Y-84065396D01*
X110884209Y-84105952D01*
X110632400Y-84197391D01*
X110525465Y-84254550D01*
X110462972Y-84490867D01*
X108375500Y-84490867D01*
X108375500Y-84303000D01*
X108395500Y-84303000D01*
X108395500Y-83195000D01*
X108649500Y-83195000D01*
X108649500Y-84303000D01*
X109941231Y-84303000D01*
X110065962Y-84112391D01*
X110062091Y-84074718D01*
X109969921Y-83849467D01*
X109835578Y-83646526D01*
X109664225Y-83473693D01*
X109462446Y-83337610D01*
X109237996Y-83243507D01*
X108999500Y-83195000D01*
X108649500Y-83195000D01*
X108395500Y-83195000D01*
X108045500Y-83195000D01*
X107807004Y-83243507D01*
X107582554Y-83337610D01*
X107420000Y-83447239D01*
X107420000Y-77123911D01*
X114889000Y-77123911D01*
X114889000Y-77308089D01*
X114924932Y-77488729D01*
X114995414Y-77658889D01*
X115097738Y-77812028D01*
X115227972Y-77942262D01*
X115281458Y-77978000D01*
X115227972Y-78013738D01*
X115097738Y-78143972D01*
X114995414Y-78297111D01*
X114924932Y-78467271D01*
X114889000Y-78647911D01*
X114889000Y-78832089D01*
X114924932Y-79012729D01*
X114995414Y-79182889D01*
X115097738Y-79336028D01*
X115227972Y-79466262D01*
X115381111Y-79568586D01*
X115551271Y-79639068D01*
X115664424Y-79661576D01*
X115686932Y-79774729D01*
X115757414Y-79944889D01*
X115859738Y-80098028D01*
X115989972Y-80228262D01*
X116143111Y-80330586D01*
X116313271Y-80401068D01*
X116493911Y-80437000D01*
X116678089Y-80437000D01*
X116858729Y-80401068D01*
X117028889Y-80330586D01*
X117182028Y-80228262D01*
X117312262Y-80098028D01*
X117414586Y-79944889D01*
X117485068Y-79774729D01*
X117521000Y-79594089D01*
X117521000Y-79409911D01*
X117485068Y-79229271D01*
X117414586Y-79059111D01*
X117312262Y-78905972D01*
X117182028Y-78775738D01*
X117128542Y-78740000D01*
X117182028Y-78704262D01*
X117312262Y-78574028D01*
X117414586Y-78420889D01*
X117443948Y-78350000D01*
X140951928Y-78350000D01*
X140964188Y-78474482D01*
X141000498Y-78594180D01*
X141059463Y-78704494D01*
X141138815Y-78801185D01*
X141235506Y-78880537D01*
X141345820Y-78939502D01*
X141465518Y-78975812D01*
X141590000Y-78988072D01*
X141859613Y-78986461D01*
X141710273Y-79048320D01*
X141475241Y-79205363D01*
X141275363Y-79405241D01*
X141118320Y-79640273D01*
X141010147Y-79901426D01*
X140955000Y-80178665D01*
X140955000Y-80461335D01*
X141010147Y-80738574D01*
X141118320Y-80999727D01*
X141275363Y-81234759D01*
X141475241Y-81434637D01*
X141710273Y-81591680D01*
X141971426Y-81699853D01*
X141997301Y-81705000D01*
X141971426Y-81710147D01*
X141710273Y-81818320D01*
X141475241Y-81975363D01*
X141275363Y-82175241D01*
X141118320Y-82410273D01*
X141010147Y-82671426D01*
X140955000Y-82948665D01*
X140955000Y-83231335D01*
X141010147Y-83508574D01*
X141118320Y-83769727D01*
X141275363Y-84004759D01*
X141475241Y-84204637D01*
X141710273Y-84361680D01*
X141971426Y-84469853D01*
X141997301Y-84475000D01*
X141971426Y-84480147D01*
X141710273Y-84588320D01*
X141475241Y-84745363D01*
X141275363Y-84945241D01*
X141118320Y-85180273D01*
X141010147Y-85441426D01*
X140955000Y-85718665D01*
X140955000Y-86001335D01*
X141010147Y-86278574D01*
X141118320Y-86539727D01*
X141275363Y-86774759D01*
X141475241Y-86974637D01*
X141710273Y-87131680D01*
X141971426Y-87239853D01*
X141997301Y-87245000D01*
X141971426Y-87250147D01*
X141710273Y-87358320D01*
X141475241Y-87515363D01*
X141275363Y-87715241D01*
X141118320Y-87950273D01*
X141010147Y-88211426D01*
X140955000Y-88488665D01*
X140955000Y-88771335D01*
X141010147Y-89048574D01*
X141118320Y-89309727D01*
X141275363Y-89544759D01*
X141475241Y-89744637D01*
X141710273Y-89901680D01*
X141971426Y-90009853D01*
X141997301Y-90015000D01*
X141971426Y-90020147D01*
X141710273Y-90128320D01*
X141475241Y-90285363D01*
X141275363Y-90485241D01*
X141118320Y-90720273D01*
X141010147Y-90981426D01*
X140955000Y-91258665D01*
X140955000Y-91541335D01*
X141010147Y-91818574D01*
X141118320Y-92079727D01*
X141275363Y-92314759D01*
X141475241Y-92514637D01*
X141710273Y-92671680D01*
X141971426Y-92779853D01*
X141997301Y-92785000D01*
X141971426Y-92790147D01*
X141710273Y-92898320D01*
X141475241Y-93055363D01*
X141275363Y-93255241D01*
X141118320Y-93490273D01*
X141010147Y-93751426D01*
X140955000Y-94028665D01*
X140955000Y-94311335D01*
X141010147Y-94588574D01*
X141118320Y-94849727D01*
X141275363Y-95084759D01*
X141475241Y-95284637D01*
X141710273Y-95441680D01*
X141971426Y-95549853D01*
X141997301Y-95555000D01*
X141971426Y-95560147D01*
X141710273Y-95668320D01*
X141475241Y-95825363D01*
X141275363Y-96025241D01*
X141118320Y-96260273D01*
X141010147Y-96521426D01*
X140955000Y-96798665D01*
X140955000Y-97081335D01*
X141010147Y-97358574D01*
X141118320Y-97619727D01*
X141275363Y-97854759D01*
X141475241Y-98054637D01*
X141710273Y-98211680D01*
X141971426Y-98319853D01*
X141997301Y-98325000D01*
X141971426Y-98330147D01*
X141710273Y-98438320D01*
X141475241Y-98595363D01*
X141275363Y-98795241D01*
X141118320Y-99030273D01*
X141010147Y-99291426D01*
X140955000Y-99568665D01*
X140955000Y-99851335D01*
X141010147Y-100128574D01*
X141118320Y-100389727D01*
X141275363Y-100624759D01*
X141475241Y-100824637D01*
X141710273Y-100981680D01*
X141971426Y-101089853D01*
X141997301Y-101095000D01*
X141971426Y-101100147D01*
X141710273Y-101208320D01*
X141475241Y-101365363D01*
X141275363Y-101565241D01*
X141118320Y-101800273D01*
X141010147Y-102061426D01*
X140955000Y-102338665D01*
X140955000Y-102621335D01*
X141010147Y-102898574D01*
X141118320Y-103159727D01*
X141275363Y-103394759D01*
X141475241Y-103594637D01*
X141710273Y-103751680D01*
X141971426Y-103859853D01*
X141997301Y-103865000D01*
X141971426Y-103870147D01*
X141710273Y-103978320D01*
X141475241Y-104135363D01*
X141275363Y-104335241D01*
X141118320Y-104570273D01*
X141010147Y-104831426D01*
X140955000Y-105108665D01*
X140955000Y-105391335D01*
X141010147Y-105668574D01*
X141118320Y-105929727D01*
X141275363Y-106164759D01*
X141475241Y-106364637D01*
X141710273Y-106521680D01*
X141971426Y-106629853D01*
X141997301Y-106635000D01*
X141971426Y-106640147D01*
X141710273Y-106748320D01*
X141475241Y-106905363D01*
X141275363Y-107105241D01*
X141118320Y-107340273D01*
X141010147Y-107601426D01*
X140955000Y-107878665D01*
X140955000Y-108161335D01*
X141010147Y-108438574D01*
X141118320Y-108699727D01*
X141275363Y-108934759D01*
X141475241Y-109134637D01*
X141710273Y-109291680D01*
X141971426Y-109399853D01*
X141999882Y-109405513D01*
X141773708Y-109486397D01*
X141648486Y-109553329D01*
X141576903Y-109797298D01*
X142390000Y-110610395D01*
X143203097Y-109797298D01*
X143131514Y-109553329D01*
X142876004Y-109432429D01*
X142773711Y-109406788D01*
X142808574Y-109399853D01*
X143069727Y-109291680D01*
X143304759Y-109134637D01*
X143504637Y-108934759D01*
X143661680Y-108699727D01*
X143769853Y-108438574D01*
X143825000Y-108161335D01*
X143825000Y-107878665D01*
X143769853Y-107601426D01*
X143661680Y-107340273D01*
X143504637Y-107105241D01*
X143304759Y-106905363D01*
X143069727Y-106748320D01*
X142808574Y-106640147D01*
X142782699Y-106635000D01*
X142808574Y-106629853D01*
X143069727Y-106521680D01*
X143304759Y-106364637D01*
X143504637Y-106164759D01*
X143661680Y-105929727D01*
X143769853Y-105668574D01*
X143825000Y-105391335D01*
X143825000Y-105108665D01*
X143769853Y-104831426D01*
X143661680Y-104570273D01*
X143504637Y-104335241D01*
X143304759Y-104135363D01*
X143069727Y-103978320D01*
X142808574Y-103870147D01*
X142782699Y-103865000D01*
X142808574Y-103859853D01*
X143069727Y-103751680D01*
X143304759Y-103594637D01*
X143504637Y-103394759D01*
X143661680Y-103159727D01*
X143769853Y-102898574D01*
X143825000Y-102621335D01*
X143825000Y-102338665D01*
X143769853Y-102061426D01*
X143661680Y-101800273D01*
X143504637Y-101565241D01*
X143304759Y-101365363D01*
X143069727Y-101208320D01*
X142808574Y-101100147D01*
X142782699Y-101095000D01*
X142808574Y-101089853D01*
X143069727Y-100981680D01*
X143304759Y-100824637D01*
X143504637Y-100624759D01*
X143661680Y-100389727D01*
X143769853Y-100128574D01*
X143825000Y-99851335D01*
X143825000Y-99568665D01*
X143769853Y-99291426D01*
X143661680Y-99030273D01*
X143504637Y-98795241D01*
X143304759Y-98595363D01*
X143069727Y-98438320D01*
X142808574Y-98330147D01*
X142782699Y-98325000D01*
X142808574Y-98319853D01*
X143069727Y-98211680D01*
X143304759Y-98054637D01*
X143504637Y-97854759D01*
X143661680Y-97619727D01*
X143769853Y-97358574D01*
X143825000Y-97081335D01*
X143825000Y-96798665D01*
X143769853Y-96521426D01*
X143661680Y-96260273D01*
X143504637Y-96025241D01*
X143304759Y-95825363D01*
X143069727Y-95668320D01*
X142808574Y-95560147D01*
X142782699Y-95555000D01*
X142808574Y-95549853D01*
X143069727Y-95441680D01*
X143304759Y-95284637D01*
X143504637Y-95084759D01*
X143661680Y-94849727D01*
X143769853Y-94588574D01*
X143825000Y-94311335D01*
X143825000Y-94028665D01*
X143769853Y-93751426D01*
X143661680Y-93490273D01*
X143504637Y-93255241D01*
X143304759Y-93055363D01*
X143069727Y-92898320D01*
X142808574Y-92790147D01*
X142782699Y-92785000D01*
X142808574Y-92779853D01*
X143069727Y-92671680D01*
X143304759Y-92514637D01*
X143504637Y-92314759D01*
X143661680Y-92079727D01*
X143769853Y-91818574D01*
X143825000Y-91541335D01*
X143825000Y-91258665D01*
X143769853Y-90981426D01*
X143661680Y-90720273D01*
X143504637Y-90485241D01*
X143304759Y-90285363D01*
X143069727Y-90128320D01*
X142808574Y-90020147D01*
X142782699Y-90015000D01*
X142808574Y-90009853D01*
X143069727Y-89901680D01*
X143304759Y-89744637D01*
X143504637Y-89544759D01*
X143661680Y-89309727D01*
X143769853Y-89048574D01*
X143825000Y-88771335D01*
X143825000Y-88488665D01*
X143769853Y-88211426D01*
X143661680Y-87950273D01*
X143504637Y-87715241D01*
X143304759Y-87515363D01*
X143069727Y-87358320D01*
X142808574Y-87250147D01*
X142782699Y-87245000D01*
X142808574Y-87239853D01*
X143069727Y-87131680D01*
X143304759Y-86974637D01*
X143504637Y-86774759D01*
X143661680Y-86539727D01*
X143769853Y-86278574D01*
X143825000Y-86001335D01*
X143825000Y-85718665D01*
X143769853Y-85441426D01*
X143661680Y-85180273D01*
X143504637Y-84945241D01*
X143304759Y-84745363D01*
X143069727Y-84588320D01*
X142808574Y-84480147D01*
X142782699Y-84475000D01*
X142808574Y-84469853D01*
X143069727Y-84361680D01*
X143304759Y-84204637D01*
X143504637Y-84004759D01*
X143661680Y-83769727D01*
X143769853Y-83508574D01*
X143825000Y-83231335D01*
X143825000Y-82948665D01*
X143769853Y-82671426D01*
X143661680Y-82410273D01*
X143504637Y-82175241D01*
X143304759Y-81975363D01*
X143069727Y-81818320D01*
X142808574Y-81710147D01*
X142782699Y-81705000D01*
X142808574Y-81699853D01*
X143069727Y-81591680D01*
X143304759Y-81434637D01*
X143504637Y-81234759D01*
X143661680Y-80999727D01*
X143769853Y-80738574D01*
X143825000Y-80461335D01*
X143825000Y-80178665D01*
X143769853Y-79901426D01*
X143661680Y-79640273D01*
X143504637Y-79405241D01*
X143304759Y-79205363D01*
X143069727Y-79048320D01*
X142920387Y-78986461D01*
X143190000Y-78988072D01*
X143314482Y-78975812D01*
X143434180Y-78939502D01*
X143544494Y-78880537D01*
X143641185Y-78801185D01*
X143647356Y-78793665D01*
X143795000Y-78793665D01*
X143795000Y-79076335D01*
X143850147Y-79353574D01*
X143958320Y-79614727D01*
X144115363Y-79849759D01*
X144315241Y-80049637D01*
X144550273Y-80206680D01*
X144811426Y-80314853D01*
X144837301Y-80320000D01*
X144811426Y-80325147D01*
X144550273Y-80433320D01*
X144315241Y-80590363D01*
X144115363Y-80790241D01*
X143958320Y-81025273D01*
X143850147Y-81286426D01*
X143795000Y-81563665D01*
X143795000Y-81846335D01*
X143850147Y-82123574D01*
X143958320Y-82384727D01*
X144115363Y-82619759D01*
X144315241Y-82819637D01*
X144550273Y-82976680D01*
X144811426Y-83084853D01*
X144837301Y-83090000D01*
X144811426Y-83095147D01*
X144550273Y-83203320D01*
X144315241Y-83360363D01*
X144115363Y-83560241D01*
X143958320Y-83795273D01*
X143850147Y-84056426D01*
X143795000Y-84333665D01*
X143795000Y-84616335D01*
X143850147Y-84893574D01*
X143958320Y-85154727D01*
X144115363Y-85389759D01*
X144315241Y-85589637D01*
X144550273Y-85746680D01*
X144811426Y-85854853D01*
X144837301Y-85860000D01*
X144811426Y-85865147D01*
X144550273Y-85973320D01*
X144315241Y-86130363D01*
X144115363Y-86330241D01*
X143958320Y-86565273D01*
X143850147Y-86826426D01*
X143795000Y-87103665D01*
X143795000Y-87386335D01*
X143850147Y-87663574D01*
X143958320Y-87924727D01*
X144115363Y-88159759D01*
X144315241Y-88359637D01*
X144550273Y-88516680D01*
X144811426Y-88624853D01*
X144837301Y-88630000D01*
X144811426Y-88635147D01*
X144550273Y-88743320D01*
X144315241Y-88900363D01*
X144115363Y-89100241D01*
X143958320Y-89335273D01*
X143850147Y-89596426D01*
X143795000Y-89873665D01*
X143795000Y-90156335D01*
X143850147Y-90433574D01*
X143958320Y-90694727D01*
X144115363Y-90929759D01*
X144315241Y-91129637D01*
X144550273Y-91286680D01*
X144811426Y-91394853D01*
X144837301Y-91400000D01*
X144811426Y-91405147D01*
X144550273Y-91513320D01*
X144315241Y-91670363D01*
X144115363Y-91870241D01*
X143958320Y-92105273D01*
X143850147Y-92366426D01*
X143795000Y-92643665D01*
X143795000Y-92926335D01*
X143850147Y-93203574D01*
X143958320Y-93464727D01*
X144115363Y-93699759D01*
X144315241Y-93899637D01*
X144550273Y-94056680D01*
X144811426Y-94164853D01*
X144837301Y-94170000D01*
X144811426Y-94175147D01*
X144550273Y-94283320D01*
X144315241Y-94440363D01*
X144115363Y-94640241D01*
X143958320Y-94875273D01*
X143850147Y-95136426D01*
X143795000Y-95413665D01*
X143795000Y-95696335D01*
X143850147Y-95973574D01*
X143958320Y-96234727D01*
X144115363Y-96469759D01*
X144315241Y-96669637D01*
X144550273Y-96826680D01*
X144811426Y-96934853D01*
X144837301Y-96940000D01*
X144811426Y-96945147D01*
X144550273Y-97053320D01*
X144315241Y-97210363D01*
X144115363Y-97410241D01*
X143958320Y-97645273D01*
X143850147Y-97906426D01*
X143795000Y-98183665D01*
X143795000Y-98466335D01*
X143850147Y-98743574D01*
X143958320Y-99004727D01*
X144115363Y-99239759D01*
X144315241Y-99439637D01*
X144550273Y-99596680D01*
X144811426Y-99704853D01*
X144837301Y-99710000D01*
X144811426Y-99715147D01*
X144550273Y-99823320D01*
X144315241Y-99980363D01*
X144115363Y-100180241D01*
X143958320Y-100415273D01*
X143850147Y-100676426D01*
X143795000Y-100953665D01*
X143795000Y-101236335D01*
X143850147Y-101513574D01*
X143958320Y-101774727D01*
X144115363Y-102009759D01*
X144315241Y-102209637D01*
X144550273Y-102366680D01*
X144811426Y-102474853D01*
X144837301Y-102480000D01*
X144811426Y-102485147D01*
X144550273Y-102593320D01*
X144315241Y-102750363D01*
X144115363Y-102950241D01*
X143958320Y-103185273D01*
X143850147Y-103446426D01*
X143795000Y-103723665D01*
X143795000Y-104006335D01*
X143850147Y-104283574D01*
X143958320Y-104544727D01*
X144115363Y-104779759D01*
X144315241Y-104979637D01*
X144550273Y-105136680D01*
X144811426Y-105244853D01*
X144837301Y-105250000D01*
X144811426Y-105255147D01*
X144550273Y-105363320D01*
X144315241Y-105520363D01*
X144115363Y-105720241D01*
X143958320Y-105955273D01*
X143850147Y-106216426D01*
X143795000Y-106493665D01*
X143795000Y-106776335D01*
X143850147Y-107053574D01*
X143958320Y-107314727D01*
X144115363Y-107549759D01*
X144315241Y-107749637D01*
X144550273Y-107906680D01*
X144811426Y-108014853D01*
X144837301Y-108020000D01*
X144811426Y-108025147D01*
X144550273Y-108133320D01*
X144315241Y-108290363D01*
X144115363Y-108490241D01*
X143958320Y-108725273D01*
X143850147Y-108986426D01*
X143795000Y-109263665D01*
X143795000Y-109546335D01*
X143850147Y-109823574D01*
X143958320Y-110084727D01*
X144115363Y-110319759D01*
X144315241Y-110519637D01*
X144550273Y-110676680D01*
X144811426Y-110784853D01*
X145088665Y-110840000D01*
X145371335Y-110840000D01*
X145648574Y-110784853D01*
X145909727Y-110676680D01*
X146144759Y-110519637D01*
X146344637Y-110319759D01*
X146501680Y-110084727D01*
X146609853Y-109823574D01*
X146665000Y-109546335D01*
X146665000Y-109263665D01*
X146609853Y-108986426D01*
X146501680Y-108725273D01*
X146344637Y-108490241D01*
X146144759Y-108290363D01*
X145909727Y-108133320D01*
X145648574Y-108025147D01*
X145622699Y-108020000D01*
X145648574Y-108014853D01*
X145909727Y-107906680D01*
X146144759Y-107749637D01*
X146344637Y-107549759D01*
X146501680Y-107314727D01*
X146609853Y-107053574D01*
X146665000Y-106776335D01*
X146665000Y-106493665D01*
X146609853Y-106216426D01*
X146501680Y-105955273D01*
X146344637Y-105720241D01*
X146144759Y-105520363D01*
X145909727Y-105363320D01*
X145648574Y-105255147D01*
X145622699Y-105250000D01*
X145648574Y-105244853D01*
X145909727Y-105136680D01*
X146144759Y-104979637D01*
X146344637Y-104779759D01*
X146501680Y-104544727D01*
X146609853Y-104283574D01*
X146665000Y-104006335D01*
X146665000Y-103723665D01*
X146609853Y-103446426D01*
X146501680Y-103185273D01*
X146344637Y-102950241D01*
X146144759Y-102750363D01*
X145909727Y-102593320D01*
X145648574Y-102485147D01*
X145622699Y-102480000D01*
X145648574Y-102474853D01*
X145909727Y-102366680D01*
X146144759Y-102209637D01*
X146344637Y-102009759D01*
X146501680Y-101774727D01*
X146609853Y-101513574D01*
X146665000Y-101236335D01*
X146665000Y-100953665D01*
X146609853Y-100676426D01*
X146501680Y-100415273D01*
X146344637Y-100180241D01*
X146144759Y-99980363D01*
X145909727Y-99823320D01*
X145648574Y-99715147D01*
X145622699Y-99710000D01*
X145648574Y-99704853D01*
X145909727Y-99596680D01*
X146144759Y-99439637D01*
X146344637Y-99239759D01*
X146501680Y-99004727D01*
X146609853Y-98743574D01*
X146665000Y-98466335D01*
X146665000Y-98183665D01*
X146609853Y-97906426D01*
X146501680Y-97645273D01*
X146344637Y-97410241D01*
X146144759Y-97210363D01*
X145909727Y-97053320D01*
X145648574Y-96945147D01*
X145622699Y-96940000D01*
X145648574Y-96934853D01*
X145909727Y-96826680D01*
X146144759Y-96669637D01*
X146344637Y-96469759D01*
X146501680Y-96234727D01*
X146609853Y-95973574D01*
X146665000Y-95696335D01*
X146665000Y-95413665D01*
X146609853Y-95136426D01*
X146501680Y-94875273D01*
X146344637Y-94640241D01*
X146144759Y-94440363D01*
X145909727Y-94283320D01*
X145648574Y-94175147D01*
X145622699Y-94170000D01*
X145648574Y-94164853D01*
X145909727Y-94056680D01*
X146144759Y-93899637D01*
X146344637Y-93699759D01*
X146501680Y-93464727D01*
X146609853Y-93203574D01*
X146665000Y-92926335D01*
X146665000Y-92643665D01*
X146609853Y-92366426D01*
X146501680Y-92105273D01*
X146344637Y-91870241D01*
X146144759Y-91670363D01*
X145909727Y-91513320D01*
X145648574Y-91405147D01*
X145622699Y-91400000D01*
X145648574Y-91394853D01*
X145909727Y-91286680D01*
X146144759Y-91129637D01*
X146344637Y-90929759D01*
X146501680Y-90694727D01*
X146609853Y-90433574D01*
X146665000Y-90156335D01*
X146665000Y-89873665D01*
X146609853Y-89596426D01*
X146501680Y-89335273D01*
X146344637Y-89100241D01*
X146144759Y-88900363D01*
X145909727Y-88743320D01*
X145648574Y-88635147D01*
X145622699Y-88630000D01*
X145648574Y-88624853D01*
X145909727Y-88516680D01*
X146144759Y-88359637D01*
X146344637Y-88159759D01*
X146501680Y-87924727D01*
X146609853Y-87663574D01*
X146665000Y-87386335D01*
X146665000Y-87103665D01*
X146609853Y-86826426D01*
X146501680Y-86565273D01*
X146344637Y-86330241D01*
X146144759Y-86130363D01*
X145909727Y-85973320D01*
X145648574Y-85865147D01*
X145622699Y-85860000D01*
X145648574Y-85854853D01*
X145909727Y-85746680D01*
X146144759Y-85589637D01*
X146344637Y-85389759D01*
X146501680Y-85154727D01*
X146609853Y-84893574D01*
X146665000Y-84616335D01*
X146665000Y-84333665D01*
X146609853Y-84056426D01*
X146501680Y-83795273D01*
X146344637Y-83560241D01*
X146144759Y-83360363D01*
X145909727Y-83203320D01*
X145648574Y-83095147D01*
X145622699Y-83090000D01*
X145648574Y-83084853D01*
X145909727Y-82976680D01*
X146144759Y-82819637D01*
X146344637Y-82619759D01*
X146501680Y-82384727D01*
X146609853Y-82123574D01*
X146665000Y-81846335D01*
X146665000Y-81563665D01*
X146609853Y-81286426D01*
X146501680Y-81025273D01*
X146344637Y-80790241D01*
X146144759Y-80590363D01*
X145909727Y-80433320D01*
X145648574Y-80325147D01*
X145622699Y-80320000D01*
X145648574Y-80314853D01*
X145909727Y-80206680D01*
X146144759Y-80049637D01*
X146344637Y-79849759D01*
X146501680Y-79614727D01*
X146609853Y-79353574D01*
X146665000Y-79076335D01*
X146665000Y-78793665D01*
X146609853Y-78516426D01*
X146501680Y-78255273D01*
X146344637Y-78020241D01*
X146144759Y-77820363D01*
X145909727Y-77663320D01*
X145648574Y-77555147D01*
X145371335Y-77500000D01*
X145088665Y-77500000D01*
X144811426Y-77555147D01*
X144550273Y-77663320D01*
X144315241Y-77820363D01*
X144115363Y-78020241D01*
X143958320Y-78255273D01*
X143850147Y-78516426D01*
X143795000Y-78793665D01*
X143647356Y-78793665D01*
X143720537Y-78704494D01*
X143779502Y-78594180D01*
X143815812Y-78474482D01*
X143828072Y-78350000D01*
X143825000Y-77835750D01*
X143666250Y-77677000D01*
X142517000Y-77677000D01*
X142517000Y-77697000D01*
X142263000Y-77697000D01*
X142263000Y-77677000D01*
X141113750Y-77677000D01*
X140955000Y-77835750D01*
X140951928Y-78350000D01*
X117443948Y-78350000D01*
X117485068Y-78250729D01*
X117521000Y-78070089D01*
X117521000Y-77885911D01*
X117485068Y-77705271D01*
X117414586Y-77535111D01*
X117312262Y-77381972D01*
X117182028Y-77251738D01*
X117028889Y-77149414D01*
X116858729Y-77078932D01*
X116745576Y-77056424D01*
X116723068Y-76943271D01*
X116652586Y-76773111D01*
X116637144Y-76750000D01*
X140951928Y-76750000D01*
X140955000Y-77264250D01*
X141113750Y-77423000D01*
X142263000Y-77423000D01*
X142263000Y-76273750D01*
X142517000Y-76273750D01*
X142517000Y-77423000D01*
X143666250Y-77423000D01*
X143825000Y-77264250D01*
X143828072Y-76750000D01*
X143815812Y-76625518D01*
X143779502Y-76505820D01*
X143720537Y-76395506D01*
X143641185Y-76298815D01*
X143544494Y-76219463D01*
X143434180Y-76160498D01*
X143314482Y-76124188D01*
X143190000Y-76111928D01*
X142675750Y-76115000D01*
X142517000Y-76273750D01*
X142263000Y-76273750D01*
X142104250Y-76115000D01*
X141590000Y-76111928D01*
X141465518Y-76124188D01*
X141345820Y-76160498D01*
X141235506Y-76219463D01*
X141138815Y-76298815D01*
X141059463Y-76395506D01*
X141000498Y-76505820D01*
X140964188Y-76625518D01*
X140951928Y-76750000D01*
X116637144Y-76750000D01*
X116550262Y-76619972D01*
X116420028Y-76489738D01*
X116266889Y-76387414D01*
X116096729Y-76316932D01*
X115916089Y-76281000D01*
X115731911Y-76281000D01*
X115551271Y-76316932D01*
X115381111Y-76387414D01*
X115227972Y-76489738D01*
X115097738Y-76619972D01*
X114995414Y-76773111D01*
X114924932Y-76943271D01*
X114889000Y-77123911D01*
X107420000Y-77123911D01*
X107420000Y-72297911D01*
X109555000Y-72297911D01*
X109555000Y-72482089D01*
X109590932Y-72662729D01*
X109661414Y-72832889D01*
X109704920Y-72898000D01*
X109661414Y-72963111D01*
X109590932Y-73133271D01*
X109555000Y-73313911D01*
X109555000Y-73498089D01*
X109590932Y-73678729D01*
X109661414Y-73848889D01*
X109704920Y-73914000D01*
X109661414Y-73979111D01*
X109590932Y-74149271D01*
X109555000Y-74329911D01*
X109555000Y-74514089D01*
X109590932Y-74694729D01*
X109661414Y-74864889D01*
X109704920Y-74930000D01*
X109661414Y-74995111D01*
X109590932Y-75165271D01*
X109555000Y-75345911D01*
X109555000Y-75530089D01*
X109590932Y-75710729D01*
X109661414Y-75880889D01*
X109763738Y-76034028D01*
X109893972Y-76164262D01*
X110047111Y-76266586D01*
X110217271Y-76337068D01*
X110397911Y-76373000D01*
X110582089Y-76373000D01*
X110762729Y-76337068D01*
X110932889Y-76266586D01*
X110998000Y-76223080D01*
X111063111Y-76266586D01*
X111233271Y-76337068D01*
X111413911Y-76373000D01*
X111598089Y-76373000D01*
X111778729Y-76337068D01*
X111948889Y-76266586D01*
X112102028Y-76164262D01*
X112232262Y-76034028D01*
X112334586Y-75880889D01*
X112405068Y-75710729D01*
X112441000Y-75530089D01*
X112441000Y-75345911D01*
X112405068Y-75165271D01*
X112334586Y-74995111D01*
X112291080Y-74930000D01*
X112334586Y-74864889D01*
X112405068Y-74694729D01*
X112441000Y-74514089D01*
X112441000Y-74329911D01*
X112405068Y-74149271D01*
X112334586Y-73979111D01*
X112291080Y-73914000D01*
X112334586Y-73848889D01*
X112405068Y-73678729D01*
X112441000Y-73498089D01*
X112441000Y-73313911D01*
X112405068Y-73133271D01*
X112334586Y-72963111D01*
X112291080Y-72898000D01*
X112334586Y-72832889D01*
X112405068Y-72662729D01*
X112441000Y-72482089D01*
X112441000Y-72297911D01*
X119715000Y-72297911D01*
X119715000Y-72482089D01*
X119750932Y-72662729D01*
X119821414Y-72832889D01*
X119864920Y-72898000D01*
X119821414Y-72963111D01*
X119750932Y-73133271D01*
X119715000Y-73313911D01*
X119715000Y-73498089D01*
X119750932Y-73678729D01*
X119821414Y-73848889D01*
X119864920Y-73914000D01*
X119821414Y-73979111D01*
X119750932Y-74149271D01*
X119715000Y-74329911D01*
X119715000Y-74514089D01*
X119750932Y-74694729D01*
X119821414Y-74864889D01*
X119864920Y-74930000D01*
X119821414Y-74995111D01*
X119750932Y-75165271D01*
X119715000Y-75345911D01*
X119715000Y-75530089D01*
X119750932Y-75710729D01*
X119821414Y-75880889D01*
X119923738Y-76034028D01*
X120053972Y-76164262D01*
X120207111Y-76266586D01*
X120377271Y-76337068D01*
X120557911Y-76373000D01*
X120742089Y-76373000D01*
X120922729Y-76337068D01*
X121092889Y-76266586D01*
X121158000Y-76223080D01*
X121223111Y-76266586D01*
X121393271Y-76337068D01*
X121573911Y-76373000D01*
X121758089Y-76373000D01*
X121938729Y-76337068D01*
X122108889Y-76266586D01*
X122262028Y-76164262D01*
X122392262Y-76034028D01*
X122494586Y-75880889D01*
X122565068Y-75710729D01*
X122601000Y-75530089D01*
X122601000Y-75345911D01*
X122565068Y-75165271D01*
X122494586Y-74995111D01*
X122451080Y-74930000D01*
X122494586Y-74864889D01*
X122565068Y-74694729D01*
X122601000Y-74514089D01*
X122601000Y-74329911D01*
X122565068Y-74149271D01*
X122494586Y-73979111D01*
X122451080Y-73914000D01*
X122494586Y-73848889D01*
X122565068Y-73678729D01*
X122601000Y-73498089D01*
X122601000Y-73313911D01*
X122565068Y-73133271D01*
X122494586Y-72963111D01*
X122451080Y-72898000D01*
X122494586Y-72832889D01*
X122565068Y-72662729D01*
X122601000Y-72482089D01*
X122601000Y-72467499D01*
X142142106Y-72467499D01*
X142358228Y-72834258D01*
X142818105Y-73074938D01*
X143316098Y-73221275D01*
X143833071Y-73267648D01*
X144349159Y-73212273D01*
X144844526Y-73057279D01*
X145261772Y-72834258D01*
X145477894Y-72467499D01*
X143810000Y-70799605D01*
X142142106Y-72467499D01*
X122601000Y-72467499D01*
X122601000Y-72297911D01*
X122565068Y-72117271D01*
X122494586Y-71947111D01*
X122392262Y-71793972D01*
X122262028Y-71663738D01*
X122108889Y-71561414D01*
X121938729Y-71490932D01*
X121758089Y-71455000D01*
X121573911Y-71455000D01*
X121393271Y-71490932D01*
X121223111Y-71561414D01*
X121158000Y-71604920D01*
X121092889Y-71561414D01*
X120922729Y-71490932D01*
X120742089Y-71455000D01*
X120557911Y-71455000D01*
X120377271Y-71490932D01*
X120207111Y-71561414D01*
X120053972Y-71663738D01*
X119923738Y-71793972D01*
X119821414Y-71947111D01*
X119750932Y-72117271D01*
X119715000Y-72297911D01*
X112441000Y-72297911D01*
X112405068Y-72117271D01*
X112334586Y-71947111D01*
X112232262Y-71793972D01*
X112102028Y-71663738D01*
X111948889Y-71561414D01*
X111778729Y-71490932D01*
X111598089Y-71455000D01*
X111413911Y-71455000D01*
X111233271Y-71490932D01*
X111063111Y-71561414D01*
X110998000Y-71604920D01*
X110932889Y-71561414D01*
X110762729Y-71490932D01*
X110582089Y-71455000D01*
X110397911Y-71455000D01*
X110217271Y-71490932D01*
X110047111Y-71561414D01*
X109893972Y-71663738D01*
X109763738Y-71793972D01*
X109661414Y-71947111D01*
X109590932Y-72117271D01*
X109555000Y-72297911D01*
X107420000Y-72297911D01*
X107420000Y-70643071D01*
X141162352Y-70643071D01*
X141217727Y-71159159D01*
X141372721Y-71654526D01*
X141595742Y-72071772D01*
X141962501Y-72287894D01*
X143630395Y-70620000D01*
X143989605Y-70620000D01*
X145657499Y-72287894D01*
X146024258Y-72071772D01*
X146264938Y-71611895D01*
X146411275Y-71113902D01*
X146457648Y-70596929D01*
X146402273Y-70080841D01*
X146247279Y-69585474D01*
X146024258Y-69168228D01*
X145657499Y-68952106D01*
X143989605Y-70620000D01*
X143630395Y-70620000D01*
X141962501Y-68952106D01*
X141595742Y-69168228D01*
X141355062Y-69628105D01*
X141208725Y-70126098D01*
X141162352Y-70643071D01*
X107420000Y-70643071D01*
X107420000Y-68772501D01*
X142142106Y-68772501D01*
X143810000Y-70440395D01*
X145477894Y-68772501D01*
X145261772Y-68405742D01*
X144801895Y-68165062D01*
X144303902Y-68018725D01*
X143786929Y-67972352D01*
X143270841Y-68027727D01*
X142775474Y-68182721D01*
X142358228Y-68405742D01*
X142142106Y-68772501D01*
X107420000Y-68772501D01*
X107420000Y-64365872D01*
X107482368Y-64516442D01*
X108010624Y-65307033D01*
X108682967Y-65979376D01*
X109473558Y-66507632D01*
X110352016Y-66871501D01*
X111284582Y-67057000D01*
X112235418Y-67057000D01*
X113167984Y-66871501D01*
X114046442Y-66507632D01*
X114837033Y-65979376D01*
X115509376Y-65307033D01*
X116037632Y-64516442D01*
X116401501Y-63637984D01*
X116587000Y-62705418D01*
X116587000Y-61754582D01*
X116401501Y-60822016D01*
X116037632Y-59943558D01*
X115509376Y-59152967D01*
X114837033Y-58480624D01*
X114046442Y-57952368D01*
X113895872Y-57890000D01*
X145624128Y-57890000D01*
X145473558Y-57952368D01*
G37*
%TD.AperFunction*%
%TD*%
M02*
