%TF.GenerationSoftware,KiCad,Pcbnew,(5.1.8)-1*%
%TF.CreationDate,2021-01-03T14:31:24+10:00*%
%TF.ProjectId,OpenRetroPad,4f70656e-5265-4747-926f-5061642e6b69,rev?*%
%TF.SameCoordinates,Original*%
%TF.FileFunction,Copper,L3,Inr*%
%TF.FilePolarity,Positive*%
%FSLAX46Y46*%
G04 Gerber Fmt 4.6, Leading zero omitted, Abs format (unit mm)*
G04 Created by KiCad (PCBNEW (5.1.8)-1) date 2021-01-03 14:31:24*
%MOMM*%
%LPD*%
G01*
G04 APERTURE LIST*
%TA.AperFunction,ComponentPad*%
%ADD10O,1.900000X1.200000*%
%TD*%
%TA.AperFunction,ComponentPad*%
%ADD11C,1.450000*%
%TD*%
%TA.AperFunction,ComponentPad*%
%ADD12O,1.700000X1.700000*%
%TD*%
%TA.AperFunction,ComponentPad*%
%ADD13R,1.700000X1.700000*%
%TD*%
%TA.AperFunction,ComponentPad*%
%ADD14C,0.500000*%
%TD*%
%TA.AperFunction,ComponentPad*%
%ADD15C,0.800000*%
%TD*%
%TA.AperFunction,ComponentPad*%
%ADD16C,6.400000*%
%TD*%
%TA.AperFunction,ComponentPad*%
%ADD17C,4.000000*%
%TD*%
%TA.AperFunction,ComponentPad*%
%ADD18C,1.600000*%
%TD*%
%TA.AperFunction,ComponentPad*%
%ADD19R,1.600000X1.600000*%
%TD*%
%TA.AperFunction,ViaPad*%
%ADD20C,0.600000*%
%TD*%
%TA.AperFunction,Conductor*%
%ADD21C,0.254000*%
%TD*%
%TA.AperFunction,Conductor*%
%ADD22C,0.100000*%
%TD*%
G04 APERTURE END LIST*
D10*
%TO.N,GND*%
%TO.C,J1*%
X108522500Y-91430000D03*
X108522500Y-84430000D03*
D11*
X111222500Y-90430000D03*
X111222500Y-85430000D03*
%TD*%
D12*
%TO.N,PF1*%
%TO.C,J2*%
X132380000Y-82690000D03*
%TO.N,PB2*%
X129840000Y-82690000D03*
%TO.N,PB4*%
X127300000Y-82690000D03*
%TO.N,+3V3*%
X124760000Y-82690000D03*
%TO.N,PB3*%
X132380000Y-85230000D03*
%TO.N,PB1*%
X129840000Y-85230000D03*
%TO.N,PB5*%
X127300000Y-85230000D03*
D13*
%TO.N,GND*%
X124760000Y-85230000D03*
%TD*%
D14*
%TO.N,GND*%
%TO.C,U2*%
X125832454Y-105063713D03*
X125010442Y-104241701D03*
X124188431Y-103419689D03*
X123366419Y-102597678D03*
X122544407Y-101775666D03*
X126654466Y-104241701D03*
X125832454Y-103419689D03*
X125010442Y-102597678D03*
X124188431Y-101775666D03*
X123366419Y-100953654D03*
X127476477Y-103419689D03*
X126654466Y-102597678D03*
X125832454Y-101775666D03*
X125010442Y-100953654D03*
X124188431Y-100131643D03*
X128298489Y-102597678D03*
X127476477Y-101775666D03*
X126654466Y-100953654D03*
X125832454Y-100131643D03*
X125010442Y-99309631D03*
X129120501Y-101775666D03*
X128298489Y-100953654D03*
X127476477Y-100131643D03*
X126654466Y-99309631D03*
X125832454Y-98487619D03*
%TD*%
D15*
%TO.N,N/C*%
%TO.C,H4*%
X149457056Y-124532944D03*
X147760000Y-123830000D03*
X146062944Y-124532944D03*
X145360000Y-126230000D03*
X146062944Y-127927056D03*
X147760000Y-128630000D03*
X149457056Y-127927056D03*
X150160000Y-126230000D03*
D16*
X147760000Y-126230000D03*
%TD*%
D15*
%TO.N,N/C*%
%TO.C,H3*%
X113457056Y-124532944D03*
X111760000Y-123830000D03*
X110062944Y-124532944D03*
X109360000Y-126230000D03*
X110062944Y-127927056D03*
X111760000Y-128630000D03*
X113457056Y-127927056D03*
X114160000Y-126230000D03*
D16*
X111760000Y-126230000D03*
%TD*%
D15*
%TO.N,N/C*%
%TO.C,H2*%
X149457056Y-60532944D03*
X147760000Y-59830000D03*
X146062944Y-60532944D03*
X145360000Y-62230000D03*
X146062944Y-63927056D03*
X147760000Y-64630000D03*
X149457056Y-63927056D03*
X150160000Y-62230000D03*
D16*
X147760000Y-62230000D03*
%TD*%
D15*
%TO.N,N/C*%
%TO.C,H1*%
X113457056Y-60532944D03*
X111760000Y-59830000D03*
X110062944Y-60532944D03*
X109360000Y-62230000D03*
X110062944Y-63927056D03*
X111760000Y-64630000D03*
X113457056Y-63927056D03*
X114160000Y-62230000D03*
D16*
X111760000Y-62230000D03*
%TD*%
D17*
%TO.N,GND*%
%TO.C,J3*%
X143810000Y-70620000D03*
X143810000Y-117720000D03*
D18*
%TO.N,+5V*%
X145230000Y-109405000D03*
%TO.N,PD0*%
X145230000Y-106635000D03*
%TO.N,PD2*%
X145230000Y-103865000D03*
%TO.N,PD4*%
X145230000Y-101095000D03*
%TO.N,PB4*%
X145230000Y-98325000D03*
%TO.N,PB6*%
X145230000Y-95555000D03*
%TO.N,PC6*%
X145230000Y-92785000D03*
%TO.N,PF6*%
X145230000Y-90015000D03*
%TO.N,PF4*%
X145230000Y-87245000D03*
%TO.N,PB1*%
X145230000Y-84475000D03*
%TO.N,PB3*%
X145230000Y-81705000D03*
%TO.N,+5V*%
X145230000Y-78935000D03*
%TO.N,GND*%
X142390000Y-110790000D03*
%TO.N,+3V3*%
X142390000Y-108020000D03*
%TO.N,PD1*%
X142390000Y-105250000D03*
%TO.N,PD3*%
X142390000Y-102480000D03*
%TO.N,PD7*%
X142390000Y-99710000D03*
%TO.N,PB5*%
X142390000Y-96940000D03*
%TO.N,Net-(J3-Pad7)*%
X142390000Y-94170000D03*
%TO.N,PF7*%
X142390000Y-91400000D03*
%TO.N,PF5*%
X142390000Y-88630000D03*
%TO.N,PE6*%
X142390000Y-85860000D03*
%TO.N,PB2*%
X142390000Y-83090000D03*
%TO.N,+3V3*%
X142390000Y-80320000D03*
D19*
%TO.N,GND*%
X142390000Y-77550000D03*
%TD*%
D20*
%TO.N,GND*%
X117348000Y-96520000D03*
X114046000Y-108204000D03*
X119126000Y-114046000D03*
X116840000Y-104139990D03*
X135636000Y-128016000D03*
X124460000Y-128016000D03*
X122682000Y-92709996D03*
X120904000Y-106426000D03*
X116332000Y-111506000D03*
X130048000Y-122174000D03*
X112014000Y-98044000D03*
X113860000Y-84030000D03*
X116052000Y-69622006D03*
%TO.N,+5V*%
X131318000Y-93472000D03*
X133858000Y-100076000D03*
X123952000Y-93980000D03*
X117866738Y-100030000D03*
X118110000Y-105410000D03*
X137160000Y-128016000D03*
X122936000Y-128016000D03*
X130810000Y-110951998D03*
X137922000Y-94742000D03*
X110236000Y-98044000D03*
X119824030Y-86642030D03*
X118410493Y-88183507D03*
%TO.N,+3V3*%
X121666000Y-72390000D03*
X121666000Y-73406000D03*
X121666000Y-74422000D03*
X121666000Y-75438000D03*
X110490000Y-72390000D03*
X110490000Y-73406000D03*
X110490000Y-74422000D03*
X110490000Y-75438000D03*
X111506000Y-75438000D03*
X111506000Y-74422000D03*
X111506000Y-73406000D03*
X111506000Y-72390000D03*
X120650000Y-75438000D03*
X120650000Y-74422000D03*
X120650000Y-73406000D03*
X120650000Y-72390000D03*
X116586000Y-79502000D03*
X115824000Y-78740000D03*
X116586000Y-77978000D03*
X115824000Y-77216000D03*
%TO.N,PB2*%
X119355972Y-92177972D03*
X117323972Y-94209972D03*
%TO.N,PB1*%
X119888000Y-92710000D03*
X117856000Y-94742000D03*
%TO.N,PB3*%
X118823943Y-91645943D03*
X116791943Y-93677943D03*
%TO.N,PE2*%
X133096000Y-122174000D03*
X131826000Y-103124000D03*
%TO.N,RESET*%
X120650000Y-103632000D03*
X127000000Y-122174000D03*
%TO.N,PF1*%
X128270000Y-97536000D03*
X125730000Y-87376000D03*
%TO.N,PC7*%
X131064000Y-103886000D03*
X131826000Y-113538000D03*
%TO.N,PB0*%
X121158000Y-99314000D03*
X126238000Y-114554000D03*
%TO.N,PD5*%
X126746000Y-107696000D03*
X130048000Y-113538000D03*
%TD*%
D21*
%TO.N,+5V*%
X145473558Y-57952368D02*
X144682967Y-58480624D01*
X144010624Y-59152967D01*
X143482368Y-59943558D01*
X143118499Y-60822016D01*
X142933000Y-61754582D01*
X142933000Y-62705418D01*
X143118499Y-63637984D01*
X143482368Y-64516442D01*
X144010624Y-65307033D01*
X144682967Y-65979376D01*
X145473558Y-66507632D01*
X146352016Y-66871501D01*
X147284582Y-67057000D01*
X148235418Y-67057000D01*
X149167984Y-66871501D01*
X150046442Y-66507632D01*
X150837033Y-65979376D01*
X151509376Y-65307033D01*
X152037632Y-64516442D01*
X152100001Y-64365870D01*
X152100000Y-124094128D01*
X152037632Y-123943558D01*
X151509376Y-123152967D01*
X150837033Y-122480624D01*
X150046442Y-121952368D01*
X149167984Y-121588499D01*
X148235418Y-121403000D01*
X147284582Y-121403000D01*
X146352016Y-121588499D01*
X145473558Y-121952368D01*
X144682967Y-122480624D01*
X144010624Y-123152967D01*
X143482368Y-123943558D01*
X143118499Y-124822016D01*
X142933000Y-125754582D01*
X142933000Y-126705418D01*
X143118499Y-127637984D01*
X143482368Y-128516442D01*
X144010624Y-129307033D01*
X144682967Y-129979376D01*
X145473558Y-130507632D01*
X145624128Y-130570000D01*
X113895872Y-130570000D01*
X114046442Y-130507632D01*
X114837033Y-129979376D01*
X115509376Y-129307033D01*
X116037632Y-128516442D01*
X116283066Y-127923911D01*
X123525000Y-127923911D01*
X123525000Y-128108089D01*
X123560932Y-128288729D01*
X123631414Y-128458889D01*
X123733738Y-128612028D01*
X123863972Y-128742262D01*
X124017111Y-128844586D01*
X124187271Y-128915068D01*
X124367911Y-128951000D01*
X124552089Y-128951000D01*
X124732729Y-128915068D01*
X124902889Y-128844586D01*
X125056028Y-128742262D01*
X125186262Y-128612028D01*
X125288586Y-128458889D01*
X125359068Y-128288729D01*
X125395000Y-128108089D01*
X125395000Y-127923911D01*
X134701000Y-127923911D01*
X134701000Y-128108089D01*
X134736932Y-128288729D01*
X134807414Y-128458889D01*
X134909738Y-128612028D01*
X135039972Y-128742262D01*
X135193111Y-128844586D01*
X135363271Y-128915068D01*
X135543911Y-128951000D01*
X135728089Y-128951000D01*
X135908729Y-128915068D01*
X136078889Y-128844586D01*
X136232028Y-128742262D01*
X136362262Y-128612028D01*
X136464586Y-128458889D01*
X136535068Y-128288729D01*
X136571000Y-128108089D01*
X136571000Y-127923911D01*
X136535068Y-127743271D01*
X136464586Y-127573111D01*
X136362262Y-127419972D01*
X136232028Y-127289738D01*
X136078889Y-127187414D01*
X135908729Y-127116932D01*
X135728089Y-127081000D01*
X135543911Y-127081000D01*
X135363271Y-127116932D01*
X135193111Y-127187414D01*
X135039972Y-127289738D01*
X134909738Y-127419972D01*
X134807414Y-127573111D01*
X134736932Y-127743271D01*
X134701000Y-127923911D01*
X125395000Y-127923911D01*
X125359068Y-127743271D01*
X125288586Y-127573111D01*
X125186262Y-127419972D01*
X125056028Y-127289738D01*
X124902889Y-127187414D01*
X124732729Y-127116932D01*
X124552089Y-127081000D01*
X124367911Y-127081000D01*
X124187271Y-127116932D01*
X124017111Y-127187414D01*
X123863972Y-127289738D01*
X123733738Y-127419972D01*
X123631414Y-127573111D01*
X123560932Y-127743271D01*
X123525000Y-127923911D01*
X116283066Y-127923911D01*
X116401501Y-127637984D01*
X116587000Y-126705418D01*
X116587000Y-125754582D01*
X116401501Y-124822016D01*
X116037632Y-123943558D01*
X115509376Y-123152967D01*
X114837033Y-122480624D01*
X114240317Y-122081911D01*
X126065000Y-122081911D01*
X126065000Y-122266089D01*
X126100932Y-122446729D01*
X126171414Y-122616889D01*
X126273738Y-122770028D01*
X126403972Y-122900262D01*
X126557111Y-123002586D01*
X126727271Y-123073068D01*
X126907911Y-123109000D01*
X127092089Y-123109000D01*
X127272729Y-123073068D01*
X127442889Y-123002586D01*
X127596028Y-122900262D01*
X127726262Y-122770028D01*
X127828586Y-122616889D01*
X127899068Y-122446729D01*
X127935000Y-122266089D01*
X127935000Y-122081911D01*
X129113000Y-122081911D01*
X129113000Y-122266089D01*
X129148932Y-122446729D01*
X129219414Y-122616889D01*
X129321738Y-122770028D01*
X129451972Y-122900262D01*
X129605111Y-123002586D01*
X129775271Y-123073068D01*
X129955911Y-123109000D01*
X130140089Y-123109000D01*
X130320729Y-123073068D01*
X130490889Y-123002586D01*
X130644028Y-122900262D01*
X130774262Y-122770028D01*
X130876586Y-122616889D01*
X130947068Y-122446729D01*
X130983000Y-122266089D01*
X130983000Y-122081911D01*
X132161000Y-122081911D01*
X132161000Y-122266089D01*
X132196932Y-122446729D01*
X132267414Y-122616889D01*
X132369738Y-122770028D01*
X132499972Y-122900262D01*
X132653111Y-123002586D01*
X132823271Y-123073068D01*
X133003911Y-123109000D01*
X133188089Y-123109000D01*
X133368729Y-123073068D01*
X133538889Y-123002586D01*
X133692028Y-122900262D01*
X133822262Y-122770028D01*
X133924586Y-122616889D01*
X133995068Y-122446729D01*
X134031000Y-122266089D01*
X134031000Y-122081911D01*
X133995068Y-121901271D01*
X133924586Y-121731111D01*
X133822262Y-121577972D01*
X133692028Y-121447738D01*
X133538889Y-121345414D01*
X133368729Y-121274932D01*
X133188089Y-121239000D01*
X133003911Y-121239000D01*
X132823271Y-121274932D01*
X132653111Y-121345414D01*
X132499972Y-121447738D01*
X132369738Y-121577972D01*
X132267414Y-121731111D01*
X132196932Y-121901271D01*
X132161000Y-122081911D01*
X130983000Y-122081911D01*
X130947068Y-121901271D01*
X130876586Y-121731111D01*
X130774262Y-121577972D01*
X130644028Y-121447738D01*
X130490889Y-121345414D01*
X130320729Y-121274932D01*
X130140089Y-121239000D01*
X129955911Y-121239000D01*
X129775271Y-121274932D01*
X129605111Y-121345414D01*
X129451972Y-121447738D01*
X129321738Y-121577972D01*
X129219414Y-121731111D01*
X129148932Y-121901271D01*
X129113000Y-122081911D01*
X127935000Y-122081911D01*
X127899068Y-121901271D01*
X127828586Y-121731111D01*
X127726262Y-121577972D01*
X127596028Y-121447738D01*
X127442889Y-121345414D01*
X127272729Y-121274932D01*
X127092089Y-121239000D01*
X126907911Y-121239000D01*
X126727271Y-121274932D01*
X126557111Y-121345414D01*
X126403972Y-121447738D01*
X126273738Y-121577972D01*
X126171414Y-121731111D01*
X126100932Y-121901271D01*
X126065000Y-122081911D01*
X114240317Y-122081911D01*
X114046442Y-121952368D01*
X113167984Y-121588499D01*
X112235418Y-121403000D01*
X111284582Y-121403000D01*
X110352016Y-121588499D01*
X109473558Y-121952368D01*
X108682967Y-122480624D01*
X108010624Y-123152967D01*
X107482368Y-123943558D01*
X107420000Y-124094128D01*
X107420000Y-117460475D01*
X141175000Y-117460475D01*
X141175000Y-117979525D01*
X141276261Y-118488601D01*
X141474893Y-118968141D01*
X141763262Y-119399715D01*
X142130285Y-119766738D01*
X142561859Y-120055107D01*
X143041399Y-120253739D01*
X143550475Y-120355000D01*
X144069525Y-120355000D01*
X144578601Y-120253739D01*
X145058141Y-120055107D01*
X145489715Y-119766738D01*
X145856738Y-119399715D01*
X146145107Y-118968141D01*
X146343739Y-118488601D01*
X146445000Y-117979525D01*
X146445000Y-117460475D01*
X146343739Y-116951399D01*
X146145107Y-116471859D01*
X145856738Y-116040285D01*
X145489715Y-115673262D01*
X145058141Y-115384893D01*
X144578601Y-115186261D01*
X144069525Y-115085000D01*
X143550475Y-115085000D01*
X143041399Y-115186261D01*
X142561859Y-115384893D01*
X142130285Y-115673262D01*
X141763262Y-116040285D01*
X141474893Y-116471859D01*
X141276261Y-116951399D01*
X141175000Y-117460475D01*
X107420000Y-117460475D01*
X107420000Y-113953911D01*
X118191000Y-113953911D01*
X118191000Y-114138089D01*
X118226932Y-114318729D01*
X118297414Y-114488889D01*
X118399738Y-114642028D01*
X118529972Y-114772262D01*
X118683111Y-114874586D01*
X118853271Y-114945068D01*
X119033911Y-114981000D01*
X119218089Y-114981000D01*
X119398729Y-114945068D01*
X119568889Y-114874586D01*
X119722028Y-114772262D01*
X119852262Y-114642028D01*
X119954586Y-114488889D01*
X119965760Y-114461911D01*
X125303000Y-114461911D01*
X125303000Y-114646089D01*
X125338932Y-114826729D01*
X125409414Y-114996889D01*
X125511738Y-115150028D01*
X125641972Y-115280262D01*
X125795111Y-115382586D01*
X125965271Y-115453068D01*
X126145911Y-115489000D01*
X126330089Y-115489000D01*
X126510729Y-115453068D01*
X126680889Y-115382586D01*
X126834028Y-115280262D01*
X126964262Y-115150028D01*
X127066586Y-114996889D01*
X127137068Y-114826729D01*
X127173000Y-114646089D01*
X127173000Y-114461911D01*
X127137068Y-114281271D01*
X127066586Y-114111111D01*
X126964262Y-113957972D01*
X126834028Y-113827738D01*
X126680889Y-113725414D01*
X126510729Y-113654932D01*
X126330089Y-113619000D01*
X126145911Y-113619000D01*
X125965271Y-113654932D01*
X125795111Y-113725414D01*
X125641972Y-113827738D01*
X125511738Y-113957972D01*
X125409414Y-114111111D01*
X125338932Y-114281271D01*
X125303000Y-114461911D01*
X119965760Y-114461911D01*
X120025068Y-114318729D01*
X120061000Y-114138089D01*
X120061000Y-113953911D01*
X120025068Y-113773271D01*
X119954586Y-113603111D01*
X119852262Y-113449972D01*
X119848201Y-113445911D01*
X129113000Y-113445911D01*
X129113000Y-113630089D01*
X129148932Y-113810729D01*
X129219414Y-113980889D01*
X129321738Y-114134028D01*
X129451972Y-114264262D01*
X129605111Y-114366586D01*
X129775271Y-114437068D01*
X129955911Y-114473000D01*
X130140089Y-114473000D01*
X130320729Y-114437068D01*
X130490889Y-114366586D01*
X130644028Y-114264262D01*
X130774262Y-114134028D01*
X130876586Y-113980889D01*
X130937000Y-113835036D01*
X130997414Y-113980889D01*
X131099738Y-114134028D01*
X131229972Y-114264262D01*
X131383111Y-114366586D01*
X131553271Y-114437068D01*
X131733911Y-114473000D01*
X131918089Y-114473000D01*
X132098729Y-114437068D01*
X132268889Y-114366586D01*
X132422028Y-114264262D01*
X132552262Y-114134028D01*
X132654586Y-113980889D01*
X132725068Y-113810729D01*
X132761000Y-113630089D01*
X132761000Y-113445911D01*
X132725068Y-113265271D01*
X132654586Y-113095111D01*
X132552262Y-112941972D01*
X132422028Y-112811738D01*
X132268889Y-112709414D01*
X132098729Y-112638932D01*
X131918089Y-112603000D01*
X131733911Y-112603000D01*
X131553271Y-112638932D01*
X131383111Y-112709414D01*
X131229972Y-112811738D01*
X131099738Y-112941972D01*
X130997414Y-113095111D01*
X130937000Y-113240964D01*
X130876586Y-113095111D01*
X130774262Y-112941972D01*
X130644028Y-112811738D01*
X130490889Y-112709414D01*
X130320729Y-112638932D01*
X130140089Y-112603000D01*
X129955911Y-112603000D01*
X129775271Y-112638932D01*
X129605111Y-112709414D01*
X129451972Y-112811738D01*
X129321738Y-112941972D01*
X129219414Y-113095111D01*
X129148932Y-113265271D01*
X129113000Y-113445911D01*
X119848201Y-113445911D01*
X119722028Y-113319738D01*
X119568889Y-113217414D01*
X119398729Y-113146932D01*
X119218089Y-113111000D01*
X119033911Y-113111000D01*
X118853271Y-113146932D01*
X118683111Y-113217414D01*
X118529972Y-113319738D01*
X118399738Y-113449972D01*
X118297414Y-113603111D01*
X118226932Y-113773271D01*
X118191000Y-113953911D01*
X107420000Y-113953911D01*
X107420000Y-111413911D01*
X115397000Y-111413911D01*
X115397000Y-111598089D01*
X115432932Y-111778729D01*
X115503414Y-111948889D01*
X115605738Y-112102028D01*
X115735972Y-112232262D01*
X115889111Y-112334586D01*
X116059271Y-112405068D01*
X116239911Y-112441000D01*
X116424089Y-112441000D01*
X116604729Y-112405068D01*
X116774889Y-112334586D01*
X116928028Y-112232262D01*
X117058262Y-112102028D01*
X117160586Y-111948889D01*
X117231068Y-111778729D01*
X117267000Y-111598089D01*
X117267000Y-111413911D01*
X117231068Y-111233271D01*
X117160586Y-111063111D01*
X117058262Y-110909972D01*
X116928028Y-110779738D01*
X116774889Y-110677414D01*
X116604729Y-110606932D01*
X116424089Y-110571000D01*
X116239911Y-110571000D01*
X116059271Y-110606932D01*
X115889111Y-110677414D01*
X115735972Y-110779738D01*
X115605738Y-110909972D01*
X115503414Y-111063111D01*
X115432932Y-111233271D01*
X115397000Y-111413911D01*
X107420000Y-111413911D01*
X107420000Y-108111911D01*
X113111000Y-108111911D01*
X113111000Y-108296089D01*
X113146932Y-108476729D01*
X113217414Y-108646889D01*
X113319738Y-108800028D01*
X113449972Y-108930262D01*
X113603111Y-109032586D01*
X113773271Y-109103068D01*
X113953911Y-109139000D01*
X114138089Y-109139000D01*
X114318729Y-109103068D01*
X114488889Y-109032586D01*
X114642028Y-108930262D01*
X114772262Y-108800028D01*
X114874586Y-108646889D01*
X114945068Y-108476729D01*
X114981000Y-108296089D01*
X114981000Y-108111911D01*
X114945068Y-107931271D01*
X114874586Y-107761111D01*
X114772262Y-107607972D01*
X114768201Y-107603911D01*
X125811000Y-107603911D01*
X125811000Y-107788089D01*
X125846932Y-107968729D01*
X125917414Y-108138889D01*
X126019738Y-108292028D01*
X126149972Y-108422262D01*
X126303111Y-108524586D01*
X126473271Y-108595068D01*
X126653911Y-108631000D01*
X126838089Y-108631000D01*
X127018729Y-108595068D01*
X127188889Y-108524586D01*
X127342028Y-108422262D01*
X127472262Y-108292028D01*
X127574586Y-108138889D01*
X127645068Y-107968729D01*
X127681000Y-107788089D01*
X127681000Y-107603911D01*
X127645068Y-107423271D01*
X127574586Y-107253111D01*
X127472262Y-107099972D01*
X127342028Y-106969738D01*
X127188889Y-106867414D01*
X127018729Y-106796932D01*
X126838089Y-106761000D01*
X126653911Y-106761000D01*
X126473271Y-106796932D01*
X126303111Y-106867414D01*
X126149972Y-106969738D01*
X126019738Y-107099972D01*
X125917414Y-107253111D01*
X125846932Y-107423271D01*
X125811000Y-107603911D01*
X114768201Y-107603911D01*
X114642028Y-107477738D01*
X114488889Y-107375414D01*
X114318729Y-107304932D01*
X114138089Y-107269000D01*
X113953911Y-107269000D01*
X113773271Y-107304932D01*
X113603111Y-107375414D01*
X113449972Y-107477738D01*
X113319738Y-107607972D01*
X113217414Y-107761111D01*
X113146932Y-107931271D01*
X113111000Y-108111911D01*
X107420000Y-108111911D01*
X107420000Y-106333911D01*
X119969000Y-106333911D01*
X119969000Y-106518089D01*
X120004932Y-106698729D01*
X120075414Y-106868889D01*
X120177738Y-107022028D01*
X120307972Y-107152262D01*
X120461111Y-107254586D01*
X120631271Y-107325068D01*
X120811911Y-107361000D01*
X120996089Y-107361000D01*
X121176729Y-107325068D01*
X121346889Y-107254586D01*
X121500028Y-107152262D01*
X121630262Y-107022028D01*
X121732586Y-106868889D01*
X121803068Y-106698729D01*
X121839000Y-106518089D01*
X121839000Y-106333911D01*
X121803068Y-106153271D01*
X121732586Y-105983111D01*
X121630262Y-105829972D01*
X121500028Y-105699738D01*
X121346889Y-105597414D01*
X121176729Y-105526932D01*
X120996089Y-105491000D01*
X120811911Y-105491000D01*
X120631271Y-105526932D01*
X120461111Y-105597414D01*
X120307972Y-105699738D01*
X120177738Y-105829972D01*
X120075414Y-105983111D01*
X120004932Y-106153271D01*
X119969000Y-106333911D01*
X107420000Y-106333911D01*
X107420000Y-104047901D01*
X115905000Y-104047901D01*
X115905000Y-104232079D01*
X115940932Y-104412719D01*
X116011414Y-104582879D01*
X116113738Y-104736018D01*
X116243972Y-104866252D01*
X116397111Y-104968576D01*
X116567271Y-105039058D01*
X116747911Y-105074990D01*
X116932089Y-105074990D01*
X117112729Y-105039058D01*
X117282889Y-104968576D01*
X117436028Y-104866252D01*
X117566262Y-104736018D01*
X117668586Y-104582879D01*
X117739068Y-104412719D01*
X117775000Y-104232079D01*
X117775000Y-104047901D01*
X117739068Y-103867261D01*
X117668586Y-103697101D01*
X117566262Y-103543962D01*
X117562211Y-103539911D01*
X119715000Y-103539911D01*
X119715000Y-103724089D01*
X119750932Y-103904729D01*
X119821414Y-104074889D01*
X119923738Y-104228028D01*
X120053972Y-104358262D01*
X120207111Y-104460586D01*
X120377271Y-104531068D01*
X120557911Y-104567000D01*
X120742089Y-104567000D01*
X120922729Y-104531068D01*
X121092889Y-104460586D01*
X121246028Y-104358262D01*
X121376262Y-104228028D01*
X121478586Y-104074889D01*
X121549068Y-103904729D01*
X121585000Y-103724089D01*
X121585000Y-103539911D01*
X121549068Y-103359271D01*
X121478586Y-103189111D01*
X121376262Y-103035972D01*
X121246028Y-102905738D01*
X121092889Y-102803414D01*
X120922729Y-102732932D01*
X120742089Y-102697000D01*
X120557911Y-102697000D01*
X120377271Y-102732932D01*
X120207111Y-102803414D01*
X120053972Y-102905738D01*
X119923738Y-103035972D01*
X119821414Y-103189111D01*
X119750932Y-103359271D01*
X119715000Y-103539911D01*
X117562211Y-103539911D01*
X117436028Y-103413728D01*
X117282889Y-103311404D01*
X117112729Y-103240922D01*
X116932089Y-103204990D01*
X116747911Y-103204990D01*
X116567271Y-103240922D01*
X116397111Y-103311404D01*
X116243972Y-103413728D01*
X116113738Y-103543962D01*
X116011414Y-103697101D01*
X115940932Y-103867261D01*
X115905000Y-104047901D01*
X107420000Y-104047901D01*
X107420000Y-101688501D01*
X121659407Y-101688501D01*
X121659407Y-101862831D01*
X121693417Y-102033811D01*
X121760130Y-102194871D01*
X121856983Y-102339821D01*
X121980252Y-102463090D01*
X122125202Y-102559943D01*
X122286262Y-102626656D01*
X122457242Y-102660666D01*
X122481419Y-102660666D01*
X122481419Y-102684843D01*
X122515429Y-102855823D01*
X122582142Y-103016883D01*
X122678995Y-103161833D01*
X122802264Y-103285102D01*
X122947214Y-103381955D01*
X123108274Y-103448668D01*
X123279254Y-103482678D01*
X123303431Y-103482678D01*
X123303431Y-103506854D01*
X123337441Y-103677834D01*
X123404154Y-103838894D01*
X123501007Y-103983844D01*
X123624276Y-104107113D01*
X123769226Y-104203966D01*
X123930286Y-104270679D01*
X124101266Y-104304689D01*
X124125442Y-104304689D01*
X124125442Y-104328866D01*
X124159452Y-104499846D01*
X124226165Y-104660906D01*
X124323018Y-104805856D01*
X124446287Y-104929125D01*
X124591237Y-105025978D01*
X124752297Y-105092691D01*
X124923277Y-105126701D01*
X124947454Y-105126701D01*
X124947454Y-105150878D01*
X124981464Y-105321858D01*
X125048177Y-105482918D01*
X125145030Y-105627868D01*
X125268299Y-105751137D01*
X125413249Y-105847990D01*
X125574309Y-105914703D01*
X125745289Y-105948713D01*
X125919619Y-105948713D01*
X126090599Y-105914703D01*
X126251659Y-105847990D01*
X126396609Y-105751137D01*
X126519878Y-105627868D01*
X126616731Y-105482918D01*
X126683444Y-105321858D01*
X126717454Y-105150878D01*
X126717454Y-105126701D01*
X126741631Y-105126701D01*
X126912611Y-105092691D01*
X127073671Y-105025978D01*
X127218621Y-104929125D01*
X127341890Y-104805856D01*
X127438743Y-104660906D01*
X127505456Y-104499846D01*
X127539466Y-104328866D01*
X127539466Y-104304689D01*
X127563642Y-104304689D01*
X127734622Y-104270679D01*
X127895682Y-104203966D01*
X128040632Y-104107113D01*
X128163901Y-103983844D01*
X128260754Y-103838894D01*
X128279386Y-103793911D01*
X130129000Y-103793911D01*
X130129000Y-103978089D01*
X130164932Y-104158729D01*
X130235414Y-104328889D01*
X130337738Y-104482028D01*
X130467972Y-104612262D01*
X130621111Y-104714586D01*
X130791271Y-104785068D01*
X130971911Y-104821000D01*
X131156089Y-104821000D01*
X131336729Y-104785068D01*
X131506889Y-104714586D01*
X131660028Y-104612262D01*
X131790262Y-104482028D01*
X131892586Y-104328889D01*
X131963068Y-104158729D01*
X131985576Y-104045576D01*
X132098729Y-104023068D01*
X132268889Y-103952586D01*
X132422028Y-103850262D01*
X132552262Y-103720028D01*
X132654586Y-103566889D01*
X132725068Y-103396729D01*
X132761000Y-103216089D01*
X132761000Y-103031911D01*
X132725068Y-102851271D01*
X132654586Y-102681111D01*
X132552262Y-102527972D01*
X132422028Y-102397738D01*
X132268889Y-102295414D01*
X132098729Y-102224932D01*
X131918089Y-102189000D01*
X131733911Y-102189000D01*
X131553271Y-102224932D01*
X131383111Y-102295414D01*
X131229972Y-102397738D01*
X131099738Y-102527972D01*
X130997414Y-102681111D01*
X130926932Y-102851271D01*
X130904424Y-102964424D01*
X130791271Y-102986932D01*
X130621111Y-103057414D01*
X130467972Y-103159738D01*
X130337738Y-103289972D01*
X130235414Y-103443111D01*
X130164932Y-103613271D01*
X130129000Y-103793911D01*
X128279386Y-103793911D01*
X128327467Y-103677834D01*
X128361477Y-103506854D01*
X128361477Y-103482678D01*
X128385654Y-103482678D01*
X128556634Y-103448668D01*
X128717694Y-103381955D01*
X128862644Y-103285102D01*
X128985913Y-103161833D01*
X129082766Y-103016883D01*
X129149479Y-102855823D01*
X129183489Y-102684843D01*
X129183489Y-102660666D01*
X129207666Y-102660666D01*
X129378646Y-102626656D01*
X129539706Y-102559943D01*
X129684656Y-102463090D01*
X129807925Y-102339821D01*
X129904778Y-102194871D01*
X129971491Y-102033811D01*
X130005501Y-101862831D01*
X130005501Y-101688501D01*
X129971491Y-101517521D01*
X129904778Y-101356461D01*
X129807925Y-101211511D01*
X129684656Y-101088242D01*
X129539706Y-100991389D01*
X129378646Y-100924676D01*
X129207666Y-100890666D01*
X129183489Y-100890666D01*
X129183489Y-100866489D01*
X129149479Y-100695509D01*
X129082766Y-100534449D01*
X128985913Y-100389499D01*
X128862644Y-100266230D01*
X128717694Y-100169377D01*
X128556634Y-100102664D01*
X128385654Y-100068654D01*
X128361477Y-100068654D01*
X128361477Y-100044478D01*
X128327467Y-99873498D01*
X128260754Y-99712438D01*
X128163901Y-99567488D01*
X128040632Y-99444219D01*
X127895682Y-99347366D01*
X127734622Y-99280653D01*
X127563642Y-99246643D01*
X127539466Y-99246643D01*
X127539466Y-99222466D01*
X127505456Y-99051486D01*
X127438743Y-98890426D01*
X127341890Y-98745476D01*
X127218621Y-98622207D01*
X127073671Y-98525354D01*
X126912611Y-98458641D01*
X126741631Y-98424631D01*
X126717454Y-98424631D01*
X126717454Y-98400454D01*
X126683444Y-98229474D01*
X126616731Y-98068414D01*
X126519878Y-97923464D01*
X126396609Y-97800195D01*
X126251659Y-97703342D01*
X126090599Y-97636629D01*
X125919619Y-97602619D01*
X125745289Y-97602619D01*
X125574309Y-97636629D01*
X125413249Y-97703342D01*
X125268299Y-97800195D01*
X125145030Y-97923464D01*
X125048177Y-98068414D01*
X124981464Y-98229474D01*
X124947454Y-98400454D01*
X124947454Y-98424631D01*
X124923277Y-98424631D01*
X124752297Y-98458641D01*
X124591237Y-98525354D01*
X124446287Y-98622207D01*
X124323018Y-98745476D01*
X124226165Y-98890426D01*
X124159452Y-99051486D01*
X124125442Y-99222466D01*
X124125442Y-99246643D01*
X124101266Y-99246643D01*
X123930286Y-99280653D01*
X123769226Y-99347366D01*
X123624276Y-99444219D01*
X123501007Y-99567488D01*
X123404154Y-99712438D01*
X123337441Y-99873498D01*
X123303431Y-100044478D01*
X123303431Y-100068654D01*
X123279254Y-100068654D01*
X123108274Y-100102664D01*
X122947214Y-100169377D01*
X122802264Y-100266230D01*
X122678995Y-100389499D01*
X122582142Y-100534449D01*
X122515429Y-100695509D01*
X122481419Y-100866489D01*
X122481419Y-100890666D01*
X122457242Y-100890666D01*
X122286262Y-100924676D01*
X122125202Y-100991389D01*
X121980252Y-101088242D01*
X121856983Y-101211511D01*
X121760130Y-101356461D01*
X121693417Y-101517521D01*
X121659407Y-101688501D01*
X107420000Y-101688501D01*
X107420000Y-99221911D01*
X120223000Y-99221911D01*
X120223000Y-99406089D01*
X120258932Y-99586729D01*
X120329414Y-99756889D01*
X120431738Y-99910028D01*
X120561972Y-100040262D01*
X120715111Y-100142586D01*
X120885271Y-100213068D01*
X121065911Y-100249000D01*
X121250089Y-100249000D01*
X121430729Y-100213068D01*
X121600889Y-100142586D01*
X121754028Y-100040262D01*
X121884262Y-99910028D01*
X121986586Y-99756889D01*
X122057068Y-99586729D01*
X122093000Y-99406089D01*
X122093000Y-99221911D01*
X122057068Y-99041271D01*
X121986586Y-98871111D01*
X121884262Y-98717972D01*
X121754028Y-98587738D01*
X121600889Y-98485414D01*
X121430729Y-98414932D01*
X121250089Y-98379000D01*
X121065911Y-98379000D01*
X120885271Y-98414932D01*
X120715111Y-98485414D01*
X120561972Y-98587738D01*
X120431738Y-98717972D01*
X120329414Y-98871111D01*
X120258932Y-99041271D01*
X120223000Y-99221911D01*
X107420000Y-99221911D01*
X107420000Y-97951911D01*
X111079000Y-97951911D01*
X111079000Y-98136089D01*
X111114932Y-98316729D01*
X111185414Y-98486889D01*
X111287738Y-98640028D01*
X111417972Y-98770262D01*
X111571111Y-98872586D01*
X111741271Y-98943068D01*
X111921911Y-98979000D01*
X112106089Y-98979000D01*
X112286729Y-98943068D01*
X112456889Y-98872586D01*
X112610028Y-98770262D01*
X112740262Y-98640028D01*
X112842586Y-98486889D01*
X112913068Y-98316729D01*
X112949000Y-98136089D01*
X112949000Y-97951911D01*
X112913068Y-97771271D01*
X112842586Y-97601111D01*
X112740262Y-97447972D01*
X112610028Y-97317738D01*
X112456889Y-97215414D01*
X112286729Y-97144932D01*
X112106089Y-97109000D01*
X111921911Y-97109000D01*
X111741271Y-97144932D01*
X111571111Y-97215414D01*
X111417972Y-97317738D01*
X111287738Y-97447972D01*
X111185414Y-97601111D01*
X111114932Y-97771271D01*
X111079000Y-97951911D01*
X107420000Y-97951911D01*
X107420000Y-93585854D01*
X115856943Y-93585854D01*
X115856943Y-93770032D01*
X115892875Y-93950672D01*
X115963357Y-94120832D01*
X116065681Y-94273971D01*
X116195915Y-94404205D01*
X116349054Y-94506529D01*
X116452527Y-94549388D01*
X116495386Y-94652861D01*
X116597710Y-94806000D01*
X116727944Y-94936234D01*
X116881083Y-95038558D01*
X116984555Y-95081417D01*
X117027414Y-95184889D01*
X117129738Y-95338028D01*
X117259972Y-95468262D01*
X117413111Y-95570586D01*
X117455135Y-95587993D01*
X117440089Y-95585000D01*
X117255911Y-95585000D01*
X117075271Y-95620932D01*
X116905111Y-95691414D01*
X116751972Y-95793738D01*
X116621738Y-95923972D01*
X116519414Y-96077111D01*
X116448932Y-96247271D01*
X116413000Y-96427911D01*
X116413000Y-96612089D01*
X116448932Y-96792729D01*
X116519414Y-96962889D01*
X116621738Y-97116028D01*
X116751972Y-97246262D01*
X116905111Y-97348586D01*
X117075271Y-97419068D01*
X117255911Y-97455000D01*
X117440089Y-97455000D01*
X117495836Y-97443911D01*
X127335000Y-97443911D01*
X127335000Y-97628089D01*
X127370932Y-97808729D01*
X127441414Y-97978889D01*
X127543738Y-98132028D01*
X127673972Y-98262262D01*
X127827111Y-98364586D01*
X127997271Y-98435068D01*
X128177911Y-98471000D01*
X128362089Y-98471000D01*
X128542729Y-98435068D01*
X128712889Y-98364586D01*
X128866028Y-98262262D01*
X128996262Y-98132028D01*
X129098586Y-97978889D01*
X129169068Y-97808729D01*
X129205000Y-97628089D01*
X129205000Y-97443911D01*
X129169068Y-97263271D01*
X129098586Y-97093111D01*
X128996262Y-96939972D01*
X128866028Y-96809738D01*
X128712889Y-96707414D01*
X128542729Y-96636932D01*
X128362089Y-96601000D01*
X128177911Y-96601000D01*
X127997271Y-96636932D01*
X127827111Y-96707414D01*
X127673972Y-96809738D01*
X127543738Y-96939972D01*
X127441414Y-97093111D01*
X127370932Y-97263271D01*
X127335000Y-97443911D01*
X117495836Y-97443911D01*
X117620729Y-97419068D01*
X117790889Y-97348586D01*
X117944028Y-97246262D01*
X118074262Y-97116028D01*
X118176586Y-96962889D01*
X118247068Y-96792729D01*
X118283000Y-96612089D01*
X118283000Y-96427911D01*
X118247068Y-96247271D01*
X118176586Y-96077111D01*
X118074262Y-95923972D01*
X117944028Y-95793738D01*
X117790889Y-95691414D01*
X117748865Y-95674007D01*
X117763911Y-95677000D01*
X117948089Y-95677000D01*
X118128729Y-95641068D01*
X118298889Y-95570586D01*
X118452028Y-95468262D01*
X118582262Y-95338028D01*
X118684586Y-95184889D01*
X118755068Y-95014729D01*
X118791000Y-94834089D01*
X118791000Y-94649911D01*
X118755068Y-94469271D01*
X118684586Y-94299111D01*
X118582262Y-94145972D01*
X118452028Y-94015738D01*
X118298889Y-93913414D01*
X118195417Y-93870555D01*
X118152558Y-93767083D01*
X118050234Y-93613944D01*
X117920000Y-93483710D01*
X117766861Y-93381386D01*
X117663388Y-93338527D01*
X117620529Y-93235054D01*
X117518205Y-93081915D01*
X117387971Y-92951681D01*
X117234832Y-92849357D01*
X117064672Y-92778875D01*
X116884032Y-92742943D01*
X116699854Y-92742943D01*
X116519214Y-92778875D01*
X116349054Y-92849357D01*
X116195915Y-92951681D01*
X116065681Y-93081915D01*
X115963357Y-93235054D01*
X115892875Y-93405214D01*
X115856943Y-93585854D01*
X107420000Y-93585854D01*
X107420000Y-92410088D01*
X107483051Y-92461833D01*
X107697599Y-92576511D01*
X107930398Y-92647130D01*
X108111835Y-92665000D01*
X108933165Y-92665000D01*
X109114602Y-92647130D01*
X109347401Y-92576511D01*
X109561949Y-92461833D01*
X109750002Y-92307502D01*
X109904333Y-92119449D01*
X110019011Y-91904901D01*
X110089630Y-91672102D01*
X110113475Y-91430000D01*
X110089630Y-91187898D01*
X110086617Y-91177965D01*
X110166119Y-91296949D01*
X110355551Y-91486381D01*
X110578299Y-91635216D01*
X110825803Y-91737736D01*
X111088552Y-91790000D01*
X111356448Y-91790000D01*
X111619197Y-91737736D01*
X111866701Y-91635216D01*
X111988468Y-91553854D01*
X117888943Y-91553854D01*
X117888943Y-91738032D01*
X117924875Y-91918672D01*
X117995357Y-92088832D01*
X118097681Y-92241971D01*
X118227915Y-92372205D01*
X118381054Y-92474529D01*
X118484527Y-92517388D01*
X118527386Y-92620861D01*
X118629710Y-92774000D01*
X118759944Y-92904234D01*
X118913083Y-93006558D01*
X119016555Y-93049417D01*
X119059414Y-93152889D01*
X119161738Y-93306028D01*
X119291972Y-93436262D01*
X119445111Y-93538586D01*
X119615271Y-93609068D01*
X119795911Y-93645000D01*
X119980089Y-93645000D01*
X120160729Y-93609068D01*
X120330889Y-93538586D01*
X120484028Y-93436262D01*
X120614262Y-93306028D01*
X120716586Y-93152889D01*
X120787068Y-92982729D01*
X120823000Y-92802089D01*
X120823000Y-92617911D01*
X120823000Y-92617907D01*
X121747000Y-92617907D01*
X121747000Y-92802085D01*
X121782932Y-92982725D01*
X121853414Y-93152885D01*
X121955738Y-93306024D01*
X122085972Y-93436258D01*
X122239111Y-93538582D01*
X122409271Y-93609064D01*
X122589911Y-93644996D01*
X122774089Y-93644996D01*
X122954729Y-93609064D01*
X123124889Y-93538582D01*
X123278028Y-93436258D01*
X123408262Y-93306024D01*
X123510586Y-93152885D01*
X123581068Y-92982725D01*
X123617000Y-92802085D01*
X123617000Y-92617907D01*
X123581068Y-92437267D01*
X123510586Y-92267107D01*
X123408262Y-92113968D01*
X123278028Y-91983734D01*
X123124889Y-91881410D01*
X122954729Y-91810928D01*
X122774089Y-91774996D01*
X122589911Y-91774996D01*
X122409271Y-91810928D01*
X122239111Y-91881410D01*
X122085972Y-91983734D01*
X121955738Y-92113968D01*
X121853414Y-92267107D01*
X121782932Y-92437267D01*
X121747000Y-92617907D01*
X120823000Y-92617907D01*
X120787068Y-92437271D01*
X120716586Y-92267111D01*
X120614262Y-92113972D01*
X120484028Y-91983738D01*
X120330889Y-91881414D01*
X120227417Y-91838555D01*
X120184558Y-91735083D01*
X120082234Y-91581944D01*
X119952000Y-91451710D01*
X119798861Y-91349386D01*
X119695388Y-91306527D01*
X119652529Y-91203054D01*
X119550205Y-91049915D01*
X119419971Y-90919681D01*
X119266832Y-90817357D01*
X119096672Y-90746875D01*
X118916032Y-90710943D01*
X118731854Y-90710943D01*
X118551214Y-90746875D01*
X118381054Y-90817357D01*
X118227915Y-90919681D01*
X118097681Y-91049915D01*
X117995357Y-91203054D01*
X117924875Y-91373214D01*
X117888943Y-91553854D01*
X111988468Y-91553854D01*
X112089449Y-91486381D01*
X112278881Y-91296949D01*
X112427716Y-91074201D01*
X112530236Y-90826697D01*
X112582500Y-90563948D01*
X112582500Y-90296052D01*
X112530236Y-90033303D01*
X112427716Y-89785799D01*
X112278881Y-89563051D01*
X112089449Y-89373619D01*
X111866701Y-89224784D01*
X111619197Y-89122264D01*
X111356448Y-89070000D01*
X111088552Y-89070000D01*
X110825803Y-89122264D01*
X110578299Y-89224784D01*
X110355551Y-89373619D01*
X110166119Y-89563051D01*
X110017284Y-89785799D01*
X109914764Y-90033303D01*
X109862500Y-90296052D01*
X109862500Y-90563948D01*
X109895484Y-90729768D01*
X109750002Y-90552498D01*
X109561949Y-90398167D01*
X109347401Y-90283489D01*
X109114602Y-90212870D01*
X108933165Y-90195000D01*
X108111835Y-90195000D01*
X107930398Y-90212870D01*
X107697599Y-90283489D01*
X107483051Y-90398167D01*
X107420000Y-90449912D01*
X107420000Y-85410088D01*
X107483051Y-85461833D01*
X107697599Y-85576511D01*
X107930398Y-85647130D01*
X108111835Y-85665000D01*
X108933165Y-85665000D01*
X109114602Y-85647130D01*
X109347401Y-85576511D01*
X109561949Y-85461833D01*
X109750002Y-85307502D01*
X109895484Y-85130232D01*
X109862500Y-85296052D01*
X109862500Y-85563948D01*
X109914764Y-85826697D01*
X110017284Y-86074201D01*
X110166119Y-86296949D01*
X110355551Y-86486381D01*
X110578299Y-86635216D01*
X110825803Y-86737736D01*
X111088552Y-86790000D01*
X111356448Y-86790000D01*
X111619197Y-86737736D01*
X111866701Y-86635216D01*
X112089449Y-86486381D01*
X112278881Y-86296949D01*
X112427716Y-86074201D01*
X112530236Y-85826697D01*
X112582500Y-85563948D01*
X112582500Y-85296052D01*
X112530236Y-85033303D01*
X112427716Y-84785799D01*
X112278881Y-84563051D01*
X112089449Y-84373619D01*
X111866701Y-84224784D01*
X111619197Y-84122264D01*
X111356448Y-84070000D01*
X111088552Y-84070000D01*
X110825803Y-84122264D01*
X110578299Y-84224784D01*
X110355551Y-84373619D01*
X110166119Y-84563051D01*
X110086617Y-84682035D01*
X110089630Y-84672102D01*
X110113475Y-84430000D01*
X110089630Y-84187898D01*
X110019011Y-83955099D01*
X110009824Y-83937911D01*
X112925000Y-83937911D01*
X112925000Y-84122089D01*
X112960932Y-84302729D01*
X113031414Y-84472889D01*
X113133738Y-84626028D01*
X113263972Y-84756262D01*
X113417111Y-84858586D01*
X113587271Y-84929068D01*
X113767911Y-84965000D01*
X113952089Y-84965000D01*
X114132729Y-84929068D01*
X114302889Y-84858586D01*
X114456028Y-84756262D01*
X114586262Y-84626028D01*
X114688586Y-84472889D01*
X114727061Y-84380000D01*
X123271928Y-84380000D01*
X123271928Y-86080000D01*
X123284188Y-86204482D01*
X123320498Y-86324180D01*
X123379463Y-86434494D01*
X123458815Y-86531185D01*
X123555506Y-86610537D01*
X123665820Y-86669502D01*
X123785518Y-86705812D01*
X123910000Y-86718072D01*
X125065638Y-86718072D01*
X125003738Y-86779972D01*
X124901414Y-86933111D01*
X124830932Y-87103271D01*
X124795000Y-87283911D01*
X124795000Y-87468089D01*
X124830932Y-87648729D01*
X124901414Y-87818889D01*
X125003738Y-87972028D01*
X125133972Y-88102262D01*
X125287111Y-88204586D01*
X125457271Y-88275068D01*
X125637911Y-88311000D01*
X125822089Y-88311000D01*
X126002729Y-88275068D01*
X126172889Y-88204586D01*
X126326028Y-88102262D01*
X126456262Y-87972028D01*
X126558586Y-87818889D01*
X126629068Y-87648729D01*
X126665000Y-87468089D01*
X126665000Y-87283911D01*
X126629068Y-87103271D01*
X126558586Y-86933111D01*
X126456262Y-86779972D01*
X126326028Y-86649738D01*
X126172889Y-86547414D01*
X126079584Y-86508766D01*
X126140537Y-86434494D01*
X126199502Y-86324180D01*
X126221513Y-86251620D01*
X126353368Y-86383475D01*
X126596589Y-86545990D01*
X126866842Y-86657932D01*
X127153740Y-86715000D01*
X127446260Y-86715000D01*
X127733158Y-86657932D01*
X128003411Y-86545990D01*
X128246632Y-86383475D01*
X128453475Y-86176632D01*
X128570000Y-86002240D01*
X128686525Y-86176632D01*
X128893368Y-86383475D01*
X129136589Y-86545990D01*
X129406842Y-86657932D01*
X129693740Y-86715000D01*
X129986260Y-86715000D01*
X130273158Y-86657932D01*
X130543411Y-86545990D01*
X130786632Y-86383475D01*
X130993475Y-86176632D01*
X131110000Y-86002240D01*
X131226525Y-86176632D01*
X131433368Y-86383475D01*
X131676589Y-86545990D01*
X131946842Y-86657932D01*
X132233740Y-86715000D01*
X132526260Y-86715000D01*
X132813158Y-86657932D01*
X133083411Y-86545990D01*
X133326632Y-86383475D01*
X133533475Y-86176632D01*
X133695990Y-85933411D01*
X133807932Y-85663158D01*
X133865000Y-85376260D01*
X133865000Y-85083740D01*
X133807932Y-84796842D01*
X133695990Y-84526589D01*
X133533475Y-84283368D01*
X133326632Y-84076525D01*
X133152240Y-83960000D01*
X133326632Y-83843475D01*
X133533475Y-83636632D01*
X133695990Y-83393411D01*
X133807932Y-83123158D01*
X133865000Y-82836260D01*
X133865000Y-82543740D01*
X133807932Y-82256842D01*
X133695990Y-81986589D01*
X133533475Y-81743368D01*
X133326632Y-81536525D01*
X133083411Y-81374010D01*
X132813158Y-81262068D01*
X132526260Y-81205000D01*
X132233740Y-81205000D01*
X131946842Y-81262068D01*
X131676589Y-81374010D01*
X131433368Y-81536525D01*
X131226525Y-81743368D01*
X131110000Y-81917760D01*
X130993475Y-81743368D01*
X130786632Y-81536525D01*
X130543411Y-81374010D01*
X130273158Y-81262068D01*
X129986260Y-81205000D01*
X129693740Y-81205000D01*
X129406842Y-81262068D01*
X129136589Y-81374010D01*
X128893368Y-81536525D01*
X128686525Y-81743368D01*
X128570000Y-81917760D01*
X128453475Y-81743368D01*
X128246632Y-81536525D01*
X128003411Y-81374010D01*
X127733158Y-81262068D01*
X127446260Y-81205000D01*
X127153740Y-81205000D01*
X126866842Y-81262068D01*
X126596589Y-81374010D01*
X126353368Y-81536525D01*
X126146525Y-81743368D01*
X126030000Y-81917760D01*
X125913475Y-81743368D01*
X125706632Y-81536525D01*
X125463411Y-81374010D01*
X125193158Y-81262068D01*
X124906260Y-81205000D01*
X124613740Y-81205000D01*
X124326842Y-81262068D01*
X124056589Y-81374010D01*
X123813368Y-81536525D01*
X123606525Y-81743368D01*
X123444010Y-81986589D01*
X123332068Y-82256842D01*
X123275000Y-82543740D01*
X123275000Y-82836260D01*
X123332068Y-83123158D01*
X123444010Y-83393411D01*
X123606525Y-83636632D01*
X123738380Y-83768487D01*
X123665820Y-83790498D01*
X123555506Y-83849463D01*
X123458815Y-83928815D01*
X123379463Y-84025506D01*
X123320498Y-84135820D01*
X123284188Y-84255518D01*
X123271928Y-84380000D01*
X114727061Y-84380000D01*
X114759068Y-84302729D01*
X114795000Y-84122089D01*
X114795000Y-83937911D01*
X114759068Y-83757271D01*
X114688586Y-83587111D01*
X114586262Y-83433972D01*
X114456028Y-83303738D01*
X114302889Y-83201414D01*
X114132729Y-83130932D01*
X113952089Y-83095000D01*
X113767911Y-83095000D01*
X113587271Y-83130932D01*
X113417111Y-83201414D01*
X113263972Y-83303738D01*
X113133738Y-83433972D01*
X113031414Y-83587111D01*
X112960932Y-83757271D01*
X112925000Y-83937911D01*
X110009824Y-83937911D01*
X109904333Y-83740551D01*
X109750002Y-83552498D01*
X109561949Y-83398167D01*
X109347401Y-83283489D01*
X109114602Y-83212870D01*
X108933165Y-83195000D01*
X108111835Y-83195000D01*
X107930398Y-83212870D01*
X107697599Y-83283489D01*
X107483051Y-83398167D01*
X107420000Y-83449912D01*
X107420000Y-77123911D01*
X114889000Y-77123911D01*
X114889000Y-77308089D01*
X114924932Y-77488729D01*
X114995414Y-77658889D01*
X115097738Y-77812028D01*
X115227972Y-77942262D01*
X115281458Y-77978000D01*
X115227972Y-78013738D01*
X115097738Y-78143972D01*
X114995414Y-78297111D01*
X114924932Y-78467271D01*
X114889000Y-78647911D01*
X114889000Y-78832089D01*
X114924932Y-79012729D01*
X114995414Y-79182889D01*
X115097738Y-79336028D01*
X115227972Y-79466262D01*
X115381111Y-79568586D01*
X115551271Y-79639068D01*
X115664424Y-79661576D01*
X115686932Y-79774729D01*
X115757414Y-79944889D01*
X115859738Y-80098028D01*
X115989972Y-80228262D01*
X116143111Y-80330586D01*
X116313271Y-80401068D01*
X116493911Y-80437000D01*
X116678089Y-80437000D01*
X116858729Y-80401068D01*
X117028889Y-80330586D01*
X117182028Y-80228262D01*
X117312262Y-80098028D01*
X117414586Y-79944889D01*
X117485068Y-79774729D01*
X117521000Y-79594089D01*
X117521000Y-79409911D01*
X117485068Y-79229271D01*
X117414586Y-79059111D01*
X117312262Y-78905972D01*
X117182028Y-78775738D01*
X117128542Y-78740000D01*
X117182028Y-78704262D01*
X117312262Y-78574028D01*
X117414586Y-78420889D01*
X117485068Y-78250729D01*
X117521000Y-78070089D01*
X117521000Y-77885911D01*
X117485068Y-77705271D01*
X117414586Y-77535111D01*
X117312262Y-77381972D01*
X117182028Y-77251738D01*
X117028889Y-77149414D01*
X116858729Y-77078932D01*
X116745576Y-77056424D01*
X116723068Y-76943271D01*
X116652586Y-76773111D01*
X116637144Y-76750000D01*
X140951928Y-76750000D01*
X140951928Y-78350000D01*
X140964188Y-78474482D01*
X141000498Y-78594180D01*
X141059463Y-78704494D01*
X141138815Y-78801185D01*
X141235506Y-78880537D01*
X141345820Y-78939502D01*
X141465518Y-78975812D01*
X141590000Y-78988072D01*
X141855725Y-78988072D01*
X141710273Y-79048320D01*
X141475241Y-79205363D01*
X141275363Y-79405241D01*
X141118320Y-79640273D01*
X141010147Y-79901426D01*
X140955000Y-80178665D01*
X140955000Y-80461335D01*
X141010147Y-80738574D01*
X141118320Y-80999727D01*
X141275363Y-81234759D01*
X141475241Y-81434637D01*
X141710273Y-81591680D01*
X141971426Y-81699853D01*
X141997301Y-81705000D01*
X141971426Y-81710147D01*
X141710273Y-81818320D01*
X141475241Y-81975363D01*
X141275363Y-82175241D01*
X141118320Y-82410273D01*
X141010147Y-82671426D01*
X140955000Y-82948665D01*
X140955000Y-83231335D01*
X141010147Y-83508574D01*
X141118320Y-83769727D01*
X141275363Y-84004759D01*
X141475241Y-84204637D01*
X141710273Y-84361680D01*
X141971426Y-84469853D01*
X141997301Y-84475000D01*
X141971426Y-84480147D01*
X141710273Y-84588320D01*
X141475241Y-84745363D01*
X141275363Y-84945241D01*
X141118320Y-85180273D01*
X141010147Y-85441426D01*
X140955000Y-85718665D01*
X140955000Y-86001335D01*
X141010147Y-86278574D01*
X141118320Y-86539727D01*
X141275363Y-86774759D01*
X141475241Y-86974637D01*
X141710273Y-87131680D01*
X141971426Y-87239853D01*
X141997301Y-87245000D01*
X141971426Y-87250147D01*
X141710273Y-87358320D01*
X141475241Y-87515363D01*
X141275363Y-87715241D01*
X141118320Y-87950273D01*
X141010147Y-88211426D01*
X140955000Y-88488665D01*
X140955000Y-88771335D01*
X141010147Y-89048574D01*
X141118320Y-89309727D01*
X141275363Y-89544759D01*
X141475241Y-89744637D01*
X141710273Y-89901680D01*
X141971426Y-90009853D01*
X141997301Y-90015000D01*
X141971426Y-90020147D01*
X141710273Y-90128320D01*
X141475241Y-90285363D01*
X141275363Y-90485241D01*
X141118320Y-90720273D01*
X141010147Y-90981426D01*
X140955000Y-91258665D01*
X140955000Y-91541335D01*
X141010147Y-91818574D01*
X141118320Y-92079727D01*
X141275363Y-92314759D01*
X141475241Y-92514637D01*
X141710273Y-92671680D01*
X141971426Y-92779853D01*
X141997301Y-92785000D01*
X141971426Y-92790147D01*
X141710273Y-92898320D01*
X141475241Y-93055363D01*
X141275363Y-93255241D01*
X141118320Y-93490273D01*
X141010147Y-93751426D01*
X140955000Y-94028665D01*
X140955000Y-94311335D01*
X141010147Y-94588574D01*
X141118320Y-94849727D01*
X141275363Y-95084759D01*
X141475241Y-95284637D01*
X141710273Y-95441680D01*
X141971426Y-95549853D01*
X141997301Y-95555000D01*
X141971426Y-95560147D01*
X141710273Y-95668320D01*
X141475241Y-95825363D01*
X141275363Y-96025241D01*
X141118320Y-96260273D01*
X141010147Y-96521426D01*
X140955000Y-96798665D01*
X140955000Y-97081335D01*
X141010147Y-97358574D01*
X141118320Y-97619727D01*
X141275363Y-97854759D01*
X141475241Y-98054637D01*
X141710273Y-98211680D01*
X141971426Y-98319853D01*
X141997301Y-98325000D01*
X141971426Y-98330147D01*
X141710273Y-98438320D01*
X141475241Y-98595363D01*
X141275363Y-98795241D01*
X141118320Y-99030273D01*
X141010147Y-99291426D01*
X140955000Y-99568665D01*
X140955000Y-99851335D01*
X141010147Y-100128574D01*
X141118320Y-100389727D01*
X141275363Y-100624759D01*
X141475241Y-100824637D01*
X141710273Y-100981680D01*
X141971426Y-101089853D01*
X141997301Y-101095000D01*
X141971426Y-101100147D01*
X141710273Y-101208320D01*
X141475241Y-101365363D01*
X141275363Y-101565241D01*
X141118320Y-101800273D01*
X141010147Y-102061426D01*
X140955000Y-102338665D01*
X140955000Y-102621335D01*
X141010147Y-102898574D01*
X141118320Y-103159727D01*
X141275363Y-103394759D01*
X141475241Y-103594637D01*
X141710273Y-103751680D01*
X141971426Y-103859853D01*
X141997301Y-103865000D01*
X141971426Y-103870147D01*
X141710273Y-103978320D01*
X141475241Y-104135363D01*
X141275363Y-104335241D01*
X141118320Y-104570273D01*
X141010147Y-104831426D01*
X140955000Y-105108665D01*
X140955000Y-105391335D01*
X141010147Y-105668574D01*
X141118320Y-105929727D01*
X141275363Y-106164759D01*
X141475241Y-106364637D01*
X141710273Y-106521680D01*
X141971426Y-106629853D01*
X141997301Y-106635000D01*
X141971426Y-106640147D01*
X141710273Y-106748320D01*
X141475241Y-106905363D01*
X141275363Y-107105241D01*
X141118320Y-107340273D01*
X141010147Y-107601426D01*
X140955000Y-107878665D01*
X140955000Y-108161335D01*
X141010147Y-108438574D01*
X141118320Y-108699727D01*
X141275363Y-108934759D01*
X141475241Y-109134637D01*
X141710273Y-109291680D01*
X141971426Y-109399853D01*
X141997301Y-109405000D01*
X141971426Y-109410147D01*
X141710273Y-109518320D01*
X141475241Y-109675363D01*
X141275363Y-109875241D01*
X141118320Y-110110273D01*
X141010147Y-110371426D01*
X140955000Y-110648665D01*
X140955000Y-110931335D01*
X141010147Y-111208574D01*
X141118320Y-111469727D01*
X141275363Y-111704759D01*
X141475241Y-111904637D01*
X141710273Y-112061680D01*
X141971426Y-112169853D01*
X142248665Y-112225000D01*
X142531335Y-112225000D01*
X142808574Y-112169853D01*
X143069727Y-112061680D01*
X143304759Y-111904637D01*
X143504637Y-111704759D01*
X143661680Y-111469727D01*
X143769853Y-111208574D01*
X143825000Y-110931335D01*
X143825000Y-110648665D01*
X143775080Y-110397702D01*
X144416903Y-110397702D01*
X144488486Y-110641671D01*
X144743996Y-110762571D01*
X145018184Y-110831300D01*
X145300512Y-110845217D01*
X145580130Y-110803787D01*
X145846292Y-110708603D01*
X145971514Y-110641671D01*
X146043097Y-110397702D01*
X145230000Y-109584605D01*
X144416903Y-110397702D01*
X143775080Y-110397702D01*
X143769853Y-110371426D01*
X143661680Y-110110273D01*
X143504637Y-109875241D01*
X143304759Y-109675363D01*
X143069727Y-109518320D01*
X142966380Y-109475512D01*
X143789783Y-109475512D01*
X143831213Y-109755130D01*
X143926397Y-110021292D01*
X143993329Y-110146514D01*
X144237298Y-110218097D01*
X145050395Y-109405000D01*
X145409605Y-109405000D01*
X146222702Y-110218097D01*
X146466671Y-110146514D01*
X146587571Y-109891004D01*
X146656300Y-109616816D01*
X146670217Y-109334488D01*
X146628787Y-109054870D01*
X146533603Y-108788708D01*
X146466671Y-108663486D01*
X146222702Y-108591903D01*
X145409605Y-109405000D01*
X145050395Y-109405000D01*
X144237298Y-108591903D01*
X143993329Y-108663486D01*
X143872429Y-108918996D01*
X143803700Y-109193184D01*
X143789783Y-109475512D01*
X142966380Y-109475512D01*
X142808574Y-109410147D01*
X142782699Y-109405000D01*
X142808574Y-109399853D01*
X143069727Y-109291680D01*
X143304759Y-109134637D01*
X143504637Y-108934759D01*
X143661680Y-108699727D01*
X143769853Y-108438574D01*
X143825000Y-108161335D01*
X143825000Y-107878665D01*
X143769853Y-107601426D01*
X143661680Y-107340273D01*
X143504637Y-107105241D01*
X143304759Y-106905363D01*
X143069727Y-106748320D01*
X142808574Y-106640147D01*
X142782699Y-106635000D01*
X142808574Y-106629853D01*
X143069727Y-106521680D01*
X143304759Y-106364637D01*
X143504637Y-106164759D01*
X143661680Y-105929727D01*
X143769853Y-105668574D01*
X143825000Y-105391335D01*
X143825000Y-105108665D01*
X143769853Y-104831426D01*
X143661680Y-104570273D01*
X143504637Y-104335241D01*
X143304759Y-104135363D01*
X143069727Y-103978320D01*
X142808574Y-103870147D01*
X142782699Y-103865000D01*
X142808574Y-103859853D01*
X143069727Y-103751680D01*
X143304759Y-103594637D01*
X143504637Y-103394759D01*
X143661680Y-103159727D01*
X143769853Y-102898574D01*
X143825000Y-102621335D01*
X143825000Y-102338665D01*
X143769853Y-102061426D01*
X143661680Y-101800273D01*
X143504637Y-101565241D01*
X143304759Y-101365363D01*
X143069727Y-101208320D01*
X142808574Y-101100147D01*
X142782699Y-101095000D01*
X142808574Y-101089853D01*
X143069727Y-100981680D01*
X143304759Y-100824637D01*
X143504637Y-100624759D01*
X143661680Y-100389727D01*
X143769853Y-100128574D01*
X143825000Y-99851335D01*
X143825000Y-99568665D01*
X143769853Y-99291426D01*
X143661680Y-99030273D01*
X143504637Y-98795241D01*
X143304759Y-98595363D01*
X143069727Y-98438320D01*
X142808574Y-98330147D01*
X142782699Y-98325000D01*
X142808574Y-98319853D01*
X143069727Y-98211680D01*
X143304759Y-98054637D01*
X143504637Y-97854759D01*
X143661680Y-97619727D01*
X143769853Y-97358574D01*
X143825000Y-97081335D01*
X143825000Y-96798665D01*
X143769853Y-96521426D01*
X143661680Y-96260273D01*
X143504637Y-96025241D01*
X143304759Y-95825363D01*
X143069727Y-95668320D01*
X142808574Y-95560147D01*
X142782699Y-95555000D01*
X142808574Y-95549853D01*
X143069727Y-95441680D01*
X143304759Y-95284637D01*
X143504637Y-95084759D01*
X143661680Y-94849727D01*
X143769853Y-94588574D01*
X143825000Y-94311335D01*
X143825000Y-94028665D01*
X143769853Y-93751426D01*
X143661680Y-93490273D01*
X143504637Y-93255241D01*
X143304759Y-93055363D01*
X143069727Y-92898320D01*
X142808574Y-92790147D01*
X142782699Y-92785000D01*
X142808574Y-92779853D01*
X143069727Y-92671680D01*
X143304759Y-92514637D01*
X143504637Y-92314759D01*
X143661680Y-92079727D01*
X143769853Y-91818574D01*
X143825000Y-91541335D01*
X143825000Y-91258665D01*
X143769853Y-90981426D01*
X143661680Y-90720273D01*
X143504637Y-90485241D01*
X143304759Y-90285363D01*
X143069727Y-90128320D01*
X142808574Y-90020147D01*
X142782699Y-90015000D01*
X142808574Y-90009853D01*
X143069727Y-89901680D01*
X143304759Y-89744637D01*
X143504637Y-89544759D01*
X143661680Y-89309727D01*
X143769853Y-89048574D01*
X143825000Y-88771335D01*
X143825000Y-88488665D01*
X143769853Y-88211426D01*
X143661680Y-87950273D01*
X143504637Y-87715241D01*
X143304759Y-87515363D01*
X143069727Y-87358320D01*
X142808574Y-87250147D01*
X142782699Y-87245000D01*
X142808574Y-87239853D01*
X143069727Y-87131680D01*
X143304759Y-86974637D01*
X143504637Y-86774759D01*
X143661680Y-86539727D01*
X143769853Y-86278574D01*
X143825000Y-86001335D01*
X143825000Y-85718665D01*
X143769853Y-85441426D01*
X143661680Y-85180273D01*
X143504637Y-84945241D01*
X143304759Y-84745363D01*
X143069727Y-84588320D01*
X142808574Y-84480147D01*
X142782699Y-84475000D01*
X142808574Y-84469853D01*
X143069727Y-84361680D01*
X143304759Y-84204637D01*
X143504637Y-84004759D01*
X143661680Y-83769727D01*
X143769853Y-83508574D01*
X143825000Y-83231335D01*
X143825000Y-82948665D01*
X143769853Y-82671426D01*
X143661680Y-82410273D01*
X143504637Y-82175241D01*
X143304759Y-81975363D01*
X143069727Y-81818320D01*
X142808574Y-81710147D01*
X142782699Y-81705000D01*
X142808574Y-81699853D01*
X143069727Y-81591680D01*
X143111654Y-81563665D01*
X143795000Y-81563665D01*
X143795000Y-81846335D01*
X143850147Y-82123574D01*
X143958320Y-82384727D01*
X144115363Y-82619759D01*
X144315241Y-82819637D01*
X144550273Y-82976680D01*
X144811426Y-83084853D01*
X144837301Y-83090000D01*
X144811426Y-83095147D01*
X144550273Y-83203320D01*
X144315241Y-83360363D01*
X144115363Y-83560241D01*
X143958320Y-83795273D01*
X143850147Y-84056426D01*
X143795000Y-84333665D01*
X143795000Y-84616335D01*
X143850147Y-84893574D01*
X143958320Y-85154727D01*
X144115363Y-85389759D01*
X144315241Y-85589637D01*
X144550273Y-85746680D01*
X144811426Y-85854853D01*
X144837301Y-85860000D01*
X144811426Y-85865147D01*
X144550273Y-85973320D01*
X144315241Y-86130363D01*
X144115363Y-86330241D01*
X143958320Y-86565273D01*
X143850147Y-86826426D01*
X143795000Y-87103665D01*
X143795000Y-87386335D01*
X143850147Y-87663574D01*
X143958320Y-87924727D01*
X144115363Y-88159759D01*
X144315241Y-88359637D01*
X144550273Y-88516680D01*
X144811426Y-88624853D01*
X144837301Y-88630000D01*
X144811426Y-88635147D01*
X144550273Y-88743320D01*
X144315241Y-88900363D01*
X144115363Y-89100241D01*
X143958320Y-89335273D01*
X143850147Y-89596426D01*
X143795000Y-89873665D01*
X143795000Y-90156335D01*
X143850147Y-90433574D01*
X143958320Y-90694727D01*
X144115363Y-90929759D01*
X144315241Y-91129637D01*
X144550273Y-91286680D01*
X144811426Y-91394853D01*
X144837301Y-91400000D01*
X144811426Y-91405147D01*
X144550273Y-91513320D01*
X144315241Y-91670363D01*
X144115363Y-91870241D01*
X143958320Y-92105273D01*
X143850147Y-92366426D01*
X143795000Y-92643665D01*
X143795000Y-92926335D01*
X143850147Y-93203574D01*
X143958320Y-93464727D01*
X144115363Y-93699759D01*
X144315241Y-93899637D01*
X144550273Y-94056680D01*
X144811426Y-94164853D01*
X144837301Y-94170000D01*
X144811426Y-94175147D01*
X144550273Y-94283320D01*
X144315241Y-94440363D01*
X144115363Y-94640241D01*
X143958320Y-94875273D01*
X143850147Y-95136426D01*
X143795000Y-95413665D01*
X143795000Y-95696335D01*
X143850147Y-95973574D01*
X143958320Y-96234727D01*
X144115363Y-96469759D01*
X144315241Y-96669637D01*
X144550273Y-96826680D01*
X144811426Y-96934853D01*
X144837301Y-96940000D01*
X144811426Y-96945147D01*
X144550273Y-97053320D01*
X144315241Y-97210363D01*
X144115363Y-97410241D01*
X143958320Y-97645273D01*
X143850147Y-97906426D01*
X143795000Y-98183665D01*
X143795000Y-98466335D01*
X143850147Y-98743574D01*
X143958320Y-99004727D01*
X144115363Y-99239759D01*
X144315241Y-99439637D01*
X144550273Y-99596680D01*
X144811426Y-99704853D01*
X144837301Y-99710000D01*
X144811426Y-99715147D01*
X144550273Y-99823320D01*
X144315241Y-99980363D01*
X144115363Y-100180241D01*
X143958320Y-100415273D01*
X143850147Y-100676426D01*
X143795000Y-100953665D01*
X143795000Y-101236335D01*
X143850147Y-101513574D01*
X143958320Y-101774727D01*
X144115363Y-102009759D01*
X144315241Y-102209637D01*
X144550273Y-102366680D01*
X144811426Y-102474853D01*
X144837301Y-102480000D01*
X144811426Y-102485147D01*
X144550273Y-102593320D01*
X144315241Y-102750363D01*
X144115363Y-102950241D01*
X143958320Y-103185273D01*
X143850147Y-103446426D01*
X143795000Y-103723665D01*
X143795000Y-104006335D01*
X143850147Y-104283574D01*
X143958320Y-104544727D01*
X144115363Y-104779759D01*
X144315241Y-104979637D01*
X144550273Y-105136680D01*
X144811426Y-105244853D01*
X144837301Y-105250000D01*
X144811426Y-105255147D01*
X144550273Y-105363320D01*
X144315241Y-105520363D01*
X144115363Y-105720241D01*
X143958320Y-105955273D01*
X143850147Y-106216426D01*
X143795000Y-106493665D01*
X143795000Y-106776335D01*
X143850147Y-107053574D01*
X143958320Y-107314727D01*
X144115363Y-107549759D01*
X144315241Y-107749637D01*
X144550273Y-107906680D01*
X144811426Y-108014853D01*
X144839882Y-108020513D01*
X144613708Y-108101397D01*
X144488486Y-108168329D01*
X144416903Y-108412298D01*
X145230000Y-109225395D01*
X146043097Y-108412298D01*
X145971514Y-108168329D01*
X145716004Y-108047429D01*
X145613711Y-108021788D01*
X145648574Y-108014853D01*
X145909727Y-107906680D01*
X146144759Y-107749637D01*
X146344637Y-107549759D01*
X146501680Y-107314727D01*
X146609853Y-107053574D01*
X146665000Y-106776335D01*
X146665000Y-106493665D01*
X146609853Y-106216426D01*
X146501680Y-105955273D01*
X146344637Y-105720241D01*
X146144759Y-105520363D01*
X145909727Y-105363320D01*
X145648574Y-105255147D01*
X145622699Y-105250000D01*
X145648574Y-105244853D01*
X145909727Y-105136680D01*
X146144759Y-104979637D01*
X146344637Y-104779759D01*
X146501680Y-104544727D01*
X146609853Y-104283574D01*
X146665000Y-104006335D01*
X146665000Y-103723665D01*
X146609853Y-103446426D01*
X146501680Y-103185273D01*
X146344637Y-102950241D01*
X146144759Y-102750363D01*
X145909727Y-102593320D01*
X145648574Y-102485147D01*
X145622699Y-102480000D01*
X145648574Y-102474853D01*
X145909727Y-102366680D01*
X146144759Y-102209637D01*
X146344637Y-102009759D01*
X146501680Y-101774727D01*
X146609853Y-101513574D01*
X146665000Y-101236335D01*
X146665000Y-100953665D01*
X146609853Y-100676426D01*
X146501680Y-100415273D01*
X146344637Y-100180241D01*
X146144759Y-99980363D01*
X145909727Y-99823320D01*
X145648574Y-99715147D01*
X145622699Y-99710000D01*
X145648574Y-99704853D01*
X145909727Y-99596680D01*
X146144759Y-99439637D01*
X146344637Y-99239759D01*
X146501680Y-99004727D01*
X146609853Y-98743574D01*
X146665000Y-98466335D01*
X146665000Y-98183665D01*
X146609853Y-97906426D01*
X146501680Y-97645273D01*
X146344637Y-97410241D01*
X146144759Y-97210363D01*
X145909727Y-97053320D01*
X145648574Y-96945147D01*
X145622699Y-96940000D01*
X145648574Y-96934853D01*
X145909727Y-96826680D01*
X146144759Y-96669637D01*
X146344637Y-96469759D01*
X146501680Y-96234727D01*
X146609853Y-95973574D01*
X146665000Y-95696335D01*
X146665000Y-95413665D01*
X146609853Y-95136426D01*
X146501680Y-94875273D01*
X146344637Y-94640241D01*
X146144759Y-94440363D01*
X145909727Y-94283320D01*
X145648574Y-94175147D01*
X145622699Y-94170000D01*
X145648574Y-94164853D01*
X145909727Y-94056680D01*
X146144759Y-93899637D01*
X146344637Y-93699759D01*
X146501680Y-93464727D01*
X146609853Y-93203574D01*
X146665000Y-92926335D01*
X146665000Y-92643665D01*
X146609853Y-92366426D01*
X146501680Y-92105273D01*
X146344637Y-91870241D01*
X146144759Y-91670363D01*
X145909727Y-91513320D01*
X145648574Y-91405147D01*
X145622699Y-91400000D01*
X145648574Y-91394853D01*
X145909727Y-91286680D01*
X146144759Y-91129637D01*
X146344637Y-90929759D01*
X146501680Y-90694727D01*
X146609853Y-90433574D01*
X146665000Y-90156335D01*
X146665000Y-89873665D01*
X146609853Y-89596426D01*
X146501680Y-89335273D01*
X146344637Y-89100241D01*
X146144759Y-88900363D01*
X145909727Y-88743320D01*
X145648574Y-88635147D01*
X145622699Y-88630000D01*
X145648574Y-88624853D01*
X145909727Y-88516680D01*
X146144759Y-88359637D01*
X146344637Y-88159759D01*
X146501680Y-87924727D01*
X146609853Y-87663574D01*
X146665000Y-87386335D01*
X146665000Y-87103665D01*
X146609853Y-86826426D01*
X146501680Y-86565273D01*
X146344637Y-86330241D01*
X146144759Y-86130363D01*
X145909727Y-85973320D01*
X145648574Y-85865147D01*
X145622699Y-85860000D01*
X145648574Y-85854853D01*
X145909727Y-85746680D01*
X146144759Y-85589637D01*
X146344637Y-85389759D01*
X146501680Y-85154727D01*
X146609853Y-84893574D01*
X146665000Y-84616335D01*
X146665000Y-84333665D01*
X146609853Y-84056426D01*
X146501680Y-83795273D01*
X146344637Y-83560241D01*
X146144759Y-83360363D01*
X145909727Y-83203320D01*
X145648574Y-83095147D01*
X145622699Y-83090000D01*
X145648574Y-83084853D01*
X145909727Y-82976680D01*
X146144759Y-82819637D01*
X146344637Y-82619759D01*
X146501680Y-82384727D01*
X146609853Y-82123574D01*
X146665000Y-81846335D01*
X146665000Y-81563665D01*
X146609853Y-81286426D01*
X146501680Y-81025273D01*
X146344637Y-80790241D01*
X146144759Y-80590363D01*
X145909727Y-80433320D01*
X145648574Y-80325147D01*
X145620118Y-80319487D01*
X145846292Y-80238603D01*
X145971514Y-80171671D01*
X146043097Y-79927702D01*
X145230000Y-79114605D01*
X144416903Y-79927702D01*
X144488486Y-80171671D01*
X144743996Y-80292571D01*
X144846289Y-80318212D01*
X144811426Y-80325147D01*
X144550273Y-80433320D01*
X144315241Y-80590363D01*
X144115363Y-80790241D01*
X143958320Y-81025273D01*
X143850147Y-81286426D01*
X143795000Y-81563665D01*
X143111654Y-81563665D01*
X143304759Y-81434637D01*
X143504637Y-81234759D01*
X143661680Y-80999727D01*
X143769853Y-80738574D01*
X143825000Y-80461335D01*
X143825000Y-80178665D01*
X143769853Y-79901426D01*
X143661680Y-79640273D01*
X143504637Y-79405241D01*
X143304759Y-79205363D01*
X143069727Y-79048320D01*
X142966380Y-79005512D01*
X143789783Y-79005512D01*
X143831213Y-79285130D01*
X143926397Y-79551292D01*
X143993329Y-79676514D01*
X144237298Y-79748097D01*
X145050395Y-78935000D01*
X145409605Y-78935000D01*
X146222702Y-79748097D01*
X146466671Y-79676514D01*
X146587571Y-79421004D01*
X146656300Y-79146816D01*
X146670217Y-78864488D01*
X146628787Y-78584870D01*
X146533603Y-78318708D01*
X146466671Y-78193486D01*
X146222702Y-78121903D01*
X145409605Y-78935000D01*
X145050395Y-78935000D01*
X144237298Y-78121903D01*
X143993329Y-78193486D01*
X143872429Y-78448996D01*
X143803700Y-78723184D01*
X143789783Y-79005512D01*
X142966380Y-79005512D01*
X142924275Y-78988072D01*
X143190000Y-78988072D01*
X143314482Y-78975812D01*
X143434180Y-78939502D01*
X143544494Y-78880537D01*
X143641185Y-78801185D01*
X143720537Y-78704494D01*
X143779502Y-78594180D01*
X143815812Y-78474482D01*
X143828072Y-78350000D01*
X143828072Y-77942298D01*
X144416903Y-77942298D01*
X145230000Y-78755395D01*
X146043097Y-77942298D01*
X145971514Y-77698329D01*
X145716004Y-77577429D01*
X145441816Y-77508700D01*
X145159488Y-77494783D01*
X144879870Y-77536213D01*
X144613708Y-77631397D01*
X144488486Y-77698329D01*
X144416903Y-77942298D01*
X143828072Y-77942298D01*
X143828072Y-76750000D01*
X143815812Y-76625518D01*
X143779502Y-76505820D01*
X143720537Y-76395506D01*
X143641185Y-76298815D01*
X143544494Y-76219463D01*
X143434180Y-76160498D01*
X143314482Y-76124188D01*
X143190000Y-76111928D01*
X141590000Y-76111928D01*
X141465518Y-76124188D01*
X141345820Y-76160498D01*
X141235506Y-76219463D01*
X141138815Y-76298815D01*
X141059463Y-76395506D01*
X141000498Y-76505820D01*
X140964188Y-76625518D01*
X140951928Y-76750000D01*
X116637144Y-76750000D01*
X116550262Y-76619972D01*
X116420028Y-76489738D01*
X116266889Y-76387414D01*
X116096729Y-76316932D01*
X115916089Y-76281000D01*
X115731911Y-76281000D01*
X115551271Y-76316932D01*
X115381111Y-76387414D01*
X115227972Y-76489738D01*
X115097738Y-76619972D01*
X114995414Y-76773111D01*
X114924932Y-76943271D01*
X114889000Y-77123911D01*
X107420000Y-77123911D01*
X107420000Y-72297911D01*
X109555000Y-72297911D01*
X109555000Y-72482089D01*
X109590932Y-72662729D01*
X109661414Y-72832889D01*
X109704920Y-72898000D01*
X109661414Y-72963111D01*
X109590932Y-73133271D01*
X109555000Y-73313911D01*
X109555000Y-73498089D01*
X109590932Y-73678729D01*
X109661414Y-73848889D01*
X109704920Y-73914000D01*
X109661414Y-73979111D01*
X109590932Y-74149271D01*
X109555000Y-74329911D01*
X109555000Y-74514089D01*
X109590932Y-74694729D01*
X109661414Y-74864889D01*
X109704920Y-74930000D01*
X109661414Y-74995111D01*
X109590932Y-75165271D01*
X109555000Y-75345911D01*
X109555000Y-75530089D01*
X109590932Y-75710729D01*
X109661414Y-75880889D01*
X109763738Y-76034028D01*
X109893972Y-76164262D01*
X110047111Y-76266586D01*
X110217271Y-76337068D01*
X110397911Y-76373000D01*
X110582089Y-76373000D01*
X110762729Y-76337068D01*
X110932889Y-76266586D01*
X110998000Y-76223080D01*
X111063111Y-76266586D01*
X111233271Y-76337068D01*
X111413911Y-76373000D01*
X111598089Y-76373000D01*
X111778729Y-76337068D01*
X111948889Y-76266586D01*
X112102028Y-76164262D01*
X112232262Y-76034028D01*
X112334586Y-75880889D01*
X112405068Y-75710729D01*
X112441000Y-75530089D01*
X112441000Y-75345911D01*
X112405068Y-75165271D01*
X112334586Y-74995111D01*
X112291080Y-74930000D01*
X112334586Y-74864889D01*
X112405068Y-74694729D01*
X112441000Y-74514089D01*
X112441000Y-74329911D01*
X112405068Y-74149271D01*
X112334586Y-73979111D01*
X112291080Y-73914000D01*
X112334586Y-73848889D01*
X112405068Y-73678729D01*
X112441000Y-73498089D01*
X112441000Y-73313911D01*
X112405068Y-73133271D01*
X112334586Y-72963111D01*
X112291080Y-72898000D01*
X112334586Y-72832889D01*
X112405068Y-72662729D01*
X112441000Y-72482089D01*
X112441000Y-72297911D01*
X119715000Y-72297911D01*
X119715000Y-72482089D01*
X119750932Y-72662729D01*
X119821414Y-72832889D01*
X119864920Y-72898000D01*
X119821414Y-72963111D01*
X119750932Y-73133271D01*
X119715000Y-73313911D01*
X119715000Y-73498089D01*
X119750932Y-73678729D01*
X119821414Y-73848889D01*
X119864920Y-73914000D01*
X119821414Y-73979111D01*
X119750932Y-74149271D01*
X119715000Y-74329911D01*
X119715000Y-74514089D01*
X119750932Y-74694729D01*
X119821414Y-74864889D01*
X119864920Y-74930000D01*
X119821414Y-74995111D01*
X119750932Y-75165271D01*
X119715000Y-75345911D01*
X119715000Y-75530089D01*
X119750932Y-75710729D01*
X119821414Y-75880889D01*
X119923738Y-76034028D01*
X120053972Y-76164262D01*
X120207111Y-76266586D01*
X120377271Y-76337068D01*
X120557911Y-76373000D01*
X120742089Y-76373000D01*
X120922729Y-76337068D01*
X121092889Y-76266586D01*
X121158000Y-76223080D01*
X121223111Y-76266586D01*
X121393271Y-76337068D01*
X121573911Y-76373000D01*
X121758089Y-76373000D01*
X121938729Y-76337068D01*
X122108889Y-76266586D01*
X122262028Y-76164262D01*
X122392262Y-76034028D01*
X122494586Y-75880889D01*
X122565068Y-75710729D01*
X122601000Y-75530089D01*
X122601000Y-75345911D01*
X122565068Y-75165271D01*
X122494586Y-74995111D01*
X122451080Y-74930000D01*
X122494586Y-74864889D01*
X122565068Y-74694729D01*
X122601000Y-74514089D01*
X122601000Y-74329911D01*
X122565068Y-74149271D01*
X122494586Y-73979111D01*
X122451080Y-73914000D01*
X122494586Y-73848889D01*
X122565068Y-73678729D01*
X122601000Y-73498089D01*
X122601000Y-73313911D01*
X122565068Y-73133271D01*
X122494586Y-72963111D01*
X122451080Y-72898000D01*
X122494586Y-72832889D01*
X122565068Y-72662729D01*
X122601000Y-72482089D01*
X122601000Y-72297911D01*
X122565068Y-72117271D01*
X122494586Y-71947111D01*
X122392262Y-71793972D01*
X122262028Y-71663738D01*
X122108889Y-71561414D01*
X121938729Y-71490932D01*
X121758089Y-71455000D01*
X121573911Y-71455000D01*
X121393271Y-71490932D01*
X121223111Y-71561414D01*
X121158000Y-71604920D01*
X121092889Y-71561414D01*
X120922729Y-71490932D01*
X120742089Y-71455000D01*
X120557911Y-71455000D01*
X120377271Y-71490932D01*
X120207111Y-71561414D01*
X120053972Y-71663738D01*
X119923738Y-71793972D01*
X119821414Y-71947111D01*
X119750932Y-72117271D01*
X119715000Y-72297911D01*
X112441000Y-72297911D01*
X112405068Y-72117271D01*
X112334586Y-71947111D01*
X112232262Y-71793972D01*
X112102028Y-71663738D01*
X111948889Y-71561414D01*
X111778729Y-71490932D01*
X111598089Y-71455000D01*
X111413911Y-71455000D01*
X111233271Y-71490932D01*
X111063111Y-71561414D01*
X110998000Y-71604920D01*
X110932889Y-71561414D01*
X110762729Y-71490932D01*
X110582089Y-71455000D01*
X110397911Y-71455000D01*
X110217271Y-71490932D01*
X110047111Y-71561414D01*
X109893972Y-71663738D01*
X109763738Y-71793972D01*
X109661414Y-71947111D01*
X109590932Y-72117271D01*
X109555000Y-72297911D01*
X107420000Y-72297911D01*
X107420000Y-69529917D01*
X115117000Y-69529917D01*
X115117000Y-69714095D01*
X115152932Y-69894735D01*
X115223414Y-70064895D01*
X115325738Y-70218034D01*
X115455972Y-70348268D01*
X115609111Y-70450592D01*
X115779271Y-70521074D01*
X115959911Y-70557006D01*
X116144089Y-70557006D01*
X116324729Y-70521074D01*
X116494889Y-70450592D01*
X116629758Y-70360475D01*
X141175000Y-70360475D01*
X141175000Y-70879525D01*
X141276261Y-71388601D01*
X141474893Y-71868141D01*
X141763262Y-72299715D01*
X142130285Y-72666738D01*
X142561859Y-72955107D01*
X143041399Y-73153739D01*
X143550475Y-73255000D01*
X144069525Y-73255000D01*
X144578601Y-73153739D01*
X145058141Y-72955107D01*
X145489715Y-72666738D01*
X145856738Y-72299715D01*
X146145107Y-71868141D01*
X146343739Y-71388601D01*
X146445000Y-70879525D01*
X146445000Y-70360475D01*
X146343739Y-69851399D01*
X146145107Y-69371859D01*
X145856738Y-68940285D01*
X145489715Y-68573262D01*
X145058141Y-68284893D01*
X144578601Y-68086261D01*
X144069525Y-67985000D01*
X143550475Y-67985000D01*
X143041399Y-68086261D01*
X142561859Y-68284893D01*
X142130285Y-68573262D01*
X141763262Y-68940285D01*
X141474893Y-69371859D01*
X141276261Y-69851399D01*
X141175000Y-70360475D01*
X116629758Y-70360475D01*
X116648028Y-70348268D01*
X116778262Y-70218034D01*
X116880586Y-70064895D01*
X116951068Y-69894735D01*
X116987000Y-69714095D01*
X116987000Y-69529917D01*
X116951068Y-69349277D01*
X116880586Y-69179117D01*
X116778262Y-69025978D01*
X116648028Y-68895744D01*
X116494889Y-68793420D01*
X116324729Y-68722938D01*
X116144089Y-68687006D01*
X115959911Y-68687006D01*
X115779271Y-68722938D01*
X115609111Y-68793420D01*
X115455972Y-68895744D01*
X115325738Y-69025978D01*
X115223414Y-69179117D01*
X115152932Y-69349277D01*
X115117000Y-69529917D01*
X107420000Y-69529917D01*
X107420000Y-64365872D01*
X107482368Y-64516442D01*
X108010624Y-65307033D01*
X108682967Y-65979376D01*
X109473558Y-66507632D01*
X110352016Y-66871501D01*
X111284582Y-67057000D01*
X112235418Y-67057000D01*
X113167984Y-66871501D01*
X114046442Y-66507632D01*
X114837033Y-65979376D01*
X115509376Y-65307033D01*
X116037632Y-64516442D01*
X116401501Y-63637984D01*
X116587000Y-62705418D01*
X116587000Y-61754582D01*
X116401501Y-60822016D01*
X116037632Y-59943558D01*
X115509376Y-59152967D01*
X114837033Y-58480624D01*
X114046442Y-57952368D01*
X113895872Y-57890000D01*
X145624128Y-57890000D01*
X145473558Y-57952368D01*
%TA.AperFunction,Conductor*%
D22*
G36*
X145473558Y-57952368D02*
G01*
X144682967Y-58480624D01*
X144010624Y-59152967D01*
X143482368Y-59943558D01*
X143118499Y-60822016D01*
X142933000Y-61754582D01*
X142933000Y-62705418D01*
X143118499Y-63637984D01*
X143482368Y-64516442D01*
X144010624Y-65307033D01*
X144682967Y-65979376D01*
X145473558Y-66507632D01*
X146352016Y-66871501D01*
X147284582Y-67057000D01*
X148235418Y-67057000D01*
X149167984Y-66871501D01*
X150046442Y-66507632D01*
X150837033Y-65979376D01*
X151509376Y-65307033D01*
X152037632Y-64516442D01*
X152100001Y-64365870D01*
X152100000Y-124094128D01*
X152037632Y-123943558D01*
X151509376Y-123152967D01*
X150837033Y-122480624D01*
X150046442Y-121952368D01*
X149167984Y-121588499D01*
X148235418Y-121403000D01*
X147284582Y-121403000D01*
X146352016Y-121588499D01*
X145473558Y-121952368D01*
X144682967Y-122480624D01*
X144010624Y-123152967D01*
X143482368Y-123943558D01*
X143118499Y-124822016D01*
X142933000Y-125754582D01*
X142933000Y-126705418D01*
X143118499Y-127637984D01*
X143482368Y-128516442D01*
X144010624Y-129307033D01*
X144682967Y-129979376D01*
X145473558Y-130507632D01*
X145624128Y-130570000D01*
X113895872Y-130570000D01*
X114046442Y-130507632D01*
X114837033Y-129979376D01*
X115509376Y-129307033D01*
X116037632Y-128516442D01*
X116283066Y-127923911D01*
X123525000Y-127923911D01*
X123525000Y-128108089D01*
X123560932Y-128288729D01*
X123631414Y-128458889D01*
X123733738Y-128612028D01*
X123863972Y-128742262D01*
X124017111Y-128844586D01*
X124187271Y-128915068D01*
X124367911Y-128951000D01*
X124552089Y-128951000D01*
X124732729Y-128915068D01*
X124902889Y-128844586D01*
X125056028Y-128742262D01*
X125186262Y-128612028D01*
X125288586Y-128458889D01*
X125359068Y-128288729D01*
X125395000Y-128108089D01*
X125395000Y-127923911D01*
X134701000Y-127923911D01*
X134701000Y-128108089D01*
X134736932Y-128288729D01*
X134807414Y-128458889D01*
X134909738Y-128612028D01*
X135039972Y-128742262D01*
X135193111Y-128844586D01*
X135363271Y-128915068D01*
X135543911Y-128951000D01*
X135728089Y-128951000D01*
X135908729Y-128915068D01*
X136078889Y-128844586D01*
X136232028Y-128742262D01*
X136362262Y-128612028D01*
X136464586Y-128458889D01*
X136535068Y-128288729D01*
X136571000Y-128108089D01*
X136571000Y-127923911D01*
X136535068Y-127743271D01*
X136464586Y-127573111D01*
X136362262Y-127419972D01*
X136232028Y-127289738D01*
X136078889Y-127187414D01*
X135908729Y-127116932D01*
X135728089Y-127081000D01*
X135543911Y-127081000D01*
X135363271Y-127116932D01*
X135193111Y-127187414D01*
X135039972Y-127289738D01*
X134909738Y-127419972D01*
X134807414Y-127573111D01*
X134736932Y-127743271D01*
X134701000Y-127923911D01*
X125395000Y-127923911D01*
X125359068Y-127743271D01*
X125288586Y-127573111D01*
X125186262Y-127419972D01*
X125056028Y-127289738D01*
X124902889Y-127187414D01*
X124732729Y-127116932D01*
X124552089Y-127081000D01*
X124367911Y-127081000D01*
X124187271Y-127116932D01*
X124017111Y-127187414D01*
X123863972Y-127289738D01*
X123733738Y-127419972D01*
X123631414Y-127573111D01*
X123560932Y-127743271D01*
X123525000Y-127923911D01*
X116283066Y-127923911D01*
X116401501Y-127637984D01*
X116587000Y-126705418D01*
X116587000Y-125754582D01*
X116401501Y-124822016D01*
X116037632Y-123943558D01*
X115509376Y-123152967D01*
X114837033Y-122480624D01*
X114240317Y-122081911D01*
X126065000Y-122081911D01*
X126065000Y-122266089D01*
X126100932Y-122446729D01*
X126171414Y-122616889D01*
X126273738Y-122770028D01*
X126403972Y-122900262D01*
X126557111Y-123002586D01*
X126727271Y-123073068D01*
X126907911Y-123109000D01*
X127092089Y-123109000D01*
X127272729Y-123073068D01*
X127442889Y-123002586D01*
X127596028Y-122900262D01*
X127726262Y-122770028D01*
X127828586Y-122616889D01*
X127899068Y-122446729D01*
X127935000Y-122266089D01*
X127935000Y-122081911D01*
X129113000Y-122081911D01*
X129113000Y-122266089D01*
X129148932Y-122446729D01*
X129219414Y-122616889D01*
X129321738Y-122770028D01*
X129451972Y-122900262D01*
X129605111Y-123002586D01*
X129775271Y-123073068D01*
X129955911Y-123109000D01*
X130140089Y-123109000D01*
X130320729Y-123073068D01*
X130490889Y-123002586D01*
X130644028Y-122900262D01*
X130774262Y-122770028D01*
X130876586Y-122616889D01*
X130947068Y-122446729D01*
X130983000Y-122266089D01*
X130983000Y-122081911D01*
X132161000Y-122081911D01*
X132161000Y-122266089D01*
X132196932Y-122446729D01*
X132267414Y-122616889D01*
X132369738Y-122770028D01*
X132499972Y-122900262D01*
X132653111Y-123002586D01*
X132823271Y-123073068D01*
X133003911Y-123109000D01*
X133188089Y-123109000D01*
X133368729Y-123073068D01*
X133538889Y-123002586D01*
X133692028Y-122900262D01*
X133822262Y-122770028D01*
X133924586Y-122616889D01*
X133995068Y-122446729D01*
X134031000Y-122266089D01*
X134031000Y-122081911D01*
X133995068Y-121901271D01*
X133924586Y-121731111D01*
X133822262Y-121577972D01*
X133692028Y-121447738D01*
X133538889Y-121345414D01*
X133368729Y-121274932D01*
X133188089Y-121239000D01*
X133003911Y-121239000D01*
X132823271Y-121274932D01*
X132653111Y-121345414D01*
X132499972Y-121447738D01*
X132369738Y-121577972D01*
X132267414Y-121731111D01*
X132196932Y-121901271D01*
X132161000Y-122081911D01*
X130983000Y-122081911D01*
X130947068Y-121901271D01*
X130876586Y-121731111D01*
X130774262Y-121577972D01*
X130644028Y-121447738D01*
X130490889Y-121345414D01*
X130320729Y-121274932D01*
X130140089Y-121239000D01*
X129955911Y-121239000D01*
X129775271Y-121274932D01*
X129605111Y-121345414D01*
X129451972Y-121447738D01*
X129321738Y-121577972D01*
X129219414Y-121731111D01*
X129148932Y-121901271D01*
X129113000Y-122081911D01*
X127935000Y-122081911D01*
X127899068Y-121901271D01*
X127828586Y-121731111D01*
X127726262Y-121577972D01*
X127596028Y-121447738D01*
X127442889Y-121345414D01*
X127272729Y-121274932D01*
X127092089Y-121239000D01*
X126907911Y-121239000D01*
X126727271Y-121274932D01*
X126557111Y-121345414D01*
X126403972Y-121447738D01*
X126273738Y-121577972D01*
X126171414Y-121731111D01*
X126100932Y-121901271D01*
X126065000Y-122081911D01*
X114240317Y-122081911D01*
X114046442Y-121952368D01*
X113167984Y-121588499D01*
X112235418Y-121403000D01*
X111284582Y-121403000D01*
X110352016Y-121588499D01*
X109473558Y-121952368D01*
X108682967Y-122480624D01*
X108010624Y-123152967D01*
X107482368Y-123943558D01*
X107420000Y-124094128D01*
X107420000Y-117460475D01*
X141175000Y-117460475D01*
X141175000Y-117979525D01*
X141276261Y-118488601D01*
X141474893Y-118968141D01*
X141763262Y-119399715D01*
X142130285Y-119766738D01*
X142561859Y-120055107D01*
X143041399Y-120253739D01*
X143550475Y-120355000D01*
X144069525Y-120355000D01*
X144578601Y-120253739D01*
X145058141Y-120055107D01*
X145489715Y-119766738D01*
X145856738Y-119399715D01*
X146145107Y-118968141D01*
X146343739Y-118488601D01*
X146445000Y-117979525D01*
X146445000Y-117460475D01*
X146343739Y-116951399D01*
X146145107Y-116471859D01*
X145856738Y-116040285D01*
X145489715Y-115673262D01*
X145058141Y-115384893D01*
X144578601Y-115186261D01*
X144069525Y-115085000D01*
X143550475Y-115085000D01*
X143041399Y-115186261D01*
X142561859Y-115384893D01*
X142130285Y-115673262D01*
X141763262Y-116040285D01*
X141474893Y-116471859D01*
X141276261Y-116951399D01*
X141175000Y-117460475D01*
X107420000Y-117460475D01*
X107420000Y-113953911D01*
X118191000Y-113953911D01*
X118191000Y-114138089D01*
X118226932Y-114318729D01*
X118297414Y-114488889D01*
X118399738Y-114642028D01*
X118529972Y-114772262D01*
X118683111Y-114874586D01*
X118853271Y-114945068D01*
X119033911Y-114981000D01*
X119218089Y-114981000D01*
X119398729Y-114945068D01*
X119568889Y-114874586D01*
X119722028Y-114772262D01*
X119852262Y-114642028D01*
X119954586Y-114488889D01*
X119965760Y-114461911D01*
X125303000Y-114461911D01*
X125303000Y-114646089D01*
X125338932Y-114826729D01*
X125409414Y-114996889D01*
X125511738Y-115150028D01*
X125641972Y-115280262D01*
X125795111Y-115382586D01*
X125965271Y-115453068D01*
X126145911Y-115489000D01*
X126330089Y-115489000D01*
X126510729Y-115453068D01*
X126680889Y-115382586D01*
X126834028Y-115280262D01*
X126964262Y-115150028D01*
X127066586Y-114996889D01*
X127137068Y-114826729D01*
X127173000Y-114646089D01*
X127173000Y-114461911D01*
X127137068Y-114281271D01*
X127066586Y-114111111D01*
X126964262Y-113957972D01*
X126834028Y-113827738D01*
X126680889Y-113725414D01*
X126510729Y-113654932D01*
X126330089Y-113619000D01*
X126145911Y-113619000D01*
X125965271Y-113654932D01*
X125795111Y-113725414D01*
X125641972Y-113827738D01*
X125511738Y-113957972D01*
X125409414Y-114111111D01*
X125338932Y-114281271D01*
X125303000Y-114461911D01*
X119965760Y-114461911D01*
X120025068Y-114318729D01*
X120061000Y-114138089D01*
X120061000Y-113953911D01*
X120025068Y-113773271D01*
X119954586Y-113603111D01*
X119852262Y-113449972D01*
X119848201Y-113445911D01*
X129113000Y-113445911D01*
X129113000Y-113630089D01*
X129148932Y-113810729D01*
X129219414Y-113980889D01*
X129321738Y-114134028D01*
X129451972Y-114264262D01*
X129605111Y-114366586D01*
X129775271Y-114437068D01*
X129955911Y-114473000D01*
X130140089Y-114473000D01*
X130320729Y-114437068D01*
X130490889Y-114366586D01*
X130644028Y-114264262D01*
X130774262Y-114134028D01*
X130876586Y-113980889D01*
X130937000Y-113835036D01*
X130997414Y-113980889D01*
X131099738Y-114134028D01*
X131229972Y-114264262D01*
X131383111Y-114366586D01*
X131553271Y-114437068D01*
X131733911Y-114473000D01*
X131918089Y-114473000D01*
X132098729Y-114437068D01*
X132268889Y-114366586D01*
X132422028Y-114264262D01*
X132552262Y-114134028D01*
X132654586Y-113980889D01*
X132725068Y-113810729D01*
X132761000Y-113630089D01*
X132761000Y-113445911D01*
X132725068Y-113265271D01*
X132654586Y-113095111D01*
X132552262Y-112941972D01*
X132422028Y-112811738D01*
X132268889Y-112709414D01*
X132098729Y-112638932D01*
X131918089Y-112603000D01*
X131733911Y-112603000D01*
X131553271Y-112638932D01*
X131383111Y-112709414D01*
X131229972Y-112811738D01*
X131099738Y-112941972D01*
X130997414Y-113095111D01*
X130937000Y-113240964D01*
X130876586Y-113095111D01*
X130774262Y-112941972D01*
X130644028Y-112811738D01*
X130490889Y-112709414D01*
X130320729Y-112638932D01*
X130140089Y-112603000D01*
X129955911Y-112603000D01*
X129775271Y-112638932D01*
X129605111Y-112709414D01*
X129451972Y-112811738D01*
X129321738Y-112941972D01*
X129219414Y-113095111D01*
X129148932Y-113265271D01*
X129113000Y-113445911D01*
X119848201Y-113445911D01*
X119722028Y-113319738D01*
X119568889Y-113217414D01*
X119398729Y-113146932D01*
X119218089Y-113111000D01*
X119033911Y-113111000D01*
X118853271Y-113146932D01*
X118683111Y-113217414D01*
X118529972Y-113319738D01*
X118399738Y-113449972D01*
X118297414Y-113603111D01*
X118226932Y-113773271D01*
X118191000Y-113953911D01*
X107420000Y-113953911D01*
X107420000Y-111413911D01*
X115397000Y-111413911D01*
X115397000Y-111598089D01*
X115432932Y-111778729D01*
X115503414Y-111948889D01*
X115605738Y-112102028D01*
X115735972Y-112232262D01*
X115889111Y-112334586D01*
X116059271Y-112405068D01*
X116239911Y-112441000D01*
X116424089Y-112441000D01*
X116604729Y-112405068D01*
X116774889Y-112334586D01*
X116928028Y-112232262D01*
X117058262Y-112102028D01*
X117160586Y-111948889D01*
X117231068Y-111778729D01*
X117267000Y-111598089D01*
X117267000Y-111413911D01*
X117231068Y-111233271D01*
X117160586Y-111063111D01*
X117058262Y-110909972D01*
X116928028Y-110779738D01*
X116774889Y-110677414D01*
X116604729Y-110606932D01*
X116424089Y-110571000D01*
X116239911Y-110571000D01*
X116059271Y-110606932D01*
X115889111Y-110677414D01*
X115735972Y-110779738D01*
X115605738Y-110909972D01*
X115503414Y-111063111D01*
X115432932Y-111233271D01*
X115397000Y-111413911D01*
X107420000Y-111413911D01*
X107420000Y-108111911D01*
X113111000Y-108111911D01*
X113111000Y-108296089D01*
X113146932Y-108476729D01*
X113217414Y-108646889D01*
X113319738Y-108800028D01*
X113449972Y-108930262D01*
X113603111Y-109032586D01*
X113773271Y-109103068D01*
X113953911Y-109139000D01*
X114138089Y-109139000D01*
X114318729Y-109103068D01*
X114488889Y-109032586D01*
X114642028Y-108930262D01*
X114772262Y-108800028D01*
X114874586Y-108646889D01*
X114945068Y-108476729D01*
X114981000Y-108296089D01*
X114981000Y-108111911D01*
X114945068Y-107931271D01*
X114874586Y-107761111D01*
X114772262Y-107607972D01*
X114768201Y-107603911D01*
X125811000Y-107603911D01*
X125811000Y-107788089D01*
X125846932Y-107968729D01*
X125917414Y-108138889D01*
X126019738Y-108292028D01*
X126149972Y-108422262D01*
X126303111Y-108524586D01*
X126473271Y-108595068D01*
X126653911Y-108631000D01*
X126838089Y-108631000D01*
X127018729Y-108595068D01*
X127188889Y-108524586D01*
X127342028Y-108422262D01*
X127472262Y-108292028D01*
X127574586Y-108138889D01*
X127645068Y-107968729D01*
X127681000Y-107788089D01*
X127681000Y-107603911D01*
X127645068Y-107423271D01*
X127574586Y-107253111D01*
X127472262Y-107099972D01*
X127342028Y-106969738D01*
X127188889Y-106867414D01*
X127018729Y-106796932D01*
X126838089Y-106761000D01*
X126653911Y-106761000D01*
X126473271Y-106796932D01*
X126303111Y-106867414D01*
X126149972Y-106969738D01*
X126019738Y-107099972D01*
X125917414Y-107253111D01*
X125846932Y-107423271D01*
X125811000Y-107603911D01*
X114768201Y-107603911D01*
X114642028Y-107477738D01*
X114488889Y-107375414D01*
X114318729Y-107304932D01*
X114138089Y-107269000D01*
X113953911Y-107269000D01*
X113773271Y-107304932D01*
X113603111Y-107375414D01*
X113449972Y-107477738D01*
X113319738Y-107607972D01*
X113217414Y-107761111D01*
X113146932Y-107931271D01*
X113111000Y-108111911D01*
X107420000Y-108111911D01*
X107420000Y-106333911D01*
X119969000Y-106333911D01*
X119969000Y-106518089D01*
X120004932Y-106698729D01*
X120075414Y-106868889D01*
X120177738Y-107022028D01*
X120307972Y-107152262D01*
X120461111Y-107254586D01*
X120631271Y-107325068D01*
X120811911Y-107361000D01*
X120996089Y-107361000D01*
X121176729Y-107325068D01*
X121346889Y-107254586D01*
X121500028Y-107152262D01*
X121630262Y-107022028D01*
X121732586Y-106868889D01*
X121803068Y-106698729D01*
X121839000Y-106518089D01*
X121839000Y-106333911D01*
X121803068Y-106153271D01*
X121732586Y-105983111D01*
X121630262Y-105829972D01*
X121500028Y-105699738D01*
X121346889Y-105597414D01*
X121176729Y-105526932D01*
X120996089Y-105491000D01*
X120811911Y-105491000D01*
X120631271Y-105526932D01*
X120461111Y-105597414D01*
X120307972Y-105699738D01*
X120177738Y-105829972D01*
X120075414Y-105983111D01*
X120004932Y-106153271D01*
X119969000Y-106333911D01*
X107420000Y-106333911D01*
X107420000Y-104047901D01*
X115905000Y-104047901D01*
X115905000Y-104232079D01*
X115940932Y-104412719D01*
X116011414Y-104582879D01*
X116113738Y-104736018D01*
X116243972Y-104866252D01*
X116397111Y-104968576D01*
X116567271Y-105039058D01*
X116747911Y-105074990D01*
X116932089Y-105074990D01*
X117112729Y-105039058D01*
X117282889Y-104968576D01*
X117436028Y-104866252D01*
X117566262Y-104736018D01*
X117668586Y-104582879D01*
X117739068Y-104412719D01*
X117775000Y-104232079D01*
X117775000Y-104047901D01*
X117739068Y-103867261D01*
X117668586Y-103697101D01*
X117566262Y-103543962D01*
X117562211Y-103539911D01*
X119715000Y-103539911D01*
X119715000Y-103724089D01*
X119750932Y-103904729D01*
X119821414Y-104074889D01*
X119923738Y-104228028D01*
X120053972Y-104358262D01*
X120207111Y-104460586D01*
X120377271Y-104531068D01*
X120557911Y-104567000D01*
X120742089Y-104567000D01*
X120922729Y-104531068D01*
X121092889Y-104460586D01*
X121246028Y-104358262D01*
X121376262Y-104228028D01*
X121478586Y-104074889D01*
X121549068Y-103904729D01*
X121585000Y-103724089D01*
X121585000Y-103539911D01*
X121549068Y-103359271D01*
X121478586Y-103189111D01*
X121376262Y-103035972D01*
X121246028Y-102905738D01*
X121092889Y-102803414D01*
X120922729Y-102732932D01*
X120742089Y-102697000D01*
X120557911Y-102697000D01*
X120377271Y-102732932D01*
X120207111Y-102803414D01*
X120053972Y-102905738D01*
X119923738Y-103035972D01*
X119821414Y-103189111D01*
X119750932Y-103359271D01*
X119715000Y-103539911D01*
X117562211Y-103539911D01*
X117436028Y-103413728D01*
X117282889Y-103311404D01*
X117112729Y-103240922D01*
X116932089Y-103204990D01*
X116747911Y-103204990D01*
X116567271Y-103240922D01*
X116397111Y-103311404D01*
X116243972Y-103413728D01*
X116113738Y-103543962D01*
X116011414Y-103697101D01*
X115940932Y-103867261D01*
X115905000Y-104047901D01*
X107420000Y-104047901D01*
X107420000Y-101688501D01*
X121659407Y-101688501D01*
X121659407Y-101862831D01*
X121693417Y-102033811D01*
X121760130Y-102194871D01*
X121856983Y-102339821D01*
X121980252Y-102463090D01*
X122125202Y-102559943D01*
X122286262Y-102626656D01*
X122457242Y-102660666D01*
X122481419Y-102660666D01*
X122481419Y-102684843D01*
X122515429Y-102855823D01*
X122582142Y-103016883D01*
X122678995Y-103161833D01*
X122802264Y-103285102D01*
X122947214Y-103381955D01*
X123108274Y-103448668D01*
X123279254Y-103482678D01*
X123303431Y-103482678D01*
X123303431Y-103506854D01*
X123337441Y-103677834D01*
X123404154Y-103838894D01*
X123501007Y-103983844D01*
X123624276Y-104107113D01*
X123769226Y-104203966D01*
X123930286Y-104270679D01*
X124101266Y-104304689D01*
X124125442Y-104304689D01*
X124125442Y-104328866D01*
X124159452Y-104499846D01*
X124226165Y-104660906D01*
X124323018Y-104805856D01*
X124446287Y-104929125D01*
X124591237Y-105025978D01*
X124752297Y-105092691D01*
X124923277Y-105126701D01*
X124947454Y-105126701D01*
X124947454Y-105150878D01*
X124981464Y-105321858D01*
X125048177Y-105482918D01*
X125145030Y-105627868D01*
X125268299Y-105751137D01*
X125413249Y-105847990D01*
X125574309Y-105914703D01*
X125745289Y-105948713D01*
X125919619Y-105948713D01*
X126090599Y-105914703D01*
X126251659Y-105847990D01*
X126396609Y-105751137D01*
X126519878Y-105627868D01*
X126616731Y-105482918D01*
X126683444Y-105321858D01*
X126717454Y-105150878D01*
X126717454Y-105126701D01*
X126741631Y-105126701D01*
X126912611Y-105092691D01*
X127073671Y-105025978D01*
X127218621Y-104929125D01*
X127341890Y-104805856D01*
X127438743Y-104660906D01*
X127505456Y-104499846D01*
X127539466Y-104328866D01*
X127539466Y-104304689D01*
X127563642Y-104304689D01*
X127734622Y-104270679D01*
X127895682Y-104203966D01*
X128040632Y-104107113D01*
X128163901Y-103983844D01*
X128260754Y-103838894D01*
X128279386Y-103793911D01*
X130129000Y-103793911D01*
X130129000Y-103978089D01*
X130164932Y-104158729D01*
X130235414Y-104328889D01*
X130337738Y-104482028D01*
X130467972Y-104612262D01*
X130621111Y-104714586D01*
X130791271Y-104785068D01*
X130971911Y-104821000D01*
X131156089Y-104821000D01*
X131336729Y-104785068D01*
X131506889Y-104714586D01*
X131660028Y-104612262D01*
X131790262Y-104482028D01*
X131892586Y-104328889D01*
X131963068Y-104158729D01*
X131985576Y-104045576D01*
X132098729Y-104023068D01*
X132268889Y-103952586D01*
X132422028Y-103850262D01*
X132552262Y-103720028D01*
X132654586Y-103566889D01*
X132725068Y-103396729D01*
X132761000Y-103216089D01*
X132761000Y-103031911D01*
X132725068Y-102851271D01*
X132654586Y-102681111D01*
X132552262Y-102527972D01*
X132422028Y-102397738D01*
X132268889Y-102295414D01*
X132098729Y-102224932D01*
X131918089Y-102189000D01*
X131733911Y-102189000D01*
X131553271Y-102224932D01*
X131383111Y-102295414D01*
X131229972Y-102397738D01*
X131099738Y-102527972D01*
X130997414Y-102681111D01*
X130926932Y-102851271D01*
X130904424Y-102964424D01*
X130791271Y-102986932D01*
X130621111Y-103057414D01*
X130467972Y-103159738D01*
X130337738Y-103289972D01*
X130235414Y-103443111D01*
X130164932Y-103613271D01*
X130129000Y-103793911D01*
X128279386Y-103793911D01*
X128327467Y-103677834D01*
X128361477Y-103506854D01*
X128361477Y-103482678D01*
X128385654Y-103482678D01*
X128556634Y-103448668D01*
X128717694Y-103381955D01*
X128862644Y-103285102D01*
X128985913Y-103161833D01*
X129082766Y-103016883D01*
X129149479Y-102855823D01*
X129183489Y-102684843D01*
X129183489Y-102660666D01*
X129207666Y-102660666D01*
X129378646Y-102626656D01*
X129539706Y-102559943D01*
X129684656Y-102463090D01*
X129807925Y-102339821D01*
X129904778Y-102194871D01*
X129971491Y-102033811D01*
X130005501Y-101862831D01*
X130005501Y-101688501D01*
X129971491Y-101517521D01*
X129904778Y-101356461D01*
X129807925Y-101211511D01*
X129684656Y-101088242D01*
X129539706Y-100991389D01*
X129378646Y-100924676D01*
X129207666Y-100890666D01*
X129183489Y-100890666D01*
X129183489Y-100866489D01*
X129149479Y-100695509D01*
X129082766Y-100534449D01*
X128985913Y-100389499D01*
X128862644Y-100266230D01*
X128717694Y-100169377D01*
X128556634Y-100102664D01*
X128385654Y-100068654D01*
X128361477Y-100068654D01*
X128361477Y-100044478D01*
X128327467Y-99873498D01*
X128260754Y-99712438D01*
X128163901Y-99567488D01*
X128040632Y-99444219D01*
X127895682Y-99347366D01*
X127734622Y-99280653D01*
X127563642Y-99246643D01*
X127539466Y-99246643D01*
X127539466Y-99222466D01*
X127505456Y-99051486D01*
X127438743Y-98890426D01*
X127341890Y-98745476D01*
X127218621Y-98622207D01*
X127073671Y-98525354D01*
X126912611Y-98458641D01*
X126741631Y-98424631D01*
X126717454Y-98424631D01*
X126717454Y-98400454D01*
X126683444Y-98229474D01*
X126616731Y-98068414D01*
X126519878Y-97923464D01*
X126396609Y-97800195D01*
X126251659Y-97703342D01*
X126090599Y-97636629D01*
X125919619Y-97602619D01*
X125745289Y-97602619D01*
X125574309Y-97636629D01*
X125413249Y-97703342D01*
X125268299Y-97800195D01*
X125145030Y-97923464D01*
X125048177Y-98068414D01*
X124981464Y-98229474D01*
X124947454Y-98400454D01*
X124947454Y-98424631D01*
X124923277Y-98424631D01*
X124752297Y-98458641D01*
X124591237Y-98525354D01*
X124446287Y-98622207D01*
X124323018Y-98745476D01*
X124226165Y-98890426D01*
X124159452Y-99051486D01*
X124125442Y-99222466D01*
X124125442Y-99246643D01*
X124101266Y-99246643D01*
X123930286Y-99280653D01*
X123769226Y-99347366D01*
X123624276Y-99444219D01*
X123501007Y-99567488D01*
X123404154Y-99712438D01*
X123337441Y-99873498D01*
X123303431Y-100044478D01*
X123303431Y-100068654D01*
X123279254Y-100068654D01*
X123108274Y-100102664D01*
X122947214Y-100169377D01*
X122802264Y-100266230D01*
X122678995Y-100389499D01*
X122582142Y-100534449D01*
X122515429Y-100695509D01*
X122481419Y-100866489D01*
X122481419Y-100890666D01*
X122457242Y-100890666D01*
X122286262Y-100924676D01*
X122125202Y-100991389D01*
X121980252Y-101088242D01*
X121856983Y-101211511D01*
X121760130Y-101356461D01*
X121693417Y-101517521D01*
X121659407Y-101688501D01*
X107420000Y-101688501D01*
X107420000Y-99221911D01*
X120223000Y-99221911D01*
X120223000Y-99406089D01*
X120258932Y-99586729D01*
X120329414Y-99756889D01*
X120431738Y-99910028D01*
X120561972Y-100040262D01*
X120715111Y-100142586D01*
X120885271Y-100213068D01*
X121065911Y-100249000D01*
X121250089Y-100249000D01*
X121430729Y-100213068D01*
X121600889Y-100142586D01*
X121754028Y-100040262D01*
X121884262Y-99910028D01*
X121986586Y-99756889D01*
X122057068Y-99586729D01*
X122093000Y-99406089D01*
X122093000Y-99221911D01*
X122057068Y-99041271D01*
X121986586Y-98871111D01*
X121884262Y-98717972D01*
X121754028Y-98587738D01*
X121600889Y-98485414D01*
X121430729Y-98414932D01*
X121250089Y-98379000D01*
X121065911Y-98379000D01*
X120885271Y-98414932D01*
X120715111Y-98485414D01*
X120561972Y-98587738D01*
X120431738Y-98717972D01*
X120329414Y-98871111D01*
X120258932Y-99041271D01*
X120223000Y-99221911D01*
X107420000Y-99221911D01*
X107420000Y-97951911D01*
X111079000Y-97951911D01*
X111079000Y-98136089D01*
X111114932Y-98316729D01*
X111185414Y-98486889D01*
X111287738Y-98640028D01*
X111417972Y-98770262D01*
X111571111Y-98872586D01*
X111741271Y-98943068D01*
X111921911Y-98979000D01*
X112106089Y-98979000D01*
X112286729Y-98943068D01*
X112456889Y-98872586D01*
X112610028Y-98770262D01*
X112740262Y-98640028D01*
X112842586Y-98486889D01*
X112913068Y-98316729D01*
X112949000Y-98136089D01*
X112949000Y-97951911D01*
X112913068Y-97771271D01*
X112842586Y-97601111D01*
X112740262Y-97447972D01*
X112610028Y-97317738D01*
X112456889Y-97215414D01*
X112286729Y-97144932D01*
X112106089Y-97109000D01*
X111921911Y-97109000D01*
X111741271Y-97144932D01*
X111571111Y-97215414D01*
X111417972Y-97317738D01*
X111287738Y-97447972D01*
X111185414Y-97601111D01*
X111114932Y-97771271D01*
X111079000Y-97951911D01*
X107420000Y-97951911D01*
X107420000Y-93585854D01*
X115856943Y-93585854D01*
X115856943Y-93770032D01*
X115892875Y-93950672D01*
X115963357Y-94120832D01*
X116065681Y-94273971D01*
X116195915Y-94404205D01*
X116349054Y-94506529D01*
X116452527Y-94549388D01*
X116495386Y-94652861D01*
X116597710Y-94806000D01*
X116727944Y-94936234D01*
X116881083Y-95038558D01*
X116984555Y-95081417D01*
X117027414Y-95184889D01*
X117129738Y-95338028D01*
X117259972Y-95468262D01*
X117413111Y-95570586D01*
X117455135Y-95587993D01*
X117440089Y-95585000D01*
X117255911Y-95585000D01*
X117075271Y-95620932D01*
X116905111Y-95691414D01*
X116751972Y-95793738D01*
X116621738Y-95923972D01*
X116519414Y-96077111D01*
X116448932Y-96247271D01*
X116413000Y-96427911D01*
X116413000Y-96612089D01*
X116448932Y-96792729D01*
X116519414Y-96962889D01*
X116621738Y-97116028D01*
X116751972Y-97246262D01*
X116905111Y-97348586D01*
X117075271Y-97419068D01*
X117255911Y-97455000D01*
X117440089Y-97455000D01*
X117495836Y-97443911D01*
X127335000Y-97443911D01*
X127335000Y-97628089D01*
X127370932Y-97808729D01*
X127441414Y-97978889D01*
X127543738Y-98132028D01*
X127673972Y-98262262D01*
X127827111Y-98364586D01*
X127997271Y-98435068D01*
X128177911Y-98471000D01*
X128362089Y-98471000D01*
X128542729Y-98435068D01*
X128712889Y-98364586D01*
X128866028Y-98262262D01*
X128996262Y-98132028D01*
X129098586Y-97978889D01*
X129169068Y-97808729D01*
X129205000Y-97628089D01*
X129205000Y-97443911D01*
X129169068Y-97263271D01*
X129098586Y-97093111D01*
X128996262Y-96939972D01*
X128866028Y-96809738D01*
X128712889Y-96707414D01*
X128542729Y-96636932D01*
X128362089Y-96601000D01*
X128177911Y-96601000D01*
X127997271Y-96636932D01*
X127827111Y-96707414D01*
X127673972Y-96809738D01*
X127543738Y-96939972D01*
X127441414Y-97093111D01*
X127370932Y-97263271D01*
X127335000Y-97443911D01*
X117495836Y-97443911D01*
X117620729Y-97419068D01*
X117790889Y-97348586D01*
X117944028Y-97246262D01*
X118074262Y-97116028D01*
X118176586Y-96962889D01*
X118247068Y-96792729D01*
X118283000Y-96612089D01*
X118283000Y-96427911D01*
X118247068Y-96247271D01*
X118176586Y-96077111D01*
X118074262Y-95923972D01*
X117944028Y-95793738D01*
X117790889Y-95691414D01*
X117748865Y-95674007D01*
X117763911Y-95677000D01*
X117948089Y-95677000D01*
X118128729Y-95641068D01*
X118298889Y-95570586D01*
X118452028Y-95468262D01*
X118582262Y-95338028D01*
X118684586Y-95184889D01*
X118755068Y-95014729D01*
X118791000Y-94834089D01*
X118791000Y-94649911D01*
X118755068Y-94469271D01*
X118684586Y-94299111D01*
X118582262Y-94145972D01*
X118452028Y-94015738D01*
X118298889Y-93913414D01*
X118195417Y-93870555D01*
X118152558Y-93767083D01*
X118050234Y-93613944D01*
X117920000Y-93483710D01*
X117766861Y-93381386D01*
X117663388Y-93338527D01*
X117620529Y-93235054D01*
X117518205Y-93081915D01*
X117387971Y-92951681D01*
X117234832Y-92849357D01*
X117064672Y-92778875D01*
X116884032Y-92742943D01*
X116699854Y-92742943D01*
X116519214Y-92778875D01*
X116349054Y-92849357D01*
X116195915Y-92951681D01*
X116065681Y-93081915D01*
X115963357Y-93235054D01*
X115892875Y-93405214D01*
X115856943Y-93585854D01*
X107420000Y-93585854D01*
X107420000Y-92410088D01*
X107483051Y-92461833D01*
X107697599Y-92576511D01*
X107930398Y-92647130D01*
X108111835Y-92665000D01*
X108933165Y-92665000D01*
X109114602Y-92647130D01*
X109347401Y-92576511D01*
X109561949Y-92461833D01*
X109750002Y-92307502D01*
X109904333Y-92119449D01*
X110019011Y-91904901D01*
X110089630Y-91672102D01*
X110113475Y-91430000D01*
X110089630Y-91187898D01*
X110086617Y-91177965D01*
X110166119Y-91296949D01*
X110355551Y-91486381D01*
X110578299Y-91635216D01*
X110825803Y-91737736D01*
X111088552Y-91790000D01*
X111356448Y-91790000D01*
X111619197Y-91737736D01*
X111866701Y-91635216D01*
X111988468Y-91553854D01*
X117888943Y-91553854D01*
X117888943Y-91738032D01*
X117924875Y-91918672D01*
X117995357Y-92088832D01*
X118097681Y-92241971D01*
X118227915Y-92372205D01*
X118381054Y-92474529D01*
X118484527Y-92517388D01*
X118527386Y-92620861D01*
X118629710Y-92774000D01*
X118759944Y-92904234D01*
X118913083Y-93006558D01*
X119016555Y-93049417D01*
X119059414Y-93152889D01*
X119161738Y-93306028D01*
X119291972Y-93436262D01*
X119445111Y-93538586D01*
X119615271Y-93609068D01*
X119795911Y-93645000D01*
X119980089Y-93645000D01*
X120160729Y-93609068D01*
X120330889Y-93538586D01*
X120484028Y-93436262D01*
X120614262Y-93306028D01*
X120716586Y-93152889D01*
X120787068Y-92982729D01*
X120823000Y-92802089D01*
X120823000Y-92617911D01*
X120823000Y-92617907D01*
X121747000Y-92617907D01*
X121747000Y-92802085D01*
X121782932Y-92982725D01*
X121853414Y-93152885D01*
X121955738Y-93306024D01*
X122085972Y-93436258D01*
X122239111Y-93538582D01*
X122409271Y-93609064D01*
X122589911Y-93644996D01*
X122774089Y-93644996D01*
X122954729Y-93609064D01*
X123124889Y-93538582D01*
X123278028Y-93436258D01*
X123408262Y-93306024D01*
X123510586Y-93152885D01*
X123581068Y-92982725D01*
X123617000Y-92802085D01*
X123617000Y-92617907D01*
X123581068Y-92437267D01*
X123510586Y-92267107D01*
X123408262Y-92113968D01*
X123278028Y-91983734D01*
X123124889Y-91881410D01*
X122954729Y-91810928D01*
X122774089Y-91774996D01*
X122589911Y-91774996D01*
X122409271Y-91810928D01*
X122239111Y-91881410D01*
X122085972Y-91983734D01*
X121955738Y-92113968D01*
X121853414Y-92267107D01*
X121782932Y-92437267D01*
X121747000Y-92617907D01*
X120823000Y-92617907D01*
X120787068Y-92437271D01*
X120716586Y-92267111D01*
X120614262Y-92113972D01*
X120484028Y-91983738D01*
X120330889Y-91881414D01*
X120227417Y-91838555D01*
X120184558Y-91735083D01*
X120082234Y-91581944D01*
X119952000Y-91451710D01*
X119798861Y-91349386D01*
X119695388Y-91306527D01*
X119652529Y-91203054D01*
X119550205Y-91049915D01*
X119419971Y-90919681D01*
X119266832Y-90817357D01*
X119096672Y-90746875D01*
X118916032Y-90710943D01*
X118731854Y-90710943D01*
X118551214Y-90746875D01*
X118381054Y-90817357D01*
X118227915Y-90919681D01*
X118097681Y-91049915D01*
X117995357Y-91203054D01*
X117924875Y-91373214D01*
X117888943Y-91553854D01*
X111988468Y-91553854D01*
X112089449Y-91486381D01*
X112278881Y-91296949D01*
X112427716Y-91074201D01*
X112530236Y-90826697D01*
X112582500Y-90563948D01*
X112582500Y-90296052D01*
X112530236Y-90033303D01*
X112427716Y-89785799D01*
X112278881Y-89563051D01*
X112089449Y-89373619D01*
X111866701Y-89224784D01*
X111619197Y-89122264D01*
X111356448Y-89070000D01*
X111088552Y-89070000D01*
X110825803Y-89122264D01*
X110578299Y-89224784D01*
X110355551Y-89373619D01*
X110166119Y-89563051D01*
X110017284Y-89785799D01*
X109914764Y-90033303D01*
X109862500Y-90296052D01*
X109862500Y-90563948D01*
X109895484Y-90729768D01*
X109750002Y-90552498D01*
X109561949Y-90398167D01*
X109347401Y-90283489D01*
X109114602Y-90212870D01*
X108933165Y-90195000D01*
X108111835Y-90195000D01*
X107930398Y-90212870D01*
X107697599Y-90283489D01*
X107483051Y-90398167D01*
X107420000Y-90449912D01*
X107420000Y-85410088D01*
X107483051Y-85461833D01*
X107697599Y-85576511D01*
X107930398Y-85647130D01*
X108111835Y-85665000D01*
X108933165Y-85665000D01*
X109114602Y-85647130D01*
X109347401Y-85576511D01*
X109561949Y-85461833D01*
X109750002Y-85307502D01*
X109895484Y-85130232D01*
X109862500Y-85296052D01*
X109862500Y-85563948D01*
X109914764Y-85826697D01*
X110017284Y-86074201D01*
X110166119Y-86296949D01*
X110355551Y-86486381D01*
X110578299Y-86635216D01*
X110825803Y-86737736D01*
X111088552Y-86790000D01*
X111356448Y-86790000D01*
X111619197Y-86737736D01*
X111866701Y-86635216D01*
X112089449Y-86486381D01*
X112278881Y-86296949D01*
X112427716Y-86074201D01*
X112530236Y-85826697D01*
X112582500Y-85563948D01*
X112582500Y-85296052D01*
X112530236Y-85033303D01*
X112427716Y-84785799D01*
X112278881Y-84563051D01*
X112089449Y-84373619D01*
X111866701Y-84224784D01*
X111619197Y-84122264D01*
X111356448Y-84070000D01*
X111088552Y-84070000D01*
X110825803Y-84122264D01*
X110578299Y-84224784D01*
X110355551Y-84373619D01*
X110166119Y-84563051D01*
X110086617Y-84682035D01*
X110089630Y-84672102D01*
X110113475Y-84430000D01*
X110089630Y-84187898D01*
X110019011Y-83955099D01*
X110009824Y-83937911D01*
X112925000Y-83937911D01*
X112925000Y-84122089D01*
X112960932Y-84302729D01*
X113031414Y-84472889D01*
X113133738Y-84626028D01*
X113263972Y-84756262D01*
X113417111Y-84858586D01*
X113587271Y-84929068D01*
X113767911Y-84965000D01*
X113952089Y-84965000D01*
X114132729Y-84929068D01*
X114302889Y-84858586D01*
X114456028Y-84756262D01*
X114586262Y-84626028D01*
X114688586Y-84472889D01*
X114727061Y-84380000D01*
X123271928Y-84380000D01*
X123271928Y-86080000D01*
X123284188Y-86204482D01*
X123320498Y-86324180D01*
X123379463Y-86434494D01*
X123458815Y-86531185D01*
X123555506Y-86610537D01*
X123665820Y-86669502D01*
X123785518Y-86705812D01*
X123910000Y-86718072D01*
X125065638Y-86718072D01*
X125003738Y-86779972D01*
X124901414Y-86933111D01*
X124830932Y-87103271D01*
X124795000Y-87283911D01*
X124795000Y-87468089D01*
X124830932Y-87648729D01*
X124901414Y-87818889D01*
X125003738Y-87972028D01*
X125133972Y-88102262D01*
X125287111Y-88204586D01*
X125457271Y-88275068D01*
X125637911Y-88311000D01*
X125822089Y-88311000D01*
X126002729Y-88275068D01*
X126172889Y-88204586D01*
X126326028Y-88102262D01*
X126456262Y-87972028D01*
X126558586Y-87818889D01*
X126629068Y-87648729D01*
X126665000Y-87468089D01*
X126665000Y-87283911D01*
X126629068Y-87103271D01*
X126558586Y-86933111D01*
X126456262Y-86779972D01*
X126326028Y-86649738D01*
X126172889Y-86547414D01*
X126079584Y-86508766D01*
X126140537Y-86434494D01*
X126199502Y-86324180D01*
X126221513Y-86251620D01*
X126353368Y-86383475D01*
X126596589Y-86545990D01*
X126866842Y-86657932D01*
X127153740Y-86715000D01*
X127446260Y-86715000D01*
X127733158Y-86657932D01*
X128003411Y-86545990D01*
X128246632Y-86383475D01*
X128453475Y-86176632D01*
X128570000Y-86002240D01*
X128686525Y-86176632D01*
X128893368Y-86383475D01*
X129136589Y-86545990D01*
X129406842Y-86657932D01*
X129693740Y-86715000D01*
X129986260Y-86715000D01*
X130273158Y-86657932D01*
X130543411Y-86545990D01*
X130786632Y-86383475D01*
X130993475Y-86176632D01*
X131110000Y-86002240D01*
X131226525Y-86176632D01*
X131433368Y-86383475D01*
X131676589Y-86545990D01*
X131946842Y-86657932D01*
X132233740Y-86715000D01*
X132526260Y-86715000D01*
X132813158Y-86657932D01*
X133083411Y-86545990D01*
X133326632Y-86383475D01*
X133533475Y-86176632D01*
X133695990Y-85933411D01*
X133807932Y-85663158D01*
X133865000Y-85376260D01*
X133865000Y-85083740D01*
X133807932Y-84796842D01*
X133695990Y-84526589D01*
X133533475Y-84283368D01*
X133326632Y-84076525D01*
X133152240Y-83960000D01*
X133326632Y-83843475D01*
X133533475Y-83636632D01*
X133695990Y-83393411D01*
X133807932Y-83123158D01*
X133865000Y-82836260D01*
X133865000Y-82543740D01*
X133807932Y-82256842D01*
X133695990Y-81986589D01*
X133533475Y-81743368D01*
X133326632Y-81536525D01*
X133083411Y-81374010D01*
X132813158Y-81262068D01*
X132526260Y-81205000D01*
X132233740Y-81205000D01*
X131946842Y-81262068D01*
X131676589Y-81374010D01*
X131433368Y-81536525D01*
X131226525Y-81743368D01*
X131110000Y-81917760D01*
X130993475Y-81743368D01*
X130786632Y-81536525D01*
X130543411Y-81374010D01*
X130273158Y-81262068D01*
X129986260Y-81205000D01*
X129693740Y-81205000D01*
X129406842Y-81262068D01*
X129136589Y-81374010D01*
X128893368Y-81536525D01*
X128686525Y-81743368D01*
X128570000Y-81917760D01*
X128453475Y-81743368D01*
X128246632Y-81536525D01*
X128003411Y-81374010D01*
X127733158Y-81262068D01*
X127446260Y-81205000D01*
X127153740Y-81205000D01*
X126866842Y-81262068D01*
X126596589Y-81374010D01*
X126353368Y-81536525D01*
X126146525Y-81743368D01*
X126030000Y-81917760D01*
X125913475Y-81743368D01*
X125706632Y-81536525D01*
X125463411Y-81374010D01*
X125193158Y-81262068D01*
X124906260Y-81205000D01*
X124613740Y-81205000D01*
X124326842Y-81262068D01*
X124056589Y-81374010D01*
X123813368Y-81536525D01*
X123606525Y-81743368D01*
X123444010Y-81986589D01*
X123332068Y-82256842D01*
X123275000Y-82543740D01*
X123275000Y-82836260D01*
X123332068Y-83123158D01*
X123444010Y-83393411D01*
X123606525Y-83636632D01*
X123738380Y-83768487D01*
X123665820Y-83790498D01*
X123555506Y-83849463D01*
X123458815Y-83928815D01*
X123379463Y-84025506D01*
X123320498Y-84135820D01*
X123284188Y-84255518D01*
X123271928Y-84380000D01*
X114727061Y-84380000D01*
X114759068Y-84302729D01*
X114795000Y-84122089D01*
X114795000Y-83937911D01*
X114759068Y-83757271D01*
X114688586Y-83587111D01*
X114586262Y-83433972D01*
X114456028Y-83303738D01*
X114302889Y-83201414D01*
X114132729Y-83130932D01*
X113952089Y-83095000D01*
X113767911Y-83095000D01*
X113587271Y-83130932D01*
X113417111Y-83201414D01*
X113263972Y-83303738D01*
X113133738Y-83433972D01*
X113031414Y-83587111D01*
X112960932Y-83757271D01*
X112925000Y-83937911D01*
X110009824Y-83937911D01*
X109904333Y-83740551D01*
X109750002Y-83552498D01*
X109561949Y-83398167D01*
X109347401Y-83283489D01*
X109114602Y-83212870D01*
X108933165Y-83195000D01*
X108111835Y-83195000D01*
X107930398Y-83212870D01*
X107697599Y-83283489D01*
X107483051Y-83398167D01*
X107420000Y-83449912D01*
X107420000Y-77123911D01*
X114889000Y-77123911D01*
X114889000Y-77308089D01*
X114924932Y-77488729D01*
X114995414Y-77658889D01*
X115097738Y-77812028D01*
X115227972Y-77942262D01*
X115281458Y-77978000D01*
X115227972Y-78013738D01*
X115097738Y-78143972D01*
X114995414Y-78297111D01*
X114924932Y-78467271D01*
X114889000Y-78647911D01*
X114889000Y-78832089D01*
X114924932Y-79012729D01*
X114995414Y-79182889D01*
X115097738Y-79336028D01*
X115227972Y-79466262D01*
X115381111Y-79568586D01*
X115551271Y-79639068D01*
X115664424Y-79661576D01*
X115686932Y-79774729D01*
X115757414Y-79944889D01*
X115859738Y-80098028D01*
X115989972Y-80228262D01*
X116143111Y-80330586D01*
X116313271Y-80401068D01*
X116493911Y-80437000D01*
X116678089Y-80437000D01*
X116858729Y-80401068D01*
X117028889Y-80330586D01*
X117182028Y-80228262D01*
X117312262Y-80098028D01*
X117414586Y-79944889D01*
X117485068Y-79774729D01*
X117521000Y-79594089D01*
X117521000Y-79409911D01*
X117485068Y-79229271D01*
X117414586Y-79059111D01*
X117312262Y-78905972D01*
X117182028Y-78775738D01*
X117128542Y-78740000D01*
X117182028Y-78704262D01*
X117312262Y-78574028D01*
X117414586Y-78420889D01*
X117485068Y-78250729D01*
X117521000Y-78070089D01*
X117521000Y-77885911D01*
X117485068Y-77705271D01*
X117414586Y-77535111D01*
X117312262Y-77381972D01*
X117182028Y-77251738D01*
X117028889Y-77149414D01*
X116858729Y-77078932D01*
X116745576Y-77056424D01*
X116723068Y-76943271D01*
X116652586Y-76773111D01*
X116637144Y-76750000D01*
X140951928Y-76750000D01*
X140951928Y-78350000D01*
X140964188Y-78474482D01*
X141000498Y-78594180D01*
X141059463Y-78704494D01*
X141138815Y-78801185D01*
X141235506Y-78880537D01*
X141345820Y-78939502D01*
X141465518Y-78975812D01*
X141590000Y-78988072D01*
X141855725Y-78988072D01*
X141710273Y-79048320D01*
X141475241Y-79205363D01*
X141275363Y-79405241D01*
X141118320Y-79640273D01*
X141010147Y-79901426D01*
X140955000Y-80178665D01*
X140955000Y-80461335D01*
X141010147Y-80738574D01*
X141118320Y-80999727D01*
X141275363Y-81234759D01*
X141475241Y-81434637D01*
X141710273Y-81591680D01*
X141971426Y-81699853D01*
X141997301Y-81705000D01*
X141971426Y-81710147D01*
X141710273Y-81818320D01*
X141475241Y-81975363D01*
X141275363Y-82175241D01*
X141118320Y-82410273D01*
X141010147Y-82671426D01*
X140955000Y-82948665D01*
X140955000Y-83231335D01*
X141010147Y-83508574D01*
X141118320Y-83769727D01*
X141275363Y-84004759D01*
X141475241Y-84204637D01*
X141710273Y-84361680D01*
X141971426Y-84469853D01*
X141997301Y-84475000D01*
X141971426Y-84480147D01*
X141710273Y-84588320D01*
X141475241Y-84745363D01*
X141275363Y-84945241D01*
X141118320Y-85180273D01*
X141010147Y-85441426D01*
X140955000Y-85718665D01*
X140955000Y-86001335D01*
X141010147Y-86278574D01*
X141118320Y-86539727D01*
X141275363Y-86774759D01*
X141475241Y-86974637D01*
X141710273Y-87131680D01*
X141971426Y-87239853D01*
X141997301Y-87245000D01*
X141971426Y-87250147D01*
X141710273Y-87358320D01*
X141475241Y-87515363D01*
X141275363Y-87715241D01*
X141118320Y-87950273D01*
X141010147Y-88211426D01*
X140955000Y-88488665D01*
X140955000Y-88771335D01*
X141010147Y-89048574D01*
X141118320Y-89309727D01*
X141275363Y-89544759D01*
X141475241Y-89744637D01*
X141710273Y-89901680D01*
X141971426Y-90009853D01*
X141997301Y-90015000D01*
X141971426Y-90020147D01*
X141710273Y-90128320D01*
X141475241Y-90285363D01*
X141275363Y-90485241D01*
X141118320Y-90720273D01*
X141010147Y-90981426D01*
X140955000Y-91258665D01*
X140955000Y-91541335D01*
X141010147Y-91818574D01*
X141118320Y-92079727D01*
X141275363Y-92314759D01*
X141475241Y-92514637D01*
X141710273Y-92671680D01*
X141971426Y-92779853D01*
X141997301Y-92785000D01*
X141971426Y-92790147D01*
X141710273Y-92898320D01*
X141475241Y-93055363D01*
X141275363Y-93255241D01*
X141118320Y-93490273D01*
X141010147Y-93751426D01*
X140955000Y-94028665D01*
X140955000Y-94311335D01*
X141010147Y-94588574D01*
X141118320Y-94849727D01*
X141275363Y-95084759D01*
X141475241Y-95284637D01*
X141710273Y-95441680D01*
X141971426Y-95549853D01*
X141997301Y-95555000D01*
X141971426Y-95560147D01*
X141710273Y-95668320D01*
X141475241Y-95825363D01*
X141275363Y-96025241D01*
X141118320Y-96260273D01*
X141010147Y-96521426D01*
X140955000Y-96798665D01*
X140955000Y-97081335D01*
X141010147Y-97358574D01*
X141118320Y-97619727D01*
X141275363Y-97854759D01*
X141475241Y-98054637D01*
X141710273Y-98211680D01*
X141971426Y-98319853D01*
X141997301Y-98325000D01*
X141971426Y-98330147D01*
X141710273Y-98438320D01*
X141475241Y-98595363D01*
X141275363Y-98795241D01*
X141118320Y-99030273D01*
X141010147Y-99291426D01*
X140955000Y-99568665D01*
X140955000Y-99851335D01*
X141010147Y-100128574D01*
X141118320Y-100389727D01*
X141275363Y-100624759D01*
X141475241Y-100824637D01*
X141710273Y-100981680D01*
X141971426Y-101089853D01*
X141997301Y-101095000D01*
X141971426Y-101100147D01*
X141710273Y-101208320D01*
X141475241Y-101365363D01*
X141275363Y-101565241D01*
X141118320Y-101800273D01*
X141010147Y-102061426D01*
X140955000Y-102338665D01*
X140955000Y-102621335D01*
X141010147Y-102898574D01*
X141118320Y-103159727D01*
X141275363Y-103394759D01*
X141475241Y-103594637D01*
X141710273Y-103751680D01*
X141971426Y-103859853D01*
X141997301Y-103865000D01*
X141971426Y-103870147D01*
X141710273Y-103978320D01*
X141475241Y-104135363D01*
X141275363Y-104335241D01*
X141118320Y-104570273D01*
X141010147Y-104831426D01*
X140955000Y-105108665D01*
X140955000Y-105391335D01*
X141010147Y-105668574D01*
X141118320Y-105929727D01*
X141275363Y-106164759D01*
X141475241Y-106364637D01*
X141710273Y-106521680D01*
X141971426Y-106629853D01*
X141997301Y-106635000D01*
X141971426Y-106640147D01*
X141710273Y-106748320D01*
X141475241Y-106905363D01*
X141275363Y-107105241D01*
X141118320Y-107340273D01*
X141010147Y-107601426D01*
X140955000Y-107878665D01*
X140955000Y-108161335D01*
X141010147Y-108438574D01*
X141118320Y-108699727D01*
X141275363Y-108934759D01*
X141475241Y-109134637D01*
X141710273Y-109291680D01*
X141971426Y-109399853D01*
X141997301Y-109405000D01*
X141971426Y-109410147D01*
X141710273Y-109518320D01*
X141475241Y-109675363D01*
X141275363Y-109875241D01*
X141118320Y-110110273D01*
X141010147Y-110371426D01*
X140955000Y-110648665D01*
X140955000Y-110931335D01*
X141010147Y-111208574D01*
X141118320Y-111469727D01*
X141275363Y-111704759D01*
X141475241Y-111904637D01*
X141710273Y-112061680D01*
X141971426Y-112169853D01*
X142248665Y-112225000D01*
X142531335Y-112225000D01*
X142808574Y-112169853D01*
X143069727Y-112061680D01*
X143304759Y-111904637D01*
X143504637Y-111704759D01*
X143661680Y-111469727D01*
X143769853Y-111208574D01*
X143825000Y-110931335D01*
X143825000Y-110648665D01*
X143775080Y-110397702D01*
X144416903Y-110397702D01*
X144488486Y-110641671D01*
X144743996Y-110762571D01*
X145018184Y-110831300D01*
X145300512Y-110845217D01*
X145580130Y-110803787D01*
X145846292Y-110708603D01*
X145971514Y-110641671D01*
X146043097Y-110397702D01*
X145230000Y-109584605D01*
X144416903Y-110397702D01*
X143775080Y-110397702D01*
X143769853Y-110371426D01*
X143661680Y-110110273D01*
X143504637Y-109875241D01*
X143304759Y-109675363D01*
X143069727Y-109518320D01*
X142966380Y-109475512D01*
X143789783Y-109475512D01*
X143831213Y-109755130D01*
X143926397Y-110021292D01*
X143993329Y-110146514D01*
X144237298Y-110218097D01*
X145050395Y-109405000D01*
X145409605Y-109405000D01*
X146222702Y-110218097D01*
X146466671Y-110146514D01*
X146587571Y-109891004D01*
X146656300Y-109616816D01*
X146670217Y-109334488D01*
X146628787Y-109054870D01*
X146533603Y-108788708D01*
X146466671Y-108663486D01*
X146222702Y-108591903D01*
X145409605Y-109405000D01*
X145050395Y-109405000D01*
X144237298Y-108591903D01*
X143993329Y-108663486D01*
X143872429Y-108918996D01*
X143803700Y-109193184D01*
X143789783Y-109475512D01*
X142966380Y-109475512D01*
X142808574Y-109410147D01*
X142782699Y-109405000D01*
X142808574Y-109399853D01*
X143069727Y-109291680D01*
X143304759Y-109134637D01*
X143504637Y-108934759D01*
X143661680Y-108699727D01*
X143769853Y-108438574D01*
X143825000Y-108161335D01*
X143825000Y-107878665D01*
X143769853Y-107601426D01*
X143661680Y-107340273D01*
X143504637Y-107105241D01*
X143304759Y-106905363D01*
X143069727Y-106748320D01*
X142808574Y-106640147D01*
X142782699Y-106635000D01*
X142808574Y-106629853D01*
X143069727Y-106521680D01*
X143304759Y-106364637D01*
X143504637Y-106164759D01*
X143661680Y-105929727D01*
X143769853Y-105668574D01*
X143825000Y-105391335D01*
X143825000Y-105108665D01*
X143769853Y-104831426D01*
X143661680Y-104570273D01*
X143504637Y-104335241D01*
X143304759Y-104135363D01*
X143069727Y-103978320D01*
X142808574Y-103870147D01*
X142782699Y-103865000D01*
X142808574Y-103859853D01*
X143069727Y-103751680D01*
X143304759Y-103594637D01*
X143504637Y-103394759D01*
X143661680Y-103159727D01*
X143769853Y-102898574D01*
X143825000Y-102621335D01*
X143825000Y-102338665D01*
X143769853Y-102061426D01*
X143661680Y-101800273D01*
X143504637Y-101565241D01*
X143304759Y-101365363D01*
X143069727Y-101208320D01*
X142808574Y-101100147D01*
X142782699Y-101095000D01*
X142808574Y-101089853D01*
X143069727Y-100981680D01*
X143304759Y-100824637D01*
X143504637Y-100624759D01*
X143661680Y-100389727D01*
X143769853Y-100128574D01*
X143825000Y-99851335D01*
X143825000Y-99568665D01*
X143769853Y-99291426D01*
X143661680Y-99030273D01*
X143504637Y-98795241D01*
X143304759Y-98595363D01*
X143069727Y-98438320D01*
X142808574Y-98330147D01*
X142782699Y-98325000D01*
X142808574Y-98319853D01*
X143069727Y-98211680D01*
X143304759Y-98054637D01*
X143504637Y-97854759D01*
X143661680Y-97619727D01*
X143769853Y-97358574D01*
X143825000Y-97081335D01*
X143825000Y-96798665D01*
X143769853Y-96521426D01*
X143661680Y-96260273D01*
X143504637Y-96025241D01*
X143304759Y-95825363D01*
X143069727Y-95668320D01*
X142808574Y-95560147D01*
X142782699Y-95555000D01*
X142808574Y-95549853D01*
X143069727Y-95441680D01*
X143304759Y-95284637D01*
X143504637Y-95084759D01*
X143661680Y-94849727D01*
X143769853Y-94588574D01*
X143825000Y-94311335D01*
X143825000Y-94028665D01*
X143769853Y-93751426D01*
X143661680Y-93490273D01*
X143504637Y-93255241D01*
X143304759Y-93055363D01*
X143069727Y-92898320D01*
X142808574Y-92790147D01*
X142782699Y-92785000D01*
X142808574Y-92779853D01*
X143069727Y-92671680D01*
X143304759Y-92514637D01*
X143504637Y-92314759D01*
X143661680Y-92079727D01*
X143769853Y-91818574D01*
X143825000Y-91541335D01*
X143825000Y-91258665D01*
X143769853Y-90981426D01*
X143661680Y-90720273D01*
X143504637Y-90485241D01*
X143304759Y-90285363D01*
X143069727Y-90128320D01*
X142808574Y-90020147D01*
X142782699Y-90015000D01*
X142808574Y-90009853D01*
X143069727Y-89901680D01*
X143304759Y-89744637D01*
X143504637Y-89544759D01*
X143661680Y-89309727D01*
X143769853Y-89048574D01*
X143825000Y-88771335D01*
X143825000Y-88488665D01*
X143769853Y-88211426D01*
X143661680Y-87950273D01*
X143504637Y-87715241D01*
X143304759Y-87515363D01*
X143069727Y-87358320D01*
X142808574Y-87250147D01*
X142782699Y-87245000D01*
X142808574Y-87239853D01*
X143069727Y-87131680D01*
X143304759Y-86974637D01*
X143504637Y-86774759D01*
X143661680Y-86539727D01*
X143769853Y-86278574D01*
X143825000Y-86001335D01*
X143825000Y-85718665D01*
X143769853Y-85441426D01*
X143661680Y-85180273D01*
X143504637Y-84945241D01*
X143304759Y-84745363D01*
X143069727Y-84588320D01*
X142808574Y-84480147D01*
X142782699Y-84475000D01*
X142808574Y-84469853D01*
X143069727Y-84361680D01*
X143304759Y-84204637D01*
X143504637Y-84004759D01*
X143661680Y-83769727D01*
X143769853Y-83508574D01*
X143825000Y-83231335D01*
X143825000Y-82948665D01*
X143769853Y-82671426D01*
X143661680Y-82410273D01*
X143504637Y-82175241D01*
X143304759Y-81975363D01*
X143069727Y-81818320D01*
X142808574Y-81710147D01*
X142782699Y-81705000D01*
X142808574Y-81699853D01*
X143069727Y-81591680D01*
X143111654Y-81563665D01*
X143795000Y-81563665D01*
X143795000Y-81846335D01*
X143850147Y-82123574D01*
X143958320Y-82384727D01*
X144115363Y-82619759D01*
X144315241Y-82819637D01*
X144550273Y-82976680D01*
X144811426Y-83084853D01*
X144837301Y-83090000D01*
X144811426Y-83095147D01*
X144550273Y-83203320D01*
X144315241Y-83360363D01*
X144115363Y-83560241D01*
X143958320Y-83795273D01*
X143850147Y-84056426D01*
X143795000Y-84333665D01*
X143795000Y-84616335D01*
X143850147Y-84893574D01*
X143958320Y-85154727D01*
X144115363Y-85389759D01*
X144315241Y-85589637D01*
X144550273Y-85746680D01*
X144811426Y-85854853D01*
X144837301Y-85860000D01*
X144811426Y-85865147D01*
X144550273Y-85973320D01*
X144315241Y-86130363D01*
X144115363Y-86330241D01*
X143958320Y-86565273D01*
X143850147Y-86826426D01*
X143795000Y-87103665D01*
X143795000Y-87386335D01*
X143850147Y-87663574D01*
X143958320Y-87924727D01*
X144115363Y-88159759D01*
X144315241Y-88359637D01*
X144550273Y-88516680D01*
X144811426Y-88624853D01*
X144837301Y-88630000D01*
X144811426Y-88635147D01*
X144550273Y-88743320D01*
X144315241Y-88900363D01*
X144115363Y-89100241D01*
X143958320Y-89335273D01*
X143850147Y-89596426D01*
X143795000Y-89873665D01*
X143795000Y-90156335D01*
X143850147Y-90433574D01*
X143958320Y-90694727D01*
X144115363Y-90929759D01*
X144315241Y-91129637D01*
X144550273Y-91286680D01*
X144811426Y-91394853D01*
X144837301Y-91400000D01*
X144811426Y-91405147D01*
X144550273Y-91513320D01*
X144315241Y-91670363D01*
X144115363Y-91870241D01*
X143958320Y-92105273D01*
X143850147Y-92366426D01*
X143795000Y-92643665D01*
X143795000Y-92926335D01*
X143850147Y-93203574D01*
X143958320Y-93464727D01*
X144115363Y-93699759D01*
X144315241Y-93899637D01*
X144550273Y-94056680D01*
X144811426Y-94164853D01*
X144837301Y-94170000D01*
X144811426Y-94175147D01*
X144550273Y-94283320D01*
X144315241Y-94440363D01*
X144115363Y-94640241D01*
X143958320Y-94875273D01*
X143850147Y-95136426D01*
X143795000Y-95413665D01*
X143795000Y-95696335D01*
X143850147Y-95973574D01*
X143958320Y-96234727D01*
X144115363Y-96469759D01*
X144315241Y-96669637D01*
X144550273Y-96826680D01*
X144811426Y-96934853D01*
X144837301Y-96940000D01*
X144811426Y-96945147D01*
X144550273Y-97053320D01*
X144315241Y-97210363D01*
X144115363Y-97410241D01*
X143958320Y-97645273D01*
X143850147Y-97906426D01*
X143795000Y-98183665D01*
X143795000Y-98466335D01*
X143850147Y-98743574D01*
X143958320Y-99004727D01*
X144115363Y-99239759D01*
X144315241Y-99439637D01*
X144550273Y-99596680D01*
X144811426Y-99704853D01*
X144837301Y-99710000D01*
X144811426Y-99715147D01*
X144550273Y-99823320D01*
X144315241Y-99980363D01*
X144115363Y-100180241D01*
X143958320Y-100415273D01*
X143850147Y-100676426D01*
X143795000Y-100953665D01*
X143795000Y-101236335D01*
X143850147Y-101513574D01*
X143958320Y-101774727D01*
X144115363Y-102009759D01*
X144315241Y-102209637D01*
X144550273Y-102366680D01*
X144811426Y-102474853D01*
X144837301Y-102480000D01*
X144811426Y-102485147D01*
X144550273Y-102593320D01*
X144315241Y-102750363D01*
X144115363Y-102950241D01*
X143958320Y-103185273D01*
X143850147Y-103446426D01*
X143795000Y-103723665D01*
X143795000Y-104006335D01*
X143850147Y-104283574D01*
X143958320Y-104544727D01*
X144115363Y-104779759D01*
X144315241Y-104979637D01*
X144550273Y-105136680D01*
X144811426Y-105244853D01*
X144837301Y-105250000D01*
X144811426Y-105255147D01*
X144550273Y-105363320D01*
X144315241Y-105520363D01*
X144115363Y-105720241D01*
X143958320Y-105955273D01*
X143850147Y-106216426D01*
X143795000Y-106493665D01*
X143795000Y-106776335D01*
X143850147Y-107053574D01*
X143958320Y-107314727D01*
X144115363Y-107549759D01*
X144315241Y-107749637D01*
X144550273Y-107906680D01*
X144811426Y-108014853D01*
X144839882Y-108020513D01*
X144613708Y-108101397D01*
X144488486Y-108168329D01*
X144416903Y-108412298D01*
X145230000Y-109225395D01*
X146043097Y-108412298D01*
X145971514Y-108168329D01*
X145716004Y-108047429D01*
X145613711Y-108021788D01*
X145648574Y-108014853D01*
X145909727Y-107906680D01*
X146144759Y-107749637D01*
X146344637Y-107549759D01*
X146501680Y-107314727D01*
X146609853Y-107053574D01*
X146665000Y-106776335D01*
X146665000Y-106493665D01*
X146609853Y-106216426D01*
X146501680Y-105955273D01*
X146344637Y-105720241D01*
X146144759Y-105520363D01*
X145909727Y-105363320D01*
X145648574Y-105255147D01*
X145622699Y-105250000D01*
X145648574Y-105244853D01*
X145909727Y-105136680D01*
X146144759Y-104979637D01*
X146344637Y-104779759D01*
X146501680Y-104544727D01*
X146609853Y-104283574D01*
X146665000Y-104006335D01*
X146665000Y-103723665D01*
X146609853Y-103446426D01*
X146501680Y-103185273D01*
X146344637Y-102950241D01*
X146144759Y-102750363D01*
X145909727Y-102593320D01*
X145648574Y-102485147D01*
X145622699Y-102480000D01*
X145648574Y-102474853D01*
X145909727Y-102366680D01*
X146144759Y-102209637D01*
X146344637Y-102009759D01*
X146501680Y-101774727D01*
X146609853Y-101513574D01*
X146665000Y-101236335D01*
X146665000Y-100953665D01*
X146609853Y-100676426D01*
X146501680Y-100415273D01*
X146344637Y-100180241D01*
X146144759Y-99980363D01*
X145909727Y-99823320D01*
X145648574Y-99715147D01*
X145622699Y-99710000D01*
X145648574Y-99704853D01*
X145909727Y-99596680D01*
X146144759Y-99439637D01*
X146344637Y-99239759D01*
X146501680Y-99004727D01*
X146609853Y-98743574D01*
X146665000Y-98466335D01*
X146665000Y-98183665D01*
X146609853Y-97906426D01*
X146501680Y-97645273D01*
X146344637Y-97410241D01*
X146144759Y-97210363D01*
X145909727Y-97053320D01*
X145648574Y-96945147D01*
X145622699Y-96940000D01*
X145648574Y-96934853D01*
X145909727Y-96826680D01*
X146144759Y-96669637D01*
X146344637Y-96469759D01*
X146501680Y-96234727D01*
X146609853Y-95973574D01*
X146665000Y-95696335D01*
X146665000Y-95413665D01*
X146609853Y-95136426D01*
X146501680Y-94875273D01*
X146344637Y-94640241D01*
X146144759Y-94440363D01*
X145909727Y-94283320D01*
X145648574Y-94175147D01*
X145622699Y-94170000D01*
X145648574Y-94164853D01*
X145909727Y-94056680D01*
X146144759Y-93899637D01*
X146344637Y-93699759D01*
X146501680Y-93464727D01*
X146609853Y-93203574D01*
X146665000Y-92926335D01*
X146665000Y-92643665D01*
X146609853Y-92366426D01*
X146501680Y-92105273D01*
X146344637Y-91870241D01*
X146144759Y-91670363D01*
X145909727Y-91513320D01*
X145648574Y-91405147D01*
X145622699Y-91400000D01*
X145648574Y-91394853D01*
X145909727Y-91286680D01*
X146144759Y-91129637D01*
X146344637Y-90929759D01*
X146501680Y-90694727D01*
X146609853Y-90433574D01*
X146665000Y-90156335D01*
X146665000Y-89873665D01*
X146609853Y-89596426D01*
X146501680Y-89335273D01*
X146344637Y-89100241D01*
X146144759Y-88900363D01*
X145909727Y-88743320D01*
X145648574Y-88635147D01*
X145622699Y-88630000D01*
X145648574Y-88624853D01*
X145909727Y-88516680D01*
X146144759Y-88359637D01*
X146344637Y-88159759D01*
X146501680Y-87924727D01*
X146609853Y-87663574D01*
X146665000Y-87386335D01*
X146665000Y-87103665D01*
X146609853Y-86826426D01*
X146501680Y-86565273D01*
X146344637Y-86330241D01*
X146144759Y-86130363D01*
X145909727Y-85973320D01*
X145648574Y-85865147D01*
X145622699Y-85860000D01*
X145648574Y-85854853D01*
X145909727Y-85746680D01*
X146144759Y-85589637D01*
X146344637Y-85389759D01*
X146501680Y-85154727D01*
X146609853Y-84893574D01*
X146665000Y-84616335D01*
X146665000Y-84333665D01*
X146609853Y-84056426D01*
X146501680Y-83795273D01*
X146344637Y-83560241D01*
X146144759Y-83360363D01*
X145909727Y-83203320D01*
X145648574Y-83095147D01*
X145622699Y-83090000D01*
X145648574Y-83084853D01*
X145909727Y-82976680D01*
X146144759Y-82819637D01*
X146344637Y-82619759D01*
X146501680Y-82384727D01*
X146609853Y-82123574D01*
X146665000Y-81846335D01*
X146665000Y-81563665D01*
X146609853Y-81286426D01*
X146501680Y-81025273D01*
X146344637Y-80790241D01*
X146144759Y-80590363D01*
X145909727Y-80433320D01*
X145648574Y-80325147D01*
X145620118Y-80319487D01*
X145846292Y-80238603D01*
X145971514Y-80171671D01*
X146043097Y-79927702D01*
X145230000Y-79114605D01*
X144416903Y-79927702D01*
X144488486Y-80171671D01*
X144743996Y-80292571D01*
X144846289Y-80318212D01*
X144811426Y-80325147D01*
X144550273Y-80433320D01*
X144315241Y-80590363D01*
X144115363Y-80790241D01*
X143958320Y-81025273D01*
X143850147Y-81286426D01*
X143795000Y-81563665D01*
X143111654Y-81563665D01*
X143304759Y-81434637D01*
X143504637Y-81234759D01*
X143661680Y-80999727D01*
X143769853Y-80738574D01*
X143825000Y-80461335D01*
X143825000Y-80178665D01*
X143769853Y-79901426D01*
X143661680Y-79640273D01*
X143504637Y-79405241D01*
X143304759Y-79205363D01*
X143069727Y-79048320D01*
X142966380Y-79005512D01*
X143789783Y-79005512D01*
X143831213Y-79285130D01*
X143926397Y-79551292D01*
X143993329Y-79676514D01*
X144237298Y-79748097D01*
X145050395Y-78935000D01*
X145409605Y-78935000D01*
X146222702Y-79748097D01*
X146466671Y-79676514D01*
X146587571Y-79421004D01*
X146656300Y-79146816D01*
X146670217Y-78864488D01*
X146628787Y-78584870D01*
X146533603Y-78318708D01*
X146466671Y-78193486D01*
X146222702Y-78121903D01*
X145409605Y-78935000D01*
X145050395Y-78935000D01*
X144237298Y-78121903D01*
X143993329Y-78193486D01*
X143872429Y-78448996D01*
X143803700Y-78723184D01*
X143789783Y-79005512D01*
X142966380Y-79005512D01*
X142924275Y-78988072D01*
X143190000Y-78988072D01*
X143314482Y-78975812D01*
X143434180Y-78939502D01*
X143544494Y-78880537D01*
X143641185Y-78801185D01*
X143720537Y-78704494D01*
X143779502Y-78594180D01*
X143815812Y-78474482D01*
X143828072Y-78350000D01*
X143828072Y-77942298D01*
X144416903Y-77942298D01*
X145230000Y-78755395D01*
X146043097Y-77942298D01*
X145971514Y-77698329D01*
X145716004Y-77577429D01*
X145441816Y-77508700D01*
X145159488Y-77494783D01*
X144879870Y-77536213D01*
X144613708Y-77631397D01*
X144488486Y-77698329D01*
X144416903Y-77942298D01*
X143828072Y-77942298D01*
X143828072Y-76750000D01*
X143815812Y-76625518D01*
X143779502Y-76505820D01*
X143720537Y-76395506D01*
X143641185Y-76298815D01*
X143544494Y-76219463D01*
X143434180Y-76160498D01*
X143314482Y-76124188D01*
X143190000Y-76111928D01*
X141590000Y-76111928D01*
X141465518Y-76124188D01*
X141345820Y-76160498D01*
X141235506Y-76219463D01*
X141138815Y-76298815D01*
X141059463Y-76395506D01*
X141000498Y-76505820D01*
X140964188Y-76625518D01*
X140951928Y-76750000D01*
X116637144Y-76750000D01*
X116550262Y-76619972D01*
X116420028Y-76489738D01*
X116266889Y-76387414D01*
X116096729Y-76316932D01*
X115916089Y-76281000D01*
X115731911Y-76281000D01*
X115551271Y-76316932D01*
X115381111Y-76387414D01*
X115227972Y-76489738D01*
X115097738Y-76619972D01*
X114995414Y-76773111D01*
X114924932Y-76943271D01*
X114889000Y-77123911D01*
X107420000Y-77123911D01*
X107420000Y-72297911D01*
X109555000Y-72297911D01*
X109555000Y-72482089D01*
X109590932Y-72662729D01*
X109661414Y-72832889D01*
X109704920Y-72898000D01*
X109661414Y-72963111D01*
X109590932Y-73133271D01*
X109555000Y-73313911D01*
X109555000Y-73498089D01*
X109590932Y-73678729D01*
X109661414Y-73848889D01*
X109704920Y-73914000D01*
X109661414Y-73979111D01*
X109590932Y-74149271D01*
X109555000Y-74329911D01*
X109555000Y-74514089D01*
X109590932Y-74694729D01*
X109661414Y-74864889D01*
X109704920Y-74930000D01*
X109661414Y-74995111D01*
X109590932Y-75165271D01*
X109555000Y-75345911D01*
X109555000Y-75530089D01*
X109590932Y-75710729D01*
X109661414Y-75880889D01*
X109763738Y-76034028D01*
X109893972Y-76164262D01*
X110047111Y-76266586D01*
X110217271Y-76337068D01*
X110397911Y-76373000D01*
X110582089Y-76373000D01*
X110762729Y-76337068D01*
X110932889Y-76266586D01*
X110998000Y-76223080D01*
X111063111Y-76266586D01*
X111233271Y-76337068D01*
X111413911Y-76373000D01*
X111598089Y-76373000D01*
X111778729Y-76337068D01*
X111948889Y-76266586D01*
X112102028Y-76164262D01*
X112232262Y-76034028D01*
X112334586Y-75880889D01*
X112405068Y-75710729D01*
X112441000Y-75530089D01*
X112441000Y-75345911D01*
X112405068Y-75165271D01*
X112334586Y-74995111D01*
X112291080Y-74930000D01*
X112334586Y-74864889D01*
X112405068Y-74694729D01*
X112441000Y-74514089D01*
X112441000Y-74329911D01*
X112405068Y-74149271D01*
X112334586Y-73979111D01*
X112291080Y-73914000D01*
X112334586Y-73848889D01*
X112405068Y-73678729D01*
X112441000Y-73498089D01*
X112441000Y-73313911D01*
X112405068Y-73133271D01*
X112334586Y-72963111D01*
X112291080Y-72898000D01*
X112334586Y-72832889D01*
X112405068Y-72662729D01*
X112441000Y-72482089D01*
X112441000Y-72297911D01*
X119715000Y-72297911D01*
X119715000Y-72482089D01*
X119750932Y-72662729D01*
X119821414Y-72832889D01*
X119864920Y-72898000D01*
X119821414Y-72963111D01*
X119750932Y-73133271D01*
X119715000Y-73313911D01*
X119715000Y-73498089D01*
X119750932Y-73678729D01*
X119821414Y-73848889D01*
X119864920Y-73914000D01*
X119821414Y-73979111D01*
X119750932Y-74149271D01*
X119715000Y-74329911D01*
X119715000Y-74514089D01*
X119750932Y-74694729D01*
X119821414Y-74864889D01*
X119864920Y-74930000D01*
X119821414Y-74995111D01*
X119750932Y-75165271D01*
X119715000Y-75345911D01*
X119715000Y-75530089D01*
X119750932Y-75710729D01*
X119821414Y-75880889D01*
X119923738Y-76034028D01*
X120053972Y-76164262D01*
X120207111Y-76266586D01*
X120377271Y-76337068D01*
X120557911Y-76373000D01*
X120742089Y-76373000D01*
X120922729Y-76337068D01*
X121092889Y-76266586D01*
X121158000Y-76223080D01*
X121223111Y-76266586D01*
X121393271Y-76337068D01*
X121573911Y-76373000D01*
X121758089Y-76373000D01*
X121938729Y-76337068D01*
X122108889Y-76266586D01*
X122262028Y-76164262D01*
X122392262Y-76034028D01*
X122494586Y-75880889D01*
X122565068Y-75710729D01*
X122601000Y-75530089D01*
X122601000Y-75345911D01*
X122565068Y-75165271D01*
X122494586Y-74995111D01*
X122451080Y-74930000D01*
X122494586Y-74864889D01*
X122565068Y-74694729D01*
X122601000Y-74514089D01*
X122601000Y-74329911D01*
X122565068Y-74149271D01*
X122494586Y-73979111D01*
X122451080Y-73914000D01*
X122494586Y-73848889D01*
X122565068Y-73678729D01*
X122601000Y-73498089D01*
X122601000Y-73313911D01*
X122565068Y-73133271D01*
X122494586Y-72963111D01*
X122451080Y-72898000D01*
X122494586Y-72832889D01*
X122565068Y-72662729D01*
X122601000Y-72482089D01*
X122601000Y-72297911D01*
X122565068Y-72117271D01*
X122494586Y-71947111D01*
X122392262Y-71793972D01*
X122262028Y-71663738D01*
X122108889Y-71561414D01*
X121938729Y-71490932D01*
X121758089Y-71455000D01*
X121573911Y-71455000D01*
X121393271Y-71490932D01*
X121223111Y-71561414D01*
X121158000Y-71604920D01*
X121092889Y-71561414D01*
X120922729Y-71490932D01*
X120742089Y-71455000D01*
X120557911Y-71455000D01*
X120377271Y-71490932D01*
X120207111Y-71561414D01*
X120053972Y-71663738D01*
X119923738Y-71793972D01*
X119821414Y-71947111D01*
X119750932Y-72117271D01*
X119715000Y-72297911D01*
X112441000Y-72297911D01*
X112405068Y-72117271D01*
X112334586Y-71947111D01*
X112232262Y-71793972D01*
X112102028Y-71663738D01*
X111948889Y-71561414D01*
X111778729Y-71490932D01*
X111598089Y-71455000D01*
X111413911Y-71455000D01*
X111233271Y-71490932D01*
X111063111Y-71561414D01*
X110998000Y-71604920D01*
X110932889Y-71561414D01*
X110762729Y-71490932D01*
X110582089Y-71455000D01*
X110397911Y-71455000D01*
X110217271Y-71490932D01*
X110047111Y-71561414D01*
X109893972Y-71663738D01*
X109763738Y-71793972D01*
X109661414Y-71947111D01*
X109590932Y-72117271D01*
X109555000Y-72297911D01*
X107420000Y-72297911D01*
X107420000Y-69529917D01*
X115117000Y-69529917D01*
X115117000Y-69714095D01*
X115152932Y-69894735D01*
X115223414Y-70064895D01*
X115325738Y-70218034D01*
X115455972Y-70348268D01*
X115609111Y-70450592D01*
X115779271Y-70521074D01*
X115959911Y-70557006D01*
X116144089Y-70557006D01*
X116324729Y-70521074D01*
X116494889Y-70450592D01*
X116629758Y-70360475D01*
X141175000Y-70360475D01*
X141175000Y-70879525D01*
X141276261Y-71388601D01*
X141474893Y-71868141D01*
X141763262Y-72299715D01*
X142130285Y-72666738D01*
X142561859Y-72955107D01*
X143041399Y-73153739D01*
X143550475Y-73255000D01*
X144069525Y-73255000D01*
X144578601Y-73153739D01*
X145058141Y-72955107D01*
X145489715Y-72666738D01*
X145856738Y-72299715D01*
X146145107Y-71868141D01*
X146343739Y-71388601D01*
X146445000Y-70879525D01*
X146445000Y-70360475D01*
X146343739Y-69851399D01*
X146145107Y-69371859D01*
X145856738Y-68940285D01*
X145489715Y-68573262D01*
X145058141Y-68284893D01*
X144578601Y-68086261D01*
X144069525Y-67985000D01*
X143550475Y-67985000D01*
X143041399Y-68086261D01*
X142561859Y-68284893D01*
X142130285Y-68573262D01*
X141763262Y-68940285D01*
X141474893Y-69371859D01*
X141276261Y-69851399D01*
X141175000Y-70360475D01*
X116629758Y-70360475D01*
X116648028Y-70348268D01*
X116778262Y-70218034D01*
X116880586Y-70064895D01*
X116951068Y-69894735D01*
X116987000Y-69714095D01*
X116987000Y-69529917D01*
X116951068Y-69349277D01*
X116880586Y-69179117D01*
X116778262Y-69025978D01*
X116648028Y-68895744D01*
X116494889Y-68793420D01*
X116324729Y-68722938D01*
X116144089Y-68687006D01*
X115959911Y-68687006D01*
X115779271Y-68722938D01*
X115609111Y-68793420D01*
X115455972Y-68895744D01*
X115325738Y-69025978D01*
X115223414Y-69179117D01*
X115152932Y-69349277D01*
X115117000Y-69529917D01*
X107420000Y-69529917D01*
X107420000Y-64365872D01*
X107482368Y-64516442D01*
X108010624Y-65307033D01*
X108682967Y-65979376D01*
X109473558Y-66507632D01*
X110352016Y-66871501D01*
X111284582Y-67057000D01*
X112235418Y-67057000D01*
X113167984Y-66871501D01*
X114046442Y-66507632D01*
X114837033Y-65979376D01*
X115509376Y-65307033D01*
X116037632Y-64516442D01*
X116401501Y-63637984D01*
X116587000Y-62705418D01*
X116587000Y-61754582D01*
X116401501Y-60822016D01*
X116037632Y-59943558D01*
X115509376Y-59152967D01*
X114837033Y-58480624D01*
X114046442Y-57952368D01*
X113895872Y-57890000D01*
X145624128Y-57890000D01*
X145473558Y-57952368D01*
G37*
%TD.AperFunction*%
%TD*%
M02*
