M48
; DRILL file {KiCad (5.1.8)-1} date 01/06/21 18:40:05
; FORMAT={-:-/ absolute / inch / decimal}
; #@! TF.CreationDate,2021-01-06T18:40:05+10:00
; #@! TF.GenerationSoftware,Kicad,Pcbnew,(5.1.8)-1
FMAT,2
INCH
T1C0.0079
T2C0.0118
T3C0.0197
T4C0.0236
T5C0.0335
T6C0.0394
T7C0.1260
%
G90
G05
T1
X4.8246Y-4.0069
X4.8569Y-3.9746
X4.8569Y-4.0393
X4.8893Y-3.9422
X4.8893Y-4.0069
X4.8893Y-4.0716
X4.9217Y-3.9098
X4.9217Y-3.9746
X4.9217Y-4.0393
X4.9217Y-4.104
X4.954Y-3.8775
X4.954Y-3.9422
X4.954Y-4.0069
X4.954Y-4.0716
X4.954Y-4.1364
X4.9864Y-3.9098
X4.9864Y-3.9746
X4.9864Y-4.0393
X4.9864Y-4.104
X5.0188Y-3.9422
X5.0188Y-4.0069
X5.0188Y-4.0716
X5.0511Y-3.9746
X5.0511Y-4.0393
X5.0835Y-4.0069
T2
X4.35Y-2.85
X4.35Y-2.89
X4.35Y-2.93
X4.35Y-2.97
X4.39Y-2.85
X4.39Y-2.89
X4.39Y-2.93
X4.39Y-2.97
X4.41Y-3.86
X4.49Y-4.26
X4.505Y-3.605
X4.51Y-2.74
X4.52Y-3.28
X4.54Y-3.95
X4.56Y-3.04
X4.56Y-3.1
X4.57Y-2.74
X4.575Y-3.675
X4.58Y-3.95
X4.58Y-4.39
X4.59Y-3.07
X4.59Y-3.13
X4.595Y-3.515
X4.6Y-4.1
X4.62Y-3.8
X4.62Y-3.95
X4.639Y-2.739
X4.665Y-3.585
X4.69Y-4.49
X4.75Y-2.85
X4.75Y-2.89
X4.75Y-2.93
X4.75Y-2.97
X4.76Y-4.06
X4.76Y-4.19
X4.77Y-3.65
X4.78Y-3.915
X4.79Y-2.85
X4.79Y-2.89
X4.79Y-2.93
X4.79Y-2.97
X4.83Y-3.48
X4.86Y-3.5
X4.89Y-3.52
X4.9Y-3.44
X4.9Y-5.085
X4.92Y-4.555
X4.98Y-4.2171
X5.0Y-4.855
X5.05Y-3.84
X5.11Y-4.515
X5.12Y-4.855
X5.16Y-4.09
X5.19Y-4.06
X5.2Y-4.515
X5.24Y-4.855
X5.34Y-5.085
X5.46Y-3.45
X5.47Y-3.653
X5.47Y-3.72
X5.5099Y-3.9801
X5.75Y-2.98
X5.84Y-4.2528
T3
X5.7228Y-2.45
X5.7505Y-2.3832
X5.7505Y-2.5168
X5.8173Y-2.3555
X5.8173Y-2.5445
X5.8841Y-2.3832
X5.8841Y-2.5168
X5.9118Y-2.45
X5.7228Y-4.9697
X5.7505Y-4.9029
X5.7505Y-5.0365
X5.8173Y-4.8752
X5.8173Y-5.0642
X5.8841Y-4.9029
X5.8841Y-5.0365
X5.9118Y-4.9697
X4.3055Y-2.45
X4.3332Y-2.3832
X4.3332Y-2.5168
X4.4Y-2.3555
X4.4Y-2.5445
X4.4668Y-2.3832
X4.4668Y-2.5168
X4.4945Y-2.45
X4.3055Y-4.9697
X4.3332Y-4.9029
X4.3332Y-5.0365
X4.4Y-4.8752
X4.4Y-5.0642
X4.4668Y-4.9029
X4.4668Y-5.0365
X4.4945Y-4.9697
T5
X4.3788Y-3.3634
X4.3788Y-3.5602
T6
X5.6059Y-3.0531
X5.6059Y-3.1622
X5.6059Y-3.2713
X5.6059Y-3.3803
X5.6059Y-3.4894
X5.6059Y-3.5984
X5.6059Y-3.7075
X5.6059Y-3.8165
X5.6059Y-3.9256
X5.6059Y-4.0346
X5.6059Y-4.1437
X5.6059Y-4.2528
X5.6059Y-4.3618
X5.7177Y-3.1077
X5.7177Y-3.2167
X5.7177Y-3.3258
X5.7177Y-3.4348
X5.7177Y-3.5439
X5.7177Y-3.653
X5.7177Y-3.762
X5.7177Y-3.8711
X5.7177Y-3.9801
X5.7177Y-4.0892
X5.7177Y-4.1982
X5.7177Y-4.3073
X4.9118Y-3.2555
X4.9118Y-3.3555
X5.0118Y-3.2555
X5.0118Y-3.3555
X5.1118Y-3.2555
X5.1118Y-3.3555
X5.2118Y-3.2555
X5.2118Y-3.3555
T7
X5.8173Y-2.45
X5.8173Y-4.9697
X4.4Y-2.45
X5.6618Y-2.7803
X5.6618Y-4.6346
X4.4Y-4.9697
T4
G00X4.2588Y-3.324
M15
G01X4.2863Y-3.324
M16
G05
G00X4.2863Y-3.5996
M15
G01X4.2588Y-3.5996
M16
G05
T0
M30
