%TF.GenerationSoftware,KiCad,Pcbnew,(5.1.9-0-10_14)*%
%TF.CreationDate,2021-01-03T22:16:06+10:00*%
%TF.ProjectId,OpenRetroPad,4f70656e-5265-4747-926f-5061642e6b69,rev?*%
%TF.SameCoordinates,Original*%
%TF.FileFunction,Copper,L4,Bot*%
%TF.FilePolarity,Positive*%
%FSLAX46Y46*%
G04 Gerber Fmt 4.6, Leading zero omitted, Abs format (unit mm)*
G04 Created by KiCad (PCBNEW (5.1.9-0-10_14)) date 2021-01-03 22:16:06*
%MOMM*%
%LPD*%
G01*
G04 APERTURE LIST*
%TA.AperFunction,ComponentPad*%
%ADD10O,1.900000X1.200000*%
%TD*%
%TA.AperFunction,ComponentPad*%
%ADD11C,1.450000*%
%TD*%
%TA.AperFunction,ComponentPad*%
%ADD12O,1.700000X1.700000*%
%TD*%
%TA.AperFunction,ComponentPad*%
%ADD13R,1.700000X1.700000*%
%TD*%
%TA.AperFunction,SMDPad,CuDef*%
%ADD14C,0.100000*%
%TD*%
%TA.AperFunction,ComponentPad*%
%ADD15C,0.500000*%
%TD*%
%TA.AperFunction,ComponentPad*%
%ADD16C,0.800000*%
%TD*%
%TA.AperFunction,ComponentPad*%
%ADD17C,6.400000*%
%TD*%
%TA.AperFunction,ComponentPad*%
%ADD18C,4.000000*%
%TD*%
%TA.AperFunction,ComponentPad*%
%ADD19C,1.600000*%
%TD*%
%TA.AperFunction,ComponentPad*%
%ADD20R,1.600000X1.600000*%
%TD*%
%TA.AperFunction,ViaPad*%
%ADD21C,0.600000*%
%TD*%
%TA.AperFunction,Conductor*%
%ADD22C,0.203200*%
%TD*%
%TA.AperFunction,Conductor*%
%ADD23C,0.254000*%
%TD*%
%TA.AperFunction,Conductor*%
%ADD24C,0.100000*%
%TD*%
%TA.AperFunction,Conductor*%
%ADD25C,0.025400*%
%TD*%
G04 APERTURE END LIST*
D10*
%TO.P,J1,6*%
%TO.N,GND*%
X108522500Y-91430000D03*
X108522500Y-84430000D03*
D11*
X111222500Y-90430000D03*
X111222500Y-85430000D03*
%TD*%
D12*
%TO.P,J2,8*%
%TO.N,PF1*%
X132380000Y-82690000D03*
%TO.P,J2,6*%
%TO.N,PB2*%
X129840000Y-82690000D03*
%TO.P,J2,4*%
%TO.N,PB4*%
X127300000Y-82690000D03*
%TO.P,J2,2*%
%TO.N,+3V3*%
X124760000Y-82690000D03*
%TO.P,J2,7*%
%TO.N,PB3*%
X132380000Y-85230000D03*
%TO.P,J2,5*%
%TO.N,PB1*%
X129840000Y-85230000D03*
%TO.P,J2,3*%
%TO.N,PB5*%
X127300000Y-85230000D03*
D13*
%TO.P,J2,1*%
%TO.N,GND*%
X124760000Y-85230000D03*
%TD*%
%TA.AperFunction,SMDPad,CuDef*%
D14*
%TO.P,U2,45*%
%TO.N,GND*%
G36*
X122190854Y-101775666D02*
G01*
X125832454Y-98134066D01*
X129474054Y-101775666D01*
X125832454Y-105417266D01*
X122190854Y-101775666D01*
G37*
%TD.AperFunction*%
D15*
X125832454Y-105063713D03*
X125010442Y-104241701D03*
X124188431Y-103419689D03*
X123366419Y-102597678D03*
X122544407Y-101775666D03*
X126654466Y-104241701D03*
X125832454Y-103419689D03*
X125010442Y-102597678D03*
X124188431Y-101775666D03*
X123366419Y-100953654D03*
X127476477Y-103419689D03*
X126654466Y-102597678D03*
X125832454Y-101775666D03*
X125010442Y-100953654D03*
X124188431Y-100131643D03*
X128298489Y-102597678D03*
X127476477Y-101775666D03*
X126654466Y-100953654D03*
X125832454Y-100131643D03*
X125010442Y-99309631D03*
X129120501Y-101775666D03*
X128298489Y-100953654D03*
X127476477Y-100131643D03*
X126654466Y-99309631D03*
X125832454Y-98487619D03*
%TD*%
D16*
%TO.P,H4,1*%
%TO.N,N/C*%
X149457056Y-124532944D03*
X147760000Y-123830000D03*
X146062944Y-124532944D03*
X145360000Y-126230000D03*
X146062944Y-127927056D03*
X147760000Y-128630000D03*
X149457056Y-127927056D03*
X150160000Y-126230000D03*
D17*
X147760000Y-126230000D03*
%TD*%
D16*
%TO.P,H3,1*%
%TO.N,N/C*%
X113457056Y-124532944D03*
X111760000Y-123830000D03*
X110062944Y-124532944D03*
X109360000Y-126230000D03*
X110062944Y-127927056D03*
X111760000Y-128630000D03*
X113457056Y-127927056D03*
X114160000Y-126230000D03*
D17*
X111760000Y-126230000D03*
%TD*%
D16*
%TO.P,H2,1*%
%TO.N,N/C*%
X149457056Y-60532944D03*
X147760000Y-59830000D03*
X146062944Y-60532944D03*
X145360000Y-62230000D03*
X146062944Y-63927056D03*
X147760000Y-64630000D03*
X149457056Y-63927056D03*
X150160000Y-62230000D03*
D17*
X147760000Y-62230000D03*
%TD*%
D16*
%TO.P,H1,1*%
%TO.N,N/C*%
X113457056Y-60532944D03*
X111760000Y-59830000D03*
X110062944Y-60532944D03*
X109360000Y-62230000D03*
X110062944Y-63927056D03*
X111760000Y-64630000D03*
X113457056Y-63927056D03*
X114160000Y-62230000D03*
D17*
X111760000Y-62230000D03*
%TD*%
D18*
%TO.P,J3,0*%
%TO.N,GND*%
X143810000Y-70620000D03*
X143810000Y-117720000D03*
D19*
%TO.P,J3,25*%
%TO.N,+5V*%
X145230000Y-109405000D03*
%TO.P,J3,24*%
%TO.N,PD0*%
X145230000Y-106635000D03*
%TO.P,J3,23*%
%TO.N,PD2*%
X145230000Y-103865000D03*
%TO.P,J3,22*%
%TO.N,PD4*%
X145230000Y-101095000D03*
%TO.P,J3,21*%
%TO.N,PB4*%
X145230000Y-98325000D03*
%TO.P,J3,20*%
%TO.N,PB6*%
X145230000Y-95555000D03*
%TO.P,J3,19*%
%TO.N,PC6*%
X145230000Y-92785000D03*
%TO.P,J3,18*%
%TO.N,PF6*%
X145230000Y-90015000D03*
%TO.P,J3,17*%
%TO.N,PF4*%
X145230000Y-87245000D03*
%TO.P,J3,16*%
%TO.N,PB1*%
X145230000Y-84475000D03*
%TO.P,J3,15*%
%TO.N,PB3*%
X145230000Y-81705000D03*
%TO.P,J3,14*%
%TO.N,+5V*%
X145230000Y-78935000D03*
%TO.P,J3,13*%
%TO.N,GND*%
X142390000Y-110790000D03*
%TO.P,J3,12*%
%TO.N,+3V3*%
X142390000Y-108020000D03*
%TO.P,J3,11*%
%TO.N,PD1*%
X142390000Y-105250000D03*
%TO.P,J3,10*%
%TO.N,PD3*%
X142390000Y-102480000D03*
%TO.P,J3,9*%
%TO.N,PD7*%
X142390000Y-99710000D03*
%TO.P,J3,8*%
%TO.N,PB5*%
X142390000Y-96940000D03*
%TO.P,J3,7*%
%TO.N,Net-(J3-Pad7)*%
X142390000Y-94170000D03*
%TO.P,J3,6*%
%TO.N,PF7*%
X142390000Y-91400000D03*
%TO.P,J3,5*%
%TO.N,PF5*%
X142390000Y-88630000D03*
%TO.P,J3,4*%
%TO.N,PE6*%
X142390000Y-85860000D03*
%TO.P,J3,3*%
%TO.N,PB2*%
X142390000Y-83090000D03*
%TO.P,J3,2*%
%TO.N,+3V3*%
X142390000Y-80320000D03*
D20*
%TO.P,J3,1*%
%TO.N,GND*%
X142390000Y-77550000D03*
%TD*%
D21*
%TO.N,GND*%
X117348000Y-96520000D03*
X114046000Y-108204000D03*
X119126000Y-114046000D03*
X116840000Y-104139990D03*
X135636000Y-128016000D03*
X124460000Y-128016000D03*
X122682000Y-92709996D03*
X120904000Y-106426000D03*
X116332000Y-111506000D03*
X130048000Y-122174000D03*
X112014000Y-98044000D03*
X113860000Y-84030000D03*
X116052000Y-69622006D03*
%TO.N,+5V*%
X131318000Y-93472000D03*
X133858000Y-100076000D03*
X123952000Y-93980000D03*
X117866738Y-100030000D03*
X118110000Y-105410000D03*
X137160000Y-128016000D03*
X122936000Y-128016000D03*
X130810000Y-110951998D03*
X137922000Y-94742000D03*
X110236000Y-98044000D03*
X119824030Y-86642030D03*
X118410493Y-88183507D03*
%TO.N,+3V3*%
X121666000Y-72390000D03*
X121666000Y-73406000D03*
X121666000Y-74422000D03*
X121666000Y-75438000D03*
X110490000Y-72390000D03*
X110490000Y-73406000D03*
X110490000Y-74422000D03*
X110490000Y-75438000D03*
X111506000Y-75438000D03*
X111506000Y-74422000D03*
X111506000Y-73406000D03*
X111506000Y-72390000D03*
X120650000Y-75438000D03*
X120650000Y-74422000D03*
X120650000Y-73406000D03*
X120650000Y-72390000D03*
X116586000Y-79502000D03*
X115824000Y-78740000D03*
X116586000Y-77978000D03*
X115824000Y-77216000D03*
%TO.N,PB2*%
X119355972Y-92177972D03*
X117323972Y-94209972D03*
%TO.N,PB1*%
X119888000Y-92710000D03*
X117856000Y-94742000D03*
%TO.N,PB3*%
X118823943Y-91645943D03*
X116791943Y-93677943D03*
%TO.N,PE2*%
X133096000Y-122174000D03*
X131826000Y-103124000D03*
%TO.N,RESET*%
X120650000Y-103632000D03*
X127000000Y-122174000D03*
%TO.N,PF1*%
X128270000Y-97536000D03*
X125730000Y-87376000D03*
%TO.N,PC7*%
X131064000Y-103886000D03*
X131826000Y-113538000D03*
%TO.N,PB0*%
X121158000Y-99314000D03*
X126238000Y-114554000D03*
%TO.N,PD5*%
X126746000Y-107696000D03*
X130048000Y-113538000D03*
%TD*%
D22*
%TO.N,PB2*%
X131064000Y-83914000D02*
X129840000Y-82690000D01*
X131064000Y-85547922D02*
X131064000Y-83914000D01*
X136499610Y-86512390D02*
X132028468Y-86512390D01*
X132028468Y-86512390D02*
X131064000Y-85547922D01*
X139922000Y-83090000D02*
X136499610Y-86512390D01*
X142390000Y-83090000D02*
X139922000Y-83090000D01*
X119355972Y-92177972D02*
X117323972Y-94209972D01*
%TO.N,PB1*%
X119888000Y-92710000D02*
X117856000Y-94742000D01*
X131732000Y-87122000D02*
X129840000Y-85230000D01*
X137160000Y-87122000D02*
X131732000Y-87122000D01*
X139807000Y-84475000D02*
X137160000Y-87122000D01*
X145230000Y-84475000D02*
X139807000Y-84475000D01*
%TO.N,PB3*%
X118823943Y-91645943D02*
X116791943Y-93677943D01*
X136458040Y-85230000D02*
X132380000Y-85230000D01*
X139983040Y-81705000D02*
X136458040Y-85230000D01*
X145230000Y-81705000D02*
X139983040Y-81705000D01*
%TO.N,PB5*%
X139010000Y-96940000D02*
X127300000Y-85230000D01*
X142390000Y-96940000D02*
X139010000Y-96940000D01*
%TO.N,PB4*%
X125984000Y-84006000D02*
X127300000Y-82690000D01*
X125984000Y-85852000D02*
X125984000Y-84006000D01*
X138457000Y-98325000D02*
X125984000Y-85852000D01*
X145230000Y-98325000D02*
X138457000Y-98325000D01*
%TO.N,PE2*%
X133096000Y-122174000D02*
X133096000Y-104394000D01*
X133096000Y-104394000D02*
X131826000Y-103124000D01*
%TO.N,RESET*%
X127000000Y-109982000D02*
X127000000Y-122174000D01*
X120650000Y-103632000D02*
X127000000Y-109982000D01*
%TO.N,PF1*%
X128270000Y-89916000D02*
X125730000Y-87376000D01*
X128270000Y-97536000D02*
X128270000Y-89916000D01*
%TO.N,PC7*%
X131826000Y-104648000D02*
X131826000Y-113538000D01*
X131064000Y-103886000D02*
X131826000Y-104648000D01*
%TO.N,PB0*%
X119380000Y-101092000D02*
X119380000Y-107696000D01*
X119380000Y-107696000D02*
X126238000Y-114554000D01*
X121158000Y-99314000D02*
X119380000Y-101092000D01*
%TO.N,PD5*%
X126746000Y-107696000D02*
X130048000Y-110998000D01*
X130048000Y-110998000D02*
X130048000Y-113538000D01*
%TD*%
D23*
%TO.N,+3V3*%
X122047000Y-76327000D02*
X117094000Y-76327000D01*
X117069224Y-76329440D01*
X117045399Y-76336667D01*
X117023443Y-76348403D01*
X117004197Y-76364197D01*
X116988403Y-76383443D01*
X116976667Y-76405399D01*
X116969440Y-76429224D01*
X116967000Y-76454000D01*
X116967000Y-82359000D01*
X115443000Y-82359000D01*
X115443000Y-76454000D01*
X115440560Y-76429224D01*
X115433333Y-76405399D01*
X115421597Y-76383443D01*
X115405803Y-76364197D01*
X115386557Y-76348403D01*
X115364601Y-76336667D01*
X115340776Y-76329440D01*
X115316000Y-76327000D01*
X110109000Y-76327000D01*
X110109000Y-72009000D01*
X122047000Y-72009000D01*
X122047000Y-76327000D01*
%TA.AperFunction,Conductor*%
D24*
G36*
X122047000Y-76327000D02*
G01*
X117094000Y-76327000D01*
X117069224Y-76329440D01*
X117045399Y-76336667D01*
X117023443Y-76348403D01*
X117004197Y-76364197D01*
X116988403Y-76383443D01*
X116976667Y-76405399D01*
X116969440Y-76429224D01*
X116967000Y-76454000D01*
X116967000Y-82359000D01*
X115443000Y-82359000D01*
X115443000Y-76454000D01*
X115440560Y-76429224D01*
X115433333Y-76405399D01*
X115421597Y-76383443D01*
X115405803Y-76364197D01*
X115386557Y-76348403D01*
X115364601Y-76336667D01*
X115340776Y-76329440D01*
X115316000Y-76327000D01*
X110109000Y-76327000D01*
X110109000Y-72009000D01*
X122047000Y-72009000D01*
X122047000Y-76327000D01*
G37*
%TD.AperFunction*%
%TD*%
D23*
%TO.N,GND*%
X112333000Y-92453000D02*
X107166000Y-92453000D01*
X107166000Y-91707607D01*
X107231598Y-91707607D01*
X107286271Y-91869418D01*
X107389026Y-92033869D01*
X107521889Y-92175114D01*
X107679755Y-92287725D01*
X107856557Y-92367374D01*
X108045500Y-92411000D01*
X108395500Y-92411000D01*
X108395500Y-91557000D01*
X108649500Y-91557000D01*
X108649500Y-92411000D01*
X108999500Y-92411000D01*
X109188443Y-92367374D01*
X109365245Y-92287725D01*
X109523111Y-92175114D01*
X109655974Y-92033869D01*
X109758729Y-91869418D01*
X109813402Y-91707607D01*
X109749098Y-91557000D01*
X108649500Y-91557000D01*
X108395500Y-91557000D01*
X107295902Y-91557000D01*
X107231598Y-91707607D01*
X107166000Y-91707607D01*
X107166000Y-91152393D01*
X107231598Y-91152393D01*
X107295902Y-91303000D01*
X108395500Y-91303000D01*
X108395500Y-90449000D01*
X108649500Y-90449000D01*
X108649500Y-91303000D01*
X109749098Y-91303000D01*
X109779130Y-91232660D01*
X110599445Y-91232660D01*
X110676288Y-91397861D01*
X110875604Y-91485824D01*
X111088251Y-91533213D01*
X111306057Y-91538205D01*
X111520652Y-91500611D01*
X111723789Y-91421872D01*
X111768712Y-91397861D01*
X111845555Y-91232660D01*
X111222500Y-90609605D01*
X110599445Y-91232660D01*
X109779130Y-91232660D01*
X109813402Y-91152393D01*
X109758729Y-90990582D01*
X109655974Y-90826131D01*
X109523111Y-90684886D01*
X109365245Y-90572275D01*
X109234905Y-90513557D01*
X110114295Y-90513557D01*
X110151889Y-90728152D01*
X110230628Y-90931289D01*
X110254639Y-90976212D01*
X110419840Y-91053055D01*
X111042895Y-90430000D01*
X111402105Y-90430000D01*
X112025160Y-91053055D01*
X112190361Y-90976212D01*
X112278324Y-90776896D01*
X112325713Y-90564249D01*
X112330705Y-90346443D01*
X112293111Y-90131848D01*
X112214372Y-89928711D01*
X112190361Y-89883788D01*
X112025160Y-89806945D01*
X111402105Y-90430000D01*
X111042895Y-90430000D01*
X110419840Y-89806945D01*
X110254639Y-89883788D01*
X110166676Y-90083104D01*
X110119287Y-90295751D01*
X110114295Y-90513557D01*
X109234905Y-90513557D01*
X109188443Y-90492626D01*
X108999500Y-90449000D01*
X108649500Y-90449000D01*
X108395500Y-90449000D01*
X108045500Y-90449000D01*
X107856557Y-90492626D01*
X107679755Y-90572275D01*
X107521889Y-90684886D01*
X107389026Y-90826131D01*
X107286271Y-90990582D01*
X107231598Y-91152393D01*
X107166000Y-91152393D01*
X107166000Y-89627340D01*
X110599445Y-89627340D01*
X111222500Y-90250395D01*
X111845555Y-89627340D01*
X111768712Y-89462139D01*
X111569396Y-89374176D01*
X111356749Y-89326787D01*
X111138943Y-89321795D01*
X110924348Y-89359389D01*
X110721211Y-89438128D01*
X110676288Y-89462139D01*
X110599445Y-89627340D01*
X107166000Y-89627340D01*
X107166000Y-86232660D01*
X110599445Y-86232660D01*
X110676288Y-86397861D01*
X110875604Y-86485824D01*
X111088251Y-86533213D01*
X111306057Y-86538205D01*
X111520652Y-86500611D01*
X111723789Y-86421872D01*
X111768712Y-86397861D01*
X111845555Y-86232660D01*
X111222500Y-85609605D01*
X110599445Y-86232660D01*
X107166000Y-86232660D01*
X107166000Y-85513557D01*
X110114295Y-85513557D01*
X110151889Y-85728152D01*
X110230628Y-85931289D01*
X110254639Y-85976212D01*
X110419840Y-86053055D01*
X111042895Y-85430000D01*
X111402105Y-85430000D01*
X112025160Y-86053055D01*
X112190361Y-85976212D01*
X112278324Y-85776896D01*
X112325713Y-85564249D01*
X112330705Y-85346443D01*
X112293111Y-85131848D01*
X112214372Y-84928711D01*
X112190361Y-84883788D01*
X112025160Y-84806945D01*
X111402105Y-85430000D01*
X111042895Y-85430000D01*
X110419840Y-84806945D01*
X110254639Y-84883788D01*
X110166676Y-85083104D01*
X110119287Y-85295751D01*
X110114295Y-85513557D01*
X107166000Y-85513557D01*
X107166000Y-84707607D01*
X107231598Y-84707607D01*
X107286271Y-84869418D01*
X107389026Y-85033869D01*
X107521889Y-85175114D01*
X107679755Y-85287725D01*
X107856557Y-85367374D01*
X108045500Y-85411000D01*
X108395500Y-85411000D01*
X108395500Y-84557000D01*
X108649500Y-84557000D01*
X108649500Y-85411000D01*
X108999500Y-85411000D01*
X109188443Y-85367374D01*
X109365245Y-85287725D01*
X109523111Y-85175114D01*
X109655974Y-85033869D01*
X109758729Y-84869418D01*
X109813402Y-84707607D01*
X109779131Y-84627340D01*
X110599445Y-84627340D01*
X111222500Y-85250395D01*
X111845555Y-84627340D01*
X111768712Y-84462139D01*
X111569396Y-84374176D01*
X111356749Y-84326787D01*
X111138943Y-84321795D01*
X110924348Y-84359389D01*
X110721211Y-84438128D01*
X110676288Y-84462139D01*
X110599445Y-84627340D01*
X109779131Y-84627340D01*
X109749098Y-84557000D01*
X108649500Y-84557000D01*
X108395500Y-84557000D01*
X107295902Y-84557000D01*
X107231598Y-84707607D01*
X107166000Y-84707607D01*
X107166000Y-84152393D01*
X107231598Y-84152393D01*
X107295902Y-84303000D01*
X108395500Y-84303000D01*
X108395500Y-83449000D01*
X108649500Y-83449000D01*
X108649500Y-84303000D01*
X109749098Y-84303000D01*
X109813402Y-84152393D01*
X109758729Y-83990582D01*
X109655974Y-83826131D01*
X109523111Y-83684886D01*
X109365245Y-83572275D01*
X109188443Y-83492626D01*
X108999500Y-83449000D01*
X108649500Y-83449000D01*
X108395500Y-83449000D01*
X108045500Y-83449000D01*
X107856557Y-83492626D01*
X107679755Y-83572275D01*
X107521889Y-83684886D01*
X107389026Y-83826131D01*
X107286271Y-83990582D01*
X107231598Y-84152393D01*
X107166000Y-84152393D01*
X107166000Y-83257000D01*
X112333000Y-83257000D01*
X112333000Y-92453000D01*
%TA.AperFunction,Conductor*%
D24*
G36*
X112333000Y-92453000D02*
G01*
X107166000Y-92453000D01*
X107166000Y-91707607D01*
X107231598Y-91707607D01*
X107286271Y-91869418D01*
X107389026Y-92033869D01*
X107521889Y-92175114D01*
X107679755Y-92287725D01*
X107856557Y-92367374D01*
X108045500Y-92411000D01*
X108395500Y-92411000D01*
X108395500Y-91557000D01*
X108649500Y-91557000D01*
X108649500Y-92411000D01*
X108999500Y-92411000D01*
X109188443Y-92367374D01*
X109365245Y-92287725D01*
X109523111Y-92175114D01*
X109655974Y-92033869D01*
X109758729Y-91869418D01*
X109813402Y-91707607D01*
X109749098Y-91557000D01*
X108649500Y-91557000D01*
X108395500Y-91557000D01*
X107295902Y-91557000D01*
X107231598Y-91707607D01*
X107166000Y-91707607D01*
X107166000Y-91152393D01*
X107231598Y-91152393D01*
X107295902Y-91303000D01*
X108395500Y-91303000D01*
X108395500Y-90449000D01*
X108649500Y-90449000D01*
X108649500Y-91303000D01*
X109749098Y-91303000D01*
X109779130Y-91232660D01*
X110599445Y-91232660D01*
X110676288Y-91397861D01*
X110875604Y-91485824D01*
X111088251Y-91533213D01*
X111306057Y-91538205D01*
X111520652Y-91500611D01*
X111723789Y-91421872D01*
X111768712Y-91397861D01*
X111845555Y-91232660D01*
X111222500Y-90609605D01*
X110599445Y-91232660D01*
X109779130Y-91232660D01*
X109813402Y-91152393D01*
X109758729Y-90990582D01*
X109655974Y-90826131D01*
X109523111Y-90684886D01*
X109365245Y-90572275D01*
X109234905Y-90513557D01*
X110114295Y-90513557D01*
X110151889Y-90728152D01*
X110230628Y-90931289D01*
X110254639Y-90976212D01*
X110419840Y-91053055D01*
X111042895Y-90430000D01*
X111402105Y-90430000D01*
X112025160Y-91053055D01*
X112190361Y-90976212D01*
X112278324Y-90776896D01*
X112325713Y-90564249D01*
X112330705Y-90346443D01*
X112293111Y-90131848D01*
X112214372Y-89928711D01*
X112190361Y-89883788D01*
X112025160Y-89806945D01*
X111402105Y-90430000D01*
X111042895Y-90430000D01*
X110419840Y-89806945D01*
X110254639Y-89883788D01*
X110166676Y-90083104D01*
X110119287Y-90295751D01*
X110114295Y-90513557D01*
X109234905Y-90513557D01*
X109188443Y-90492626D01*
X108999500Y-90449000D01*
X108649500Y-90449000D01*
X108395500Y-90449000D01*
X108045500Y-90449000D01*
X107856557Y-90492626D01*
X107679755Y-90572275D01*
X107521889Y-90684886D01*
X107389026Y-90826131D01*
X107286271Y-90990582D01*
X107231598Y-91152393D01*
X107166000Y-91152393D01*
X107166000Y-89627340D01*
X110599445Y-89627340D01*
X111222500Y-90250395D01*
X111845555Y-89627340D01*
X111768712Y-89462139D01*
X111569396Y-89374176D01*
X111356749Y-89326787D01*
X111138943Y-89321795D01*
X110924348Y-89359389D01*
X110721211Y-89438128D01*
X110676288Y-89462139D01*
X110599445Y-89627340D01*
X107166000Y-89627340D01*
X107166000Y-86232660D01*
X110599445Y-86232660D01*
X110676288Y-86397861D01*
X110875604Y-86485824D01*
X111088251Y-86533213D01*
X111306057Y-86538205D01*
X111520652Y-86500611D01*
X111723789Y-86421872D01*
X111768712Y-86397861D01*
X111845555Y-86232660D01*
X111222500Y-85609605D01*
X110599445Y-86232660D01*
X107166000Y-86232660D01*
X107166000Y-85513557D01*
X110114295Y-85513557D01*
X110151889Y-85728152D01*
X110230628Y-85931289D01*
X110254639Y-85976212D01*
X110419840Y-86053055D01*
X111042895Y-85430000D01*
X111402105Y-85430000D01*
X112025160Y-86053055D01*
X112190361Y-85976212D01*
X112278324Y-85776896D01*
X112325713Y-85564249D01*
X112330705Y-85346443D01*
X112293111Y-85131848D01*
X112214372Y-84928711D01*
X112190361Y-84883788D01*
X112025160Y-84806945D01*
X111402105Y-85430000D01*
X111042895Y-85430000D01*
X110419840Y-84806945D01*
X110254639Y-84883788D01*
X110166676Y-85083104D01*
X110119287Y-85295751D01*
X110114295Y-85513557D01*
X107166000Y-85513557D01*
X107166000Y-84707607D01*
X107231598Y-84707607D01*
X107286271Y-84869418D01*
X107389026Y-85033869D01*
X107521889Y-85175114D01*
X107679755Y-85287725D01*
X107856557Y-85367374D01*
X108045500Y-85411000D01*
X108395500Y-85411000D01*
X108395500Y-84557000D01*
X108649500Y-84557000D01*
X108649500Y-85411000D01*
X108999500Y-85411000D01*
X109188443Y-85367374D01*
X109365245Y-85287725D01*
X109523111Y-85175114D01*
X109655974Y-85033869D01*
X109758729Y-84869418D01*
X109813402Y-84707607D01*
X109779131Y-84627340D01*
X110599445Y-84627340D01*
X111222500Y-85250395D01*
X111845555Y-84627340D01*
X111768712Y-84462139D01*
X111569396Y-84374176D01*
X111356749Y-84326787D01*
X111138943Y-84321795D01*
X110924348Y-84359389D01*
X110721211Y-84438128D01*
X110676288Y-84462139D01*
X110599445Y-84627340D01*
X109779131Y-84627340D01*
X109749098Y-84557000D01*
X108649500Y-84557000D01*
X108395500Y-84557000D01*
X107295902Y-84557000D01*
X107231598Y-84707607D01*
X107166000Y-84707607D01*
X107166000Y-84152393D01*
X107231598Y-84152393D01*
X107295902Y-84303000D01*
X108395500Y-84303000D01*
X108395500Y-83449000D01*
X108649500Y-83449000D01*
X108649500Y-84303000D01*
X109749098Y-84303000D01*
X109813402Y-84152393D01*
X109758729Y-83990582D01*
X109655974Y-83826131D01*
X109523111Y-83684886D01*
X109365245Y-83572275D01*
X109188443Y-83492626D01*
X108999500Y-83449000D01*
X108649500Y-83449000D01*
X108395500Y-83449000D01*
X108045500Y-83449000D01*
X107856557Y-83492626D01*
X107679755Y-83572275D01*
X107521889Y-83684886D01*
X107389026Y-83826131D01*
X107286271Y-83990582D01*
X107231598Y-84152393D01*
X107166000Y-84152393D01*
X107166000Y-83257000D01*
X112333000Y-83257000D01*
X112333000Y-92453000D01*
G37*
%TD.AperFunction*%
%TD*%
D25*
%TO.N,PB2*%
X130677486Y-82708300D02*
X130680476Y-82834593D01*
X130680529Y-82835489D01*
X130692938Y-82966519D01*
X130693063Y-82967464D01*
X130714666Y-83093734D01*
X130714873Y-83094712D01*
X130745671Y-83216219D01*
X130745967Y-83217215D01*
X130785958Y-83333962D01*
X130786345Y-83334953D01*
X130835531Y-83446938D01*
X130836005Y-83447904D01*
X130894384Y-83555127D01*
X130894936Y-83556046D01*
X130962510Y-83658508D01*
X130963126Y-83659363D01*
X131039894Y-83757064D01*
X131040557Y-83757840D01*
X131118226Y-83841813D01*
X130991813Y-83968226D01*
X130907840Y-83890557D01*
X130907064Y-83889894D01*
X130809363Y-83813126D01*
X130808508Y-83812510D01*
X130706046Y-83744936D01*
X130705127Y-83744384D01*
X130597904Y-83686005D01*
X130596938Y-83685531D01*
X130484953Y-83636345D01*
X130483962Y-83635958D01*
X130367215Y-83595967D01*
X130366219Y-83595671D01*
X130244712Y-83564873D01*
X130243734Y-83564666D01*
X130117464Y-83543063D01*
X130116519Y-83542938D01*
X129985489Y-83530529D01*
X129984593Y-83530476D01*
X129858300Y-83527486D01*
X129557459Y-82407459D01*
X130677486Y-82708300D01*
%TA.AperFunction,Conductor*%
D24*
G36*
X130677486Y-82708300D02*
G01*
X130680476Y-82834593D01*
X130680529Y-82835489D01*
X130692938Y-82966519D01*
X130693063Y-82967464D01*
X130714666Y-83093734D01*
X130714873Y-83094712D01*
X130745671Y-83216219D01*
X130745967Y-83217215D01*
X130785958Y-83333962D01*
X130786345Y-83334953D01*
X130835531Y-83446938D01*
X130836005Y-83447904D01*
X130894384Y-83555127D01*
X130894936Y-83556046D01*
X130962510Y-83658508D01*
X130963126Y-83659363D01*
X131039894Y-83757064D01*
X131040557Y-83757840D01*
X131118226Y-83841813D01*
X130991813Y-83968226D01*
X130907840Y-83890557D01*
X130907064Y-83889894D01*
X130809363Y-83813126D01*
X130808508Y-83812510D01*
X130706046Y-83744936D01*
X130705127Y-83744384D01*
X130597904Y-83686005D01*
X130596938Y-83685531D01*
X130484953Y-83636345D01*
X130483962Y-83635958D01*
X130367215Y-83595967D01*
X130366219Y-83595671D01*
X130244712Y-83564873D01*
X130243734Y-83564666D01*
X130117464Y-83543063D01*
X130116519Y-83542938D01*
X129985489Y-83530529D01*
X129984593Y-83530476D01*
X129858300Y-83527486D01*
X129557459Y-82407459D01*
X130677486Y-82708300D01*
G37*
%TD.AperFunction*%
%TD*%
D25*
%TO.N,PB2*%
X142764574Y-83090000D02*
X141820543Y-83634271D01*
X141735390Y-83553679D01*
X141734647Y-83553029D01*
X141638299Y-83475101D01*
X141637475Y-83474488D01*
X141536805Y-83405728D01*
X141535911Y-83405170D01*
X141430918Y-83345578D01*
X141429969Y-83345091D01*
X141320654Y-83294667D01*
X141319668Y-83294261D01*
X141206030Y-83253005D01*
X141205030Y-83252688D01*
X141087070Y-83220600D01*
X141086076Y-83220372D01*
X140963794Y-83197452D01*
X140962825Y-83197309D01*
X140836221Y-83183557D01*
X140835294Y-83183491D01*
X140716623Y-83179337D01*
X140716623Y-83000663D01*
X140835294Y-82996508D01*
X140836221Y-82996442D01*
X140962825Y-82982690D01*
X140963794Y-82982547D01*
X141086076Y-82959627D01*
X141087070Y-82959399D01*
X141205030Y-82927311D01*
X141206030Y-82926994D01*
X141319668Y-82885738D01*
X141320654Y-82885332D01*
X141429969Y-82834908D01*
X141430918Y-82834421D01*
X141535911Y-82774829D01*
X141536805Y-82774271D01*
X141637475Y-82705511D01*
X141638299Y-82704898D01*
X141734647Y-82626970D01*
X141735390Y-82626320D01*
X141820542Y-82545729D01*
X142764574Y-83090000D01*
%TA.AperFunction,Conductor*%
D24*
G36*
X142764574Y-83090000D02*
G01*
X141820543Y-83634271D01*
X141735390Y-83553679D01*
X141734647Y-83553029D01*
X141638299Y-83475101D01*
X141637475Y-83474488D01*
X141536805Y-83405728D01*
X141535911Y-83405170D01*
X141430918Y-83345578D01*
X141429969Y-83345091D01*
X141320654Y-83294667D01*
X141319668Y-83294261D01*
X141206030Y-83253005D01*
X141205030Y-83252688D01*
X141087070Y-83220600D01*
X141086076Y-83220372D01*
X140963794Y-83197452D01*
X140962825Y-83197309D01*
X140836221Y-83183557D01*
X140835294Y-83183491D01*
X140716623Y-83179337D01*
X140716623Y-83000663D01*
X140835294Y-82996508D01*
X140836221Y-82996442D01*
X140962825Y-82982690D01*
X140963794Y-82982547D01*
X141086076Y-82959627D01*
X141087070Y-82959399D01*
X141205030Y-82927311D01*
X141206030Y-82926994D01*
X141319668Y-82885738D01*
X141320654Y-82885332D01*
X141429969Y-82834908D01*
X141430918Y-82834421D01*
X141535911Y-82774829D01*
X141536805Y-82774271D01*
X141637475Y-82705511D01*
X141638299Y-82704898D01*
X141734647Y-82626970D01*
X141735390Y-82626320D01*
X141820542Y-82545729D01*
X142764574Y-83090000D01*
G37*
%TD.AperFunction*%
%TD*%
D25*
%TO.N,PB2*%
X119343162Y-92465524D02*
X119322659Y-92466093D01*
X119321668Y-92466159D01*
X119292503Y-92469263D01*
X119291482Y-92469414D01*
X119263112Y-92474790D01*
X119262083Y-92475030D01*
X119234507Y-92482677D01*
X119233490Y-92483006D01*
X119206708Y-92492925D01*
X119205726Y-92493336D01*
X119179739Y-92505526D01*
X119178809Y-92506010D01*
X119153616Y-92520472D01*
X119152756Y-92521013D01*
X119128357Y-92537747D01*
X119127575Y-92538328D01*
X119103970Y-92557333D01*
X119103272Y-92557938D01*
X119089432Y-92570848D01*
X118963095Y-92444511D01*
X118976005Y-92430671D01*
X118976610Y-92429973D01*
X118995616Y-92406368D01*
X118996198Y-92405586D01*
X119012931Y-92381187D01*
X119013471Y-92380327D01*
X119027933Y-92355134D01*
X119028417Y-92354205D01*
X119040608Y-92328218D01*
X119041020Y-92327234D01*
X119050938Y-92300452D01*
X119051266Y-92299436D01*
X119058914Y-92271860D01*
X119059154Y-92270830D01*
X119064529Y-92242460D01*
X119064680Y-92241440D01*
X119067784Y-92212275D01*
X119067850Y-92211284D01*
X119068420Y-92190783D01*
X119444059Y-92089885D01*
X119343162Y-92465524D01*
%TA.AperFunction,Conductor*%
D24*
G36*
X119343162Y-92465524D02*
G01*
X119322659Y-92466093D01*
X119321668Y-92466159D01*
X119292503Y-92469263D01*
X119291482Y-92469414D01*
X119263112Y-92474790D01*
X119262083Y-92475030D01*
X119234507Y-92482677D01*
X119233490Y-92483006D01*
X119206708Y-92492925D01*
X119205726Y-92493336D01*
X119179739Y-92505526D01*
X119178809Y-92506010D01*
X119153616Y-92520472D01*
X119152756Y-92521013D01*
X119128357Y-92537747D01*
X119127575Y-92538328D01*
X119103970Y-92557333D01*
X119103272Y-92557938D01*
X119089432Y-92570848D01*
X118963095Y-92444511D01*
X118976005Y-92430671D01*
X118976610Y-92429973D01*
X118995616Y-92406368D01*
X118996198Y-92405586D01*
X119012931Y-92381187D01*
X119013471Y-92380327D01*
X119027933Y-92355134D01*
X119028417Y-92354205D01*
X119040608Y-92328218D01*
X119041020Y-92327234D01*
X119050938Y-92300452D01*
X119051266Y-92299436D01*
X119058914Y-92271860D01*
X119059154Y-92270830D01*
X119064529Y-92242460D01*
X119064680Y-92241440D01*
X119067784Y-92212275D01*
X119067850Y-92211284D01*
X119068420Y-92190783D01*
X119444059Y-92089885D01*
X119343162Y-92465524D01*
G37*
%TD.AperFunction*%
%TD*%
D25*
%TO.N,PB2*%
X117716848Y-93943432D02*
X117703938Y-93957272D01*
X117703333Y-93957970D01*
X117684328Y-93981575D01*
X117683747Y-93982357D01*
X117667013Y-94006756D01*
X117666472Y-94007616D01*
X117652010Y-94032809D01*
X117651526Y-94033739D01*
X117639336Y-94059726D01*
X117638925Y-94060708D01*
X117629006Y-94087490D01*
X117628677Y-94088507D01*
X117621030Y-94116083D01*
X117620790Y-94117112D01*
X117615414Y-94145482D01*
X117615263Y-94146503D01*
X117612159Y-94175668D01*
X117612093Y-94176659D01*
X117611524Y-94197162D01*
X117235885Y-94298059D01*
X117336783Y-93922420D01*
X117357284Y-93921850D01*
X117358275Y-93921784D01*
X117387440Y-93918680D01*
X117388460Y-93918529D01*
X117416830Y-93913154D01*
X117417860Y-93912914D01*
X117445436Y-93905266D01*
X117446452Y-93904938D01*
X117473234Y-93895020D01*
X117474218Y-93894608D01*
X117500205Y-93882417D01*
X117501134Y-93881933D01*
X117526327Y-93867471D01*
X117527187Y-93866931D01*
X117551586Y-93850198D01*
X117552368Y-93849616D01*
X117575973Y-93830610D01*
X117576671Y-93830005D01*
X117590511Y-93817095D01*
X117716848Y-93943432D01*
%TA.AperFunction,Conductor*%
D24*
G36*
X117716848Y-93943432D02*
G01*
X117703938Y-93957272D01*
X117703333Y-93957970D01*
X117684328Y-93981575D01*
X117683747Y-93982357D01*
X117667013Y-94006756D01*
X117666472Y-94007616D01*
X117652010Y-94032809D01*
X117651526Y-94033739D01*
X117639336Y-94059726D01*
X117638925Y-94060708D01*
X117629006Y-94087490D01*
X117628677Y-94088507D01*
X117621030Y-94116083D01*
X117620790Y-94117112D01*
X117615414Y-94145482D01*
X117615263Y-94146503D01*
X117612159Y-94175668D01*
X117612093Y-94176659D01*
X117611524Y-94197162D01*
X117235885Y-94298059D01*
X117336783Y-93922420D01*
X117357284Y-93921850D01*
X117358275Y-93921784D01*
X117387440Y-93918680D01*
X117388460Y-93918529D01*
X117416830Y-93913154D01*
X117417860Y-93912914D01*
X117445436Y-93905266D01*
X117446452Y-93904938D01*
X117473234Y-93895020D01*
X117474218Y-93894608D01*
X117500205Y-93882417D01*
X117501134Y-93881933D01*
X117526327Y-93867471D01*
X117527187Y-93866931D01*
X117551586Y-93850198D01*
X117552368Y-93849616D01*
X117575973Y-93830610D01*
X117576671Y-93830005D01*
X117590511Y-93817095D01*
X117716848Y-93943432D01*
G37*
%TD.AperFunction*%
%TD*%
D25*
%TO.N,PB1*%
X119875190Y-92997552D02*
X119854687Y-92998121D01*
X119853696Y-92998187D01*
X119824531Y-93001291D01*
X119823510Y-93001442D01*
X119795140Y-93006818D01*
X119794111Y-93007058D01*
X119766535Y-93014705D01*
X119765518Y-93015034D01*
X119738736Y-93024953D01*
X119737754Y-93025364D01*
X119711767Y-93037554D01*
X119710837Y-93038038D01*
X119685644Y-93052500D01*
X119684784Y-93053041D01*
X119660385Y-93069775D01*
X119659603Y-93070356D01*
X119635998Y-93089361D01*
X119635300Y-93089966D01*
X119621460Y-93102876D01*
X119495123Y-92976539D01*
X119508033Y-92962699D01*
X119508638Y-92962001D01*
X119527644Y-92938396D01*
X119528226Y-92937614D01*
X119544959Y-92913215D01*
X119545499Y-92912355D01*
X119559961Y-92887162D01*
X119560445Y-92886233D01*
X119572636Y-92860246D01*
X119573048Y-92859262D01*
X119582966Y-92832480D01*
X119583294Y-92831464D01*
X119590941Y-92803888D01*
X119591181Y-92802859D01*
X119596557Y-92774489D01*
X119596708Y-92773468D01*
X119599812Y-92744303D01*
X119599878Y-92743312D01*
X119600448Y-92722811D01*
X119976087Y-92621913D01*
X119875190Y-92997552D01*
%TA.AperFunction,Conductor*%
D24*
G36*
X119875190Y-92997552D02*
G01*
X119854687Y-92998121D01*
X119853696Y-92998187D01*
X119824531Y-93001291D01*
X119823510Y-93001442D01*
X119795140Y-93006818D01*
X119794111Y-93007058D01*
X119766535Y-93014705D01*
X119765518Y-93015034D01*
X119738736Y-93024953D01*
X119737754Y-93025364D01*
X119711767Y-93037554D01*
X119710837Y-93038038D01*
X119685644Y-93052500D01*
X119684784Y-93053041D01*
X119660385Y-93069775D01*
X119659603Y-93070356D01*
X119635998Y-93089361D01*
X119635300Y-93089966D01*
X119621460Y-93102876D01*
X119495123Y-92976539D01*
X119508033Y-92962699D01*
X119508638Y-92962001D01*
X119527644Y-92938396D01*
X119528226Y-92937614D01*
X119544959Y-92913215D01*
X119545499Y-92912355D01*
X119559961Y-92887162D01*
X119560445Y-92886233D01*
X119572636Y-92860246D01*
X119573048Y-92859262D01*
X119582966Y-92832480D01*
X119583294Y-92831464D01*
X119590941Y-92803888D01*
X119591181Y-92802859D01*
X119596557Y-92774489D01*
X119596708Y-92773468D01*
X119599812Y-92744303D01*
X119599878Y-92743312D01*
X119600448Y-92722811D01*
X119976087Y-92621913D01*
X119875190Y-92997552D01*
G37*
%TD.AperFunction*%
%TD*%
D25*
%TO.N,PB1*%
X118248876Y-94475460D02*
X118235966Y-94489300D01*
X118235361Y-94489998D01*
X118216356Y-94513603D01*
X118215775Y-94514385D01*
X118199041Y-94538784D01*
X118198500Y-94539644D01*
X118184038Y-94564837D01*
X118183554Y-94565767D01*
X118171364Y-94591754D01*
X118170953Y-94592736D01*
X118161034Y-94619518D01*
X118160705Y-94620535D01*
X118153057Y-94648111D01*
X118152817Y-94649141D01*
X118147442Y-94677511D01*
X118147291Y-94678531D01*
X118144187Y-94707696D01*
X118144121Y-94708687D01*
X118143552Y-94729190D01*
X117767913Y-94830087D01*
X117868811Y-94454448D01*
X117889312Y-94453878D01*
X117890303Y-94453812D01*
X117919468Y-94450708D01*
X117920488Y-94450557D01*
X117948858Y-94445182D01*
X117949888Y-94444942D01*
X117977464Y-94437294D01*
X117978480Y-94436966D01*
X118005262Y-94427048D01*
X118006246Y-94426636D01*
X118032233Y-94414445D01*
X118033162Y-94413961D01*
X118058355Y-94399499D01*
X118059215Y-94398959D01*
X118083614Y-94382226D01*
X118084396Y-94381644D01*
X118108001Y-94362638D01*
X118108699Y-94362033D01*
X118122539Y-94349123D01*
X118248876Y-94475460D01*
%TA.AperFunction,Conductor*%
D24*
G36*
X118248876Y-94475460D02*
G01*
X118235966Y-94489300D01*
X118235361Y-94489998D01*
X118216356Y-94513603D01*
X118215775Y-94514385D01*
X118199041Y-94538784D01*
X118198500Y-94539644D01*
X118184038Y-94564837D01*
X118183554Y-94565767D01*
X118171364Y-94591754D01*
X118170953Y-94592736D01*
X118161034Y-94619518D01*
X118160705Y-94620535D01*
X118153057Y-94648111D01*
X118152817Y-94649141D01*
X118147442Y-94677511D01*
X118147291Y-94678531D01*
X118144187Y-94707696D01*
X118144121Y-94708687D01*
X118143552Y-94729190D01*
X117767913Y-94830087D01*
X117868811Y-94454448D01*
X117889312Y-94453878D01*
X117890303Y-94453812D01*
X117919468Y-94450708D01*
X117920488Y-94450557D01*
X117948858Y-94445182D01*
X117949888Y-94444942D01*
X117977464Y-94437294D01*
X117978480Y-94436966D01*
X118005262Y-94427048D01*
X118006246Y-94426636D01*
X118032233Y-94414445D01*
X118033162Y-94413961D01*
X118058355Y-94399499D01*
X118059215Y-94398959D01*
X118083614Y-94382226D01*
X118084396Y-94381644D01*
X118108001Y-94362638D01*
X118108699Y-94362033D01*
X118122539Y-94349123D01*
X118248876Y-94475460D01*
G37*
%TD.AperFunction*%
%TD*%
D25*
%TO.N,PB1*%
X130677522Y-85248310D02*
X130681013Y-85375177D01*
X130681078Y-85376163D01*
X130695095Y-85508801D01*
X130695244Y-85509816D01*
X130719527Y-85638765D01*
X130719765Y-85639792D01*
X130754313Y-85765051D01*
X130754640Y-85766067D01*
X130799455Y-85887637D01*
X130799865Y-85888620D01*
X130854946Y-86006500D01*
X130855429Y-86007432D01*
X130920775Y-86121622D01*
X130921317Y-86122486D01*
X130996929Y-86232987D01*
X130997512Y-86233773D01*
X131083390Y-86340585D01*
X131083999Y-86341288D01*
X131171781Y-86435441D01*
X131045441Y-86561781D01*
X130951288Y-86473999D01*
X130950585Y-86473390D01*
X130843773Y-86387512D01*
X130842987Y-86386929D01*
X130732486Y-86311317D01*
X130731622Y-86310775D01*
X130617432Y-86245429D01*
X130616500Y-86244946D01*
X130498620Y-86189865D01*
X130497637Y-86189455D01*
X130376067Y-86144640D01*
X130375051Y-86144313D01*
X130249792Y-86109765D01*
X130248765Y-86109527D01*
X130119816Y-86085244D01*
X130118801Y-86085095D01*
X129986163Y-86071078D01*
X129985177Y-86071013D01*
X129858310Y-86067522D01*
X129557459Y-84947459D01*
X130677522Y-85248310D01*
%TA.AperFunction,Conductor*%
D24*
G36*
X130677522Y-85248310D02*
G01*
X130681013Y-85375177D01*
X130681078Y-85376163D01*
X130695095Y-85508801D01*
X130695244Y-85509816D01*
X130719527Y-85638765D01*
X130719765Y-85639792D01*
X130754313Y-85765051D01*
X130754640Y-85766067D01*
X130799455Y-85887637D01*
X130799865Y-85888620D01*
X130854946Y-86006500D01*
X130855429Y-86007432D01*
X130920775Y-86121622D01*
X130921317Y-86122486D01*
X130996929Y-86232987D01*
X130997512Y-86233773D01*
X131083390Y-86340585D01*
X131083999Y-86341288D01*
X131171781Y-86435441D01*
X131045441Y-86561781D01*
X130951288Y-86473999D01*
X130950585Y-86473390D01*
X130843773Y-86387512D01*
X130842987Y-86386929D01*
X130732486Y-86311317D01*
X130731622Y-86310775D01*
X130617432Y-86245429D01*
X130616500Y-86244946D01*
X130498620Y-86189865D01*
X130497637Y-86189455D01*
X130376067Y-86144640D01*
X130375051Y-86144313D01*
X130249792Y-86109765D01*
X130248765Y-86109527D01*
X130119816Y-86085244D01*
X130118801Y-86085095D01*
X129986163Y-86071078D01*
X129985177Y-86071013D01*
X129858310Y-86067522D01*
X129557459Y-84947459D01*
X130677522Y-85248310D01*
G37*
%TD.AperFunction*%
%TD*%
D25*
%TO.N,PB1*%
X145604574Y-84475000D02*
X144660543Y-85019271D01*
X144575390Y-84938679D01*
X144574647Y-84938029D01*
X144478299Y-84860101D01*
X144477475Y-84859488D01*
X144376805Y-84790728D01*
X144375911Y-84790170D01*
X144270918Y-84730578D01*
X144269969Y-84730091D01*
X144160654Y-84679667D01*
X144159668Y-84679261D01*
X144046030Y-84638005D01*
X144045030Y-84637688D01*
X143927070Y-84605600D01*
X143926076Y-84605372D01*
X143803794Y-84582452D01*
X143802825Y-84582309D01*
X143676221Y-84568557D01*
X143675294Y-84568491D01*
X143556623Y-84564337D01*
X143556623Y-84385663D01*
X143675294Y-84381508D01*
X143676221Y-84381442D01*
X143802825Y-84367690D01*
X143803794Y-84367547D01*
X143926076Y-84344627D01*
X143927070Y-84344399D01*
X144045030Y-84312311D01*
X144046030Y-84311994D01*
X144159668Y-84270738D01*
X144160654Y-84270332D01*
X144269969Y-84219908D01*
X144270918Y-84219421D01*
X144375911Y-84159829D01*
X144376805Y-84159271D01*
X144477475Y-84090511D01*
X144478299Y-84089898D01*
X144574647Y-84011970D01*
X144575390Y-84011320D01*
X144660542Y-83930729D01*
X145604574Y-84475000D01*
%TA.AperFunction,Conductor*%
D24*
G36*
X145604574Y-84475000D02*
G01*
X144660543Y-85019271D01*
X144575390Y-84938679D01*
X144574647Y-84938029D01*
X144478299Y-84860101D01*
X144477475Y-84859488D01*
X144376805Y-84790728D01*
X144375911Y-84790170D01*
X144270918Y-84730578D01*
X144269969Y-84730091D01*
X144160654Y-84679667D01*
X144159668Y-84679261D01*
X144046030Y-84638005D01*
X144045030Y-84637688D01*
X143927070Y-84605600D01*
X143926076Y-84605372D01*
X143803794Y-84582452D01*
X143802825Y-84582309D01*
X143676221Y-84568557D01*
X143675294Y-84568491D01*
X143556623Y-84564337D01*
X143556623Y-84385663D01*
X143675294Y-84381508D01*
X143676221Y-84381442D01*
X143802825Y-84367690D01*
X143803794Y-84367547D01*
X143926076Y-84344627D01*
X143927070Y-84344399D01*
X144045030Y-84312311D01*
X144046030Y-84311994D01*
X144159668Y-84270738D01*
X144160654Y-84270332D01*
X144269969Y-84219908D01*
X144270918Y-84219421D01*
X144375911Y-84159829D01*
X144376805Y-84159271D01*
X144477475Y-84090511D01*
X144478299Y-84089898D01*
X144574647Y-84011970D01*
X144575390Y-84011320D01*
X144660542Y-83930729D01*
X145604574Y-84475000D01*
G37*
%TD.AperFunction*%
%TD*%
D25*
%TO.N,PB3*%
X118811133Y-91933495D02*
X118790630Y-91934064D01*
X118789639Y-91934130D01*
X118760474Y-91937234D01*
X118759453Y-91937385D01*
X118731083Y-91942761D01*
X118730054Y-91943001D01*
X118702478Y-91950648D01*
X118701461Y-91950977D01*
X118674679Y-91960896D01*
X118673697Y-91961307D01*
X118647710Y-91973497D01*
X118646780Y-91973981D01*
X118621587Y-91988443D01*
X118620727Y-91988984D01*
X118596328Y-92005718D01*
X118595546Y-92006299D01*
X118571941Y-92025304D01*
X118571243Y-92025909D01*
X118557403Y-92038819D01*
X118431066Y-91912482D01*
X118443976Y-91898642D01*
X118444581Y-91897944D01*
X118463587Y-91874339D01*
X118464169Y-91873557D01*
X118480902Y-91849158D01*
X118481442Y-91848298D01*
X118495904Y-91823105D01*
X118496388Y-91822176D01*
X118508579Y-91796189D01*
X118508991Y-91795205D01*
X118518909Y-91768423D01*
X118519237Y-91767407D01*
X118526884Y-91739831D01*
X118527124Y-91738802D01*
X118532500Y-91710432D01*
X118532651Y-91709411D01*
X118535755Y-91680246D01*
X118535821Y-91679255D01*
X118536391Y-91658754D01*
X118912030Y-91557856D01*
X118811133Y-91933495D01*
%TA.AperFunction,Conductor*%
D24*
G36*
X118811133Y-91933495D02*
G01*
X118790630Y-91934064D01*
X118789639Y-91934130D01*
X118760474Y-91937234D01*
X118759453Y-91937385D01*
X118731083Y-91942761D01*
X118730054Y-91943001D01*
X118702478Y-91950648D01*
X118701461Y-91950977D01*
X118674679Y-91960896D01*
X118673697Y-91961307D01*
X118647710Y-91973497D01*
X118646780Y-91973981D01*
X118621587Y-91988443D01*
X118620727Y-91988984D01*
X118596328Y-92005718D01*
X118595546Y-92006299D01*
X118571941Y-92025304D01*
X118571243Y-92025909D01*
X118557403Y-92038819D01*
X118431066Y-91912482D01*
X118443976Y-91898642D01*
X118444581Y-91897944D01*
X118463587Y-91874339D01*
X118464169Y-91873557D01*
X118480902Y-91849158D01*
X118481442Y-91848298D01*
X118495904Y-91823105D01*
X118496388Y-91822176D01*
X118508579Y-91796189D01*
X118508991Y-91795205D01*
X118518909Y-91768423D01*
X118519237Y-91767407D01*
X118526884Y-91739831D01*
X118527124Y-91738802D01*
X118532500Y-91710432D01*
X118532651Y-91709411D01*
X118535755Y-91680246D01*
X118535821Y-91679255D01*
X118536391Y-91658754D01*
X118912030Y-91557856D01*
X118811133Y-91933495D01*
G37*
%TD.AperFunction*%
%TD*%
D25*
%TO.N,PB3*%
X117184819Y-93411403D02*
X117171909Y-93425243D01*
X117171304Y-93425941D01*
X117152299Y-93449546D01*
X117151718Y-93450328D01*
X117134984Y-93474727D01*
X117134443Y-93475587D01*
X117119981Y-93500780D01*
X117119497Y-93501710D01*
X117107307Y-93527697D01*
X117106896Y-93528679D01*
X117096977Y-93555461D01*
X117096648Y-93556478D01*
X117089000Y-93584054D01*
X117088760Y-93585084D01*
X117083385Y-93613454D01*
X117083234Y-93614474D01*
X117080130Y-93643639D01*
X117080064Y-93644630D01*
X117079495Y-93665133D01*
X116703856Y-93766030D01*
X116804754Y-93390391D01*
X116825255Y-93389821D01*
X116826246Y-93389755D01*
X116855411Y-93386651D01*
X116856431Y-93386500D01*
X116884801Y-93381125D01*
X116885831Y-93380885D01*
X116913407Y-93373237D01*
X116914423Y-93372909D01*
X116941205Y-93362991D01*
X116942189Y-93362579D01*
X116968176Y-93350388D01*
X116969105Y-93349904D01*
X116994298Y-93335442D01*
X116995158Y-93334902D01*
X117019557Y-93318169D01*
X117020339Y-93317587D01*
X117043944Y-93298581D01*
X117044642Y-93297976D01*
X117058482Y-93285066D01*
X117184819Y-93411403D01*
%TA.AperFunction,Conductor*%
D24*
G36*
X117184819Y-93411403D02*
G01*
X117171909Y-93425243D01*
X117171304Y-93425941D01*
X117152299Y-93449546D01*
X117151718Y-93450328D01*
X117134984Y-93474727D01*
X117134443Y-93475587D01*
X117119981Y-93500780D01*
X117119497Y-93501710D01*
X117107307Y-93527697D01*
X117106896Y-93528679D01*
X117096977Y-93555461D01*
X117096648Y-93556478D01*
X117089000Y-93584054D01*
X117088760Y-93585084D01*
X117083385Y-93613454D01*
X117083234Y-93614474D01*
X117080130Y-93643639D01*
X117080064Y-93644630D01*
X117079495Y-93665133D01*
X116703856Y-93766030D01*
X116804754Y-93390391D01*
X116825255Y-93389821D01*
X116826246Y-93389755D01*
X116855411Y-93386651D01*
X116856431Y-93386500D01*
X116884801Y-93381125D01*
X116885831Y-93380885D01*
X116913407Y-93373237D01*
X116914423Y-93372909D01*
X116941205Y-93362991D01*
X116942189Y-93362579D01*
X116968176Y-93350388D01*
X116969105Y-93349904D01*
X116994298Y-93335442D01*
X116995158Y-93334902D01*
X117019557Y-93318169D01*
X117020339Y-93317587D01*
X117043944Y-93298581D01*
X117044642Y-93297976D01*
X117058482Y-93285066D01*
X117184819Y-93411403D01*
G37*
%TD.AperFunction*%
%TD*%
D25*
%TO.N,PB3*%
X133077341Y-84737970D02*
X133078084Y-84738620D01*
X133181785Y-84822498D01*
X133182609Y-84823111D01*
X133290961Y-84897121D01*
X133291855Y-84897679D01*
X133404856Y-84961821D01*
X133405805Y-84962308D01*
X133523457Y-85016582D01*
X133524443Y-85016987D01*
X133646744Y-85061393D01*
X133647744Y-85061711D01*
X133774696Y-85096249D01*
X133775690Y-85096477D01*
X133907292Y-85121147D01*
X133908260Y-85121290D01*
X134044512Y-85136092D01*
X134045440Y-85136158D01*
X134174087Y-85140663D01*
X134174087Y-85319337D01*
X134045440Y-85323842D01*
X134044512Y-85323908D01*
X133908260Y-85338710D01*
X133907292Y-85338853D01*
X133775690Y-85363523D01*
X133774696Y-85363751D01*
X133647744Y-85398289D01*
X133646744Y-85398607D01*
X133524443Y-85443013D01*
X133523457Y-85443418D01*
X133405805Y-85497692D01*
X133404856Y-85498179D01*
X133291855Y-85562321D01*
X133290961Y-85562879D01*
X133182609Y-85636889D01*
X133181785Y-85637502D01*
X133078084Y-85721380D01*
X133077341Y-85722030D01*
X132985164Y-85809271D01*
X131980426Y-85230000D01*
X132985164Y-84650729D01*
X133077341Y-84737970D01*
%TA.AperFunction,Conductor*%
D24*
G36*
X133077341Y-84737970D02*
G01*
X133078084Y-84738620D01*
X133181785Y-84822498D01*
X133182609Y-84823111D01*
X133290961Y-84897121D01*
X133291855Y-84897679D01*
X133404856Y-84961821D01*
X133405805Y-84962308D01*
X133523457Y-85016582D01*
X133524443Y-85016987D01*
X133646744Y-85061393D01*
X133647744Y-85061711D01*
X133774696Y-85096249D01*
X133775690Y-85096477D01*
X133907292Y-85121147D01*
X133908260Y-85121290D01*
X134044512Y-85136092D01*
X134045440Y-85136158D01*
X134174087Y-85140663D01*
X134174087Y-85319337D01*
X134045440Y-85323842D01*
X134044512Y-85323908D01*
X133908260Y-85338710D01*
X133907292Y-85338853D01*
X133775690Y-85363523D01*
X133774696Y-85363751D01*
X133647744Y-85398289D01*
X133646744Y-85398607D01*
X133524443Y-85443013D01*
X133523457Y-85443418D01*
X133405805Y-85497692D01*
X133404856Y-85498179D01*
X133291855Y-85562321D01*
X133290961Y-85562879D01*
X133182609Y-85636889D01*
X133181785Y-85637502D01*
X133078084Y-85721380D01*
X133077341Y-85722030D01*
X132985164Y-85809271D01*
X131980426Y-85230000D01*
X132985164Y-84650729D01*
X133077341Y-84737970D01*
G37*
%TD.AperFunction*%
%TD*%
D25*
%TO.N,PB3*%
X145604574Y-81705000D02*
X144660543Y-82249271D01*
X144575390Y-82168679D01*
X144574647Y-82168029D01*
X144478299Y-82090101D01*
X144477475Y-82089488D01*
X144376805Y-82020728D01*
X144375911Y-82020170D01*
X144270918Y-81960578D01*
X144269969Y-81960091D01*
X144160654Y-81909667D01*
X144159668Y-81909261D01*
X144046030Y-81868005D01*
X144045030Y-81867688D01*
X143927070Y-81835600D01*
X143926076Y-81835372D01*
X143803794Y-81812452D01*
X143802825Y-81812309D01*
X143676221Y-81798557D01*
X143675294Y-81798491D01*
X143556623Y-81794337D01*
X143556623Y-81615663D01*
X143675294Y-81611508D01*
X143676221Y-81611442D01*
X143802825Y-81597690D01*
X143803794Y-81597547D01*
X143926076Y-81574627D01*
X143927070Y-81574399D01*
X144045030Y-81542311D01*
X144046030Y-81541994D01*
X144159668Y-81500738D01*
X144160654Y-81500332D01*
X144269969Y-81449908D01*
X144270918Y-81449421D01*
X144375911Y-81389829D01*
X144376805Y-81389271D01*
X144477475Y-81320511D01*
X144478299Y-81319898D01*
X144574647Y-81241970D01*
X144575390Y-81241320D01*
X144660542Y-81160729D01*
X145604574Y-81705000D01*
%TA.AperFunction,Conductor*%
D24*
G36*
X145604574Y-81705000D02*
G01*
X144660543Y-82249271D01*
X144575390Y-82168679D01*
X144574647Y-82168029D01*
X144478299Y-82090101D01*
X144477475Y-82089488D01*
X144376805Y-82020728D01*
X144375911Y-82020170D01*
X144270918Y-81960578D01*
X144269969Y-81960091D01*
X144160654Y-81909667D01*
X144159668Y-81909261D01*
X144046030Y-81868005D01*
X144045030Y-81867688D01*
X143927070Y-81835600D01*
X143926076Y-81835372D01*
X143803794Y-81812452D01*
X143802825Y-81812309D01*
X143676221Y-81798557D01*
X143675294Y-81798491D01*
X143556623Y-81794337D01*
X143556623Y-81615663D01*
X143675294Y-81611508D01*
X143676221Y-81611442D01*
X143802825Y-81597690D01*
X143803794Y-81597547D01*
X143926076Y-81574627D01*
X143927070Y-81574399D01*
X144045030Y-81542311D01*
X144046030Y-81541994D01*
X144159668Y-81500738D01*
X144160654Y-81500332D01*
X144269969Y-81449908D01*
X144270918Y-81449421D01*
X144375911Y-81389829D01*
X144376805Y-81389271D01*
X144477475Y-81320511D01*
X144478299Y-81319898D01*
X144574647Y-81241970D01*
X144575390Y-81241320D01*
X144660542Y-81160729D01*
X145604574Y-81705000D01*
G37*
%TD.AperFunction*%
%TD*%
D25*
%TO.N,PB5*%
X128137522Y-85248310D02*
X128141013Y-85375177D01*
X128141078Y-85376163D01*
X128155095Y-85508801D01*
X128155244Y-85509816D01*
X128179527Y-85638765D01*
X128179765Y-85639792D01*
X128214313Y-85765051D01*
X128214640Y-85766067D01*
X128259455Y-85887637D01*
X128259865Y-85888620D01*
X128314946Y-86006500D01*
X128315429Y-86007432D01*
X128380775Y-86121622D01*
X128381317Y-86122486D01*
X128456929Y-86232987D01*
X128457512Y-86233773D01*
X128543390Y-86340585D01*
X128543999Y-86341288D01*
X128631781Y-86435441D01*
X128505441Y-86561781D01*
X128411288Y-86473999D01*
X128410585Y-86473390D01*
X128303773Y-86387512D01*
X128302987Y-86386929D01*
X128192486Y-86311317D01*
X128191622Y-86310775D01*
X128077432Y-86245429D01*
X128076500Y-86244946D01*
X127958620Y-86189865D01*
X127957637Y-86189455D01*
X127836067Y-86144640D01*
X127835051Y-86144313D01*
X127709792Y-86109765D01*
X127708765Y-86109527D01*
X127579816Y-86085244D01*
X127578801Y-86085095D01*
X127446163Y-86071078D01*
X127445177Y-86071013D01*
X127318310Y-86067522D01*
X127017459Y-84947459D01*
X128137522Y-85248310D01*
%TA.AperFunction,Conductor*%
D24*
G36*
X128137522Y-85248310D02*
G01*
X128141013Y-85375177D01*
X128141078Y-85376163D01*
X128155095Y-85508801D01*
X128155244Y-85509816D01*
X128179527Y-85638765D01*
X128179765Y-85639792D01*
X128214313Y-85765051D01*
X128214640Y-85766067D01*
X128259455Y-85887637D01*
X128259865Y-85888620D01*
X128314946Y-86006500D01*
X128315429Y-86007432D01*
X128380775Y-86121622D01*
X128381317Y-86122486D01*
X128456929Y-86232987D01*
X128457512Y-86233773D01*
X128543390Y-86340585D01*
X128543999Y-86341288D01*
X128631781Y-86435441D01*
X128505441Y-86561781D01*
X128411288Y-86473999D01*
X128410585Y-86473390D01*
X128303773Y-86387512D01*
X128302987Y-86386929D01*
X128192486Y-86311317D01*
X128191622Y-86310775D01*
X128077432Y-86245429D01*
X128076500Y-86244946D01*
X127958620Y-86189865D01*
X127957637Y-86189455D01*
X127836067Y-86144640D01*
X127835051Y-86144313D01*
X127709792Y-86109765D01*
X127708765Y-86109527D01*
X127579816Y-86085244D01*
X127578801Y-86085095D01*
X127446163Y-86071078D01*
X127445177Y-86071013D01*
X127318310Y-86067522D01*
X127017459Y-84947459D01*
X128137522Y-85248310D01*
G37*
%TD.AperFunction*%
%TD*%
D25*
%TO.N,PB5*%
X142764574Y-96940000D02*
X141820543Y-97484271D01*
X141735390Y-97403679D01*
X141734647Y-97403029D01*
X141638299Y-97325101D01*
X141637475Y-97324488D01*
X141536805Y-97255728D01*
X141535911Y-97255170D01*
X141430918Y-97195578D01*
X141429969Y-97195091D01*
X141320654Y-97144667D01*
X141319668Y-97144261D01*
X141206030Y-97103005D01*
X141205030Y-97102688D01*
X141087070Y-97070600D01*
X141086076Y-97070372D01*
X140963794Y-97047452D01*
X140962825Y-97047309D01*
X140836221Y-97033557D01*
X140835294Y-97033491D01*
X140716623Y-97029337D01*
X140716623Y-96850663D01*
X140835294Y-96846508D01*
X140836221Y-96846442D01*
X140962825Y-96832690D01*
X140963794Y-96832547D01*
X141086076Y-96809627D01*
X141087070Y-96809399D01*
X141205030Y-96777311D01*
X141206030Y-96776994D01*
X141319668Y-96735738D01*
X141320654Y-96735332D01*
X141429969Y-96684908D01*
X141430918Y-96684421D01*
X141535911Y-96624829D01*
X141536805Y-96624271D01*
X141637475Y-96555511D01*
X141638299Y-96554898D01*
X141734647Y-96476970D01*
X141735390Y-96476320D01*
X141820542Y-96395729D01*
X142764574Y-96940000D01*
%TA.AperFunction,Conductor*%
D24*
G36*
X142764574Y-96940000D02*
G01*
X141820543Y-97484271D01*
X141735390Y-97403679D01*
X141734647Y-97403029D01*
X141638299Y-97325101D01*
X141637475Y-97324488D01*
X141536805Y-97255728D01*
X141535911Y-97255170D01*
X141430918Y-97195578D01*
X141429969Y-97195091D01*
X141320654Y-97144667D01*
X141319668Y-97144261D01*
X141206030Y-97103005D01*
X141205030Y-97102688D01*
X141087070Y-97070600D01*
X141086076Y-97070372D01*
X140963794Y-97047452D01*
X140962825Y-97047309D01*
X140836221Y-97033557D01*
X140835294Y-97033491D01*
X140716623Y-97029337D01*
X140716623Y-96850663D01*
X140835294Y-96846508D01*
X140836221Y-96846442D01*
X140962825Y-96832690D01*
X140963794Y-96832547D01*
X141086076Y-96809627D01*
X141087070Y-96809399D01*
X141205030Y-96777311D01*
X141206030Y-96776994D01*
X141319668Y-96735738D01*
X141320654Y-96735332D01*
X141429969Y-96684908D01*
X141430918Y-96684421D01*
X141535911Y-96624829D01*
X141536805Y-96624271D01*
X141637475Y-96555511D01*
X141638299Y-96554898D01*
X141734647Y-96476970D01*
X141735390Y-96476320D01*
X141820542Y-96395729D01*
X142764574Y-96940000D01*
G37*
%TD.AperFunction*%
%TD*%
D25*
%TO.N,PB4*%
X127281690Y-83527522D02*
X127154822Y-83531013D01*
X127153836Y-83531078D01*
X127021198Y-83545095D01*
X127020183Y-83545244D01*
X126891234Y-83569527D01*
X126890207Y-83569765D01*
X126764948Y-83604313D01*
X126763932Y-83604640D01*
X126642362Y-83649455D01*
X126641379Y-83649865D01*
X126523499Y-83704946D01*
X126522567Y-83705429D01*
X126408377Y-83770775D01*
X126407513Y-83771317D01*
X126297012Y-83846929D01*
X126296226Y-83847512D01*
X126189414Y-83933390D01*
X126188711Y-83933999D01*
X126094559Y-84021781D01*
X125968218Y-83895440D01*
X126056000Y-83801287D01*
X126056609Y-83800585D01*
X126142487Y-83693773D01*
X126143070Y-83692987D01*
X126218682Y-83582486D01*
X126219224Y-83581622D01*
X126284570Y-83467432D01*
X126285053Y-83466500D01*
X126340134Y-83348620D01*
X126340544Y-83347637D01*
X126385359Y-83226067D01*
X126385686Y-83225051D01*
X126420234Y-83099792D01*
X126420472Y-83098765D01*
X126444755Y-82969816D01*
X126444904Y-82968801D01*
X126458921Y-82836163D01*
X126458986Y-82835177D01*
X126462478Y-82708310D01*
X127582541Y-82407459D01*
X127281690Y-83527522D01*
%TA.AperFunction,Conductor*%
D24*
G36*
X127281690Y-83527522D02*
G01*
X127154822Y-83531013D01*
X127153836Y-83531078D01*
X127021198Y-83545095D01*
X127020183Y-83545244D01*
X126891234Y-83569527D01*
X126890207Y-83569765D01*
X126764948Y-83604313D01*
X126763932Y-83604640D01*
X126642362Y-83649455D01*
X126641379Y-83649865D01*
X126523499Y-83704946D01*
X126522567Y-83705429D01*
X126408377Y-83770775D01*
X126407513Y-83771317D01*
X126297012Y-83846929D01*
X126296226Y-83847512D01*
X126189414Y-83933390D01*
X126188711Y-83933999D01*
X126094559Y-84021781D01*
X125968218Y-83895440D01*
X126056000Y-83801287D01*
X126056609Y-83800585D01*
X126142487Y-83693773D01*
X126143070Y-83692987D01*
X126218682Y-83582486D01*
X126219224Y-83581622D01*
X126284570Y-83467432D01*
X126285053Y-83466500D01*
X126340134Y-83348620D01*
X126340544Y-83347637D01*
X126385359Y-83226067D01*
X126385686Y-83225051D01*
X126420234Y-83099792D01*
X126420472Y-83098765D01*
X126444755Y-82969816D01*
X126444904Y-82968801D01*
X126458921Y-82836163D01*
X126458986Y-82835177D01*
X126462478Y-82708310D01*
X127582541Y-82407459D01*
X127281690Y-83527522D01*
G37*
%TD.AperFunction*%
%TD*%
D25*
%TO.N,PB4*%
X145604574Y-98325000D02*
X144660543Y-98869271D01*
X144575390Y-98788679D01*
X144574647Y-98788029D01*
X144478299Y-98710101D01*
X144477475Y-98709488D01*
X144376805Y-98640728D01*
X144375911Y-98640170D01*
X144270918Y-98580578D01*
X144269969Y-98580091D01*
X144160654Y-98529667D01*
X144159668Y-98529261D01*
X144046030Y-98488005D01*
X144045030Y-98487688D01*
X143927070Y-98455600D01*
X143926076Y-98455372D01*
X143803794Y-98432452D01*
X143802825Y-98432309D01*
X143676221Y-98418557D01*
X143675294Y-98418491D01*
X143556623Y-98414337D01*
X143556623Y-98235663D01*
X143675294Y-98231508D01*
X143676221Y-98231442D01*
X143802825Y-98217690D01*
X143803794Y-98217547D01*
X143926076Y-98194627D01*
X143927070Y-98194399D01*
X144045030Y-98162311D01*
X144046030Y-98161994D01*
X144159668Y-98120738D01*
X144160654Y-98120332D01*
X144269969Y-98069908D01*
X144270918Y-98069421D01*
X144375911Y-98009829D01*
X144376805Y-98009271D01*
X144477475Y-97940511D01*
X144478299Y-97939898D01*
X144574647Y-97861970D01*
X144575390Y-97861320D01*
X144660542Y-97780729D01*
X145604574Y-98325000D01*
%TA.AperFunction,Conductor*%
D24*
G36*
X145604574Y-98325000D02*
G01*
X144660543Y-98869271D01*
X144575390Y-98788679D01*
X144574647Y-98788029D01*
X144478299Y-98710101D01*
X144477475Y-98709488D01*
X144376805Y-98640728D01*
X144375911Y-98640170D01*
X144270918Y-98580578D01*
X144269969Y-98580091D01*
X144160654Y-98529667D01*
X144159668Y-98529261D01*
X144046030Y-98488005D01*
X144045030Y-98487688D01*
X143927070Y-98455600D01*
X143926076Y-98455372D01*
X143803794Y-98432452D01*
X143802825Y-98432309D01*
X143676221Y-98418557D01*
X143675294Y-98418491D01*
X143556623Y-98414337D01*
X143556623Y-98235663D01*
X143675294Y-98231508D01*
X143676221Y-98231442D01*
X143802825Y-98217690D01*
X143803794Y-98217547D01*
X143926076Y-98194627D01*
X143927070Y-98194399D01*
X144045030Y-98162311D01*
X144046030Y-98161994D01*
X144159668Y-98120738D01*
X144160654Y-98120332D01*
X144269969Y-98069908D01*
X144270918Y-98069421D01*
X144375911Y-98009829D01*
X144376805Y-98009271D01*
X144477475Y-97940511D01*
X144478299Y-97939898D01*
X144574647Y-97861970D01*
X144575390Y-97861320D01*
X144660542Y-97780729D01*
X145604574Y-98325000D01*
G37*
%TD.AperFunction*%
%TD*%
D25*
%TO.N,PE2*%
X133185992Y-121726637D02*
X133186057Y-121727559D01*
X133189309Y-121757689D01*
X133189451Y-121758653D01*
X133194871Y-121787738D01*
X133195097Y-121788728D01*
X133202685Y-121816768D01*
X133203000Y-121817767D01*
X133212756Y-121844763D01*
X133213160Y-121845749D01*
X133225084Y-121871700D01*
X133225571Y-121872652D01*
X133239663Y-121897559D01*
X133240221Y-121898457D01*
X133256481Y-121922319D01*
X133257096Y-121923147D01*
X133275524Y-121945964D01*
X133276178Y-121946711D01*
X133290272Y-121961612D01*
X133096000Y-122298574D01*
X132901728Y-121961612D01*
X132915822Y-121946711D01*
X132916476Y-121945964D01*
X132934904Y-121923147D01*
X132935519Y-121922319D01*
X132951779Y-121898457D01*
X132952337Y-121897559D01*
X132966429Y-121872652D01*
X132966916Y-121871700D01*
X132978840Y-121845749D01*
X132979244Y-121844763D01*
X132989000Y-121817767D01*
X132989315Y-121816768D01*
X132996903Y-121788728D01*
X132997129Y-121787738D01*
X133002549Y-121758653D01*
X133002691Y-121757689D01*
X133005943Y-121727559D01*
X133006008Y-121726637D01*
X133006666Y-121707723D01*
X133185334Y-121707723D01*
X133185992Y-121726637D01*
%TA.AperFunction,Conductor*%
D24*
G36*
X133185992Y-121726637D02*
G01*
X133186057Y-121727559D01*
X133189309Y-121757689D01*
X133189451Y-121758653D01*
X133194871Y-121787738D01*
X133195097Y-121788728D01*
X133202685Y-121816768D01*
X133203000Y-121817767D01*
X133212756Y-121844763D01*
X133213160Y-121845749D01*
X133225084Y-121871700D01*
X133225571Y-121872652D01*
X133239663Y-121897559D01*
X133240221Y-121898457D01*
X133256481Y-121922319D01*
X133257096Y-121923147D01*
X133275524Y-121945964D01*
X133276178Y-121946711D01*
X133290272Y-121961612D01*
X133096000Y-122298574D01*
X132901728Y-121961612D01*
X132915822Y-121946711D01*
X132916476Y-121945964D01*
X132934904Y-121923147D01*
X132935519Y-121922319D01*
X132951779Y-121898457D01*
X132952337Y-121897559D01*
X132966429Y-121872652D01*
X132966916Y-121871700D01*
X132978840Y-121845749D01*
X132979244Y-121844763D01*
X132989000Y-121817767D01*
X132989315Y-121816768D01*
X132996903Y-121788728D01*
X132997129Y-121787738D01*
X133002549Y-121758653D01*
X133002691Y-121757689D01*
X133005943Y-121727559D01*
X133006008Y-121726637D01*
X133006666Y-121707723D01*
X133185334Y-121707723D01*
X133185992Y-121726637D01*
G37*
%TD.AperFunction*%
%TD*%
D25*
%TO.N,PE2*%
X132113552Y-103136810D02*
X132114121Y-103157312D01*
X132114187Y-103158303D01*
X132117291Y-103187468D01*
X132117442Y-103188489D01*
X132122818Y-103216859D01*
X132123058Y-103217888D01*
X132130705Y-103245464D01*
X132131034Y-103246481D01*
X132140953Y-103273263D01*
X132141364Y-103274245D01*
X132153554Y-103300232D01*
X132154038Y-103301162D01*
X132168500Y-103326355D01*
X132169041Y-103327215D01*
X132185775Y-103351614D01*
X132186356Y-103352396D01*
X132205361Y-103376001D01*
X132205966Y-103376699D01*
X132218876Y-103390540D01*
X132092540Y-103516876D01*
X132078699Y-103503966D01*
X132078001Y-103503361D01*
X132054396Y-103484356D01*
X132053614Y-103483775D01*
X132029215Y-103467041D01*
X132028355Y-103466500D01*
X132003162Y-103452038D01*
X132002232Y-103451554D01*
X131976245Y-103439364D01*
X131975263Y-103438953D01*
X131948481Y-103429034D01*
X131947464Y-103428705D01*
X131919888Y-103421058D01*
X131918859Y-103420818D01*
X131890489Y-103415442D01*
X131889468Y-103415291D01*
X131860303Y-103412187D01*
X131859312Y-103412121D01*
X131838810Y-103411552D01*
X131737913Y-103035913D01*
X132113552Y-103136810D01*
%TA.AperFunction,Conductor*%
D24*
G36*
X132113552Y-103136810D02*
G01*
X132114121Y-103157312D01*
X132114187Y-103158303D01*
X132117291Y-103187468D01*
X132117442Y-103188489D01*
X132122818Y-103216859D01*
X132123058Y-103217888D01*
X132130705Y-103245464D01*
X132131034Y-103246481D01*
X132140953Y-103273263D01*
X132141364Y-103274245D01*
X132153554Y-103300232D01*
X132154038Y-103301162D01*
X132168500Y-103326355D01*
X132169041Y-103327215D01*
X132185775Y-103351614D01*
X132186356Y-103352396D01*
X132205361Y-103376001D01*
X132205966Y-103376699D01*
X132218876Y-103390540D01*
X132092540Y-103516876D01*
X132078699Y-103503966D01*
X132078001Y-103503361D01*
X132054396Y-103484356D01*
X132053614Y-103483775D01*
X132029215Y-103467041D01*
X132028355Y-103466500D01*
X132003162Y-103452038D01*
X132002232Y-103451554D01*
X131976245Y-103439364D01*
X131975263Y-103438953D01*
X131948481Y-103429034D01*
X131947464Y-103428705D01*
X131919888Y-103421058D01*
X131918859Y-103420818D01*
X131890489Y-103415442D01*
X131889468Y-103415291D01*
X131860303Y-103412187D01*
X131859312Y-103412121D01*
X131838810Y-103411552D01*
X131737913Y-103035913D01*
X132113552Y-103136810D01*
G37*
%TD.AperFunction*%
%TD*%
D25*
%TO.N,RESET*%
X127089992Y-121726637D02*
X127090057Y-121727559D01*
X127093309Y-121757689D01*
X127093451Y-121758653D01*
X127098871Y-121787738D01*
X127099097Y-121788728D01*
X127106685Y-121816768D01*
X127107000Y-121817767D01*
X127116756Y-121844763D01*
X127117160Y-121845749D01*
X127129084Y-121871700D01*
X127129571Y-121872652D01*
X127143663Y-121897559D01*
X127144221Y-121898457D01*
X127160481Y-121922319D01*
X127161096Y-121923147D01*
X127179524Y-121945964D01*
X127180178Y-121946711D01*
X127194272Y-121961612D01*
X127000000Y-122298574D01*
X126805728Y-121961612D01*
X126819822Y-121946711D01*
X126820476Y-121945964D01*
X126838904Y-121923147D01*
X126839519Y-121922319D01*
X126855779Y-121898457D01*
X126856337Y-121897559D01*
X126870429Y-121872652D01*
X126870916Y-121871700D01*
X126882840Y-121845749D01*
X126883244Y-121844763D01*
X126893000Y-121817767D01*
X126893315Y-121816768D01*
X126900903Y-121788728D01*
X126901129Y-121787738D01*
X126906549Y-121758653D01*
X126906691Y-121757689D01*
X126909943Y-121727559D01*
X126910008Y-121726637D01*
X126910666Y-121707723D01*
X127089334Y-121707723D01*
X127089992Y-121726637D01*
%TA.AperFunction,Conductor*%
D24*
G36*
X127089992Y-121726637D02*
G01*
X127090057Y-121727559D01*
X127093309Y-121757689D01*
X127093451Y-121758653D01*
X127098871Y-121787738D01*
X127099097Y-121788728D01*
X127106685Y-121816768D01*
X127107000Y-121817767D01*
X127116756Y-121844763D01*
X127117160Y-121845749D01*
X127129084Y-121871700D01*
X127129571Y-121872652D01*
X127143663Y-121897559D01*
X127144221Y-121898457D01*
X127160481Y-121922319D01*
X127161096Y-121923147D01*
X127179524Y-121945964D01*
X127180178Y-121946711D01*
X127194272Y-121961612D01*
X127000000Y-122298574D01*
X126805728Y-121961612D01*
X126819822Y-121946711D01*
X126820476Y-121945964D01*
X126838904Y-121923147D01*
X126839519Y-121922319D01*
X126855779Y-121898457D01*
X126856337Y-121897559D01*
X126870429Y-121872652D01*
X126870916Y-121871700D01*
X126882840Y-121845749D01*
X126883244Y-121844763D01*
X126893000Y-121817767D01*
X126893315Y-121816768D01*
X126900903Y-121788728D01*
X126901129Y-121787738D01*
X126906549Y-121758653D01*
X126906691Y-121757689D01*
X126909943Y-121727559D01*
X126910008Y-121726637D01*
X126910666Y-121707723D01*
X127089334Y-121707723D01*
X127089992Y-121726637D01*
G37*
%TD.AperFunction*%
%TD*%
D25*
%TO.N,RESET*%
X120937552Y-103644810D02*
X120938121Y-103665312D01*
X120938187Y-103666303D01*
X120941291Y-103695468D01*
X120941442Y-103696489D01*
X120946818Y-103724859D01*
X120947058Y-103725888D01*
X120954705Y-103753464D01*
X120955034Y-103754481D01*
X120964953Y-103781263D01*
X120965364Y-103782245D01*
X120977554Y-103808232D01*
X120978038Y-103809162D01*
X120992500Y-103834355D01*
X120993041Y-103835215D01*
X121009775Y-103859614D01*
X121010356Y-103860396D01*
X121029361Y-103884001D01*
X121029966Y-103884699D01*
X121042876Y-103898540D01*
X120916540Y-104024876D01*
X120902699Y-104011966D01*
X120902001Y-104011361D01*
X120878396Y-103992356D01*
X120877614Y-103991775D01*
X120853215Y-103975041D01*
X120852355Y-103974500D01*
X120827162Y-103960038D01*
X120826232Y-103959554D01*
X120800245Y-103947364D01*
X120799263Y-103946953D01*
X120772481Y-103937034D01*
X120771464Y-103936705D01*
X120743888Y-103929058D01*
X120742859Y-103928818D01*
X120714489Y-103923442D01*
X120713468Y-103923291D01*
X120684303Y-103920187D01*
X120683312Y-103920121D01*
X120662810Y-103919552D01*
X120561913Y-103543913D01*
X120937552Y-103644810D01*
%TA.AperFunction,Conductor*%
D24*
G36*
X120937552Y-103644810D02*
G01*
X120938121Y-103665312D01*
X120938187Y-103666303D01*
X120941291Y-103695468D01*
X120941442Y-103696489D01*
X120946818Y-103724859D01*
X120947058Y-103725888D01*
X120954705Y-103753464D01*
X120955034Y-103754481D01*
X120964953Y-103781263D01*
X120965364Y-103782245D01*
X120977554Y-103808232D01*
X120978038Y-103809162D01*
X120992500Y-103834355D01*
X120993041Y-103835215D01*
X121009775Y-103859614D01*
X121010356Y-103860396D01*
X121029361Y-103884001D01*
X121029966Y-103884699D01*
X121042876Y-103898540D01*
X120916540Y-104024876D01*
X120902699Y-104011966D01*
X120902001Y-104011361D01*
X120878396Y-103992356D01*
X120877614Y-103991775D01*
X120853215Y-103975041D01*
X120852355Y-103974500D01*
X120827162Y-103960038D01*
X120826232Y-103959554D01*
X120800245Y-103947364D01*
X120799263Y-103946953D01*
X120772481Y-103937034D01*
X120771464Y-103936705D01*
X120743888Y-103929058D01*
X120742859Y-103928818D01*
X120714489Y-103923442D01*
X120713468Y-103923291D01*
X120684303Y-103920187D01*
X120683312Y-103920121D01*
X120662810Y-103919552D01*
X120561913Y-103543913D01*
X120937552Y-103644810D01*
G37*
%TD.AperFunction*%
%TD*%
D25*
%TO.N,PF1*%
X126017552Y-87388810D02*
X126018121Y-87409312D01*
X126018187Y-87410303D01*
X126021291Y-87439468D01*
X126021442Y-87440489D01*
X126026818Y-87468859D01*
X126027058Y-87469888D01*
X126034705Y-87497464D01*
X126035034Y-87498481D01*
X126044953Y-87525263D01*
X126045364Y-87526245D01*
X126057554Y-87552232D01*
X126058038Y-87553162D01*
X126072500Y-87578355D01*
X126073041Y-87579215D01*
X126089775Y-87603614D01*
X126090356Y-87604396D01*
X126109361Y-87628001D01*
X126109966Y-87628699D01*
X126122876Y-87642540D01*
X125996540Y-87768876D01*
X125982699Y-87755966D01*
X125982001Y-87755361D01*
X125958396Y-87736356D01*
X125957614Y-87735775D01*
X125933215Y-87719041D01*
X125932355Y-87718500D01*
X125907162Y-87704038D01*
X125906232Y-87703554D01*
X125880245Y-87691364D01*
X125879263Y-87690953D01*
X125852481Y-87681034D01*
X125851464Y-87680705D01*
X125823888Y-87673058D01*
X125822859Y-87672818D01*
X125794489Y-87667442D01*
X125793468Y-87667291D01*
X125764303Y-87664187D01*
X125763312Y-87664121D01*
X125742810Y-87663552D01*
X125641913Y-87287913D01*
X126017552Y-87388810D01*
%TA.AperFunction,Conductor*%
D24*
G36*
X126017552Y-87388810D02*
G01*
X126018121Y-87409312D01*
X126018187Y-87410303D01*
X126021291Y-87439468D01*
X126021442Y-87440489D01*
X126026818Y-87468859D01*
X126027058Y-87469888D01*
X126034705Y-87497464D01*
X126035034Y-87498481D01*
X126044953Y-87525263D01*
X126045364Y-87526245D01*
X126057554Y-87552232D01*
X126058038Y-87553162D01*
X126072500Y-87578355D01*
X126073041Y-87579215D01*
X126089775Y-87603614D01*
X126090356Y-87604396D01*
X126109361Y-87628001D01*
X126109966Y-87628699D01*
X126122876Y-87642540D01*
X125996540Y-87768876D01*
X125982699Y-87755966D01*
X125982001Y-87755361D01*
X125958396Y-87736356D01*
X125957614Y-87735775D01*
X125933215Y-87719041D01*
X125932355Y-87718500D01*
X125907162Y-87704038D01*
X125906232Y-87703554D01*
X125880245Y-87691364D01*
X125879263Y-87690953D01*
X125852481Y-87681034D01*
X125851464Y-87680705D01*
X125823888Y-87673058D01*
X125822859Y-87672818D01*
X125794489Y-87667442D01*
X125793468Y-87667291D01*
X125764303Y-87664187D01*
X125763312Y-87664121D01*
X125742810Y-87663552D01*
X125641913Y-87287913D01*
X126017552Y-87388810D01*
G37*
%TD.AperFunction*%
%TD*%
D25*
%TO.N,PF1*%
X128359992Y-97088637D02*
X128360057Y-97089559D01*
X128363309Y-97119689D01*
X128363451Y-97120653D01*
X128368871Y-97149738D01*
X128369097Y-97150728D01*
X128376685Y-97178768D01*
X128377000Y-97179767D01*
X128386756Y-97206763D01*
X128387160Y-97207749D01*
X128399084Y-97233700D01*
X128399571Y-97234652D01*
X128413663Y-97259559D01*
X128414221Y-97260457D01*
X128430481Y-97284319D01*
X128431096Y-97285147D01*
X128449524Y-97307964D01*
X128450178Y-97308711D01*
X128464272Y-97323612D01*
X128270000Y-97660574D01*
X128075728Y-97323612D01*
X128089822Y-97308711D01*
X128090476Y-97307964D01*
X128108904Y-97285147D01*
X128109519Y-97284319D01*
X128125779Y-97260457D01*
X128126337Y-97259559D01*
X128140429Y-97234652D01*
X128140916Y-97233700D01*
X128152840Y-97207749D01*
X128153244Y-97206763D01*
X128163000Y-97179767D01*
X128163315Y-97178768D01*
X128170903Y-97150728D01*
X128171129Y-97149738D01*
X128176549Y-97120653D01*
X128176691Y-97119689D01*
X128179943Y-97089559D01*
X128180008Y-97088637D01*
X128180666Y-97069723D01*
X128359334Y-97069723D01*
X128359992Y-97088637D01*
%TA.AperFunction,Conductor*%
D24*
G36*
X128359992Y-97088637D02*
G01*
X128360057Y-97089559D01*
X128363309Y-97119689D01*
X128363451Y-97120653D01*
X128368871Y-97149738D01*
X128369097Y-97150728D01*
X128376685Y-97178768D01*
X128377000Y-97179767D01*
X128386756Y-97206763D01*
X128387160Y-97207749D01*
X128399084Y-97233700D01*
X128399571Y-97234652D01*
X128413663Y-97259559D01*
X128414221Y-97260457D01*
X128430481Y-97284319D01*
X128431096Y-97285147D01*
X128449524Y-97307964D01*
X128450178Y-97308711D01*
X128464272Y-97323612D01*
X128270000Y-97660574D01*
X128075728Y-97323612D01*
X128089822Y-97308711D01*
X128090476Y-97307964D01*
X128108904Y-97285147D01*
X128109519Y-97284319D01*
X128125779Y-97260457D01*
X128126337Y-97259559D01*
X128140429Y-97234652D01*
X128140916Y-97233700D01*
X128152840Y-97207749D01*
X128153244Y-97206763D01*
X128163000Y-97179767D01*
X128163315Y-97178768D01*
X128170903Y-97150728D01*
X128171129Y-97149738D01*
X128176549Y-97120653D01*
X128176691Y-97119689D01*
X128179943Y-97089559D01*
X128180008Y-97088637D01*
X128180666Y-97069723D01*
X128359334Y-97069723D01*
X128359992Y-97088637D01*
G37*
%TD.AperFunction*%
%TD*%
D25*
%TO.N,PC7*%
X131915992Y-113090637D02*
X131916057Y-113091559D01*
X131919309Y-113121689D01*
X131919451Y-113122653D01*
X131924871Y-113151738D01*
X131925097Y-113152728D01*
X131932685Y-113180768D01*
X131933000Y-113181767D01*
X131942756Y-113208763D01*
X131943160Y-113209749D01*
X131955084Y-113235700D01*
X131955571Y-113236652D01*
X131969663Y-113261559D01*
X131970221Y-113262457D01*
X131986481Y-113286319D01*
X131987096Y-113287147D01*
X132005524Y-113309964D01*
X132006178Y-113310711D01*
X132020272Y-113325612D01*
X131826000Y-113662574D01*
X131631728Y-113325612D01*
X131645822Y-113310711D01*
X131646476Y-113309964D01*
X131664904Y-113287147D01*
X131665519Y-113286319D01*
X131681779Y-113262457D01*
X131682337Y-113261559D01*
X131696429Y-113236652D01*
X131696916Y-113235700D01*
X131708840Y-113209749D01*
X131709244Y-113208763D01*
X131719000Y-113181767D01*
X131719315Y-113180768D01*
X131726903Y-113152728D01*
X131727129Y-113151738D01*
X131732549Y-113122653D01*
X131732691Y-113121689D01*
X131735943Y-113091559D01*
X131736008Y-113090637D01*
X131736666Y-113071723D01*
X131915334Y-113071723D01*
X131915992Y-113090637D01*
%TA.AperFunction,Conductor*%
D24*
G36*
X131915992Y-113090637D02*
G01*
X131916057Y-113091559D01*
X131919309Y-113121689D01*
X131919451Y-113122653D01*
X131924871Y-113151738D01*
X131925097Y-113152728D01*
X131932685Y-113180768D01*
X131933000Y-113181767D01*
X131942756Y-113208763D01*
X131943160Y-113209749D01*
X131955084Y-113235700D01*
X131955571Y-113236652D01*
X131969663Y-113261559D01*
X131970221Y-113262457D01*
X131986481Y-113286319D01*
X131987096Y-113287147D01*
X132005524Y-113309964D01*
X132006178Y-113310711D01*
X132020272Y-113325612D01*
X131826000Y-113662574D01*
X131631728Y-113325612D01*
X131645822Y-113310711D01*
X131646476Y-113309964D01*
X131664904Y-113287147D01*
X131665519Y-113286319D01*
X131681779Y-113262457D01*
X131682337Y-113261559D01*
X131696429Y-113236652D01*
X131696916Y-113235700D01*
X131708840Y-113209749D01*
X131709244Y-113208763D01*
X131719000Y-113181767D01*
X131719315Y-113180768D01*
X131726903Y-113152728D01*
X131727129Y-113151738D01*
X131732549Y-113122653D01*
X131732691Y-113121689D01*
X131735943Y-113091559D01*
X131736008Y-113090637D01*
X131736666Y-113071723D01*
X131915334Y-113071723D01*
X131915992Y-113090637D01*
G37*
%TD.AperFunction*%
%TD*%
D25*
%TO.N,PC7*%
X131351552Y-103898810D02*
X131352121Y-103919312D01*
X131352187Y-103920303D01*
X131355291Y-103949468D01*
X131355442Y-103950489D01*
X131360818Y-103978859D01*
X131361058Y-103979888D01*
X131368705Y-104007464D01*
X131369034Y-104008481D01*
X131378953Y-104035263D01*
X131379364Y-104036245D01*
X131391554Y-104062232D01*
X131392038Y-104063162D01*
X131406500Y-104088355D01*
X131407041Y-104089215D01*
X131423775Y-104113614D01*
X131424356Y-104114396D01*
X131443361Y-104138001D01*
X131443966Y-104138699D01*
X131456876Y-104152540D01*
X131330540Y-104278876D01*
X131316699Y-104265966D01*
X131316001Y-104265361D01*
X131292396Y-104246356D01*
X131291614Y-104245775D01*
X131267215Y-104229041D01*
X131266355Y-104228500D01*
X131241162Y-104214038D01*
X131240232Y-104213554D01*
X131214245Y-104201364D01*
X131213263Y-104200953D01*
X131186481Y-104191034D01*
X131185464Y-104190705D01*
X131157888Y-104183058D01*
X131156859Y-104182818D01*
X131128489Y-104177442D01*
X131127468Y-104177291D01*
X131098303Y-104174187D01*
X131097312Y-104174121D01*
X131076810Y-104173552D01*
X130975913Y-103797913D01*
X131351552Y-103898810D01*
%TA.AperFunction,Conductor*%
D24*
G36*
X131351552Y-103898810D02*
G01*
X131352121Y-103919312D01*
X131352187Y-103920303D01*
X131355291Y-103949468D01*
X131355442Y-103950489D01*
X131360818Y-103978859D01*
X131361058Y-103979888D01*
X131368705Y-104007464D01*
X131369034Y-104008481D01*
X131378953Y-104035263D01*
X131379364Y-104036245D01*
X131391554Y-104062232D01*
X131392038Y-104063162D01*
X131406500Y-104088355D01*
X131407041Y-104089215D01*
X131423775Y-104113614D01*
X131424356Y-104114396D01*
X131443361Y-104138001D01*
X131443966Y-104138699D01*
X131456876Y-104152540D01*
X131330540Y-104278876D01*
X131316699Y-104265966D01*
X131316001Y-104265361D01*
X131292396Y-104246356D01*
X131291614Y-104245775D01*
X131267215Y-104229041D01*
X131266355Y-104228500D01*
X131241162Y-104214038D01*
X131240232Y-104213554D01*
X131214245Y-104201364D01*
X131213263Y-104200953D01*
X131186481Y-104191034D01*
X131185464Y-104190705D01*
X131157888Y-104183058D01*
X131156859Y-104182818D01*
X131128489Y-104177442D01*
X131127468Y-104177291D01*
X131098303Y-104174187D01*
X131097312Y-104174121D01*
X131076810Y-104173552D01*
X130975913Y-103797913D01*
X131351552Y-103898810D01*
G37*
%TD.AperFunction*%
%TD*%
D25*
%TO.N,PB0*%
X125985300Y-114174033D02*
X125985998Y-114174638D01*
X126009603Y-114193644D01*
X126010385Y-114194226D01*
X126034784Y-114210959D01*
X126035644Y-114211499D01*
X126060837Y-114225961D01*
X126061766Y-114226445D01*
X126087753Y-114238636D01*
X126088737Y-114239048D01*
X126115519Y-114248966D01*
X126116535Y-114249294D01*
X126144111Y-114256941D01*
X126145140Y-114257181D01*
X126173510Y-114262557D01*
X126174531Y-114262708D01*
X126203696Y-114265812D01*
X126204687Y-114265878D01*
X126225190Y-114266448D01*
X126326087Y-114642087D01*
X125950448Y-114541190D01*
X125949878Y-114520687D01*
X125949812Y-114519696D01*
X125946708Y-114490531D01*
X125946557Y-114489511D01*
X125941182Y-114461141D01*
X125940942Y-114460111D01*
X125933294Y-114432535D01*
X125932966Y-114431519D01*
X125923048Y-114404737D01*
X125922636Y-114403753D01*
X125910445Y-114377766D01*
X125909961Y-114376837D01*
X125895499Y-114351644D01*
X125894959Y-114350784D01*
X125878226Y-114326385D01*
X125877644Y-114325603D01*
X125858638Y-114301998D01*
X125858033Y-114301300D01*
X125845124Y-114287460D01*
X125971460Y-114161124D01*
X125985300Y-114174033D01*
%TA.AperFunction,Conductor*%
D24*
G36*
X125985300Y-114174033D02*
G01*
X125985998Y-114174638D01*
X126009603Y-114193644D01*
X126010385Y-114194226D01*
X126034784Y-114210959D01*
X126035644Y-114211499D01*
X126060837Y-114225961D01*
X126061766Y-114226445D01*
X126087753Y-114238636D01*
X126088737Y-114239048D01*
X126115519Y-114248966D01*
X126116535Y-114249294D01*
X126144111Y-114256941D01*
X126145140Y-114257181D01*
X126173510Y-114262557D01*
X126174531Y-114262708D01*
X126203696Y-114265812D01*
X126204687Y-114265878D01*
X126225190Y-114266448D01*
X126326087Y-114642087D01*
X125950448Y-114541190D01*
X125949878Y-114520687D01*
X125949812Y-114519696D01*
X125946708Y-114490531D01*
X125946557Y-114489511D01*
X125941182Y-114461141D01*
X125940942Y-114460111D01*
X125933294Y-114432535D01*
X125932966Y-114431519D01*
X125923048Y-114404737D01*
X125922636Y-114403753D01*
X125910445Y-114377766D01*
X125909961Y-114376837D01*
X125895499Y-114351644D01*
X125894959Y-114350784D01*
X125878226Y-114326385D01*
X125877644Y-114325603D01*
X125858638Y-114301998D01*
X125858033Y-114301300D01*
X125845124Y-114287460D01*
X125971460Y-114161124D01*
X125985300Y-114174033D01*
G37*
%TD.AperFunction*%
%TD*%
D25*
%TO.N,PB0*%
X121145190Y-99601552D02*
X121124687Y-99602121D01*
X121123696Y-99602187D01*
X121094531Y-99605291D01*
X121093510Y-99605442D01*
X121065140Y-99610818D01*
X121064111Y-99611058D01*
X121036535Y-99618705D01*
X121035518Y-99619034D01*
X121008736Y-99628953D01*
X121007754Y-99629364D01*
X120981767Y-99641554D01*
X120980837Y-99642038D01*
X120955644Y-99656500D01*
X120954784Y-99657041D01*
X120930385Y-99673775D01*
X120929603Y-99674356D01*
X120905998Y-99693361D01*
X120905300Y-99693966D01*
X120891460Y-99706876D01*
X120765123Y-99580539D01*
X120778033Y-99566699D01*
X120778638Y-99566001D01*
X120797644Y-99542396D01*
X120798226Y-99541614D01*
X120814959Y-99517215D01*
X120815499Y-99516355D01*
X120829961Y-99491162D01*
X120830445Y-99490233D01*
X120842636Y-99464246D01*
X120843048Y-99463262D01*
X120852966Y-99436480D01*
X120853294Y-99435464D01*
X120860941Y-99407888D01*
X120861181Y-99406859D01*
X120866557Y-99378489D01*
X120866708Y-99377468D01*
X120869812Y-99348303D01*
X120869878Y-99347312D01*
X120870448Y-99326811D01*
X121246087Y-99225913D01*
X121145190Y-99601552D01*
%TA.AperFunction,Conductor*%
D24*
G36*
X121145190Y-99601552D02*
G01*
X121124687Y-99602121D01*
X121123696Y-99602187D01*
X121094531Y-99605291D01*
X121093510Y-99605442D01*
X121065140Y-99610818D01*
X121064111Y-99611058D01*
X121036535Y-99618705D01*
X121035518Y-99619034D01*
X121008736Y-99628953D01*
X121007754Y-99629364D01*
X120981767Y-99641554D01*
X120980837Y-99642038D01*
X120955644Y-99656500D01*
X120954784Y-99657041D01*
X120930385Y-99673775D01*
X120929603Y-99674356D01*
X120905998Y-99693361D01*
X120905300Y-99693966D01*
X120891460Y-99706876D01*
X120765123Y-99580539D01*
X120778033Y-99566699D01*
X120778638Y-99566001D01*
X120797644Y-99542396D01*
X120798226Y-99541614D01*
X120814959Y-99517215D01*
X120815499Y-99516355D01*
X120829961Y-99491162D01*
X120830445Y-99490233D01*
X120842636Y-99464246D01*
X120843048Y-99463262D01*
X120852966Y-99436480D01*
X120853294Y-99435464D01*
X120860941Y-99407888D01*
X120861181Y-99406859D01*
X120866557Y-99378489D01*
X120866708Y-99377468D01*
X120869812Y-99348303D01*
X120869878Y-99347312D01*
X120870448Y-99326811D01*
X121246087Y-99225913D01*
X121145190Y-99601552D01*
G37*
%TD.AperFunction*%
%TD*%
D25*
%TO.N,PD5*%
X127033552Y-107708810D02*
X127034121Y-107729312D01*
X127034187Y-107730303D01*
X127037291Y-107759468D01*
X127037442Y-107760489D01*
X127042818Y-107788859D01*
X127043058Y-107789888D01*
X127050705Y-107817464D01*
X127051034Y-107818481D01*
X127060953Y-107845263D01*
X127061364Y-107846245D01*
X127073554Y-107872232D01*
X127074038Y-107873162D01*
X127088500Y-107898355D01*
X127089041Y-107899215D01*
X127105775Y-107923614D01*
X127106356Y-107924396D01*
X127125361Y-107948001D01*
X127125966Y-107948699D01*
X127138876Y-107962540D01*
X127012540Y-108088876D01*
X126998699Y-108075966D01*
X126998001Y-108075361D01*
X126974396Y-108056356D01*
X126973614Y-108055775D01*
X126949215Y-108039041D01*
X126948355Y-108038500D01*
X126923162Y-108024038D01*
X126922232Y-108023554D01*
X126896245Y-108011364D01*
X126895263Y-108010953D01*
X126868481Y-108001034D01*
X126867464Y-108000705D01*
X126839888Y-107993058D01*
X126838859Y-107992818D01*
X126810489Y-107987442D01*
X126809468Y-107987291D01*
X126780303Y-107984187D01*
X126779312Y-107984121D01*
X126758810Y-107983552D01*
X126657913Y-107607913D01*
X127033552Y-107708810D01*
%TA.AperFunction,Conductor*%
D24*
G36*
X127033552Y-107708810D02*
G01*
X127034121Y-107729312D01*
X127034187Y-107730303D01*
X127037291Y-107759468D01*
X127037442Y-107760489D01*
X127042818Y-107788859D01*
X127043058Y-107789888D01*
X127050705Y-107817464D01*
X127051034Y-107818481D01*
X127060953Y-107845263D01*
X127061364Y-107846245D01*
X127073554Y-107872232D01*
X127074038Y-107873162D01*
X127088500Y-107898355D01*
X127089041Y-107899215D01*
X127105775Y-107923614D01*
X127106356Y-107924396D01*
X127125361Y-107948001D01*
X127125966Y-107948699D01*
X127138876Y-107962540D01*
X127012540Y-108088876D01*
X126998699Y-108075966D01*
X126998001Y-108075361D01*
X126974396Y-108056356D01*
X126973614Y-108055775D01*
X126949215Y-108039041D01*
X126948355Y-108038500D01*
X126923162Y-108024038D01*
X126922232Y-108023554D01*
X126896245Y-108011364D01*
X126895263Y-108010953D01*
X126868481Y-108001034D01*
X126867464Y-108000705D01*
X126839888Y-107993058D01*
X126838859Y-107992818D01*
X126810489Y-107987442D01*
X126809468Y-107987291D01*
X126780303Y-107984187D01*
X126779312Y-107984121D01*
X126758810Y-107983552D01*
X126657913Y-107607913D01*
X127033552Y-107708810D01*
G37*
%TD.AperFunction*%
%TD*%
D25*
%TO.N,PD5*%
X130137992Y-113090637D02*
X130138057Y-113091559D01*
X130141309Y-113121689D01*
X130141451Y-113122653D01*
X130146871Y-113151738D01*
X130147097Y-113152728D01*
X130154685Y-113180768D01*
X130155000Y-113181767D01*
X130164756Y-113208763D01*
X130165160Y-113209749D01*
X130177084Y-113235700D01*
X130177571Y-113236652D01*
X130191663Y-113261559D01*
X130192221Y-113262457D01*
X130208481Y-113286319D01*
X130209096Y-113287147D01*
X130227524Y-113309964D01*
X130228178Y-113310711D01*
X130242272Y-113325612D01*
X130048000Y-113662574D01*
X129853728Y-113325612D01*
X129867822Y-113310711D01*
X129868476Y-113309964D01*
X129886904Y-113287147D01*
X129887519Y-113286319D01*
X129903779Y-113262457D01*
X129904337Y-113261559D01*
X129918429Y-113236652D01*
X129918916Y-113235700D01*
X129930840Y-113209749D01*
X129931244Y-113208763D01*
X129941000Y-113181767D01*
X129941315Y-113180768D01*
X129948903Y-113152728D01*
X129949129Y-113151738D01*
X129954549Y-113122653D01*
X129954691Y-113121689D01*
X129957943Y-113091559D01*
X129958008Y-113090637D01*
X129958666Y-113071723D01*
X130137334Y-113071723D01*
X130137992Y-113090637D01*
%TA.AperFunction,Conductor*%
D24*
G36*
X130137992Y-113090637D02*
G01*
X130138057Y-113091559D01*
X130141309Y-113121689D01*
X130141451Y-113122653D01*
X130146871Y-113151738D01*
X130147097Y-113152728D01*
X130154685Y-113180768D01*
X130155000Y-113181767D01*
X130164756Y-113208763D01*
X130165160Y-113209749D01*
X130177084Y-113235700D01*
X130177571Y-113236652D01*
X130191663Y-113261559D01*
X130192221Y-113262457D01*
X130208481Y-113286319D01*
X130209096Y-113287147D01*
X130227524Y-113309964D01*
X130228178Y-113310711D01*
X130242272Y-113325612D01*
X130048000Y-113662574D01*
X129853728Y-113325612D01*
X129867822Y-113310711D01*
X129868476Y-113309964D01*
X129886904Y-113287147D01*
X129887519Y-113286319D01*
X129903779Y-113262457D01*
X129904337Y-113261559D01*
X129918429Y-113236652D01*
X129918916Y-113235700D01*
X129930840Y-113209749D01*
X129931244Y-113208763D01*
X129941000Y-113181767D01*
X129941315Y-113180768D01*
X129948903Y-113152728D01*
X129949129Y-113151738D01*
X129954549Y-113122653D01*
X129954691Y-113121689D01*
X129957943Y-113091559D01*
X129958008Y-113090637D01*
X129958666Y-113071723D01*
X130137334Y-113071723D01*
X130137992Y-113090637D01*
G37*
%TD.AperFunction*%
%TD*%
M02*
