%TF.GenerationSoftware,KiCad,Pcbnew,(5.1.8)-1*%
%TF.CreationDate,2021-01-03T14:31:24+10:00*%
%TF.ProjectId,OpenRetroPad,4f70656e-5265-4747-926f-5061642e6b69,rev?*%
%TF.SameCoordinates,Original*%
%TF.FileFunction,Soldermask,Bot*%
%TF.FilePolarity,Negative*%
%FSLAX46Y46*%
G04 Gerber Fmt 4.6, Leading zero omitted, Abs format (unit mm)*
G04 Created by KiCad (PCBNEW (5.1.8)-1) date 2021-01-03 14:31:24*
%MOMM*%
%LPD*%
G01*
G04 APERTURE LIST*
%ADD10O,1.900000X1.200000*%
%ADD11C,1.450000*%
%ADD12O,1.700000X1.700000*%
%ADD13R,1.700000X1.700000*%
%ADD14C,0.800000*%
%ADD15C,6.400000*%
%ADD16C,4.000000*%
%ADD17C,1.600000*%
%ADD18R,1.600000X1.600000*%
G04 APERTURE END LIST*
D10*
%TO.C,J1*%
X108522500Y-91430000D03*
X108522500Y-84430000D03*
D11*
X111222500Y-90430000D03*
X111222500Y-85430000D03*
%TD*%
D12*
%TO.C,J2*%
X132380000Y-82690000D03*
X129840000Y-82690000D03*
X127300000Y-82690000D03*
X124760000Y-82690000D03*
X132380000Y-85230000D03*
X129840000Y-85230000D03*
X127300000Y-85230000D03*
D13*
X124760000Y-85230000D03*
%TD*%
D14*
%TO.C,H4*%
X149457056Y-124532944D03*
X147760000Y-123830000D03*
X146062944Y-124532944D03*
X145360000Y-126230000D03*
X146062944Y-127927056D03*
X147760000Y-128630000D03*
X149457056Y-127927056D03*
X150160000Y-126230000D03*
D15*
X147760000Y-126230000D03*
%TD*%
D14*
%TO.C,H3*%
X113457056Y-124532944D03*
X111760000Y-123830000D03*
X110062944Y-124532944D03*
X109360000Y-126230000D03*
X110062944Y-127927056D03*
X111760000Y-128630000D03*
X113457056Y-127927056D03*
X114160000Y-126230000D03*
D15*
X111760000Y-126230000D03*
%TD*%
D14*
%TO.C,H2*%
X149457056Y-60532944D03*
X147760000Y-59830000D03*
X146062944Y-60532944D03*
X145360000Y-62230000D03*
X146062944Y-63927056D03*
X147760000Y-64630000D03*
X149457056Y-63927056D03*
X150160000Y-62230000D03*
D15*
X147760000Y-62230000D03*
%TD*%
D14*
%TO.C,H1*%
X113457056Y-60532944D03*
X111760000Y-59830000D03*
X110062944Y-60532944D03*
X109360000Y-62230000D03*
X110062944Y-63927056D03*
X111760000Y-64630000D03*
X113457056Y-63927056D03*
X114160000Y-62230000D03*
D15*
X111760000Y-62230000D03*
%TD*%
D16*
%TO.C,J3*%
X143810000Y-70620000D03*
X143810000Y-117720000D03*
D17*
X145230000Y-109405000D03*
X145230000Y-106635000D03*
X145230000Y-103865000D03*
X145230000Y-101095000D03*
X145230000Y-98325000D03*
X145230000Y-95555000D03*
X145230000Y-92785000D03*
X145230000Y-90015000D03*
X145230000Y-87245000D03*
X145230000Y-84475000D03*
X145230000Y-81705000D03*
X145230000Y-78935000D03*
X142390000Y-110790000D03*
X142390000Y-108020000D03*
X142390000Y-105250000D03*
X142390000Y-102480000D03*
X142390000Y-99710000D03*
X142390000Y-96940000D03*
X142390000Y-94170000D03*
X142390000Y-91400000D03*
X142390000Y-88630000D03*
X142390000Y-85860000D03*
X142390000Y-83090000D03*
X142390000Y-80320000D03*
D18*
X142390000Y-77550000D03*
%TD*%
M02*
