%TF.GenerationSoftware,KiCad,Pcbnew,(5.1.8)-1*%
%TF.CreationDate,2021-01-03T14:31:24+10:00*%
%TF.ProjectId,OpenRetroPad,4f70656e-5265-4747-926f-5061642e6b69,rev?*%
%TF.SameCoordinates,Original*%
%TF.FileFunction,Legend,Top*%
%TF.FilePolarity,Positive*%
%FSLAX46Y46*%
G04 Gerber Fmt 4.6, Leading zero omitted, Abs format (unit mm)*
G04 Created by KiCad (PCBNEW (5.1.8)-1) date 2021-01-03 14:31:24*
%MOMM*%
%LPD*%
G01*
G04 APERTURE LIST*
%ADD10C,0.120000*%
%ADD11C,0.150000*%
G04 APERTURE END LIST*
D10*
%TO.C,R9*%
X112536500Y-100567258D02*
X112536500Y-100092742D01*
X111491500Y-100567258D02*
X111491500Y-100092742D01*
%TO.C,D4*%
X110971000Y-101815000D02*
X110971000Y-99530000D01*
X109501000Y-101815000D02*
X110971000Y-101815000D01*
X109501000Y-99530000D02*
X109501000Y-101815000D01*
%TO.C,R8*%
X130570500Y-118855258D02*
X130570500Y-118380742D01*
X129525500Y-118855258D02*
X129525500Y-118380742D01*
%TO.C,R7*%
X128792500Y-118855258D02*
X128792500Y-118380742D01*
X127747500Y-118855258D02*
X127747500Y-118380742D01*
%TO.C,D3*%
X129313000Y-113831000D02*
X129313000Y-116116000D01*
X130783000Y-113831000D02*
X129313000Y-113831000D01*
X130783000Y-116116000D02*
X130783000Y-113831000D01*
%TO.C,D2*%
X127535000Y-113831000D02*
X127535000Y-116116000D01*
X129005000Y-113831000D02*
X127535000Y-113831000D01*
X129005000Y-116116000D02*
X129005000Y-113831000D01*
%TO.C,SW1*%
X134666000Y-123914000D02*
X134666000Y-128054000D01*
X131826000Y-128054000D02*
X131526000Y-128054000D01*
X131526000Y-128054000D02*
X131526000Y-123914000D01*
X134366000Y-123914000D02*
X134666000Y-123914000D01*
X131526000Y-123914000D02*
X131826000Y-123914000D01*
X134666000Y-128054000D02*
X134366000Y-128054000D01*
%TO.C,SW2*%
X128570000Y-123914000D02*
X128570000Y-128054000D01*
X125730000Y-128054000D02*
X125430000Y-128054000D01*
X125430000Y-128054000D02*
X125430000Y-123914000D01*
X128270000Y-123914000D02*
X128570000Y-123914000D01*
X125430000Y-123914000D02*
X125730000Y-123914000D01*
X128570000Y-128054000D02*
X128270000Y-128054000D01*
%TO.C,J1*%
X111522500Y-84030000D02*
X111522500Y-84480000D01*
X109672500Y-84030000D02*
X111522500Y-84030000D01*
X107122500Y-91830000D02*
X107372500Y-91830000D01*
X107122500Y-84030000D02*
X107372500Y-84030000D01*
X109672500Y-91830000D02*
X111522500Y-91830000D01*
X111522500Y-91830000D02*
X111522500Y-91380000D01*
X112072500Y-86230000D02*
X112072500Y-86680000D01*
X112072500Y-86230000D02*
X111622500Y-86230000D01*
%TO.C,J2*%
X137960000Y-64910000D02*
X122960000Y-64910000D01*
X122960000Y-58030000D02*
X122960000Y-87030000D01*
X137960000Y-58030000D02*
X122960000Y-58030000D01*
X137960000Y-87030000D02*
X137960000Y-58030000D01*
X122960000Y-87030000D02*
X137960000Y-87030000D01*
%TO.C,Y1*%
X116968000Y-110966000D02*
X120268000Y-110966000D01*
X120268000Y-110966000D02*
X120268000Y-106966000D01*
%TO.C,R6*%
X138444500Y-98027258D02*
X138444500Y-97552742D01*
X137399500Y-98027258D02*
X137399500Y-97552742D01*
%TO.C,U2*%
X126345106Y-97183007D02*
X125832454Y-96670355D01*
X125832454Y-106880977D02*
X126345106Y-106368325D01*
X125319802Y-106368325D02*
X125832454Y-106880977D01*
X120727143Y-101775666D02*
X121239795Y-101263014D01*
X121239795Y-102288318D02*
X120727143Y-101775666D01*
X130937765Y-101775666D02*
X130425113Y-102288318D01*
X130425113Y-101263014D02*
X130937765Y-101775666D01*
%TO.C,R3*%
X131303500Y-118855258D02*
X131303500Y-118380742D01*
X132348500Y-118855258D02*
X132348500Y-118380742D01*
%TO.C,D1*%
X131091000Y-114516000D02*
X131091000Y-116801000D01*
X131091000Y-116801000D02*
X132561000Y-116801000D01*
X132561000Y-116801000D02*
X132561000Y-114516000D01*
%TO.C,FB1*%
X117747622Y-87202000D02*
X116948378Y-87202000D01*
X117747622Y-86082000D02*
X116948378Y-86082000D01*
%TO.C,C4*%
X117095000Y-71458748D02*
X117095000Y-71981252D01*
X118565000Y-71458748D02*
X118565000Y-71981252D01*
%TO.C,C1*%
X117086748Y-84719000D02*
X117609252Y-84719000D01*
X117086748Y-83249000D02*
X117609252Y-83249000D01*
%TO.C,R2*%
X120242603Y-96924743D02*
X119907070Y-96589210D01*
X120981530Y-96185816D02*
X120645997Y-95850283D01*
%TO.C,R1*%
X121320234Y-95847112D02*
X120984701Y-95511579D01*
X122059161Y-95108185D02*
X121723628Y-94772652D01*
%TO.C,C7*%
X122860780Y-93772221D02*
X123059591Y-93971032D01*
X122139531Y-94493470D02*
X122338342Y-94692281D01*
%TO.C,U1*%
X112766000Y-82400000D02*
X112766000Y-76390000D01*
X119586000Y-80150000D02*
X119586000Y-76390000D01*
X112766000Y-76390000D02*
X114026000Y-76390000D01*
X119586000Y-76390000D02*
X118326000Y-76390000D01*
%TO.C,R5*%
X122413500Y-126221258D02*
X122413500Y-125746742D01*
X123458500Y-126221258D02*
X123458500Y-125746742D01*
%TO.C,R4*%
X136637500Y-126221258D02*
X136637500Y-125746742D01*
X137682500Y-126221258D02*
X137682500Y-125746742D01*
%TO.C,FB3*%
X129846855Y-109253165D02*
X130077060Y-109022960D01*
X130568104Y-109974414D02*
X130798309Y-109744209D01*
%TO.C,FB2*%
X129538244Y-94348768D02*
X129308039Y-94118563D01*
X130259493Y-93627519D02*
X130029288Y-93397314D01*
%TO.C,C15*%
X124970000Y-125843420D02*
X124970000Y-126124580D01*
X123950000Y-125843420D02*
X123950000Y-126124580D01*
%TO.C,C14*%
X136146000Y-125843420D02*
X136146000Y-126124580D01*
X135126000Y-125843420D02*
X135126000Y-126124580D01*
%TO.C,C13*%
X128784921Y-108159837D02*
X128983732Y-107961026D01*
X129506170Y-108881086D02*
X129704981Y-108682275D01*
%TO.C,C12*%
X132559457Y-98082744D02*
X132758268Y-98281555D01*
X131838208Y-98803993D02*
X132037019Y-99002804D01*
%TO.C,C11*%
X118686283Y-103501713D02*
X118885094Y-103700524D01*
X117965034Y-104222962D02*
X118163845Y-104421773D01*
%TO.C,C10*%
X128444917Y-95410702D02*
X128246106Y-95211891D01*
X129166166Y-94689453D02*
X128967355Y-94490642D01*
%TO.C,C8*%
X119627888Y-97005113D02*
X119826699Y-97203924D01*
X118906639Y-97726362D02*
X119105450Y-97925173D01*
%TO.C,C9*%
X118550258Y-98082744D02*
X118749069Y-98281555D01*
X117829009Y-98803993D02*
X118027820Y-99002804D01*
%TO.C,C6*%
X114018000Y-71579420D02*
X114018000Y-71860580D01*
X115038000Y-71579420D02*
X115038000Y-71860580D01*
%TO.C,C5*%
X115542000Y-71579420D02*
X115542000Y-71860580D01*
X116562000Y-71579420D02*
X116562000Y-71860580D01*
%TO.C,C3*%
X116093284Y-107047778D02*
X115894473Y-107246589D01*
X115372035Y-106326529D02*
X115173224Y-106525340D01*
%TO.C,C2*%
X121027591Y-112744085D02*
X120828780Y-112942896D01*
X120306342Y-112022836D02*
X120107531Y-112221647D01*
%TO.C,J3*%
X140068675Y-77550000D02*
X139635662Y-77800000D01*
X139635662Y-77300000D02*
X140068675Y-77550000D01*
X139635662Y-77800000D02*
X139635662Y-77300000D01*
X140530000Y-67560000D02*
X152870000Y-67560000D01*
X140530000Y-120780000D02*
X140530000Y-67560000D01*
X152870000Y-120780000D02*
X140530000Y-120780000D01*
%TO.C,R9*%
D11*
X111914000Y-102887428D02*
X111714000Y-102601714D01*
X111571142Y-102887428D02*
X111571142Y-102287428D01*
X111799714Y-102287428D01*
X111856857Y-102316000D01*
X111885428Y-102344571D01*
X111914000Y-102401714D01*
X111914000Y-102487428D01*
X111885428Y-102544571D01*
X111856857Y-102573142D01*
X111799714Y-102601714D01*
X111571142Y-102601714D01*
X112199714Y-102887428D02*
X112314000Y-102887428D01*
X112371142Y-102858857D01*
X112399714Y-102830285D01*
X112456857Y-102744571D01*
X112485428Y-102630285D01*
X112485428Y-102401714D01*
X112456857Y-102344571D01*
X112428285Y-102316000D01*
X112371142Y-102287428D01*
X112256857Y-102287428D01*
X112199714Y-102316000D01*
X112171142Y-102344571D01*
X112142571Y-102401714D01*
X112142571Y-102544571D01*
X112171142Y-102601714D01*
X112199714Y-102630285D01*
X112256857Y-102658857D01*
X112371142Y-102658857D01*
X112428285Y-102630285D01*
X112456857Y-102601714D01*
X112485428Y-102544571D01*
%TO.C,D4*%
X109793142Y-102887428D02*
X109793142Y-102287428D01*
X109936000Y-102287428D01*
X110021714Y-102316000D01*
X110078857Y-102373142D01*
X110107428Y-102430285D01*
X110136000Y-102544571D01*
X110136000Y-102630285D01*
X110107428Y-102744571D01*
X110078857Y-102801714D01*
X110021714Y-102858857D01*
X109936000Y-102887428D01*
X109793142Y-102887428D01*
X110650285Y-102487428D02*
X110650285Y-102887428D01*
X110507428Y-102258857D02*
X110364571Y-102687428D01*
X110736000Y-102687428D01*
%TO.C,R8*%
X129948000Y-120921428D02*
X129748000Y-120635714D01*
X129605142Y-120921428D02*
X129605142Y-120321428D01*
X129833714Y-120321428D01*
X129890857Y-120350000D01*
X129919428Y-120378571D01*
X129948000Y-120435714D01*
X129948000Y-120521428D01*
X129919428Y-120578571D01*
X129890857Y-120607142D01*
X129833714Y-120635714D01*
X129605142Y-120635714D01*
X130290857Y-120578571D02*
X130233714Y-120550000D01*
X130205142Y-120521428D01*
X130176571Y-120464285D01*
X130176571Y-120435714D01*
X130205142Y-120378571D01*
X130233714Y-120350000D01*
X130290857Y-120321428D01*
X130405142Y-120321428D01*
X130462285Y-120350000D01*
X130490857Y-120378571D01*
X130519428Y-120435714D01*
X130519428Y-120464285D01*
X130490857Y-120521428D01*
X130462285Y-120550000D01*
X130405142Y-120578571D01*
X130290857Y-120578571D01*
X130233714Y-120607142D01*
X130205142Y-120635714D01*
X130176571Y-120692857D01*
X130176571Y-120807142D01*
X130205142Y-120864285D01*
X130233714Y-120892857D01*
X130290857Y-120921428D01*
X130405142Y-120921428D01*
X130462285Y-120892857D01*
X130490857Y-120864285D01*
X130519428Y-120807142D01*
X130519428Y-120692857D01*
X130490857Y-120635714D01*
X130462285Y-120607142D01*
X130405142Y-120578571D01*
%TO.C,R7*%
X128170000Y-120921428D02*
X127970000Y-120635714D01*
X127827142Y-120921428D02*
X127827142Y-120321428D01*
X128055714Y-120321428D01*
X128112857Y-120350000D01*
X128141428Y-120378571D01*
X128170000Y-120435714D01*
X128170000Y-120521428D01*
X128141428Y-120578571D01*
X128112857Y-120607142D01*
X128055714Y-120635714D01*
X127827142Y-120635714D01*
X128370000Y-120321428D02*
X128770000Y-120321428D01*
X128512857Y-120921428D01*
%TO.C,D3*%
X129605142Y-113047428D02*
X129605142Y-112447428D01*
X129748000Y-112447428D01*
X129833714Y-112476000D01*
X129890857Y-112533142D01*
X129919428Y-112590285D01*
X129948000Y-112704571D01*
X129948000Y-112790285D01*
X129919428Y-112904571D01*
X129890857Y-112961714D01*
X129833714Y-113018857D01*
X129748000Y-113047428D01*
X129605142Y-113047428D01*
X130148000Y-112447428D02*
X130519428Y-112447428D01*
X130319428Y-112676000D01*
X130405142Y-112676000D01*
X130462285Y-112704571D01*
X130490857Y-112733142D01*
X130519428Y-112790285D01*
X130519428Y-112933142D01*
X130490857Y-112990285D01*
X130462285Y-113018857D01*
X130405142Y-113047428D01*
X130233714Y-113047428D01*
X130176571Y-113018857D01*
X130148000Y-112990285D01*
%TO.C,D2*%
X127827142Y-113047428D02*
X127827142Y-112447428D01*
X127970000Y-112447428D01*
X128055714Y-112476000D01*
X128112857Y-112533142D01*
X128141428Y-112590285D01*
X128170000Y-112704571D01*
X128170000Y-112790285D01*
X128141428Y-112904571D01*
X128112857Y-112961714D01*
X128055714Y-113018857D01*
X127970000Y-113047428D01*
X127827142Y-113047428D01*
X128398571Y-112504571D02*
X128427142Y-112476000D01*
X128484285Y-112447428D01*
X128627142Y-112447428D01*
X128684285Y-112476000D01*
X128712857Y-112504571D01*
X128741428Y-112561714D01*
X128741428Y-112618857D01*
X128712857Y-112704571D01*
X128370000Y-113047428D01*
X128741428Y-113047428D01*
%TO.C,SW1*%
X131052857Y-126784000D02*
X131081428Y-126698285D01*
X131081428Y-126555428D01*
X131052857Y-126498285D01*
X131024285Y-126469714D01*
X130967142Y-126441142D01*
X130910000Y-126441142D01*
X130852857Y-126469714D01*
X130824285Y-126498285D01*
X130795714Y-126555428D01*
X130767142Y-126669714D01*
X130738571Y-126726857D01*
X130710000Y-126755428D01*
X130652857Y-126784000D01*
X130595714Y-126784000D01*
X130538571Y-126755428D01*
X130510000Y-126726857D01*
X130481428Y-126669714D01*
X130481428Y-126526857D01*
X130510000Y-126441142D01*
X130481428Y-126241142D02*
X131081428Y-126098285D01*
X130652857Y-125984000D01*
X131081428Y-125869714D01*
X130481428Y-125726857D01*
X131081428Y-125184000D02*
X131081428Y-125526857D01*
X131081428Y-125355428D02*
X130481428Y-125355428D01*
X130567142Y-125412571D01*
X130624285Y-125469714D01*
X130652857Y-125526857D01*
%TO.C,SW2*%
X129492857Y-126784000D02*
X129521428Y-126698285D01*
X129521428Y-126555428D01*
X129492857Y-126498285D01*
X129464285Y-126469714D01*
X129407142Y-126441142D01*
X129350000Y-126441142D01*
X129292857Y-126469714D01*
X129264285Y-126498285D01*
X129235714Y-126555428D01*
X129207142Y-126669714D01*
X129178571Y-126726857D01*
X129150000Y-126755428D01*
X129092857Y-126784000D01*
X129035714Y-126784000D01*
X128978571Y-126755428D01*
X128950000Y-126726857D01*
X128921428Y-126669714D01*
X128921428Y-126526857D01*
X128950000Y-126441142D01*
X128921428Y-126241142D02*
X129521428Y-126098285D01*
X129092857Y-125984000D01*
X129521428Y-125869714D01*
X128921428Y-125726857D01*
X128978571Y-125526857D02*
X128950000Y-125498285D01*
X128921428Y-125441142D01*
X128921428Y-125298285D01*
X128950000Y-125241142D01*
X128978571Y-125212571D01*
X129035714Y-125184000D01*
X129092857Y-125184000D01*
X129178571Y-125212571D01*
X129521428Y-125555428D01*
X129521428Y-125184000D01*
%TO.C,J1*%
X109782000Y-82505428D02*
X109782000Y-82934000D01*
X109753428Y-83019714D01*
X109696285Y-83076857D01*
X109610571Y-83105428D01*
X109553428Y-83105428D01*
X110382000Y-83105428D02*
X110039142Y-83105428D01*
X110210571Y-83105428D02*
X110210571Y-82505428D01*
X110153428Y-82591142D01*
X110096285Y-82648285D01*
X110039142Y-82676857D01*
%TO.C,J2*%
X123244000Y-87301428D02*
X123244000Y-87730000D01*
X123215428Y-87815714D01*
X123158285Y-87872857D01*
X123072571Y-87901428D01*
X123015428Y-87901428D01*
X123501142Y-87358571D02*
X123529714Y-87330000D01*
X123586857Y-87301428D01*
X123729714Y-87301428D01*
X123786857Y-87330000D01*
X123815428Y-87358571D01*
X123844000Y-87415714D01*
X123844000Y-87472857D01*
X123815428Y-87558571D01*
X123472571Y-87901428D01*
X123844000Y-87901428D01*
%TO.C,Y1*%
X118332285Y-111745714D02*
X118332285Y-112031428D01*
X118132285Y-111431428D02*
X118332285Y-111745714D01*
X118532285Y-111431428D01*
X119046571Y-112031428D02*
X118703714Y-112031428D01*
X118875142Y-112031428D02*
X118875142Y-111431428D01*
X118818000Y-111517142D01*
X118760857Y-111574285D01*
X118703714Y-111602857D01*
%TO.C,R6*%
X136763428Y-97890000D02*
X136477714Y-98090000D01*
X136763428Y-98232857D02*
X136163428Y-98232857D01*
X136163428Y-98004285D01*
X136192000Y-97947142D01*
X136220571Y-97918571D01*
X136277714Y-97890000D01*
X136363428Y-97890000D01*
X136420571Y-97918571D01*
X136449142Y-97947142D01*
X136477714Y-98004285D01*
X136477714Y-98232857D01*
X136163428Y-97375714D02*
X136163428Y-97490000D01*
X136192000Y-97547142D01*
X136220571Y-97575714D01*
X136306285Y-97632857D01*
X136420571Y-97661428D01*
X136649142Y-97661428D01*
X136706285Y-97632857D01*
X136734857Y-97604285D01*
X136763428Y-97547142D01*
X136763428Y-97432857D01*
X136734857Y-97375714D01*
X136706285Y-97347142D01*
X136649142Y-97318571D01*
X136506285Y-97318571D01*
X136449142Y-97347142D01*
X136420571Y-97375714D01*
X136392000Y-97432857D01*
X136392000Y-97547142D01*
X136420571Y-97604285D01*
X136449142Y-97632857D01*
X136506285Y-97661428D01*
%TO.C,U2*%
X129149795Y-97811827D02*
X128806343Y-98155278D01*
X128786140Y-98215888D01*
X128786140Y-98256294D01*
X128806343Y-98316903D01*
X128887155Y-98397715D01*
X128947764Y-98417918D01*
X128988170Y-98417918D01*
X129048780Y-98397715D01*
X129392231Y-98054263D01*
X129533653Y-98276497D02*
X129574059Y-98276497D01*
X129634668Y-98296700D01*
X129735683Y-98397715D01*
X129755886Y-98458324D01*
X129755886Y-98498730D01*
X129735683Y-98559339D01*
X129695277Y-98599746D01*
X129614465Y-98640152D01*
X129129592Y-98640152D01*
X129392231Y-98902791D01*
%TO.C,R3*%
X131726000Y-120921428D02*
X131526000Y-120635714D01*
X131383142Y-120921428D02*
X131383142Y-120321428D01*
X131611714Y-120321428D01*
X131668857Y-120350000D01*
X131697428Y-120378571D01*
X131726000Y-120435714D01*
X131726000Y-120521428D01*
X131697428Y-120578571D01*
X131668857Y-120607142D01*
X131611714Y-120635714D01*
X131383142Y-120635714D01*
X131926000Y-120321428D02*
X132297428Y-120321428D01*
X132097428Y-120550000D01*
X132183142Y-120550000D01*
X132240285Y-120578571D01*
X132268857Y-120607142D01*
X132297428Y-120664285D01*
X132297428Y-120807142D01*
X132268857Y-120864285D01*
X132240285Y-120892857D01*
X132183142Y-120921428D01*
X132011714Y-120921428D01*
X131954571Y-120892857D01*
X131926000Y-120864285D01*
%TO.C,D1*%
X131383142Y-113047428D02*
X131383142Y-112447428D01*
X131526000Y-112447428D01*
X131611714Y-112476000D01*
X131668857Y-112533142D01*
X131697428Y-112590285D01*
X131726000Y-112704571D01*
X131726000Y-112790285D01*
X131697428Y-112904571D01*
X131668857Y-112961714D01*
X131611714Y-113018857D01*
X131526000Y-113047428D01*
X131383142Y-113047428D01*
X132297428Y-113047428D02*
X131954571Y-113047428D01*
X132126000Y-113047428D02*
X132126000Y-112447428D01*
X132068857Y-112533142D01*
X132011714Y-112590285D01*
X131954571Y-112618857D01*
%TO.C,FB1*%
X114308000Y-86409142D02*
X114108000Y-86409142D01*
X114108000Y-86723428D02*
X114108000Y-86123428D01*
X114393714Y-86123428D01*
X114822285Y-86409142D02*
X114908000Y-86437714D01*
X114936571Y-86466285D01*
X114965142Y-86523428D01*
X114965142Y-86609142D01*
X114936571Y-86666285D01*
X114908000Y-86694857D01*
X114850857Y-86723428D01*
X114622285Y-86723428D01*
X114622285Y-86123428D01*
X114822285Y-86123428D01*
X114879428Y-86152000D01*
X114908000Y-86180571D01*
X114936571Y-86237714D01*
X114936571Y-86294857D01*
X114908000Y-86352000D01*
X114879428Y-86380571D01*
X114822285Y-86409142D01*
X114622285Y-86409142D01*
X115536571Y-86723428D02*
X115193714Y-86723428D01*
X115365142Y-86723428D02*
X115365142Y-86123428D01*
X115308000Y-86209142D01*
X115250857Y-86266285D01*
X115193714Y-86294857D01*
%TO.C,C4*%
X117756000Y-68944285D02*
X117727428Y-68972857D01*
X117641714Y-69001428D01*
X117584571Y-69001428D01*
X117498857Y-68972857D01*
X117441714Y-68915714D01*
X117413142Y-68858571D01*
X117384571Y-68744285D01*
X117384571Y-68658571D01*
X117413142Y-68544285D01*
X117441714Y-68487142D01*
X117498857Y-68430000D01*
X117584571Y-68401428D01*
X117641714Y-68401428D01*
X117727428Y-68430000D01*
X117756000Y-68458571D01*
X118270285Y-68601428D02*
X118270285Y-69001428D01*
X118127428Y-68372857D02*
X117984571Y-68801428D01*
X118356000Y-68801428D01*
%TO.C,C1*%
X114708000Y-84288285D02*
X114679428Y-84316857D01*
X114593714Y-84345428D01*
X114536571Y-84345428D01*
X114450857Y-84316857D01*
X114393714Y-84259714D01*
X114365142Y-84202571D01*
X114336571Y-84088285D01*
X114336571Y-84002571D01*
X114365142Y-83888285D01*
X114393714Y-83831142D01*
X114450857Y-83774000D01*
X114536571Y-83745428D01*
X114593714Y-83745428D01*
X114679428Y-83774000D01*
X114708000Y-83802571D01*
X115279428Y-84345428D02*
X114936571Y-84345428D01*
X115108000Y-84345428D02*
X115108000Y-83745428D01*
X115050857Y-83831142D01*
X114993714Y-83888285D01*
X114936571Y-83916857D01*
%TO.C,R2*%
X118609360Y-94609217D02*
X118669969Y-94265765D01*
X118366923Y-94366780D02*
X118791187Y-93942516D01*
X118952812Y-94104141D01*
X118973015Y-94164750D01*
X118973015Y-94205156D01*
X118952812Y-94265765D01*
X118892203Y-94326374D01*
X118831593Y-94346577D01*
X118791187Y-94346577D01*
X118730578Y-94326374D01*
X118568954Y-94164750D01*
X119154842Y-94386983D02*
X119195248Y-94386983D01*
X119255857Y-94407186D01*
X119356873Y-94508202D01*
X119377076Y-94568811D01*
X119377076Y-94609217D01*
X119356873Y-94669826D01*
X119316467Y-94710232D01*
X119235654Y-94750638D01*
X118750781Y-94750638D01*
X119013421Y-95013278D01*
%TO.C,R1*%
X119371360Y-93847218D02*
X119431969Y-93503766D01*
X119128923Y-93604781D02*
X119553187Y-93180517D01*
X119714812Y-93342142D01*
X119735015Y-93402751D01*
X119735015Y-93443157D01*
X119714812Y-93503766D01*
X119654203Y-93564375D01*
X119593593Y-93584578D01*
X119553187Y-93584578D01*
X119492578Y-93564375D01*
X119330954Y-93402751D01*
X119775421Y-94251279D02*
X119532984Y-94008842D01*
X119654203Y-94130061D02*
X120078467Y-93705796D01*
X119977451Y-93726000D01*
X119896639Y-93726000D01*
X119836030Y-93705796D01*
%TO.C,C7*%
X120935766Y-92282812D02*
X120895360Y-92282812D01*
X120814548Y-92242406D01*
X120774142Y-92202000D01*
X120733735Y-92121187D01*
X120733735Y-92040375D01*
X120753938Y-91979766D01*
X120814548Y-91878751D01*
X120875157Y-91818142D01*
X120976172Y-91757532D01*
X121036781Y-91737329D01*
X121117593Y-91737329D01*
X121198406Y-91777735D01*
X121238812Y-91818142D01*
X121279218Y-91898954D01*
X121279218Y-91939360D01*
X121461045Y-92040375D02*
X121743888Y-92323218D01*
X121137796Y-92565654D01*
%TO.C,U1*%
X111302857Y-76887428D02*
X111302857Y-77373142D01*
X111331428Y-77430285D01*
X111360000Y-77458857D01*
X111417142Y-77487428D01*
X111531428Y-77487428D01*
X111588571Y-77458857D01*
X111617142Y-77430285D01*
X111645714Y-77373142D01*
X111645714Y-76887428D01*
X112245714Y-77487428D02*
X111902857Y-77487428D01*
X112074285Y-77487428D02*
X112074285Y-76887428D01*
X112017142Y-76973142D01*
X111960000Y-77030285D01*
X111902857Y-77058857D01*
%TO.C,R5*%
X123207428Y-123798000D02*
X122921714Y-123998000D01*
X123207428Y-124140857D02*
X122607428Y-124140857D01*
X122607428Y-123912285D01*
X122636000Y-123855142D01*
X122664571Y-123826571D01*
X122721714Y-123798000D01*
X122807428Y-123798000D01*
X122864571Y-123826571D01*
X122893142Y-123855142D01*
X122921714Y-123912285D01*
X122921714Y-124140857D01*
X122607428Y-123255142D02*
X122607428Y-123540857D01*
X122893142Y-123569428D01*
X122864571Y-123540857D01*
X122836000Y-123483714D01*
X122836000Y-123340857D01*
X122864571Y-123283714D01*
X122893142Y-123255142D01*
X122950285Y-123226571D01*
X123093142Y-123226571D01*
X123150285Y-123255142D01*
X123178857Y-123283714D01*
X123207428Y-123340857D01*
X123207428Y-123483714D01*
X123178857Y-123540857D01*
X123150285Y-123569428D01*
%TO.C,R4*%
X137431428Y-123798000D02*
X137145714Y-123998000D01*
X137431428Y-124140857D02*
X136831428Y-124140857D01*
X136831428Y-123912285D01*
X136860000Y-123855142D01*
X136888571Y-123826571D01*
X136945714Y-123798000D01*
X137031428Y-123798000D01*
X137088571Y-123826571D01*
X137117142Y-123855142D01*
X137145714Y-123912285D01*
X137145714Y-124140857D01*
X137031428Y-123283714D02*
X137431428Y-123283714D01*
X136802857Y-123426571D02*
X137231428Y-123569428D01*
X137231428Y-123198000D01*
%TO.C,FB3*%
X128140142Y-111575248D02*
X127998720Y-111716670D01*
X128220954Y-111938903D02*
X127796690Y-111514639D01*
X127998720Y-111312609D01*
X128503796Y-111211593D02*
X128584609Y-111171187D01*
X128625015Y-111171187D01*
X128685624Y-111191390D01*
X128746233Y-111252000D01*
X128766436Y-111312609D01*
X128766436Y-111353015D01*
X128746233Y-111413624D01*
X128584609Y-111575248D01*
X128160345Y-111150984D01*
X128301766Y-111009563D01*
X128362375Y-110989360D01*
X128402781Y-110989360D01*
X128463390Y-111009563D01*
X128503796Y-111049969D01*
X128524000Y-111110578D01*
X128524000Y-111150984D01*
X128503796Y-111211593D01*
X128362375Y-111353015D01*
X128544203Y-110767126D02*
X128806842Y-110504487D01*
X128827045Y-110807532D01*
X128887654Y-110746923D01*
X128948264Y-110726720D01*
X128988670Y-110726720D01*
X129049279Y-110746923D01*
X129150294Y-110847938D01*
X129170497Y-110908548D01*
X129170497Y-110948954D01*
X129150294Y-111009563D01*
X129029076Y-111130781D01*
X128968467Y-111150984D01*
X128928061Y-111150984D01*
%TO.C,FB2*%
X127692751Y-91564142D02*
X127551329Y-91422720D01*
X127329096Y-91644954D02*
X127753360Y-91220690D01*
X127955390Y-91422720D01*
X128056406Y-91927796D02*
X128096812Y-92008609D01*
X128096812Y-92049015D01*
X128076609Y-92109624D01*
X128016000Y-92170233D01*
X127955390Y-92190436D01*
X127914984Y-92190436D01*
X127854375Y-92170233D01*
X127692751Y-92008609D01*
X128117015Y-91584345D01*
X128258436Y-91725766D01*
X128278639Y-91786375D01*
X128278639Y-91826781D01*
X128258436Y-91887390D01*
X128218030Y-91927796D01*
X128157421Y-91948000D01*
X128117015Y-91948000D01*
X128056406Y-91927796D01*
X127914984Y-91786375D01*
X128480670Y-92028812D02*
X128521076Y-92028812D01*
X128581685Y-92049015D01*
X128682700Y-92150030D01*
X128702903Y-92210639D01*
X128702903Y-92251045D01*
X128682700Y-92311654D01*
X128642294Y-92352061D01*
X128561482Y-92392467D01*
X128076609Y-92392467D01*
X128339248Y-92655106D01*
%TO.C,C15*%
X124674285Y-123829714D02*
X124702857Y-123858285D01*
X124731428Y-123944000D01*
X124731428Y-124001142D01*
X124702857Y-124086857D01*
X124645714Y-124144000D01*
X124588571Y-124172571D01*
X124474285Y-124201142D01*
X124388571Y-124201142D01*
X124274285Y-124172571D01*
X124217142Y-124144000D01*
X124160000Y-124086857D01*
X124131428Y-124001142D01*
X124131428Y-123944000D01*
X124160000Y-123858285D01*
X124188571Y-123829714D01*
X124731428Y-123258285D02*
X124731428Y-123601142D01*
X124731428Y-123429714D02*
X124131428Y-123429714D01*
X124217142Y-123486857D01*
X124274285Y-123544000D01*
X124302857Y-123601142D01*
X124131428Y-122715428D02*
X124131428Y-123001142D01*
X124417142Y-123029714D01*
X124388571Y-123001142D01*
X124360000Y-122944000D01*
X124360000Y-122801142D01*
X124388571Y-122744000D01*
X124417142Y-122715428D01*
X124474285Y-122686857D01*
X124617142Y-122686857D01*
X124674285Y-122715428D01*
X124702857Y-122744000D01*
X124731428Y-122801142D01*
X124731428Y-122944000D01*
X124702857Y-123001142D01*
X124674285Y-123029714D01*
%TO.C,C14*%
X135850285Y-123829714D02*
X135878857Y-123858285D01*
X135907428Y-123944000D01*
X135907428Y-124001142D01*
X135878857Y-124086857D01*
X135821714Y-124144000D01*
X135764571Y-124172571D01*
X135650285Y-124201142D01*
X135564571Y-124201142D01*
X135450285Y-124172571D01*
X135393142Y-124144000D01*
X135336000Y-124086857D01*
X135307428Y-124001142D01*
X135307428Y-123944000D01*
X135336000Y-123858285D01*
X135364571Y-123829714D01*
X135907428Y-123258285D02*
X135907428Y-123601142D01*
X135907428Y-123429714D02*
X135307428Y-123429714D01*
X135393142Y-123486857D01*
X135450285Y-123544000D01*
X135478857Y-123601142D01*
X135507428Y-122744000D02*
X135907428Y-122744000D01*
X135278857Y-122886857D02*
X135707428Y-123029714D01*
X135707428Y-122658285D01*
%TO.C,C13*%
X127386781Y-110660264D02*
X127386781Y-110700670D01*
X127346375Y-110781482D01*
X127305969Y-110821888D01*
X127225157Y-110862294D01*
X127144345Y-110862294D01*
X127083735Y-110842091D01*
X126982720Y-110781482D01*
X126922111Y-110720873D01*
X126861502Y-110619857D01*
X126841299Y-110559248D01*
X126841299Y-110478436D01*
X126881705Y-110397624D01*
X126922111Y-110357218D01*
X127002923Y-110316812D01*
X127043329Y-110316812D01*
X127831248Y-110296609D02*
X127588812Y-110539045D01*
X127710030Y-110417827D02*
X127285766Y-109993563D01*
X127305969Y-110094578D01*
X127305969Y-110175390D01*
X127285766Y-110236000D01*
X127548406Y-109730923D02*
X127811045Y-109468284D01*
X127831248Y-109771329D01*
X127891857Y-109710720D01*
X127952467Y-109690517D01*
X127992873Y-109690517D01*
X128053482Y-109710720D01*
X128154497Y-109811735D01*
X128174700Y-109872345D01*
X128174700Y-109912751D01*
X128154497Y-109973360D01*
X128033279Y-110094578D01*
X127972670Y-110114781D01*
X127932264Y-110114781D01*
%TO.C,C12*%
X132885136Y-97410392D02*
X132844730Y-97410392D01*
X132763918Y-97369986D01*
X132723512Y-97329580D01*
X132683106Y-97248768D01*
X132683106Y-97167956D01*
X132703309Y-97107346D01*
X132763918Y-97006331D01*
X132824527Y-96945722D01*
X132925543Y-96885113D01*
X132986152Y-96864910D01*
X133066964Y-96864910D01*
X133147776Y-96905316D01*
X133188182Y-96945722D01*
X133228588Y-97026534D01*
X133228588Y-97066940D01*
X133248791Y-97854859D02*
X133006355Y-97612423D01*
X133127573Y-97733641D02*
X133551837Y-97309377D01*
X133450822Y-97329580D01*
X133370010Y-97329580D01*
X133309401Y-97309377D01*
X133794274Y-97632626D02*
X133834680Y-97632626D01*
X133895289Y-97652829D01*
X133996304Y-97753844D01*
X134016507Y-97814453D01*
X134016507Y-97854859D01*
X133996304Y-97915468D01*
X133955898Y-97955875D01*
X133875086Y-97996281D01*
X133390213Y-97996281D01*
X133652852Y-98258920D01*
%TO.C,C11*%
X116161735Y-101986781D02*
X116121329Y-101986781D01*
X116040517Y-101946375D01*
X116000111Y-101905969D01*
X115959705Y-101825157D01*
X115959705Y-101744345D01*
X115979908Y-101683735D01*
X116040517Y-101582720D01*
X116101126Y-101522111D01*
X116202142Y-101461502D01*
X116262751Y-101441299D01*
X116343563Y-101441299D01*
X116424375Y-101481705D01*
X116464781Y-101522111D01*
X116505187Y-101602923D01*
X116505187Y-101643329D01*
X116525390Y-102431248D02*
X116282954Y-102188812D01*
X116404172Y-102310030D02*
X116828436Y-101885766D01*
X116727421Y-101905969D01*
X116646609Y-101905969D01*
X116586000Y-101885766D01*
X116929451Y-102835309D02*
X116687015Y-102592873D01*
X116808233Y-102714091D02*
X117232497Y-102289827D01*
X117131482Y-102310030D01*
X117050670Y-102310030D01*
X116990061Y-102289827D01*
%TO.C,C10*%
X126575735Y-93096781D02*
X126535329Y-93096781D01*
X126454517Y-93056375D01*
X126414111Y-93015969D01*
X126373705Y-92935157D01*
X126373705Y-92854345D01*
X126393908Y-92793735D01*
X126454517Y-92692720D01*
X126515126Y-92632111D01*
X126616142Y-92571502D01*
X126676751Y-92551299D01*
X126757563Y-92551299D01*
X126838375Y-92591705D01*
X126878781Y-92632111D01*
X126919187Y-92712923D01*
X126919187Y-92753329D01*
X126939390Y-93541248D02*
X126696954Y-93298812D01*
X126818172Y-93420030D02*
X127242436Y-92995766D01*
X127141421Y-93015969D01*
X127060609Y-93015969D01*
X127000000Y-92995766D01*
X127626294Y-93379624D02*
X127666700Y-93420030D01*
X127686903Y-93480639D01*
X127686903Y-93521045D01*
X127666700Y-93581654D01*
X127606091Y-93682670D01*
X127505076Y-93783685D01*
X127404061Y-93844294D01*
X127343451Y-93864497D01*
X127303045Y-93864497D01*
X127242436Y-93844294D01*
X127202030Y-93803888D01*
X127181827Y-93743279D01*
X127181827Y-93702873D01*
X127202030Y-93642264D01*
X127262639Y-93541248D01*
X127363654Y-93440233D01*
X127464670Y-93379624D01*
X127525279Y-93359421D01*
X127565685Y-93359421D01*
X127626294Y-93379624D01*
%TO.C,C8*%
X117633766Y-95838812D02*
X117593360Y-95838812D01*
X117512548Y-95798406D01*
X117472142Y-95758000D01*
X117431735Y-95677187D01*
X117431735Y-95596375D01*
X117451938Y-95535766D01*
X117512548Y-95434751D01*
X117573157Y-95374142D01*
X117674172Y-95313532D01*
X117734781Y-95293329D01*
X117815593Y-95293329D01*
X117896406Y-95333735D01*
X117936812Y-95374142D01*
X117977218Y-95454954D01*
X117977218Y-95495360D01*
X118078233Y-95879218D02*
X118058030Y-95818609D01*
X118058030Y-95778203D01*
X118078233Y-95717593D01*
X118098436Y-95697390D01*
X118159045Y-95677187D01*
X118199451Y-95677187D01*
X118260061Y-95697390D01*
X118340873Y-95778203D01*
X118361076Y-95838812D01*
X118361076Y-95879218D01*
X118340873Y-95939827D01*
X118320670Y-95960030D01*
X118260061Y-95980233D01*
X118219654Y-95980233D01*
X118159045Y-95960030D01*
X118078233Y-95879218D01*
X118017624Y-95859015D01*
X117977218Y-95859015D01*
X117916609Y-95879218D01*
X117835796Y-95960030D01*
X117815593Y-96020639D01*
X117815593Y-96061045D01*
X117835796Y-96121654D01*
X117916609Y-96202467D01*
X117977218Y-96222670D01*
X118017624Y-96222670D01*
X118078233Y-96202467D01*
X118159045Y-96121654D01*
X118179248Y-96061045D01*
X118179248Y-96020639D01*
X118159045Y-95960030D01*
%TO.C,C9*%
X116363767Y-97108812D02*
X116323361Y-97108812D01*
X116242549Y-97068406D01*
X116202143Y-97028000D01*
X116161736Y-96947187D01*
X116161736Y-96866375D01*
X116181939Y-96805766D01*
X116242549Y-96704751D01*
X116303158Y-96644142D01*
X116404173Y-96583532D01*
X116464782Y-96563329D01*
X116545594Y-96563329D01*
X116626407Y-96603735D01*
X116666813Y-96644142D01*
X116707219Y-96724954D01*
X116707219Y-96765360D01*
X116525391Y-97351248D02*
X116606204Y-97432061D01*
X116666813Y-97452264D01*
X116707219Y-97452264D01*
X116808234Y-97432061D01*
X116909249Y-97371451D01*
X117070874Y-97209827D01*
X117091077Y-97149218D01*
X117091077Y-97108812D01*
X117070874Y-97048203D01*
X116990062Y-96967390D01*
X116929452Y-96947187D01*
X116889046Y-96947187D01*
X116828437Y-96967390D01*
X116727422Y-97068406D01*
X116707219Y-97129015D01*
X116707219Y-97169421D01*
X116727422Y-97230030D01*
X116808234Y-97310842D01*
X116868843Y-97331045D01*
X116909249Y-97331045D01*
X116969858Y-97310842D01*
%TO.C,C6*%
X114360000Y-68944285D02*
X114331428Y-68972857D01*
X114245714Y-69001428D01*
X114188571Y-69001428D01*
X114102857Y-68972857D01*
X114045714Y-68915714D01*
X114017142Y-68858571D01*
X113988571Y-68744285D01*
X113988571Y-68658571D01*
X114017142Y-68544285D01*
X114045714Y-68487142D01*
X114102857Y-68430000D01*
X114188571Y-68401428D01*
X114245714Y-68401428D01*
X114331428Y-68430000D01*
X114360000Y-68458571D01*
X114874285Y-68401428D02*
X114760000Y-68401428D01*
X114702857Y-68430000D01*
X114674285Y-68458571D01*
X114617142Y-68544285D01*
X114588571Y-68658571D01*
X114588571Y-68887142D01*
X114617142Y-68944285D01*
X114645714Y-68972857D01*
X114702857Y-69001428D01*
X114817142Y-69001428D01*
X114874285Y-68972857D01*
X114902857Y-68944285D01*
X114931428Y-68887142D01*
X114931428Y-68744285D01*
X114902857Y-68687142D01*
X114874285Y-68658571D01*
X114817142Y-68630000D01*
X114702857Y-68630000D01*
X114645714Y-68658571D01*
X114617142Y-68687142D01*
X114588571Y-68744285D01*
%TO.C,C5*%
X115960000Y-68944285D02*
X115931428Y-68972857D01*
X115845714Y-69001428D01*
X115788571Y-69001428D01*
X115702857Y-68972857D01*
X115645714Y-68915714D01*
X115617142Y-68858571D01*
X115588571Y-68744285D01*
X115588571Y-68658571D01*
X115617142Y-68544285D01*
X115645714Y-68487142D01*
X115702857Y-68430000D01*
X115788571Y-68401428D01*
X115845714Y-68401428D01*
X115931428Y-68430000D01*
X115960000Y-68458571D01*
X116502857Y-68401428D02*
X116217142Y-68401428D01*
X116188571Y-68687142D01*
X116217142Y-68658571D01*
X116274285Y-68630000D01*
X116417142Y-68630000D01*
X116474285Y-68658571D01*
X116502857Y-68687142D01*
X116531428Y-68744285D01*
X116531428Y-68887142D01*
X116502857Y-68944285D01*
X116474285Y-68972857D01*
X116417142Y-69001428D01*
X116274285Y-69001428D01*
X116217142Y-68972857D01*
X116188571Y-68944285D01*
%TO.C,C3*%
X114888812Y-106140233D02*
X114888812Y-106180639D01*
X114848406Y-106261451D01*
X114808000Y-106301857D01*
X114727187Y-106342264D01*
X114646375Y-106342264D01*
X114585766Y-106322061D01*
X114484751Y-106261451D01*
X114424142Y-106200842D01*
X114363532Y-106099827D01*
X114343329Y-106039218D01*
X114343329Y-105958406D01*
X114383735Y-105877593D01*
X114424142Y-105837187D01*
X114504954Y-105796781D01*
X114545360Y-105796781D01*
X114646375Y-105614954D02*
X114909015Y-105352314D01*
X114929218Y-105655360D01*
X114989827Y-105594751D01*
X115050436Y-105574548D01*
X115090842Y-105574548D01*
X115151451Y-105594751D01*
X115252467Y-105695766D01*
X115272670Y-105756375D01*
X115272670Y-105796781D01*
X115252467Y-105857390D01*
X115131248Y-105978609D01*
X115070639Y-105998812D01*
X115030233Y-105998812D01*
%TO.C,C2*%
X121659536Y-113716262D02*
X121659536Y-113756668D01*
X121619130Y-113837480D01*
X121578724Y-113877886D01*
X121497911Y-113918293D01*
X121417099Y-113918293D01*
X121356490Y-113898090D01*
X121255475Y-113837480D01*
X121194866Y-113776871D01*
X121134256Y-113675856D01*
X121114053Y-113615247D01*
X121114053Y-113534435D01*
X121154459Y-113453622D01*
X121194866Y-113413216D01*
X121275678Y-113372810D01*
X121316084Y-113372810D01*
X121477708Y-113211186D02*
X121477708Y-113170780D01*
X121497911Y-113110171D01*
X121598927Y-113009155D01*
X121659536Y-112988952D01*
X121699942Y-112988952D01*
X121760551Y-113009155D01*
X121800957Y-113049561D01*
X121841363Y-113130374D01*
X121841363Y-113615247D01*
X122104003Y-113352607D01*
%TO.C,J3*%
X140760000Y-66301428D02*
X140760000Y-66730000D01*
X140731428Y-66815714D01*
X140674285Y-66872857D01*
X140588571Y-66901428D01*
X140531428Y-66901428D01*
X140988571Y-66301428D02*
X141360000Y-66301428D01*
X141160000Y-66530000D01*
X141245714Y-66530000D01*
X141302857Y-66558571D01*
X141331428Y-66587142D01*
X141360000Y-66644285D01*
X141360000Y-66787142D01*
X141331428Y-66844285D01*
X141302857Y-66872857D01*
X141245714Y-66901428D01*
X141074285Y-66901428D01*
X141017142Y-66872857D01*
X140988571Y-66844285D01*
%TD*%
M02*
