%TF.GenerationSoftware,KiCad,Pcbnew,(5.1.8)-1*%
%TF.CreationDate,2021-01-03T01:00:04+10:00*%
%TF.ProjectId,OpenRetroPad,4f70656e-5265-4747-926f-5061642e6b69,rev?*%
%TF.SameCoordinates,Original*%
%TF.FileFunction,Copper,L1,Top*%
%TF.FilePolarity,Positive*%
%FSLAX46Y46*%
G04 Gerber Fmt 4.6, Leading zero omitted, Abs format (unit mm)*
G04 Created by KiCad (PCBNEW (5.1.8)-1) date 2021-01-03 01:00:04*
%MOMM*%
%LPD*%
G01*
G04 APERTURE LIST*
%TA.AperFunction,SMDPad,CuDef*%
%ADD10C,1.152000*%
%TD*%
%TA.AperFunction,SMDPad,CuDef*%
%ADD11R,1.900000X1.200000*%
%TD*%
%TA.AperFunction,ComponentPad*%
%ADD12O,1.900000X1.200000*%
%TD*%
%TA.AperFunction,SMDPad,CuDef*%
%ADD13R,1.900000X1.500000*%
%TD*%
%TA.AperFunction,ComponentPad*%
%ADD14C,1.450000*%
%TD*%
%TA.AperFunction,SMDPad,CuDef*%
%ADD15R,1.350000X0.400000*%
%TD*%
%TA.AperFunction,ComponentPad*%
%ADD16O,1.700000X1.700000*%
%TD*%
%TA.AperFunction,ComponentPad*%
%ADD17R,1.700000X1.700000*%
%TD*%
%TA.AperFunction,SMDPad,CuDef*%
%ADD18R,1.200000X1.400000*%
%TD*%
%TA.AperFunction,ComponentPad*%
%ADD19C,0.500000*%
%TD*%
%TA.AperFunction,SMDPad,CuDef*%
%ADD20C,0.100000*%
%TD*%
%TA.AperFunction,ComponentPad*%
%ADD21C,0.800000*%
%TD*%
%TA.AperFunction,ComponentPad*%
%ADD22C,6.400000*%
%TD*%
%TA.AperFunction,SMDPad,CuDef*%
%ADD23R,3.800000X2.000000*%
%TD*%
%TA.AperFunction,SMDPad,CuDef*%
%ADD24R,1.500000X2.000000*%
%TD*%
%TA.AperFunction,ComponentPad*%
%ADD25C,4.000000*%
%TD*%
%TA.AperFunction,ComponentPad*%
%ADD26C,1.600000*%
%TD*%
%TA.AperFunction,ComponentPad*%
%ADD27R,1.600000X1.600000*%
%TD*%
%TA.AperFunction,ViaPad*%
%ADD28C,0.600000*%
%TD*%
%TA.AperFunction,Conductor*%
%ADD29C,0.304800*%
%TD*%
%TA.AperFunction,Conductor*%
%ADD30C,0.203200*%
%TD*%
%TA.AperFunction,Conductor*%
%ADD31C,0.406400*%
%TD*%
%TA.AperFunction,Conductor*%
%ADD32C,0.254000*%
%TD*%
%TA.AperFunction,Conductor*%
%ADD33C,0.100000*%
%TD*%
G04 APERTURE END LIST*
D10*
%TO.P,FID3,1*%
%TO.N,N/C*%
X140760000Y-126230000D03*
%TD*%
%TO.P,FID2,1*%
%TO.N,N/C*%
X118760000Y-126230000D03*
%TD*%
%TO.P,FID1,1*%
%TO.N,N/C*%
X118760000Y-62230000D03*
%TD*%
%TO.P,R9,2*%
%TO.N,GND*%
%TA.AperFunction,SMDPad,CuDef*%
G36*
G01*
X112289000Y-99905000D02*
X111739000Y-99905000D01*
G75*
G02*
X111539000Y-99705000I0J200000D01*
G01*
X111539000Y-99305000D01*
G75*
G02*
X111739000Y-99105000I200000J0D01*
G01*
X112289000Y-99105000D01*
G75*
G02*
X112489000Y-99305000I0J-200000D01*
G01*
X112489000Y-99705000D01*
G75*
G02*
X112289000Y-99905000I-200000J0D01*
G01*
G37*
%TD.AperFunction*%
%TO.P,R9,1*%
%TO.N,Net-(D4-Pad1)*%
%TA.AperFunction,SMDPad,CuDef*%
G36*
G01*
X112289000Y-101555000D02*
X111739000Y-101555000D01*
G75*
G02*
X111539000Y-101355000I0J200000D01*
G01*
X111539000Y-100955000D01*
G75*
G02*
X111739000Y-100755000I200000J0D01*
G01*
X112289000Y-100755000D01*
G75*
G02*
X112489000Y-100955000I0J-200000D01*
G01*
X112489000Y-101355000D01*
G75*
G02*
X112289000Y-101555000I-200000J0D01*
G01*
G37*
%TD.AperFunction*%
%TD*%
%TO.P,D4,2*%
%TO.N,+5V*%
%TA.AperFunction,SMDPad,CuDef*%
G36*
G01*
X110492250Y-99980000D02*
X109979750Y-99980000D01*
G75*
G02*
X109761000Y-99761250I0J218750D01*
G01*
X109761000Y-99323750D01*
G75*
G02*
X109979750Y-99105000I218750J0D01*
G01*
X110492250Y-99105000D01*
G75*
G02*
X110711000Y-99323750I0J-218750D01*
G01*
X110711000Y-99761250D01*
G75*
G02*
X110492250Y-99980000I-218750J0D01*
G01*
G37*
%TD.AperFunction*%
%TO.P,D4,1*%
%TO.N,Net-(D4-Pad1)*%
%TA.AperFunction,SMDPad,CuDef*%
G36*
G01*
X110492250Y-101555000D02*
X109979750Y-101555000D01*
G75*
G02*
X109761000Y-101336250I0J218750D01*
G01*
X109761000Y-100898750D01*
G75*
G02*
X109979750Y-100680000I218750J0D01*
G01*
X110492250Y-100680000D01*
G75*
G02*
X110711000Y-100898750I0J-218750D01*
G01*
X110711000Y-101336250D01*
G75*
G02*
X110492250Y-101555000I-218750J0D01*
G01*
G37*
%TD.AperFunction*%
%TD*%
%TO.P,R8,2*%
%TO.N,Net-(D3-Pad2)*%
%TA.AperFunction,SMDPad,CuDef*%
G36*
G01*
X130323000Y-118193000D02*
X129773000Y-118193000D01*
G75*
G02*
X129573000Y-117993000I0J200000D01*
G01*
X129573000Y-117593000D01*
G75*
G02*
X129773000Y-117393000I200000J0D01*
G01*
X130323000Y-117393000D01*
G75*
G02*
X130523000Y-117593000I0J-200000D01*
G01*
X130523000Y-117993000D01*
G75*
G02*
X130323000Y-118193000I-200000J0D01*
G01*
G37*
%TD.AperFunction*%
%TO.P,R8,1*%
%TO.N,GND*%
%TA.AperFunction,SMDPad,CuDef*%
G36*
G01*
X130323000Y-119843000D02*
X129773000Y-119843000D01*
G75*
G02*
X129573000Y-119643000I0J200000D01*
G01*
X129573000Y-119243000D01*
G75*
G02*
X129773000Y-119043000I200000J0D01*
G01*
X130323000Y-119043000D01*
G75*
G02*
X130523000Y-119243000I0J-200000D01*
G01*
X130523000Y-119643000D01*
G75*
G02*
X130323000Y-119843000I-200000J0D01*
G01*
G37*
%TD.AperFunction*%
%TD*%
%TO.P,R7,2*%
%TO.N,Net-(D2-Pad2)*%
%TA.AperFunction,SMDPad,CuDef*%
G36*
G01*
X128545000Y-118193000D02*
X127995000Y-118193000D01*
G75*
G02*
X127795000Y-117993000I0J200000D01*
G01*
X127795000Y-117593000D01*
G75*
G02*
X127995000Y-117393000I200000J0D01*
G01*
X128545000Y-117393000D01*
G75*
G02*
X128745000Y-117593000I0J-200000D01*
G01*
X128745000Y-117993000D01*
G75*
G02*
X128545000Y-118193000I-200000J0D01*
G01*
G37*
%TD.AperFunction*%
%TO.P,R7,1*%
%TO.N,GND*%
%TA.AperFunction,SMDPad,CuDef*%
G36*
G01*
X128545000Y-119843000D02*
X127995000Y-119843000D01*
G75*
G02*
X127795000Y-119643000I0J200000D01*
G01*
X127795000Y-119243000D01*
G75*
G02*
X127995000Y-119043000I200000J0D01*
G01*
X128545000Y-119043000D01*
G75*
G02*
X128745000Y-119243000I0J-200000D01*
G01*
X128745000Y-119643000D01*
G75*
G02*
X128545000Y-119843000I-200000J0D01*
G01*
G37*
%TD.AperFunction*%
%TD*%
%TO.P,D3,2*%
%TO.N,Net-(D3-Pad2)*%
%TA.AperFunction,SMDPad,CuDef*%
G36*
G01*
X129791750Y-115666000D02*
X130304250Y-115666000D01*
G75*
G02*
X130523000Y-115884750I0J-218750D01*
G01*
X130523000Y-116322250D01*
G75*
G02*
X130304250Y-116541000I-218750J0D01*
G01*
X129791750Y-116541000D01*
G75*
G02*
X129573000Y-116322250I0J218750D01*
G01*
X129573000Y-115884750D01*
G75*
G02*
X129791750Y-115666000I218750J0D01*
G01*
G37*
%TD.AperFunction*%
%TO.P,D3,1*%
%TO.N,PD5*%
%TA.AperFunction,SMDPad,CuDef*%
G36*
G01*
X129791750Y-114091000D02*
X130304250Y-114091000D01*
G75*
G02*
X130523000Y-114309750I0J-218750D01*
G01*
X130523000Y-114747250D01*
G75*
G02*
X130304250Y-114966000I-218750J0D01*
G01*
X129791750Y-114966000D01*
G75*
G02*
X129573000Y-114747250I0J218750D01*
G01*
X129573000Y-114309750D01*
G75*
G02*
X129791750Y-114091000I218750J0D01*
G01*
G37*
%TD.AperFunction*%
%TD*%
%TO.P,D2,2*%
%TO.N,Net-(D2-Pad2)*%
%TA.AperFunction,SMDPad,CuDef*%
G36*
G01*
X128013750Y-115666000D02*
X128526250Y-115666000D01*
G75*
G02*
X128745000Y-115884750I0J-218750D01*
G01*
X128745000Y-116322250D01*
G75*
G02*
X128526250Y-116541000I-218750J0D01*
G01*
X128013750Y-116541000D01*
G75*
G02*
X127795000Y-116322250I0J218750D01*
G01*
X127795000Y-115884750D01*
G75*
G02*
X128013750Y-115666000I218750J0D01*
G01*
G37*
%TD.AperFunction*%
%TO.P,D2,1*%
%TO.N,PB0*%
%TA.AperFunction,SMDPad,CuDef*%
G36*
G01*
X128013750Y-114091000D02*
X128526250Y-114091000D01*
G75*
G02*
X128745000Y-114309750I0J-218750D01*
G01*
X128745000Y-114747250D01*
G75*
G02*
X128526250Y-114966000I-218750J0D01*
G01*
X128013750Y-114966000D01*
G75*
G02*
X127795000Y-114747250I0J218750D01*
G01*
X127795000Y-114309750D01*
G75*
G02*
X128013750Y-114091000I218750J0D01*
G01*
G37*
%TD.AperFunction*%
%TD*%
%TO.P,SW1,1*%
%TO.N,PE2*%
%TA.AperFunction,SMDPad,CuDef*%
G36*
G01*
X132296000Y-123484000D02*
X133896000Y-123484000D01*
G75*
G02*
X134096000Y-123684000I0J-200000D01*
G01*
X134096000Y-124084000D01*
G75*
G02*
X133896000Y-124284000I-200000J0D01*
G01*
X132296000Y-124284000D01*
G75*
G02*
X132096000Y-124084000I0J200000D01*
G01*
X132096000Y-123684000D01*
G75*
G02*
X132296000Y-123484000I200000J0D01*
G01*
G37*
%TD.AperFunction*%
%TO.P,SW1,2*%
%TO.N,GND*%
%TA.AperFunction,SMDPad,CuDef*%
G36*
G01*
X132296000Y-127684000D02*
X133896000Y-127684000D01*
G75*
G02*
X134096000Y-127884000I0J-200000D01*
G01*
X134096000Y-128284000D01*
G75*
G02*
X133896000Y-128484000I-200000J0D01*
G01*
X132296000Y-128484000D01*
G75*
G02*
X132096000Y-128284000I0J200000D01*
G01*
X132096000Y-127884000D01*
G75*
G02*
X132296000Y-127684000I200000J0D01*
G01*
G37*
%TD.AperFunction*%
%TD*%
%TO.P,SW2,1*%
%TO.N,RESET*%
%TA.AperFunction,SMDPad,CuDef*%
G36*
G01*
X126200000Y-123484000D02*
X127800000Y-123484000D01*
G75*
G02*
X128000000Y-123684000I0J-200000D01*
G01*
X128000000Y-124084000D01*
G75*
G02*
X127800000Y-124284000I-200000J0D01*
G01*
X126200000Y-124284000D01*
G75*
G02*
X126000000Y-124084000I0J200000D01*
G01*
X126000000Y-123684000D01*
G75*
G02*
X126200000Y-123484000I200000J0D01*
G01*
G37*
%TD.AperFunction*%
%TO.P,SW2,2*%
%TO.N,GND*%
%TA.AperFunction,SMDPad,CuDef*%
G36*
G01*
X126200000Y-127684000D02*
X127800000Y-127684000D01*
G75*
G02*
X128000000Y-127884000I0J-200000D01*
G01*
X128000000Y-128284000D01*
G75*
G02*
X127800000Y-128484000I-200000J0D01*
G01*
X126200000Y-128484000D01*
G75*
G02*
X126000000Y-128284000I0J200000D01*
G01*
X126000000Y-127884000D01*
G75*
G02*
X126200000Y-127684000I200000J0D01*
G01*
G37*
%TD.AperFunction*%
%TD*%
D11*
%TO.P,J1,6*%
%TO.N,GND*%
X108522500Y-85030000D03*
X108522500Y-90830000D03*
D12*
X108522500Y-91430000D03*
X108522500Y-84430000D03*
D13*
X108522500Y-86930000D03*
D14*
X111222500Y-90430000D03*
D15*
%TO.P,J1,3*%
%TO.N,D+*%
X111222500Y-87930000D03*
%TO.P,J1,4*%
%TO.N,Net-(J1-Pad4)*%
X111222500Y-88580000D03*
%TO.P,J1,5*%
%TO.N,GND*%
X111222500Y-89230000D03*
%TO.P,J1,1*%
%TO.N,Net-(FB1-Pad2)*%
X111222500Y-86630000D03*
%TO.P,J1,2*%
%TO.N,D-*%
X111222500Y-87280000D03*
D14*
%TO.P,J1,6*%
%TO.N,GND*%
X111222500Y-85430000D03*
D13*
X108522500Y-88930000D03*
%TD*%
D16*
%TO.P,J2,8*%
%TO.N,PF1*%
X132380000Y-82690000D03*
%TO.P,J2,6*%
%TO.N,PB2*%
X129840000Y-82690000D03*
%TO.P,J2,4*%
%TO.N,PB4*%
X127300000Y-82690000D03*
%TO.P,J2,2*%
%TO.N,+3V3*%
X124760000Y-82690000D03*
%TO.P,J2,7*%
%TO.N,PB3*%
X132380000Y-85230000D03*
%TO.P,J2,5*%
%TO.N,PB1*%
X129840000Y-85230000D03*
%TO.P,J2,3*%
%TO.N,PB5*%
X127300000Y-85230000D03*
D17*
%TO.P,J2,1*%
%TO.N,GND*%
X124760000Y-85230000D03*
%TD*%
D18*
%TO.P,Y1,4*%
%TO.N,GND*%
X117768000Y-110066000D03*
%TO.P,Y1,3*%
%TO.N,XTAL2*%
X117768000Y-107866000D03*
%TO.P,Y1,2*%
%TO.N,GND*%
X119468000Y-107866000D03*
%TO.P,Y1,1*%
%TO.N,XTAL1*%
X119468000Y-110066000D03*
%TD*%
%TO.P,R6,2*%
%TO.N,+5V*%
%TA.AperFunction,SMDPad,CuDef*%
G36*
G01*
X138197000Y-97365000D02*
X137647000Y-97365000D01*
G75*
G02*
X137447000Y-97165000I0J200000D01*
G01*
X137447000Y-96765000D01*
G75*
G02*
X137647000Y-96565000I200000J0D01*
G01*
X138197000Y-96565000D01*
G75*
G02*
X138397000Y-96765000I0J-200000D01*
G01*
X138397000Y-97165000D01*
G75*
G02*
X138197000Y-97365000I-200000J0D01*
G01*
G37*
%TD.AperFunction*%
%TO.P,R6,1*%
%TO.N,PB5*%
%TA.AperFunction,SMDPad,CuDef*%
G36*
G01*
X138197000Y-99015000D02*
X137647000Y-99015000D01*
G75*
G02*
X137447000Y-98815000I0J200000D01*
G01*
X137447000Y-98415000D01*
G75*
G02*
X137647000Y-98215000I200000J0D01*
G01*
X138197000Y-98215000D01*
G75*
G02*
X138397000Y-98415000I0J-200000D01*
G01*
X138397000Y-98815000D01*
G75*
G02*
X138197000Y-99015000I-200000J0D01*
G01*
G37*
%TD.AperFunction*%
%TD*%
D19*
%TO.P,U2,45*%
%TO.N,GND*%
X125832454Y-105063713D03*
X125010442Y-104241701D03*
X124188431Y-103419689D03*
X123366419Y-102597678D03*
X122544407Y-101775666D03*
X126654466Y-104241701D03*
X125832454Y-103419689D03*
X125010442Y-102597678D03*
X124188431Y-101775666D03*
X123366419Y-100953654D03*
X127476477Y-103419689D03*
X126654466Y-102597678D03*
X125832454Y-101775666D03*
X125010442Y-100953654D03*
X124188431Y-100131643D03*
X128298489Y-102597678D03*
X127476477Y-101775666D03*
X126654466Y-100953654D03*
X125832454Y-100131643D03*
X125010442Y-99309631D03*
X129120501Y-101775666D03*
X128298489Y-100953654D03*
X127476477Y-100131643D03*
X126654466Y-99309631D03*
X125832454Y-98487619D03*
%TA.AperFunction,SMDPad,CuDef*%
D20*
G36*
X122190854Y-101775666D02*
G01*
X125832454Y-98134066D01*
X129474054Y-101775666D01*
X125832454Y-105417266D01*
X122190854Y-101775666D01*
G37*
%TD.AperFunction*%
%TO.P,U2,44*%
%TO.N,Net-(C10-Pad2)*%
%TA.AperFunction,SMDPad,CuDef*%
G36*
G01*
X126141814Y-97753996D02*
X126672144Y-97223666D01*
G75*
G02*
X126760532Y-97223666I44194J-44194D01*
G01*
X126848920Y-97312054D01*
G75*
G02*
X126848920Y-97400442I-44194J-44194D01*
G01*
X126318590Y-97930772D01*
G75*
G02*
X126230202Y-97930772I-44194J44194D01*
G01*
X126141814Y-97842384D01*
G75*
G02*
X126141814Y-97753996I44194J44194D01*
G01*
G37*
%TD.AperFunction*%
%TO.P,U2,43*%
%TO.N,GND*%
%TA.AperFunction,SMDPad,CuDef*%
G36*
G01*
X126495367Y-98107550D02*
X127025697Y-97577220D01*
G75*
G02*
X127114085Y-97577220I44194J-44194D01*
G01*
X127202473Y-97665608D01*
G75*
G02*
X127202473Y-97753996I-44194J-44194D01*
G01*
X126672143Y-98284326D01*
G75*
G02*
X126583755Y-98284326I-44194J44194D01*
G01*
X126495367Y-98195938D01*
G75*
G02*
X126495367Y-98107550I44194J44194D01*
G01*
G37*
%TD.AperFunction*%
%TO.P,U2,42*%
%TO.N,Net-(U2-Pad42)*%
%TA.AperFunction,SMDPad,CuDef*%
G36*
G01*
X126848920Y-98461103D02*
X127379250Y-97930773D01*
G75*
G02*
X127467638Y-97930773I44194J-44194D01*
G01*
X127556026Y-98019161D01*
G75*
G02*
X127556026Y-98107549I-44194J-44194D01*
G01*
X127025696Y-98637879D01*
G75*
G02*
X126937308Y-98637879I-44194J44194D01*
G01*
X126848920Y-98549491D01*
G75*
G02*
X126848920Y-98461103I44194J44194D01*
G01*
G37*
%TD.AperFunction*%
%TO.P,U2,41*%
%TO.N,Net-(U2-Pad41)*%
%TA.AperFunction,SMDPad,CuDef*%
G36*
G01*
X127202474Y-98814657D02*
X127732804Y-98284327D01*
G75*
G02*
X127821192Y-98284327I44194J-44194D01*
G01*
X127909580Y-98372715D01*
G75*
G02*
X127909580Y-98461103I-44194J-44194D01*
G01*
X127379250Y-98991433D01*
G75*
G02*
X127290862Y-98991433I-44194J44194D01*
G01*
X127202474Y-98903045D01*
G75*
G02*
X127202474Y-98814657I44194J44194D01*
G01*
G37*
%TD.AperFunction*%
%TO.P,U2,40*%
%TO.N,PF1*%
%TA.AperFunction,SMDPad,CuDef*%
G36*
G01*
X127556027Y-99168210D02*
X128086357Y-98637880D01*
G75*
G02*
X128174745Y-98637880I44194J-44194D01*
G01*
X128263133Y-98726268D01*
G75*
G02*
X128263133Y-98814656I-44194J-44194D01*
G01*
X127732803Y-99344986D01*
G75*
G02*
X127644415Y-99344986I-44194J44194D01*
G01*
X127556027Y-99256598D01*
G75*
G02*
X127556027Y-99168210I44194J44194D01*
G01*
G37*
%TD.AperFunction*%
%TO.P,U2,39*%
%TO.N,PF4*%
%TA.AperFunction,SMDPad,CuDef*%
G36*
G01*
X127909581Y-99521763D02*
X128439911Y-98991433D01*
G75*
G02*
X128528299Y-98991433I44194J-44194D01*
G01*
X128616687Y-99079821D01*
G75*
G02*
X128616687Y-99168209I-44194J-44194D01*
G01*
X128086357Y-99698539D01*
G75*
G02*
X127997969Y-99698539I-44194J44194D01*
G01*
X127909581Y-99610151D01*
G75*
G02*
X127909581Y-99521763I44194J44194D01*
G01*
G37*
%TD.AperFunction*%
%TO.P,U2,38*%
%TO.N,PF5*%
%TA.AperFunction,SMDPad,CuDef*%
G36*
G01*
X128263134Y-99875317D02*
X128793464Y-99344987D01*
G75*
G02*
X128881852Y-99344987I44194J-44194D01*
G01*
X128970240Y-99433375D01*
G75*
G02*
X128970240Y-99521763I-44194J-44194D01*
G01*
X128439910Y-100052093D01*
G75*
G02*
X128351522Y-100052093I-44194J44194D01*
G01*
X128263134Y-99963705D01*
G75*
G02*
X128263134Y-99875317I44194J44194D01*
G01*
G37*
%TD.AperFunction*%
%TO.P,U2,37*%
%TO.N,PF6*%
%TA.AperFunction,SMDPad,CuDef*%
G36*
G01*
X128616687Y-100228870D02*
X129147017Y-99698540D01*
G75*
G02*
X129235405Y-99698540I44194J-44194D01*
G01*
X129323793Y-99786928D01*
G75*
G02*
X129323793Y-99875316I-44194J-44194D01*
G01*
X128793463Y-100405646D01*
G75*
G02*
X128705075Y-100405646I-44194J44194D01*
G01*
X128616687Y-100317258D01*
G75*
G02*
X128616687Y-100228870I44194J44194D01*
G01*
G37*
%TD.AperFunction*%
%TO.P,U2,36*%
%TO.N,PF7*%
%TA.AperFunction,SMDPad,CuDef*%
G36*
G01*
X128970241Y-100582424D02*
X129500571Y-100052094D01*
G75*
G02*
X129588959Y-100052094I44194J-44194D01*
G01*
X129677347Y-100140482D01*
G75*
G02*
X129677347Y-100228870I-44194J-44194D01*
G01*
X129147017Y-100759200D01*
G75*
G02*
X129058629Y-100759200I-44194J44194D01*
G01*
X128970241Y-100670812D01*
G75*
G02*
X128970241Y-100582424I44194J44194D01*
G01*
G37*
%TD.AperFunction*%
%TO.P,U2,35*%
%TO.N,GND*%
%TA.AperFunction,SMDPad,CuDef*%
G36*
G01*
X129323794Y-100935977D02*
X129854124Y-100405647D01*
G75*
G02*
X129942512Y-100405647I44194J-44194D01*
G01*
X130030900Y-100494035D01*
G75*
G02*
X130030900Y-100582423I-44194J-44194D01*
G01*
X129500570Y-101112753D01*
G75*
G02*
X129412182Y-101112753I-44194J44194D01*
G01*
X129323794Y-101024365D01*
G75*
G02*
X129323794Y-100935977I44194J44194D01*
G01*
G37*
%TD.AperFunction*%
%TO.P,U2,34*%
%TO.N,+5V*%
%TA.AperFunction,SMDPad,CuDef*%
G36*
G01*
X129677348Y-101289530D02*
X130207678Y-100759200D01*
G75*
G02*
X130296066Y-100759200I44194J-44194D01*
G01*
X130384454Y-100847588D01*
G75*
G02*
X130384454Y-100935976I-44194J-44194D01*
G01*
X129854124Y-101466306D01*
G75*
G02*
X129765736Y-101466306I-44194J44194D01*
G01*
X129677348Y-101377918D01*
G75*
G02*
X129677348Y-101289530I44194J44194D01*
G01*
G37*
%TD.AperFunction*%
%TO.P,U2,33*%
%TO.N,PE2*%
%TA.AperFunction,SMDPad,CuDef*%
G36*
G01*
X129677348Y-102173414D02*
X129765736Y-102085026D01*
G75*
G02*
X129854124Y-102085026I44194J-44194D01*
G01*
X130384454Y-102615356D01*
G75*
G02*
X130384454Y-102703744I-44194J-44194D01*
G01*
X130296066Y-102792132D01*
G75*
G02*
X130207678Y-102792132I-44194J44194D01*
G01*
X129677348Y-102261802D01*
G75*
G02*
X129677348Y-102173414I44194J44194D01*
G01*
G37*
%TD.AperFunction*%
%TO.P,U2,32*%
%TO.N,PC7*%
%TA.AperFunction,SMDPad,CuDef*%
G36*
G01*
X129323794Y-102526967D02*
X129412182Y-102438579D01*
G75*
G02*
X129500570Y-102438579I44194J-44194D01*
G01*
X130030900Y-102968909D01*
G75*
G02*
X130030900Y-103057297I-44194J-44194D01*
G01*
X129942512Y-103145685D01*
G75*
G02*
X129854124Y-103145685I-44194J44194D01*
G01*
X129323794Y-102615355D01*
G75*
G02*
X129323794Y-102526967I44194J44194D01*
G01*
G37*
%TD.AperFunction*%
%TO.P,U2,31*%
%TO.N,PC6*%
%TA.AperFunction,SMDPad,CuDef*%
G36*
G01*
X128970241Y-102880520D02*
X129058629Y-102792132D01*
G75*
G02*
X129147017Y-102792132I44194J-44194D01*
G01*
X129677347Y-103322462D01*
G75*
G02*
X129677347Y-103410850I-44194J-44194D01*
G01*
X129588959Y-103499238D01*
G75*
G02*
X129500571Y-103499238I-44194J44194D01*
G01*
X128970241Y-102968908D01*
G75*
G02*
X128970241Y-102880520I44194J44194D01*
G01*
G37*
%TD.AperFunction*%
%TO.P,U2,30*%
%TO.N,PB6*%
%TA.AperFunction,SMDPad,CuDef*%
G36*
G01*
X128616687Y-103234074D02*
X128705075Y-103145686D01*
G75*
G02*
X128793463Y-103145686I44194J-44194D01*
G01*
X129323793Y-103676016D01*
G75*
G02*
X129323793Y-103764404I-44194J-44194D01*
G01*
X129235405Y-103852792D01*
G75*
G02*
X129147017Y-103852792I-44194J44194D01*
G01*
X128616687Y-103322462D01*
G75*
G02*
X128616687Y-103234074I44194J44194D01*
G01*
G37*
%TD.AperFunction*%
%TO.P,U2,29*%
%TO.N,PB5*%
%TA.AperFunction,SMDPad,CuDef*%
G36*
G01*
X128263134Y-103587627D02*
X128351522Y-103499239D01*
G75*
G02*
X128439910Y-103499239I44194J-44194D01*
G01*
X128970240Y-104029569D01*
G75*
G02*
X128970240Y-104117957I-44194J-44194D01*
G01*
X128881852Y-104206345D01*
G75*
G02*
X128793464Y-104206345I-44194J44194D01*
G01*
X128263134Y-103676015D01*
G75*
G02*
X128263134Y-103587627I44194J44194D01*
G01*
G37*
%TD.AperFunction*%
%TO.P,U2,28*%
%TO.N,PB4*%
%TA.AperFunction,SMDPad,CuDef*%
G36*
G01*
X127909581Y-103941181D02*
X127997969Y-103852793D01*
G75*
G02*
X128086357Y-103852793I44194J-44194D01*
G01*
X128616687Y-104383123D01*
G75*
G02*
X128616687Y-104471511I-44194J-44194D01*
G01*
X128528299Y-104559899D01*
G75*
G02*
X128439911Y-104559899I-44194J44194D01*
G01*
X127909581Y-104029569D01*
G75*
G02*
X127909581Y-103941181I44194J44194D01*
G01*
G37*
%TD.AperFunction*%
%TO.P,U2,27*%
%TO.N,PD7*%
%TA.AperFunction,SMDPad,CuDef*%
G36*
G01*
X127556027Y-104294734D02*
X127644415Y-104206346D01*
G75*
G02*
X127732803Y-104206346I44194J-44194D01*
G01*
X128263133Y-104736676D01*
G75*
G02*
X128263133Y-104825064I-44194J-44194D01*
G01*
X128174745Y-104913452D01*
G75*
G02*
X128086357Y-104913452I-44194J44194D01*
G01*
X127556027Y-104383122D01*
G75*
G02*
X127556027Y-104294734I44194J44194D01*
G01*
G37*
%TD.AperFunction*%
%TO.P,U2,26*%
%TO.N,Net-(U2-Pad26)*%
%TA.AperFunction,SMDPad,CuDef*%
G36*
G01*
X127202474Y-104648287D02*
X127290862Y-104559899D01*
G75*
G02*
X127379250Y-104559899I44194J-44194D01*
G01*
X127909580Y-105090229D01*
G75*
G02*
X127909580Y-105178617I-44194J-44194D01*
G01*
X127821192Y-105267005D01*
G75*
G02*
X127732804Y-105267005I-44194J44194D01*
G01*
X127202474Y-104736675D01*
G75*
G02*
X127202474Y-104648287I44194J44194D01*
G01*
G37*
%TD.AperFunction*%
%TO.P,U2,25*%
%TO.N,PD4*%
%TA.AperFunction,SMDPad,CuDef*%
G36*
G01*
X126848920Y-105001841D02*
X126937308Y-104913453D01*
G75*
G02*
X127025696Y-104913453I44194J-44194D01*
G01*
X127556026Y-105443783D01*
G75*
G02*
X127556026Y-105532171I-44194J-44194D01*
G01*
X127467638Y-105620559D01*
G75*
G02*
X127379250Y-105620559I-44194J44194D01*
G01*
X126848920Y-105090229D01*
G75*
G02*
X126848920Y-105001841I44194J44194D01*
G01*
G37*
%TD.AperFunction*%
%TO.P,U2,24*%
%TO.N,Net-(C13-Pad2)*%
%TA.AperFunction,SMDPad,CuDef*%
G36*
G01*
X126495367Y-105355394D02*
X126583755Y-105267006D01*
G75*
G02*
X126672143Y-105267006I44194J-44194D01*
G01*
X127202473Y-105797336D01*
G75*
G02*
X127202473Y-105885724I-44194J-44194D01*
G01*
X127114085Y-105974112D01*
G75*
G02*
X127025697Y-105974112I-44194J44194D01*
G01*
X126495367Y-105443782D01*
G75*
G02*
X126495367Y-105355394I44194J44194D01*
G01*
G37*
%TD.AperFunction*%
%TO.P,U2,23*%
%TO.N,GND*%
%TA.AperFunction,SMDPad,CuDef*%
G36*
G01*
X126141814Y-105708948D02*
X126230202Y-105620560D01*
G75*
G02*
X126318590Y-105620560I44194J-44194D01*
G01*
X126848920Y-106150890D01*
G75*
G02*
X126848920Y-106239278I-44194J-44194D01*
G01*
X126760532Y-106327666D01*
G75*
G02*
X126672144Y-106327666I-44194J44194D01*
G01*
X126141814Y-105797336D01*
G75*
G02*
X126141814Y-105708948I44194J44194D01*
G01*
G37*
%TD.AperFunction*%
%TO.P,U2,22*%
%TO.N,PD5*%
%TA.AperFunction,SMDPad,CuDef*%
G36*
G01*
X124815988Y-106150890D02*
X125346318Y-105620560D01*
G75*
G02*
X125434706Y-105620560I44194J-44194D01*
G01*
X125523094Y-105708948D01*
G75*
G02*
X125523094Y-105797336I-44194J-44194D01*
G01*
X124992764Y-106327666D01*
G75*
G02*
X124904376Y-106327666I-44194J44194D01*
G01*
X124815988Y-106239278D01*
G75*
G02*
X124815988Y-106150890I44194J44194D01*
G01*
G37*
%TD.AperFunction*%
%TO.P,U2,21*%
%TO.N,PD3*%
%TA.AperFunction,SMDPad,CuDef*%
G36*
G01*
X124462435Y-105797336D02*
X124992765Y-105267006D01*
G75*
G02*
X125081153Y-105267006I44194J-44194D01*
G01*
X125169541Y-105355394D01*
G75*
G02*
X125169541Y-105443782I-44194J-44194D01*
G01*
X124639211Y-105974112D01*
G75*
G02*
X124550823Y-105974112I-44194J44194D01*
G01*
X124462435Y-105885724D01*
G75*
G02*
X124462435Y-105797336I44194J44194D01*
G01*
G37*
%TD.AperFunction*%
%TO.P,U2,20*%
%TO.N,PD2*%
%TA.AperFunction,SMDPad,CuDef*%
G36*
G01*
X124108882Y-105443783D02*
X124639212Y-104913453D01*
G75*
G02*
X124727600Y-104913453I44194J-44194D01*
G01*
X124815988Y-105001841D01*
G75*
G02*
X124815988Y-105090229I-44194J-44194D01*
G01*
X124285658Y-105620559D01*
G75*
G02*
X124197270Y-105620559I-44194J44194D01*
G01*
X124108882Y-105532171D01*
G75*
G02*
X124108882Y-105443783I44194J44194D01*
G01*
G37*
%TD.AperFunction*%
%TO.P,U2,19*%
%TO.N,PD1*%
%TA.AperFunction,SMDPad,CuDef*%
G36*
G01*
X123755328Y-105090229D02*
X124285658Y-104559899D01*
G75*
G02*
X124374046Y-104559899I44194J-44194D01*
G01*
X124462434Y-104648287D01*
G75*
G02*
X124462434Y-104736675I-44194J-44194D01*
G01*
X123932104Y-105267005D01*
G75*
G02*
X123843716Y-105267005I-44194J44194D01*
G01*
X123755328Y-105178617D01*
G75*
G02*
X123755328Y-105090229I44194J44194D01*
G01*
G37*
%TD.AperFunction*%
%TO.P,U2,18*%
%TO.N,PD0*%
%TA.AperFunction,SMDPad,CuDef*%
G36*
G01*
X123401775Y-104736676D02*
X123932105Y-104206346D01*
G75*
G02*
X124020493Y-104206346I44194J-44194D01*
G01*
X124108881Y-104294734D01*
G75*
G02*
X124108881Y-104383122I-44194J-44194D01*
G01*
X123578551Y-104913452D01*
G75*
G02*
X123490163Y-104913452I-44194J44194D01*
G01*
X123401775Y-104825064D01*
G75*
G02*
X123401775Y-104736676I44194J44194D01*
G01*
G37*
%TD.AperFunction*%
%TO.P,U2,17*%
%TO.N,XTAL1*%
%TA.AperFunction,SMDPad,CuDef*%
G36*
G01*
X123048221Y-104383123D02*
X123578551Y-103852793D01*
G75*
G02*
X123666939Y-103852793I44194J-44194D01*
G01*
X123755327Y-103941181D01*
G75*
G02*
X123755327Y-104029569I-44194J-44194D01*
G01*
X123224997Y-104559899D01*
G75*
G02*
X123136609Y-104559899I-44194J44194D01*
G01*
X123048221Y-104471511D01*
G75*
G02*
X123048221Y-104383123I44194J44194D01*
G01*
G37*
%TD.AperFunction*%
%TO.P,U2,16*%
%TO.N,XTAL2*%
%TA.AperFunction,SMDPad,CuDef*%
G36*
G01*
X122694668Y-104029569D02*
X123224998Y-103499239D01*
G75*
G02*
X123313386Y-103499239I44194J-44194D01*
G01*
X123401774Y-103587627D01*
G75*
G02*
X123401774Y-103676015I-44194J-44194D01*
G01*
X122871444Y-104206345D01*
G75*
G02*
X122783056Y-104206345I-44194J44194D01*
G01*
X122694668Y-104117957D01*
G75*
G02*
X122694668Y-104029569I44194J44194D01*
G01*
G37*
%TD.AperFunction*%
%TO.P,U2,15*%
%TO.N,GND*%
%TA.AperFunction,SMDPad,CuDef*%
G36*
G01*
X122341115Y-103676016D02*
X122871445Y-103145686D01*
G75*
G02*
X122959833Y-103145686I44194J-44194D01*
G01*
X123048221Y-103234074D01*
G75*
G02*
X123048221Y-103322462I-44194J-44194D01*
G01*
X122517891Y-103852792D01*
G75*
G02*
X122429503Y-103852792I-44194J44194D01*
G01*
X122341115Y-103764404D01*
G75*
G02*
X122341115Y-103676016I44194J44194D01*
G01*
G37*
%TD.AperFunction*%
%TO.P,U2,14*%
%TO.N,+5V*%
%TA.AperFunction,SMDPad,CuDef*%
G36*
G01*
X121987561Y-103322462D02*
X122517891Y-102792132D01*
G75*
G02*
X122606279Y-102792132I44194J-44194D01*
G01*
X122694667Y-102880520D01*
G75*
G02*
X122694667Y-102968908I-44194J-44194D01*
G01*
X122164337Y-103499238D01*
G75*
G02*
X122075949Y-103499238I-44194J44194D01*
G01*
X121987561Y-103410850D01*
G75*
G02*
X121987561Y-103322462I44194J44194D01*
G01*
G37*
%TD.AperFunction*%
%TO.P,U2,13*%
%TO.N,RESET*%
%TA.AperFunction,SMDPad,CuDef*%
G36*
G01*
X121634008Y-102968909D02*
X122164338Y-102438579D01*
G75*
G02*
X122252726Y-102438579I44194J-44194D01*
G01*
X122341114Y-102526967D01*
G75*
G02*
X122341114Y-102615355I-44194J-44194D01*
G01*
X121810784Y-103145685D01*
G75*
G02*
X121722396Y-103145685I-44194J44194D01*
G01*
X121634008Y-103057297D01*
G75*
G02*
X121634008Y-102968909I44194J44194D01*
G01*
G37*
%TD.AperFunction*%
%TO.P,U2,12*%
%TO.N,Net-(U2-Pad12)*%
%TA.AperFunction,SMDPad,CuDef*%
G36*
G01*
X121280454Y-102615356D02*
X121810784Y-102085026D01*
G75*
G02*
X121899172Y-102085026I44194J-44194D01*
G01*
X121987560Y-102173414D01*
G75*
G02*
X121987560Y-102261802I-44194J-44194D01*
G01*
X121457230Y-102792132D01*
G75*
G02*
X121368842Y-102792132I-44194J44194D01*
G01*
X121280454Y-102703744D01*
G75*
G02*
X121280454Y-102615356I44194J44194D01*
G01*
G37*
%TD.AperFunction*%
%TO.P,U2,11*%
%TO.N,PB3*%
%TA.AperFunction,SMDPad,CuDef*%
G36*
G01*
X121280454Y-100847588D02*
X121368842Y-100759200D01*
G75*
G02*
X121457230Y-100759200I44194J-44194D01*
G01*
X121987560Y-101289530D01*
G75*
G02*
X121987560Y-101377918I-44194J-44194D01*
G01*
X121899172Y-101466306D01*
G75*
G02*
X121810784Y-101466306I-44194J44194D01*
G01*
X121280454Y-100935976D01*
G75*
G02*
X121280454Y-100847588I44194J44194D01*
G01*
G37*
%TD.AperFunction*%
%TO.P,U2,10*%
%TO.N,PB2*%
%TA.AperFunction,SMDPad,CuDef*%
G36*
G01*
X121634008Y-100494035D02*
X121722396Y-100405647D01*
G75*
G02*
X121810784Y-100405647I44194J-44194D01*
G01*
X122341114Y-100935977D01*
G75*
G02*
X122341114Y-101024365I-44194J-44194D01*
G01*
X122252726Y-101112753D01*
G75*
G02*
X122164338Y-101112753I-44194J44194D01*
G01*
X121634008Y-100582423D01*
G75*
G02*
X121634008Y-100494035I44194J44194D01*
G01*
G37*
%TD.AperFunction*%
%TO.P,U2,9*%
%TO.N,PB1*%
%TA.AperFunction,SMDPad,CuDef*%
G36*
G01*
X121987561Y-100140482D02*
X122075949Y-100052094D01*
G75*
G02*
X122164337Y-100052094I44194J-44194D01*
G01*
X122694667Y-100582424D01*
G75*
G02*
X122694667Y-100670812I-44194J-44194D01*
G01*
X122606279Y-100759200D01*
G75*
G02*
X122517891Y-100759200I-44194J44194D01*
G01*
X121987561Y-100228870D01*
G75*
G02*
X121987561Y-100140482I44194J44194D01*
G01*
G37*
%TD.AperFunction*%
%TO.P,U2,8*%
%TO.N,PB0*%
%TA.AperFunction,SMDPad,CuDef*%
G36*
G01*
X122341115Y-99786928D02*
X122429503Y-99698540D01*
G75*
G02*
X122517891Y-99698540I44194J-44194D01*
G01*
X123048221Y-100228870D01*
G75*
G02*
X123048221Y-100317258I-44194J-44194D01*
G01*
X122959833Y-100405646D01*
G75*
G02*
X122871445Y-100405646I-44194J44194D01*
G01*
X122341115Y-99875316D01*
G75*
G02*
X122341115Y-99786928I44194J44194D01*
G01*
G37*
%TD.AperFunction*%
%TO.P,U2,7*%
%TO.N,+5V*%
%TA.AperFunction,SMDPad,CuDef*%
G36*
G01*
X122694668Y-99433375D02*
X122783056Y-99344987D01*
G75*
G02*
X122871444Y-99344987I44194J-44194D01*
G01*
X123401774Y-99875317D01*
G75*
G02*
X123401774Y-99963705I-44194J-44194D01*
G01*
X123313386Y-100052093D01*
G75*
G02*
X123224998Y-100052093I-44194J44194D01*
G01*
X122694668Y-99521763D01*
G75*
G02*
X122694668Y-99433375I44194J44194D01*
G01*
G37*
%TD.AperFunction*%
%TO.P,U2,6*%
%TO.N,Net-(C8-Pad2)*%
%TA.AperFunction,SMDPad,CuDef*%
G36*
G01*
X123048221Y-99079821D02*
X123136609Y-98991433D01*
G75*
G02*
X123224997Y-98991433I44194J-44194D01*
G01*
X123755327Y-99521763D01*
G75*
G02*
X123755327Y-99610151I-44194J-44194D01*
G01*
X123666939Y-99698539D01*
G75*
G02*
X123578551Y-99698539I-44194J44194D01*
G01*
X123048221Y-99168209D01*
G75*
G02*
X123048221Y-99079821I44194J44194D01*
G01*
G37*
%TD.AperFunction*%
%TO.P,U2,5*%
%TO.N,GND*%
%TA.AperFunction,SMDPad,CuDef*%
G36*
G01*
X123401775Y-98726268D02*
X123490163Y-98637880D01*
G75*
G02*
X123578551Y-98637880I44194J-44194D01*
G01*
X124108881Y-99168210D01*
G75*
G02*
X124108881Y-99256598I-44194J-44194D01*
G01*
X124020493Y-99344986D01*
G75*
G02*
X123932105Y-99344986I-44194J44194D01*
G01*
X123401775Y-98814656D01*
G75*
G02*
X123401775Y-98726268I44194J44194D01*
G01*
G37*
%TD.AperFunction*%
%TO.P,U2,4*%
%TO.N,Net-(R2-Pad1)*%
%TA.AperFunction,SMDPad,CuDef*%
G36*
G01*
X123755328Y-98372715D02*
X123843716Y-98284327D01*
G75*
G02*
X123932104Y-98284327I44194J-44194D01*
G01*
X124462434Y-98814657D01*
G75*
G02*
X124462434Y-98903045I-44194J-44194D01*
G01*
X124374046Y-98991433D01*
G75*
G02*
X124285658Y-98991433I-44194J44194D01*
G01*
X123755328Y-98461103D01*
G75*
G02*
X123755328Y-98372715I44194J44194D01*
G01*
G37*
%TD.AperFunction*%
%TO.P,U2,3*%
%TO.N,Net-(R1-Pad1)*%
%TA.AperFunction,SMDPad,CuDef*%
G36*
G01*
X124108882Y-98019161D02*
X124197270Y-97930773D01*
G75*
G02*
X124285658Y-97930773I44194J-44194D01*
G01*
X124815988Y-98461103D01*
G75*
G02*
X124815988Y-98549491I-44194J-44194D01*
G01*
X124727600Y-98637879D01*
G75*
G02*
X124639212Y-98637879I-44194J44194D01*
G01*
X124108882Y-98107549D01*
G75*
G02*
X124108882Y-98019161I44194J44194D01*
G01*
G37*
%TD.AperFunction*%
%TO.P,U2,2*%
%TO.N,+5V*%
%TA.AperFunction,SMDPad,CuDef*%
G36*
G01*
X124462435Y-97665608D02*
X124550823Y-97577220D01*
G75*
G02*
X124639211Y-97577220I44194J-44194D01*
G01*
X125169541Y-98107550D01*
G75*
G02*
X125169541Y-98195938I-44194J-44194D01*
G01*
X125081153Y-98284326D01*
G75*
G02*
X124992765Y-98284326I-44194J44194D01*
G01*
X124462435Y-97753996D01*
G75*
G02*
X124462435Y-97665608I44194J44194D01*
G01*
G37*
%TD.AperFunction*%
%TO.P,U2,1*%
%TO.N,PE6*%
%TA.AperFunction,SMDPad,CuDef*%
G36*
G01*
X124815988Y-97312054D02*
X124904376Y-97223666D01*
G75*
G02*
X124992764Y-97223666I44194J-44194D01*
G01*
X125523094Y-97753996D01*
G75*
G02*
X125523094Y-97842384I-44194J-44194D01*
G01*
X125434706Y-97930772D01*
G75*
G02*
X125346318Y-97930772I-44194J44194D01*
G01*
X124815988Y-97400442D01*
G75*
G02*
X124815988Y-97312054I44194J44194D01*
G01*
G37*
%TD.AperFunction*%
%TD*%
D21*
%TO.P,H4,1*%
%TO.N,N/C*%
X149457056Y-124532944D03*
X147760000Y-123830000D03*
X146062944Y-124532944D03*
X145360000Y-126230000D03*
X146062944Y-127927056D03*
X147760000Y-128630000D03*
X149457056Y-127927056D03*
X150160000Y-126230000D03*
D22*
X147760000Y-126230000D03*
%TD*%
D21*
%TO.P,H3,1*%
%TO.N,N/C*%
X113457056Y-124532944D03*
X111760000Y-123830000D03*
X110062944Y-124532944D03*
X109360000Y-126230000D03*
X110062944Y-127927056D03*
X111760000Y-128630000D03*
X113457056Y-127927056D03*
X114160000Y-126230000D03*
D22*
X111760000Y-126230000D03*
%TD*%
D21*
%TO.P,H2,1*%
%TO.N,N/C*%
X149457056Y-60532944D03*
X147760000Y-59830000D03*
X146062944Y-60532944D03*
X145360000Y-62230000D03*
X146062944Y-63927056D03*
X147760000Y-64630000D03*
X149457056Y-63927056D03*
X150160000Y-62230000D03*
D22*
X147760000Y-62230000D03*
%TD*%
D21*
%TO.P,H1,1*%
%TO.N,N/C*%
X113457056Y-60532944D03*
X111760000Y-59830000D03*
X110062944Y-60532944D03*
X109360000Y-62230000D03*
X110062944Y-63927056D03*
X111760000Y-64630000D03*
X113457056Y-63927056D03*
X114160000Y-62230000D03*
D22*
X111760000Y-62230000D03*
%TD*%
%TO.P,R3,2*%
%TO.N,Net-(D1-Pad1)*%
%TA.AperFunction,SMDPad,CuDef*%
G36*
G01*
X132101000Y-118193000D02*
X131551000Y-118193000D01*
G75*
G02*
X131351000Y-117993000I0J200000D01*
G01*
X131351000Y-117593000D01*
G75*
G02*
X131551000Y-117393000I200000J0D01*
G01*
X132101000Y-117393000D01*
G75*
G02*
X132301000Y-117593000I0J-200000D01*
G01*
X132301000Y-117993000D01*
G75*
G02*
X132101000Y-118193000I-200000J0D01*
G01*
G37*
%TD.AperFunction*%
%TO.P,R3,1*%
%TO.N,GND*%
%TA.AperFunction,SMDPad,CuDef*%
G36*
G01*
X132101000Y-119843000D02*
X131551000Y-119843000D01*
G75*
G02*
X131351000Y-119643000I0J200000D01*
G01*
X131351000Y-119243000D01*
G75*
G02*
X131551000Y-119043000I200000J0D01*
G01*
X132101000Y-119043000D01*
G75*
G02*
X132301000Y-119243000I0J-200000D01*
G01*
X132301000Y-119643000D01*
G75*
G02*
X132101000Y-119843000I-200000J0D01*
G01*
G37*
%TD.AperFunction*%
%TD*%
%TO.P,D1,2*%
%TO.N,PC7*%
%TA.AperFunction,SMDPad,CuDef*%
G36*
G01*
X132082250Y-114966000D02*
X131569750Y-114966000D01*
G75*
G02*
X131351000Y-114747250I0J218750D01*
G01*
X131351000Y-114309750D01*
G75*
G02*
X131569750Y-114091000I218750J0D01*
G01*
X132082250Y-114091000D01*
G75*
G02*
X132301000Y-114309750I0J-218750D01*
G01*
X132301000Y-114747250D01*
G75*
G02*
X132082250Y-114966000I-218750J0D01*
G01*
G37*
%TD.AperFunction*%
%TO.P,D1,1*%
%TO.N,Net-(D1-Pad1)*%
%TA.AperFunction,SMDPad,CuDef*%
G36*
G01*
X132082250Y-116541000D02*
X131569750Y-116541000D01*
G75*
G02*
X131351000Y-116322250I0J218750D01*
G01*
X131351000Y-115884750D01*
G75*
G02*
X131569750Y-115666000I218750J0D01*
G01*
X132082250Y-115666000D01*
G75*
G02*
X132301000Y-115884750I0J-218750D01*
G01*
X132301000Y-116322250D01*
G75*
G02*
X132082250Y-116541000I-218750J0D01*
G01*
G37*
%TD.AperFunction*%
%TD*%
%TO.P,FB1,2*%
%TO.N,Net-(FB1-Pad2)*%
%TA.AperFunction,SMDPad,CuDef*%
G36*
G01*
X116723000Y-85660750D02*
X116723000Y-86423250D01*
G75*
G02*
X116504250Y-86642000I-218750J0D01*
G01*
X116066750Y-86642000D01*
G75*
G02*
X115848000Y-86423250I0J218750D01*
G01*
X115848000Y-85660750D01*
G75*
G02*
X116066750Y-85442000I218750J0D01*
G01*
X116504250Y-85442000D01*
G75*
G02*
X116723000Y-85660750I0J-218750D01*
G01*
G37*
%TD.AperFunction*%
%TO.P,FB1,1*%
%TO.N,+5V*%
%TA.AperFunction,SMDPad,CuDef*%
G36*
G01*
X118848000Y-85660750D02*
X118848000Y-86423250D01*
G75*
G02*
X118629250Y-86642000I-218750J0D01*
G01*
X118191750Y-86642000D01*
G75*
G02*
X117973000Y-86423250I0J218750D01*
G01*
X117973000Y-85660750D01*
G75*
G02*
X118191750Y-85442000I218750J0D01*
G01*
X118629250Y-85442000D01*
G75*
G02*
X118848000Y-85660750I0J-218750D01*
G01*
G37*
%TD.AperFunction*%
%TD*%
%TO.P,C4,1*%
%TO.N,GND*%
%TA.AperFunction,SMDPad,CuDef*%
G36*
G01*
X117355000Y-70270000D02*
X118305000Y-70270000D01*
G75*
G02*
X118555000Y-70520000I0J-250000D01*
G01*
X118555000Y-71020000D01*
G75*
G02*
X118305000Y-71270000I-250000J0D01*
G01*
X117355000Y-71270000D01*
G75*
G02*
X117105000Y-71020000I0J250000D01*
G01*
X117105000Y-70520000D01*
G75*
G02*
X117355000Y-70270000I250000J0D01*
G01*
G37*
%TD.AperFunction*%
%TO.P,C4,2*%
%TO.N,+3V3*%
%TA.AperFunction,SMDPad,CuDef*%
G36*
G01*
X117355000Y-72170000D02*
X118305000Y-72170000D01*
G75*
G02*
X118555000Y-72420000I0J-250000D01*
G01*
X118555000Y-72920000D01*
G75*
G02*
X118305000Y-73170000I-250000J0D01*
G01*
X117355000Y-73170000D01*
G75*
G02*
X117105000Y-72920000I0J250000D01*
G01*
X117105000Y-72420000D01*
G75*
G02*
X117355000Y-72170000I250000J0D01*
G01*
G37*
%TD.AperFunction*%
%TD*%
%TO.P,C1,1*%
%TO.N,GND*%
%TA.AperFunction,SMDPad,CuDef*%
G36*
G01*
X115898000Y-84459000D02*
X115898000Y-83509000D01*
G75*
G02*
X116148000Y-83259000I250000J0D01*
G01*
X116648000Y-83259000D01*
G75*
G02*
X116898000Y-83509000I0J-250000D01*
G01*
X116898000Y-84459000D01*
G75*
G02*
X116648000Y-84709000I-250000J0D01*
G01*
X116148000Y-84709000D01*
G75*
G02*
X115898000Y-84459000I0J250000D01*
G01*
G37*
%TD.AperFunction*%
%TO.P,C1,2*%
%TO.N,+5V*%
%TA.AperFunction,SMDPad,CuDef*%
G36*
G01*
X117798000Y-84459000D02*
X117798000Y-83509000D01*
G75*
G02*
X118048000Y-83259000I250000J0D01*
G01*
X118548000Y-83259000D01*
G75*
G02*
X118798000Y-83509000I0J-250000D01*
G01*
X118798000Y-84459000D01*
G75*
G02*
X118548000Y-84709000I-250000J0D01*
G01*
X118048000Y-84709000D01*
G75*
G02*
X117798000Y-84459000I0J250000D01*
G01*
G37*
%TD.AperFunction*%
%TD*%
%TO.P,R2,2*%
%TO.N,D+*%
%TA.AperFunction,SMDPad,CuDef*%
G36*
G01*
X120338234Y-95892538D02*
X119949325Y-96281447D01*
G75*
G02*
X119666483Y-96281447I-141421J141421D01*
G01*
X119383640Y-95998604D01*
G75*
G02*
X119383640Y-95715762I141421J141421D01*
G01*
X119772549Y-95326853D01*
G75*
G02*
X120055391Y-95326853I141421J-141421D01*
G01*
X120338234Y-95609696D01*
G75*
G02*
X120338234Y-95892538I-141421J-141421D01*
G01*
G37*
%TD.AperFunction*%
%TO.P,R2,1*%
%TO.N,Net-(R2-Pad1)*%
%TA.AperFunction,SMDPad,CuDef*%
G36*
G01*
X121504960Y-97059264D02*
X121116051Y-97448173D01*
G75*
G02*
X120833209Y-97448173I-141421J141421D01*
G01*
X120550366Y-97165330D01*
G75*
G02*
X120550366Y-96882488I141421J141421D01*
G01*
X120939275Y-96493579D01*
G75*
G02*
X121222117Y-96493579I141421J-141421D01*
G01*
X121504960Y-96776422D01*
G75*
G02*
X121504960Y-97059264I-141421J-141421D01*
G01*
G37*
%TD.AperFunction*%
%TD*%
%TO.P,R1,2*%
%TO.N,D-*%
%TA.AperFunction,SMDPad,CuDef*%
G36*
G01*
X121415865Y-94814907D02*
X121026956Y-95203816D01*
G75*
G02*
X120744114Y-95203816I-141421J141421D01*
G01*
X120461271Y-94920973D01*
G75*
G02*
X120461271Y-94638131I141421J141421D01*
G01*
X120850180Y-94249222D01*
G75*
G02*
X121133022Y-94249222I141421J-141421D01*
G01*
X121415865Y-94532065D01*
G75*
G02*
X121415865Y-94814907I-141421J-141421D01*
G01*
G37*
%TD.AperFunction*%
%TO.P,R1,1*%
%TO.N,Net-(R1-Pad1)*%
%TA.AperFunction,SMDPad,CuDef*%
G36*
G01*
X122582591Y-95981633D02*
X122193682Y-96370542D01*
G75*
G02*
X121910840Y-96370542I-141421J141421D01*
G01*
X121627997Y-96087699D01*
G75*
G02*
X121627997Y-95804857I141421J141421D01*
G01*
X122016906Y-95415948D01*
G75*
G02*
X122299748Y-95415948I141421J-141421D01*
G01*
X122582591Y-95698791D01*
G75*
G02*
X122582591Y-95981633I-141421J-141421D01*
G01*
G37*
%TD.AperFunction*%
%TD*%
%TO.P,C7,2*%
%TO.N,+5V*%
%TA.AperFunction,SMDPad,CuDef*%
G36*
G01*
X122652594Y-94638838D02*
X123006148Y-94285284D01*
G75*
G02*
X123324346Y-94285284I159099J-159099D01*
G01*
X123642544Y-94603482D01*
G75*
G02*
X123642544Y-94921680I-159099J-159099D01*
G01*
X123288990Y-95275234D01*
G75*
G02*
X122970792Y-95275234I-159099J159099D01*
G01*
X122652594Y-94957036D01*
G75*
G02*
X122652594Y-94638838I159099J159099D01*
G01*
G37*
%TD.AperFunction*%
%TO.P,C7,1*%
%TO.N,GND*%
%TA.AperFunction,SMDPad,CuDef*%
G36*
G01*
X121556578Y-93542822D02*
X121910132Y-93189268D01*
G75*
G02*
X122228330Y-93189268I159099J-159099D01*
G01*
X122546528Y-93507466D01*
G75*
G02*
X122546528Y-93825664I-159099J-159099D01*
G01*
X122192974Y-94179218D01*
G75*
G02*
X121874776Y-94179218I-159099J159099D01*
G01*
X121556578Y-93861020D01*
G75*
G02*
X121556578Y-93542822I159099J159099D01*
G01*
G37*
%TD.AperFunction*%
%TD*%
D23*
%TO.P,U1,2*%
%TO.N,+3V3*%
X116176000Y-75150000D03*
D24*
X116176000Y-81450000D03*
%TO.P,U1,3*%
%TO.N,+5V*%
X118476000Y-81450000D03*
%TO.P,U1,1*%
%TO.N,GND*%
X113876000Y-81450000D03*
%TD*%
%TO.P,R5,2*%
%TO.N,RESET*%
%TA.AperFunction,SMDPad,CuDef*%
G36*
G01*
X123211000Y-125559000D02*
X122661000Y-125559000D01*
G75*
G02*
X122461000Y-125359000I0J200000D01*
G01*
X122461000Y-124959000D01*
G75*
G02*
X122661000Y-124759000I200000J0D01*
G01*
X123211000Y-124759000D01*
G75*
G02*
X123411000Y-124959000I0J-200000D01*
G01*
X123411000Y-125359000D01*
G75*
G02*
X123211000Y-125559000I-200000J0D01*
G01*
G37*
%TD.AperFunction*%
%TO.P,R5,1*%
%TO.N,+5V*%
%TA.AperFunction,SMDPad,CuDef*%
G36*
G01*
X123211000Y-127209000D02*
X122661000Y-127209000D01*
G75*
G02*
X122461000Y-127009000I0J200000D01*
G01*
X122461000Y-126609000D01*
G75*
G02*
X122661000Y-126409000I200000J0D01*
G01*
X123211000Y-126409000D01*
G75*
G02*
X123411000Y-126609000I0J-200000D01*
G01*
X123411000Y-127009000D01*
G75*
G02*
X123211000Y-127209000I-200000J0D01*
G01*
G37*
%TD.AperFunction*%
%TD*%
%TO.P,R4,2*%
%TO.N,PE2*%
%TA.AperFunction,SMDPad,CuDef*%
G36*
G01*
X137435000Y-125559000D02*
X136885000Y-125559000D01*
G75*
G02*
X136685000Y-125359000I0J200000D01*
G01*
X136685000Y-124959000D01*
G75*
G02*
X136885000Y-124759000I200000J0D01*
G01*
X137435000Y-124759000D01*
G75*
G02*
X137635000Y-124959000I0J-200000D01*
G01*
X137635000Y-125359000D01*
G75*
G02*
X137435000Y-125559000I-200000J0D01*
G01*
G37*
%TD.AperFunction*%
%TO.P,R4,1*%
%TO.N,+5V*%
%TA.AperFunction,SMDPad,CuDef*%
G36*
G01*
X137435000Y-127209000D02*
X136885000Y-127209000D01*
G75*
G02*
X136685000Y-127009000I0J200000D01*
G01*
X136685000Y-126609000D01*
G75*
G02*
X136885000Y-126409000I200000J0D01*
G01*
X137435000Y-126409000D01*
G75*
G02*
X137635000Y-126609000I0J-200000D01*
G01*
X137635000Y-127009000D01*
G75*
G02*
X137435000Y-127209000I-200000J0D01*
G01*
G37*
%TD.AperFunction*%
%TD*%
%TO.P,FB3,2*%
%TO.N,Net-(C13-Pad2)*%
%TA.AperFunction,SMDPad,CuDef*%
G36*
G01*
X130751266Y-109432396D02*
X130388873Y-109070003D01*
G75*
G02*
X130388873Y-108760643I154680J154680D01*
G01*
X130698232Y-108451284D01*
G75*
G02*
X131007592Y-108451284I154680J-154680D01*
G01*
X131369985Y-108813677D01*
G75*
G02*
X131369985Y-109123037I-154680J-154680D01*
G01*
X131060626Y-109432396D01*
G75*
G02*
X130751266Y-109432396I-154680J154680D01*
G01*
G37*
%TD.AperFunction*%
%TO.P,FB3,1*%
%TO.N,+5V*%
%TA.AperFunction,SMDPad,CuDef*%
G36*
G01*
X129637572Y-110546090D02*
X129275179Y-110183697D01*
G75*
G02*
X129275179Y-109874337I154680J154680D01*
G01*
X129584538Y-109564978D01*
G75*
G02*
X129893898Y-109564978I154680J-154680D01*
G01*
X130256291Y-109927371D01*
G75*
G02*
X130256291Y-110236731I-154680J-154680D01*
G01*
X129946932Y-110546090D01*
G75*
G02*
X129637572Y-110546090I-154680J154680D01*
G01*
G37*
%TD.AperFunction*%
%TD*%
%TO.P,FB2,2*%
%TO.N,Net-(C10-Pad2)*%
%TA.AperFunction,SMDPad,CuDef*%
G36*
G01*
X129717475Y-93444357D02*
X129355082Y-93806750D01*
G75*
G02*
X129045722Y-93806750I-154680J154680D01*
G01*
X128736363Y-93497391D01*
G75*
G02*
X128736363Y-93188031I154680J154680D01*
G01*
X129098756Y-92825638D01*
G75*
G02*
X129408116Y-92825638I154680J-154680D01*
G01*
X129717475Y-93134997D01*
G75*
G02*
X129717475Y-93444357I-154680J-154680D01*
G01*
G37*
%TD.AperFunction*%
%TO.P,FB2,1*%
%TO.N,+5V*%
%TA.AperFunction,SMDPad,CuDef*%
G36*
G01*
X130831169Y-94558051D02*
X130468776Y-94920444D01*
G75*
G02*
X130159416Y-94920444I-154680J154680D01*
G01*
X129850057Y-94611085D01*
G75*
G02*
X129850057Y-94301725I154680J154680D01*
G01*
X130212450Y-93939332D01*
G75*
G02*
X130521810Y-93939332I154680J-154680D01*
G01*
X130831169Y-94248691D01*
G75*
G02*
X130831169Y-94558051I-154680J-154680D01*
G01*
G37*
%TD.AperFunction*%
%TD*%
%TO.P,C15,2*%
%TO.N,GND*%
%TA.AperFunction,SMDPad,CuDef*%
G36*
G01*
X124210000Y-126309000D02*
X124710000Y-126309000D01*
G75*
G02*
X124935000Y-126534000I0J-225000D01*
G01*
X124935000Y-126984000D01*
G75*
G02*
X124710000Y-127209000I-225000J0D01*
G01*
X124210000Y-127209000D01*
G75*
G02*
X123985000Y-126984000I0J225000D01*
G01*
X123985000Y-126534000D01*
G75*
G02*
X124210000Y-126309000I225000J0D01*
G01*
G37*
%TD.AperFunction*%
%TO.P,C15,1*%
%TO.N,RESET*%
%TA.AperFunction,SMDPad,CuDef*%
G36*
G01*
X124210000Y-124759000D02*
X124710000Y-124759000D01*
G75*
G02*
X124935000Y-124984000I0J-225000D01*
G01*
X124935000Y-125434000D01*
G75*
G02*
X124710000Y-125659000I-225000J0D01*
G01*
X124210000Y-125659000D01*
G75*
G02*
X123985000Y-125434000I0J225000D01*
G01*
X123985000Y-124984000D01*
G75*
G02*
X124210000Y-124759000I225000J0D01*
G01*
G37*
%TD.AperFunction*%
%TD*%
%TO.P,C14,2*%
%TO.N,GND*%
%TA.AperFunction,SMDPad,CuDef*%
G36*
G01*
X135386000Y-126309000D02*
X135886000Y-126309000D01*
G75*
G02*
X136111000Y-126534000I0J-225000D01*
G01*
X136111000Y-126984000D01*
G75*
G02*
X135886000Y-127209000I-225000J0D01*
G01*
X135386000Y-127209000D01*
G75*
G02*
X135161000Y-126984000I0J225000D01*
G01*
X135161000Y-126534000D01*
G75*
G02*
X135386000Y-126309000I225000J0D01*
G01*
G37*
%TD.AperFunction*%
%TO.P,C14,1*%
%TO.N,PE2*%
%TA.AperFunction,SMDPad,CuDef*%
G36*
G01*
X135386000Y-124759000D02*
X135886000Y-124759000D01*
G75*
G02*
X136111000Y-124984000I0J-225000D01*
G01*
X136111000Y-125434000D01*
G75*
G02*
X135886000Y-125659000I-225000J0D01*
G01*
X135386000Y-125659000D01*
G75*
G02*
X135161000Y-125434000I0J225000D01*
G01*
X135161000Y-124984000D01*
G75*
G02*
X135386000Y-124759000I225000J0D01*
G01*
G37*
%TD.AperFunction*%
%TD*%
%TO.P,C13,2*%
%TO.N,Net-(C13-Pad2)*%
%TA.AperFunction,SMDPad,CuDef*%
G36*
G01*
X129651538Y-108368023D02*
X129297984Y-108014469D01*
G75*
G02*
X129297984Y-107696271I159099J159099D01*
G01*
X129616182Y-107378073D01*
G75*
G02*
X129934380Y-107378073I159099J-159099D01*
G01*
X130287934Y-107731627D01*
G75*
G02*
X130287934Y-108049825I-159099J-159099D01*
G01*
X129969736Y-108368023D01*
G75*
G02*
X129651538Y-108368023I-159099J159099D01*
G01*
G37*
%TD.AperFunction*%
%TO.P,C13,1*%
%TO.N,GND*%
%TA.AperFunction,SMDPad,CuDef*%
G36*
G01*
X128555522Y-109464039D02*
X128201968Y-109110485D01*
G75*
G02*
X128201968Y-108792287I159099J159099D01*
G01*
X128520166Y-108474089D01*
G75*
G02*
X128838364Y-108474089I159099J-159099D01*
G01*
X129191918Y-108827643D01*
G75*
G02*
X129191918Y-109145841I-159099J-159099D01*
G01*
X128873720Y-109464039D01*
G75*
G02*
X128555522Y-109464039I-159099J159099D01*
G01*
G37*
%TD.AperFunction*%
%TD*%
%TO.P,C12,2*%
%TO.N,+5V*%
%TA.AperFunction,SMDPad,CuDef*%
G36*
G01*
X132351271Y-98949361D02*
X132704825Y-98595807D01*
G75*
G02*
X133023023Y-98595807I159099J-159099D01*
G01*
X133341221Y-98914005D01*
G75*
G02*
X133341221Y-99232203I-159099J-159099D01*
G01*
X132987667Y-99585757D01*
G75*
G02*
X132669469Y-99585757I-159099J159099D01*
G01*
X132351271Y-99267559D01*
G75*
G02*
X132351271Y-98949361I159099J159099D01*
G01*
G37*
%TD.AperFunction*%
%TO.P,C12,1*%
%TO.N,GND*%
%TA.AperFunction,SMDPad,CuDef*%
G36*
G01*
X131255255Y-97853345D02*
X131608809Y-97499791D01*
G75*
G02*
X131927007Y-97499791I159099J-159099D01*
G01*
X132245205Y-97817989D01*
G75*
G02*
X132245205Y-98136187I-159099J-159099D01*
G01*
X131891651Y-98489741D01*
G75*
G02*
X131573453Y-98489741I-159099J159099D01*
G01*
X131255255Y-98171543D01*
G75*
G02*
X131255255Y-97853345I159099J159099D01*
G01*
G37*
%TD.AperFunction*%
%TD*%
%TO.P,C11,2*%
%TO.N,+5V*%
%TA.AperFunction,SMDPad,CuDef*%
G36*
G01*
X118478097Y-104368330D02*
X118831651Y-104014776D01*
G75*
G02*
X119149849Y-104014776I159099J-159099D01*
G01*
X119468047Y-104332974D01*
G75*
G02*
X119468047Y-104651172I-159099J-159099D01*
G01*
X119114493Y-105004726D01*
G75*
G02*
X118796295Y-105004726I-159099J159099D01*
G01*
X118478097Y-104686528D01*
G75*
G02*
X118478097Y-104368330I159099J159099D01*
G01*
G37*
%TD.AperFunction*%
%TO.P,C11,1*%
%TO.N,GND*%
%TA.AperFunction,SMDPad,CuDef*%
G36*
G01*
X117382081Y-103272314D02*
X117735635Y-102918760D01*
G75*
G02*
X118053833Y-102918760I159099J-159099D01*
G01*
X118372031Y-103236958D01*
G75*
G02*
X118372031Y-103555156I-159099J-159099D01*
G01*
X118018477Y-103908710D01*
G75*
G02*
X117700279Y-103908710I-159099J159099D01*
G01*
X117382081Y-103590512D01*
G75*
G02*
X117382081Y-103272314I159099J159099D01*
G01*
G37*
%TD.AperFunction*%
%TD*%
%TO.P,C10,2*%
%TO.N,Net-(C10-Pad2)*%
%TA.AperFunction,SMDPad,CuDef*%
G36*
G01*
X128653103Y-94544085D02*
X128299549Y-94897639D01*
G75*
G02*
X127981351Y-94897639I-159099J159099D01*
G01*
X127663153Y-94579441D01*
G75*
G02*
X127663153Y-94261243I159099J159099D01*
G01*
X128016707Y-93907689D01*
G75*
G02*
X128334905Y-93907689I159099J-159099D01*
G01*
X128653103Y-94225887D01*
G75*
G02*
X128653103Y-94544085I-159099J-159099D01*
G01*
G37*
%TD.AperFunction*%
%TO.P,C10,1*%
%TO.N,GND*%
%TA.AperFunction,SMDPad,CuDef*%
G36*
G01*
X129749119Y-95640101D02*
X129395565Y-95993655D01*
G75*
G02*
X129077367Y-95993655I-159099J159099D01*
G01*
X128759169Y-95675457D01*
G75*
G02*
X128759169Y-95357259I159099J159099D01*
G01*
X129112723Y-95003705D01*
G75*
G02*
X129430921Y-95003705I159099J-159099D01*
G01*
X129749119Y-95321903D01*
G75*
G02*
X129749119Y-95640101I-159099J-159099D01*
G01*
G37*
%TD.AperFunction*%
%TD*%
%TO.P,C8,2*%
%TO.N,Net-(C8-Pad2)*%
%TA.AperFunction,SMDPad,CuDef*%
G36*
G01*
X119419702Y-97871730D02*
X119773256Y-97518176D01*
G75*
G02*
X120091454Y-97518176I159099J-159099D01*
G01*
X120409652Y-97836374D01*
G75*
G02*
X120409652Y-98154572I-159099J-159099D01*
G01*
X120056098Y-98508126D01*
G75*
G02*
X119737900Y-98508126I-159099J159099D01*
G01*
X119419702Y-98189928D01*
G75*
G02*
X119419702Y-97871730I159099J159099D01*
G01*
G37*
%TD.AperFunction*%
%TO.P,C8,1*%
%TO.N,GND*%
%TA.AperFunction,SMDPad,CuDef*%
G36*
G01*
X118323686Y-96775714D02*
X118677240Y-96422160D01*
G75*
G02*
X118995438Y-96422160I159099J-159099D01*
G01*
X119313636Y-96740358D01*
G75*
G02*
X119313636Y-97058556I-159099J-159099D01*
G01*
X118960082Y-97412110D01*
G75*
G02*
X118641884Y-97412110I-159099J159099D01*
G01*
X118323686Y-97093912D01*
G75*
G02*
X118323686Y-96775714I159099J159099D01*
G01*
G37*
%TD.AperFunction*%
%TD*%
%TO.P,C9,2*%
%TO.N,+5V*%
%TA.AperFunction,SMDPad,CuDef*%
G36*
G01*
X118342072Y-98949361D02*
X118695626Y-98595807D01*
G75*
G02*
X119013824Y-98595807I159099J-159099D01*
G01*
X119332022Y-98914005D01*
G75*
G02*
X119332022Y-99232203I-159099J-159099D01*
G01*
X118978468Y-99585757D01*
G75*
G02*
X118660270Y-99585757I-159099J159099D01*
G01*
X118342072Y-99267559D01*
G75*
G02*
X118342072Y-98949361I159099J159099D01*
G01*
G37*
%TD.AperFunction*%
%TO.P,C9,1*%
%TO.N,GND*%
%TA.AperFunction,SMDPad,CuDef*%
G36*
G01*
X117246056Y-97853345D02*
X117599610Y-97499791D01*
G75*
G02*
X117917808Y-97499791I159099J-159099D01*
G01*
X118236006Y-97817989D01*
G75*
G02*
X118236006Y-98136187I-159099J-159099D01*
G01*
X117882452Y-98489741D01*
G75*
G02*
X117564254Y-98489741I-159099J159099D01*
G01*
X117246056Y-98171543D01*
G75*
G02*
X117246056Y-97853345I159099J159099D01*
G01*
G37*
%TD.AperFunction*%
%TD*%
%TO.P,C6,1*%
%TO.N,GND*%
%TA.AperFunction,SMDPad,CuDef*%
G36*
G01*
X114278000Y-70495000D02*
X114778000Y-70495000D01*
G75*
G02*
X115003000Y-70720000I0J-225000D01*
G01*
X115003000Y-71170000D01*
G75*
G02*
X114778000Y-71395000I-225000J0D01*
G01*
X114278000Y-71395000D01*
G75*
G02*
X114053000Y-71170000I0J225000D01*
G01*
X114053000Y-70720000D01*
G75*
G02*
X114278000Y-70495000I225000J0D01*
G01*
G37*
%TD.AperFunction*%
%TO.P,C6,2*%
%TO.N,+3V3*%
%TA.AperFunction,SMDPad,CuDef*%
G36*
G01*
X114278000Y-72045000D02*
X114778000Y-72045000D01*
G75*
G02*
X115003000Y-72270000I0J-225000D01*
G01*
X115003000Y-72720000D01*
G75*
G02*
X114778000Y-72945000I-225000J0D01*
G01*
X114278000Y-72945000D01*
G75*
G02*
X114053000Y-72720000I0J225000D01*
G01*
X114053000Y-72270000D01*
G75*
G02*
X114278000Y-72045000I225000J0D01*
G01*
G37*
%TD.AperFunction*%
%TD*%
%TO.P,C5,1*%
%TO.N,GND*%
%TA.AperFunction,SMDPad,CuDef*%
G36*
G01*
X115802000Y-70495000D02*
X116302000Y-70495000D01*
G75*
G02*
X116527000Y-70720000I0J-225000D01*
G01*
X116527000Y-71170000D01*
G75*
G02*
X116302000Y-71395000I-225000J0D01*
G01*
X115802000Y-71395000D01*
G75*
G02*
X115577000Y-71170000I0J225000D01*
G01*
X115577000Y-70720000D01*
G75*
G02*
X115802000Y-70495000I225000J0D01*
G01*
G37*
%TD.AperFunction*%
%TO.P,C5,2*%
%TO.N,+3V3*%
%TA.AperFunction,SMDPad,CuDef*%
G36*
G01*
X115802000Y-72045000D02*
X116302000Y-72045000D01*
G75*
G02*
X116527000Y-72270000I0J-225000D01*
G01*
X116527000Y-72720000D01*
G75*
G02*
X116302000Y-72945000I-225000J0D01*
G01*
X115802000Y-72945000D01*
G75*
G02*
X115577000Y-72720000I0J225000D01*
G01*
X115577000Y-72270000D01*
G75*
G02*
X115802000Y-72045000I225000J0D01*
G01*
G37*
%TD.AperFunction*%
%TD*%
%TO.P,C3,2*%
%TO.N,GND*%
%TA.AperFunction,SMDPad,CuDef*%
G36*
G01*
X115226667Y-106839592D02*
X115580221Y-107193146D01*
G75*
G02*
X115580221Y-107511344I-159099J-159099D01*
G01*
X115262023Y-107829542D01*
G75*
G02*
X114943825Y-107829542I-159099J159099D01*
G01*
X114590271Y-107475988D01*
G75*
G02*
X114590271Y-107157790I159099J159099D01*
G01*
X114908469Y-106839592D01*
G75*
G02*
X115226667Y-106839592I159099J-159099D01*
G01*
G37*
%TD.AperFunction*%
%TO.P,C3,1*%
%TO.N,XTAL2*%
%TA.AperFunction,SMDPad,CuDef*%
G36*
G01*
X116322683Y-105743576D02*
X116676237Y-106097130D01*
G75*
G02*
X116676237Y-106415328I-159099J-159099D01*
G01*
X116358039Y-106733526D01*
G75*
G02*
X116039841Y-106733526I-159099J159099D01*
G01*
X115686287Y-106379972D01*
G75*
G02*
X115686287Y-106061774I159099J159099D01*
G01*
X116004485Y-105743576D01*
G75*
G02*
X116322683Y-105743576I159099J-159099D01*
G01*
G37*
%TD.AperFunction*%
%TD*%
%TO.P,C2,2*%
%TO.N,GND*%
%TA.AperFunction,SMDPad,CuDef*%
G36*
G01*
X120160974Y-112535899D02*
X120514528Y-112889453D01*
G75*
G02*
X120514528Y-113207651I-159099J-159099D01*
G01*
X120196330Y-113525849D01*
G75*
G02*
X119878132Y-113525849I-159099J159099D01*
G01*
X119524578Y-113172295D01*
G75*
G02*
X119524578Y-112854097I159099J159099D01*
G01*
X119842776Y-112535899D01*
G75*
G02*
X120160974Y-112535899I159099J-159099D01*
G01*
G37*
%TD.AperFunction*%
%TO.P,C2,1*%
%TO.N,XTAL1*%
%TA.AperFunction,SMDPad,CuDef*%
G36*
G01*
X121256990Y-111439883D02*
X121610544Y-111793437D01*
G75*
G02*
X121610544Y-112111635I-159099J-159099D01*
G01*
X121292346Y-112429833D01*
G75*
G02*
X120974148Y-112429833I-159099J159099D01*
G01*
X120620594Y-112076279D01*
G75*
G02*
X120620594Y-111758081I159099J159099D01*
G01*
X120938792Y-111439883D01*
G75*
G02*
X121256990Y-111439883I159099J-159099D01*
G01*
G37*
%TD.AperFunction*%
%TD*%
D25*
%TO.P,J3,0*%
%TO.N,GND*%
X143810000Y-70620000D03*
X143810000Y-117720000D03*
D26*
%TO.P,J3,25*%
%TO.N,+5V*%
X145230000Y-109405000D03*
%TO.P,J3,24*%
%TO.N,PD0*%
X145230000Y-106635000D03*
%TO.P,J3,23*%
%TO.N,PD2*%
X145230000Y-103865000D03*
%TO.P,J3,22*%
%TO.N,PD4*%
X145230000Y-101095000D03*
%TO.P,J3,21*%
%TO.N,PB4*%
X145230000Y-98325000D03*
%TO.P,J3,20*%
%TO.N,PB6*%
X145230000Y-95555000D03*
%TO.P,J3,19*%
%TO.N,PC6*%
X145230000Y-92785000D03*
%TO.P,J3,18*%
%TO.N,PF6*%
X145230000Y-90015000D03*
%TO.P,J3,17*%
%TO.N,PF4*%
X145230000Y-87245000D03*
%TO.P,J3,16*%
%TO.N,PB1*%
X145230000Y-84475000D03*
%TO.P,J3,15*%
%TO.N,PB3*%
X145230000Y-81705000D03*
%TO.P,J3,14*%
%TO.N,+5V*%
X145230000Y-78935000D03*
%TO.P,J3,13*%
%TO.N,GND*%
X142390000Y-110790000D03*
%TO.P,J3,12*%
%TO.N,+3V3*%
X142390000Y-108020000D03*
%TO.P,J3,11*%
%TO.N,PD1*%
X142390000Y-105250000D03*
%TO.P,J3,10*%
%TO.N,PD3*%
X142390000Y-102480000D03*
%TO.P,J3,9*%
%TO.N,PD7*%
X142390000Y-99710000D03*
%TO.P,J3,8*%
%TO.N,PB5*%
X142390000Y-96940000D03*
%TO.P,J3,7*%
%TO.N,Net-(J3-Pad7)*%
X142390000Y-94170000D03*
%TO.P,J3,6*%
%TO.N,PF7*%
X142390000Y-91400000D03*
%TO.P,J3,5*%
%TO.N,PF5*%
X142390000Y-88630000D03*
%TO.P,J3,4*%
%TO.N,PE6*%
X142390000Y-85860000D03*
%TO.P,J3,3*%
%TO.N,PB2*%
X142390000Y-83090000D03*
%TO.P,J3,2*%
%TO.N,+3V3*%
X142390000Y-80320000D03*
D27*
%TO.P,J3,1*%
%TO.N,GND*%
X142390000Y-77550000D03*
%TD*%
D28*
%TO.N,GND*%
X117348000Y-96520000D03*
X114046000Y-108204000D03*
X119126000Y-114046000D03*
X116840000Y-104139990D03*
X135636000Y-128016000D03*
X124460000Y-128016000D03*
X122682000Y-92709996D03*
X116052000Y-69622006D03*
X120904000Y-106426000D03*
X116332000Y-111506000D03*
X130048000Y-122174000D03*
X112014000Y-98044000D03*
X113030000Y-89730000D03*
%TO.N,+5V*%
X119888000Y-86106000D03*
X131318000Y-93472000D03*
X133858000Y-100076000D03*
X123952000Y-93980000D03*
X117866738Y-100030000D03*
X118110000Y-105410000D03*
X137160000Y-128016000D03*
X122936000Y-128016000D03*
X130810000Y-110951998D03*
X137922000Y-94742000D03*
X118364000Y-87630000D03*
X110236000Y-98044000D03*
%TO.N,+3V3*%
X121666000Y-72390000D03*
X121666000Y-73406000D03*
X121666000Y-74422000D03*
X121666000Y-75438000D03*
X110490000Y-72390000D03*
X110490000Y-73406000D03*
X110490000Y-74422000D03*
X110490000Y-75438000D03*
X111506000Y-75438000D03*
X111506000Y-74422000D03*
X111506000Y-73406000D03*
X111506000Y-72390000D03*
X120650000Y-75438000D03*
X120650000Y-74422000D03*
X120650000Y-73406000D03*
X120650000Y-72390000D03*
X116586000Y-79502000D03*
X115824000Y-78740000D03*
X116586000Y-77978000D03*
X115824000Y-77216000D03*
%TO.N,PB2*%
X119355972Y-92177972D03*
X117323972Y-94209972D03*
%TO.N,PB1*%
X119888000Y-92710000D03*
X117856000Y-94742000D03*
%TO.N,PB3*%
X118823943Y-91645943D03*
X116791943Y-93677943D03*
%TO.N,PE2*%
X133096000Y-122174000D03*
X131826000Y-103124000D03*
%TO.N,RESET*%
X120650000Y-103632000D03*
X127000000Y-122174000D03*
%TO.N,PF1*%
X128270000Y-97536000D03*
X125730000Y-87376000D03*
%TO.N,PC7*%
X131064000Y-103886000D03*
X131826000Y-113538000D03*
%TO.N,PB0*%
X121158000Y-99314000D03*
X126238000Y-114554000D03*
%TO.N,PD5*%
X126746000Y-107696000D03*
X130048000Y-113538000D03*
%TD*%
D29*
%TO.N,GND*%
X111222500Y-89200000D02*
X111222500Y-90400000D01*
D30*
X125832454Y-101068559D02*
X125832454Y-101775666D01*
X123755328Y-98991433D02*
X125832454Y-101068559D01*
X125832454Y-98947239D02*
X125832454Y-101775666D01*
X126848920Y-97930773D02*
X125832454Y-98947239D01*
X126576604Y-101031516D02*
X125832454Y-101775666D01*
X129405031Y-101031516D02*
X126576604Y-101031516D01*
X129677347Y-100759200D02*
X129405031Y-101031516D01*
X125832454Y-105311200D02*
X125832454Y-101775666D01*
X126495367Y-105974113D02*
X125832454Y-105311200D01*
X124418241Y-101775666D02*
X125832454Y-101775666D01*
X122694668Y-103499239D02*
X124418241Y-101775666D01*
X128696943Y-108175689D02*
X128696943Y-108969064D01*
X126495367Y-105974113D02*
X128696943Y-108175689D01*
X131750230Y-98686317D02*
X129677347Y-100759200D01*
X131750230Y-97994766D02*
X131750230Y-98686317D01*
X129254144Y-95525549D02*
X126848920Y-97930773D01*
X129254144Y-95498680D02*
X129254144Y-95525549D01*
X117745135Y-96917135D02*
X117348000Y-96520000D01*
X118818661Y-96917135D02*
X117745135Y-96917135D01*
X117741031Y-96913031D02*
X117348000Y-96520000D01*
X117741031Y-97994766D02*
X117741031Y-96913031D01*
X114915433Y-107334567D02*
X114046000Y-108204000D01*
X115085246Y-107334567D02*
X114915433Y-107334567D01*
X120019553Y-113152447D02*
X119126000Y-114046000D01*
X120019553Y-113030874D02*
X120019553Y-113152447D01*
X117566255Y-103413735D02*
X116840000Y-104139990D01*
X117877056Y-103413735D02*
X117566255Y-103413735D01*
X135636000Y-126759000D02*
X135636000Y-128016000D01*
X135568000Y-128084000D02*
X135636000Y-128016000D01*
X133096000Y-128084000D02*
X135568000Y-128084000D01*
X124460000Y-126759000D02*
X124460000Y-128016000D01*
X124528000Y-128084000D02*
X124460000Y-128016000D01*
X127000000Y-128084000D02*
X124528000Y-128084000D01*
D31*
X108522500Y-90800000D02*
X108522500Y-85000000D01*
X113876000Y-82746500D02*
X111222500Y-85400000D01*
X113876000Y-81450000D02*
X113876000Y-82746500D01*
X112638500Y-83984000D02*
X111222500Y-85400000D01*
X116398000Y-83984000D02*
X112638500Y-83984000D01*
D30*
X122051553Y-93684243D02*
X122682000Y-93053796D01*
X122682000Y-93053796D02*
X122682000Y-92709996D01*
D31*
X116052000Y-70945000D02*
X116052000Y-69622006D01*
X114528000Y-70945000D02*
X115850994Y-69622006D01*
X115850994Y-69622006D02*
X116052000Y-69622006D01*
X117830000Y-70770000D02*
X116682006Y-69622006D01*
X116682006Y-69622006D02*
X116052000Y-69622006D01*
D30*
X119468000Y-107866000D02*
X119468000Y-107862000D01*
X119468000Y-107862000D02*
X120904000Y-106426000D01*
X117768000Y-110070000D02*
X116332000Y-111506000D01*
X117768000Y-110066000D02*
X117768000Y-110070000D01*
X130048000Y-119443000D02*
X130048000Y-122174000D01*
X128270000Y-120396000D02*
X130048000Y-122174000D01*
X128270000Y-119443000D02*
X128270000Y-120396000D01*
X131826000Y-120396000D02*
X130048000Y-122174000D01*
X131826000Y-119443000D02*
X131826000Y-120396000D01*
X112014000Y-99505000D02*
X112014000Y-98044000D01*
D31*
X108852500Y-89230000D02*
X108522500Y-88900000D01*
X111192500Y-89230000D02*
X108852500Y-89230000D01*
X111252500Y-89230000D02*
X112530000Y-89230000D01*
X112530000Y-89230000D02*
X113030000Y-89730000D01*
%TO.N,+5V*%
X118298000Y-81628000D02*
X118476000Y-81450000D01*
X118298000Y-83984000D02*
X118298000Y-81628000D01*
D30*
X123147569Y-96262354D02*
X123147569Y-94780259D01*
X124815988Y-97930773D02*
X123147569Y-96262354D01*
D31*
X118410500Y-84096500D02*
X118298000Y-83984000D01*
X118410500Y-86042000D02*
X118410500Y-84096500D01*
X119824000Y-86042000D02*
X119888000Y-86106000D01*
X118410500Y-86042000D02*
X119824000Y-86042000D01*
D30*
X130360112Y-94429888D02*
X131318000Y-93472000D01*
X130340613Y-94429888D02*
X130360112Y-94429888D01*
X132052872Y-99090782D02*
X130030901Y-101112753D01*
X132846246Y-99090782D02*
X132052872Y-99090782D01*
X132872782Y-99090782D02*
X133858000Y-100076000D01*
X132846246Y-99090782D02*
X132872782Y-99090782D01*
X123151741Y-94780259D02*
X123952000Y-93980000D01*
X123147569Y-94780259D02*
X123151741Y-94780259D01*
X118805956Y-99090782D02*
X117866738Y-100030000D01*
X118837047Y-99090782D02*
X118805956Y-99090782D01*
X118973072Y-104546928D02*
X118110000Y-105410000D01*
X137160000Y-126809000D02*
X137160000Y-128016000D01*
X122936000Y-126809000D02*
X122936000Y-128016000D01*
X129913536Y-110055534D02*
X130810000Y-110951998D01*
X129765735Y-110055534D02*
X129913536Y-110055534D01*
X120977048Y-104509751D02*
X118973072Y-104509751D01*
X122341114Y-103145685D02*
X120977048Y-104509751D01*
X137922000Y-96965000D02*
X137922000Y-94742000D01*
X120111218Y-99090782D02*
X118837047Y-99090782D01*
X120650000Y-98552000D02*
X120111218Y-99090782D01*
X121901681Y-98552000D02*
X120650000Y-98552000D01*
X123048221Y-99698540D02*
X121901681Y-98552000D01*
D31*
X118410500Y-87583500D02*
X118364000Y-87630000D01*
X118410500Y-86042000D02*
X118410500Y-87583500D01*
D30*
X110236000Y-99568000D02*
X110236000Y-99542500D01*
X110236000Y-98044000D02*
X110236000Y-99568000D01*
D31*
%TO.N,+3V3*%
X124760000Y-78532000D02*
X121666000Y-75438000D01*
X124760000Y-82690000D02*
X124760000Y-78532000D01*
X138740000Y-80320000D02*
X142390000Y-80320000D01*
X132842000Y-74422000D02*
X138740000Y-80320000D01*
X121666000Y-74422000D02*
X132842000Y-74422000D01*
X138557000Y-73406000D02*
X121666000Y-73406000D01*
X139573000Y-74422000D02*
X138557000Y-73406000D01*
X147320000Y-76962000D02*
X144780000Y-74422000D01*
X147320000Y-107188000D02*
X147320000Y-76962000D01*
X144780000Y-74422000D02*
X139573000Y-74422000D01*
X146488000Y-108020000D02*
X147320000Y-107188000D01*
X142390000Y-108020000D02*
X146488000Y-108020000D01*
D30*
%TO.N,PF4*%
X139203637Y-87245000D02*
X144098630Y-87245000D01*
X129032000Y-97416637D02*
X139203637Y-87245000D01*
X129032000Y-98576120D02*
X129032000Y-97416637D01*
X144098630Y-87245000D02*
X145230000Y-87245000D01*
X128263134Y-99344986D02*
X129032000Y-98576120D01*
%TO.N,PF5*%
X138321545Y-88630000D02*
X142390000Y-88630000D01*
X129387611Y-97563934D02*
X138321545Y-88630000D01*
X129387611Y-98927616D02*
X129387611Y-97563934D01*
X128616687Y-99698540D02*
X129387611Y-98927616D01*
%TO.N,PF6*%
X137439453Y-90015000D02*
X145230000Y-90015000D01*
X129743222Y-97711231D02*
X137439453Y-90015000D01*
X128970240Y-100052093D02*
X129743222Y-99279111D01*
X129743222Y-99279111D02*
X129743222Y-97711231D01*
%TO.N,PF7*%
X136557361Y-91400000D02*
X142390000Y-91400000D01*
X130098833Y-99630608D02*
X130098833Y-97858528D01*
X130098833Y-97858528D02*
X136557361Y-91400000D01*
X129323794Y-100405647D02*
X130098833Y-99630608D01*
%TO.N,PB2*%
X119355972Y-92177972D02*
X122887944Y-88646000D01*
X120035298Y-100431611D02*
X119527298Y-100939611D01*
X121987561Y-100759200D02*
X121659972Y-100431611D01*
X115976389Y-95557555D02*
X117323972Y-94209972D01*
X119527298Y-100939611D02*
X117454702Y-100939611D01*
X121659972Y-100431611D02*
X120035298Y-100431611D01*
X117454702Y-100939611D02*
X115976389Y-99461298D01*
X115976389Y-99461298D02*
X115976389Y-95557555D01*
X139922000Y-83090000D02*
X142390000Y-83090000D01*
X134366000Y-88646000D02*
X139922000Y-83090000D01*
X122887944Y-88646000D02*
X134366000Y-88646000D01*
%TO.N,PB1*%
X116360961Y-96237039D02*
X117856000Y-94742000D01*
X117602000Y-100584000D02*
X116360961Y-99342961D01*
X119253000Y-100584000D02*
X117602000Y-100584000D01*
X116360961Y-99342961D02*
X116360961Y-96237039D01*
X119761000Y-100076000D02*
X119253000Y-100584000D01*
X122011467Y-100076000D02*
X119761000Y-100076000D01*
X122341114Y-100405647D02*
X122011467Y-100076000D01*
X139807000Y-84475000D02*
X145230000Y-84475000D01*
X135128000Y-89154000D02*
X139807000Y-84475000D01*
X123415039Y-89154000D02*
X135128000Y-89154000D01*
X119888000Y-92681039D02*
X123415039Y-89154000D01*
X119888000Y-92710000D02*
X119888000Y-92681039D01*
%TO.N,PB3*%
X115620778Y-94849108D02*
X116791943Y-93677943D01*
X117307404Y-101295222D02*
X115620778Y-99608596D01*
X119938778Y-101295222D02*
X117307404Y-101295222D01*
X120396000Y-100838000D02*
X119938778Y-101295222D01*
X121359254Y-100838000D02*
X120396000Y-100838000D01*
X115620778Y-99608596D02*
X115620778Y-94849108D01*
X121634007Y-101112753D02*
X121359254Y-100838000D01*
X118823943Y-91645943D02*
X122331886Y-88138000D01*
X139983039Y-81705000D02*
X145230000Y-81705000D01*
X133550039Y-88138000D02*
X139983039Y-81705000D01*
X122428000Y-88138000D02*
X133550039Y-88138000D01*
%TO.N,PD2*%
X140747183Y-103865000D02*
X144098630Y-103865000D01*
X128884700Y-111861609D02*
X132750574Y-111861609D01*
X124462435Y-105267006D02*
X124135723Y-105593718D01*
X144098630Y-103865000D02*
X145230000Y-103865000D01*
X132750574Y-111861609D02*
X140747183Y-103865000D01*
X124135723Y-105593718D02*
X124135723Y-107112632D01*
X124135723Y-107112632D02*
X128884700Y-111861609D01*
%TO.N,PB6*%
X138176000Y-93980000D02*
X139751000Y-95555000D01*
X137668000Y-93980000D02*
X138176000Y-93980000D01*
X135890000Y-95758000D02*
X137668000Y-93980000D01*
X139751000Y-95555000D02*
X144098630Y-95555000D01*
X135890000Y-103144368D02*
X135890000Y-95758000D01*
X133776757Y-105257611D02*
X135890000Y-103144368D01*
X144098630Y-95555000D02*
X145230000Y-95555000D01*
X130728612Y-105257611D02*
X133776757Y-105257611D01*
X128970240Y-103499239D02*
X130728612Y-105257611D01*
%TO.N,PB5*%
X137922000Y-101615276D02*
X137922000Y-98615000D01*
X133924054Y-105613222D02*
X137922000Y-101615276D01*
X130377117Y-105613222D02*
X133924054Y-105613222D01*
X128616687Y-103852792D02*
X130377117Y-105613222D01*
X139597000Y-96940000D02*
X142390000Y-96940000D01*
X137922000Y-98615000D02*
X139597000Y-96940000D01*
%TO.N,PB4*%
X128263134Y-104206346D02*
X130025621Y-105968833D01*
X130025621Y-105968833D02*
X134071351Y-105968833D01*
X141715184Y-98325000D02*
X144098630Y-98325000D01*
X134071351Y-105968833D02*
X139832092Y-100208092D01*
X139832092Y-100208092D02*
X141715184Y-98325000D01*
X144098630Y-98325000D02*
X145230000Y-98325000D01*
%TO.N,PE6*%
X127000000Y-89662000D02*
X124714000Y-91948000D01*
X124714000Y-97121678D02*
X125169541Y-97577219D01*
X136120000Y-89662000D02*
X127000000Y-89662000D01*
X139922000Y-85860000D02*
X136120000Y-89662000D01*
X124714000Y-91948000D02*
X124714000Y-97121678D01*
X142390000Y-85860000D02*
X139922000Y-85860000D01*
%TO.N,PD7*%
X140833092Y-99710000D02*
X142390000Y-99710000D01*
X127909580Y-104559899D02*
X129674125Y-106324444D01*
X129674125Y-106324444D02*
X134218648Y-106324444D01*
X134218648Y-106324444D02*
X140833092Y-99710000D01*
%TO.N,PC6*%
X137339000Y-92785000D02*
X145230000Y-92785000D01*
X135128000Y-94996000D02*
X137339000Y-92785000D01*
X135128000Y-103403460D02*
X135128000Y-94996000D01*
X133629460Y-104902000D02*
X135128000Y-103403460D01*
X131080109Y-104902000D02*
X133629460Y-104902000D01*
X129323794Y-103145685D02*
X131080109Y-104902000D01*
%TO.N,PD4*%
X139951000Y-101095000D02*
X145230000Y-101095000D01*
X128615522Y-106680055D02*
X134365945Y-106680055D01*
X127202473Y-105267006D02*
X128615522Y-106680055D01*
X134365945Y-106680055D02*
X139951000Y-101095000D01*
%TO.N,PD0*%
X133045169Y-112572831D02*
X138983000Y-106635000D01*
X128590106Y-112572831D02*
X133045169Y-112572831D01*
X123424502Y-104890725D02*
X123424503Y-107407228D01*
X123755328Y-104559899D02*
X123424502Y-104890725D01*
X123424503Y-107407228D02*
X128590106Y-112572831D01*
X138983000Y-106635000D02*
X145230000Y-106635000D01*
%TO.N,PD1*%
X139865092Y-105250000D02*
X142390000Y-105250000D01*
X123780112Y-105242218D02*
X123780112Y-107259929D01*
X124108881Y-104913452D02*
X123780112Y-105242218D01*
X128737403Y-112217220D02*
X132897872Y-112217220D01*
X132897872Y-112217220D02*
X139865092Y-105250000D01*
X123780112Y-107259929D02*
X128737403Y-112217220D01*
%TO.N,PD3*%
X141629274Y-102480000D02*
X142390000Y-102480000D01*
X132603276Y-111505998D02*
X141629274Y-102480000D01*
X129031998Y-111505998D02*
X132603276Y-111505998D01*
X124491334Y-106965334D02*
X129031998Y-111505998D01*
X124491334Y-105945213D02*
X124491334Y-106965334D01*
X124815988Y-105620559D02*
X124491334Y-105945213D01*
%TO.N,XTAL1*%
X119468000Y-110287289D02*
X121115569Y-111934858D01*
X119468000Y-110066000D02*
X119468000Y-110287289D01*
X122174000Y-105434120D02*
X122174000Y-107360000D01*
X123401774Y-104206346D02*
X122174000Y-105434120D01*
X122174000Y-107360000D02*
X119468000Y-110066000D01*
%TO.N,XTAL2*%
X117768000Y-107825289D02*
X116181262Y-106238551D01*
X117768000Y-107866000D02*
X117768000Y-107825289D01*
X120381292Y-105195506D02*
X117768000Y-107808798D01*
X121705507Y-105195506D02*
X120381292Y-105195506D01*
X117768000Y-107808798D02*
X117768000Y-107866000D01*
X123048221Y-103852792D02*
X121705507Y-105195506D01*
%TO.N,Net-(C8-Pad2)*%
X122069939Y-98013151D02*
X123401774Y-99344986D01*
X119914677Y-98013151D02*
X122069939Y-98013151D01*
D31*
%TO.N,Net-(FB1-Pad2)*%
X115697500Y-86630000D02*
X111252500Y-86630000D01*
X116285500Y-86042000D02*
X115697500Y-86630000D01*
D30*
%TO.N,D+*%
X119860937Y-95132544D02*
X119860937Y-95804150D01*
X112658393Y-87930000D02*
X119860937Y-95132544D01*
X111222500Y-87930000D02*
X112658393Y-87930000D01*
%TO.N,D-*%
X120380519Y-94726519D02*
X120938568Y-94726519D01*
X112934000Y-87280000D02*
X120380519Y-94726519D01*
X111252500Y-87280000D02*
X112934000Y-87280000D01*
%TO.N,PE2*%
X134311000Y-123884000D02*
X135636000Y-125209000D01*
X133096000Y-123884000D02*
X134311000Y-123884000D01*
X137110000Y-125209000D02*
X137160000Y-125159000D01*
X135636000Y-125209000D02*
X137110000Y-125209000D01*
X133096000Y-122174000D02*
X133096000Y-123884000D01*
X131572000Y-102870000D02*
X131826000Y-103124000D01*
X130462322Y-102870000D02*
X131572000Y-102870000D01*
X130030901Y-102438579D02*
X130462322Y-102870000D01*
%TO.N,RESET*%
X125785000Y-123884000D02*
X124460000Y-125209000D01*
X127000000Y-123884000D02*
X125785000Y-123884000D01*
X124410000Y-125159000D02*
X124460000Y-125209000D01*
X122936000Y-125159000D02*
X124410000Y-125159000D01*
X121147693Y-103632000D02*
X120650000Y-103632000D01*
X121987561Y-102792132D02*
X121147693Y-103632000D01*
X127000000Y-123884000D02*
X127000000Y-122174000D01*
%TO.N,Net-(D1-Pad1)*%
X131826000Y-116103500D02*
X131826000Y-117793000D01*
%TO.N,Net-(C10-Pad2)*%
X128158128Y-94384985D02*
X129226919Y-93316194D01*
X128158128Y-94402664D02*
X128158128Y-94384985D01*
X128158128Y-95914458D02*
X128158128Y-94402664D01*
X126495367Y-97577219D02*
X128158128Y-95914458D01*
%TO.N,Net-(C13-Pad2)*%
X129101409Y-107873048D02*
X126848920Y-105620559D01*
X129792959Y-107873048D02*
X129101409Y-107873048D01*
X129810637Y-107873048D02*
X130879429Y-108941840D01*
X129792959Y-107873048D02*
X129810637Y-107873048D01*
%TO.N,Net-(R1-Pad1)*%
X122105294Y-95927185D02*
X122105294Y-95893245D01*
X124462435Y-98284326D02*
X122105294Y-95927185D01*
%TO.N,Net-(R2-Pad1)*%
X122441877Y-96970876D02*
X124108881Y-98637880D01*
X121027663Y-96970876D02*
X122441877Y-96970876D01*
%TO.N,PF1*%
X134112000Y-84422000D02*
X132380000Y-82690000D01*
X134112000Y-86106000D02*
X134112000Y-84422000D01*
X132842000Y-87376000D02*
X134112000Y-86106000D01*
X125730000Y-87376000D02*
X132842000Y-87376000D01*
X128270000Y-98631013D02*
X128270000Y-97536000D01*
X127909580Y-98991433D02*
X128270000Y-98631013D01*
%TO.N,PC7*%
X130771215Y-103886000D02*
X131064000Y-103886000D01*
X129677347Y-102792132D02*
X130771215Y-103886000D01*
X131826000Y-113538000D02*
X131826000Y-114528500D01*
%TO.N,Net-(D2-Pad2)*%
X128270000Y-116103500D02*
X128270000Y-117793000D01*
%TO.N,PB0*%
X121956575Y-99314000D02*
X121158000Y-99314000D01*
X122694668Y-100052093D02*
X121956575Y-99314000D01*
X126263500Y-114528500D02*
X126238000Y-114554000D01*
X128270000Y-114528500D02*
X126263500Y-114528500D01*
%TO.N,Net-(D3-Pad2)*%
X130048000Y-116103500D02*
X130048000Y-117793000D01*
%TO.N,PD5*%
X126746000Y-107550572D02*
X126746000Y-107696000D01*
X125169541Y-105974113D02*
X126746000Y-107550572D01*
X130048000Y-114528500D02*
X130048000Y-113538000D01*
%TO.N,Net-(D4-Pad1)*%
X111976500Y-101117500D02*
X112014000Y-101155000D01*
X110236000Y-101117500D02*
X111976500Y-101117500D01*
%TD*%
D32*
%TO.N,+3V3*%
X114109623Y-72016488D02*
X114278000Y-72033072D01*
X114778000Y-72033072D01*
X114946377Y-72016488D01*
X114971062Y-72009000D01*
X115608938Y-72009000D01*
X115633623Y-72016488D01*
X115802000Y-72033072D01*
X116302000Y-72033072D01*
X116470377Y-72016488D01*
X116495062Y-72009000D01*
X122047000Y-72009000D01*
X122047000Y-76327000D01*
X117094000Y-76327000D01*
X117069224Y-76329440D01*
X117045399Y-76336667D01*
X117023443Y-76348403D01*
X117004197Y-76364197D01*
X116988403Y-76383443D01*
X116976667Y-76405399D01*
X116969440Y-76429224D01*
X116967000Y-76454000D01*
X116967000Y-82359000D01*
X115443000Y-82359000D01*
X115443000Y-76454000D01*
X115440560Y-76429224D01*
X115433333Y-76405399D01*
X115421597Y-76383443D01*
X115405803Y-76364197D01*
X115386557Y-76348403D01*
X115364601Y-76336667D01*
X115340776Y-76329440D01*
X115316000Y-76327000D01*
X110109000Y-76327000D01*
X110109000Y-72009000D01*
X114084938Y-72009000D01*
X114109623Y-72016488D01*
%TA.AperFunction,Conductor*%
D33*
G36*
X114109623Y-72016488D02*
G01*
X114278000Y-72033072D01*
X114778000Y-72033072D01*
X114946377Y-72016488D01*
X114971062Y-72009000D01*
X115608938Y-72009000D01*
X115633623Y-72016488D01*
X115802000Y-72033072D01*
X116302000Y-72033072D01*
X116470377Y-72016488D01*
X116495062Y-72009000D01*
X122047000Y-72009000D01*
X122047000Y-76327000D01*
X117094000Y-76327000D01*
X117069224Y-76329440D01*
X117045399Y-76336667D01*
X117023443Y-76348403D01*
X117004197Y-76364197D01*
X116988403Y-76383443D01*
X116976667Y-76405399D01*
X116969440Y-76429224D01*
X116967000Y-76454000D01*
X116967000Y-82359000D01*
X115443000Y-82359000D01*
X115443000Y-76454000D01*
X115440560Y-76429224D01*
X115433333Y-76405399D01*
X115421597Y-76383443D01*
X115405803Y-76364197D01*
X115386557Y-76348403D01*
X115364601Y-76336667D01*
X115340776Y-76329440D01*
X115316000Y-76327000D01*
X110109000Y-76327000D01*
X110109000Y-72009000D01*
X114084938Y-72009000D01*
X114109623Y-72016488D01*
G37*
%TD.AperFunction*%
%TD*%
M02*
