%TF.GenerationSoftware,KiCad,Pcbnew,(6.0.9)*%
%TF.CreationDate,2022-12-20T19:16:25+10:00*%
%TF.ProjectId,OpenRetroPad,4f70656e-5265-4747-926f-5061642e6b69,rev?*%
%TF.SameCoordinates,Original*%
%TF.FileFunction,Legend,Top*%
%TF.FilePolarity,Positive*%
%FSLAX46Y46*%
G04 Gerber Fmt 4.6, Leading zero omitted, Abs format (unit mm)*
G04 Created by KiCad (PCBNEW (6.0.9)) date 2022-12-20 19:16:25*
%MOMM*%
%LPD*%
G01*
G04 APERTURE LIST*
G04 Aperture macros list*
%AMRoundRect*
0 Rectangle with rounded corners*
0 $1 Rounding radius*
0 $2 $3 $4 $5 $6 $7 $8 $9 X,Y pos of 4 corners*
0 Add a 4 corners polygon primitive as box body*
4,1,4,$2,$3,$4,$5,$6,$7,$8,$9,$2,$3,0*
0 Add four circle primitives for the rounded corners*
1,1,$1+$1,$2,$3*
1,1,$1+$1,$4,$5*
1,1,$1+$1,$6,$7*
1,1,$1+$1,$8,$9*
0 Add four rect primitives between the rounded corners*
20,1,$1+$1,$2,$3,$4,$5,0*
20,1,$1+$1,$4,$5,$6,$7,0*
20,1,$1+$1,$6,$7,$8,$9,0*
20,1,$1+$1,$8,$9,$2,$3,0*%
%AMRotRect*
0 Rectangle, with rotation*
0 The origin of the aperture is its center*
0 $1 length*
0 $2 width*
0 $3 Rotation angle, in degrees counterclockwise*
0 Add horizontal line*
21,1,$1,$2,0,0,$3*%
%AMFreePoly0*
4,1,22,0.500000,-0.750000,0.000000,-0.750000,0.000000,-0.745033,-0.079941,-0.743568,-0.215256,-0.701293,-0.333266,-0.622738,-0.424486,-0.514219,-0.481581,-0.384460,-0.499164,-0.250000,-0.500000,-0.250000,-0.500000,0.250000,-0.499164,0.250000,-0.499963,0.256109,-0.478152,0.396186,-0.417904,0.524511,-0.324060,0.630769,-0.204165,0.706417,-0.067858,0.745374,0.000000,0.744959,0.000000,0.750000,
0.500000,0.750000,0.500000,-0.750000,0.500000,-0.750000,$1*%
%AMFreePoly1*
4,1,20,0.000000,0.744959,0.073905,0.744508,0.209726,0.703889,0.328688,0.626782,0.421226,0.519385,0.479903,0.390333,0.500000,0.250000,0.500000,-0.250000,0.499851,-0.262216,0.476331,-0.402017,0.414519,-0.529596,0.319384,-0.634700,0.198574,-0.708877,0.061801,-0.746166,0.000000,-0.745033,0.000000,-0.750000,-0.500000,-0.750000,-0.500000,0.750000,0.000000,0.750000,0.000000,0.744959,
0.000000,0.744959,$1*%
G04 Aperture macros list end*
%ADD10C,0.150000*%
%ADD11C,0.300000*%
%ADD12C,0.100000*%
%ADD13C,0.120000*%
%ADD14RoundRect,0.225000X-0.250000X0.225000X-0.250000X-0.225000X0.250000X-0.225000X0.250000X0.225000X0*%
%ADD15RoundRect,0.150000X-0.512500X-0.150000X0.512500X-0.150000X0.512500X0.150000X-0.512500X0.150000X0*%
%ADD16C,4.000000*%
%ADD17R,1.600000X1.600000*%
%ADD18C,1.600000*%
%ADD19R,0.600000X0.450000*%
%ADD20RoundRect,0.200000X0.200000X0.275000X-0.200000X0.275000X-0.200000X-0.275000X0.200000X-0.275000X0*%
%ADD21RoundRect,0.225000X0.225000X0.250000X-0.225000X0.250000X-0.225000X-0.250000X0.225000X-0.250000X0*%
%ADD22RoundRect,0.243750X0.243750X0.456250X-0.243750X0.456250X-0.243750X-0.456250X0.243750X-0.456250X0*%
%ADD23RoundRect,0.225000X0.335876X0.017678X0.017678X0.335876X-0.335876X-0.017678X-0.017678X-0.335876X0*%
%ADD24RoundRect,0.200000X-0.200000X-0.275000X0.200000X-0.275000X0.200000X0.275000X-0.200000X0.275000X0*%
%ADD25RoundRect,0.225000X-0.335876X-0.017678X-0.017678X-0.335876X0.335876X0.017678X0.017678X0.335876X0*%
%ADD26RoundRect,0.225000X-0.225000X-0.250000X0.225000X-0.250000X0.225000X0.250000X-0.225000X0.250000X0*%
%ADD27RoundRect,0.200000X0.275000X-0.200000X0.275000X0.200000X-0.275000X0.200000X-0.275000X-0.200000X0*%
%ADD28RoundRect,0.218750X0.256250X-0.218750X0.256250X0.218750X-0.256250X0.218750X-0.256250X-0.218750X0*%
%ADD29RoundRect,0.225000X0.250000X-0.225000X0.250000X0.225000X-0.250000X0.225000X-0.250000X-0.225000X0*%
%ADD30C,0.800000*%
%ADD31C,6.400000*%
%ADD32RoundRect,0.150000X0.150000X-0.825000X0.150000X0.825000X-0.150000X0.825000X-0.150000X-0.825000X0*%
%ADD33R,1.500000X2.000000*%
%ADD34R,3.800000X2.000000*%
%ADD35RoundRect,0.225000X-0.017678X0.335876X-0.335876X0.017678X0.017678X-0.335876X0.335876X-0.017678X0*%
%ADD36RoundRect,0.218750X-0.256250X0.218750X-0.256250X-0.218750X0.256250X-0.218750X0.256250X0.218750X0*%
%ADD37RoundRect,0.218750X-0.335876X-0.026517X-0.026517X-0.335876X0.335876X0.026517X0.026517X0.335876X0*%
%ADD38RoundRect,0.200000X0.335876X0.053033X0.053033X0.335876X-0.335876X-0.053033X-0.053033X-0.335876X0*%
%ADD39RoundRect,0.218750X0.335876X0.026517X0.026517X0.335876X-0.335876X-0.026517X-0.026517X-0.335876X0*%
%ADD40RoundRect,0.250000X-0.250000X-0.475000X0.250000X-0.475000X0.250000X0.475000X-0.250000X0.475000X0*%
%ADD41RoundRect,0.218750X0.026517X-0.335876X0.335876X-0.026517X-0.026517X0.335876X-0.335876X0.026517X0*%
%ADD42FreePoly0,180.000000*%
%ADD43FreePoly1,180.000000*%
%ADD44C,0.650000*%
%ADD45R,1.450000X0.600000*%
%ADD46R,1.450000X0.300000*%
%ADD47O,1.600000X1.000000*%
%ADD48O,2.100000X1.000000*%
%ADD49RotRect,1.500000X0.550000X315.000000*%
%ADD50RotRect,1.500000X0.550000X45.000000*%
%ADD51RoundRect,0.200000X-0.335876X-0.053033X-0.053033X-0.335876X0.335876X0.053033X0.053033X0.335876X0*%
%ADD52RoundRect,0.218750X0.218750X0.256250X-0.218750X0.256250X-0.218750X-0.256250X0.218750X-0.256250X0*%
%ADD53RoundRect,0.250000X-0.475000X0.250000X-0.475000X-0.250000X0.475000X-0.250000X0.475000X0.250000X0*%
%ADD54RotRect,1.400000X1.200000X135.000000*%
%ADD55R,1.700000X1.700000*%
%ADD56O,1.700000X1.700000*%
%ADD57RoundRect,0.250000X-0.750000X0.250000X-0.750000X-0.250000X0.750000X-0.250000X0.750000X0.250000X0*%
G04 APERTURE END LIST*
D10*
X-4109524Y-42152380D02*
X-4109524Y-41152380D01*
X-3728572Y-41152380D01*
X-3633334Y-41200000D01*
X-3585715Y-41247619D01*
X-3538096Y-41342857D01*
X-3538096Y-41485714D01*
X-3585715Y-41580952D01*
X-3633334Y-41628571D01*
X-3728572Y-41676190D01*
X-4109524Y-41676190D01*
X-2919048Y-41152380D02*
X-2728572Y-41152380D01*
X-2633334Y-41200000D01*
X-2538096Y-41295238D01*
X-2490477Y-41485714D01*
X-2490477Y-41819047D01*
X-2538096Y-42009523D01*
X-2633334Y-42104761D01*
X-2728572Y-42152380D01*
X-2919048Y-42152380D01*
X-3014286Y-42104761D01*
X-3109524Y-42009523D01*
X-3157143Y-41819047D01*
X-3157143Y-41485714D01*
X-3109524Y-41295238D01*
X-3014286Y-41200000D01*
X-2919048Y-41152380D01*
X-2157143Y-41152380D02*
X-1919048Y-42152380D01*
X-1728572Y-41438095D01*
X-1538096Y-42152380D01*
X-1300000Y-41152380D01*
X-919048Y-41628571D02*
X-585715Y-41628571D01*
X-442858Y-42152380D02*
X-919048Y-42152380D01*
X-919048Y-41152380D01*
X-442858Y-41152380D01*
X557142Y-42152380D02*
X223809Y-41676190D01*
X-14286Y-42152380D02*
X-14286Y-41152380D01*
X366666Y-41152380D01*
X461904Y-41200000D01*
X509523Y-41247619D01*
X557142Y-41342857D01*
X557142Y-41485714D01*
X509523Y-41580952D01*
X461904Y-41628571D01*
X366666Y-41676190D01*
X-14286Y-41676190D01*
X15904761Y-51652380D02*
X15904761Y-52461904D01*
X15952380Y-52557142D01*
X16000000Y-52604761D01*
X16095238Y-52652380D01*
X16285714Y-52652380D01*
X16380952Y-52604761D01*
X16428571Y-52557142D01*
X16476190Y-52461904D01*
X16476190Y-51652380D01*
X16904761Y-52366666D02*
X17380952Y-52366666D01*
X16809523Y-52652380D02*
X17142857Y-51652380D01*
X17476190Y-52652380D01*
X18380952Y-52652380D02*
X18047619Y-52176190D01*
X17809523Y-52652380D02*
X17809523Y-51652380D01*
X18190476Y-51652380D01*
X18285714Y-51700000D01*
X18333333Y-51747619D01*
X18380952Y-51842857D01*
X18380952Y-51985714D01*
X18333333Y-52080952D01*
X18285714Y-52128571D01*
X18190476Y-52176190D01*
X17809523Y-52176190D01*
X18666666Y-51652380D02*
X19238095Y-51652380D01*
X18952380Y-52652380D02*
X18952380Y-51652380D01*
D11*
X7971428Y-68278571D02*
X7471428Y-67564285D01*
X7114285Y-68278571D02*
X7114285Y-66778571D01*
X7685714Y-66778571D01*
X7828571Y-66850000D01*
X7900000Y-66921428D01*
X7971428Y-67064285D01*
X7971428Y-67278571D01*
X7900000Y-67421428D01*
X7828571Y-67492857D01*
X7685714Y-67564285D01*
X7114285Y-67564285D01*
X8614285Y-67492857D02*
X9114285Y-67492857D01*
X9328571Y-68278571D02*
X8614285Y-68278571D01*
X8614285Y-66778571D01*
X9328571Y-66778571D01*
X9900000Y-68207142D02*
X10114285Y-68278571D01*
X10471428Y-68278571D01*
X10614285Y-68207142D01*
X10685714Y-68135714D01*
X10757142Y-67992857D01*
X10757142Y-67850000D01*
X10685714Y-67707142D01*
X10614285Y-67635714D01*
X10471428Y-67564285D01*
X10185714Y-67492857D01*
X10042857Y-67421428D01*
X9971428Y-67350000D01*
X9900000Y-67207142D01*
X9900000Y-67064285D01*
X9971428Y-66921428D01*
X10042857Y-66850000D01*
X10185714Y-66778571D01*
X10542857Y-66778571D01*
X10757142Y-66850000D01*
X11400000Y-67492857D02*
X11900000Y-67492857D01*
X12114285Y-68278571D02*
X11400000Y-68278571D01*
X11400000Y-66778571D01*
X12114285Y-66778571D01*
X12542857Y-66778571D02*
X13400000Y-66778571D01*
X12971428Y-68278571D02*
X12971428Y-66778571D01*
X-4400000Y-47678571D02*
X-4400000Y-46178571D01*
X-3828572Y-46178571D01*
X-3685715Y-46250000D01*
X-3614286Y-46321428D01*
X-3542858Y-46464285D01*
X-3542858Y-46678571D01*
X-3614286Y-46821428D01*
X-3685715Y-46892857D01*
X-3828572Y-46964285D01*
X-4400000Y-46964285D01*
X-2042858Y-47678571D02*
X-2542858Y-46964285D01*
X-2900000Y-47678571D02*
X-2900000Y-46178571D01*
X-2328572Y-46178571D01*
X-2185715Y-46250000D01*
X-2114286Y-46321428D01*
X-2042858Y-46464285D01*
X-2042858Y-46678571D01*
X-2114286Y-46821428D01*
X-2185715Y-46892857D01*
X-2328572Y-46964285D01*
X-2900000Y-46964285D01*
X-614286Y-46250000D02*
X-757143Y-46178571D01*
X-971429Y-46178571D01*
X-1185715Y-46250000D01*
X-1328572Y-46392857D01*
X-1400000Y-46535714D01*
X-1471429Y-46821428D01*
X-1471429Y-47035714D01*
X-1400000Y-47321428D01*
X-1328572Y-47464285D01*
X-1185715Y-47607142D01*
X-971429Y-47678571D01*
X-828572Y-47678571D01*
X-614286Y-47607142D01*
X-542858Y-47535714D01*
X-542858Y-47035714D01*
X-828572Y-47035714D01*
X100000Y-47678571D02*
X100000Y-46178571D01*
X600000Y-47250000D01*
X1100000Y-46178571D01*
X1100000Y-47678571D01*
D10*
X21438095Y-51702380D02*
X21438095Y-52511904D01*
X21485714Y-52607142D01*
X21533333Y-52654761D01*
X21628571Y-52702380D01*
X21819047Y-52702380D01*
X21914285Y-52654761D01*
X21961904Y-52607142D01*
X22009523Y-52511904D01*
X22009523Y-51702380D01*
X22438095Y-52654761D02*
X22580952Y-52702380D01*
X22819047Y-52702380D01*
X22914285Y-52654761D01*
X22961904Y-52607142D01*
X23009523Y-52511904D01*
X23009523Y-52416666D01*
X22961904Y-52321428D01*
X22914285Y-52273809D01*
X22819047Y-52226190D01*
X22628571Y-52178571D01*
X22533333Y-52130952D01*
X22485714Y-52083333D01*
X22438095Y-51988095D01*
X22438095Y-51892857D01*
X22485714Y-51797619D01*
X22533333Y-51750000D01*
X22628571Y-51702380D01*
X22866666Y-51702380D01*
X23009523Y-51750000D01*
X23771428Y-52178571D02*
X23914285Y-52226190D01*
X23961904Y-52273809D01*
X24009523Y-52369047D01*
X24009523Y-52511904D01*
X23961904Y-52607142D01*
X23914285Y-52654761D01*
X23819047Y-52702380D01*
X23438095Y-52702380D01*
X23438095Y-51702380D01*
X23771428Y-51702380D01*
X23866666Y-51750000D01*
X23914285Y-51797619D01*
X23961904Y-51892857D01*
X23961904Y-51988095D01*
X23914285Y-52083333D01*
X23866666Y-52130952D01*
X23771428Y-52178571D01*
X23438095Y-52178571D01*
D11*
X-4400000Y-32778571D02*
X-4400000Y-31278571D01*
X-4042858Y-31278571D01*
X-3828572Y-31350000D01*
X-3685715Y-31492857D01*
X-3614286Y-31635714D01*
X-3542858Y-31921428D01*
X-3542858Y-32135714D01*
X-3614286Y-32421428D01*
X-3685715Y-32564285D01*
X-3828572Y-32707142D01*
X-4042858Y-32778571D01*
X-4400000Y-32778571D01*
X-2971429Y-32350000D02*
X-2257143Y-32350000D01*
X-3114286Y-32778571D02*
X-2614286Y-31278571D01*
X-2114286Y-32778571D01*
X-1828572Y-31278571D02*
X-971429Y-31278571D01*
X-1400000Y-32778571D02*
X-1400000Y-31278571D01*
X-542858Y-32350000D02*
X171428Y-32350000D01*
X-685715Y-32778571D02*
X-185715Y-31278571D01*
X314285Y-32778571D01*
D10*
X15480952Y-56952380D02*
X16052380Y-56952380D01*
X15766666Y-57952380D02*
X15766666Y-56952380D01*
X16290476Y-56952380D02*
X16957142Y-57952380D01*
X16957142Y-56952380D02*
X16290476Y-57952380D01*
X18671428Y-57952380D02*
X18338095Y-57476190D01*
X18100000Y-57952380D02*
X18100000Y-56952380D01*
X18480952Y-56952380D01*
X18576190Y-57000000D01*
X18623809Y-57047619D01*
X18671428Y-57142857D01*
X18671428Y-57285714D01*
X18623809Y-57380952D01*
X18576190Y-57428571D01*
X18480952Y-57476190D01*
X18100000Y-57476190D01*
X19004761Y-56952380D02*
X19671428Y-57952380D01*
X19671428Y-56952380D02*
X19004761Y-57952380D01*
D11*
X22664285Y-68378571D02*
X22664285Y-66878571D01*
X22664285Y-67592857D02*
X23521428Y-67592857D01*
X23521428Y-68378571D02*
X23521428Y-66878571D01*
X24092857Y-66878571D02*
X24450000Y-68378571D01*
X24735714Y-67307142D01*
X25021428Y-68378571D01*
X25378571Y-66878571D01*
X26450000Y-67592857D02*
X26664285Y-67664285D01*
X26735714Y-67735714D01*
X26807142Y-67878571D01*
X26807142Y-68092857D01*
X26735714Y-68235714D01*
X26664285Y-68307142D01*
X26521428Y-68378571D01*
X25950000Y-68378571D01*
X25950000Y-66878571D01*
X26450000Y-66878571D01*
X26592857Y-66950000D01*
X26664285Y-67021428D01*
X26735714Y-67164285D01*
X26735714Y-67307142D01*
X26664285Y-67450000D01*
X26592857Y-67521428D01*
X26450000Y-67592857D01*
X25950000Y-67592857D01*
D10*
X21295238Y-57902380D02*
X20961904Y-57426190D01*
X20723809Y-57902380D02*
X20723809Y-56902380D01*
X21104761Y-56902380D01*
X21200000Y-56950000D01*
X21247619Y-56997619D01*
X21295238Y-57092857D01*
X21295238Y-57235714D01*
X21247619Y-57330952D01*
X21200000Y-57378571D01*
X21104761Y-57426190D01*
X20723809Y-57426190D01*
X21628571Y-56902380D02*
X22295238Y-57902380D01*
X22295238Y-56902380D02*
X21628571Y-57902380D01*
X23295238Y-56902380D02*
X23866666Y-56902380D01*
X23580952Y-57902380D02*
X23580952Y-56902380D01*
X24104761Y-56902380D02*
X24771428Y-57902380D01*
X24771428Y-56902380D02*
X24104761Y-57902380D01*
X26275042Y-37350591D02*
X25702622Y-37923011D01*
X25668950Y-38024026D01*
X25668950Y-38091370D01*
X25702622Y-38192385D01*
X25837309Y-38327072D01*
X25938324Y-38360744D01*
X26005668Y-38360744D01*
X26106683Y-38327072D01*
X26679103Y-37754652D01*
X26308713Y-38731133D02*
X26376057Y-38865820D01*
X26544416Y-39034179D01*
X26645431Y-39067851D01*
X26712774Y-39067851D01*
X26813790Y-39034179D01*
X26881133Y-38966835D01*
X26914805Y-38865820D01*
X26914805Y-38798477D01*
X26881133Y-38697461D01*
X26780118Y-38529103D01*
X26746446Y-38428087D01*
X26746446Y-38360744D01*
X26780118Y-38259729D01*
X26847461Y-38192385D01*
X26948477Y-38158713D01*
X27015820Y-38158713D01*
X27116835Y-38192385D01*
X27285194Y-38360744D01*
X27352538Y-38495431D01*
X27352538Y-39101522D02*
X27588240Y-39337225D01*
X27318866Y-39808629D02*
X26982148Y-39471912D01*
X27689255Y-38764805D01*
X28025973Y-39101522D01*
X28025973Y-40515736D02*
X28126988Y-39943316D01*
X27621912Y-40111675D02*
X28329018Y-39404568D01*
X28598392Y-39673942D01*
X28632064Y-39774957D01*
X28632064Y-39842301D01*
X28598392Y-39943316D01*
X28497377Y-40044331D01*
X28396362Y-40078003D01*
X28329018Y-40078003D01*
X28228003Y-40044331D01*
X27958629Y-39774957D01*
D12*
%TO.C,C5*%
X5200000Y-4114285D02*
X5171428Y-4142857D01*
X5085714Y-4171428D01*
X5028571Y-4171428D01*
X4942857Y-4142857D01*
X4885714Y-4085714D01*
X4857142Y-4028571D01*
X4828571Y-3914285D01*
X4828571Y-3828571D01*
X4857142Y-3714285D01*
X4885714Y-3657142D01*
X4942857Y-3600000D01*
X5028571Y-3571428D01*
X5085714Y-3571428D01*
X5171428Y-3600000D01*
X5200000Y-3628571D01*
X5742857Y-3571428D02*
X5457142Y-3571428D01*
X5428571Y-3857142D01*
X5457142Y-3828571D01*
X5514285Y-3800000D01*
X5657142Y-3800000D01*
X5714285Y-3828571D01*
X5742857Y-3857142D01*
X5771428Y-3914285D01*
X5771428Y-4057142D01*
X5742857Y-4114285D01*
X5714285Y-4142857D01*
X5657142Y-4171428D01*
X5514285Y-4171428D01*
X5457142Y-4142857D01*
X5428571Y-4114285D01*
%TO.C,U4*%
X8928571Y-25542857D02*
X8442857Y-25542857D01*
X8385714Y-25571428D01*
X8357142Y-25600000D01*
X8328571Y-25657142D01*
X8328571Y-25771428D01*
X8357142Y-25828571D01*
X8385714Y-25857142D01*
X8442857Y-25885714D01*
X8928571Y-25885714D01*
X8728571Y-26428571D02*
X8328571Y-26428571D01*
X8957142Y-26285714D02*
X8528571Y-26142857D01*
X8528571Y-26514285D01*
%TO.C,J4*%
X29100000Y-4071428D02*
X29100000Y-4500000D01*
X29071428Y-4585714D01*
X29014285Y-4642857D01*
X28928571Y-4671428D01*
X28871428Y-4671428D01*
X29642857Y-4271428D02*
X29642857Y-4671428D01*
X29500000Y-4042857D02*
X29357142Y-4471428D01*
X29728571Y-4471428D01*
%TO.C,D9*%
X6407142Y-51621428D02*
X6407142Y-51021428D01*
X6550000Y-51021428D01*
X6635714Y-51050000D01*
X6692857Y-51107142D01*
X6721428Y-51164285D01*
X6750000Y-51278571D01*
X6750000Y-51364285D01*
X6721428Y-51478571D01*
X6692857Y-51535714D01*
X6635714Y-51592857D01*
X6550000Y-51621428D01*
X6407142Y-51621428D01*
X7035714Y-51621428D02*
X7150000Y-51621428D01*
X7207142Y-51592857D01*
X7235714Y-51564285D01*
X7292857Y-51478571D01*
X7321428Y-51364285D01*
X7321428Y-51135714D01*
X7292857Y-51078571D01*
X7264285Y-51050000D01*
X7207142Y-51021428D01*
X7092857Y-51021428D01*
X7035714Y-51050000D01*
X7007142Y-51078571D01*
X6978571Y-51135714D01*
X6978571Y-51278571D01*
X7007142Y-51335714D01*
X7035714Y-51364285D01*
X7092857Y-51392857D01*
X7207142Y-51392857D01*
X7264285Y-51364285D01*
X7292857Y-51335714D01*
X7321428Y-51278571D01*
%TO.C,R16*%
X15064285Y-60521428D02*
X14864285Y-60235714D01*
X14721428Y-60521428D02*
X14721428Y-59921428D01*
X14950000Y-59921428D01*
X15007142Y-59950000D01*
X15035714Y-59978571D01*
X15064285Y-60035714D01*
X15064285Y-60121428D01*
X15035714Y-60178571D01*
X15007142Y-60207142D01*
X14950000Y-60235714D01*
X14721428Y-60235714D01*
X15635714Y-60521428D02*
X15292857Y-60521428D01*
X15464285Y-60521428D02*
X15464285Y-59921428D01*
X15407142Y-60007142D01*
X15350000Y-60064285D01*
X15292857Y-60092857D01*
X16150000Y-59921428D02*
X16035714Y-59921428D01*
X15978571Y-59950000D01*
X15950000Y-59978571D01*
X15892857Y-60064285D01*
X15864285Y-60178571D01*
X15864285Y-60407142D01*
X15892857Y-60464285D01*
X15921428Y-60492857D01*
X15978571Y-60521428D01*
X16092857Y-60521428D01*
X16150000Y-60492857D01*
X16178571Y-60464285D01*
X16207142Y-60407142D01*
X16207142Y-60264285D01*
X16178571Y-60207142D01*
X16150000Y-60178571D01*
X16092857Y-60150000D01*
X15978571Y-60150000D01*
X15921428Y-60178571D01*
X15892857Y-60207142D01*
X15864285Y-60264285D01*
%TO.C,C19*%
X2814285Y-38514285D02*
X2785714Y-38542857D01*
X2700000Y-38571428D01*
X2642857Y-38571428D01*
X2557142Y-38542857D01*
X2500000Y-38485714D01*
X2471428Y-38428571D01*
X2442857Y-38314285D01*
X2442857Y-38228571D01*
X2471428Y-38114285D01*
X2500000Y-38057142D01*
X2557142Y-38000000D01*
X2642857Y-37971428D01*
X2700000Y-37971428D01*
X2785714Y-38000000D01*
X2814285Y-38028571D01*
X3385714Y-38571428D02*
X3042857Y-38571428D01*
X3214285Y-38571428D02*
X3214285Y-37971428D01*
X3157142Y-38057142D01*
X3100000Y-38114285D01*
X3042857Y-38142857D01*
X3671428Y-38571428D02*
X3785714Y-38571428D01*
X3842857Y-38542857D01*
X3871428Y-38514285D01*
X3928571Y-38428571D01*
X3957142Y-38314285D01*
X3957142Y-38085714D01*
X3928571Y-38028571D01*
X3900000Y-38000000D01*
X3842857Y-37971428D01*
X3728571Y-37971428D01*
X3671428Y-38000000D01*
X3642857Y-38028571D01*
X3614285Y-38085714D01*
X3614285Y-38228571D01*
X3642857Y-38285714D01*
X3671428Y-38314285D01*
X3728571Y-38342857D01*
X3842857Y-38342857D01*
X3900000Y-38314285D01*
X3928571Y-38285714D01*
X3957142Y-38228571D01*
%TO.C,F2*%
X21400000Y-12057142D02*
X21200000Y-12057142D01*
X21200000Y-12371428D02*
X21200000Y-11771428D01*
X21485714Y-11771428D01*
X21685714Y-11828571D02*
X21714285Y-11800000D01*
X21771428Y-11771428D01*
X21914285Y-11771428D01*
X21971428Y-11800000D01*
X22000000Y-11828571D01*
X22028571Y-11885714D01*
X22028571Y-11942857D01*
X22000000Y-12028571D01*
X21657142Y-12371428D01*
X22028571Y-12371428D01*
%TO.C,C10*%
X23725735Y-46428781D02*
X23685329Y-46428781D01*
X23604517Y-46388375D01*
X23564111Y-46347969D01*
X23523705Y-46267157D01*
X23523705Y-46186345D01*
X23543908Y-46125735D01*
X23604517Y-46024720D01*
X23665126Y-45964111D01*
X23766142Y-45903502D01*
X23826751Y-45883299D01*
X23907563Y-45883299D01*
X23988375Y-45923705D01*
X24028781Y-45964111D01*
X24069187Y-46044923D01*
X24069187Y-46085329D01*
X24089390Y-46873248D02*
X23846954Y-46630812D01*
X23968172Y-46752030D02*
X24392436Y-46327766D01*
X24291421Y-46347969D01*
X24210609Y-46347969D01*
X24150000Y-46327766D01*
X24776294Y-46711624D02*
X24816700Y-46752030D01*
X24836903Y-46812639D01*
X24836903Y-46853045D01*
X24816700Y-46913654D01*
X24756091Y-47014670D01*
X24655076Y-47115685D01*
X24554061Y-47176294D01*
X24493451Y-47196497D01*
X24453045Y-47196497D01*
X24392436Y-47176294D01*
X24352030Y-47135888D01*
X24331827Y-47075279D01*
X24331827Y-47034873D01*
X24352030Y-46974264D01*
X24412639Y-46873248D01*
X24513654Y-46772233D01*
X24614670Y-46711624D01*
X24675279Y-46691421D01*
X24715685Y-46691421D01*
X24776294Y-46711624D01*
%TO.C,R11*%
X2914285Y-40071428D02*
X2714285Y-39785714D01*
X2571428Y-40071428D02*
X2571428Y-39471428D01*
X2800000Y-39471428D01*
X2857142Y-39500000D01*
X2885714Y-39528571D01*
X2914285Y-39585714D01*
X2914285Y-39671428D01*
X2885714Y-39728571D01*
X2857142Y-39757142D01*
X2800000Y-39785714D01*
X2571428Y-39785714D01*
X3485714Y-40071428D02*
X3142857Y-40071428D01*
X3314285Y-40071428D02*
X3314285Y-39471428D01*
X3257142Y-39557142D01*
X3200000Y-39614285D01*
X3142857Y-39642857D01*
X4057142Y-40071428D02*
X3714285Y-40071428D01*
X3885714Y-40071428D02*
X3885714Y-39471428D01*
X3828571Y-39557142D01*
X3771428Y-39614285D01*
X3714285Y-39642857D01*
%TO.C,C9*%
X12777766Y-25280812D02*
X12737360Y-25280812D01*
X12656548Y-25240406D01*
X12616142Y-25200000D01*
X12575735Y-25119187D01*
X12575735Y-25038375D01*
X12595938Y-24977766D01*
X12656548Y-24876751D01*
X12717157Y-24816142D01*
X12818172Y-24755532D01*
X12878781Y-24735329D01*
X12959593Y-24735329D01*
X13040406Y-24775735D01*
X13080812Y-24816142D01*
X13121218Y-24896954D01*
X13121218Y-24937360D01*
X12939390Y-25523248D02*
X13020203Y-25604061D01*
X13080812Y-25624264D01*
X13121218Y-25624264D01*
X13222233Y-25604061D01*
X13323248Y-25543451D01*
X13484873Y-25381827D01*
X13505076Y-25321218D01*
X13505076Y-25280812D01*
X13484873Y-25220203D01*
X13404061Y-25139390D01*
X13343451Y-25119187D01*
X13303045Y-25119187D01*
X13242436Y-25139390D01*
X13141421Y-25240406D01*
X13121218Y-25301015D01*
X13121218Y-25341421D01*
X13141421Y-25402030D01*
X13222233Y-25482842D01*
X13282842Y-25503045D01*
X13323248Y-25503045D01*
X13383857Y-25482842D01*
%TO.C,C7*%
X5800000Y-35514285D02*
X5771428Y-35542857D01*
X5685714Y-35571428D01*
X5628571Y-35571428D01*
X5542857Y-35542857D01*
X5485714Y-35485714D01*
X5457142Y-35428571D01*
X5428571Y-35314285D01*
X5428571Y-35228571D01*
X5457142Y-35114285D01*
X5485714Y-35057142D01*
X5542857Y-35000000D01*
X5628571Y-34971428D01*
X5685714Y-34971428D01*
X5771428Y-35000000D01*
X5800000Y-35028571D01*
X6000000Y-34971428D02*
X6400000Y-34971428D01*
X6142857Y-35571428D01*
%TO.C,R7*%
X16600000Y-48371428D02*
X16400000Y-48085714D01*
X16257142Y-48371428D02*
X16257142Y-47771428D01*
X16485714Y-47771428D01*
X16542857Y-47800000D01*
X16571428Y-47828571D01*
X16600000Y-47885714D01*
X16600000Y-47971428D01*
X16571428Y-48028571D01*
X16542857Y-48057142D01*
X16485714Y-48085714D01*
X16257142Y-48085714D01*
X16800000Y-47771428D02*
X17200000Y-47771428D01*
X16942857Y-48371428D01*
%TO.C,D8*%
X23057142Y-56671428D02*
X23057142Y-56071428D01*
X23200000Y-56071428D01*
X23285714Y-56100000D01*
X23342857Y-56157142D01*
X23371428Y-56214285D01*
X23400000Y-56328571D01*
X23400000Y-56414285D01*
X23371428Y-56528571D01*
X23342857Y-56585714D01*
X23285714Y-56642857D01*
X23200000Y-56671428D01*
X23057142Y-56671428D01*
X23742857Y-56328571D02*
X23685714Y-56300000D01*
X23657142Y-56271428D01*
X23628571Y-56214285D01*
X23628571Y-56185714D01*
X23657142Y-56128571D01*
X23685714Y-56100000D01*
X23742857Y-56071428D01*
X23857142Y-56071428D01*
X23914285Y-56100000D01*
X23942857Y-56128571D01*
X23971428Y-56185714D01*
X23971428Y-56214285D01*
X23942857Y-56271428D01*
X23914285Y-56300000D01*
X23857142Y-56328571D01*
X23742857Y-56328571D01*
X23685714Y-56357142D01*
X23657142Y-56385714D01*
X23628571Y-56442857D01*
X23628571Y-56557142D01*
X23657142Y-56614285D01*
X23685714Y-56642857D01*
X23742857Y-56671428D01*
X23857142Y-56671428D01*
X23914285Y-56642857D01*
X23942857Y-56614285D01*
X23971428Y-56557142D01*
X23971428Y-56442857D01*
X23942857Y-56385714D01*
X23914285Y-56357142D01*
X23857142Y-56328571D01*
%TO.C,C15*%
X14714285Y-48314285D02*
X14685714Y-48342857D01*
X14600000Y-48371428D01*
X14542857Y-48371428D01*
X14457142Y-48342857D01*
X14400000Y-48285714D01*
X14371428Y-48228571D01*
X14342857Y-48114285D01*
X14342857Y-48028571D01*
X14371428Y-47914285D01*
X14400000Y-47857142D01*
X14457142Y-47800000D01*
X14542857Y-47771428D01*
X14600000Y-47771428D01*
X14685714Y-47800000D01*
X14714285Y-47828571D01*
X15285714Y-48371428D02*
X14942857Y-48371428D01*
X15114285Y-48371428D02*
X15114285Y-47771428D01*
X15057142Y-47857142D01*
X15000000Y-47914285D01*
X14942857Y-47942857D01*
X15828571Y-47771428D02*
X15542857Y-47771428D01*
X15514285Y-48057142D01*
X15542857Y-48028571D01*
X15600000Y-48000000D01*
X15742857Y-48000000D01*
X15800000Y-48028571D01*
X15828571Y-48057142D01*
X15857142Y-48114285D01*
X15857142Y-48257142D01*
X15828571Y-48314285D01*
X15800000Y-48342857D01*
X15742857Y-48371428D01*
X15600000Y-48371428D01*
X15542857Y-48342857D01*
X15514285Y-48314285D01*
%TO.C,C20*%
X24778781Y-31324264D02*
X24778781Y-31364670D01*
X24738375Y-31445482D01*
X24697969Y-31485888D01*
X24617157Y-31526294D01*
X24536345Y-31526294D01*
X24475735Y-31506091D01*
X24374720Y-31445482D01*
X24314111Y-31384873D01*
X24253502Y-31283857D01*
X24233299Y-31223248D01*
X24233299Y-31142436D01*
X24273705Y-31061624D01*
X24314111Y-31021218D01*
X24394923Y-30980812D01*
X24435329Y-30980812D01*
X24596954Y-30819187D02*
X24596954Y-30778781D01*
X24617157Y-30718172D01*
X24718172Y-30617157D01*
X24778781Y-30596954D01*
X24819187Y-30596954D01*
X24879796Y-30617157D01*
X24920203Y-30657563D01*
X24960609Y-30738375D01*
X24960609Y-31223248D01*
X25223248Y-30960609D01*
X25061624Y-30273705D02*
X25102030Y-30233299D01*
X25162639Y-30213096D01*
X25203045Y-30213096D01*
X25263654Y-30233299D01*
X25364670Y-30293908D01*
X25465685Y-30394923D01*
X25526294Y-30495938D01*
X25546497Y-30556548D01*
X25546497Y-30596954D01*
X25526294Y-30657563D01*
X25485888Y-30697969D01*
X25425279Y-30718172D01*
X25384873Y-30718172D01*
X25324264Y-30697969D01*
X25223248Y-30637360D01*
X25122233Y-30536345D01*
X25061624Y-30435329D01*
X25041421Y-30374720D01*
X25041421Y-30334314D01*
X25061624Y-30273705D01*
%TO.C,R9*%
X20400000Y-60521428D02*
X20200000Y-60235714D01*
X20057142Y-60521428D02*
X20057142Y-59921428D01*
X20285714Y-59921428D01*
X20342857Y-59950000D01*
X20371428Y-59978571D01*
X20400000Y-60035714D01*
X20400000Y-60121428D01*
X20371428Y-60178571D01*
X20342857Y-60207142D01*
X20285714Y-60235714D01*
X20057142Y-60235714D01*
X20685714Y-60521428D02*
X20800000Y-60521428D01*
X20857142Y-60492857D01*
X20885714Y-60464285D01*
X20942857Y-60378571D01*
X20971428Y-60264285D01*
X20971428Y-60035714D01*
X20942857Y-59978571D01*
X20914285Y-59950000D01*
X20857142Y-59921428D01*
X20742857Y-59921428D01*
X20685714Y-59950000D01*
X20657142Y-59978571D01*
X20628571Y-60035714D01*
X20628571Y-60178571D01*
X20657142Y-60235714D01*
X20685714Y-60264285D01*
X20742857Y-60292857D01*
X20857142Y-60292857D01*
X20914285Y-60264285D01*
X20942857Y-60235714D01*
X20971428Y-60178571D01*
%TO.C,R4*%
X6600000Y-58171428D02*
X6400000Y-57885714D01*
X6257142Y-58171428D02*
X6257142Y-57571428D01*
X6485714Y-57571428D01*
X6542857Y-57600000D01*
X6571428Y-57628571D01*
X6600000Y-57685714D01*
X6600000Y-57771428D01*
X6571428Y-57828571D01*
X6542857Y-57857142D01*
X6485714Y-57885714D01*
X6257142Y-57885714D01*
X7114285Y-57771428D02*
X7114285Y-58171428D01*
X6971428Y-57542857D02*
X6828571Y-57971428D01*
X7200000Y-57971428D01*
%TO.C,H1*%
X-457143Y3928572D02*
X-457143Y4528572D01*
X-457143Y4242858D02*
X-114286Y4242858D01*
X-114286Y3928572D02*
X-114286Y4528572D01*
X485714Y3928572D02*
X142857Y3928572D01*
X314285Y3928572D02*
X314285Y4528572D01*
X257142Y4442858D01*
X200000Y4385715D01*
X142857Y4357143D01*
%TO.C,R1*%
X6600000Y-28771428D02*
X6400000Y-28485714D01*
X6257142Y-28771428D02*
X6257142Y-28171428D01*
X6485714Y-28171428D01*
X6542857Y-28200000D01*
X6571428Y-28228571D01*
X6600000Y-28285714D01*
X6600000Y-28371428D01*
X6571428Y-28428571D01*
X6542857Y-28457142D01*
X6485714Y-28485714D01*
X6257142Y-28485714D01*
X7171428Y-28771428D02*
X6828571Y-28771428D01*
X7000000Y-28771428D02*
X7000000Y-28171428D01*
X6942857Y-28257142D01*
X6885714Y-28314285D01*
X6828571Y-28342857D01*
%TO.C,C13*%
X8275735Y-28878781D02*
X8235329Y-28878781D01*
X8154517Y-28838375D01*
X8114111Y-28797969D01*
X8073705Y-28717157D01*
X8073705Y-28636345D01*
X8093908Y-28575735D01*
X8154517Y-28474720D01*
X8215126Y-28414111D01*
X8316142Y-28353502D01*
X8376751Y-28333299D01*
X8457563Y-28333299D01*
X8538375Y-28373705D01*
X8578781Y-28414111D01*
X8619187Y-28494923D01*
X8619187Y-28535329D01*
X8639390Y-29323248D02*
X8396954Y-29080812D01*
X8518172Y-29202030D02*
X8942436Y-28777766D01*
X8841421Y-28797969D01*
X8760609Y-28797969D01*
X8700000Y-28777766D01*
X9205076Y-29040406D02*
X9467715Y-29303045D01*
X9164670Y-29323248D01*
X9225279Y-29383857D01*
X9245482Y-29444467D01*
X9245482Y-29484873D01*
X9225279Y-29545482D01*
X9124264Y-29646497D01*
X9063654Y-29666700D01*
X9023248Y-29666700D01*
X8962639Y-29646497D01*
X8841421Y-29525279D01*
X8821218Y-29464670D01*
X8821218Y-29424264D01*
%TO.C,U5*%
X8778571Y-52942857D02*
X8292857Y-52942857D01*
X8235714Y-52971428D01*
X8207142Y-53000000D01*
X8178571Y-53057142D01*
X8178571Y-53171428D01*
X8207142Y-53228571D01*
X8235714Y-53257142D01*
X8292857Y-53285714D01*
X8778571Y-53285714D01*
X8778571Y-53857142D02*
X8778571Y-53571428D01*
X8492857Y-53542857D01*
X8521428Y-53571428D01*
X8550000Y-53628571D01*
X8550000Y-53771428D01*
X8521428Y-53828571D01*
X8492857Y-53857142D01*
X8435714Y-53885714D01*
X8292857Y-53885714D01*
X8235714Y-53857142D01*
X8207142Y-53828571D01*
X8178571Y-53771428D01*
X8178571Y-53628571D01*
X8207142Y-53571428D01*
X8235714Y-53542857D01*
%TO.C,R8*%
X18300000Y-48371428D02*
X18100000Y-48085714D01*
X17957142Y-48371428D02*
X17957142Y-47771428D01*
X18185714Y-47771428D01*
X18242857Y-47800000D01*
X18271428Y-47828571D01*
X18300000Y-47885714D01*
X18300000Y-47971428D01*
X18271428Y-48028571D01*
X18242857Y-48057142D01*
X18185714Y-48085714D01*
X17957142Y-48085714D01*
X18642857Y-48028571D02*
X18585714Y-48000000D01*
X18557142Y-47971428D01*
X18528571Y-47914285D01*
X18528571Y-47885714D01*
X18557142Y-47828571D01*
X18585714Y-47800000D01*
X18642857Y-47771428D01*
X18757142Y-47771428D01*
X18814285Y-47800000D01*
X18842857Y-47828571D01*
X18871428Y-47885714D01*
X18871428Y-47914285D01*
X18842857Y-47971428D01*
X18814285Y-48000000D01*
X18757142Y-48028571D01*
X18642857Y-48028571D01*
X18585714Y-48057142D01*
X18557142Y-48085714D01*
X18528571Y-48142857D01*
X18528571Y-48257142D01*
X18557142Y-48314285D01*
X18585714Y-48342857D01*
X18642857Y-48371428D01*
X18757142Y-48371428D01*
X18814285Y-48342857D01*
X18842857Y-48314285D01*
X18871428Y-48257142D01*
X18871428Y-48142857D01*
X18842857Y-48085714D01*
X18814285Y-48057142D01*
X18757142Y-48028571D01*
%TO.C,U3*%
X9342857Y-56071428D02*
X9342857Y-56557142D01*
X9371428Y-56614285D01*
X9400000Y-56642857D01*
X9457142Y-56671428D01*
X9571428Y-56671428D01*
X9628571Y-56642857D01*
X9657142Y-56614285D01*
X9685714Y-56557142D01*
X9685714Y-56071428D01*
X9914285Y-56071428D02*
X10285714Y-56071428D01*
X10085714Y-56300000D01*
X10171428Y-56300000D01*
X10228571Y-56328571D01*
X10257142Y-56357142D01*
X10285714Y-56414285D01*
X10285714Y-56557142D01*
X10257142Y-56614285D01*
X10228571Y-56642857D01*
X10171428Y-56671428D01*
X10000000Y-56671428D01*
X9942857Y-56642857D01*
X9914285Y-56614285D01*
%TO.C,U1*%
X2242857Y-16971428D02*
X2242857Y-17457142D01*
X2271428Y-17514285D01*
X2300000Y-17542857D01*
X2357142Y-17571428D01*
X2471428Y-17571428D01*
X2528571Y-17542857D01*
X2557142Y-17514285D01*
X2585714Y-17457142D01*
X2585714Y-16971428D01*
X3185714Y-17571428D02*
X2842857Y-17571428D01*
X3014285Y-17571428D02*
X3014285Y-16971428D01*
X2957142Y-17057142D01*
X2900000Y-17114285D01*
X2842857Y-17142857D01*
%TO.C,C11*%
X9878781Y-47324264D02*
X9878781Y-47364670D01*
X9838375Y-47445482D01*
X9797969Y-47485888D01*
X9717157Y-47526294D01*
X9636345Y-47526294D01*
X9575735Y-47506091D01*
X9474720Y-47445482D01*
X9414111Y-47384873D01*
X9353502Y-47283857D01*
X9333299Y-47223248D01*
X9333299Y-47142436D01*
X9373705Y-47061624D01*
X9414111Y-47021218D01*
X9494923Y-46980812D01*
X9535329Y-46980812D01*
X10323248Y-46960609D02*
X10080812Y-47203045D01*
X10202030Y-47081827D02*
X9777766Y-46657563D01*
X9797969Y-46758578D01*
X9797969Y-46839390D01*
X9777766Y-46900000D01*
X10727309Y-46556548D02*
X10484873Y-46798984D01*
X10606091Y-46677766D02*
X10181827Y-46253502D01*
X10202030Y-46354517D01*
X10202030Y-46435329D01*
X10181827Y-46495938D01*
%TO.C,C14*%
X9375735Y-27778781D02*
X9335329Y-27778781D01*
X9254517Y-27738375D01*
X9214111Y-27697969D01*
X9173705Y-27617157D01*
X9173705Y-27536345D01*
X9193908Y-27475735D01*
X9254517Y-27374720D01*
X9315126Y-27314111D01*
X9416142Y-27253502D01*
X9476751Y-27233299D01*
X9557563Y-27233299D01*
X9638375Y-27273705D01*
X9678781Y-27314111D01*
X9719187Y-27394923D01*
X9719187Y-27435329D01*
X9739390Y-28223248D02*
X9496954Y-27980812D01*
X9618172Y-28102030D02*
X10042436Y-27677766D01*
X9941421Y-27697969D01*
X9860609Y-27697969D01*
X9800000Y-27677766D01*
X10385888Y-28304061D02*
X10103045Y-28586903D01*
X10446497Y-28041421D02*
X10042436Y-28243451D01*
X10305076Y-28506091D01*
%TO.C,D3*%
X17857142Y-56621428D02*
X17857142Y-56021428D01*
X18000000Y-56021428D01*
X18085714Y-56050000D01*
X18142857Y-56107142D01*
X18171428Y-56164285D01*
X18200000Y-56278571D01*
X18200000Y-56364285D01*
X18171428Y-56478571D01*
X18142857Y-56535714D01*
X18085714Y-56592857D01*
X18000000Y-56621428D01*
X17857142Y-56621428D01*
X18400000Y-56021428D02*
X18771428Y-56021428D01*
X18571428Y-56250000D01*
X18657142Y-56250000D01*
X18714285Y-56278571D01*
X18742857Y-56307142D01*
X18771428Y-56364285D01*
X18771428Y-56507142D01*
X18742857Y-56564285D01*
X18714285Y-56592857D01*
X18657142Y-56621428D01*
X18485714Y-56621428D01*
X18428571Y-56592857D01*
X18400000Y-56564285D01*
%TO.C,C18*%
X23641936Y-28983435D02*
X23641936Y-29023841D01*
X23601530Y-29104653D01*
X23561124Y-29145059D01*
X23480312Y-29185465D01*
X23399500Y-29185465D01*
X23338890Y-29165262D01*
X23237875Y-29104653D01*
X23177266Y-29044044D01*
X23116657Y-28943028D01*
X23096454Y-28882419D01*
X23096454Y-28801607D01*
X23136860Y-28720795D01*
X23177266Y-28680389D01*
X23258078Y-28639983D01*
X23298484Y-28639983D01*
X24086403Y-28619780D02*
X23843967Y-28862216D01*
X23965185Y-28740998D02*
X23540921Y-28316734D01*
X23561124Y-28417749D01*
X23561124Y-28498561D01*
X23540921Y-28559171D01*
X24086403Y-28134906D02*
X24025794Y-28155109D01*
X23985388Y-28155109D01*
X23924779Y-28134906D01*
X23904576Y-28114703D01*
X23884373Y-28054094D01*
X23884373Y-28013688D01*
X23904576Y-27953079D01*
X23985388Y-27872267D01*
X24045997Y-27852064D01*
X24086403Y-27852064D01*
X24147012Y-27872267D01*
X24167216Y-27892470D01*
X24187419Y-27953079D01*
X24187419Y-27993485D01*
X24167216Y-28054094D01*
X24086403Y-28134906D01*
X24066200Y-28195516D01*
X24066200Y-28235922D01*
X24086403Y-28296531D01*
X24167216Y-28377343D01*
X24227825Y-28397546D01*
X24268231Y-28397546D01*
X24328840Y-28377343D01*
X24409652Y-28296531D01*
X24429855Y-28235922D01*
X24429855Y-28195516D01*
X24409652Y-28134906D01*
X24328840Y-28054094D01*
X24268231Y-28033891D01*
X24227825Y-28033891D01*
X24167216Y-28054094D01*
%TO.C,FB3*%
X24876751Y-45066142D02*
X24735329Y-44924720D01*
X24513096Y-45146954D02*
X24937360Y-44722690D01*
X25139390Y-44924720D01*
X25240406Y-45429796D02*
X25280812Y-45510609D01*
X25280812Y-45551015D01*
X25260609Y-45611624D01*
X25200000Y-45672233D01*
X25139390Y-45692436D01*
X25098984Y-45692436D01*
X25038375Y-45672233D01*
X24876751Y-45510609D01*
X25301015Y-45086345D01*
X25442436Y-45227766D01*
X25462639Y-45288375D01*
X25462639Y-45328781D01*
X25442436Y-45389390D01*
X25402030Y-45429796D01*
X25341421Y-45450000D01*
X25301015Y-45450000D01*
X25240406Y-45429796D01*
X25098984Y-45288375D01*
X25684873Y-45470203D02*
X25947512Y-45732842D01*
X25644467Y-45753045D01*
X25705076Y-45813654D01*
X25725279Y-45874264D01*
X25725279Y-45914670D01*
X25705076Y-45975279D01*
X25604061Y-46076294D01*
X25543451Y-46096497D01*
X25503045Y-46096497D01*
X25442436Y-46076294D01*
X25321218Y-45955076D01*
X25301015Y-45894467D01*
X25301015Y-45854061D01*
%TO.C,R6*%
X11937360Y-26121218D02*
X11997969Y-25777766D01*
X11694923Y-25878781D02*
X12119187Y-25454517D01*
X12280812Y-25616142D01*
X12301015Y-25676751D01*
X12301015Y-25717157D01*
X12280812Y-25777766D01*
X12220203Y-25838375D01*
X12159593Y-25858578D01*
X12119187Y-25858578D01*
X12058578Y-25838375D01*
X11896954Y-25676751D01*
X12725279Y-26060609D02*
X12644467Y-25979796D01*
X12583857Y-25959593D01*
X12543451Y-25959593D01*
X12442436Y-25979796D01*
X12341421Y-26040406D01*
X12179796Y-26202030D01*
X12159593Y-26262639D01*
X12159593Y-26303045D01*
X12179796Y-26363654D01*
X12260609Y-26444467D01*
X12321218Y-26464670D01*
X12361624Y-26464670D01*
X12422233Y-26444467D01*
X12523248Y-26343451D01*
X12543451Y-26282842D01*
X12543451Y-26242436D01*
X12523248Y-26181827D01*
X12442436Y-26101015D01*
X12381827Y-26080812D01*
X12341421Y-26080812D01*
X12280812Y-26101015D01*
%TO.C,R10*%
X26835329Y-43369187D02*
X26895938Y-43025735D01*
X26592893Y-43126751D02*
X27017157Y-42702487D01*
X27178781Y-42864111D01*
X27198984Y-42924720D01*
X27198984Y-42965126D01*
X27178781Y-43025735D01*
X27118172Y-43086345D01*
X27057563Y-43106548D01*
X27017157Y-43106548D01*
X26956548Y-43086345D01*
X26794923Y-42924720D01*
X27239390Y-43773248D02*
X26996954Y-43530812D01*
X27118172Y-43652030D02*
X27542436Y-43227766D01*
X27441421Y-43247969D01*
X27360609Y-43247969D01*
X27300000Y-43227766D01*
X27926294Y-43611624D02*
X27966700Y-43652030D01*
X27986903Y-43712639D01*
X27986903Y-43753045D01*
X27966700Y-43813654D01*
X27906091Y-43914670D01*
X27805076Y-44015685D01*
X27704061Y-44076294D01*
X27643451Y-44096497D01*
X27603045Y-44096497D01*
X27542436Y-44076294D01*
X27502030Y-44035888D01*
X27481827Y-43975279D01*
X27481827Y-43934873D01*
X27502030Y-43874264D01*
X27562639Y-43773248D01*
X27663654Y-43672233D01*
X27764670Y-43611624D01*
X27825279Y-43591421D01*
X27865685Y-43591421D01*
X27926294Y-43611624D01*
%TO.C,C12*%
X6278781Y-43824264D02*
X6278781Y-43864670D01*
X6238375Y-43945482D01*
X6197969Y-43985888D01*
X6117157Y-44026294D01*
X6036345Y-44026294D01*
X5975735Y-44006091D01*
X5874720Y-43945482D01*
X5814111Y-43884873D01*
X5753502Y-43783857D01*
X5733299Y-43723248D01*
X5733299Y-43642436D01*
X5773705Y-43561624D01*
X5814111Y-43521218D01*
X5894923Y-43480812D01*
X5935329Y-43480812D01*
X6723248Y-43460609D02*
X6480812Y-43703045D01*
X6602030Y-43581827D02*
X6177766Y-43157563D01*
X6197969Y-43258578D01*
X6197969Y-43339390D01*
X6177766Y-43400000D01*
X6501015Y-42915126D02*
X6501015Y-42874720D01*
X6521218Y-42814111D01*
X6622233Y-42713096D01*
X6682842Y-42692893D01*
X6723248Y-42692893D01*
X6783857Y-42713096D01*
X6824264Y-42753502D01*
X6864670Y-42834314D01*
X6864670Y-43319187D01*
X7127309Y-43056548D01*
%TO.C,D4*%
X25228781Y-39805076D02*
X24804517Y-39380812D01*
X24905532Y-39279796D01*
X24986345Y-39239390D01*
X25067157Y-39239390D01*
X25127766Y-39259593D01*
X25228781Y-39320203D01*
X25289390Y-39380812D01*
X25350000Y-39481827D01*
X25370203Y-39542436D01*
X25370203Y-39623248D01*
X25329796Y-39704061D01*
X25228781Y-39805076D01*
X25552030Y-38916142D02*
X25834873Y-39198984D01*
X25289390Y-38855532D02*
X25491421Y-39259593D01*
X25754061Y-38996954D01*
%TO.C,C6*%
X4700000Y-47564285D02*
X4671428Y-47592857D01*
X4585714Y-47621428D01*
X4528571Y-47621428D01*
X4442857Y-47592857D01*
X4385714Y-47535714D01*
X4357142Y-47478571D01*
X4328571Y-47364285D01*
X4328571Y-47278571D01*
X4357142Y-47164285D01*
X4385714Y-47107142D01*
X4442857Y-47050000D01*
X4528571Y-47021428D01*
X4585714Y-47021428D01*
X4671428Y-47050000D01*
X4700000Y-47078571D01*
X5214285Y-47021428D02*
X5100000Y-47021428D01*
X5042857Y-47050000D01*
X5014285Y-47078571D01*
X4957142Y-47164285D01*
X4928571Y-47278571D01*
X4928571Y-47507142D01*
X4957142Y-47564285D01*
X4985714Y-47592857D01*
X5042857Y-47621428D01*
X5157142Y-47621428D01*
X5214285Y-47592857D01*
X5242857Y-47564285D01*
X5271428Y-47507142D01*
X5271428Y-47364285D01*
X5242857Y-47307142D01*
X5214285Y-47278571D01*
X5157142Y-47250000D01*
X5042857Y-47250000D01*
X4985714Y-47278571D01*
X4957142Y-47307142D01*
X4928571Y-47364285D01*
%TO.C,FB4*%
X20304979Y-25812085D02*
X20163557Y-25953507D01*
X20385791Y-26175740D02*
X19961527Y-25751476D01*
X20163557Y-25549446D01*
X20668633Y-25448430D02*
X20749446Y-25408024D01*
X20789852Y-25408024D01*
X20850461Y-25428227D01*
X20911070Y-25488837D01*
X20931273Y-25549446D01*
X20931273Y-25589852D01*
X20911070Y-25650461D01*
X20749446Y-25812085D01*
X20325182Y-25387821D01*
X20466603Y-25246400D01*
X20527212Y-25226197D01*
X20567618Y-25226197D01*
X20628227Y-25246400D01*
X20668633Y-25286806D01*
X20688837Y-25347415D01*
X20688837Y-25387821D01*
X20668633Y-25448430D01*
X20527212Y-25589852D01*
X21072694Y-24923151D02*
X21355537Y-25205994D01*
X20810055Y-24862542D02*
X21012085Y-25266603D01*
X21274725Y-25003963D01*
%TO.C,JP1*%
X-2278000Y-34571428D02*
X-2278000Y-35000000D01*
X-2306572Y-35085714D01*
X-2363715Y-35142857D01*
X-2449429Y-35171428D01*
X-2506572Y-35171428D01*
X-1992286Y-35171428D02*
X-1992286Y-34571428D01*
X-1763715Y-34571428D01*
X-1706572Y-34600000D01*
X-1678000Y-34628571D01*
X-1649429Y-34685714D01*
X-1649429Y-34771428D01*
X-1678000Y-34828571D01*
X-1706572Y-34857142D01*
X-1763715Y-34885714D01*
X-1992286Y-34885714D01*
X-1078000Y-35171428D02*
X-1420858Y-35171428D01*
X-1249429Y-35171428D02*
X-1249429Y-34571428D01*
X-1306572Y-34657142D01*
X-1363715Y-34714285D01*
X-1420858Y-34742857D01*
%TO.C,R2*%
X6600000Y-30571428D02*
X6400000Y-30285714D01*
X6257142Y-30571428D02*
X6257142Y-29971428D01*
X6485714Y-29971428D01*
X6542857Y-30000000D01*
X6571428Y-30028571D01*
X6600000Y-30085714D01*
X6600000Y-30171428D01*
X6571428Y-30228571D01*
X6542857Y-30257142D01*
X6485714Y-30285714D01*
X6257142Y-30285714D01*
X6828571Y-30028571D02*
X6857142Y-30000000D01*
X6914285Y-29971428D01*
X7057142Y-29971428D01*
X7114285Y-30000000D01*
X7142857Y-30028571D01*
X7171428Y-30085714D01*
X7171428Y-30142857D01*
X7142857Y-30228571D01*
X6800000Y-30571428D01*
X7171428Y-30571428D01*
%TO.C,R5*%
X10837360Y-27221218D02*
X10897969Y-26877766D01*
X10594923Y-26978781D02*
X11019187Y-26554517D01*
X11180812Y-26716142D01*
X11201015Y-26776751D01*
X11201015Y-26817157D01*
X11180812Y-26877766D01*
X11120203Y-26938375D01*
X11059593Y-26958578D01*
X11019187Y-26958578D01*
X10958578Y-26938375D01*
X10796954Y-26776751D01*
X11645482Y-27180812D02*
X11443451Y-26978781D01*
X11221218Y-27160609D01*
X11261624Y-27160609D01*
X11322233Y-27180812D01*
X11423248Y-27281827D01*
X11443451Y-27342436D01*
X11443451Y-27382842D01*
X11423248Y-27443451D01*
X11322233Y-27544467D01*
X11261624Y-27564670D01*
X11221218Y-27564670D01*
X11160609Y-27544467D01*
X11059593Y-27443451D01*
X11039390Y-27382842D01*
X11039390Y-27342436D01*
%TO.C,J1*%
X-3450000Y-19621428D02*
X-3450000Y-20050000D01*
X-3478572Y-20135714D01*
X-3535715Y-20192857D01*
X-3621429Y-20221428D01*
X-3678572Y-20221428D01*
X-2850000Y-20221428D02*
X-3192858Y-20221428D01*
X-3021429Y-20221428D02*
X-3021429Y-19621428D01*
X-3078572Y-19707142D01*
X-3135715Y-19764285D01*
X-3192858Y-19792857D01*
%TO.C,C4*%
X2600000Y-4114285D02*
X2571428Y-4142857D01*
X2485714Y-4171428D01*
X2428571Y-4171428D01*
X2342857Y-4142857D01*
X2285714Y-4085714D01*
X2257142Y-4028571D01*
X2228571Y-3914285D01*
X2228571Y-3828571D01*
X2257142Y-3714285D01*
X2285714Y-3657142D01*
X2342857Y-3600000D01*
X2428571Y-3571428D01*
X2485714Y-3571428D01*
X2571428Y-3600000D01*
X2600000Y-3628571D01*
X3114285Y-3771428D02*
X3114285Y-4171428D01*
X2971428Y-3542857D02*
X2828571Y-3971428D01*
X3200000Y-3971428D01*
%TO.C,H4*%
X35542857Y-60071428D02*
X35542857Y-59471428D01*
X35542857Y-59757142D02*
X35885714Y-59757142D01*
X35885714Y-60071428D02*
X35885714Y-59471428D01*
X36428571Y-59671428D02*
X36428571Y-60071428D01*
X36285714Y-59442857D02*
X36142857Y-59871428D01*
X36514285Y-59871428D01*
%TO.C,U2*%
X23177032Y-30176470D02*
X22833580Y-30519921D01*
X22813377Y-30580531D01*
X22813377Y-30620937D01*
X22833580Y-30681546D01*
X22914392Y-30762358D01*
X22975001Y-30782561D01*
X23015407Y-30782561D01*
X23076017Y-30762358D01*
X23419468Y-30418906D01*
X23560890Y-30641140D02*
X23601296Y-30641140D01*
X23661905Y-30661343D01*
X23762920Y-30762358D01*
X23783123Y-30822967D01*
X23783123Y-30863373D01*
X23762920Y-30923982D01*
X23722514Y-30964389D01*
X23641702Y-31004795D01*
X23156829Y-31004795D01*
X23419468Y-31267434D01*
%TO.C,D1*%
X6507142Y-24221428D02*
X6507142Y-23621428D01*
X6650000Y-23621428D01*
X6735714Y-23650000D01*
X6792857Y-23707142D01*
X6821428Y-23764285D01*
X6850000Y-23878571D01*
X6850000Y-23964285D01*
X6821428Y-24078571D01*
X6792857Y-24135714D01*
X6735714Y-24192857D01*
X6650000Y-24221428D01*
X6507142Y-24221428D01*
X7421428Y-24221428D02*
X7078571Y-24221428D01*
X7250000Y-24221428D02*
X7250000Y-23621428D01*
X7192857Y-23707142D01*
X7135714Y-23764285D01*
X7078571Y-23792857D01*
%TO.C,R13*%
X264285Y-40571428D02*
X64285Y-40285714D01*
X-78572Y-40571428D02*
X-78572Y-39971428D01*
X150000Y-39971428D01*
X207142Y-40000000D01*
X235714Y-40028571D01*
X264285Y-40085714D01*
X264285Y-40171428D01*
X235714Y-40228571D01*
X207142Y-40257142D01*
X150000Y-40285714D01*
X-78572Y-40285714D01*
X835714Y-40571428D02*
X492857Y-40571428D01*
X664285Y-40571428D02*
X664285Y-39971428D01*
X607142Y-40057142D01*
X550000Y-40114285D01*
X492857Y-40142857D01*
X1035714Y-39971428D02*
X1407142Y-39971428D01*
X1207142Y-40200000D01*
X1292857Y-40200000D01*
X1350000Y-40228571D01*
X1378571Y-40257142D01*
X1407142Y-40314285D01*
X1407142Y-40457142D01*
X1378571Y-40514285D01*
X1350000Y-40542857D01*
X1292857Y-40571428D01*
X1121428Y-40571428D01*
X1064285Y-40542857D01*
X1035714Y-40514285D01*
%TO.C,C8*%
X5800000Y-37064285D02*
X5771428Y-37092857D01*
X5685714Y-37121428D01*
X5628571Y-37121428D01*
X5542857Y-37092857D01*
X5485714Y-37035714D01*
X5457142Y-36978571D01*
X5428571Y-36864285D01*
X5428571Y-36778571D01*
X5457142Y-36664285D01*
X5485714Y-36607142D01*
X5542857Y-36550000D01*
X5628571Y-36521428D01*
X5685714Y-36521428D01*
X5771428Y-36550000D01*
X5800000Y-36578571D01*
X6142857Y-36778571D02*
X6085714Y-36750000D01*
X6057142Y-36721428D01*
X6028571Y-36664285D01*
X6028571Y-36635714D01*
X6057142Y-36578571D01*
X6085714Y-36550000D01*
X6142857Y-36521428D01*
X6257142Y-36521428D01*
X6314285Y-36550000D01*
X6342857Y-36578571D01*
X6371428Y-36635714D01*
X6371428Y-36664285D01*
X6342857Y-36721428D01*
X6314285Y-36750000D01*
X6257142Y-36778571D01*
X6142857Y-36778571D01*
X6085714Y-36807142D01*
X6057142Y-36835714D01*
X6028571Y-36892857D01*
X6028571Y-37007142D01*
X6057142Y-37064285D01*
X6085714Y-37092857D01*
X6142857Y-37121428D01*
X6257142Y-37121428D01*
X6314285Y-37092857D01*
X6342857Y-37064285D01*
X6371428Y-37007142D01*
X6371428Y-36892857D01*
X6342857Y-36835714D01*
X6314285Y-36807142D01*
X6257142Y-36778571D01*
%TO.C,D5*%
X2857142Y-41771428D02*
X2857142Y-41171428D01*
X3000000Y-41171428D01*
X3085714Y-41200000D01*
X3142857Y-41257142D01*
X3171428Y-41314285D01*
X3200000Y-41428571D01*
X3200000Y-41514285D01*
X3171428Y-41628571D01*
X3142857Y-41685714D01*
X3085714Y-41742857D01*
X3000000Y-41771428D01*
X2857142Y-41771428D01*
X3742857Y-41171428D02*
X3457142Y-41171428D01*
X3428571Y-41457142D01*
X3457142Y-41428571D01*
X3514285Y-41400000D01*
X3657142Y-41400000D01*
X3714285Y-41428571D01*
X3742857Y-41457142D01*
X3771428Y-41514285D01*
X3771428Y-41657142D01*
X3742857Y-41714285D01*
X3714285Y-41742857D01*
X3657142Y-41771428D01*
X3514285Y-41771428D01*
X3457142Y-41742857D01*
X3428571Y-41714285D01*
%TO.C,R12*%
X25735329Y-44369187D02*
X25795938Y-44025735D01*
X25492893Y-44126751D02*
X25917157Y-43702487D01*
X26078781Y-43864111D01*
X26098984Y-43924720D01*
X26098984Y-43965126D01*
X26078781Y-44025735D01*
X26018172Y-44086345D01*
X25957563Y-44106548D01*
X25917157Y-44106548D01*
X25856548Y-44086345D01*
X25694923Y-43924720D01*
X26139390Y-44773248D02*
X25896954Y-44530812D01*
X26018172Y-44652030D02*
X26442436Y-44227766D01*
X26341421Y-44247969D01*
X26260609Y-44247969D01*
X26200000Y-44227766D01*
X26684873Y-44551015D02*
X26725279Y-44551015D01*
X26785888Y-44571218D01*
X26886903Y-44672233D01*
X26907106Y-44732842D01*
X26907106Y-44773248D01*
X26886903Y-44833857D01*
X26846497Y-44874264D01*
X26765685Y-44914670D01*
X26280812Y-44914670D01*
X26543451Y-45177309D01*
%TO.C,R3*%
X6600000Y-56671428D02*
X6400000Y-56385714D01*
X6257142Y-56671428D02*
X6257142Y-56071428D01*
X6485714Y-56071428D01*
X6542857Y-56100000D01*
X6571428Y-56128571D01*
X6600000Y-56185714D01*
X6600000Y-56271428D01*
X6571428Y-56328571D01*
X6542857Y-56357142D01*
X6485714Y-56385714D01*
X6257142Y-56385714D01*
X6800000Y-56071428D02*
X7171428Y-56071428D01*
X6971428Y-56300000D01*
X7057142Y-56300000D01*
X7114285Y-56328571D01*
X7142857Y-56357142D01*
X7171428Y-56414285D01*
X7171428Y-56557142D01*
X7142857Y-56614285D01*
X7114285Y-56642857D01*
X7057142Y-56671428D01*
X6885714Y-56671428D01*
X6828571Y-56642857D01*
X6800000Y-56614285D01*
%TO.C,F1*%
X21400000Y-7857142D02*
X21200000Y-7857142D01*
X21200000Y-8171428D02*
X21200000Y-7571428D01*
X21485714Y-7571428D01*
X22028571Y-8171428D02*
X21685714Y-8171428D01*
X21857142Y-8171428D02*
X21857142Y-7571428D01*
X21800000Y-7657142D01*
X21742857Y-7714285D01*
X21685714Y-7742857D01*
%TO.C,R15*%
X23214285Y-48371428D02*
X23014285Y-48085714D01*
X22871428Y-48371428D02*
X22871428Y-47771428D01*
X23100000Y-47771428D01*
X23157142Y-47800000D01*
X23185714Y-47828571D01*
X23214285Y-47885714D01*
X23214285Y-47971428D01*
X23185714Y-48028571D01*
X23157142Y-48057142D01*
X23100000Y-48085714D01*
X22871428Y-48085714D01*
X23785714Y-48371428D02*
X23442857Y-48371428D01*
X23614285Y-48371428D02*
X23614285Y-47771428D01*
X23557142Y-47857142D01*
X23500000Y-47914285D01*
X23442857Y-47942857D01*
X24328571Y-47771428D02*
X24042857Y-47771428D01*
X24014285Y-48057142D01*
X24042857Y-48028571D01*
X24100000Y-48000000D01*
X24242857Y-48000000D01*
X24300000Y-48028571D01*
X24328571Y-48057142D01*
X24357142Y-48114285D01*
X24357142Y-48257142D01*
X24328571Y-48314285D01*
X24300000Y-48342857D01*
X24242857Y-48371428D01*
X24100000Y-48371428D01*
X24042857Y-48342857D01*
X24014285Y-48314285D01*
%TO.C,J2*%
X-3450000Y-58771428D02*
X-3450000Y-59200000D01*
X-3478572Y-59285714D01*
X-3535715Y-59342857D01*
X-3621429Y-59371428D01*
X-3678572Y-59371428D01*
X-3192858Y-58828571D02*
X-3164286Y-58800000D01*
X-3107143Y-58771428D01*
X-2964286Y-58771428D01*
X-2907143Y-58800000D01*
X-2878572Y-58828571D01*
X-2850000Y-58885714D01*
X-2850000Y-58942857D01*
X-2878572Y-59028571D01*
X-3221429Y-59371428D01*
X-2850000Y-59371428D01*
%TO.C,H3*%
X35542857Y3928572D02*
X35542857Y4528572D01*
X35542857Y4242858D02*
X35885714Y4242858D01*
X35885714Y3928572D02*
X35885714Y4528572D01*
X36114285Y4528572D02*
X36485714Y4528572D01*
X36285714Y4300000D01*
X36371428Y4300000D01*
X36428571Y4271429D01*
X36457142Y4242858D01*
X36485714Y4185715D01*
X36485714Y4042858D01*
X36457142Y3985715D01*
X36428571Y3957143D01*
X36371428Y3928572D01*
X36200000Y3928572D01*
X36142857Y3957143D01*
X36114285Y3985715D01*
%TO.C,R14*%
X21414285Y-48371428D02*
X21214285Y-48085714D01*
X21071428Y-48371428D02*
X21071428Y-47771428D01*
X21300000Y-47771428D01*
X21357142Y-47800000D01*
X21385714Y-47828571D01*
X21414285Y-47885714D01*
X21414285Y-47971428D01*
X21385714Y-48028571D01*
X21357142Y-48057142D01*
X21300000Y-48085714D01*
X21071428Y-48085714D01*
X21985714Y-48371428D02*
X21642857Y-48371428D01*
X21814285Y-48371428D02*
X21814285Y-47771428D01*
X21757142Y-47857142D01*
X21700000Y-47914285D01*
X21642857Y-47942857D01*
X22500000Y-47971428D02*
X22500000Y-48371428D01*
X22357142Y-47742857D02*
X22214285Y-48171428D01*
X22585714Y-48171428D01*
%TO.C,D6*%
X-92858Y-38971428D02*
X-92858Y-38371428D01*
X50000Y-38371428D01*
X135714Y-38400000D01*
X192857Y-38457142D01*
X221428Y-38514285D01*
X250000Y-38628571D01*
X250000Y-38714285D01*
X221428Y-38828571D01*
X192857Y-38885714D01*
X135714Y-38942857D01*
X50000Y-38971428D01*
X-92858Y-38971428D01*
X764285Y-38371428D02*
X650000Y-38371428D01*
X592857Y-38400000D01*
X564285Y-38428571D01*
X507142Y-38514285D01*
X478571Y-38628571D01*
X478571Y-38857142D01*
X507142Y-38914285D01*
X535714Y-38942857D01*
X592857Y-38971428D01*
X707142Y-38971428D01*
X764285Y-38942857D01*
X792857Y-38914285D01*
X821428Y-38857142D01*
X821428Y-38714285D01*
X792857Y-38657142D01*
X764285Y-38628571D01*
X707142Y-38600000D01*
X592857Y-38600000D01*
X535714Y-38628571D01*
X507142Y-38657142D01*
X478571Y-38714285D01*
%TO.C,H2*%
X-457143Y-60071428D02*
X-457143Y-59471428D01*
X-457143Y-59757142D02*
X-114286Y-59757142D01*
X-114286Y-60071428D02*
X-114286Y-59471428D01*
X142857Y-59528571D02*
X171428Y-59500000D01*
X228571Y-59471428D01*
X371428Y-59471428D01*
X428571Y-59500000D01*
X457142Y-59528571D01*
X485714Y-59585714D01*
X485714Y-59642857D01*
X457142Y-59728571D01*
X114285Y-60071428D01*
X485714Y-60071428D01*
%TO.C,D7*%
X21457142Y-56671428D02*
X21457142Y-56071428D01*
X21600000Y-56071428D01*
X21685714Y-56100000D01*
X21742857Y-56157142D01*
X21771428Y-56214285D01*
X21800000Y-56328571D01*
X21800000Y-56414285D01*
X21771428Y-56528571D01*
X21742857Y-56585714D01*
X21685714Y-56642857D01*
X21600000Y-56671428D01*
X21457142Y-56671428D01*
X22000000Y-56071428D02*
X22400000Y-56071428D01*
X22142857Y-56671428D01*
%TO.C,C3*%
X0Y-4114285D02*
X-28572Y-4142857D01*
X-114286Y-4171428D01*
X-171429Y-4171428D01*
X-257143Y-4142857D01*
X-314286Y-4085714D01*
X-342858Y-4028571D01*
X-371429Y-3914285D01*
X-371429Y-3828571D01*
X-342858Y-3714285D01*
X-314286Y-3657142D01*
X-257143Y-3600000D01*
X-171429Y-3571428D01*
X-114286Y-3571428D01*
X-28572Y-3600000D01*
X0Y-3628571D01*
X200000Y-3571428D02*
X571428Y-3571428D01*
X371428Y-3800000D01*
X457142Y-3800000D01*
X514285Y-3828571D01*
X542857Y-3857142D01*
X571428Y-3914285D01*
X571428Y-4057142D01*
X542857Y-4114285D01*
X514285Y-4142857D01*
X457142Y-4171428D01*
X285714Y-4171428D01*
X228571Y-4142857D01*
X200000Y-4114285D01*
%TO.C,Y1*%
X9187867Y-40491928D02*
X9389898Y-40693959D01*
X8824213Y-40411116D02*
X9187867Y-40491928D01*
X9107055Y-40128274D01*
X9894974Y-40188883D02*
X9652538Y-40431319D01*
X9773756Y-40310101D02*
X9349492Y-39885837D01*
X9369695Y-39986852D01*
X9369695Y-40067664D01*
X9349492Y-40128274D01*
%TO.C,C17*%
X14714285Y-56564285D02*
X14685714Y-56592857D01*
X14600000Y-56621428D01*
X14542857Y-56621428D01*
X14457142Y-56592857D01*
X14400000Y-56535714D01*
X14371428Y-56478571D01*
X14342857Y-56364285D01*
X14342857Y-56278571D01*
X14371428Y-56164285D01*
X14400000Y-56107142D01*
X14457142Y-56050000D01*
X14542857Y-56021428D01*
X14600000Y-56021428D01*
X14685714Y-56050000D01*
X14714285Y-56078571D01*
X15285714Y-56621428D02*
X14942857Y-56621428D01*
X15114285Y-56621428D02*
X15114285Y-56021428D01*
X15057142Y-56107142D01*
X15000000Y-56164285D01*
X14942857Y-56192857D01*
X15485714Y-56021428D02*
X15885714Y-56021428D01*
X15628571Y-56621428D01*
%TO.C,C2*%
X7050000Y-19714285D02*
X7021428Y-19742857D01*
X6935714Y-19771428D01*
X6878571Y-19771428D01*
X6792857Y-19742857D01*
X6735714Y-19685714D01*
X6707142Y-19628571D01*
X6678571Y-19514285D01*
X6678571Y-19428571D01*
X6707142Y-19314285D01*
X6735714Y-19257142D01*
X6792857Y-19200000D01*
X6878571Y-19171428D01*
X6935714Y-19171428D01*
X7021428Y-19200000D01*
X7050000Y-19228571D01*
X7278571Y-19228571D02*
X7307142Y-19200000D01*
X7364285Y-19171428D01*
X7507142Y-19171428D01*
X7564285Y-19200000D01*
X7592857Y-19228571D01*
X7621428Y-19285714D01*
X7621428Y-19342857D01*
X7592857Y-19428571D01*
X7250000Y-19771428D01*
X7621428Y-19771428D01*
%TO.C,J3*%
X16500000Y-18071428D02*
X16500000Y-18500000D01*
X16471428Y-18585714D01*
X16414285Y-18642857D01*
X16328571Y-18671428D01*
X16271428Y-18671428D01*
X16728571Y-18071428D02*
X17100000Y-18071428D01*
X16900000Y-18300000D01*
X16985714Y-18300000D01*
X17042857Y-18328571D01*
X17071428Y-18357142D01*
X17100000Y-18414285D01*
X17100000Y-18557142D01*
X17071428Y-18614285D01*
X17042857Y-18642857D01*
X16985714Y-18671428D01*
X16814285Y-18671428D01*
X16757142Y-18642857D01*
X16728571Y-18614285D01*
%TO.C,SW2*%
X13542857Y-65800000D02*
X13571428Y-65714285D01*
X13571428Y-65571428D01*
X13542857Y-65514285D01*
X13514285Y-65485714D01*
X13457142Y-65457142D01*
X13400000Y-65457142D01*
X13342857Y-65485714D01*
X13314285Y-65514285D01*
X13285714Y-65571428D01*
X13257142Y-65685714D01*
X13228571Y-65742857D01*
X13200000Y-65771428D01*
X13142857Y-65800000D01*
X13085714Y-65800000D01*
X13028571Y-65771428D01*
X13000000Y-65742857D01*
X12971428Y-65685714D01*
X12971428Y-65542857D01*
X13000000Y-65457142D01*
X12971428Y-65257142D02*
X13571428Y-65114285D01*
X13142857Y-65000000D01*
X13571428Y-64885714D01*
X12971428Y-64742857D01*
X13028571Y-64542857D02*
X13000000Y-64514285D01*
X12971428Y-64457142D01*
X12971428Y-64314285D01*
X13000000Y-64257142D01*
X13028571Y-64228571D01*
X13085714Y-64200000D01*
X13142857Y-64200000D01*
X13228571Y-64228571D01*
X13571428Y-64571428D01*
X13571428Y-64200000D01*
%TO.C,D2*%
X16257142Y-56621428D02*
X16257142Y-56021428D01*
X16400000Y-56021428D01*
X16485714Y-56050000D01*
X16542857Y-56107142D01*
X16571428Y-56164285D01*
X16600000Y-56278571D01*
X16600000Y-56364285D01*
X16571428Y-56478571D01*
X16542857Y-56535714D01*
X16485714Y-56592857D01*
X16400000Y-56621428D01*
X16257142Y-56621428D01*
X16828571Y-56078571D02*
X16857142Y-56050000D01*
X16914285Y-56021428D01*
X17057142Y-56021428D01*
X17114285Y-56050000D01*
X17142857Y-56078571D01*
X17171428Y-56135714D01*
X17171428Y-56192857D01*
X17142857Y-56278571D01*
X16800000Y-56621428D01*
X17171428Y-56621428D01*
%TO.C,SW1*%
X22457142Y-64200000D02*
X22428571Y-64285714D01*
X22428571Y-64428571D01*
X22457142Y-64485714D01*
X22485714Y-64514285D01*
X22542857Y-64542857D01*
X22600000Y-64542857D01*
X22657142Y-64514285D01*
X22685714Y-64485714D01*
X22714285Y-64428571D01*
X22742857Y-64314285D01*
X22771428Y-64257142D01*
X22800000Y-64228571D01*
X22857142Y-64200000D01*
X22914285Y-64200000D01*
X22971428Y-64228571D01*
X23000000Y-64257142D01*
X23028571Y-64314285D01*
X23028571Y-64457142D01*
X23000000Y-64542857D01*
X23028571Y-64742857D02*
X22428571Y-64885714D01*
X22857142Y-65000000D01*
X22428571Y-65114285D01*
X23028571Y-65257142D01*
X22428571Y-65800000D02*
X22428571Y-65457142D01*
X22428571Y-65628571D02*
X23028571Y-65628571D01*
X22942857Y-65571428D01*
X22885714Y-65514285D01*
X22857142Y-65457142D01*
%TO.C,C1*%
X7100000Y-21514285D02*
X7071428Y-21542857D01*
X6985714Y-21571428D01*
X6928571Y-21571428D01*
X6842857Y-21542857D01*
X6785714Y-21485714D01*
X6757142Y-21428571D01*
X6728571Y-21314285D01*
X6728571Y-21228571D01*
X6757142Y-21114285D01*
X6785714Y-21057142D01*
X6842857Y-21000000D01*
X6928571Y-20971428D01*
X6985714Y-20971428D01*
X7071428Y-21000000D01*
X7100000Y-21028571D01*
X7671428Y-21571428D02*
X7328571Y-21571428D01*
X7500000Y-21571428D02*
X7500000Y-20971428D01*
X7442857Y-21057142D01*
X7385714Y-21114285D01*
X7328571Y-21142857D01*
%TO.C,C16*%
X7814285Y-48314285D02*
X7785714Y-48342857D01*
X7700000Y-48371428D01*
X7642857Y-48371428D01*
X7557142Y-48342857D01*
X7500000Y-48285714D01*
X7471428Y-48228571D01*
X7442857Y-48114285D01*
X7442857Y-48028571D01*
X7471428Y-47914285D01*
X7500000Y-47857142D01*
X7557142Y-47800000D01*
X7642857Y-47771428D01*
X7700000Y-47771428D01*
X7785714Y-47800000D01*
X7814285Y-47828571D01*
X8385714Y-48371428D02*
X8042857Y-48371428D01*
X8214285Y-48371428D02*
X8214285Y-47771428D01*
X8157142Y-47857142D01*
X8100000Y-47914285D01*
X8042857Y-47942857D01*
X8900000Y-47771428D02*
X8785714Y-47771428D01*
X8728571Y-47800000D01*
X8700000Y-47828571D01*
X8642857Y-47914285D01*
X8614285Y-48028571D01*
X8614285Y-48257142D01*
X8642857Y-48314285D01*
X8671428Y-48342857D01*
X8728571Y-48371428D01*
X8842857Y-48371428D01*
X8900000Y-48342857D01*
X8928571Y-48314285D01*
X8957142Y-48257142D01*
X8957142Y-48114285D01*
X8928571Y-48057142D01*
X8900000Y-48028571D01*
X8842857Y-48000000D01*
X8728571Y-48000000D01*
X8671428Y-48028571D01*
X8642857Y-48057142D01*
X8614285Y-48114285D01*
D13*
%TO.C,C5*%
X5810000Y-5809420D02*
X5810000Y-6090580D01*
X4790000Y-5809420D02*
X4790000Y-6090580D01*
%TO.C,U4*%
X6100000Y-27560000D02*
X6900000Y-27560000D01*
X6100000Y-24440000D02*
X4300000Y-24440000D01*
X6100000Y-27560000D02*
X5300000Y-27560000D01*
X6100000Y-24440000D02*
X6900000Y-24440000D01*
%TO.C,J4*%
X28348344Y-48570000D02*
X27915331Y-48820000D01*
X28809669Y-5340000D02*
X41149669Y-5340000D01*
X41149669Y-58560000D02*
X28809669Y-58560000D01*
X27915331Y-48820000D02*
X27915331Y-48320000D01*
X28809669Y-58560000D02*
X28809669Y-5340000D01*
X27915331Y-48320000D02*
X28348344Y-48570000D01*
%TO.C,D9*%
X6250000Y-49850000D02*
X3700000Y-49850000D01*
X6250000Y-51550000D02*
X6250000Y-49850000D01*
X6250000Y-51550000D02*
X3700000Y-51550000D01*
%TO.C,R16*%
X15687258Y-60927500D02*
X15212742Y-60927500D01*
X15687258Y-61972500D02*
X15212742Y-61972500D01*
%TO.C,C19*%
X5740580Y-38810000D02*
X5459420Y-38810000D01*
X5740580Y-37790000D02*
X5459420Y-37790000D01*
%TO.C,F2*%
X21858578Y-12740000D02*
X21341422Y-12740000D01*
X21858578Y-14160000D02*
X21341422Y-14160000D01*
%TO.C,C10*%
X22910030Y-44638781D02*
X22711219Y-44439970D01*
X22188781Y-45360030D02*
X21989970Y-45161219D01*
%TO.C,R11*%
X5362742Y-40322500D02*
X5837258Y-40322500D01*
X5362742Y-39277500D02*
X5837258Y-39277500D01*
%TO.C,C9*%
X14200630Y-26700559D02*
X14399441Y-26899370D01*
X14921879Y-25979310D02*
X15120690Y-26178121D01*
%TO.C,C7*%
X7859420Y-34790000D02*
X8140580Y-34790000D01*
X7859420Y-35810000D02*
X8140580Y-35810000D01*
%TO.C,R7*%
X16177500Y-50237258D02*
X16177500Y-49762742D01*
X17222500Y-50237258D02*
X17222500Y-49762742D01*
%TO.C,D8*%
X22765000Y-53600000D02*
X22765000Y-55885000D01*
X22765000Y-55885000D02*
X24235000Y-55885000D01*
X24235000Y-55885000D02*
X24235000Y-53600000D01*
%TO.C,C15*%
X15710000Y-50140580D02*
X15710000Y-49859420D01*
X14690000Y-50140580D02*
X14690000Y-49859420D01*
%TO.C,C20*%
X25839970Y-32561219D02*
X26038781Y-32760030D01*
X26561219Y-31839970D02*
X26760030Y-32038781D01*
%TO.C,R9*%
X20262742Y-60927500D02*
X20737258Y-60927500D01*
X20262742Y-61972500D02*
X20737258Y-61972500D01*
%TO.C,R4*%
X4837258Y-57377500D02*
X4362742Y-57377500D01*
X4837258Y-58422500D02*
X4362742Y-58422500D01*
%TO.C,R1*%
X4362742Y-29322500D02*
X4837258Y-29322500D01*
X4362742Y-28277500D02*
X4837258Y-28277500D01*
%TO.C,C13*%
X9957989Y-30943200D02*
X10156800Y-31142011D01*
X10679238Y-30221951D02*
X10878049Y-30420762D01*
%TO.C,U5*%
X6000000Y-54960000D02*
X5200000Y-54960000D01*
X6000000Y-54960000D02*
X6800000Y-54960000D01*
X6000000Y-51840000D02*
X6800000Y-51840000D01*
X6000000Y-51840000D02*
X4200000Y-51840000D01*
%TO.C,R8*%
X17777500Y-50237258D02*
X17777500Y-49762742D01*
X18822500Y-50237258D02*
X18822500Y-49762742D01*
%TO.C,U3*%
X14260000Y-52200000D02*
X14260000Y-50250000D01*
X9140000Y-52200000D02*
X9140000Y-50250000D01*
X14260000Y-52200000D02*
X14260000Y-54150000D01*
X9140000Y-52200000D02*
X9140000Y-55650000D01*
%TO.C,U1*%
X-710000Y-16500000D02*
X-710000Y-10490000D01*
X-710000Y-10490000D02*
X550000Y-10490000D01*
X6110000Y-10490000D02*
X4850000Y-10490000D01*
X6110000Y-14250000D02*
X6110000Y-10490000D01*
%TO.C,C11*%
X9312437Y-45087978D02*
X9113626Y-45286789D01*
X10033686Y-45809227D02*
X9834875Y-46008038D01*
%TO.C,C14*%
X11018649Y-29882540D02*
X11217460Y-30081351D01*
X11739898Y-29161291D02*
X11938709Y-29360102D01*
%TO.C,D3*%
X17565000Y-52915000D02*
X17565000Y-55200000D01*
X19035000Y-52915000D02*
X17565000Y-52915000D01*
X19035000Y-55200000D02*
X19035000Y-52915000D01*
%TO.C,C18*%
X23212022Y-27809227D02*
X23013211Y-28008038D01*
X22490773Y-27087978D02*
X22291962Y-27286789D01*
%TO.C,FB3*%
X23024273Y-44095522D02*
X23254478Y-44325727D01*
X23745522Y-43374273D02*
X23975727Y-43604478D01*
%TO.C,R6*%
X13398303Y-28037230D02*
X13062770Y-27701697D01*
X14137230Y-27298303D02*
X13801697Y-26962770D01*
%TO.C,R10*%
X25398303Y-42287230D02*
X25062770Y-41951697D01*
X26137230Y-41548303D02*
X25801697Y-41212770D01*
%TO.C,C12*%
X8195210Y-43970752D02*
X7996399Y-44169563D01*
X7473961Y-43249503D02*
X7275150Y-43448314D01*
%TO.C,D4*%
X25614591Y-40604038D02*
X27230330Y-42219777D01*
X28269777Y-41180330D02*
X26654038Y-39564591D01*
X27230330Y-42219777D02*
X28269777Y-41180330D01*
%TO.C,C6*%
X4538748Y-49485000D02*
X5061252Y-49485000D01*
X4538748Y-48015000D02*
X5061252Y-48015000D01*
%TO.C,FB4*%
X21945522Y-26975727D02*
X22175727Y-26745522D01*
X21224273Y-26254478D02*
X21454478Y-26024273D01*
%TO.C,JP1*%
X-2478000Y-35576000D02*
X-1078000Y-35576000D01*
X-378000Y-36276000D02*
X-378000Y-36876000D01*
X-3178000Y-36876000D02*
X-3178000Y-36276000D01*
X-1078000Y-37576000D02*
X-2478000Y-37576000D01*
X-2478000Y-35576000D02*
G75*
G03*
X-3178000Y-36276000I0J-700000D01*
G01*
X-378000Y-36276000D02*
G75*
G03*
X-1078000Y-35576000I-699999J1D01*
G01*
X-1078000Y-37576000D02*
G75*
G03*
X-378000Y-36876000I1J699999D01*
G01*
X-3178000Y-36876000D02*
G75*
G03*
X-2478000Y-37576000I700000J0D01*
G01*
%TO.C,R2*%
X4837258Y-30822500D02*
X4362742Y-30822500D01*
X4837258Y-29777500D02*
X4362742Y-29777500D01*
%TO.C,R5*%
X13076569Y-28358964D02*
X12741036Y-28023431D01*
X12337642Y-29097891D02*
X12002109Y-28762358D01*
%TO.C,J1*%
X-4200000Y-30380000D02*
X-6100000Y-30380000D01*
X-6100000Y-20980000D02*
X-6100000Y-30380000D01*
X-300000Y-30380000D02*
X-2300000Y-30380000D01*
X-4200000Y-20980000D02*
X-6100000Y-20980000D01*
X-300000Y-20980000D02*
X-2300000Y-20980000D01*
%TO.C,C4*%
X2190000Y-5809420D02*
X2190000Y-6090580D01*
X3210000Y-5809420D02*
X3210000Y-6090580D01*
D10*
%TO.C,U2*%
X18000000Y-28681445D02*
X17593414Y-29088031D01*
X10681445Y-36000000D02*
X11158742Y-36477297D01*
X25318555Y-36000000D02*
X24841258Y-35522703D01*
X10681445Y-36000000D02*
X11158742Y-35522703D01*
X18000000Y-43318555D02*
X18477297Y-42841258D01*
X25318555Y-36000000D02*
X24841258Y-36477297D01*
X18000000Y-43318555D02*
X17522703Y-42841258D01*
X17593414Y-29088031D02*
X16691852Y-28186470D01*
X18000000Y-28681445D02*
X18477297Y-29158742D01*
D13*
%TO.C,D1*%
X6300000Y-24100000D02*
X3750000Y-24100000D01*
X6300000Y-24100000D02*
X6300000Y-22400000D01*
X6300000Y-22400000D02*
X3750000Y-22400000D01*
%TO.C,R13*%
X-1540742Y-40798500D02*
X-2015258Y-40798500D01*
X-1540742Y-39753500D02*
X-2015258Y-39753500D01*
%TO.C,C8*%
X7859420Y-37310000D02*
X8140580Y-37310000D01*
X7859420Y-36290000D02*
X8140580Y-36290000D01*
%TO.C,D5*%
X4000000Y-40650000D02*
X6550000Y-40650000D01*
X4000000Y-40650000D02*
X4000000Y-42350000D01*
X4000000Y-42350000D02*
X6550000Y-42350000D01*
%TO.C,R12*%
X24012770Y-43001697D02*
X24348303Y-43337230D01*
X24751697Y-42262770D02*
X25087230Y-42598303D01*
%TO.C,R3*%
X4362742Y-56922500D02*
X4837258Y-56922500D01*
X4362742Y-55877500D02*
X4837258Y-55877500D01*
%TO.C,F1*%
X21858578Y-9960000D02*
X21341422Y-9960000D01*
X21858578Y-8540000D02*
X21341422Y-8540000D01*
%TO.C,R15*%
X22977500Y-50237258D02*
X22977500Y-49762742D01*
X24022500Y-50237258D02*
X24022500Y-49762742D01*
%TO.C,J2*%
X-300000Y-58000000D02*
X-2300000Y-58000000D01*
X-4200000Y-58000000D02*
X-6100000Y-58000000D01*
X-6100000Y-48600000D02*
X-6100000Y-58000000D01*
X-300000Y-48600000D02*
X-2300000Y-48600000D01*
X-4200000Y-48600000D02*
X-6100000Y-48600000D01*
%TO.C,R14*%
X21377500Y-50237258D02*
X21377500Y-49762742D01*
X22422500Y-50237258D02*
X22422500Y-49762742D01*
%TO.C,D6*%
X-293000Y-39411000D02*
X-293000Y-37941000D01*
X-2578000Y-39411000D02*
X-293000Y-39411000D01*
X-293000Y-37941000D02*
X-2578000Y-37941000D01*
%TO.C,D7*%
X21165000Y-53600000D02*
X21165000Y-55885000D01*
X21165000Y-55885000D02*
X22635000Y-55885000D01*
X22635000Y-55885000D02*
X22635000Y-53600000D01*
%TO.C,C3*%
X835000Y-5738748D02*
X835000Y-6261252D01*
X-635000Y-5738748D02*
X-635000Y-6261252D01*
%TO.C,Y1*%
X11447487Y-44664125D02*
X13780940Y-42330672D01*
X13780940Y-42330672D02*
X10952513Y-39502245D01*
%TO.C,C17*%
X15710000Y-54540580D02*
X15710000Y-54259420D01*
X14690000Y-54540580D02*
X14690000Y-54259420D01*
%TO.C,C2*%
X4909420Y-20010000D02*
X5190580Y-20010000D01*
X4909420Y-18990000D02*
X5190580Y-18990000D01*
%TO.C,J3*%
X11120000Y-24500000D02*
X26120000Y-24500000D01*
X26120000Y-24500000D02*
X26120000Y4500000D01*
X11120000Y4500000D02*
X11120000Y-24500000D01*
X26120000Y-2380000D02*
X11120000Y-2380000D01*
X26120000Y4500000D02*
X11120000Y4500000D01*
%TO.C,SW2*%
X13930000Y-62930000D02*
X14230000Y-62930000D01*
X16770000Y-62930000D02*
X17070000Y-62930000D01*
X13930000Y-67070000D02*
X13930000Y-62930000D01*
X14230000Y-67070000D02*
X13930000Y-67070000D01*
X17070000Y-67070000D02*
X16770000Y-67070000D01*
X17070000Y-62930000D02*
X17070000Y-67070000D01*
%TO.C,D2*%
X15965000Y-52915000D02*
X15965000Y-55200000D01*
X17435000Y-52915000D02*
X15965000Y-52915000D01*
X17435000Y-55200000D02*
X17435000Y-52915000D01*
%TO.C,SW1*%
X18930000Y-62930000D02*
X19230000Y-62930000D01*
X22070000Y-67070000D02*
X21770000Y-67070000D01*
X19230000Y-67070000D02*
X18930000Y-67070000D01*
X22070000Y-62930000D02*
X22070000Y-67070000D01*
X21770000Y-62930000D02*
X22070000Y-62930000D01*
X18930000Y-67070000D02*
X18930000Y-62930000D01*
%TO.C,C1*%
X4638748Y-20565000D02*
X5161252Y-20565000D01*
X4638748Y-22035000D02*
X5161252Y-22035000D01*
%TO.C,C16*%
X8710000Y-50140580D02*
X8710000Y-49859420D01*
X7690000Y-50140580D02*
X7690000Y-49859420D01*
%TD*%
%LPC*%
D14*
%TO.C,C5*%
X5300000Y-5175000D03*
X5300000Y-6725000D03*
%TD*%
D15*
%TO.C,U4*%
X4962500Y-25050000D03*
X4962500Y-26000000D03*
X4962500Y-26950000D03*
X7237500Y-26950000D03*
X7237500Y-26000000D03*
X7237500Y-25050000D03*
%TD*%
D16*
%TO.C,J4*%
X32089669Y-55500000D03*
X32089669Y-8400000D03*
D17*
X30669669Y-48570000D03*
D18*
X30669669Y-45800000D03*
X30669669Y-43030000D03*
X30669669Y-40260000D03*
X30669669Y-37490000D03*
X30669669Y-34720000D03*
X30669669Y-31950000D03*
X30669669Y-29180000D03*
X30669669Y-26410000D03*
X30669669Y-23640000D03*
X30669669Y-20870000D03*
X30669669Y-18100000D03*
X30669669Y-15330000D03*
X33509669Y-47185000D03*
X33509669Y-44415000D03*
X33509669Y-41645000D03*
X33509669Y-38875000D03*
X33509669Y-36105000D03*
X33509669Y-33335000D03*
X33509669Y-30565000D03*
X33509669Y-27795000D03*
X33509669Y-25025000D03*
X33509669Y-22255000D03*
X33509669Y-19485000D03*
X33509669Y-16715000D03*
%TD*%
D19*
%TO.C,D9*%
X5800000Y-50700000D03*
X3700000Y-50700000D03*
%TD*%
D20*
%TO.C,R16*%
X16275000Y-61450000D03*
X14625000Y-61450000D03*
%TD*%
D21*
%TO.C,C19*%
X6375000Y-38300000D03*
X4825000Y-38300000D03*
%TD*%
D22*
%TO.C,F2*%
X22537500Y-13450000D03*
X20662500Y-13450000D03*
%TD*%
D23*
%TO.C,C10*%
X22998008Y-45448008D03*
X21901992Y-44351992D03*
%TD*%
D24*
%TO.C,R11*%
X4775000Y-39800000D03*
X6425000Y-39800000D03*
%TD*%
D25*
%TO.C,C9*%
X14112652Y-25891332D03*
X15208668Y-26987348D03*
%TD*%
D26*
%TO.C,C7*%
X7225000Y-35300000D03*
X8775000Y-35300000D03*
%TD*%
D27*
%TO.C,R7*%
X16700000Y-50825000D03*
X16700000Y-49175000D03*
%TD*%
D28*
%TO.C,D8*%
X23500000Y-55187500D03*
X23500000Y-53612500D03*
%TD*%
D29*
%TO.C,C15*%
X15200000Y-50775000D03*
X15200000Y-49225000D03*
%TD*%
D25*
%TO.C,C20*%
X25751992Y-31751992D03*
X26848008Y-32848008D03*
%TD*%
D24*
%TO.C,R9*%
X19675000Y-61450000D03*
X21325000Y-61450000D03*
%TD*%
D20*
%TO.C,R4*%
X5425000Y-57900000D03*
X3775000Y-57900000D03*
%TD*%
D30*
%TO.C,H1*%
X1697056Y1697056D03*
X-1697056Y1697056D03*
X1697056Y-1697056D03*
X0Y2400000D03*
X2400000Y0D03*
X-2400000Y0D03*
D31*
X0Y0D03*
D30*
X0Y-2400000D03*
X-1697056Y-1697056D03*
%TD*%
D24*
%TO.C,R1*%
X3775000Y-28800000D03*
X5425000Y-28800000D03*
%TD*%
D25*
%TO.C,C13*%
X9870011Y-30133973D03*
X10966027Y-31229989D03*
%TD*%
D15*
%TO.C,U5*%
X4862500Y-52450000D03*
X4862500Y-53400000D03*
X4862500Y-54350000D03*
X7137500Y-54350000D03*
X7137500Y-53400000D03*
X7137500Y-52450000D03*
%TD*%
D27*
%TO.C,R8*%
X18300000Y-50825000D03*
X18300000Y-49175000D03*
%TD*%
D32*
%TO.C,U3*%
X9795000Y-54675000D03*
X11065000Y-54675000D03*
X12335000Y-54675000D03*
X13605000Y-54675000D03*
X13605000Y-49725000D03*
X12335000Y-49725000D03*
X11065000Y-49725000D03*
X9795000Y-49725000D03*
%TD*%
D33*
%TO.C,U1*%
X400000Y-15550000D03*
X2700000Y-15550000D03*
D34*
X2700000Y-9250000D03*
D33*
X5000000Y-15550000D03*
%TD*%
D35*
%TO.C,C11*%
X10121664Y-45000000D03*
X9025648Y-46096016D03*
%TD*%
D25*
%TO.C,C14*%
X10930671Y-29073313D03*
X12026687Y-30169329D03*
%TD*%
D36*
%TO.C,D3*%
X18300000Y-53612500D03*
X18300000Y-55187500D03*
%TD*%
D35*
%TO.C,C18*%
X23300000Y-27000000D03*
X22203984Y-28096016D03*
%TD*%
D37*
%TO.C,FB3*%
X22943153Y-43293153D03*
X24056847Y-44406847D03*
%TD*%
D38*
%TO.C,R6*%
X14183363Y-28083363D03*
X13016637Y-26916637D03*
%TD*%
%TO.C,R10*%
X26183363Y-42333363D03*
X25016637Y-41166637D03*
%TD*%
D35*
%TO.C,C12*%
X8283188Y-43161525D03*
X7187172Y-44257541D03*
%TD*%
D39*
%TO.C,D4*%
X27256847Y-41206847D03*
X26143153Y-40093153D03*
%TD*%
D40*
%TO.C,C6*%
X3850000Y-48750000D03*
X5750000Y-48750000D03*
%TD*%
D41*
%TO.C,FB4*%
X21143153Y-27056847D03*
X22256847Y-25943153D03*
%TD*%
D42*
%TO.C,JP1*%
X-1128000Y-36576000D03*
D43*
X-2428000Y-36576000D03*
%TD*%
D20*
%TO.C,R2*%
X5425000Y-30300000D03*
X3775000Y-30300000D03*
%TD*%
D38*
%TO.C,R5*%
X13122702Y-29144024D03*
X11955976Y-27977298D03*
%TD*%
D44*
%TO.C,J1*%
X400000Y-22790000D03*
X400000Y-28570000D03*
D45*
X1845000Y-22430000D03*
X1845000Y-23230000D03*
D46*
X1845000Y-24430000D03*
X1845000Y-25430000D03*
X1845000Y-25930000D03*
X1845000Y-26930000D03*
D45*
X1845000Y-28130000D03*
X1845000Y-28930000D03*
X1845000Y-28930000D03*
X1845000Y-28130000D03*
D46*
X1845000Y-27430000D03*
X1845000Y-26430000D03*
X1845000Y-24930000D03*
X1845000Y-23930000D03*
D45*
X1845000Y-23230000D03*
X1845000Y-22430000D03*
D47*
X-3250000Y-30000000D03*
D48*
X930000Y-30000000D03*
X930000Y-21360000D03*
D47*
X-3250000Y-21360000D03*
%TD*%
D14*
%TO.C,C4*%
X2700000Y-5175000D03*
X2700000Y-6725000D03*
%TD*%
D30*
%TO.C,H4*%
X36000000Y-66400000D03*
D31*
X36000000Y-64000000D03*
D30*
X37697056Y-62302944D03*
X38400000Y-64000000D03*
X33600000Y-64000000D03*
X34302944Y-65697056D03*
X34302944Y-62302944D03*
X36000000Y-61600000D03*
X37697056Y-65697056D03*
%TD*%
D49*
%TO.C,U2*%
X16797918Y-29141064D03*
X16232233Y-29706750D03*
X15666548Y-30272435D03*
X15100862Y-30838120D03*
X14535177Y-31403806D03*
X13969491Y-31969491D03*
X13403806Y-32535177D03*
X12838120Y-33100862D03*
X12272435Y-33666548D03*
X11706750Y-34232233D03*
X11141064Y-34797918D03*
D50*
X11141064Y-37202082D03*
X11706750Y-37767767D03*
X12272435Y-38333452D03*
X12838120Y-38899138D03*
X13403806Y-39464823D03*
X13969491Y-40030509D03*
X14535177Y-40596194D03*
X15100862Y-41161880D03*
X15666548Y-41727565D03*
X16232233Y-42293250D03*
X16797918Y-42858936D03*
D49*
X19202082Y-42858936D03*
X19767767Y-42293250D03*
X20333452Y-41727565D03*
X20899138Y-41161880D03*
X21464823Y-40596194D03*
X22030509Y-40030509D03*
X22596194Y-39464823D03*
X23161880Y-38899138D03*
X23727565Y-38333452D03*
X24293250Y-37767767D03*
X24858936Y-37202082D03*
D50*
X24858936Y-34797918D03*
X24293250Y-34232233D03*
X23727565Y-33666548D03*
X23161880Y-33100862D03*
X22596194Y-32535177D03*
X22030509Y-31969491D03*
X21464823Y-31403806D03*
X20899138Y-30838120D03*
X20333452Y-30272435D03*
X19767767Y-29706750D03*
X19202082Y-29141064D03*
%TD*%
D19*
%TO.C,D1*%
X5850000Y-23250000D03*
X3750000Y-23250000D03*
%TD*%
D20*
%TO.C,R13*%
X-953000Y-40276000D03*
X-2603000Y-40276000D03*
%TD*%
D26*
%TO.C,C8*%
X7225000Y-36800000D03*
X8775000Y-36800000D03*
%TD*%
D19*
%TO.C,D5*%
X4450000Y-41500000D03*
X6550000Y-41500000D03*
%TD*%
D51*
%TO.C,R12*%
X23966637Y-42216637D03*
X25133363Y-43383363D03*
%TD*%
D24*
%TO.C,R3*%
X3775000Y-56400000D03*
X5425000Y-56400000D03*
%TD*%
D22*
%TO.C,F1*%
X22537500Y-9250000D03*
X20662500Y-9250000D03*
%TD*%
D27*
%TO.C,R15*%
X23500000Y-50825000D03*
X23500000Y-49175000D03*
%TD*%
D44*
%TO.C,J2*%
X400000Y-50410000D03*
X400000Y-56190000D03*
D45*
X1845000Y-50050000D03*
X1845000Y-50850000D03*
D46*
X1845000Y-52050000D03*
X1845000Y-53050000D03*
X1845000Y-53550000D03*
X1845000Y-54550000D03*
D45*
X1845000Y-55750000D03*
X1845000Y-56550000D03*
X1845000Y-56550000D03*
X1845000Y-55750000D03*
D46*
X1845000Y-55050000D03*
X1845000Y-54050000D03*
X1845000Y-52550000D03*
X1845000Y-51550000D03*
D45*
X1845000Y-50850000D03*
X1845000Y-50050000D03*
D47*
X-3250000Y-48980000D03*
D48*
X930000Y-57620000D03*
X930000Y-48980000D03*
D47*
X-3250000Y-57620000D03*
%TD*%
D30*
%TO.C,H3*%
X34302944Y1697056D03*
X36000000Y2400000D03*
X33600000Y0D03*
X37697056Y1697056D03*
D31*
X36000000Y0D03*
D30*
X36000000Y-2400000D03*
X37697056Y-1697056D03*
X38400000Y0D03*
X34302944Y-1697056D03*
%TD*%
D27*
%TO.C,R14*%
X21900000Y-50825000D03*
X21900000Y-49175000D03*
%TD*%
D52*
%TO.C,D6*%
X-990500Y-38676000D03*
X-2565500Y-38676000D03*
%TD*%
D30*
%TO.C,H2*%
X2400000Y-64000000D03*
X-1697056Y-65697056D03*
X1697056Y-65697056D03*
X1697056Y-62302944D03*
X0Y-66400000D03*
X0Y-61600000D03*
X-2400000Y-64000000D03*
X-1697056Y-62302944D03*
D31*
X0Y-64000000D03*
%TD*%
D28*
%TO.C,D7*%
X21900000Y-55187500D03*
X21900000Y-53612500D03*
%TD*%
D53*
%TO.C,C3*%
X100000Y-5050000D03*
X100000Y-6950000D03*
%TD*%
D54*
%TO.C,Y1*%
X12578858Y-42259962D03*
X11023223Y-40704327D03*
X9821142Y-41906408D03*
X11376777Y-43462043D03*
%TD*%
D29*
%TO.C,C17*%
X15200000Y-55175000D03*
X15200000Y-53625000D03*
%TD*%
D26*
%TO.C,C2*%
X4275000Y-19500000D03*
X5825000Y-19500000D03*
%TD*%
D55*
%TO.C,J3*%
X12920000Y-22700000D03*
D56*
X12920000Y-20160000D03*
X15460000Y-22700000D03*
X15460000Y-20160000D03*
X18000000Y-22700000D03*
X18000000Y-20160000D03*
X20540000Y-22700000D03*
X20540000Y-20160000D03*
%TD*%
D57*
%TO.C,SW2*%
X15500000Y-62900000D03*
X15500000Y-67100000D03*
%TD*%
D36*
%TO.C,D2*%
X16700000Y-53612500D03*
X16700000Y-55187500D03*
%TD*%
D57*
%TO.C,SW1*%
X20500000Y-62900000D03*
X20500000Y-67100000D03*
%TD*%
D40*
%TO.C,C1*%
X3950000Y-21300000D03*
X5850000Y-21300000D03*
%TD*%
D29*
%TO.C,C16*%
X8200000Y-50775000D03*
X8200000Y-49225000D03*
%TD*%
M02*
