%TF.GenerationSoftware,KiCad,Pcbnew,(6.0.9)*%
%TF.CreationDate,2022-12-11T16:10:59+10:00*%
%TF.ProjectId,OpenRetroPad,4f70656e-5265-4747-926f-5061642e6b69,rev?*%
%TF.SameCoordinates,Original*%
%TF.FileFunction,Legend,Bot*%
%TF.FilePolarity,Positive*%
%FSLAX46Y46*%
G04 Gerber Fmt 4.6, Leading zero omitted, Abs format (unit mm)*
G04 Created by KiCad (PCBNEW (6.0.9)) date 2022-12-11 16:10:59*
%MOMM*%
%LPD*%
G01*
G04 APERTURE LIST*
%ADD10C,0.150000*%
%ADD11C,0.010000*%
%ADD12R,1.700000X1.700000*%
%ADD13O,1.700000X1.700000*%
%ADD14C,1.600000*%
%ADD15R,1.600000X1.600000*%
%ADD16C,4.000000*%
%ADD17C,0.800000*%
%ADD18C,6.400000*%
%ADD19C,0.650000*%
%ADD20O,1.600000X1.000000*%
%ADD21O,2.100000X1.000000*%
G04 APERTURE END LIST*
D10*
X29973928Y3712620D02*
X29783452Y3712620D01*
X29688214Y3665000D01*
X29592976Y3569762D01*
X29545357Y3379286D01*
X29545357Y3045953D01*
X29592976Y2855477D01*
X29688214Y2760239D01*
X29783452Y2712620D01*
X29973928Y2712620D01*
X30069166Y2760239D01*
X30164404Y2855477D01*
X30212023Y3045953D01*
X30212023Y3379286D01*
X30164404Y3569762D01*
X30069166Y3665000D01*
X29973928Y3712620D01*
X29116785Y3379286D02*
X29116785Y2379286D01*
X29116785Y3331667D02*
X29021547Y3379286D01*
X28831071Y3379286D01*
X28735833Y3331667D01*
X28688214Y3284048D01*
X28640595Y3188810D01*
X28640595Y2903096D01*
X28688214Y2807858D01*
X28735833Y2760239D01*
X28831071Y2712620D01*
X29021547Y2712620D01*
X29116785Y2760239D01*
X27831071Y2760239D02*
X27926309Y2712620D01*
X28116785Y2712620D01*
X28212023Y2760239D01*
X28259642Y2855477D01*
X28259642Y3236429D01*
X28212023Y3331667D01*
X28116785Y3379286D01*
X27926309Y3379286D01*
X27831071Y3331667D01*
X27783452Y3236429D01*
X27783452Y3141191D01*
X28259642Y3045953D01*
X27354880Y3379286D02*
X27354880Y2712620D01*
X27354880Y3284048D02*
X27307261Y3331667D01*
X27212023Y3379286D01*
X27069166Y3379286D01*
X26973928Y3331667D01*
X26926309Y3236429D01*
X26926309Y2712620D01*
X25878690Y2712620D02*
X26212023Y3188810D01*
X26450119Y2712620D02*
X26450119Y3712620D01*
X26069166Y3712620D01*
X25973928Y3665000D01*
X25926309Y3617381D01*
X25878690Y3522143D01*
X25878690Y3379286D01*
X25926309Y3284048D01*
X25973928Y3236429D01*
X26069166Y3188810D01*
X26450119Y3188810D01*
X25069166Y2760239D02*
X25164404Y2712620D01*
X25354880Y2712620D01*
X25450119Y2760239D01*
X25497738Y2855477D01*
X25497738Y3236429D01*
X25450119Y3331667D01*
X25354880Y3379286D01*
X25164404Y3379286D01*
X25069166Y3331667D01*
X25021547Y3236429D01*
X25021547Y3141191D01*
X25497738Y3045953D01*
X24735833Y3379286D02*
X24354880Y3379286D01*
X24592976Y3712620D02*
X24592976Y2855477D01*
X24545357Y2760239D01*
X24450119Y2712620D01*
X24354880Y2712620D01*
X24021547Y2712620D02*
X24021547Y3379286D01*
X24021547Y3188810D02*
X23973928Y3284048D01*
X23926309Y3331667D01*
X23831071Y3379286D01*
X23735833Y3379286D01*
X23259642Y2712620D02*
X23354880Y2760239D01*
X23402500Y2807858D01*
X23450119Y2903096D01*
X23450119Y3188810D01*
X23402500Y3284048D01*
X23354880Y3331667D01*
X23259642Y3379286D01*
X23116785Y3379286D01*
X23021547Y3331667D01*
X22973928Y3284048D01*
X22926309Y3188810D01*
X22926309Y2903096D01*
X22973928Y2807858D01*
X23021547Y2760239D01*
X23116785Y2712620D01*
X23259642Y2712620D01*
X22497738Y2712620D02*
X22497738Y3712620D01*
X22116785Y3712620D01*
X22021547Y3665000D01*
X21973928Y3617381D01*
X21926309Y3522143D01*
X21926309Y3379286D01*
X21973928Y3284048D01*
X22021547Y3236429D01*
X22116785Y3188810D01*
X22497738Y3188810D01*
X21069166Y2712620D02*
X21069166Y3236429D01*
X21116785Y3331667D01*
X21212023Y3379286D01*
X21402500Y3379286D01*
X21497738Y3331667D01*
X21069166Y2760239D02*
X21164404Y2712620D01*
X21402500Y2712620D01*
X21497738Y2760239D01*
X21545357Y2855477D01*
X21545357Y2950715D01*
X21497738Y3045953D01*
X21402500Y3093572D01*
X21164404Y3093572D01*
X21069166Y3141191D01*
X20164404Y2712620D02*
X20164404Y3712620D01*
X20164404Y2760239D02*
X20259642Y2712620D01*
X20450119Y2712620D01*
X20545357Y2760239D01*
X20592976Y2807858D01*
X20640595Y2903096D01*
X20640595Y3188810D01*
X20592976Y3284048D01*
X20545357Y3331667D01*
X20450119Y3379286D01*
X20259642Y3379286D01*
X20164404Y3331667D01*
X18973928Y2998334D02*
X18497738Y2998334D01*
X19069166Y2712620D02*
X18735833Y3712620D01*
X18402500Y2712620D01*
X18212023Y3712620D02*
X17640595Y3712620D01*
X17926309Y2712620D02*
X17926309Y3712620D01*
X17307261Y2712620D02*
X17307261Y3379286D01*
X17307261Y3284048D02*
X17259642Y3331667D01*
X17164404Y3379286D01*
X17021547Y3379286D01*
X16926309Y3331667D01*
X16878690Y3236429D01*
X16878690Y2712620D01*
X16878690Y3236429D02*
X16831071Y3331667D01*
X16735833Y3379286D01*
X16592976Y3379286D01*
X16497738Y3331667D01*
X16450119Y3236429D01*
X16450119Y2712620D01*
X15592976Y2760239D02*
X15688214Y2712620D01*
X15878690Y2712620D01*
X15973928Y2760239D01*
X16021547Y2855477D01*
X16021547Y3236429D01*
X15973928Y3331667D01*
X15878690Y3379286D01*
X15688214Y3379286D01*
X15592976Y3331667D01*
X15545357Y3236429D01*
X15545357Y3141191D01*
X16021547Y3045953D01*
X14688214Y3379286D02*
X14688214Y2569762D01*
X14735833Y2474524D01*
X14783452Y2426905D01*
X14878690Y2379286D01*
X15021547Y2379286D01*
X15116785Y2426905D01*
X14688214Y2760239D02*
X14783452Y2712620D01*
X14973928Y2712620D01*
X15069166Y2760239D01*
X15116785Y2807858D01*
X15164404Y2903096D01*
X15164404Y3188810D01*
X15116785Y3284048D01*
X15069166Y3331667D01*
X14973928Y3379286D01*
X14783452Y3379286D01*
X14688214Y3331667D01*
X13783452Y2712620D02*
X13783452Y3236429D01*
X13831071Y3331667D01*
X13926309Y3379286D01*
X14116785Y3379286D01*
X14212023Y3331667D01*
X13783452Y2760239D02*
X13878690Y2712620D01*
X14116785Y2712620D01*
X14212023Y2760239D01*
X14259642Y2855477D01*
X14259642Y2950715D01*
X14212023Y3045953D01*
X14116785Y3093572D01*
X13878690Y3093572D01*
X13783452Y3141191D01*
X13402500Y3712620D02*
X12783452Y3712620D01*
X13116785Y3331667D01*
X12973928Y3331667D01*
X12878690Y3284048D01*
X12831071Y3236429D01*
X12783452Y3141191D01*
X12783452Y2903096D01*
X12831071Y2807858D01*
X12878690Y2760239D01*
X12973928Y2712620D01*
X13259642Y2712620D01*
X13354880Y2760239D01*
X13402500Y2807858D01*
X12402500Y3617381D02*
X12354880Y3665000D01*
X12259642Y3712620D01*
X12021547Y3712620D01*
X11926309Y3665000D01*
X11878690Y3617381D01*
X11831071Y3522143D01*
X11831071Y3426905D01*
X11878690Y3284048D01*
X12450119Y2712620D01*
X11831071Y2712620D01*
X10973928Y3379286D02*
X10973928Y2712620D01*
X11402500Y3379286D02*
X11402500Y2855477D01*
X11354880Y2760239D01*
X11259642Y2712620D01*
X11116785Y2712620D01*
X11021547Y2760239D01*
X10973928Y2807858D01*
X10069166Y3379286D02*
X10069166Y2712620D01*
X10307261Y3760239D02*
X10545357Y3045953D01*
X9926309Y3045953D01*
X30259642Y1769286D02*
X30021547Y1102620D01*
X29783452Y1769286D01*
X29450119Y2007381D02*
X29402500Y2055000D01*
X29307261Y2102620D01*
X29069166Y2102620D01*
X28973928Y2055000D01*
X28926309Y2007381D01*
X28878690Y1912143D01*
X28878690Y1816905D01*
X28926309Y1674048D01*
X29497738Y1102620D01*
X28878690Y1102620D01*
X27688214Y1102620D02*
X27688214Y2102620D01*
X27450119Y2102620D01*
X27307261Y2055000D01*
X27212023Y1959762D01*
X27164404Y1864524D01*
X27116785Y1674048D01*
X27116785Y1531191D01*
X27164404Y1340715D01*
X27212023Y1245477D01*
X27307261Y1150239D01*
X27450119Y1102620D01*
X27688214Y1102620D01*
X26688214Y1626429D02*
X26354880Y1626429D01*
X26212023Y1102620D02*
X26688214Y1102620D01*
X26688214Y2102620D01*
X26212023Y2102620D01*
X25212023Y1197858D02*
X25259642Y1150239D01*
X25402500Y1102620D01*
X25497738Y1102620D01*
X25640595Y1150239D01*
X25735833Y1245477D01*
X25783452Y1340715D01*
X25831071Y1531191D01*
X25831071Y1674048D01*
X25783452Y1864524D01*
X25735833Y1959762D01*
X25640595Y2055000D01*
X25497738Y2102620D01*
X25402500Y2102620D01*
X25259642Y2055000D01*
X25212023Y2007381D01*
X24783452Y1483572D02*
X24021547Y1483572D01*
X23592976Y2007381D02*
X23545357Y2055000D01*
X23450119Y2102620D01*
X23212023Y2102620D01*
X23116785Y2055000D01*
X23069166Y2007381D01*
X23021547Y1912143D01*
X23021547Y1816905D01*
X23069166Y1674048D01*
X23640595Y1102620D01*
X23021547Y1102620D01*
X22402500Y2102620D02*
X22307261Y2102620D01*
X22212023Y2055000D01*
X22164404Y2007381D01*
X22116785Y1912143D01*
X22069166Y1721667D01*
X22069166Y1483572D01*
X22116785Y1293096D01*
X22164404Y1197858D01*
X22212023Y1150239D01*
X22307261Y1102620D01*
X22402500Y1102620D01*
X22497738Y1150239D01*
X22545357Y1197858D01*
X22592976Y1293096D01*
X22640595Y1483572D01*
X22640595Y1721667D01*
X22592976Y1912143D01*
X22545357Y2007381D01*
X22497738Y2055000D01*
X22402500Y2102620D01*
X21688214Y2007381D02*
X21640595Y2055000D01*
X21545357Y2102620D01*
X21307261Y2102620D01*
X21212023Y2055000D01*
X21164404Y2007381D01*
X21116785Y1912143D01*
X21116785Y1816905D01*
X21164404Y1674048D01*
X21735833Y1102620D01*
X21116785Y1102620D01*
X20735833Y2007381D02*
X20688214Y2055000D01*
X20592976Y2102620D01*
X20354880Y2102620D01*
X20259642Y2055000D01*
X20212023Y2007381D01*
X20164404Y1912143D01*
X20164404Y1816905D01*
X20212023Y1674048D01*
X20783452Y1102620D01*
X20164404Y1102620D01*
X29973928Y492620D02*
X29783452Y492620D01*
X29688214Y445000D01*
X29592976Y349762D01*
X29545357Y159286D01*
X29545357Y-174047D01*
X29592976Y-364523D01*
X29688214Y-459761D01*
X29783452Y-507380D01*
X29973928Y-507380D01*
X30069166Y-459761D01*
X30164404Y-364523D01*
X30212023Y-174047D01*
X30212023Y159286D01*
X30164404Y349762D01*
X30069166Y445000D01*
X29973928Y492620D01*
X29116785Y159286D02*
X29116785Y-840714D01*
X29116785Y111667D02*
X29021547Y159286D01*
X28831071Y159286D01*
X28735833Y111667D01*
X28688214Y64048D01*
X28640595Y-31190D01*
X28640595Y-316904D01*
X28688214Y-412142D01*
X28735833Y-459761D01*
X28831071Y-507380D01*
X29021547Y-507380D01*
X29116785Y-459761D01*
X27831071Y-459761D02*
X27926309Y-507380D01*
X28116785Y-507380D01*
X28212023Y-459761D01*
X28259642Y-364523D01*
X28259642Y16429D01*
X28212023Y111667D01*
X28116785Y159286D01*
X27926309Y159286D01*
X27831071Y111667D01*
X27783452Y16429D01*
X27783452Y-78809D01*
X28259642Y-174047D01*
X27354880Y159286D02*
X27354880Y-507380D01*
X27354880Y64048D02*
X27307261Y111667D01*
X27212023Y159286D01*
X27069166Y159286D01*
X26973928Y111667D01*
X26926309Y16429D01*
X26926309Y-507380D01*
X25878690Y-507380D02*
X26212023Y-31190D01*
X26450119Y-507380D02*
X26450119Y492620D01*
X26069166Y492620D01*
X25973928Y445000D01*
X25926309Y397381D01*
X25878690Y302143D01*
X25878690Y159286D01*
X25926309Y64048D01*
X25973928Y16429D01*
X26069166Y-31190D01*
X26450119Y-31190D01*
X25069166Y-459761D02*
X25164404Y-507380D01*
X25354880Y-507380D01*
X25450119Y-459761D01*
X25497738Y-364523D01*
X25497738Y16429D01*
X25450119Y111667D01*
X25354880Y159286D01*
X25164404Y159286D01*
X25069166Y111667D01*
X25021547Y16429D01*
X25021547Y-78809D01*
X25497738Y-174047D01*
X24735833Y159286D02*
X24354880Y159286D01*
X24592976Y492620D02*
X24592976Y-364523D01*
X24545357Y-459761D01*
X24450119Y-507380D01*
X24354880Y-507380D01*
X24021547Y-507380D02*
X24021547Y159286D01*
X24021547Y-31190D02*
X23973928Y64048D01*
X23926309Y111667D01*
X23831071Y159286D01*
X23735833Y159286D01*
X23259642Y-507380D02*
X23354880Y-459761D01*
X23402500Y-412142D01*
X23450119Y-316904D01*
X23450119Y-31190D01*
X23402500Y64048D01*
X23354880Y111667D01*
X23259642Y159286D01*
X23116785Y159286D01*
X23021547Y111667D01*
X22973928Y64048D01*
X22926309Y-31190D01*
X22926309Y-316904D01*
X22973928Y-412142D01*
X23021547Y-459761D01*
X23116785Y-507380D01*
X23259642Y-507380D01*
X22497738Y-507380D02*
X22497738Y492620D01*
X22116785Y492620D01*
X22021547Y445000D01*
X21973928Y397381D01*
X21926309Y302143D01*
X21926309Y159286D01*
X21973928Y64048D01*
X22021547Y16429D01*
X22116785Y-31190D01*
X22497738Y-31190D01*
X21069166Y-507380D02*
X21069166Y16429D01*
X21116785Y111667D01*
X21212023Y159286D01*
X21402500Y159286D01*
X21497738Y111667D01*
X21069166Y-459761D02*
X21164404Y-507380D01*
X21402500Y-507380D01*
X21497738Y-459761D01*
X21545357Y-364523D01*
X21545357Y-269285D01*
X21497738Y-174047D01*
X21402500Y-126428D01*
X21164404Y-126428D01*
X21069166Y-78809D01*
X20164404Y-507380D02*
X20164404Y492620D01*
X20164404Y-459761D02*
X20259642Y-507380D01*
X20450119Y-507380D01*
X20545357Y-459761D01*
X20592976Y-412142D01*
X20640595Y-316904D01*
X20640595Y-31190D01*
X20592976Y64048D01*
X20545357Y111667D01*
X20450119Y159286D01*
X20259642Y159286D01*
X20164404Y111667D01*
X19688214Y-412142D02*
X19640595Y-459761D01*
X19688214Y-507380D01*
X19735833Y-459761D01*
X19688214Y-412142D01*
X19688214Y-507380D01*
X18783452Y-459761D02*
X18878690Y-507380D01*
X19069166Y-507380D01*
X19164404Y-459761D01*
X19212023Y-412142D01*
X19259642Y-316904D01*
X19259642Y-31190D01*
X19212023Y64048D01*
X19164404Y111667D01*
X19069166Y159286D01*
X18878690Y159286D01*
X18783452Y111667D01*
X18212023Y-507380D02*
X18307261Y-459761D01*
X18354880Y-412142D01*
X18402500Y-316904D01*
X18402500Y-31190D01*
X18354880Y64048D01*
X18307261Y111667D01*
X18212023Y159286D01*
X18069166Y159286D01*
X17973928Y111667D01*
X17926309Y64048D01*
X17878690Y-31190D01*
X17878690Y-316904D01*
X17926309Y-412142D01*
X17973928Y-459761D01*
X18069166Y-507380D01*
X18212023Y-507380D01*
X17450119Y-507380D02*
X17450119Y159286D01*
X17450119Y64048D02*
X17402500Y111667D01*
X17307261Y159286D01*
X17164404Y159286D01*
X17069166Y111667D01*
X17021547Y16429D01*
X17021547Y-507380D01*
X17021547Y16429D02*
X16973928Y111667D01*
X16878690Y159286D01*
X16735833Y159286D01*
X16640595Y111667D01*
X16592976Y16429D01*
X16592976Y-507380D01*
X29878690Y-1117380D02*
X29878690Y-1831666D01*
X29926309Y-1974523D01*
X30021547Y-2069761D01*
X30164404Y-2117380D01*
X30259642Y-2117380D01*
X28926309Y-2117380D02*
X29402500Y-2117380D01*
X29402500Y-1117380D01*
X28021547Y-2022142D02*
X28069166Y-2069761D01*
X28212023Y-2117380D01*
X28307261Y-2117380D01*
X28450119Y-2069761D01*
X28545357Y-1974523D01*
X28592976Y-1879285D01*
X28640595Y-1688809D01*
X28640595Y-1545952D01*
X28592976Y-1355476D01*
X28545357Y-1260238D01*
X28450119Y-1165000D01*
X28307261Y-1117380D01*
X28212023Y-1117380D01*
X28069166Y-1165000D01*
X28021547Y-1212619D01*
X27307261Y-1117380D02*
X27307261Y-1831666D01*
X27354880Y-1974523D01*
X27450119Y-2069761D01*
X27592976Y-2117380D01*
X27688214Y-2117380D01*
X26354880Y-2117380D02*
X26831071Y-2117380D01*
X26831071Y-1117380D01*
X25450119Y-2022142D02*
X25497738Y-2069761D01*
X25640595Y-2117380D01*
X25735833Y-2117380D01*
X25878690Y-2069761D01*
X25973928Y-1974523D01*
X26021547Y-1879285D01*
X26069166Y-1688809D01*
X26069166Y-1545952D01*
X26021547Y-1355476D01*
X25973928Y-1260238D01*
X25878690Y-1165000D01*
X25735833Y-1117380D01*
X25640595Y-1117380D01*
X25497738Y-1165000D01*
X25450119Y-1212619D01*
X24735833Y-1117380D02*
X24735833Y-1831666D01*
X24783452Y-1974523D01*
X24878690Y-2069761D01*
X25021547Y-2117380D01*
X25116785Y-2117380D01*
X23783452Y-2117380D02*
X24259642Y-2117380D01*
X24259642Y-1117380D01*
X22878690Y-2022142D02*
X22926309Y-2069761D01*
X23069166Y-2117380D01*
X23164404Y-2117380D01*
X23307261Y-2069761D01*
X23402500Y-1974523D01*
X23450119Y-1879285D01*
X23497738Y-1688809D01*
X23497738Y-1545952D01*
X23450119Y-1355476D01*
X23402500Y-1260238D01*
X23307261Y-1165000D01*
X23164404Y-1117380D01*
X23069166Y-1117380D01*
X22926309Y-1165000D01*
X22878690Y-1212619D01*
X22164404Y-1117380D02*
X22164404Y-1831666D01*
X22212023Y-1974523D01*
X22307261Y-2069761D01*
X22450119Y-2117380D01*
X22545357Y-2117380D01*
X21212023Y-2117380D02*
X21688214Y-2117380D01*
X21688214Y-1117380D01*
X20307261Y-2022142D02*
X20354880Y-2069761D01*
X20497738Y-2117380D01*
X20592976Y-2117380D01*
X20735833Y-2069761D01*
X20831071Y-1974523D01*
X20878690Y-1879285D01*
X20926309Y-1688809D01*
X20926309Y-1545952D01*
X20878690Y-1355476D01*
X20831071Y-1260238D01*
X20735833Y-1165000D01*
X20592976Y-1117380D01*
X20497738Y-1117380D01*
X20354880Y-1165000D01*
X20307261Y-1212619D01*
%TO.C,LOGO2*%
G36*
X18785268Y-64420158D02*
G01*
X18776689Y-64571594D01*
X18757833Y-64708283D01*
X18727837Y-64834276D01*
X18685836Y-64953625D01*
X18630969Y-65070381D01*
X18564167Y-65181179D01*
X18473363Y-65294739D01*
X18369708Y-65390211D01*
X18253887Y-65467073D01*
X18126586Y-65524797D01*
X17988489Y-65562858D01*
X17950793Y-65568666D01*
X17871752Y-65574396D01*
X17783629Y-65574583D01*
X17694236Y-65569539D01*
X17611384Y-65559578D01*
X17542887Y-65545012D01*
X17512035Y-65535364D01*
X17434730Y-65505123D01*
X17357679Y-65467617D01*
X17288200Y-65426614D01*
X17233615Y-65385879D01*
X17210916Y-65366505D01*
X17188201Y-65348662D01*
X17176779Y-65341778D01*
X17175537Y-65343424D01*
X17172728Y-65361205D01*
X17170776Y-65394370D01*
X17170045Y-65437733D01*
X17170045Y-65533689D01*
X16311896Y-65533689D01*
X16346161Y-65472974D01*
X16351355Y-65463868D01*
X16359715Y-65449249D01*
X16367288Y-65435173D01*
X16374112Y-65420540D01*
X16380227Y-65404249D01*
X16385673Y-65385198D01*
X16390487Y-65362286D01*
X16394708Y-65334413D01*
X16398377Y-65300478D01*
X16401531Y-65259379D01*
X16404211Y-65210015D01*
X16406454Y-65151286D01*
X16408299Y-65082090D01*
X16409787Y-65001326D01*
X16410955Y-64907894D01*
X16411678Y-64820721D01*
X17215200Y-64820721D01*
X17285756Y-64867089D01*
X17326417Y-64890791D01*
X17380546Y-64916639D01*
X17429689Y-64934829D01*
X17493165Y-64950551D01*
X17589331Y-64961541D01*
X17673900Y-64953365D01*
X17747219Y-64925805D01*
X17809637Y-64878642D01*
X17861502Y-64811658D01*
X17903160Y-64724633D01*
X17934962Y-64617350D01*
X17937545Y-64605009D01*
X17946000Y-64543772D01*
X17951663Y-64466692D01*
X17954576Y-64379002D01*
X17954783Y-64285934D01*
X17952330Y-64192720D01*
X17947261Y-64104594D01*
X17939619Y-64026788D01*
X17929448Y-63964533D01*
X17928167Y-63958666D01*
X17899126Y-63848121D01*
X17864610Y-63757575D01*
X17823456Y-63684953D01*
X17774499Y-63628181D01*
X17716574Y-63585184D01*
X17684620Y-63569615D01*
X17611784Y-63550722D01*
X17530443Y-63547465D01*
X17445319Y-63559389D01*
X17361133Y-63586040D01*
X17282608Y-63626962D01*
X17215200Y-63670530D01*
X17215200Y-64820721D01*
X16411678Y-64820721D01*
X16411844Y-64800692D01*
X16412491Y-64678620D01*
X16412936Y-64540576D01*
X16413218Y-64385459D01*
X16413375Y-64212168D01*
X16413448Y-64019603D01*
X16413474Y-63806662D01*
X16413493Y-63572245D01*
X16413689Y-61887378D01*
X17319017Y-61887378D01*
X17294585Y-61924067D01*
X17288318Y-61933647D01*
X17262208Y-61979981D01*
X17244469Y-62027102D01*
X17232908Y-62082251D01*
X17225331Y-62152667D01*
X17224839Y-62159650D01*
X17223062Y-62197641D01*
X17221444Y-62251576D01*
X17219999Y-62318703D01*
X17218740Y-62396271D01*
X17217680Y-62481528D01*
X17216829Y-62571724D01*
X17216203Y-62664107D01*
X17215812Y-62755925D01*
X17215670Y-62844427D01*
X17215790Y-62926862D01*
X17216183Y-63000479D01*
X17216862Y-63062526D01*
X17217841Y-63110251D01*
X17219132Y-63140904D01*
X17220747Y-63151733D01*
X17228957Y-63147333D01*
X17250647Y-63132362D01*
X17280014Y-63110448D01*
X17328879Y-63076236D01*
X17417125Y-63029714D01*
X17515916Y-62996046D01*
X17628510Y-62974231D01*
X17758164Y-62963265D01*
X17850670Y-62962219D01*
X17972011Y-62972014D01*
X18082099Y-62996174D01*
X18185389Y-63035785D01*
X18286338Y-63091932D01*
X18331503Y-63122883D01*
X18436911Y-63214115D01*
X18528538Y-63323106D01*
X18606332Y-63449726D01*
X18670241Y-63593845D01*
X18720214Y-63755332D01*
X18756198Y-63934059D01*
X18778143Y-64129895D01*
X18783900Y-64285934D01*
X18785994Y-64342711D01*
X18785268Y-64420158D01*
G37*
D11*
X18785268Y-64420158D02*
X18776689Y-64571594D01*
X18757833Y-64708283D01*
X18727837Y-64834276D01*
X18685836Y-64953625D01*
X18630969Y-65070381D01*
X18564167Y-65181179D01*
X18473363Y-65294739D01*
X18369708Y-65390211D01*
X18253887Y-65467073D01*
X18126586Y-65524797D01*
X17988489Y-65562858D01*
X17950793Y-65568666D01*
X17871752Y-65574396D01*
X17783629Y-65574583D01*
X17694236Y-65569539D01*
X17611384Y-65559578D01*
X17542887Y-65545012D01*
X17512035Y-65535364D01*
X17434730Y-65505123D01*
X17357679Y-65467617D01*
X17288200Y-65426614D01*
X17233615Y-65385879D01*
X17210916Y-65366505D01*
X17188201Y-65348662D01*
X17176779Y-65341778D01*
X17175537Y-65343424D01*
X17172728Y-65361205D01*
X17170776Y-65394370D01*
X17170045Y-65437733D01*
X17170045Y-65533689D01*
X16311896Y-65533689D01*
X16346161Y-65472974D01*
X16351355Y-65463868D01*
X16359715Y-65449249D01*
X16367288Y-65435173D01*
X16374112Y-65420540D01*
X16380227Y-65404249D01*
X16385673Y-65385198D01*
X16390487Y-65362286D01*
X16394708Y-65334413D01*
X16398377Y-65300478D01*
X16401531Y-65259379D01*
X16404211Y-65210015D01*
X16406454Y-65151286D01*
X16408299Y-65082090D01*
X16409787Y-65001326D01*
X16410955Y-64907894D01*
X16411678Y-64820721D01*
X17215200Y-64820721D01*
X17285756Y-64867089D01*
X17326417Y-64890791D01*
X17380546Y-64916639D01*
X17429689Y-64934829D01*
X17493165Y-64950551D01*
X17589331Y-64961541D01*
X17673900Y-64953365D01*
X17747219Y-64925805D01*
X17809637Y-64878642D01*
X17861502Y-64811658D01*
X17903160Y-64724633D01*
X17934962Y-64617350D01*
X17937545Y-64605009D01*
X17946000Y-64543772D01*
X17951663Y-64466692D01*
X17954576Y-64379002D01*
X17954783Y-64285934D01*
X17952330Y-64192720D01*
X17947261Y-64104594D01*
X17939619Y-64026788D01*
X17929448Y-63964533D01*
X17928167Y-63958666D01*
X17899126Y-63848121D01*
X17864610Y-63757575D01*
X17823456Y-63684953D01*
X17774499Y-63628181D01*
X17716574Y-63585184D01*
X17684620Y-63569615D01*
X17611784Y-63550722D01*
X17530443Y-63547465D01*
X17445319Y-63559389D01*
X17361133Y-63586040D01*
X17282608Y-63626962D01*
X17215200Y-63670530D01*
X17215200Y-64820721D01*
X16411678Y-64820721D01*
X16411844Y-64800692D01*
X16412491Y-64678620D01*
X16412936Y-64540576D01*
X16413218Y-64385459D01*
X16413375Y-64212168D01*
X16413448Y-64019603D01*
X16413474Y-63806662D01*
X16413493Y-63572245D01*
X16413689Y-61887378D01*
X17319017Y-61887378D01*
X17294585Y-61924067D01*
X17288318Y-61933647D01*
X17262208Y-61979981D01*
X17244469Y-62027102D01*
X17232908Y-62082251D01*
X17225331Y-62152667D01*
X17224839Y-62159650D01*
X17223062Y-62197641D01*
X17221444Y-62251576D01*
X17219999Y-62318703D01*
X17218740Y-62396271D01*
X17217680Y-62481528D01*
X17216829Y-62571724D01*
X17216203Y-62664107D01*
X17215812Y-62755925D01*
X17215670Y-62844427D01*
X17215790Y-62926862D01*
X17216183Y-63000479D01*
X17216862Y-63062526D01*
X17217841Y-63110251D01*
X17219132Y-63140904D01*
X17220747Y-63151733D01*
X17228957Y-63147333D01*
X17250647Y-63132362D01*
X17280014Y-63110448D01*
X17328879Y-63076236D01*
X17417125Y-63029714D01*
X17515916Y-62996046D01*
X17628510Y-62974231D01*
X17758164Y-62963265D01*
X17850670Y-62962219D01*
X17972011Y-62972014D01*
X18082099Y-62996174D01*
X18185389Y-63035785D01*
X18286338Y-63091932D01*
X18331503Y-63122883D01*
X18436911Y-63214115D01*
X18528538Y-63323106D01*
X18606332Y-63449726D01*
X18670241Y-63593845D01*
X18720214Y-63755332D01*
X18756198Y-63934059D01*
X18778143Y-64129895D01*
X18783900Y-64285934D01*
X18785994Y-64342711D01*
X18785268Y-64420158D01*
G36*
X17755767Y-66369068D02*
G01*
X17849890Y-66369158D01*
X17924405Y-66369498D01*
X17981811Y-66370239D01*
X18024611Y-66371535D01*
X18055304Y-66373537D01*
X18076391Y-66376396D01*
X18090373Y-66380266D01*
X18099750Y-66385298D01*
X18107022Y-66391645D01*
X18125828Y-66424362D01*
X18127275Y-66461939D01*
X18110917Y-66495178D01*
X18109557Y-66496631D01*
X18098354Y-66504992D01*
X18081252Y-66510547D01*
X18054082Y-66513840D01*
X18012678Y-66515418D01*
X17952873Y-66515822D01*
X17813511Y-66515822D01*
X17813511Y-66779589D01*
X17813436Y-66855417D01*
X17813028Y-66922083D01*
X17812046Y-66971867D01*
X17810250Y-67007784D01*
X17807399Y-67032850D01*
X17803253Y-67050081D01*
X17797571Y-67062492D01*
X17790114Y-67073100D01*
X17787824Y-67075906D01*
X17756646Y-67098548D01*
X17722266Y-67100112D01*
X17689334Y-67080267D01*
X17682355Y-67072191D01*
X17676883Y-67061593D01*
X17672863Y-67045749D01*
X17670072Y-67021773D01*
X17668288Y-66986774D01*
X17667289Y-66937864D01*
X17666852Y-66872154D01*
X17666756Y-66786756D01*
X17666756Y-66515822D01*
X17520820Y-66515822D01*
X17509720Y-66515821D01*
X17453202Y-66515596D01*
X17414358Y-66514457D01*
X17388965Y-66511657D01*
X17372804Y-66506450D01*
X17361652Y-66498089D01*
X17351289Y-66485826D01*
X17335441Y-66455138D01*
X17338543Y-66421358D01*
X17364187Y-66388822D01*
X17369129Y-66385105D01*
X17379338Y-66380269D01*
X17394764Y-66376506D01*
X17417886Y-66373683D01*
X17451183Y-66371670D01*
X17497137Y-66370333D01*
X17558228Y-66369542D01*
X17636935Y-66369163D01*
X17735740Y-66369067D01*
X17755767Y-66369068D01*
G37*
X17755767Y-66369068D02*
X17849890Y-66369158D01*
X17924405Y-66369498D01*
X17981811Y-66370239D01*
X18024611Y-66371535D01*
X18055304Y-66373537D01*
X18076391Y-66376396D01*
X18090373Y-66380266D01*
X18099750Y-66385298D01*
X18107022Y-66391645D01*
X18125828Y-66424362D01*
X18127275Y-66461939D01*
X18110917Y-66495178D01*
X18109557Y-66496631D01*
X18098354Y-66504992D01*
X18081252Y-66510547D01*
X18054082Y-66513840D01*
X18012678Y-66515418D01*
X17952873Y-66515822D01*
X17813511Y-66515822D01*
X17813511Y-66779589D01*
X17813436Y-66855417D01*
X17813028Y-66922083D01*
X17812046Y-66971867D01*
X17810250Y-67007784D01*
X17807399Y-67032850D01*
X17803253Y-67050081D01*
X17797571Y-67062492D01*
X17790114Y-67073100D01*
X17787824Y-67075906D01*
X17756646Y-67098548D01*
X17722266Y-67100112D01*
X17689334Y-67080267D01*
X17682355Y-67072191D01*
X17676883Y-67061593D01*
X17672863Y-67045749D01*
X17670072Y-67021773D01*
X17668288Y-66986774D01*
X17667289Y-66937864D01*
X17666852Y-66872154D01*
X17666756Y-66786756D01*
X17666756Y-66515822D01*
X17520820Y-66515822D01*
X17509720Y-66515821D01*
X17453202Y-66515596D01*
X17414358Y-66514457D01*
X17388965Y-66511657D01*
X17372804Y-66506450D01*
X17361652Y-66498089D01*
X17351289Y-66485826D01*
X17335441Y-66455138D01*
X17338543Y-66421358D01*
X17364187Y-66388822D01*
X17369129Y-66385105D01*
X17379338Y-66380269D01*
X17394764Y-66376506D01*
X17417886Y-66373683D01*
X17451183Y-66371670D01*
X17497137Y-66370333D01*
X17558228Y-66369542D01*
X17636935Y-66369163D01*
X17735740Y-66369067D01*
X17755767Y-66369068D01*
G36*
X28876870Y-66635041D02*
G01*
X28876622Y-66735956D01*
X28876583Y-66811617D01*
X28876328Y-66889526D01*
X28875684Y-66949536D01*
X28874480Y-66994264D01*
X28872543Y-67026326D01*
X28869703Y-67048340D01*
X28865788Y-67062924D01*
X28860626Y-67072694D01*
X28854045Y-67080267D01*
X28847077Y-67086501D01*
X28834079Y-67093801D01*
X28814931Y-67098554D01*
X28785528Y-67101292D01*
X28741762Y-67102545D01*
X28679528Y-67102845D01*
X28630582Y-67102469D01*
X28523722Y-67098041D01*
X28434494Y-67087953D01*
X28359696Y-67071365D01*
X28296125Y-67047435D01*
X28240579Y-67015321D01*
X28189854Y-66974182D01*
X28183866Y-66968330D01*
X28146999Y-66919821D01*
X28115899Y-66859013D01*
X28094417Y-66794769D01*
X28089136Y-66756026D01*
X28236353Y-66756026D01*
X28254635Y-66806961D01*
X28284305Y-66852878D01*
X28331002Y-66895287D01*
X28392392Y-66925090D01*
X28471538Y-66944226D01*
X28473028Y-66944464D01*
X28521999Y-66950256D01*
X28580693Y-66954396D01*
X28636734Y-66956004D01*
X28729867Y-66956089D01*
X28729867Y-66515822D01*
X28653667Y-66515808D01*
X28650639Y-66515817D01*
X28599519Y-66517782D01*
X28539416Y-66522507D01*
X28482708Y-66529035D01*
X28432750Y-66538331D01*
X28357998Y-66564600D01*
X28300489Y-66603899D01*
X28258988Y-66656933D01*
X28237771Y-66708200D01*
X28236353Y-66756026D01*
X28089136Y-66756026D01*
X28086400Y-66735956D01*
X28087679Y-66714739D01*
X28099991Y-66657323D01*
X28122520Y-66597413D01*
X28151750Y-66543363D01*
X28184167Y-66503532D01*
X28203708Y-66486510D01*
X28258420Y-66447322D01*
X28318723Y-66417193D01*
X28387919Y-66395232D01*
X28469311Y-66380550D01*
X28566200Y-66372259D01*
X28681889Y-66369467D01*
X28721371Y-66369066D01*
X28767082Y-66368653D01*
X28802883Y-66370457D01*
X28829974Y-66376739D01*
X28849556Y-66389759D01*
X28862830Y-66411778D01*
X28870998Y-66445055D01*
X28875260Y-66491851D01*
X28875857Y-66515822D01*
X28876817Y-66554427D01*
X28876870Y-66635041D01*
G37*
X28876870Y-66635041D02*
X28876622Y-66735956D01*
X28876583Y-66811617D01*
X28876328Y-66889526D01*
X28875684Y-66949536D01*
X28874480Y-66994264D01*
X28872543Y-67026326D01*
X28869703Y-67048340D01*
X28865788Y-67062924D01*
X28860626Y-67072694D01*
X28854045Y-67080267D01*
X28847077Y-67086501D01*
X28834079Y-67093801D01*
X28814931Y-67098554D01*
X28785528Y-67101292D01*
X28741762Y-67102545D01*
X28679528Y-67102845D01*
X28630582Y-67102469D01*
X28523722Y-67098041D01*
X28434494Y-67087953D01*
X28359696Y-67071365D01*
X28296125Y-67047435D01*
X28240579Y-67015321D01*
X28189854Y-66974182D01*
X28183866Y-66968330D01*
X28146999Y-66919821D01*
X28115899Y-66859013D01*
X28094417Y-66794769D01*
X28089136Y-66756026D01*
X28236353Y-66756026D01*
X28254635Y-66806961D01*
X28284305Y-66852878D01*
X28331002Y-66895287D01*
X28392392Y-66925090D01*
X28471538Y-66944226D01*
X28473028Y-66944464D01*
X28521999Y-66950256D01*
X28580693Y-66954396D01*
X28636734Y-66956004D01*
X28729867Y-66956089D01*
X28729867Y-66515822D01*
X28653667Y-66515808D01*
X28650639Y-66515817D01*
X28599519Y-66517782D01*
X28539416Y-66522507D01*
X28482708Y-66529035D01*
X28432750Y-66538331D01*
X28357998Y-66564600D01*
X28300489Y-66603899D01*
X28258988Y-66656933D01*
X28237771Y-66708200D01*
X28236353Y-66756026D01*
X28089136Y-66756026D01*
X28086400Y-66735956D01*
X28087679Y-66714739D01*
X28099991Y-66657323D01*
X28122520Y-66597413D01*
X28151750Y-66543363D01*
X28184167Y-66503532D01*
X28203708Y-66486510D01*
X28258420Y-66447322D01*
X28318723Y-66417193D01*
X28387919Y-66395232D01*
X28469311Y-66380550D01*
X28566200Y-66372259D01*
X28681889Y-66369467D01*
X28721371Y-66369066D01*
X28767082Y-66368653D01*
X28802883Y-66370457D01*
X28829974Y-66376739D01*
X28849556Y-66389759D01*
X28862830Y-66411778D01*
X28870998Y-66445055D01*
X28875260Y-66491851D01*
X28875857Y-66515822D01*
X28876817Y-66554427D01*
X28876870Y-66635041D01*
G36*
X18889702Y-66378478D02*
G01*
X18907663Y-66396989D01*
X18928263Y-66428071D01*
X18953095Y-66473756D01*
X18983750Y-66536078D01*
X19021820Y-66617071D01*
X19036454Y-66648454D01*
X19066203Y-66711638D01*
X19092297Y-66766244D01*
X19113292Y-66809290D01*
X19127739Y-66837793D01*
X19134191Y-66848770D01*
X19135550Y-66848189D01*
X19145542Y-66834242D01*
X19162833Y-66804704D01*
X19185430Y-66763087D01*
X19211338Y-66712903D01*
X19227311Y-66681414D01*
X19256261Y-66626061D01*
X19278749Y-66587044D01*
X19296965Y-66561566D01*
X19313096Y-66546831D01*
X19329330Y-66540042D01*
X19347857Y-66538400D01*
X19358360Y-66538875D01*
X19374476Y-66543082D01*
X19389790Y-66553946D01*
X19406388Y-66574219D01*
X19426357Y-66606654D01*
X19451783Y-66654004D01*
X19484752Y-66719022D01*
X19494485Y-66738277D01*
X19518943Y-66784946D01*
X19539178Y-66821109D01*
X19553311Y-66843497D01*
X19559460Y-66848845D01*
X19560827Y-66845573D01*
X19570202Y-66824664D01*
X19587062Y-66787725D01*
X19609979Y-66737874D01*
X19637520Y-66678226D01*
X19668255Y-66611898D01*
X19694970Y-66554677D01*
X19724593Y-66492688D01*
X19747664Y-66446949D01*
X19765643Y-66414908D01*
X19779990Y-66394014D01*
X19792166Y-66381718D01*
X19803632Y-66375466D01*
X19813042Y-66372574D01*
X19838147Y-66372425D01*
X19865290Y-66387768D01*
X19866590Y-66388753D01*
X19888674Y-66411388D01*
X19899723Y-66433613D01*
X19899769Y-66434253D01*
X19895228Y-66451915D01*
X19882364Y-66486481D01*
X19862605Y-66534826D01*
X19837381Y-66593825D01*
X19808119Y-66660355D01*
X19776250Y-66731291D01*
X19743201Y-66803507D01*
X19710401Y-66873880D01*
X19679280Y-66939285D01*
X19651265Y-66996597D01*
X19627786Y-67042692D01*
X19610272Y-67074446D01*
X19600151Y-67088733D01*
X19565743Y-67102102D01*
X19524046Y-67095741D01*
X19518681Y-67091044D01*
X19502852Y-67068893D01*
X19480650Y-67032132D01*
X19454233Y-66984415D01*
X19425760Y-66929393D01*
X19345986Y-66770150D01*
X19272799Y-66916742D01*
X19263103Y-66936032D01*
X19236125Y-66988380D01*
X19212096Y-67033170D01*
X19193332Y-67066154D01*
X19182146Y-67083089D01*
X19181000Y-67084332D01*
X19152879Y-67099619D01*
X19117817Y-67101302D01*
X19086776Y-67088733D01*
X19084350Y-67085884D01*
X19072090Y-67065259D01*
X19052352Y-67027708D01*
X19026448Y-66975880D01*
X18995685Y-66912423D01*
X18961375Y-66839985D01*
X18924825Y-66761216D01*
X18904585Y-66717093D01*
X18867812Y-66636365D01*
X18839355Y-66572687D01*
X18818331Y-66523752D01*
X18803854Y-66487257D01*
X18795039Y-66460895D01*
X18791004Y-66442361D01*
X18790862Y-66429352D01*
X18793730Y-66419561D01*
X18808387Y-66398678D01*
X18834990Y-66378377D01*
X18835745Y-66378035D01*
X18855335Y-66371034D01*
X18872790Y-66370504D01*
X18889702Y-66378478D01*
G37*
X18889702Y-66378478D02*
X18907663Y-66396989D01*
X18928263Y-66428071D01*
X18953095Y-66473756D01*
X18983750Y-66536078D01*
X19021820Y-66617071D01*
X19036454Y-66648454D01*
X19066203Y-66711638D01*
X19092297Y-66766244D01*
X19113292Y-66809290D01*
X19127739Y-66837793D01*
X19134191Y-66848770D01*
X19135550Y-66848189D01*
X19145542Y-66834242D01*
X19162833Y-66804704D01*
X19185430Y-66763087D01*
X19211338Y-66712903D01*
X19227311Y-66681414D01*
X19256261Y-66626061D01*
X19278749Y-66587044D01*
X19296965Y-66561566D01*
X19313096Y-66546831D01*
X19329330Y-66540042D01*
X19347857Y-66538400D01*
X19358360Y-66538875D01*
X19374476Y-66543082D01*
X19389790Y-66553946D01*
X19406388Y-66574219D01*
X19426357Y-66606654D01*
X19451783Y-66654004D01*
X19484752Y-66719022D01*
X19494485Y-66738277D01*
X19518943Y-66784946D01*
X19539178Y-66821109D01*
X19553311Y-66843497D01*
X19559460Y-66848845D01*
X19560827Y-66845573D01*
X19570202Y-66824664D01*
X19587062Y-66787725D01*
X19609979Y-66737874D01*
X19637520Y-66678226D01*
X19668255Y-66611898D01*
X19694970Y-66554677D01*
X19724593Y-66492688D01*
X19747664Y-66446949D01*
X19765643Y-66414908D01*
X19779990Y-66394014D01*
X19792166Y-66381718D01*
X19803632Y-66375466D01*
X19813042Y-66372574D01*
X19838147Y-66372425D01*
X19865290Y-66387768D01*
X19866590Y-66388753D01*
X19888674Y-66411388D01*
X19899723Y-66433613D01*
X19899769Y-66434253D01*
X19895228Y-66451915D01*
X19882364Y-66486481D01*
X19862605Y-66534826D01*
X19837381Y-66593825D01*
X19808119Y-66660355D01*
X19776250Y-66731291D01*
X19743201Y-66803507D01*
X19710401Y-66873880D01*
X19679280Y-66939285D01*
X19651265Y-66996597D01*
X19627786Y-67042692D01*
X19610272Y-67074446D01*
X19600151Y-67088733D01*
X19565743Y-67102102D01*
X19524046Y-67095741D01*
X19518681Y-67091044D01*
X19502852Y-67068893D01*
X19480650Y-67032132D01*
X19454233Y-66984415D01*
X19425760Y-66929393D01*
X19345986Y-66770150D01*
X19272799Y-66916742D01*
X19263103Y-66936032D01*
X19236125Y-66988380D01*
X19212096Y-67033170D01*
X19193332Y-67066154D01*
X19182146Y-67083089D01*
X19181000Y-67084332D01*
X19152879Y-67099619D01*
X19117817Y-67101302D01*
X19086776Y-67088733D01*
X19084350Y-67085884D01*
X19072090Y-67065259D01*
X19052352Y-67027708D01*
X19026448Y-66975880D01*
X18995685Y-66912423D01*
X18961375Y-66839985D01*
X18924825Y-66761216D01*
X18904585Y-66717093D01*
X18867812Y-66636365D01*
X18839355Y-66572687D01*
X18818331Y-66523752D01*
X18803854Y-66487257D01*
X18795039Y-66460895D01*
X18791004Y-66442361D01*
X18790862Y-66429352D01*
X18793730Y-66419561D01*
X18808387Y-66398678D01*
X18834990Y-66378377D01*
X18835745Y-66378035D01*
X18855335Y-66371034D01*
X18872790Y-66370504D01*
X18889702Y-66378478D01*
G36*
X28876059Y-62343011D02*
G01*
X28876362Y-62490216D01*
X28876548Y-62654349D01*
X28876642Y-62836352D01*
X28876671Y-63037165D01*
X28876661Y-63257732D01*
X28876636Y-63498992D01*
X28876622Y-63761889D01*
X28876622Y-63804040D01*
X28876646Y-64064668D01*
X28876685Y-64303796D01*
X28876708Y-64522360D01*
X28876687Y-64721295D01*
X28876593Y-64901535D01*
X28876395Y-65064015D01*
X28876063Y-65209670D01*
X28875569Y-65339434D01*
X28874883Y-65454243D01*
X28873976Y-65555030D01*
X28872817Y-65642730D01*
X28871378Y-65718279D01*
X28869629Y-65782611D01*
X28867540Y-65836661D01*
X28865083Y-65881363D01*
X28862227Y-65917652D01*
X28858943Y-65946463D01*
X28855202Y-65968731D01*
X28850974Y-65985390D01*
X28846229Y-65997375D01*
X28840939Y-66005621D01*
X28835073Y-66011062D01*
X28828602Y-66014634D01*
X28821497Y-66017270D01*
X28813728Y-66019906D01*
X28805266Y-66023477D01*
X28800908Y-66025145D01*
X28792395Y-66027111D01*
X28779694Y-66028911D01*
X28761885Y-66030555D01*
X28738049Y-66032047D01*
X28707266Y-66033397D01*
X28668617Y-66034611D01*
X28621182Y-66035697D01*
X28564043Y-66036661D01*
X28496279Y-66037511D01*
X28416971Y-66038253D01*
X28325199Y-66038897D01*
X28220044Y-66039447D01*
X28100587Y-66039913D01*
X27965908Y-66040300D01*
X27815088Y-66040616D01*
X27647206Y-66040869D01*
X27461345Y-66041066D01*
X27256583Y-66041213D01*
X27032002Y-66041318D01*
X26786682Y-66041389D01*
X26519704Y-66041432D01*
X26481321Y-66041437D01*
X26215922Y-66041480D01*
X25972050Y-66041525D01*
X25748783Y-66041548D01*
X25545196Y-66041524D01*
X25360367Y-66041430D01*
X25193373Y-66041243D01*
X25043290Y-66040939D01*
X24909196Y-66040494D01*
X24790166Y-66039885D01*
X24685279Y-66039089D01*
X24593610Y-66038080D01*
X24514237Y-66036837D01*
X24446237Y-66035335D01*
X24388686Y-66033551D01*
X24340662Y-66031461D01*
X24301240Y-66029042D01*
X24269499Y-66026270D01*
X24244514Y-66023121D01*
X24225364Y-66019572D01*
X24211123Y-66015598D01*
X24200871Y-66011178D01*
X24193682Y-66006286D01*
X24188635Y-66000900D01*
X24184805Y-65994996D01*
X24181271Y-65988549D01*
X24177108Y-65981537D01*
X24176025Y-65979687D01*
X24173813Y-65974180D01*
X24171786Y-65965868D01*
X24169938Y-65953809D01*
X24168261Y-65937063D01*
X24166745Y-65914687D01*
X24165383Y-65885740D01*
X24164167Y-65849280D01*
X24163089Y-65804367D01*
X24162140Y-65750057D01*
X24161312Y-65685410D01*
X24160597Y-65609484D01*
X24159987Y-65521338D01*
X24159942Y-65512493D01*
X24451378Y-65512493D01*
X24455260Y-65513765D01*
X24478520Y-65515791D01*
X24520874Y-65517626D01*
X24580132Y-65519227D01*
X24654107Y-65520549D01*
X24740610Y-65521548D01*
X24837452Y-65522180D01*
X24942445Y-65522400D01*
X25640651Y-65522400D01*
X26795090Y-65522400D01*
X26794456Y-65446200D01*
X26795574Y-65404160D01*
X26801304Y-65368334D01*
X26813890Y-65330772D01*
X26835568Y-65282577D01*
X26838789Y-65275897D01*
X26864188Y-65226359D01*
X26890996Y-65178369D01*
X26913917Y-65141466D01*
X26918485Y-65134834D01*
X26940516Y-65103593D01*
X26972693Y-65058654D01*
X27013457Y-65002147D01*
X27061245Y-64936204D01*
X27114498Y-64862957D01*
X27171655Y-64784536D01*
X27231155Y-64703072D01*
X27291437Y-64620698D01*
X27350940Y-64539544D01*
X27408105Y-64461742D01*
X27461370Y-64389423D01*
X27509174Y-64324718D01*
X27549957Y-64269759D01*
X27582158Y-64226676D01*
X27604216Y-64197602D01*
X27614571Y-64184667D01*
X27619044Y-64180351D01*
X27623236Y-64178312D01*
X27626643Y-64180926D01*
X27629325Y-64189986D01*
X27631341Y-64207285D01*
X27632748Y-64234614D01*
X27633605Y-64273765D01*
X27633970Y-64326533D01*
X27633903Y-64394707D01*
X27633460Y-64480082D01*
X27632702Y-64584449D01*
X27631685Y-64709600D01*
X27631308Y-64754300D01*
X27630169Y-64875395D01*
X27628972Y-64976688D01*
X27627636Y-65060262D01*
X27626077Y-65128204D01*
X27624215Y-65182599D01*
X27621966Y-65225532D01*
X27619248Y-65259089D01*
X27615979Y-65285355D01*
X27612078Y-65306416D01*
X27607461Y-65324357D01*
X27599192Y-65350770D01*
X27575583Y-65412772D01*
X27549685Y-65465573D01*
X27524535Y-65502645D01*
X27523339Y-65504075D01*
X27521168Y-65508424D01*
X27523328Y-65512026D01*
X27531644Y-65514951D01*
X27547940Y-65517269D01*
X27574041Y-65519051D01*
X27611771Y-65520367D01*
X27662956Y-65521286D01*
X27729420Y-65521878D01*
X27812987Y-65522215D01*
X27915483Y-65522365D01*
X28038732Y-65522400D01*
X28570296Y-65522400D01*
X28531523Y-65464783D01*
X28525432Y-65455893D01*
X28514976Y-65441069D01*
X28505579Y-65427422D01*
X28497183Y-65413765D01*
X28489733Y-65398911D01*
X28483173Y-65381670D01*
X28477446Y-65360855D01*
X28472495Y-65335280D01*
X28468266Y-65303755D01*
X28464701Y-65265093D01*
X28461744Y-65218107D01*
X28459340Y-65161608D01*
X28457431Y-65094409D01*
X28455962Y-65015322D01*
X28454876Y-64923160D01*
X28454118Y-64816734D01*
X28453630Y-64694857D01*
X28453358Y-64556341D01*
X28453243Y-64399999D01*
X28453231Y-64224642D01*
X28453265Y-64029082D01*
X28453289Y-63812133D01*
X28453280Y-63689513D01*
X28453243Y-63484447D01*
X28453227Y-63300116D01*
X28453288Y-63135334D01*
X28453484Y-62988916D01*
X28453870Y-62859674D01*
X28454505Y-62746422D01*
X28455444Y-62647975D01*
X28456745Y-62563144D01*
X28458464Y-62490744D01*
X28460659Y-62429589D01*
X28463385Y-62378492D01*
X28466701Y-62336267D01*
X28470662Y-62301727D01*
X28475325Y-62273686D01*
X28480747Y-62250958D01*
X28486986Y-62232356D01*
X28494097Y-62216693D01*
X28502138Y-62202784D01*
X28511166Y-62189441D01*
X28521236Y-62175479D01*
X28532407Y-62159711D01*
X28572197Y-62101867D01*
X27512314Y-62101867D01*
X27550311Y-62164966D01*
X27564993Y-62190005D01*
X27579531Y-62217586D01*
X27591627Y-62245700D01*
X27601532Y-62276551D01*
X27609494Y-62312344D01*
X27615761Y-62355283D01*
X27620582Y-62407574D01*
X27624206Y-62471419D01*
X27626881Y-62549025D01*
X27628857Y-62642594D01*
X27630382Y-62754333D01*
X27631704Y-62886445D01*
X27632613Y-63006434D01*
X27633020Y-63123063D01*
X27632767Y-63218531D01*
X27631857Y-63292556D01*
X27630293Y-63344855D01*
X27628079Y-63375149D01*
X27625220Y-63383156D01*
X27622161Y-63379858D01*
X27604006Y-63358408D01*
X27574275Y-63321889D01*
X27534639Y-63272442D01*
X27486771Y-63212207D01*
X27432343Y-63143327D01*
X27373027Y-63067943D01*
X27310495Y-62988196D01*
X27246421Y-62906228D01*
X27182475Y-62824180D01*
X27120331Y-62744194D01*
X27061661Y-62668411D01*
X27008137Y-62598973D01*
X26961430Y-62538021D01*
X26923214Y-62487696D01*
X26895161Y-62450140D01*
X26878943Y-62427495D01*
X26833635Y-62355212D01*
X26793661Y-62275463D01*
X26772130Y-62207188D01*
X26768827Y-62149844D01*
X26774116Y-62101867D01*
X25642356Y-62102117D01*
X25681867Y-62132722D01*
X25691248Y-62140089D01*
X25754183Y-62194438D01*
X25822997Y-62262259D01*
X25899596Y-62345516D01*
X25985888Y-62446178D01*
X26003052Y-62466847D01*
X26043833Y-62516409D01*
X26093588Y-62577326D01*
X26150955Y-62647898D01*
X26214569Y-62726424D01*
X26283069Y-62811204D01*
X26355090Y-62900537D01*
X26429270Y-62992722D01*
X26444517Y-63011702D01*
X26504246Y-63086060D01*
X26578653Y-63178848D01*
X26651131Y-63269388D01*
X26720314Y-63355978D01*
X26784841Y-63436918D01*
X26843347Y-63510506D01*
X26894470Y-63575044D01*
X26936847Y-63628829D01*
X26969115Y-63670162D01*
X26989910Y-63697342D01*
X26997869Y-63708668D01*
X26996111Y-63712771D01*
X26983230Y-63733334D01*
X26958885Y-63769561D01*
X26924247Y-63819824D01*
X26880486Y-63882492D01*
X26828775Y-63955936D01*
X26770284Y-64038527D01*
X26706184Y-64128636D01*
X26637646Y-64224631D01*
X26565843Y-64324885D01*
X26491944Y-64427768D01*
X26417121Y-64531650D01*
X26342545Y-64634901D01*
X26269387Y-64735892D01*
X26198819Y-64832994D01*
X26132011Y-64924577D01*
X26070135Y-65009011D01*
X26014361Y-65084667D01*
X25965862Y-65149916D01*
X25925807Y-65203128D01*
X25895369Y-65242673D01*
X25874944Y-65268026D01*
X25828899Y-65322295D01*
X25778612Y-65378775D01*
X25731815Y-65428669D01*
X25640651Y-65522400D01*
X24942445Y-65522400D01*
X25011356Y-65522349D01*
X25109607Y-65522091D01*
X25199030Y-65521637D01*
X25277333Y-65521010D01*
X25342223Y-65520235D01*
X25391411Y-65519335D01*
X25422604Y-65518334D01*
X25433511Y-65517257D01*
X25432322Y-65514037D01*
X25422176Y-65496452D01*
X25405040Y-65470158D01*
X25396540Y-65457691D01*
X25387329Y-65443622D01*
X25379233Y-65429351D01*
X25372185Y-65413479D01*
X25366117Y-65394609D01*
X25360961Y-65371341D01*
X25356651Y-65342278D01*
X25353119Y-65306021D01*
X25350297Y-65261170D01*
X25348118Y-65206328D01*
X25346514Y-65140097D01*
X25345419Y-65061077D01*
X25344765Y-64967871D01*
X25344484Y-64859079D01*
X25344509Y-64733303D01*
X25344772Y-64589145D01*
X25345206Y-64425207D01*
X25345745Y-64240089D01*
X25346279Y-64061232D01*
X25346805Y-63902374D01*
X25347350Y-63763316D01*
X25347945Y-63642665D01*
X25348619Y-63539028D01*
X25349403Y-63451011D01*
X25350326Y-63377223D01*
X25351419Y-63316269D01*
X25352712Y-63266757D01*
X25354235Y-63227293D01*
X25356019Y-63196484D01*
X25358092Y-63172938D01*
X25360486Y-63155260D01*
X25363230Y-63142059D01*
X25366356Y-63131940D01*
X25369892Y-63123511D01*
X25373791Y-63115375D01*
X25393438Y-63078544D01*
X25412225Y-63048391D01*
X25413272Y-63046908D01*
X25427602Y-63024659D01*
X25433511Y-63011702D01*
X25432504Y-63011249D01*
X25415305Y-63009803D01*
X25378656Y-63008480D01*
X25324962Y-63007316D01*
X25256630Y-63006347D01*
X25176064Y-63005611D01*
X25085670Y-63005142D01*
X24987853Y-63004978D01*
X24542195Y-63004978D01*
X24539120Y-64181845D01*
X24536045Y-65358711D01*
X24509407Y-65417622D01*
X24497485Y-65442183D01*
X24480246Y-65472434D01*
X24467074Y-65489560D01*
X24459076Y-65497591D01*
X24451378Y-65512493D01*
X24159942Y-65512493D01*
X24159474Y-65420029D01*
X24159050Y-65304617D01*
X24158706Y-65174160D01*
X24158434Y-65027716D01*
X24158227Y-64864344D01*
X24158076Y-64683101D01*
X24157972Y-64483048D01*
X24157908Y-64263241D01*
X24157876Y-64022739D01*
X24157867Y-63760602D01*
X24157867Y-61569031D01*
X24196249Y-61530649D01*
X24223355Y-61506911D01*
X24250253Y-61495111D01*
X24286560Y-61492267D01*
X24338489Y-61492267D01*
X24338489Y-61580206D01*
X24340427Y-61630102D01*
X24359199Y-61740523D01*
X24396217Y-61841987D01*
X24449369Y-61933152D01*
X24516546Y-62012673D01*
X24595638Y-62079205D01*
X24684534Y-62131406D01*
X24781125Y-62167930D01*
X24883300Y-62187434D01*
X24988950Y-62188573D01*
X25095964Y-62170005D01*
X25202232Y-62130384D01*
X25299219Y-62072516D01*
X25384293Y-61997684D01*
X25453015Y-61909615D01*
X25503918Y-61810616D01*
X25535535Y-61702993D01*
X25546400Y-61589054D01*
X25546400Y-61492267D01*
X27166753Y-61492267D01*
X27377897Y-61492280D01*
X27582020Y-61492330D01*
X27765686Y-61492430D01*
X27929991Y-61492592D01*
X28076029Y-61492829D01*
X28204894Y-61493153D01*
X28317683Y-61493575D01*
X28415488Y-61494109D01*
X28499404Y-61494767D01*
X28570527Y-61495561D01*
X28629950Y-61496504D01*
X28678768Y-61497608D01*
X28718077Y-61498884D01*
X28748969Y-61500347D01*
X28772541Y-61502007D01*
X28789886Y-61503878D01*
X28802099Y-61505972D01*
X28810275Y-61508300D01*
X28815508Y-61510876D01*
X28821504Y-61514445D01*
X28828279Y-61517978D01*
X28834478Y-61521488D01*
X28840126Y-61525918D01*
X28845247Y-61532208D01*
X28849869Y-61541301D01*
X28854015Y-61554139D01*
X28857713Y-61571662D01*
X28860987Y-61594813D01*
X28863863Y-61624534D01*
X28866367Y-61661765D01*
X28868524Y-61707449D01*
X28870360Y-61762527D01*
X28871900Y-61827941D01*
X28873170Y-61904633D01*
X28874195Y-61993544D01*
X28875001Y-62095617D01*
X28875034Y-62101867D01*
X28875614Y-62211792D01*
X28876059Y-62343011D01*
G37*
X28876059Y-62343011D02*
X28876362Y-62490216D01*
X28876548Y-62654349D01*
X28876642Y-62836352D01*
X28876671Y-63037165D01*
X28876661Y-63257732D01*
X28876636Y-63498992D01*
X28876622Y-63761889D01*
X28876622Y-63804040D01*
X28876646Y-64064668D01*
X28876685Y-64303796D01*
X28876708Y-64522360D01*
X28876687Y-64721295D01*
X28876593Y-64901535D01*
X28876395Y-65064015D01*
X28876063Y-65209670D01*
X28875569Y-65339434D01*
X28874883Y-65454243D01*
X28873976Y-65555030D01*
X28872817Y-65642730D01*
X28871378Y-65718279D01*
X28869629Y-65782611D01*
X28867540Y-65836661D01*
X28865083Y-65881363D01*
X28862227Y-65917652D01*
X28858943Y-65946463D01*
X28855202Y-65968731D01*
X28850974Y-65985390D01*
X28846229Y-65997375D01*
X28840939Y-66005621D01*
X28835073Y-66011062D01*
X28828602Y-66014634D01*
X28821497Y-66017270D01*
X28813728Y-66019906D01*
X28805266Y-66023477D01*
X28800908Y-66025145D01*
X28792395Y-66027111D01*
X28779694Y-66028911D01*
X28761885Y-66030555D01*
X28738049Y-66032047D01*
X28707266Y-66033397D01*
X28668617Y-66034611D01*
X28621182Y-66035697D01*
X28564043Y-66036661D01*
X28496279Y-66037511D01*
X28416971Y-66038253D01*
X28325199Y-66038897D01*
X28220044Y-66039447D01*
X28100587Y-66039913D01*
X27965908Y-66040300D01*
X27815088Y-66040616D01*
X27647206Y-66040869D01*
X27461345Y-66041066D01*
X27256583Y-66041213D01*
X27032002Y-66041318D01*
X26786682Y-66041389D01*
X26519704Y-66041432D01*
X26481321Y-66041437D01*
X26215922Y-66041480D01*
X25972050Y-66041525D01*
X25748783Y-66041548D01*
X25545196Y-66041524D01*
X25360367Y-66041430D01*
X25193373Y-66041243D01*
X25043290Y-66040939D01*
X24909196Y-66040494D01*
X24790166Y-66039885D01*
X24685279Y-66039089D01*
X24593610Y-66038080D01*
X24514237Y-66036837D01*
X24446237Y-66035335D01*
X24388686Y-66033551D01*
X24340662Y-66031461D01*
X24301240Y-66029042D01*
X24269499Y-66026270D01*
X24244514Y-66023121D01*
X24225364Y-66019572D01*
X24211123Y-66015598D01*
X24200871Y-66011178D01*
X24193682Y-66006286D01*
X24188635Y-66000900D01*
X24184805Y-65994996D01*
X24181271Y-65988549D01*
X24177108Y-65981537D01*
X24176025Y-65979687D01*
X24173813Y-65974180D01*
X24171786Y-65965868D01*
X24169938Y-65953809D01*
X24168261Y-65937063D01*
X24166745Y-65914687D01*
X24165383Y-65885740D01*
X24164167Y-65849280D01*
X24163089Y-65804367D01*
X24162140Y-65750057D01*
X24161312Y-65685410D01*
X24160597Y-65609484D01*
X24159987Y-65521338D01*
X24159942Y-65512493D01*
X24451378Y-65512493D01*
X24455260Y-65513765D01*
X24478520Y-65515791D01*
X24520874Y-65517626D01*
X24580132Y-65519227D01*
X24654107Y-65520549D01*
X24740610Y-65521548D01*
X24837452Y-65522180D01*
X24942445Y-65522400D01*
X25640651Y-65522400D01*
X26795090Y-65522400D01*
X26794456Y-65446200D01*
X26795574Y-65404160D01*
X26801304Y-65368334D01*
X26813890Y-65330772D01*
X26835568Y-65282577D01*
X26838789Y-65275897D01*
X26864188Y-65226359D01*
X26890996Y-65178369D01*
X26913917Y-65141466D01*
X26918485Y-65134834D01*
X26940516Y-65103593D01*
X26972693Y-65058654D01*
X27013457Y-65002147D01*
X27061245Y-64936204D01*
X27114498Y-64862957D01*
X27171655Y-64784536D01*
X27231155Y-64703072D01*
X27291437Y-64620698D01*
X27350940Y-64539544D01*
X27408105Y-64461742D01*
X27461370Y-64389423D01*
X27509174Y-64324718D01*
X27549957Y-64269759D01*
X27582158Y-64226676D01*
X27604216Y-64197602D01*
X27614571Y-64184667D01*
X27619044Y-64180351D01*
X27623236Y-64178312D01*
X27626643Y-64180926D01*
X27629325Y-64189986D01*
X27631341Y-64207285D01*
X27632748Y-64234614D01*
X27633605Y-64273765D01*
X27633970Y-64326533D01*
X27633903Y-64394707D01*
X27633460Y-64480082D01*
X27632702Y-64584449D01*
X27631685Y-64709600D01*
X27631308Y-64754300D01*
X27630169Y-64875395D01*
X27628972Y-64976688D01*
X27627636Y-65060262D01*
X27626077Y-65128204D01*
X27624215Y-65182599D01*
X27621966Y-65225532D01*
X27619248Y-65259089D01*
X27615979Y-65285355D01*
X27612078Y-65306416D01*
X27607461Y-65324357D01*
X27599192Y-65350770D01*
X27575583Y-65412772D01*
X27549685Y-65465573D01*
X27524535Y-65502645D01*
X27523339Y-65504075D01*
X27521168Y-65508424D01*
X27523328Y-65512026D01*
X27531644Y-65514951D01*
X27547940Y-65517269D01*
X27574041Y-65519051D01*
X27611771Y-65520367D01*
X27662956Y-65521286D01*
X27729420Y-65521878D01*
X27812987Y-65522215D01*
X27915483Y-65522365D01*
X28038732Y-65522400D01*
X28570296Y-65522400D01*
X28531523Y-65464783D01*
X28525432Y-65455893D01*
X28514976Y-65441069D01*
X28505579Y-65427422D01*
X28497183Y-65413765D01*
X28489733Y-65398911D01*
X28483173Y-65381670D01*
X28477446Y-65360855D01*
X28472495Y-65335280D01*
X28468266Y-65303755D01*
X28464701Y-65265093D01*
X28461744Y-65218107D01*
X28459340Y-65161608D01*
X28457431Y-65094409D01*
X28455962Y-65015322D01*
X28454876Y-64923160D01*
X28454118Y-64816734D01*
X28453630Y-64694857D01*
X28453358Y-64556341D01*
X28453243Y-64399999D01*
X28453231Y-64224642D01*
X28453265Y-64029082D01*
X28453289Y-63812133D01*
X28453280Y-63689513D01*
X28453243Y-63484447D01*
X28453227Y-63300116D01*
X28453288Y-63135334D01*
X28453484Y-62988916D01*
X28453870Y-62859674D01*
X28454505Y-62746422D01*
X28455444Y-62647975D01*
X28456745Y-62563144D01*
X28458464Y-62490744D01*
X28460659Y-62429589D01*
X28463385Y-62378492D01*
X28466701Y-62336267D01*
X28470662Y-62301727D01*
X28475325Y-62273686D01*
X28480747Y-62250958D01*
X28486986Y-62232356D01*
X28494097Y-62216693D01*
X28502138Y-62202784D01*
X28511166Y-62189441D01*
X28521236Y-62175479D01*
X28532407Y-62159711D01*
X28572197Y-62101867D01*
X27512314Y-62101867D01*
X27550311Y-62164966D01*
X27564993Y-62190005D01*
X27579531Y-62217586D01*
X27591627Y-62245700D01*
X27601532Y-62276551D01*
X27609494Y-62312344D01*
X27615761Y-62355283D01*
X27620582Y-62407574D01*
X27624206Y-62471419D01*
X27626881Y-62549025D01*
X27628857Y-62642594D01*
X27630382Y-62754333D01*
X27631704Y-62886445D01*
X27632613Y-63006434D01*
X27633020Y-63123063D01*
X27632767Y-63218531D01*
X27631857Y-63292556D01*
X27630293Y-63344855D01*
X27628079Y-63375149D01*
X27625220Y-63383156D01*
X27622161Y-63379858D01*
X27604006Y-63358408D01*
X27574275Y-63321889D01*
X27534639Y-63272442D01*
X27486771Y-63212207D01*
X27432343Y-63143327D01*
X27373027Y-63067943D01*
X27310495Y-62988196D01*
X27246421Y-62906228D01*
X27182475Y-62824180D01*
X27120331Y-62744194D01*
X27061661Y-62668411D01*
X27008137Y-62598973D01*
X26961430Y-62538021D01*
X26923214Y-62487696D01*
X26895161Y-62450140D01*
X26878943Y-62427495D01*
X26833635Y-62355212D01*
X26793661Y-62275463D01*
X26772130Y-62207188D01*
X26768827Y-62149844D01*
X26774116Y-62101867D01*
X25642356Y-62102117D01*
X25681867Y-62132722D01*
X25691248Y-62140089D01*
X25754183Y-62194438D01*
X25822997Y-62262259D01*
X25899596Y-62345516D01*
X25985888Y-62446178D01*
X26003052Y-62466847D01*
X26043833Y-62516409D01*
X26093588Y-62577326D01*
X26150955Y-62647898D01*
X26214569Y-62726424D01*
X26283069Y-62811204D01*
X26355090Y-62900537D01*
X26429270Y-62992722D01*
X26444517Y-63011702D01*
X26504246Y-63086060D01*
X26578653Y-63178848D01*
X26651131Y-63269388D01*
X26720314Y-63355978D01*
X26784841Y-63436918D01*
X26843347Y-63510506D01*
X26894470Y-63575044D01*
X26936847Y-63628829D01*
X26969115Y-63670162D01*
X26989910Y-63697342D01*
X26997869Y-63708668D01*
X26996111Y-63712771D01*
X26983230Y-63733334D01*
X26958885Y-63769561D01*
X26924247Y-63819824D01*
X26880486Y-63882492D01*
X26828775Y-63955936D01*
X26770284Y-64038527D01*
X26706184Y-64128636D01*
X26637646Y-64224631D01*
X26565843Y-64324885D01*
X26491944Y-64427768D01*
X26417121Y-64531650D01*
X26342545Y-64634901D01*
X26269387Y-64735892D01*
X26198819Y-64832994D01*
X26132011Y-64924577D01*
X26070135Y-65009011D01*
X26014361Y-65084667D01*
X25965862Y-65149916D01*
X25925807Y-65203128D01*
X25895369Y-65242673D01*
X25874944Y-65268026D01*
X25828899Y-65322295D01*
X25778612Y-65378775D01*
X25731815Y-65428669D01*
X25640651Y-65522400D01*
X24942445Y-65522400D01*
X25011356Y-65522349D01*
X25109607Y-65522091D01*
X25199030Y-65521637D01*
X25277333Y-65521010D01*
X25342223Y-65520235D01*
X25391411Y-65519335D01*
X25422604Y-65518334D01*
X25433511Y-65517257D01*
X25432322Y-65514037D01*
X25422176Y-65496452D01*
X25405040Y-65470158D01*
X25396540Y-65457691D01*
X25387329Y-65443622D01*
X25379233Y-65429351D01*
X25372185Y-65413479D01*
X25366117Y-65394609D01*
X25360961Y-65371341D01*
X25356651Y-65342278D01*
X25353119Y-65306021D01*
X25350297Y-65261170D01*
X25348118Y-65206328D01*
X25346514Y-65140097D01*
X25345419Y-65061077D01*
X25344765Y-64967871D01*
X25344484Y-64859079D01*
X25344509Y-64733303D01*
X25344772Y-64589145D01*
X25345206Y-64425207D01*
X25345745Y-64240089D01*
X25346279Y-64061232D01*
X25346805Y-63902374D01*
X25347350Y-63763316D01*
X25347945Y-63642665D01*
X25348619Y-63539028D01*
X25349403Y-63451011D01*
X25350326Y-63377223D01*
X25351419Y-63316269D01*
X25352712Y-63266757D01*
X25354235Y-63227293D01*
X25356019Y-63196484D01*
X25358092Y-63172938D01*
X25360486Y-63155260D01*
X25363230Y-63142059D01*
X25366356Y-63131940D01*
X25369892Y-63123511D01*
X25373791Y-63115375D01*
X25393438Y-63078544D01*
X25412225Y-63048391D01*
X25413272Y-63046908D01*
X25427602Y-63024659D01*
X25433511Y-63011702D01*
X25432504Y-63011249D01*
X25415305Y-63009803D01*
X25378656Y-63008480D01*
X25324962Y-63007316D01*
X25256630Y-63006347D01*
X25176064Y-63005611D01*
X25085670Y-63005142D01*
X24987853Y-63004978D01*
X24542195Y-63004978D01*
X24539120Y-64181845D01*
X24536045Y-65358711D01*
X24509407Y-65417622D01*
X24497485Y-65442183D01*
X24480246Y-65472434D01*
X24467074Y-65489560D01*
X24459076Y-65497591D01*
X24451378Y-65512493D01*
X24159942Y-65512493D01*
X24159474Y-65420029D01*
X24159050Y-65304617D01*
X24158706Y-65174160D01*
X24158434Y-65027716D01*
X24158227Y-64864344D01*
X24158076Y-64683101D01*
X24157972Y-64483048D01*
X24157908Y-64263241D01*
X24157876Y-64022739D01*
X24157867Y-63760602D01*
X24157867Y-61569031D01*
X24196249Y-61530649D01*
X24223355Y-61506911D01*
X24250253Y-61495111D01*
X24286560Y-61492267D01*
X24338489Y-61492267D01*
X24338489Y-61580206D01*
X24340427Y-61630102D01*
X24359199Y-61740523D01*
X24396217Y-61841987D01*
X24449369Y-61933152D01*
X24516546Y-62012673D01*
X24595638Y-62079205D01*
X24684534Y-62131406D01*
X24781125Y-62167930D01*
X24883300Y-62187434D01*
X24988950Y-62188573D01*
X25095964Y-62170005D01*
X25202232Y-62130384D01*
X25299219Y-62072516D01*
X25384293Y-61997684D01*
X25453015Y-61909615D01*
X25503918Y-61810616D01*
X25535535Y-61702993D01*
X25546400Y-61589054D01*
X25546400Y-61492267D01*
X27166753Y-61492267D01*
X27377897Y-61492280D01*
X27582020Y-61492330D01*
X27765686Y-61492430D01*
X27929991Y-61492592D01*
X28076029Y-61492829D01*
X28204894Y-61493153D01*
X28317683Y-61493575D01*
X28415488Y-61494109D01*
X28499404Y-61494767D01*
X28570527Y-61495561D01*
X28629950Y-61496504D01*
X28678768Y-61497608D01*
X28718077Y-61498884D01*
X28748969Y-61500347D01*
X28772541Y-61502007D01*
X28789886Y-61503878D01*
X28802099Y-61505972D01*
X28810275Y-61508300D01*
X28815508Y-61510876D01*
X28821504Y-61514445D01*
X28828279Y-61517978D01*
X28834478Y-61521488D01*
X28840126Y-61525918D01*
X28845247Y-61532208D01*
X28849869Y-61541301D01*
X28854015Y-61554139D01*
X28857713Y-61571662D01*
X28860987Y-61594813D01*
X28863863Y-61624534D01*
X28866367Y-61661765D01*
X28868524Y-61707449D01*
X28870360Y-61762527D01*
X28871900Y-61827941D01*
X28873170Y-61904633D01*
X28874195Y-61993544D01*
X28875001Y-62095617D01*
X28875034Y-62101867D01*
X28875614Y-62211792D01*
X28876059Y-62343011D01*
G36*
X25054562Y-61132850D02*
G01*
X25137313Y-61160053D01*
X25212406Y-61205484D01*
X25284298Y-61271302D01*
X25322846Y-61315567D01*
X25362256Y-61373961D01*
X25387446Y-61434586D01*
X25400861Y-61503865D01*
X25404948Y-61588222D01*
X25404669Y-61634307D01*
X25402460Y-61675450D01*
X25396894Y-61707582D01*
X25386586Y-61738122D01*
X25370148Y-61774489D01*
X25356200Y-61801728D01*
X25297665Y-61887429D01*
X25225619Y-61956617D01*
X25141947Y-62007741D01*
X25048531Y-62039250D01*
X25015434Y-62046225D01*
X24974960Y-62053094D01*
X24941999Y-62054919D01*
X24907698Y-62051947D01*
X24863200Y-62044426D01*
X24811934Y-62032002D01*
X24721434Y-61994112D01*
X24642345Y-61939836D01*
X24576528Y-61871770D01*
X24525840Y-61792511D01*
X24492140Y-61704654D01*
X24477286Y-61610795D01*
X24483136Y-61513530D01*
X24509399Y-61417220D01*
X24554418Y-61328494D01*
X24615373Y-61253419D01*
X24690184Y-61193641D01*
X24776768Y-61150809D01*
X24873043Y-61126571D01*
X24976928Y-61122576D01*
X25054562Y-61132850D01*
G37*
X25054562Y-61132850D02*
X25137313Y-61160053D01*
X25212406Y-61205484D01*
X25284298Y-61271302D01*
X25322846Y-61315567D01*
X25362256Y-61373961D01*
X25387446Y-61434586D01*
X25400861Y-61503865D01*
X25404948Y-61588222D01*
X25404669Y-61634307D01*
X25402460Y-61675450D01*
X25396894Y-61707582D01*
X25386586Y-61738122D01*
X25370148Y-61774489D01*
X25356200Y-61801728D01*
X25297665Y-61887429D01*
X25225619Y-61956617D01*
X25141947Y-62007741D01*
X25048531Y-62039250D01*
X25015434Y-62046225D01*
X24974960Y-62053094D01*
X24941999Y-62054919D01*
X24907698Y-62051947D01*
X24863200Y-62044426D01*
X24811934Y-62032002D01*
X24721434Y-61994112D01*
X24642345Y-61939836D01*
X24576528Y-61871770D01*
X24525840Y-61792511D01*
X24492140Y-61704654D01*
X24477286Y-61610795D01*
X24483136Y-61513530D01*
X24509399Y-61417220D01*
X24554418Y-61328494D01*
X24615373Y-61253419D01*
X24690184Y-61193641D01*
X24776768Y-61150809D01*
X24873043Y-61126571D01*
X24976928Y-61122576D01*
X25054562Y-61132850D01*
G36*
X23931893Y-66367892D02*
G01*
X23943301Y-66374029D01*
X23953850Y-66384691D01*
X23965136Y-66398811D01*
X23969589Y-66404772D01*
X23975588Y-66415268D01*
X23980167Y-66429093D01*
X23983519Y-66448998D01*
X23985833Y-66477732D01*
X23987301Y-66518045D01*
X23988113Y-66572687D01*
X23988460Y-66644407D01*
X23988534Y-66735956D01*
X23988511Y-66794486D01*
X23988292Y-66873573D01*
X23987683Y-66934516D01*
X23986492Y-66980062D01*
X23984529Y-67012963D01*
X23981603Y-67035968D01*
X23977523Y-67051826D01*
X23972097Y-67063286D01*
X23965136Y-67073100D01*
X23934708Y-67097493D01*
X23899765Y-67100372D01*
X23862784Y-67081282D01*
X23858600Y-67077807D01*
X23850424Y-67069279D01*
X23844364Y-67057728D01*
X23839981Y-67039896D01*
X23836839Y-67012524D01*
X23834502Y-66972354D01*
X23832531Y-66916128D01*
X23830489Y-66840589D01*
X23824845Y-66621458D01*
X23559556Y-66862099D01*
X23485722Y-66928875D01*
X23420542Y-66986991D01*
X23368348Y-67031949D01*
X23327273Y-67064871D01*
X23295455Y-67086879D01*
X23271026Y-67099094D01*
X23252124Y-67102639D01*
X23236883Y-67098636D01*
X23223439Y-67088207D01*
X23209927Y-67072474D01*
X23203682Y-67063991D01*
X23198050Y-67053413D01*
X23193839Y-67039255D01*
X23190887Y-67018803D01*
X23189032Y-66989342D01*
X23188113Y-66948161D01*
X23187968Y-66892544D01*
X23188435Y-66819779D01*
X23189352Y-66727151D01*
X23192667Y-66412199D01*
X23219318Y-66390633D01*
X23245383Y-66374441D01*
X23278241Y-66371670D01*
X23312772Y-66390623D01*
X23317084Y-66394208D01*
X23325216Y-66402737D01*
X23331245Y-66414329D01*
X23335606Y-66432235D01*
X23338734Y-66459706D01*
X23341063Y-66499994D01*
X23343029Y-66556351D01*
X23345067Y-66632029D01*
X23350711Y-66851878D01*
X23531334Y-66688084D01*
X23618072Y-66609451D01*
X23693843Y-66541058D01*
X23755980Y-66485708D01*
X23806078Y-66442338D01*
X23845735Y-66409881D01*
X23876548Y-66387273D01*
X23900114Y-66373448D01*
X23918030Y-66367343D01*
X23931893Y-66367892D01*
G37*
X23931893Y-66367892D02*
X23943301Y-66374029D01*
X23953850Y-66384691D01*
X23965136Y-66398811D01*
X23969589Y-66404772D01*
X23975588Y-66415268D01*
X23980167Y-66429093D01*
X23983519Y-66448998D01*
X23985833Y-66477732D01*
X23987301Y-66518045D01*
X23988113Y-66572687D01*
X23988460Y-66644407D01*
X23988534Y-66735956D01*
X23988511Y-66794486D01*
X23988292Y-66873573D01*
X23987683Y-66934516D01*
X23986492Y-66980062D01*
X23984529Y-67012963D01*
X23981603Y-67035968D01*
X23977523Y-67051826D01*
X23972097Y-67063286D01*
X23965136Y-67073100D01*
X23934708Y-67097493D01*
X23899765Y-67100372D01*
X23862784Y-67081282D01*
X23858600Y-67077807D01*
X23850424Y-67069279D01*
X23844364Y-67057728D01*
X23839981Y-67039896D01*
X23836839Y-67012524D01*
X23834502Y-66972354D01*
X23832531Y-66916128D01*
X23830489Y-66840589D01*
X23824845Y-66621458D01*
X23559556Y-66862099D01*
X23485722Y-66928875D01*
X23420542Y-66986991D01*
X23368348Y-67031949D01*
X23327273Y-67064871D01*
X23295455Y-67086879D01*
X23271026Y-67099094D01*
X23252124Y-67102639D01*
X23236883Y-67098636D01*
X23223439Y-67088207D01*
X23209927Y-67072474D01*
X23203682Y-67063991D01*
X23198050Y-67053413D01*
X23193839Y-67039255D01*
X23190887Y-67018803D01*
X23189032Y-66989342D01*
X23188113Y-66948161D01*
X23187968Y-66892544D01*
X23188435Y-66819779D01*
X23189352Y-66727151D01*
X23192667Y-66412199D01*
X23219318Y-66390633D01*
X23245383Y-66374441D01*
X23278241Y-66371670D01*
X23312772Y-66390623D01*
X23317084Y-66394208D01*
X23325216Y-66402737D01*
X23331245Y-66414329D01*
X23335606Y-66432235D01*
X23338734Y-66459706D01*
X23341063Y-66499994D01*
X23343029Y-66556351D01*
X23345067Y-66632029D01*
X23350711Y-66851878D01*
X23531334Y-66688084D01*
X23618072Y-66609451D01*
X23693843Y-66541058D01*
X23755980Y-66485708D01*
X23806078Y-66442338D01*
X23845735Y-66409881D01*
X23876548Y-66387273D01*
X23900114Y-66373448D01*
X23918030Y-66367343D01*
X23931893Y-66367892D01*
G36*
X27456734Y-66369083D02*
G01*
X27533831Y-66369275D01*
X27592777Y-66369860D01*
X27636364Y-66371051D01*
X27667383Y-66373064D01*
X27688625Y-66376112D01*
X27702882Y-66380409D01*
X27712945Y-66386172D01*
X27721606Y-66393612D01*
X27723391Y-66395293D01*
X27730635Y-66402832D01*
X27736277Y-66411850D01*
X27740517Y-66424984D01*
X27743556Y-66444872D01*
X27745594Y-66474151D01*
X27746830Y-66515458D01*
X27747465Y-66571431D01*
X27747700Y-66644707D01*
X27747734Y-66737923D01*
X27747697Y-66810713D01*
X27747448Y-66888889D01*
X27746812Y-66949103D01*
X27745615Y-66993982D01*
X27743684Y-67026152D01*
X27740846Y-67048239D01*
X27736927Y-67062870D01*
X27731755Y-67072670D01*
X27725156Y-67080267D01*
X27721822Y-67083444D01*
X27713300Y-67089554D01*
X27701298Y-67094229D01*
X27683087Y-67097659D01*
X27655940Y-67100036D01*
X27617129Y-67101552D01*
X27563924Y-67102398D01*
X27493598Y-67102765D01*
X27403422Y-67102845D01*
X27361314Y-67102833D01*
X27280167Y-67102651D01*
X27217675Y-67102098D01*
X27171109Y-67100982D01*
X27137741Y-67099113D01*
X27114844Y-67096298D01*
X27099688Y-67092346D01*
X27089546Y-67087066D01*
X27081689Y-67080267D01*
X27066963Y-67058667D01*
X27059111Y-67029467D01*
X27064610Y-67005560D01*
X27081689Y-66978667D01*
X27086668Y-66974059D01*
X27096443Y-66967772D01*
X27110559Y-66963146D01*
X27132054Y-66959930D01*
X27163968Y-66957870D01*
X27209342Y-66956712D01*
X27271213Y-66956202D01*
X27352622Y-66956089D01*
X27600978Y-66956089D01*
X27600978Y-66798045D01*
X27439801Y-66798045D01*
X27403983Y-66797899D01*
X27338359Y-66796176D01*
X27291118Y-66791741D01*
X27259383Y-66783637D01*
X27240277Y-66770906D01*
X27230923Y-66752592D01*
X27228445Y-66727738D01*
X27229242Y-66707482D01*
X27234494Y-66685656D01*
X27247288Y-66670304D01*
X27270628Y-66660309D01*
X27307517Y-66654553D01*
X27360959Y-66651919D01*
X27433958Y-66651289D01*
X27602105Y-66651289D01*
X27598719Y-66586378D01*
X27595334Y-66521467D01*
X27347617Y-66518418D01*
X27285026Y-66517539D01*
X27216565Y-66516095D01*
X27165661Y-66514164D01*
X27129408Y-66511514D01*
X27104901Y-66507910D01*
X27089235Y-66503121D01*
X27079506Y-66496913D01*
X27073491Y-66490510D01*
X27060482Y-66458828D01*
X27064043Y-66423142D01*
X27083818Y-66392084D01*
X27087069Y-66389161D01*
X27096049Y-66382810D01*
X27108153Y-66377957D01*
X27126159Y-66374403D01*
X27152847Y-66371946D01*
X27190997Y-66370385D01*
X27243386Y-66369518D01*
X27312794Y-66369146D01*
X27402001Y-66369067D01*
X27456734Y-66369083D01*
G37*
X27456734Y-66369083D02*
X27533831Y-66369275D01*
X27592777Y-66369860D01*
X27636364Y-66371051D01*
X27667383Y-66373064D01*
X27688625Y-66376112D01*
X27702882Y-66380409D01*
X27712945Y-66386172D01*
X27721606Y-66393612D01*
X27723391Y-66395293D01*
X27730635Y-66402832D01*
X27736277Y-66411850D01*
X27740517Y-66424984D01*
X27743556Y-66444872D01*
X27745594Y-66474151D01*
X27746830Y-66515458D01*
X27747465Y-66571431D01*
X27747700Y-66644707D01*
X27747734Y-66737923D01*
X27747697Y-66810713D01*
X27747448Y-66888889D01*
X27746812Y-66949103D01*
X27745615Y-66993982D01*
X27743684Y-67026152D01*
X27740846Y-67048239D01*
X27736927Y-67062870D01*
X27731755Y-67072670D01*
X27725156Y-67080267D01*
X27721822Y-67083444D01*
X27713300Y-67089554D01*
X27701298Y-67094229D01*
X27683087Y-67097659D01*
X27655940Y-67100036D01*
X27617129Y-67101552D01*
X27563924Y-67102398D01*
X27493598Y-67102765D01*
X27403422Y-67102845D01*
X27361314Y-67102833D01*
X27280167Y-67102651D01*
X27217675Y-67102098D01*
X27171109Y-67100982D01*
X27137741Y-67099113D01*
X27114844Y-67096298D01*
X27099688Y-67092346D01*
X27089546Y-67087066D01*
X27081689Y-67080267D01*
X27066963Y-67058667D01*
X27059111Y-67029467D01*
X27064610Y-67005560D01*
X27081689Y-66978667D01*
X27086668Y-66974059D01*
X27096443Y-66967772D01*
X27110559Y-66963146D01*
X27132054Y-66959930D01*
X27163968Y-66957870D01*
X27209342Y-66956712D01*
X27271213Y-66956202D01*
X27352622Y-66956089D01*
X27600978Y-66956089D01*
X27600978Y-66798045D01*
X27439801Y-66798045D01*
X27403983Y-66797899D01*
X27338359Y-66796176D01*
X27291118Y-66791741D01*
X27259383Y-66783637D01*
X27240277Y-66770906D01*
X27230923Y-66752592D01*
X27228445Y-66727738D01*
X27229242Y-66707482D01*
X27234494Y-66685656D01*
X27247288Y-66670304D01*
X27270628Y-66660309D01*
X27307517Y-66654553D01*
X27360959Y-66651919D01*
X27433958Y-66651289D01*
X27602105Y-66651289D01*
X27598719Y-66586378D01*
X27595334Y-66521467D01*
X27347617Y-66518418D01*
X27285026Y-66517539D01*
X27216565Y-66516095D01*
X27165661Y-66514164D01*
X27129408Y-66511514D01*
X27104901Y-66507910D01*
X27089235Y-66503121D01*
X27079506Y-66496913D01*
X27073491Y-66490510D01*
X27060482Y-66458828D01*
X27064043Y-66423142D01*
X27083818Y-66392084D01*
X27087069Y-66389161D01*
X27096049Y-66382810D01*
X27108153Y-66377957D01*
X27126159Y-66374403D01*
X27152847Y-66371946D01*
X27190997Y-66370385D01*
X27243386Y-66369518D01*
X27312794Y-66369146D01*
X27402001Y-66369067D01*
X27456734Y-66369083D01*
G36*
X22779803Y-66398811D02*
G01*
X22784752Y-66405495D01*
X22790596Y-66416066D01*
X22795057Y-66430153D01*
X22798321Y-66450478D01*
X22800574Y-66479765D01*
X22802002Y-66520737D01*
X22802792Y-66576117D01*
X22803129Y-66648628D01*
X22803200Y-66740994D01*
X22803171Y-66806911D01*
X22802939Y-66885228D01*
X22802319Y-66945496D01*
X22801126Y-66990393D01*
X22799179Y-67022602D01*
X22796294Y-67044800D01*
X22792288Y-67059669D01*
X22786979Y-67069889D01*
X22780183Y-67078138D01*
X22775668Y-67082795D01*
X22767438Y-67089282D01*
X22756078Y-67094194D01*
X22738810Y-67097749D01*
X22712855Y-67100167D01*
X22675436Y-67101667D01*
X22623773Y-67102467D01*
X22555089Y-67102787D01*
X22466606Y-67102845D01*
X22446931Y-67102838D01*
X22359906Y-67102572D01*
X22292254Y-67101806D01*
X22241299Y-67100392D01*
X22204367Y-67098180D01*
X22178783Y-67095022D01*
X22161871Y-67090769D01*
X22150957Y-67085271D01*
X22140464Y-67075285D01*
X22127203Y-67044168D01*
X22128386Y-67008280D01*
X22144550Y-66976733D01*
X22146739Y-66974457D01*
X22155427Y-66968189D01*
X22168769Y-66963523D01*
X22189752Y-66960227D01*
X22221363Y-66958068D01*
X22266590Y-66956814D01*
X22328420Y-66956231D01*
X22409839Y-66956089D01*
X22656445Y-66956089D01*
X22656445Y-66798045D01*
X22494006Y-66798045D01*
X22458338Y-66797964D01*
X22402568Y-66797167D01*
X22363430Y-66795162D01*
X22336976Y-66791521D01*
X22319259Y-66785812D01*
X22306329Y-66777607D01*
X22302686Y-66774423D01*
X22284278Y-66743448D01*
X22283644Y-66707112D01*
X22301183Y-66673493D01*
X22301245Y-66673424D01*
X22310916Y-66664798D01*
X22324209Y-66658742D01*
X22344917Y-66654811D01*
X22376828Y-66652556D01*
X22423734Y-66651531D01*
X22489424Y-66651289D01*
X22657571Y-66651289D01*
X22654186Y-66586378D01*
X22650800Y-66521467D01*
X22408723Y-66518414D01*
X22383707Y-66518086D01*
X22302087Y-66516606D01*
X22239768Y-66514222D01*
X22194154Y-66510227D01*
X22162652Y-66503913D01*
X22142667Y-66494574D01*
X22131604Y-66481503D01*
X22126869Y-66463992D01*
X22125867Y-66441335D01*
X22125873Y-66438970D01*
X22127027Y-66418939D01*
X22131824Y-66403146D01*
X22142632Y-66391090D01*
X22161817Y-66382267D01*
X22191745Y-66376175D01*
X22234783Y-66372311D01*
X22293299Y-66370174D01*
X22369657Y-66369260D01*
X22466226Y-66369067D01*
X22756406Y-66369067D01*
X22779803Y-66398811D01*
G37*
X22779803Y-66398811D02*
X22784752Y-66405495D01*
X22790596Y-66416066D01*
X22795057Y-66430153D01*
X22798321Y-66450478D01*
X22800574Y-66479765D01*
X22802002Y-66520737D01*
X22802792Y-66576117D01*
X22803129Y-66648628D01*
X22803200Y-66740994D01*
X22803171Y-66806911D01*
X22802939Y-66885228D01*
X22802319Y-66945496D01*
X22801126Y-66990393D01*
X22799179Y-67022602D01*
X22796294Y-67044800D01*
X22792288Y-67059669D01*
X22786979Y-67069889D01*
X22780183Y-67078138D01*
X22775668Y-67082795D01*
X22767438Y-67089282D01*
X22756078Y-67094194D01*
X22738810Y-67097749D01*
X22712855Y-67100167D01*
X22675436Y-67101667D01*
X22623773Y-67102467D01*
X22555089Y-67102787D01*
X22466606Y-67102845D01*
X22446931Y-67102838D01*
X22359906Y-67102572D01*
X22292254Y-67101806D01*
X22241299Y-67100392D01*
X22204367Y-67098180D01*
X22178783Y-67095022D01*
X22161871Y-67090769D01*
X22150957Y-67085271D01*
X22140464Y-67075285D01*
X22127203Y-67044168D01*
X22128386Y-67008280D01*
X22144550Y-66976733D01*
X22146739Y-66974457D01*
X22155427Y-66968189D01*
X22168769Y-66963523D01*
X22189752Y-66960227D01*
X22221363Y-66958068D01*
X22266590Y-66956814D01*
X22328420Y-66956231D01*
X22409839Y-66956089D01*
X22656445Y-66956089D01*
X22656445Y-66798045D01*
X22494006Y-66798045D01*
X22458338Y-66797964D01*
X22402568Y-66797167D01*
X22363430Y-66795162D01*
X22336976Y-66791521D01*
X22319259Y-66785812D01*
X22306329Y-66777607D01*
X22302686Y-66774423D01*
X22284278Y-66743448D01*
X22283644Y-66707112D01*
X22301183Y-66673493D01*
X22301245Y-66673424D01*
X22310916Y-66664798D01*
X22324209Y-66658742D01*
X22344917Y-66654811D01*
X22376828Y-66652556D01*
X22423734Y-66651531D01*
X22489424Y-66651289D01*
X22657571Y-66651289D01*
X22654186Y-66586378D01*
X22650800Y-66521467D01*
X22408723Y-66518414D01*
X22383707Y-66518086D01*
X22302087Y-66516606D01*
X22239768Y-66514222D01*
X22194154Y-66510227D01*
X22162652Y-66503913D01*
X22142667Y-66494574D01*
X22131604Y-66481503D01*
X22126869Y-66463992D01*
X22125867Y-66441335D01*
X22125873Y-66438970D01*
X22127027Y-66418939D01*
X22131824Y-66403146D01*
X22142632Y-66391090D01*
X22161817Y-66382267D01*
X22191745Y-66376175D01*
X22234783Y-66372311D01*
X22293299Y-66370174D01*
X22369657Y-66369260D01*
X22466226Y-66369067D01*
X22756406Y-66369067D01*
X22779803Y-66398811D01*
G36*
X18455406Y-66374949D02*
G01*
X18481127Y-66390647D01*
X18507778Y-66412227D01*
X18507778Y-67059684D01*
X18481127Y-67081264D01*
X18449767Y-67098739D01*
X18413966Y-67099575D01*
X18382528Y-67079082D01*
X18378652Y-67074416D01*
X18373186Y-67064949D01*
X18368979Y-67051267D01*
X18365867Y-67030748D01*
X18363687Y-67000768D01*
X18362276Y-66958704D01*
X18361471Y-66901932D01*
X18361107Y-66827830D01*
X18361022Y-66733773D01*
X18361022Y-66412227D01*
X18387673Y-66390647D01*
X18411386Y-66375877D01*
X18434400Y-66369067D01*
X18455406Y-66374949D01*
G37*
X18455406Y-66374949D02*
X18481127Y-66390647D01*
X18507778Y-66412227D01*
X18507778Y-67059684D01*
X18481127Y-67081264D01*
X18449767Y-67098739D01*
X18413966Y-67099575D01*
X18382528Y-67079082D01*
X18378652Y-67074416D01*
X18373186Y-67064949D01*
X18368979Y-67051267D01*
X18365867Y-67030748D01*
X18363687Y-67000768D01*
X18362276Y-66958704D01*
X18361471Y-66901932D01*
X18361107Y-66827830D01*
X18361022Y-66733773D01*
X18361022Y-66412227D01*
X18387673Y-66390647D01*
X18411386Y-66375877D01*
X18434400Y-66369067D01*
X18455406Y-66374949D01*
G36*
X17079734Y-66391645D02*
G01*
X17085366Y-66397835D01*
X17090456Y-66406041D01*
X17094543Y-66417817D01*
X17097721Y-66435276D01*
X17100087Y-66460530D01*
X17101738Y-66495690D01*
X17102769Y-66542869D01*
X17103277Y-66604177D01*
X17103359Y-66681727D01*
X17103109Y-66777631D01*
X17102625Y-66894000D01*
X17102557Y-66908175D01*
X17101971Y-66969937D01*
X17100648Y-67013620D01*
X17098103Y-67043001D01*
X17093848Y-67061855D01*
X17087396Y-67073959D01*
X17078262Y-67083089D01*
X17044804Y-67100506D01*
X17009856Y-67097604D01*
X16978953Y-67073100D01*
X16969944Y-67059897D01*
X16962492Y-67041361D01*
X16958124Y-67015333D01*
X16956069Y-66976787D01*
X16955556Y-66920700D01*
X16955556Y-66798045D01*
X16458845Y-66798045D01*
X16458845Y-66932871D01*
X16458772Y-66968662D01*
X16458009Y-67014992D01*
X16455833Y-67045526D01*
X16451536Y-67064557D01*
X16444412Y-67076374D01*
X16433755Y-67085271D01*
X16401504Y-67100341D01*
X16366217Y-67097673D01*
X16335486Y-67073100D01*
X16330831Y-67066845D01*
X16324895Y-67056321D01*
X16320364Y-67042391D01*
X16317048Y-67022317D01*
X16314759Y-66993360D01*
X16313308Y-66952780D01*
X16312505Y-66897840D01*
X16312162Y-66825799D01*
X16312089Y-66733920D01*
X16312089Y-66424485D01*
X16339798Y-66396776D01*
X16371177Y-66374533D01*
X16404406Y-66371844D01*
X16436267Y-66391645D01*
X16444553Y-66401415D01*
X16451965Y-66417307D01*
X16456302Y-66441275D01*
X16458338Y-66478148D01*
X16458845Y-66532756D01*
X16458845Y-66651289D01*
X16955556Y-66651289D01*
X16955556Y-66535776D01*
X16955994Y-66484078D01*
X16957958Y-66449554D01*
X16962474Y-66426978D01*
X16970567Y-66411126D01*
X16983265Y-66396776D01*
X17014643Y-66374533D01*
X17047872Y-66371844D01*
X17079734Y-66391645D01*
G37*
X17079734Y-66391645D02*
X17085366Y-66397835D01*
X17090456Y-66406041D01*
X17094543Y-66417817D01*
X17097721Y-66435276D01*
X17100087Y-66460530D01*
X17101738Y-66495690D01*
X17102769Y-66542869D01*
X17103277Y-66604177D01*
X17103359Y-66681727D01*
X17103109Y-66777631D01*
X17102625Y-66894000D01*
X17102557Y-66908175D01*
X17101971Y-66969937D01*
X17100648Y-67013620D01*
X17098103Y-67043001D01*
X17093848Y-67061855D01*
X17087396Y-67073959D01*
X17078262Y-67083089D01*
X17044804Y-67100506D01*
X17009856Y-67097604D01*
X16978953Y-67073100D01*
X16969944Y-67059897D01*
X16962492Y-67041361D01*
X16958124Y-67015333D01*
X16956069Y-66976787D01*
X16955556Y-66920700D01*
X16955556Y-66798045D01*
X16458845Y-66798045D01*
X16458845Y-66932871D01*
X16458772Y-66968662D01*
X16458009Y-67014992D01*
X16455833Y-67045526D01*
X16451536Y-67064557D01*
X16444412Y-67076374D01*
X16433755Y-67085271D01*
X16401504Y-67100341D01*
X16366217Y-67097673D01*
X16335486Y-67073100D01*
X16330831Y-67066845D01*
X16324895Y-67056321D01*
X16320364Y-67042391D01*
X16317048Y-67022317D01*
X16314759Y-66993360D01*
X16313308Y-66952780D01*
X16312505Y-66897840D01*
X16312162Y-66825799D01*
X16312089Y-66733920D01*
X16312089Y-66424485D01*
X16339798Y-66396776D01*
X16371177Y-66374533D01*
X16404406Y-66371844D01*
X16436267Y-66391645D01*
X16444553Y-66401415D01*
X16451965Y-66417307D01*
X16456302Y-66441275D01*
X16458338Y-66478148D01*
X16458845Y-66532756D01*
X16458845Y-66651289D01*
X16955556Y-66651289D01*
X16955556Y-66535776D01*
X16955994Y-66484078D01*
X16957958Y-66449554D01*
X16962474Y-66426978D01*
X16970567Y-66411126D01*
X16983265Y-66396776D01*
X17014643Y-66374533D01*
X17047872Y-66371844D01*
X17079734Y-66391645D01*
G36*
X24729150Y-66374179D02*
G01*
X24835157Y-66390494D01*
X24928969Y-66418545D01*
X25007765Y-66457452D01*
X25068719Y-66506334D01*
X25094789Y-66539195D01*
X25124297Y-66588394D01*
X25149568Y-66642252D01*
X25167218Y-66693419D01*
X25173858Y-66734544D01*
X25172298Y-66754259D01*
X25159357Y-66805592D01*
X25136194Y-66862118D01*
X25106302Y-66916035D01*
X25073173Y-66959539D01*
X25062977Y-66969887D01*
X24995892Y-67021662D01*
X24915766Y-67061554D01*
X24829556Y-67085956D01*
X24774592Y-67094068D01*
X24681139Y-67100673D01*
X24591358Y-67098586D01*
X24508869Y-67088340D01*
X24437286Y-67070470D01*
X24380228Y-67045508D01*
X24341311Y-67013988D01*
X24339936Y-67012012D01*
X24332848Y-66986786D01*
X24328609Y-66939535D01*
X24327200Y-66870071D01*
X24328060Y-66807838D01*
X24332780Y-66760456D01*
X24344470Y-66728353D01*
X24366239Y-66708800D01*
X24401198Y-66699070D01*
X24452456Y-66696433D01*
X24523123Y-66698161D01*
X24571743Y-66701173D01*
X24621939Y-66709366D01*
X24654433Y-66723419D01*
X24671892Y-66744654D01*
X24676983Y-66774394D01*
X24676877Y-66778936D01*
X24668175Y-66813730D01*
X24644165Y-66837147D01*
X24602900Y-66850347D01*
X24542431Y-66854489D01*
X24473956Y-66854489D01*
X24473956Y-66892841D01*
X24474006Y-66901976D01*
X24476227Y-66919227D01*
X24485494Y-66929521D01*
X24506875Y-66936459D01*
X24545436Y-66943641D01*
X24550910Y-66944575D01*
X24647860Y-66954478D01*
X24737852Y-66951559D01*
X24818760Y-66936829D01*
X24888459Y-66911299D01*
X24944824Y-66875978D01*
X24985729Y-66831879D01*
X25009051Y-66780012D01*
X25012663Y-66721388D01*
X25007145Y-66692494D01*
X24980461Y-66636604D01*
X24934273Y-66590945D01*
X24869291Y-66556108D01*
X24786229Y-66532690D01*
X24761555Y-66528241D01*
X24672226Y-66517742D01*
X24592419Y-66518971D01*
X24514326Y-66531906D01*
X24479183Y-66538696D01*
X24433745Y-66539713D01*
X24402430Y-66527182D01*
X24382277Y-66500395D01*
X24375893Y-66472148D01*
X24385379Y-66440924D01*
X24394708Y-66427499D01*
X24428943Y-66403967D01*
X24481565Y-66386095D01*
X24550081Y-66374599D01*
X24632000Y-66370192D01*
X24729150Y-66374179D01*
G37*
X24729150Y-66374179D02*
X24835157Y-66390494D01*
X24928969Y-66418545D01*
X25007765Y-66457452D01*
X25068719Y-66506334D01*
X25094789Y-66539195D01*
X25124297Y-66588394D01*
X25149568Y-66642252D01*
X25167218Y-66693419D01*
X25173858Y-66734544D01*
X25172298Y-66754259D01*
X25159357Y-66805592D01*
X25136194Y-66862118D01*
X25106302Y-66916035D01*
X25073173Y-66959539D01*
X25062977Y-66969887D01*
X24995892Y-67021662D01*
X24915766Y-67061554D01*
X24829556Y-67085956D01*
X24774592Y-67094068D01*
X24681139Y-67100673D01*
X24591358Y-67098586D01*
X24508869Y-67088340D01*
X24437286Y-67070470D01*
X24380228Y-67045508D01*
X24341311Y-67013988D01*
X24339936Y-67012012D01*
X24332848Y-66986786D01*
X24328609Y-66939535D01*
X24327200Y-66870071D01*
X24328060Y-66807838D01*
X24332780Y-66760456D01*
X24344470Y-66728353D01*
X24366239Y-66708800D01*
X24401198Y-66699070D01*
X24452456Y-66696433D01*
X24523123Y-66698161D01*
X24571743Y-66701173D01*
X24621939Y-66709366D01*
X24654433Y-66723419D01*
X24671892Y-66744654D01*
X24676983Y-66774394D01*
X24676877Y-66778936D01*
X24668175Y-66813730D01*
X24644165Y-66837147D01*
X24602900Y-66850347D01*
X24542431Y-66854489D01*
X24473956Y-66854489D01*
X24473956Y-66892841D01*
X24474006Y-66901976D01*
X24476227Y-66919227D01*
X24485494Y-66929521D01*
X24506875Y-66936459D01*
X24545436Y-66943641D01*
X24550910Y-66944575D01*
X24647860Y-66954478D01*
X24737852Y-66951559D01*
X24818760Y-66936829D01*
X24888459Y-66911299D01*
X24944824Y-66875978D01*
X24985729Y-66831879D01*
X25009051Y-66780012D01*
X25012663Y-66721388D01*
X25007145Y-66692494D01*
X24980461Y-66636604D01*
X24934273Y-66590945D01*
X24869291Y-66556108D01*
X24786229Y-66532690D01*
X24761555Y-66528241D01*
X24672226Y-66517742D01*
X24592419Y-66518971D01*
X24514326Y-66531906D01*
X24479183Y-66538696D01*
X24433745Y-66539713D01*
X24402430Y-66527182D01*
X24382277Y-66500395D01*
X24375893Y-66472148D01*
X24385379Y-66440924D01*
X24394708Y-66427499D01*
X24428943Y-66403967D01*
X24481565Y-66386095D01*
X24550081Y-66374599D01*
X24632000Y-66370192D01*
X24729150Y-66374179D01*
G36*
X21783163Y-67013175D02*
G01*
X21780235Y-67036095D01*
X21776158Y-67051897D01*
X21770743Y-67063319D01*
X21763803Y-67073100D01*
X21740406Y-67102845D01*
X21574714Y-67102251D01*
X21539918Y-67101953D01*
X21441435Y-67098522D01*
X21360473Y-67090839D01*
X21293379Y-67078282D01*
X21236496Y-67060227D01*
X21186169Y-67036052D01*
X21182810Y-67034135D01*
X21124998Y-66997417D01*
X21082644Y-66960451D01*
X21049828Y-66916966D01*
X21020628Y-66860689D01*
X21016346Y-66851073D01*
X20993769Y-66787887D01*
X20988034Y-66742333D01*
X21137279Y-66742333D01*
X21142892Y-66767061D01*
X21148618Y-66782939D01*
X21181548Y-66842847D01*
X21228886Y-66888600D01*
X21292652Y-66921736D01*
X21374861Y-66943790D01*
X21377655Y-66944292D01*
X21423940Y-66950255D01*
X21480336Y-66954483D01*
X21535274Y-66956089D01*
X21629156Y-66956089D01*
X21629156Y-66515822D01*
X21541667Y-66516270D01*
X21474747Y-66518746D01*
X21382349Y-66529998D01*
X21303034Y-66549537D01*
X21241060Y-66576511D01*
X21210120Y-66597240D01*
X21182000Y-66627006D01*
X21158660Y-66669434D01*
X21151533Y-66685400D01*
X21139709Y-66717902D01*
X21137279Y-66742333D01*
X20988034Y-66742333D01*
X20986797Y-66732509D01*
X20995399Y-66677483D01*
X21019541Y-66615351D01*
X21020337Y-66613658D01*
X21060788Y-66544236D01*
X21111473Y-66487638D01*
X21174198Y-66443070D01*
X21250774Y-66409741D01*
X21343009Y-66386861D01*
X21452712Y-66373636D01*
X21581691Y-66369275D01*
X21585263Y-66369270D01*
X21645283Y-66369410D01*
X21687214Y-66370446D01*
X21715328Y-66373040D01*
X21733897Y-66377853D01*
X21747194Y-66385544D01*
X21759491Y-66396776D01*
X21787200Y-66424485D01*
X21787200Y-66733920D01*
X21787175Y-66795526D01*
X21786950Y-66874311D01*
X21786332Y-66935021D01*
X21785775Y-66956089D01*
X21785133Y-66980396D01*
X21783163Y-67013175D01*
G37*
X21783163Y-67013175D02*
X21780235Y-67036095D01*
X21776158Y-67051897D01*
X21770743Y-67063319D01*
X21763803Y-67073100D01*
X21740406Y-67102845D01*
X21574714Y-67102251D01*
X21539918Y-67101953D01*
X21441435Y-67098522D01*
X21360473Y-67090839D01*
X21293379Y-67078282D01*
X21236496Y-67060227D01*
X21186169Y-67036052D01*
X21182810Y-67034135D01*
X21124998Y-66997417D01*
X21082644Y-66960451D01*
X21049828Y-66916966D01*
X21020628Y-66860689D01*
X21016346Y-66851073D01*
X20993769Y-66787887D01*
X20988034Y-66742333D01*
X21137279Y-66742333D01*
X21142892Y-66767061D01*
X21148618Y-66782939D01*
X21181548Y-66842847D01*
X21228886Y-66888600D01*
X21292652Y-66921736D01*
X21374861Y-66943790D01*
X21377655Y-66944292D01*
X21423940Y-66950255D01*
X21480336Y-66954483D01*
X21535274Y-66956089D01*
X21629156Y-66956089D01*
X21629156Y-66515822D01*
X21541667Y-66516270D01*
X21474747Y-66518746D01*
X21382349Y-66529998D01*
X21303034Y-66549537D01*
X21241060Y-66576511D01*
X21210120Y-66597240D01*
X21182000Y-66627006D01*
X21158660Y-66669434D01*
X21151533Y-66685400D01*
X21139709Y-66717902D01*
X21137279Y-66742333D01*
X20988034Y-66742333D01*
X20986797Y-66732509D01*
X20995399Y-66677483D01*
X21019541Y-66615351D01*
X21020337Y-66613658D01*
X21060788Y-66544236D01*
X21111473Y-66487638D01*
X21174198Y-66443070D01*
X21250774Y-66409741D01*
X21343009Y-66386861D01*
X21452712Y-66373636D01*
X21581691Y-66369275D01*
X21585263Y-66369270D01*
X21645283Y-66369410D01*
X21687214Y-66370446D01*
X21715328Y-66373040D01*
X21733897Y-66377853D01*
X21747194Y-66385544D01*
X21759491Y-66396776D01*
X21787200Y-66424485D01*
X21787200Y-66733920D01*
X21787175Y-66795526D01*
X21786950Y-66874311D01*
X21786332Y-66935021D01*
X21785775Y-66956089D01*
X21785133Y-66980396D01*
X21783163Y-67013175D01*
G36*
X22588711Y-62062033D02*
G01*
X22684268Y-62079523D01*
X22848558Y-62124564D01*
X23002589Y-62187656D01*
X23148509Y-62269915D01*
X23288466Y-62372457D01*
X23424608Y-62496399D01*
X23468473Y-62541661D01*
X23580758Y-62673865D01*
X23673972Y-62811832D01*
X23750719Y-62959750D01*
X23813603Y-63121803D01*
X23817420Y-63133391D01*
X23867507Y-63319392D01*
X23900899Y-63515521D01*
X23917584Y-63717568D01*
X23917551Y-63921325D01*
X23900791Y-64122581D01*
X23867292Y-64317128D01*
X23817044Y-64500756D01*
X23773190Y-64618053D01*
X23695348Y-64780951D01*
X23601828Y-64934866D01*
X23494822Y-65076671D01*
X23376519Y-65203239D01*
X23249111Y-65311441D01*
X23171606Y-65364120D01*
X23044725Y-65433750D01*
X22907243Y-65492468D01*
X22765716Y-65537587D01*
X22626702Y-65566422D01*
X22612597Y-65568106D01*
X22569153Y-65571434D01*
X22511723Y-65574275D01*
X22446122Y-65576373D01*
X22378167Y-65577468D01*
X22251378Y-65575140D01*
X22103673Y-65562136D01*
X21965779Y-65537133D01*
X21832014Y-65499318D01*
X21808562Y-65490889D01*
X21760612Y-65471408D01*
X21704140Y-65446473D01*
X21642379Y-65417722D01*
X21578563Y-65386790D01*
X21515926Y-65355315D01*
X21457703Y-65324934D01*
X21407127Y-65297283D01*
X21367433Y-65273999D01*
X21341854Y-65256718D01*
X21333625Y-65247079D01*
X21335076Y-65243984D01*
X21346250Y-65224079D01*
X21367134Y-65188420D01*
X21396265Y-65139459D01*
X21432181Y-65079646D01*
X21473420Y-65011433D01*
X21518517Y-64937271D01*
X21699785Y-64640008D01*
X21746315Y-64684539D01*
X21837723Y-64762865D01*
X21951334Y-64837439D01*
X22069122Y-64891474D01*
X22189559Y-64924290D01*
X22311117Y-64935211D01*
X22352585Y-64933868D01*
X22470080Y-64915612D01*
X22580089Y-64876617D01*
X22681430Y-64817670D01*
X22772921Y-64739557D01*
X22853380Y-64643064D01*
X22921627Y-64528978D01*
X22937908Y-64494724D01*
X22983982Y-64371240D01*
X23019106Y-64232918D01*
X23043197Y-64083561D01*
X23056173Y-63926973D01*
X23057949Y-63766956D01*
X23048443Y-63607314D01*
X23027572Y-63451850D01*
X22995252Y-63304366D01*
X22951399Y-63168667D01*
X22913982Y-63082076D01*
X22849185Y-62968688D01*
X22773772Y-62875070D01*
X22687418Y-62800959D01*
X22589795Y-62746094D01*
X22480577Y-62710212D01*
X22359439Y-62693051D01*
X22290038Y-62691880D01*
X22167168Y-62706141D01*
X22051664Y-62741241D01*
X21944953Y-62796682D01*
X21848464Y-62871964D01*
X21832720Y-62886440D01*
X21802150Y-62912962D01*
X21779809Y-62930138D01*
X21769691Y-62934787D01*
X21767706Y-62932597D01*
X21753241Y-62913721D01*
X21729400Y-62880397D01*
X21698029Y-62835380D01*
X21660974Y-62781425D01*
X21620083Y-62721285D01*
X21577202Y-62657718D01*
X21534178Y-62593476D01*
X21492857Y-62531315D01*
X21455086Y-62473991D01*
X21422712Y-62424257D01*
X21397582Y-62384868D01*
X21381542Y-62358580D01*
X21376439Y-62348147D01*
X21381050Y-62343941D01*
X21400267Y-62338933D01*
X21409838Y-62336386D01*
X21437809Y-62325249D01*
X21479448Y-62306802D01*
X21530995Y-62282725D01*
X21588690Y-62254699D01*
X21599957Y-62249154D01*
X21777687Y-62169889D01*
X21947490Y-62110385D01*
X22111430Y-62070245D01*
X22271571Y-62049071D01*
X22429977Y-62046466D01*
X22588711Y-62062033D01*
G37*
X22588711Y-62062033D02*
X22684268Y-62079523D01*
X22848558Y-62124564D01*
X23002589Y-62187656D01*
X23148509Y-62269915D01*
X23288466Y-62372457D01*
X23424608Y-62496399D01*
X23468473Y-62541661D01*
X23580758Y-62673865D01*
X23673972Y-62811832D01*
X23750719Y-62959750D01*
X23813603Y-63121803D01*
X23817420Y-63133391D01*
X23867507Y-63319392D01*
X23900899Y-63515521D01*
X23917584Y-63717568D01*
X23917551Y-63921325D01*
X23900791Y-64122581D01*
X23867292Y-64317128D01*
X23817044Y-64500756D01*
X23773190Y-64618053D01*
X23695348Y-64780951D01*
X23601828Y-64934866D01*
X23494822Y-65076671D01*
X23376519Y-65203239D01*
X23249111Y-65311441D01*
X23171606Y-65364120D01*
X23044725Y-65433750D01*
X22907243Y-65492468D01*
X22765716Y-65537587D01*
X22626702Y-65566422D01*
X22612597Y-65568106D01*
X22569153Y-65571434D01*
X22511723Y-65574275D01*
X22446122Y-65576373D01*
X22378167Y-65577468D01*
X22251378Y-65575140D01*
X22103673Y-65562136D01*
X21965779Y-65537133D01*
X21832014Y-65499318D01*
X21808562Y-65490889D01*
X21760612Y-65471408D01*
X21704140Y-65446473D01*
X21642379Y-65417722D01*
X21578563Y-65386790D01*
X21515926Y-65355315D01*
X21457703Y-65324934D01*
X21407127Y-65297283D01*
X21367433Y-65273999D01*
X21341854Y-65256718D01*
X21333625Y-65247079D01*
X21335076Y-65243984D01*
X21346250Y-65224079D01*
X21367134Y-65188420D01*
X21396265Y-65139459D01*
X21432181Y-65079646D01*
X21473420Y-65011433D01*
X21518517Y-64937271D01*
X21699785Y-64640008D01*
X21746315Y-64684539D01*
X21837723Y-64762865D01*
X21951334Y-64837439D01*
X22069122Y-64891474D01*
X22189559Y-64924290D01*
X22311117Y-64935211D01*
X22352585Y-64933868D01*
X22470080Y-64915612D01*
X22580089Y-64876617D01*
X22681430Y-64817670D01*
X22772921Y-64739557D01*
X22853380Y-64643064D01*
X22921627Y-64528978D01*
X22937908Y-64494724D01*
X22983982Y-64371240D01*
X23019106Y-64232918D01*
X23043197Y-64083561D01*
X23056173Y-63926973D01*
X23057949Y-63766956D01*
X23048443Y-63607314D01*
X23027572Y-63451850D01*
X22995252Y-63304366D01*
X22951399Y-63168667D01*
X22913982Y-63082076D01*
X22849185Y-62968688D01*
X22773772Y-62875070D01*
X22687418Y-62800959D01*
X22589795Y-62746094D01*
X22480577Y-62710212D01*
X22359439Y-62693051D01*
X22290038Y-62691880D01*
X22167168Y-62706141D01*
X22051664Y-62741241D01*
X21944953Y-62796682D01*
X21848464Y-62871964D01*
X21832720Y-62886440D01*
X21802150Y-62912962D01*
X21779809Y-62930138D01*
X21769691Y-62934787D01*
X21767706Y-62932597D01*
X21753241Y-62913721D01*
X21729400Y-62880397D01*
X21698029Y-62835380D01*
X21660974Y-62781425D01*
X21620083Y-62721285D01*
X21577202Y-62657718D01*
X21534178Y-62593476D01*
X21492857Y-62531315D01*
X21455086Y-62473991D01*
X21422712Y-62424257D01*
X21397582Y-62384868D01*
X21381542Y-62358580D01*
X21376439Y-62348147D01*
X21381050Y-62343941D01*
X21400267Y-62338933D01*
X21409838Y-62336386D01*
X21437809Y-62325249D01*
X21479448Y-62306802D01*
X21530995Y-62282725D01*
X21588690Y-62254699D01*
X21599957Y-62249154D01*
X21777687Y-62169889D01*
X21947490Y-62110385D01*
X22111430Y-62070245D01*
X22271571Y-62049071D01*
X22429977Y-62046466D01*
X22588711Y-62062033D01*
G36*
X25586137Y-66373463D02*
G01*
X25620291Y-66396776D01*
X25648000Y-66424485D01*
X25648000Y-66737537D01*
X25647959Y-66821567D01*
X25647701Y-66895789D01*
X25647030Y-66952541D01*
X25645752Y-66994512D01*
X25643673Y-67024389D01*
X25640599Y-67044861D01*
X25636334Y-67058614D01*
X25630684Y-67068337D01*
X25623455Y-67076717D01*
X25591991Y-67098181D01*
X25556826Y-67099947D01*
X25523822Y-67080267D01*
X25518516Y-67074398D01*
X25513066Y-67065314D01*
X25508900Y-67051973D01*
X25505846Y-67031757D01*
X25503732Y-67002049D01*
X25502386Y-66960232D01*
X25501638Y-66903689D01*
X25501314Y-66829802D01*
X25501245Y-66735956D01*
X25501284Y-66660294D01*
X25501539Y-66582385D01*
X25502183Y-66522375D01*
X25503387Y-66477648D01*
X25505324Y-66445585D01*
X25508164Y-66423571D01*
X25512079Y-66408987D01*
X25517242Y-66399218D01*
X25523822Y-66391645D01*
X25553006Y-66372623D01*
X25586137Y-66373463D01*
G37*
X25586137Y-66373463D02*
X25620291Y-66396776D01*
X25648000Y-66424485D01*
X25648000Y-66737537D01*
X25647959Y-66821567D01*
X25647701Y-66895789D01*
X25647030Y-66952541D01*
X25645752Y-66994512D01*
X25643673Y-67024389D01*
X25640599Y-67044861D01*
X25636334Y-67058614D01*
X25630684Y-67068337D01*
X25623455Y-67076717D01*
X25591991Y-67098181D01*
X25556826Y-67099947D01*
X25523822Y-67080267D01*
X25518516Y-67074398D01*
X25513066Y-67065314D01*
X25508900Y-67051973D01*
X25505846Y-67031757D01*
X25503732Y-67002049D01*
X25502386Y-66960232D01*
X25501638Y-66903689D01*
X25501314Y-66829802D01*
X25501245Y-66735956D01*
X25501284Y-66660294D01*
X25501539Y-66582385D01*
X25502183Y-66522375D01*
X25503387Y-66477648D01*
X25505324Y-66445585D01*
X25508164Y-66423571D01*
X25512079Y-66408987D01*
X25517242Y-66399218D01*
X25523822Y-66391645D01*
X25553006Y-66372623D01*
X25586137Y-66373463D01*
G36*
X21327261Y-64777363D02*
G01*
X21323632Y-64852202D01*
X21316022Y-64914401D01*
X21303688Y-64970984D01*
X21259313Y-65097076D01*
X21196400Y-65211679D01*
X21116238Y-65312568D01*
X21019740Y-65398924D01*
X20907822Y-65469932D01*
X20781397Y-65524776D01*
X20641378Y-65562638D01*
X20605149Y-65568351D01*
X20526155Y-65574313D01*
X20437841Y-65574646D01*
X20348075Y-65569659D01*
X20264722Y-65559666D01*
X20195651Y-65544978D01*
X20109187Y-65514749D01*
X19999286Y-65460057D01*
X19901956Y-65392543D01*
X19839867Y-65341556D01*
X19836605Y-65437622D01*
X19833343Y-65533689D01*
X19410450Y-65533689D01*
X19399543Y-65533686D01*
X19305056Y-65533380D01*
X19218331Y-65532616D01*
X19141837Y-65531451D01*
X19078043Y-65529942D01*
X19029418Y-65528147D01*
X18998433Y-65526121D01*
X18987556Y-65523922D01*
X18987578Y-65523463D01*
X18994614Y-65507910D01*
X19010434Y-65485071D01*
X19014734Y-65479638D01*
X19025777Y-65465606D01*
X19035311Y-65452186D01*
X19043461Y-65437722D01*
X19050352Y-65420556D01*
X19056111Y-65399034D01*
X19060862Y-65371498D01*
X19064731Y-65336292D01*
X19067844Y-65291760D01*
X19070325Y-65236246D01*
X19072300Y-65168093D01*
X19073894Y-65085645D01*
X19075234Y-64987246D01*
X19076444Y-64871239D01*
X19076896Y-64820462D01*
X19879378Y-64820462D01*
X19924048Y-64876973D01*
X19936785Y-64892212D01*
X19983604Y-64934844D01*
X20044255Y-64970672D01*
X20054897Y-64975850D01*
X20093676Y-64992745D01*
X20128692Y-65002909D01*
X20168722Y-65008325D01*
X20222541Y-65010978D01*
X20240648Y-65011383D01*
X20316011Y-65008540D01*
X20376743Y-64996620D01*
X20428452Y-64974037D01*
X20476746Y-64939211D01*
X20481803Y-64934798D01*
X20530272Y-64879160D01*
X20558459Y-64815333D01*
X20567752Y-64740282D01*
X20560520Y-64668693D01*
X20535796Y-64605645D01*
X20491249Y-64547758D01*
X20436319Y-64500808D01*
X20363894Y-64460961D01*
X20277340Y-64433263D01*
X20174670Y-64417096D01*
X20053894Y-64411842D01*
X20045007Y-64411857D01*
X19989660Y-64412655D01*
X19942736Y-64414488D01*
X19908953Y-64417111D01*
X19893028Y-64420274D01*
X19888943Y-64426741D01*
X19884572Y-64448875D01*
X19881604Y-64487988D01*
X19879914Y-64545939D01*
X19879378Y-64624586D01*
X19879378Y-64820462D01*
X19076896Y-64820462D01*
X19077649Y-64735968D01*
X19078975Y-64579778D01*
X19080228Y-64437012D01*
X19081651Y-64291942D01*
X19083176Y-64166027D01*
X19084933Y-64057436D01*
X19087051Y-63964334D01*
X19089660Y-63884891D01*
X19092890Y-63817273D01*
X19096869Y-63759649D01*
X19101728Y-63710185D01*
X19107597Y-63667050D01*
X19114604Y-63628410D01*
X19122880Y-63592434D01*
X19132554Y-63557289D01*
X19143756Y-63521142D01*
X19156616Y-63482161D01*
X19172090Y-63439091D01*
X19214994Y-63346871D01*
X19268735Y-63267099D01*
X19337576Y-63192965D01*
X19415185Y-63129405D01*
X19519761Y-63067725D01*
X19639244Y-63020202D01*
X19774508Y-62986567D01*
X19926426Y-62966552D01*
X20095872Y-62959889D01*
X20153890Y-62960287D01*
X20219398Y-62962335D01*
X20280693Y-62966704D01*
X20342097Y-62974035D01*
X20407932Y-62984969D01*
X20482520Y-63000147D01*
X20570184Y-63020209D01*
X20675245Y-63045797D01*
X20703806Y-63052820D01*
X20779054Y-63070776D01*
X20849388Y-63086820D01*
X20910567Y-63100028D01*
X20958354Y-63109474D01*
X20988511Y-63114231D01*
X21016783Y-63117910D01*
X21043060Y-63123187D01*
X21053059Y-63127942D01*
X21049952Y-63136781D01*
X21039194Y-63164072D01*
X21021864Y-63206906D01*
X20999126Y-63262425D01*
X20972147Y-63327772D01*
X20942090Y-63400089D01*
X20935493Y-63415879D01*
X20896907Y-63506484D01*
X20865768Y-63576217D01*
X20841917Y-63625405D01*
X20825198Y-63654374D01*
X20815454Y-63663452D01*
X20807766Y-63661405D01*
X20781415Y-63651760D01*
X20742982Y-63636190D01*
X20697822Y-63616815D01*
X20603293Y-63578814D01*
X20466480Y-63537780D01*
X20325289Y-63512612D01*
X20287314Y-63508611D01*
X20184059Y-63506447D01*
X20096952Y-63519622D01*
X20025129Y-63548756D01*
X19967731Y-63594466D01*
X19923896Y-63657372D01*
X19892762Y-63738092D01*
X19873470Y-63837245D01*
X19866050Y-63896224D01*
X20027936Y-63889445D01*
X20154495Y-63887813D01*
X20305951Y-63894194D01*
X20454396Y-63908777D01*
X20590578Y-63930882D01*
X20655245Y-63945821D01*
X20787490Y-63988741D01*
X20909762Y-64045340D01*
X21019685Y-64114017D01*
X21114883Y-64193170D01*
X21192980Y-64281196D01*
X21251599Y-64376493D01*
X21275595Y-64428864D01*
X21301232Y-64499590D01*
X21317478Y-64570812D01*
X21325822Y-64649712D01*
X21327690Y-64740282D01*
X21327755Y-64743467D01*
X21327261Y-64777363D01*
G37*
X21327261Y-64777363D02*
X21323632Y-64852202D01*
X21316022Y-64914401D01*
X21303688Y-64970984D01*
X21259313Y-65097076D01*
X21196400Y-65211679D01*
X21116238Y-65312568D01*
X21019740Y-65398924D01*
X20907822Y-65469932D01*
X20781397Y-65524776D01*
X20641378Y-65562638D01*
X20605149Y-65568351D01*
X20526155Y-65574313D01*
X20437841Y-65574646D01*
X20348075Y-65569659D01*
X20264722Y-65559666D01*
X20195651Y-65544978D01*
X20109187Y-65514749D01*
X19999286Y-65460057D01*
X19901956Y-65392543D01*
X19839867Y-65341556D01*
X19836605Y-65437622D01*
X19833343Y-65533689D01*
X19410450Y-65533689D01*
X19399543Y-65533686D01*
X19305056Y-65533380D01*
X19218331Y-65532616D01*
X19141837Y-65531451D01*
X19078043Y-65529942D01*
X19029418Y-65528147D01*
X18998433Y-65526121D01*
X18987556Y-65523922D01*
X18987578Y-65523463D01*
X18994614Y-65507910D01*
X19010434Y-65485071D01*
X19014734Y-65479638D01*
X19025777Y-65465606D01*
X19035311Y-65452186D01*
X19043461Y-65437722D01*
X19050352Y-65420556D01*
X19056111Y-65399034D01*
X19060862Y-65371498D01*
X19064731Y-65336292D01*
X19067844Y-65291760D01*
X19070325Y-65236246D01*
X19072300Y-65168093D01*
X19073894Y-65085645D01*
X19075234Y-64987246D01*
X19076444Y-64871239D01*
X19076896Y-64820462D01*
X19879378Y-64820462D01*
X19924048Y-64876973D01*
X19936785Y-64892212D01*
X19983604Y-64934844D01*
X20044255Y-64970672D01*
X20054897Y-64975850D01*
X20093676Y-64992745D01*
X20128692Y-65002909D01*
X20168722Y-65008325D01*
X20222541Y-65010978D01*
X20240648Y-65011383D01*
X20316011Y-65008540D01*
X20376743Y-64996620D01*
X20428452Y-64974037D01*
X20476746Y-64939211D01*
X20481803Y-64934798D01*
X20530272Y-64879160D01*
X20558459Y-64815333D01*
X20567752Y-64740282D01*
X20560520Y-64668693D01*
X20535796Y-64605645D01*
X20491249Y-64547758D01*
X20436319Y-64500808D01*
X20363894Y-64460961D01*
X20277340Y-64433263D01*
X20174670Y-64417096D01*
X20053894Y-64411842D01*
X20045007Y-64411857D01*
X19989660Y-64412655D01*
X19942736Y-64414488D01*
X19908953Y-64417111D01*
X19893028Y-64420274D01*
X19888943Y-64426741D01*
X19884572Y-64448875D01*
X19881604Y-64487988D01*
X19879914Y-64545939D01*
X19879378Y-64624586D01*
X19879378Y-64820462D01*
X19076896Y-64820462D01*
X19077649Y-64735968D01*
X19078975Y-64579778D01*
X19080228Y-64437012D01*
X19081651Y-64291942D01*
X19083176Y-64166027D01*
X19084933Y-64057436D01*
X19087051Y-63964334D01*
X19089660Y-63884891D01*
X19092890Y-63817273D01*
X19096869Y-63759649D01*
X19101728Y-63710185D01*
X19107597Y-63667050D01*
X19114604Y-63628410D01*
X19122880Y-63592434D01*
X19132554Y-63557289D01*
X19143756Y-63521142D01*
X19156616Y-63482161D01*
X19172090Y-63439091D01*
X19214994Y-63346871D01*
X19268735Y-63267099D01*
X19337576Y-63192965D01*
X19415185Y-63129405D01*
X19519761Y-63067725D01*
X19639244Y-63020202D01*
X19774508Y-62986567D01*
X19926426Y-62966552D01*
X20095872Y-62959889D01*
X20153890Y-62960287D01*
X20219398Y-62962335D01*
X20280693Y-62966704D01*
X20342097Y-62974035D01*
X20407932Y-62984969D01*
X20482520Y-63000147D01*
X20570184Y-63020209D01*
X20675245Y-63045797D01*
X20703806Y-63052820D01*
X20779054Y-63070776D01*
X20849388Y-63086820D01*
X20910567Y-63100028D01*
X20958354Y-63109474D01*
X20988511Y-63114231D01*
X21016783Y-63117910D01*
X21043060Y-63123187D01*
X21053059Y-63127942D01*
X21049952Y-63136781D01*
X21039194Y-63164072D01*
X21021864Y-63206906D01*
X20999126Y-63262425D01*
X20972147Y-63327772D01*
X20942090Y-63400089D01*
X20935493Y-63415879D01*
X20896907Y-63506484D01*
X20865768Y-63576217D01*
X20841917Y-63625405D01*
X20825198Y-63654374D01*
X20815454Y-63663452D01*
X20807766Y-63661405D01*
X20781415Y-63651760D01*
X20742982Y-63636190D01*
X20697822Y-63616815D01*
X20603293Y-63578814D01*
X20466480Y-63537780D01*
X20325289Y-63512612D01*
X20287314Y-63508611D01*
X20184059Y-63506447D01*
X20096952Y-63519622D01*
X20025129Y-63548756D01*
X19967731Y-63594466D01*
X19923896Y-63657372D01*
X19892762Y-63738092D01*
X19873470Y-63837245D01*
X19866050Y-63896224D01*
X20027936Y-63889445D01*
X20154495Y-63887813D01*
X20305951Y-63894194D01*
X20454396Y-63908777D01*
X20590578Y-63930882D01*
X20655245Y-63945821D01*
X20787490Y-63988741D01*
X20909762Y-64045340D01*
X21019685Y-64114017D01*
X21114883Y-64193170D01*
X21192980Y-64281196D01*
X21251599Y-64376493D01*
X21275595Y-64428864D01*
X21301232Y-64499590D01*
X21317478Y-64570812D01*
X21325822Y-64649712D01*
X21327690Y-64740282D01*
X21327755Y-64743467D01*
X21327261Y-64777363D01*
G36*
X26440853Y-66369936D02*
G01*
X26507100Y-66375366D01*
X26562400Y-66384964D01*
X26613283Y-66399825D01*
X26684595Y-66432958D01*
X26735752Y-66475640D01*
X26766575Y-66527705D01*
X26776889Y-66588983D01*
X26775952Y-66620232D01*
X26770160Y-66645029D01*
X26755353Y-66666699D01*
X26727380Y-66694049D01*
X26719402Y-66701378D01*
X26695692Y-66722281D01*
X26673298Y-66739251D01*
X26649265Y-66753205D01*
X26620637Y-66765056D01*
X26584460Y-66775720D01*
X26537780Y-66786111D01*
X26477641Y-66797146D01*
X26401090Y-66809738D01*
X26305171Y-66824804D01*
X26286808Y-66827838D01*
X26224478Y-66841458D01*
X26179260Y-66857192D01*
X26152976Y-66874263D01*
X26147447Y-66891897D01*
X26150068Y-66896168D01*
X26168000Y-66911233D01*
X26196126Y-66927867D01*
X26208926Y-66933857D01*
X26230224Y-66941050D01*
X26256610Y-66945827D01*
X26292454Y-66948646D01*
X26342128Y-66949964D01*
X26410000Y-66950237D01*
X26427785Y-66950164D01*
X26495406Y-66949053D01*
X26560345Y-66946828D01*
X26615970Y-66943762D01*
X26655651Y-66940127D01*
X26691162Y-66936059D01*
X26720415Y-66935276D01*
X26739315Y-66939876D01*
X26754429Y-66950551D01*
X26758085Y-66954144D01*
X26774427Y-66985918D01*
X26773107Y-67021572D01*
X26754150Y-67052190D01*
X26733780Y-67063796D01*
X26697796Y-67076491D01*
X26655372Y-67086541D01*
X26651922Y-67087140D01*
X26609252Y-67092356D01*
X26551866Y-67096730D01*
X26486849Y-67099818D01*
X26421289Y-67101177D01*
X26405057Y-67101218D01*
X26306744Y-67098741D01*
X26226692Y-67090735D01*
X26161513Y-67076203D01*
X26107817Y-67054149D01*
X26062216Y-67023576D01*
X26021323Y-66983486D01*
X26001202Y-66957259D01*
X25989576Y-66927712D01*
X25986667Y-66887995D01*
X25986808Y-66876026D01*
X25990681Y-66843345D01*
X26003065Y-66816819D01*
X26028230Y-66785971D01*
X26049442Y-66763831D01*
X26075838Y-66741285D01*
X26105555Y-66722917D01*
X26141785Y-66707661D01*
X26187717Y-66694449D01*
X26246544Y-66682214D01*
X26321456Y-66669889D01*
X26415645Y-66656406D01*
X26460957Y-66649396D01*
X26528911Y-66634837D01*
X26578047Y-66618337D01*
X26607614Y-66600439D01*
X26616864Y-66581685D01*
X26605048Y-66562615D01*
X26571416Y-66543771D01*
X26568370Y-66542557D01*
X26522011Y-66530479D01*
X26459361Y-66522279D01*
X26385927Y-66518119D01*
X26307217Y-66518161D01*
X26228739Y-66522569D01*
X26156000Y-66531505D01*
X26152073Y-66532154D01*
X26103257Y-66539861D01*
X26071005Y-66543473D01*
X26050008Y-66542876D01*
X26034954Y-66537954D01*
X26020534Y-66528596D01*
X26019364Y-66527725D01*
X25994847Y-66497351D01*
X25990054Y-66461850D01*
X26005860Y-66427269D01*
X26010406Y-66422813D01*
X26040020Y-66407673D01*
X26087002Y-66394550D01*
X26147306Y-66383750D01*
X26216888Y-66375581D01*
X26291703Y-66370351D01*
X26367706Y-66368367D01*
X26440853Y-66369936D01*
G37*
X26440853Y-66369936D02*
X26507100Y-66375366D01*
X26562400Y-66384964D01*
X26613283Y-66399825D01*
X26684595Y-66432958D01*
X26735752Y-66475640D01*
X26766575Y-66527705D01*
X26776889Y-66588983D01*
X26775952Y-66620232D01*
X26770160Y-66645029D01*
X26755353Y-66666699D01*
X26727380Y-66694049D01*
X26719402Y-66701378D01*
X26695692Y-66722281D01*
X26673298Y-66739251D01*
X26649265Y-66753205D01*
X26620637Y-66765056D01*
X26584460Y-66775720D01*
X26537780Y-66786111D01*
X26477641Y-66797146D01*
X26401090Y-66809738D01*
X26305171Y-66824804D01*
X26286808Y-66827838D01*
X26224478Y-66841458D01*
X26179260Y-66857192D01*
X26152976Y-66874263D01*
X26147447Y-66891897D01*
X26150068Y-66896168D01*
X26168000Y-66911233D01*
X26196126Y-66927867D01*
X26208926Y-66933857D01*
X26230224Y-66941050D01*
X26256610Y-66945827D01*
X26292454Y-66948646D01*
X26342128Y-66949964D01*
X26410000Y-66950237D01*
X26427785Y-66950164D01*
X26495406Y-66949053D01*
X26560345Y-66946828D01*
X26615970Y-66943762D01*
X26655651Y-66940127D01*
X26691162Y-66936059D01*
X26720415Y-66935276D01*
X26739315Y-66939876D01*
X26754429Y-66950551D01*
X26758085Y-66954144D01*
X26774427Y-66985918D01*
X26773107Y-67021572D01*
X26754150Y-67052190D01*
X26733780Y-67063796D01*
X26697796Y-67076491D01*
X26655372Y-67086541D01*
X26651922Y-67087140D01*
X26609252Y-67092356D01*
X26551866Y-67096730D01*
X26486849Y-67099818D01*
X26421289Y-67101177D01*
X26405057Y-67101218D01*
X26306744Y-67098741D01*
X26226692Y-67090735D01*
X26161513Y-67076203D01*
X26107817Y-67054149D01*
X26062216Y-67023576D01*
X26021323Y-66983486D01*
X26001202Y-66957259D01*
X25989576Y-66927712D01*
X25986667Y-66887995D01*
X25986808Y-66876026D01*
X25990681Y-66843345D01*
X26003065Y-66816819D01*
X26028230Y-66785971D01*
X26049442Y-66763831D01*
X26075838Y-66741285D01*
X26105555Y-66722917D01*
X26141785Y-66707661D01*
X26187717Y-66694449D01*
X26246544Y-66682214D01*
X26321456Y-66669889D01*
X26415645Y-66656406D01*
X26460957Y-66649396D01*
X26528911Y-66634837D01*
X26578047Y-66618337D01*
X26607614Y-66600439D01*
X26616864Y-66581685D01*
X26605048Y-66562615D01*
X26571416Y-66543771D01*
X26568370Y-66542557D01*
X26522011Y-66530479D01*
X26459361Y-66522279D01*
X26385927Y-66518119D01*
X26307217Y-66518161D01*
X26228739Y-66522569D01*
X26156000Y-66531505D01*
X26152073Y-66532154D01*
X26103257Y-66539861D01*
X26071005Y-66543473D01*
X26050008Y-66542876D01*
X26034954Y-66537954D01*
X26020534Y-66528596D01*
X26019364Y-66527725D01*
X25994847Y-66497351D01*
X25990054Y-66461850D01*
X26005860Y-66427269D01*
X26010406Y-66422813D01*
X26040020Y-66407673D01*
X26087002Y-66394550D01*
X26147306Y-66383750D01*
X26216888Y-66375581D01*
X26291703Y-66370351D01*
X26367706Y-66368367D01*
X26440853Y-66369936D01*
%TO.C,LOGO1*%
G36*
X7753941Y-65999282D02*
G01*
X7785774Y-66011758D01*
X7822743Y-66028602D01*
X7822743Y-66515196D01*
X7776812Y-66561127D01*
X7766320Y-66571427D01*
X7737255Y-66594320D01*
X7707943Y-66601735D01*
X7664326Y-66598321D01*
X7646568Y-66596114D01*
X7600767Y-66591445D01*
X7568743Y-66589585D01*
X7559244Y-66589869D01*
X7520274Y-66592948D01*
X7473160Y-66598321D01*
X7458085Y-66600168D01*
X7420110Y-66600893D01*
X7392325Y-66589429D01*
X7360674Y-66561127D01*
X7314743Y-66515196D01*
X7314743Y-66255055D01*
X7315101Y-66178180D01*
X7316216Y-66104886D01*
X7317952Y-66046850D01*
X7320167Y-66008663D01*
X7322721Y-65994914D01*
X7323256Y-65994951D01*
X7341808Y-66001793D01*
X7373153Y-66016868D01*
X7415608Y-66038822D01*
X7419604Y-66267240D01*
X7423600Y-66495657D01*
X7510686Y-66495657D01*
X7514657Y-66245286D01*
X7515916Y-66177227D01*
X7517718Y-66104482D01*
X7519671Y-66046730D01*
X7521612Y-66008648D01*
X7523377Y-65994914D01*
X7523885Y-65994962D01*
X7541482Y-66000015D01*
X7573834Y-66010849D01*
X7619543Y-66026783D01*
X7619765Y-66246706D01*
X7619988Y-66284909D01*
X7621531Y-66359146D01*
X7624292Y-66421145D01*
X7627977Y-66465308D01*
X7632292Y-66486041D01*
X7647732Y-66497131D01*
X7679241Y-66500556D01*
X7713886Y-66495657D01*
X7717857Y-66245286D01*
X7719278Y-66181663D01*
X7722225Y-66106356D01*
X7726079Y-66047286D01*
X7730542Y-66008718D01*
X7735317Y-65994914D01*
X7753941Y-65999282D01*
G37*
X7753941Y-65999282D02*
X7785774Y-66011758D01*
X7822743Y-66028602D01*
X7822743Y-66515196D01*
X7776812Y-66561127D01*
X7766320Y-66571427D01*
X7737255Y-66594320D01*
X7707943Y-66601735D01*
X7664326Y-66598321D01*
X7646568Y-66596114D01*
X7600767Y-66591445D01*
X7568743Y-66589585D01*
X7559244Y-66589869D01*
X7520274Y-66592948D01*
X7473160Y-66598321D01*
X7458085Y-66600168D01*
X7420110Y-66600893D01*
X7392325Y-66589429D01*
X7360674Y-66561127D01*
X7314743Y-66515196D01*
X7314743Y-66255055D01*
X7315101Y-66178180D01*
X7316216Y-66104886D01*
X7317952Y-66046850D01*
X7320167Y-66008663D01*
X7322721Y-65994914D01*
X7323256Y-65994951D01*
X7341808Y-66001793D01*
X7373153Y-66016868D01*
X7415608Y-66038822D01*
X7419604Y-66267240D01*
X7423600Y-66495657D01*
X7510686Y-66495657D01*
X7514657Y-66245286D01*
X7515916Y-66177227D01*
X7517718Y-66104482D01*
X7519671Y-66046730D01*
X7521612Y-66008648D01*
X7523377Y-65994914D01*
X7523885Y-65994962D01*
X7541482Y-66000015D01*
X7573834Y-66010849D01*
X7619543Y-66026783D01*
X7619765Y-66246706D01*
X7619988Y-66284909D01*
X7621531Y-66359146D01*
X7624292Y-66421145D01*
X7627977Y-66465308D01*
X7632292Y-66486041D01*
X7647732Y-66497131D01*
X7679241Y-66500556D01*
X7713886Y-66495657D01*
X7717857Y-66245286D01*
X7719278Y-66181663D01*
X7722225Y-66106356D01*
X7726079Y-66047286D01*
X7730542Y-66008718D01*
X7735317Y-65994914D01*
X7753941Y-65999282D01*
G36*
X12365701Y-66300935D02*
G01*
X12364914Y-66371119D01*
X12362210Y-66420022D01*
X12356606Y-66454178D01*
X12347119Y-66480124D01*
X12332768Y-66504397D01*
X12329237Y-66509433D01*
X12291878Y-66549143D01*
X12249311Y-66579092D01*
X12227452Y-66588810D01*
X12148908Y-66605020D01*
X12071231Y-66594535D01*
X11999645Y-66558707D01*
X11939374Y-66498887D01*
X11934286Y-66490873D01*
X11917730Y-66444342D01*
X11906573Y-66379552D01*
X11901160Y-66304727D01*
X11901768Y-66235513D01*
X12048248Y-66235513D01*
X12049402Y-66331399D01*
X12049866Y-66337569D01*
X12056629Y-66390478D01*
X12068671Y-66424029D01*
X12089005Y-66447016D01*
X12123097Y-66468548D01*
X12156814Y-66469680D01*
X12191543Y-66444857D01*
X12197584Y-66438325D01*
X12209417Y-66418779D01*
X12216404Y-66390386D01*
X12219727Y-66346430D01*
X12220571Y-66280192D01*
X12219125Y-66218150D01*
X12211907Y-66159042D01*
X12197006Y-66121686D01*
X12172636Y-66102152D01*
X12137008Y-66096514D01*
X12123440Y-66097635D01*
X12085430Y-66118194D01*
X12060312Y-66164299D01*
X12048248Y-66235513D01*
X11901768Y-66235513D01*
X11901833Y-66228096D01*
X11908937Y-66157882D01*
X11922815Y-66102312D01*
X11940649Y-66065301D01*
X11990855Y-66007733D01*
X12058885Y-65971962D01*
X12142158Y-65959665D01*
X12164398Y-65960331D01*
X12229891Y-65973947D01*
X12283687Y-66008249D01*
X12333057Y-66067338D01*
X12335995Y-66071722D01*
X12349287Y-66095299D01*
X12357932Y-66121949D01*
X12362904Y-66158159D01*
X12365174Y-66210413D01*
X12365678Y-66280192D01*
X12365714Y-66285200D01*
X12365701Y-66300935D01*
G37*
X12365701Y-66300935D02*
X12364914Y-66371119D01*
X12362210Y-66420022D01*
X12356606Y-66454178D01*
X12347119Y-66480124D01*
X12332768Y-66504397D01*
X12329237Y-66509433D01*
X12291878Y-66549143D01*
X12249311Y-66579092D01*
X12227452Y-66588810D01*
X12148908Y-66605020D01*
X12071231Y-66594535D01*
X11999645Y-66558707D01*
X11939374Y-66498887D01*
X11934286Y-66490873D01*
X11917730Y-66444342D01*
X11906573Y-66379552D01*
X11901160Y-66304727D01*
X11901768Y-66235513D01*
X12048248Y-66235513D01*
X12049402Y-66331399D01*
X12049866Y-66337569D01*
X12056629Y-66390478D01*
X12068671Y-66424029D01*
X12089005Y-66447016D01*
X12123097Y-66468548D01*
X12156814Y-66469680D01*
X12191543Y-66444857D01*
X12197584Y-66438325D01*
X12209417Y-66418779D01*
X12216404Y-66390386D01*
X12219727Y-66346430D01*
X12220571Y-66280192D01*
X12219125Y-66218150D01*
X12211907Y-66159042D01*
X12197006Y-66121686D01*
X12172636Y-66102152D01*
X12137008Y-66096514D01*
X12123440Y-66097635D01*
X12085430Y-66118194D01*
X12060312Y-66164299D01*
X12048248Y-66235513D01*
X11901768Y-66235513D01*
X11901833Y-66228096D01*
X11908937Y-66157882D01*
X11922815Y-66102312D01*
X11940649Y-66065301D01*
X11990855Y-66007733D01*
X12058885Y-65971962D01*
X12142158Y-65959665D01*
X12164398Y-65960331D01*
X12229891Y-65973947D01*
X12283687Y-66008249D01*
X12333057Y-66067338D01*
X12335995Y-66071722D01*
X12349287Y-66095299D01*
X12357932Y-66121949D01*
X12362904Y-66158159D01*
X12365174Y-66210413D01*
X12365678Y-66280192D01*
X12365714Y-66285200D01*
X12365701Y-66300935D01*
G36*
X6240307Y-66341305D02*
G01*
X6236762Y-66417521D01*
X6227483Y-66473294D01*
X6210375Y-66514613D01*
X6183344Y-66547467D01*
X6144292Y-66577846D01*
X6119445Y-66591660D01*
X6079615Y-66600965D01*
X6023665Y-66600230D01*
X5992385Y-66597283D01*
X5954653Y-66588283D01*
X5924494Y-66568720D01*
X5889408Y-66532267D01*
X5884720Y-66526943D01*
X5853177Y-66485969D01*
X5838128Y-66450283D01*
X5834286Y-66407966D01*
X5834286Y-66345779D01*
X5877742Y-66362182D01*
X5909424Y-66381356D01*
X5936962Y-66426347D01*
X5942711Y-66440752D01*
X5974855Y-66481546D01*
X6018611Y-66502081D01*
X6066254Y-66500235D01*
X6110057Y-66473886D01*
X6125111Y-66457455D01*
X6138763Y-66432667D01*
X6134493Y-66410144D01*
X6109916Y-66386964D01*
X6062651Y-66360202D01*
X5990314Y-66326934D01*
X5841543Y-66261816D01*
X5837595Y-66197308D01*
X5839079Y-66156220D01*
X5936010Y-66156220D01*
X5943368Y-66181657D01*
X5976848Y-66208814D01*
X6037614Y-66239714D01*
X6047669Y-66244190D01*
X6095751Y-66265017D01*
X6131726Y-66279665D01*
X6148444Y-66285200D01*
X6150977Y-66281126D01*
X6151993Y-66256247D01*
X6148369Y-66216257D01*
X6139242Y-66177152D01*
X6110773Y-66127884D01*
X6069678Y-66100122D01*
X6020590Y-66096364D01*
X5968144Y-66119109D01*
X5953609Y-66130481D01*
X5936010Y-66156220D01*
X5839079Y-66156220D01*
X5839338Y-66149064D01*
X5861281Y-66088096D01*
X5888979Y-66054497D01*
X5946405Y-66016966D01*
X6014527Y-65998006D01*
X6084947Y-65999507D01*
X6149267Y-66023355D01*
X6163426Y-66032513D01*
X6195904Y-66060849D01*
X6218116Y-66096695D01*
X6231804Y-66145384D01*
X6238715Y-66212249D01*
X6239628Y-66256247D01*
X6240590Y-66302622D01*
X6240307Y-66341305D01*
G37*
X6240307Y-66341305D02*
X6236762Y-66417521D01*
X6227483Y-66473294D01*
X6210375Y-66514613D01*
X6183344Y-66547467D01*
X6144292Y-66577846D01*
X6119445Y-66591660D01*
X6079615Y-66600965D01*
X6023665Y-66600230D01*
X5992385Y-66597283D01*
X5954653Y-66588283D01*
X5924494Y-66568720D01*
X5889408Y-66532267D01*
X5884720Y-66526943D01*
X5853177Y-66485969D01*
X5838128Y-66450283D01*
X5834286Y-66407966D01*
X5834286Y-66345779D01*
X5877742Y-66362182D01*
X5909424Y-66381356D01*
X5936962Y-66426347D01*
X5942711Y-66440752D01*
X5974855Y-66481546D01*
X6018611Y-66502081D01*
X6066254Y-66500235D01*
X6110057Y-66473886D01*
X6125111Y-66457455D01*
X6138763Y-66432667D01*
X6134493Y-66410144D01*
X6109916Y-66386964D01*
X6062651Y-66360202D01*
X5990314Y-66326934D01*
X5841543Y-66261816D01*
X5837595Y-66197308D01*
X5839079Y-66156220D01*
X5936010Y-66156220D01*
X5943368Y-66181657D01*
X5976848Y-66208814D01*
X6037614Y-66239714D01*
X6047669Y-66244190D01*
X6095751Y-66265017D01*
X6131726Y-66279665D01*
X6148444Y-66285200D01*
X6150977Y-66281126D01*
X6151993Y-66256247D01*
X6148369Y-66216257D01*
X6139242Y-66177152D01*
X6110773Y-66127884D01*
X6069678Y-66100122D01*
X6020590Y-66096364D01*
X5968144Y-66119109D01*
X5953609Y-66130481D01*
X5936010Y-66156220D01*
X5839079Y-66156220D01*
X5839338Y-66149064D01*
X5861281Y-66088096D01*
X5888979Y-66054497D01*
X5946405Y-66016966D01*
X6014527Y-65998006D01*
X6084947Y-65999507D01*
X6149267Y-66023355D01*
X6163426Y-66032513D01*
X6195904Y-66060849D01*
X6218116Y-66096695D01*
X6231804Y-66145384D01*
X6238715Y-66212249D01*
X6239628Y-66256247D01*
X6240590Y-66302622D01*
X6240307Y-66341305D01*
G36*
X10531020Y-65967822D02*
G01*
X10598810Y-65999680D01*
X10654366Y-66054770D01*
X10665881Y-66072016D01*
X10675432Y-66091562D01*
X10682206Y-66116198D01*
X10686819Y-66150711D01*
X10689888Y-66199889D01*
X10692029Y-66268519D01*
X10693859Y-66361389D01*
X10698404Y-66619007D01*
X10660225Y-66604491D01*
X10625268Y-66591156D01*
X10599097Y-66578323D01*
X10582013Y-66561780D01*
X10572086Y-66536465D01*
X10567386Y-66497316D01*
X10565982Y-66439268D01*
X10565943Y-66357261D01*
X10565744Y-66291895D01*
X10564559Y-66229173D01*
X10561729Y-66186334D01*
X10556609Y-66158220D01*
X10548553Y-66139675D01*
X10536914Y-66125543D01*
X10508303Y-66105600D01*
X10460239Y-66098083D01*
X10412688Y-66117079D01*
X10409550Y-66119511D01*
X10399769Y-66130748D01*
X10392553Y-66148770D01*
X10387299Y-66178026D01*
X10383402Y-66222962D01*
X10380256Y-66288028D01*
X10377257Y-66377670D01*
X10370000Y-66617697D01*
X10308314Y-66590044D01*
X10246629Y-66562391D01*
X10246629Y-66343246D01*
X10246884Y-66283711D01*
X10249086Y-66200892D01*
X10254661Y-66139227D01*
X10264941Y-66093748D01*
X10281258Y-66059484D01*
X10304943Y-66031466D01*
X10337328Y-66004723D01*
X10383907Y-65977780D01*
X10457287Y-65960191D01*
X10531020Y-65967822D01*
G37*
X10531020Y-65967822D02*
X10598810Y-65999680D01*
X10654366Y-66054770D01*
X10665881Y-66072016D01*
X10675432Y-66091562D01*
X10682206Y-66116198D01*
X10686819Y-66150711D01*
X10689888Y-66199889D01*
X10692029Y-66268519D01*
X10693859Y-66361389D01*
X10698404Y-66619007D01*
X10660225Y-66604491D01*
X10625268Y-66591156D01*
X10599097Y-66578323D01*
X10582013Y-66561780D01*
X10572086Y-66536465D01*
X10567386Y-66497316D01*
X10565982Y-66439268D01*
X10565943Y-66357261D01*
X10565744Y-66291895D01*
X10564559Y-66229173D01*
X10561729Y-66186334D01*
X10556609Y-66158220D01*
X10548553Y-66139675D01*
X10536914Y-66125543D01*
X10508303Y-66105600D01*
X10460239Y-66098083D01*
X10412688Y-66117079D01*
X10409550Y-66119511D01*
X10399769Y-66130748D01*
X10392553Y-66148770D01*
X10387299Y-66178026D01*
X10383402Y-66222962D01*
X10380256Y-66288028D01*
X10377257Y-66377670D01*
X10370000Y-66617697D01*
X10308314Y-66590044D01*
X10246629Y-66562391D01*
X10246629Y-66343246D01*
X10246884Y-66283711D01*
X10249086Y-66200892D01*
X10254661Y-66139227D01*
X10264941Y-66093748D01*
X10281258Y-66059484D01*
X10304943Y-66031466D01*
X10337328Y-66004723D01*
X10383907Y-65977780D01*
X10457287Y-65960191D01*
X10531020Y-65967822D01*
G36*
X6582829Y-66001097D02*
G01*
X6642753Y-66023355D01*
X6667673Y-66040080D01*
X6692910Y-66064043D01*
X6710912Y-66094526D01*
X6722858Y-66136023D01*
X6729930Y-66193032D01*
X6733308Y-66270047D01*
X6734171Y-66371565D01*
X6734002Y-66424027D01*
X6733153Y-66495715D01*
X6731711Y-66552925D01*
X6729814Y-66590809D01*
X6727597Y-66604514D01*
X6713172Y-66599981D01*
X6684054Y-66587670D01*
X6683181Y-66587272D01*
X6668060Y-66579356D01*
X6657891Y-66568495D01*
X6651691Y-66549471D01*
X6648478Y-66517069D01*
X6647270Y-66466071D01*
X6647086Y-66391261D01*
X6646714Y-66343804D01*
X6642750Y-66254615D01*
X6633673Y-66189287D01*
X6618524Y-66144393D01*
X6596345Y-66116507D01*
X6566175Y-66102203D01*
X6561990Y-66101206D01*
X6505480Y-66100427D01*
X6461410Y-66125744D01*
X6430972Y-66176502D01*
X6425544Y-66191175D01*
X6413171Y-66223649D01*
X6406905Y-66238572D01*
X6394036Y-66236516D01*
X6365933Y-66225357D01*
X6339721Y-66206927D01*
X6327771Y-66172098D01*
X6331336Y-66147151D01*
X6353235Y-66096547D01*
X6388644Y-66049128D01*
X6430052Y-66016334D01*
X6447400Y-66008752D01*
X6513089Y-65996076D01*
X6582829Y-66001097D01*
G37*
X6582829Y-66001097D02*
X6642753Y-66023355D01*
X6667673Y-66040080D01*
X6692910Y-66064043D01*
X6710912Y-66094526D01*
X6722858Y-66136023D01*
X6729930Y-66193032D01*
X6733308Y-66270047D01*
X6734171Y-66371565D01*
X6734002Y-66424027D01*
X6733153Y-66495715D01*
X6731711Y-66552925D01*
X6729814Y-66590809D01*
X6727597Y-66604514D01*
X6713172Y-66599981D01*
X6684054Y-66587670D01*
X6683181Y-66587272D01*
X6668060Y-66579356D01*
X6657891Y-66568495D01*
X6651691Y-66549471D01*
X6648478Y-66517069D01*
X6647270Y-66466071D01*
X6647086Y-66391261D01*
X6646714Y-66343804D01*
X6642750Y-66254615D01*
X6633673Y-66189287D01*
X6618524Y-66144393D01*
X6596345Y-66116507D01*
X6566175Y-66102203D01*
X6561990Y-66101206D01*
X6505480Y-66100427D01*
X6461410Y-66125744D01*
X6430972Y-66176502D01*
X6425544Y-66191175D01*
X6413171Y-66223649D01*
X6406905Y-66238572D01*
X6394036Y-66236516D01*
X6365933Y-66225357D01*
X6339721Y-66206927D01*
X6327771Y-66172098D01*
X6331336Y-66147151D01*
X6353235Y-66096547D01*
X6388644Y-66049128D01*
X6430052Y-66016334D01*
X6447400Y-66008752D01*
X6513089Y-65996076D01*
X6582829Y-66001097D01*
G36*
X8329537Y-66356313D02*
G01*
X8321345Y-66433462D01*
X8303519Y-66491276D01*
X8273975Y-66535422D01*
X8230625Y-66571568D01*
X8189332Y-66592463D01*
X8119987Y-66604090D01*
X8050736Y-66591377D01*
X7988145Y-66555945D01*
X7938779Y-66499418D01*
X7932818Y-66488995D01*
X7924945Y-66470733D01*
X7919106Y-66447429D01*
X7914999Y-66415085D01*
X7912325Y-66369704D01*
X7910781Y-66307287D01*
X7910734Y-66301748D01*
X8011429Y-66301748D01*
X8011772Y-66354577D01*
X8013942Y-66402362D01*
X8019307Y-66433209D01*
X8029217Y-66453935D01*
X8045021Y-66471356D01*
X8048724Y-66474705D01*
X8096299Y-66499419D01*
X8146635Y-66496890D01*
X8193517Y-66467288D01*
X8207477Y-66451953D01*
X8219160Y-66431622D01*
X8225686Y-66403514D01*
X8228524Y-66360550D01*
X8229143Y-66295647D01*
X8228837Y-66246122D01*
X8226722Y-66197782D01*
X8221390Y-66166587D01*
X8211460Y-66145647D01*
X8195550Y-66128073D01*
X8186204Y-66120159D01*
X8137776Y-66098843D01*
X8087040Y-66102198D01*
X8042987Y-66130107D01*
X8033504Y-66141173D01*
X8021939Y-66162009D01*
X8015252Y-66191106D01*
X8012173Y-66235381D01*
X8011429Y-66301748D01*
X7910734Y-66301748D01*
X7910067Y-66223837D01*
X7909883Y-66115358D01*
X7909829Y-65778601D01*
X7957000Y-65798362D01*
X7969472Y-65803770D01*
X7989324Y-65815985D01*
X8000687Y-65834482D01*
X8006933Y-65866829D01*
X8011429Y-65920593D01*
X8015535Y-65968866D01*
X8020963Y-66000557D01*
X8028739Y-66012383D01*
X8040457Y-66009212D01*
X8070318Y-65998067D01*
X8123684Y-65995304D01*
X8181093Y-66005625D01*
X8230625Y-66027861D01*
X8257876Y-66048443D01*
X8292865Y-66088600D01*
X8315274Y-66140086D01*
X8327190Y-66208568D01*
X8330542Y-66295647D01*
X8330698Y-66299714D01*
X8329537Y-66356313D01*
G37*
X8329537Y-66356313D02*
X8321345Y-66433462D01*
X8303519Y-66491276D01*
X8273975Y-66535422D01*
X8230625Y-66571568D01*
X8189332Y-66592463D01*
X8119987Y-66604090D01*
X8050736Y-66591377D01*
X7988145Y-66555945D01*
X7938779Y-66499418D01*
X7932818Y-66488995D01*
X7924945Y-66470733D01*
X7919106Y-66447429D01*
X7914999Y-66415085D01*
X7912325Y-66369704D01*
X7910781Y-66307287D01*
X7910734Y-66301748D01*
X8011429Y-66301748D01*
X8011772Y-66354577D01*
X8013942Y-66402362D01*
X8019307Y-66433209D01*
X8029217Y-66453935D01*
X8045021Y-66471356D01*
X8048724Y-66474705D01*
X8096299Y-66499419D01*
X8146635Y-66496890D01*
X8193517Y-66467288D01*
X8207477Y-66451953D01*
X8219160Y-66431622D01*
X8225686Y-66403514D01*
X8228524Y-66360550D01*
X8229143Y-66295647D01*
X8228837Y-66246122D01*
X8226722Y-66197782D01*
X8221390Y-66166587D01*
X8211460Y-66145647D01*
X8195550Y-66128073D01*
X8186204Y-66120159D01*
X8137776Y-66098843D01*
X8087040Y-66102198D01*
X8042987Y-66130107D01*
X8033504Y-66141173D01*
X8021939Y-66162009D01*
X8015252Y-66191106D01*
X8012173Y-66235381D01*
X8011429Y-66301748D01*
X7910734Y-66301748D01*
X7910067Y-66223837D01*
X7909883Y-66115358D01*
X7909829Y-65778601D01*
X7957000Y-65798362D01*
X7969472Y-65803770D01*
X7989324Y-65815985D01*
X8000687Y-65834482D01*
X8006933Y-65866829D01*
X8011429Y-65920593D01*
X8015535Y-65968866D01*
X8020963Y-66000557D01*
X8028739Y-66012383D01*
X8040457Y-66009212D01*
X8070318Y-65998067D01*
X8123684Y-65995304D01*
X8181093Y-66005625D01*
X8230625Y-66027861D01*
X8257876Y-66048443D01*
X8292865Y-66088600D01*
X8315274Y-66140086D01*
X8327190Y-66208568D01*
X8330542Y-66295647D01*
X8330698Y-66299714D01*
X8329537Y-66356313D01*
G36*
X9778543Y-65799444D02*
G01*
X9825714Y-65819342D01*
X9825714Y-66216509D01*
X9825519Y-66319498D01*
X9824998Y-66412141D01*
X9824199Y-66490700D01*
X9823172Y-66551439D01*
X9821963Y-66590623D01*
X9820623Y-66604514D01*
X9820099Y-66604468D01*
X9802287Y-66599420D01*
X9769823Y-66588580D01*
X9724114Y-66572646D01*
X9724114Y-66368173D01*
X9723824Y-66287832D01*
X9722474Y-66229562D01*
X9719369Y-66189909D01*
X9713812Y-66163618D01*
X9705107Y-66145436D01*
X9692556Y-66130107D01*
X9683999Y-66121955D01*
X9637728Y-66099375D01*
X9586728Y-66101375D01*
X9539993Y-66128073D01*
X9533189Y-66134698D01*
X9522293Y-66148456D01*
X9514836Y-66166642D01*
X9510169Y-66194177D01*
X9507642Y-66235981D01*
X9506602Y-66296973D01*
X9506400Y-66382073D01*
X9506303Y-66425234D01*
X9505674Y-66496224D01*
X9504556Y-66553076D01*
X9503063Y-66590828D01*
X9501309Y-66604514D01*
X9500785Y-66604468D01*
X9482973Y-66599420D01*
X9450509Y-66588580D01*
X9404800Y-66572646D01*
X9404823Y-66367237D01*
X9404857Y-66348951D01*
X9406778Y-66253626D01*
X9412678Y-66181543D01*
X9424001Y-66127813D01*
X9442187Y-66087549D01*
X9468679Y-66055861D01*
X9504918Y-66027861D01*
X9540263Y-66010333D01*
X9596773Y-65996785D01*
X9652356Y-65996015D01*
X9695086Y-66009195D01*
X9698298Y-66011015D01*
X9708205Y-66010820D01*
X9714975Y-65995572D01*
X9719861Y-65960613D01*
X9724114Y-65901289D01*
X9731371Y-65779547D01*
X9778543Y-65799444D01*
G37*
X9778543Y-65799444D02*
X9825714Y-65819342D01*
X9825714Y-66216509D01*
X9825519Y-66319498D01*
X9824998Y-66412141D01*
X9824199Y-66490700D01*
X9823172Y-66551439D01*
X9821963Y-66590623D01*
X9820623Y-66604514D01*
X9820099Y-66604468D01*
X9802287Y-66599420D01*
X9769823Y-66588580D01*
X9724114Y-66572646D01*
X9724114Y-66368173D01*
X9723824Y-66287832D01*
X9722474Y-66229562D01*
X9719369Y-66189909D01*
X9713812Y-66163618D01*
X9705107Y-66145436D01*
X9692556Y-66130107D01*
X9683999Y-66121955D01*
X9637728Y-66099375D01*
X9586728Y-66101375D01*
X9539993Y-66128073D01*
X9533189Y-66134698D01*
X9522293Y-66148456D01*
X9514836Y-66166642D01*
X9510169Y-66194177D01*
X9507642Y-66235981D01*
X9506602Y-66296973D01*
X9506400Y-66382073D01*
X9506303Y-66425234D01*
X9505674Y-66496224D01*
X9504556Y-66553076D01*
X9503063Y-66590828D01*
X9501309Y-66604514D01*
X9500785Y-66604468D01*
X9482973Y-66599420D01*
X9450509Y-66588580D01*
X9404800Y-66572646D01*
X9404823Y-66367237D01*
X9404857Y-66348951D01*
X9406778Y-66253626D01*
X9412678Y-66181543D01*
X9424001Y-66127813D01*
X9442187Y-66087549D01*
X9468679Y-66055861D01*
X9504918Y-66027861D01*
X9540263Y-66010333D01*
X9596773Y-65996785D01*
X9652356Y-65996015D01*
X9695086Y-66009195D01*
X9698298Y-66011015D01*
X9708205Y-66010820D01*
X9714975Y-65995572D01*
X9719861Y-65960613D01*
X9724114Y-65901289D01*
X9731371Y-65779547D01*
X9778543Y-65799444D01*
G36*
X9189483Y-66010569D02*
G01*
X9239376Y-66039661D01*
X9261325Y-66062327D01*
X9303504Y-66130082D01*
X9317714Y-66203950D01*
X9317714Y-66254770D01*
X9270999Y-66235128D01*
X9238692Y-66215308D01*
X9213231Y-66174160D01*
X9210616Y-66165675D01*
X9182478Y-66122451D01*
X9140067Y-66099103D01*
X9091370Y-66098100D01*
X9044373Y-66121914D01*
X9037357Y-66128056D01*
X9013893Y-66154745D01*
X9010019Y-66178014D01*
X9027768Y-66200862D01*
X9069179Y-66226287D01*
X9136286Y-66257288D01*
X9140824Y-66259252D01*
X9215322Y-66293990D01*
X9266203Y-66324763D01*
X9297525Y-66355488D01*
X9313343Y-66390082D01*
X9317714Y-66432462D01*
X9311986Y-66479446D01*
X9283062Y-66539585D01*
X9232178Y-66582788D01*
X9195374Y-66595759D01*
X9143434Y-66602856D01*
X9092999Y-66601340D01*
X9056983Y-66590632D01*
X9053158Y-66587966D01*
X9042998Y-66569337D01*
X9050048Y-66536505D01*
X9062297Y-66510735D01*
X9081939Y-66500006D01*
X9119191Y-66500539D01*
X9170908Y-66497462D01*
X9204701Y-66476212D01*
X9216114Y-66436877D01*
X9216104Y-66435747D01*
X9209187Y-66412913D01*
X9185659Y-66391963D01*
X9139914Y-66367815D01*
X9077704Y-66338741D01*
X9036499Y-66322925D01*
X9012712Y-66323944D01*
X9001597Y-66344837D01*
X8998408Y-66388641D01*
X8998400Y-66458393D01*
X8998044Y-66501452D01*
X8996413Y-66554626D01*
X8993761Y-66591022D01*
X8990422Y-66604514D01*
X8989530Y-66604423D01*
X8970237Y-66597110D01*
X8938284Y-66581678D01*
X8894124Y-66558842D01*
X8899371Y-66353078D01*
X8899736Y-66339432D01*
X8903904Y-66243651D01*
X8911268Y-66171462D01*
X8923330Y-66118058D01*
X8941593Y-66078633D01*
X8967560Y-66048380D01*
X9002733Y-66022493D01*
X9003384Y-66022087D01*
X9060256Y-66000968D01*
X9126033Y-65997400D01*
X9189483Y-66010569D01*
G37*
X9189483Y-66010569D02*
X9239376Y-66039661D01*
X9261325Y-66062327D01*
X9303504Y-66130082D01*
X9317714Y-66203950D01*
X9317714Y-66254770D01*
X9270999Y-66235128D01*
X9238692Y-66215308D01*
X9213231Y-66174160D01*
X9210616Y-66165675D01*
X9182478Y-66122451D01*
X9140067Y-66099103D01*
X9091370Y-66098100D01*
X9044373Y-66121914D01*
X9037357Y-66128056D01*
X9013893Y-66154745D01*
X9010019Y-66178014D01*
X9027768Y-66200862D01*
X9069179Y-66226287D01*
X9136286Y-66257288D01*
X9140824Y-66259252D01*
X9215322Y-66293990D01*
X9266203Y-66324763D01*
X9297525Y-66355488D01*
X9313343Y-66390082D01*
X9317714Y-66432462D01*
X9311986Y-66479446D01*
X9283062Y-66539585D01*
X9232178Y-66582788D01*
X9195374Y-66595759D01*
X9143434Y-66602856D01*
X9092999Y-66601340D01*
X9056983Y-66590632D01*
X9053158Y-66587966D01*
X9042998Y-66569337D01*
X9050048Y-66536505D01*
X9062297Y-66510735D01*
X9081939Y-66500006D01*
X9119191Y-66500539D01*
X9170908Y-66497462D01*
X9204701Y-66476212D01*
X9216114Y-66436877D01*
X9216104Y-66435747D01*
X9209187Y-66412913D01*
X9185659Y-66391963D01*
X9139914Y-66367815D01*
X9077704Y-66338741D01*
X9036499Y-66322925D01*
X9012712Y-66323944D01*
X9001597Y-66344837D01*
X8998408Y-66388641D01*
X8998400Y-66458393D01*
X8998044Y-66501452D01*
X8996413Y-66554626D01*
X8993761Y-66591022D01*
X8990422Y-66604514D01*
X8989530Y-66604423D01*
X8970237Y-66597110D01*
X8938284Y-66581678D01*
X8894124Y-66558842D01*
X8899371Y-66353078D01*
X8899736Y-66339432D01*
X8903904Y-66243651D01*
X8911268Y-66171462D01*
X8923330Y-66118058D01*
X8941593Y-66078633D01*
X8967560Y-66048380D01*
X9002733Y-66022493D01*
X9003384Y-66022087D01*
X9060256Y-66000968D01*
X9126033Y-65997400D01*
X9189483Y-66010569D01*
G36*
X9213933Y-61292371D02*
G01*
X9289856Y-61292865D01*
X9344491Y-61294135D01*
X9381500Y-61296547D01*
X9404547Y-61300467D01*
X9417296Y-61306262D01*
X9423411Y-61314299D01*
X9426556Y-61324943D01*
X9426646Y-61325325D01*
X9431814Y-61350347D01*
X9441209Y-61398681D01*
X9453867Y-61465260D01*
X9468825Y-61545014D01*
X9485119Y-61632875D01*
X9486448Y-61640064D01*
X9502691Y-61725340D01*
X9517805Y-61800242D01*
X9530808Y-61860219D01*
X9540715Y-61900717D01*
X9546544Y-61917184D01*
X9546575Y-61917210D01*
X9564943Y-61926320D01*
X9602640Y-61941457D01*
X9651543Y-61959358D01*
X9654297Y-61960330D01*
X9716817Y-61983959D01*
X9789543Y-62013595D01*
X9857294Y-62043062D01*
X9968703Y-62093626D01*
X10215399Y-61925160D01*
X10232775Y-61913311D01*
X10307202Y-61862947D01*
X10373614Y-61818612D01*
X10428039Y-61782916D01*
X10466506Y-61758471D01*
X10485042Y-61747889D01*
X10497743Y-61750315D01*
X10526579Y-61769110D01*
X10571143Y-61806330D01*
X10632670Y-61863020D01*
X10712398Y-61940227D01*
X10719532Y-61947255D01*
X10782796Y-62010222D01*
X10838990Y-62067268D01*
X10884677Y-62114817D01*
X10916414Y-62149297D01*
X10930764Y-62167131D01*
X10930810Y-62167217D01*
X10932633Y-62180795D01*
X10925910Y-62202820D01*
X10908946Y-62236304D01*
X10880044Y-62284261D01*
X10837508Y-62349704D01*
X10779644Y-62435645D01*
X10769783Y-62450151D01*
X10719913Y-62523635D01*
X10675905Y-62588687D01*
X10640380Y-62641417D01*
X10615959Y-62677936D01*
X10605264Y-62694356D01*
X10604458Y-62697834D01*
X10609518Y-62723785D01*
X10624677Y-62766159D01*
X10647463Y-62817728D01*
X10678429Y-62885170D01*
X10713004Y-62965195D01*
X10742366Y-63037629D01*
X10749645Y-63056377D01*
X10768710Y-63104246D01*
X10782715Y-63137596D01*
X10789041Y-63150114D01*
X10796025Y-63151050D01*
X10827413Y-63156461D01*
X10878787Y-63165806D01*
X10944802Y-63178069D01*
X11020113Y-63192232D01*
X11099375Y-63207280D01*
X11177243Y-63222195D01*
X11248370Y-63235961D01*
X11307412Y-63247562D01*
X11349022Y-63255980D01*
X11367857Y-63260199D01*
X11370980Y-63261389D01*
X11378591Y-63267805D01*
X11384254Y-63281465D01*
X11388251Y-63305999D01*
X11390866Y-63345038D01*
X11392384Y-63402213D01*
X11393086Y-63481154D01*
X11393257Y-63585492D01*
X11393257Y-63902799D01*
X11317057Y-63917839D01*
X11307840Y-63919642D01*
X11258891Y-63928980D01*
X11191205Y-63941669D01*
X11112478Y-63956273D01*
X11030400Y-63971355D01*
X10998078Y-63977422D01*
X10925855Y-63992181D01*
X10865666Y-64006137D01*
X10823040Y-64017952D01*
X10803510Y-64026287D01*
X10794660Y-64039905D01*
X10778548Y-64075938D01*
X10762065Y-64122572D01*
X10756263Y-64140034D01*
X10734906Y-64197358D01*
X10707359Y-64265201D01*
X10678107Y-64332355D01*
X10662463Y-64367430D01*
X10640174Y-64419822D01*
X10624857Y-64459058D01*
X10619162Y-64478563D01*
X10619478Y-64480036D01*
X10630281Y-64500729D01*
X10654638Y-64540665D01*
X10690081Y-64595972D01*
X10734136Y-64662781D01*
X10784332Y-64737220D01*
X10949501Y-64979623D01*
X10732503Y-65196983D01*
X10711516Y-65217899D01*
X10647342Y-65280505D01*
X10589990Y-65334495D01*
X10542820Y-65376826D01*
X10509192Y-65404457D01*
X10492467Y-65414343D01*
X10474303Y-65406821D01*
X10436265Y-65385227D01*
X10382726Y-65352151D01*
X10317884Y-65310191D01*
X10245940Y-65261943D01*
X10175275Y-65214291D01*
X10111526Y-65172328D01*
X10059513Y-65139165D01*
X10023279Y-65117378D01*
X10006867Y-65109543D01*
X10005905Y-65109614D01*
X9984103Y-65117338D01*
X9945440Y-65135323D01*
X9897612Y-65160013D01*
X9897110Y-65160284D01*
X9833587Y-65192099D01*
X9790060Y-65207642D01*
X9763052Y-65207685D01*
X9749090Y-65193000D01*
X9743180Y-65178544D01*
X9727229Y-65139831D01*
X9702660Y-65080316D01*
X9670779Y-65003165D01*
X9632893Y-64911541D01*
X9590310Y-64808607D01*
X9544337Y-64697526D01*
X9502667Y-64596472D01*
X9460268Y-64492780D01*
X9422756Y-64400119D01*
X9391388Y-64321642D01*
X9367425Y-64260500D01*
X9352123Y-64219843D01*
X9346743Y-64202825D01*
X9357018Y-64187219D01*
X9385563Y-64161162D01*
X9425971Y-64130887D01*
X9522979Y-64051684D01*
X9609793Y-63950475D01*
X9673322Y-63839116D01*
X9713177Y-63720893D01*
X9728965Y-63599095D01*
X9720296Y-63477010D01*
X9686778Y-63357925D01*
X9628021Y-63245129D01*
X9543632Y-63141911D01*
X9499631Y-63101713D01*
X9394211Y-63030638D01*
X9281410Y-62984301D01*
X9164525Y-62961599D01*
X9046853Y-62961428D01*
X8931690Y-62982687D01*
X8822335Y-63024270D01*
X8722083Y-63085076D01*
X8634233Y-63164001D01*
X8562080Y-63259941D01*
X8508922Y-63371795D01*
X8478057Y-63498457D01*
X8472392Y-63559507D01*
X8480185Y-63691776D01*
X8515284Y-63817266D01*
X8576649Y-63933759D01*
X8663243Y-64039039D01*
X8774029Y-64130887D01*
X8812931Y-64159930D01*
X8842104Y-64186272D01*
X8853257Y-64202800D01*
X8848810Y-64217209D01*
X8834378Y-64255815D01*
X8811173Y-64315201D01*
X8780452Y-64392215D01*
X8743474Y-64483703D01*
X8701496Y-64586516D01*
X8655778Y-64697502D01*
X8614178Y-64798072D01*
X8571222Y-64901947D01*
X8532829Y-64994819D01*
X8500305Y-65073525D01*
X8474958Y-65134899D01*
X8458095Y-65175779D01*
X8451025Y-65193000D01*
X8450943Y-65193204D01*
X8436798Y-65207745D01*
X8409659Y-65207579D01*
X8366023Y-65191927D01*
X8302388Y-65160013D01*
X8297379Y-65157326D01*
X8250125Y-65133150D01*
X8212811Y-65116037D01*
X8193133Y-65109543D01*
X8177005Y-65117218D01*
X8140959Y-65138871D01*
X8089092Y-65171928D01*
X8025445Y-65213810D01*
X7954060Y-65261943D01*
X7883724Y-65309131D01*
X7818670Y-65351267D01*
X7764820Y-65384578D01*
X7726374Y-65406469D01*
X7707534Y-65414343D01*
X7704325Y-65413343D01*
X7681954Y-65397584D01*
X7643733Y-65365033D01*
X7593021Y-65318733D01*
X7533181Y-65261726D01*
X7467571Y-65197058D01*
X7250648Y-64979772D01*
X7419601Y-64731253D01*
X7588553Y-64482733D01*
X7537183Y-64371595D01*
X7537031Y-64371266D01*
X7506183Y-64300418D01*
X7474661Y-64221523D01*
X7449266Y-64151600D01*
X7445423Y-64140322D01*
X7426047Y-64087967D01*
X7408574Y-64047283D01*
X7396388Y-64026287D01*
X7391426Y-64023322D01*
X7361634Y-64013375D01*
X7311047Y-64000505D01*
X7245194Y-63986053D01*
X7169600Y-63971355D01*
X7146957Y-63967210D01*
X7065038Y-63952116D01*
X6988600Y-63937899D01*
X6925337Y-63925995D01*
X6882943Y-63917839D01*
X6806743Y-63902799D01*
X6806743Y-63585492D01*
X6806760Y-63546476D01*
X6807082Y-63451292D01*
X6808033Y-63380255D01*
X6809896Y-63329734D01*
X6812955Y-63296098D01*
X6817494Y-63275718D01*
X6823795Y-63264962D01*
X6832143Y-63260199D01*
X6840224Y-63258270D01*
X6873172Y-63251445D01*
X6925736Y-63241022D01*
X6992569Y-63228018D01*
X7068328Y-63213449D01*
X7147665Y-63198333D01*
X7225237Y-63183685D01*
X7295698Y-63170523D01*
X7353702Y-63159863D01*
X7393904Y-63152721D01*
X7410959Y-63150114D01*
X7412112Y-63148541D01*
X7421385Y-63128119D01*
X7437432Y-63089045D01*
X7457635Y-63037629D01*
X7485672Y-62968353D01*
X7520186Y-62888290D01*
X7552538Y-62817728D01*
X7559952Y-62801889D01*
X7580755Y-62752293D01*
X7593219Y-62714038D01*
X7594863Y-62694356D01*
X7594015Y-62692962D01*
X7580548Y-62672420D01*
X7553850Y-62632516D01*
X7516539Y-62577140D01*
X7471234Y-62510177D01*
X7420552Y-62435517D01*
X7363445Y-62350692D01*
X7320607Y-62284800D01*
X7291460Y-62236478D01*
X7274317Y-62202733D01*
X7267495Y-62180572D01*
X7269306Y-62167002D01*
X7269915Y-62165984D01*
X7286297Y-62146210D01*
X7319695Y-62110175D01*
X7366671Y-62061451D01*
X7423786Y-62003612D01*
X7487603Y-61940227D01*
X7553802Y-61875905D01*
X7618648Y-61815447D01*
X7666299Y-61774655D01*
X7697990Y-61752484D01*
X7714958Y-61747889D01*
X7717175Y-61748921D01*
X7740524Y-61762837D01*
X7782912Y-61790030D01*
X7840369Y-61827889D01*
X7908923Y-61873803D01*
X7984601Y-61925160D01*
X8231298Y-62093626D01*
X8342706Y-62043062D01*
X8345943Y-62041597D01*
X8414343Y-62011965D01*
X8486907Y-61982493D01*
X8548457Y-61959358D01*
X8548729Y-61959262D01*
X8597595Y-61941367D01*
X8635212Y-61926253D01*
X8653457Y-61917184D01*
X8653752Y-61916855D01*
X8659946Y-61898282D01*
X8670139Y-61856045D01*
X8683348Y-61794696D01*
X8698590Y-61718789D01*
X8714881Y-61632875D01*
X8715449Y-61629796D01*
X8731713Y-61542128D01*
X8746608Y-61462741D01*
X8759171Y-61396701D01*
X8768438Y-61349079D01*
X8773444Y-61324943D01*
X8773764Y-61323605D01*
X8777060Y-61313273D01*
X8783738Y-61305506D01*
X8797462Y-61299940D01*
X8821895Y-61296207D01*
X8860702Y-61293942D01*
X8917546Y-61292778D01*
X8996090Y-61292348D01*
X9100000Y-61292286D01*
X9113056Y-61292286D01*
X9213933Y-61292371D01*
G37*
X9213933Y-61292371D02*
X9289856Y-61292865D01*
X9344491Y-61294135D01*
X9381500Y-61296547D01*
X9404547Y-61300467D01*
X9417296Y-61306262D01*
X9423411Y-61314299D01*
X9426556Y-61324943D01*
X9426646Y-61325325D01*
X9431814Y-61350347D01*
X9441209Y-61398681D01*
X9453867Y-61465260D01*
X9468825Y-61545014D01*
X9485119Y-61632875D01*
X9486448Y-61640064D01*
X9502691Y-61725340D01*
X9517805Y-61800242D01*
X9530808Y-61860219D01*
X9540715Y-61900717D01*
X9546544Y-61917184D01*
X9546575Y-61917210D01*
X9564943Y-61926320D01*
X9602640Y-61941457D01*
X9651543Y-61959358D01*
X9654297Y-61960330D01*
X9716817Y-61983959D01*
X9789543Y-62013595D01*
X9857294Y-62043062D01*
X9968703Y-62093626D01*
X10215399Y-61925160D01*
X10232775Y-61913311D01*
X10307202Y-61862947D01*
X10373614Y-61818612D01*
X10428039Y-61782916D01*
X10466506Y-61758471D01*
X10485042Y-61747889D01*
X10497743Y-61750315D01*
X10526579Y-61769110D01*
X10571143Y-61806330D01*
X10632670Y-61863020D01*
X10712398Y-61940227D01*
X10719532Y-61947255D01*
X10782796Y-62010222D01*
X10838990Y-62067268D01*
X10884677Y-62114817D01*
X10916414Y-62149297D01*
X10930764Y-62167131D01*
X10930810Y-62167217D01*
X10932633Y-62180795D01*
X10925910Y-62202820D01*
X10908946Y-62236304D01*
X10880044Y-62284261D01*
X10837508Y-62349704D01*
X10779644Y-62435645D01*
X10769783Y-62450151D01*
X10719913Y-62523635D01*
X10675905Y-62588687D01*
X10640380Y-62641417D01*
X10615959Y-62677936D01*
X10605264Y-62694356D01*
X10604458Y-62697834D01*
X10609518Y-62723785D01*
X10624677Y-62766159D01*
X10647463Y-62817728D01*
X10678429Y-62885170D01*
X10713004Y-62965195D01*
X10742366Y-63037629D01*
X10749645Y-63056377D01*
X10768710Y-63104246D01*
X10782715Y-63137596D01*
X10789041Y-63150114D01*
X10796025Y-63151050D01*
X10827413Y-63156461D01*
X10878787Y-63165806D01*
X10944802Y-63178069D01*
X11020113Y-63192232D01*
X11099375Y-63207280D01*
X11177243Y-63222195D01*
X11248370Y-63235961D01*
X11307412Y-63247562D01*
X11349022Y-63255980D01*
X11367857Y-63260199D01*
X11370980Y-63261389D01*
X11378591Y-63267805D01*
X11384254Y-63281465D01*
X11388251Y-63305999D01*
X11390866Y-63345038D01*
X11392384Y-63402213D01*
X11393086Y-63481154D01*
X11393257Y-63585492D01*
X11393257Y-63902799D01*
X11317057Y-63917839D01*
X11307840Y-63919642D01*
X11258891Y-63928980D01*
X11191205Y-63941669D01*
X11112478Y-63956273D01*
X11030400Y-63971355D01*
X10998078Y-63977422D01*
X10925855Y-63992181D01*
X10865666Y-64006137D01*
X10823040Y-64017952D01*
X10803510Y-64026287D01*
X10794660Y-64039905D01*
X10778548Y-64075938D01*
X10762065Y-64122572D01*
X10756263Y-64140034D01*
X10734906Y-64197358D01*
X10707359Y-64265201D01*
X10678107Y-64332355D01*
X10662463Y-64367430D01*
X10640174Y-64419822D01*
X10624857Y-64459058D01*
X10619162Y-64478563D01*
X10619478Y-64480036D01*
X10630281Y-64500729D01*
X10654638Y-64540665D01*
X10690081Y-64595972D01*
X10734136Y-64662781D01*
X10784332Y-64737220D01*
X10949501Y-64979623D01*
X10732503Y-65196983D01*
X10711516Y-65217899D01*
X10647342Y-65280505D01*
X10589990Y-65334495D01*
X10542820Y-65376826D01*
X10509192Y-65404457D01*
X10492467Y-65414343D01*
X10474303Y-65406821D01*
X10436265Y-65385227D01*
X10382726Y-65352151D01*
X10317884Y-65310191D01*
X10245940Y-65261943D01*
X10175275Y-65214291D01*
X10111526Y-65172328D01*
X10059513Y-65139165D01*
X10023279Y-65117378D01*
X10006867Y-65109543D01*
X10005905Y-65109614D01*
X9984103Y-65117338D01*
X9945440Y-65135323D01*
X9897612Y-65160013D01*
X9897110Y-65160284D01*
X9833587Y-65192099D01*
X9790060Y-65207642D01*
X9763052Y-65207685D01*
X9749090Y-65193000D01*
X9743180Y-65178544D01*
X9727229Y-65139831D01*
X9702660Y-65080316D01*
X9670779Y-65003165D01*
X9632893Y-64911541D01*
X9590310Y-64808607D01*
X9544337Y-64697526D01*
X9502667Y-64596472D01*
X9460268Y-64492780D01*
X9422756Y-64400119D01*
X9391388Y-64321642D01*
X9367425Y-64260500D01*
X9352123Y-64219843D01*
X9346743Y-64202825D01*
X9357018Y-64187219D01*
X9385563Y-64161162D01*
X9425971Y-64130887D01*
X9522979Y-64051684D01*
X9609793Y-63950475D01*
X9673322Y-63839116D01*
X9713177Y-63720893D01*
X9728965Y-63599095D01*
X9720296Y-63477010D01*
X9686778Y-63357925D01*
X9628021Y-63245129D01*
X9543632Y-63141911D01*
X9499631Y-63101713D01*
X9394211Y-63030638D01*
X9281410Y-62984301D01*
X9164525Y-62961599D01*
X9046853Y-62961428D01*
X8931690Y-62982687D01*
X8822335Y-63024270D01*
X8722083Y-63085076D01*
X8634233Y-63164001D01*
X8562080Y-63259941D01*
X8508922Y-63371795D01*
X8478057Y-63498457D01*
X8472392Y-63559507D01*
X8480185Y-63691776D01*
X8515284Y-63817266D01*
X8576649Y-63933759D01*
X8663243Y-64039039D01*
X8774029Y-64130887D01*
X8812931Y-64159930D01*
X8842104Y-64186272D01*
X8853257Y-64202800D01*
X8848810Y-64217209D01*
X8834378Y-64255815D01*
X8811173Y-64315201D01*
X8780452Y-64392215D01*
X8743474Y-64483703D01*
X8701496Y-64586516D01*
X8655778Y-64697502D01*
X8614178Y-64798072D01*
X8571222Y-64901947D01*
X8532829Y-64994819D01*
X8500305Y-65073525D01*
X8474958Y-65134899D01*
X8458095Y-65175779D01*
X8451025Y-65193000D01*
X8450943Y-65193204D01*
X8436798Y-65207745D01*
X8409659Y-65207579D01*
X8366023Y-65191927D01*
X8302388Y-65160013D01*
X8297379Y-65157326D01*
X8250125Y-65133150D01*
X8212811Y-65116037D01*
X8193133Y-65109543D01*
X8177005Y-65117218D01*
X8140959Y-65138871D01*
X8089092Y-65171928D01*
X8025445Y-65213810D01*
X7954060Y-65261943D01*
X7883724Y-65309131D01*
X7818670Y-65351267D01*
X7764820Y-65384578D01*
X7726374Y-65406469D01*
X7707534Y-65414343D01*
X7704325Y-65413343D01*
X7681954Y-65397584D01*
X7643733Y-65365033D01*
X7593021Y-65318733D01*
X7533181Y-65261726D01*
X7467571Y-65197058D01*
X7250648Y-64979772D01*
X7419601Y-64731253D01*
X7588553Y-64482733D01*
X7537183Y-64371595D01*
X7537031Y-64371266D01*
X7506183Y-64300418D01*
X7474661Y-64221523D01*
X7449266Y-64151600D01*
X7445423Y-64140322D01*
X7426047Y-64087967D01*
X7408574Y-64047283D01*
X7396388Y-64026287D01*
X7391426Y-64023322D01*
X7361634Y-64013375D01*
X7311047Y-64000505D01*
X7245194Y-63986053D01*
X7169600Y-63971355D01*
X7146957Y-63967210D01*
X7065038Y-63952116D01*
X6988600Y-63937899D01*
X6925337Y-63925995D01*
X6882943Y-63917839D01*
X6806743Y-63902799D01*
X6806743Y-63585492D01*
X6806760Y-63546476D01*
X6807082Y-63451292D01*
X6808033Y-63380255D01*
X6809896Y-63329734D01*
X6812955Y-63296098D01*
X6817494Y-63275718D01*
X6823795Y-63264962D01*
X6832143Y-63260199D01*
X6840224Y-63258270D01*
X6873172Y-63251445D01*
X6925736Y-63241022D01*
X6992569Y-63228018D01*
X7068328Y-63213449D01*
X7147665Y-63198333D01*
X7225237Y-63183685D01*
X7295698Y-63170523D01*
X7353702Y-63159863D01*
X7393904Y-63152721D01*
X7410959Y-63150114D01*
X7412112Y-63148541D01*
X7421385Y-63128119D01*
X7437432Y-63089045D01*
X7457635Y-63037629D01*
X7485672Y-62968353D01*
X7520186Y-62888290D01*
X7552538Y-62817728D01*
X7559952Y-62801889D01*
X7580755Y-62752293D01*
X7593219Y-62714038D01*
X7594863Y-62694356D01*
X7594015Y-62692962D01*
X7580548Y-62672420D01*
X7553850Y-62632516D01*
X7516539Y-62577140D01*
X7471234Y-62510177D01*
X7420552Y-62435517D01*
X7363445Y-62350692D01*
X7320607Y-62284800D01*
X7291460Y-62236478D01*
X7274317Y-62202733D01*
X7267495Y-62180572D01*
X7269306Y-62167002D01*
X7269915Y-62165984D01*
X7286297Y-62146210D01*
X7319695Y-62110175D01*
X7366671Y-62061451D01*
X7423786Y-62003612D01*
X7487603Y-61940227D01*
X7553802Y-61875905D01*
X7618648Y-61815447D01*
X7666299Y-61774655D01*
X7697990Y-61752484D01*
X7714958Y-61747889D01*
X7717175Y-61748921D01*
X7740524Y-61762837D01*
X7782912Y-61790030D01*
X7840369Y-61827889D01*
X7908923Y-61873803D01*
X7984601Y-61925160D01*
X8231298Y-62093626D01*
X8342706Y-62043062D01*
X8345943Y-62041597D01*
X8414343Y-62011965D01*
X8486907Y-61982493D01*
X8548457Y-61959358D01*
X8548729Y-61959262D01*
X8597595Y-61941367D01*
X8635212Y-61926253D01*
X8653457Y-61917184D01*
X8653752Y-61916855D01*
X8659946Y-61898282D01*
X8670139Y-61856045D01*
X8683348Y-61794696D01*
X8698590Y-61718789D01*
X8714881Y-61632875D01*
X8715449Y-61629796D01*
X8731713Y-61542128D01*
X8746608Y-61462741D01*
X8759171Y-61396701D01*
X8768438Y-61349079D01*
X8773444Y-61324943D01*
X8773764Y-61323605D01*
X8777060Y-61313273D01*
X8783738Y-61305506D01*
X8797462Y-61299940D01*
X8821895Y-61296207D01*
X8860702Y-61293942D01*
X8917546Y-61292778D01*
X8996090Y-61292348D01*
X9100000Y-61292286D01*
X9113056Y-61292286D01*
X9213933Y-61292371D01*
G36*
X7067495Y-65996220D02*
G01*
X7098599Y-66004121D01*
X7127559Y-66023817D01*
X7164831Y-66060484D01*
X7188801Y-66086378D01*
X7213770Y-66119997D01*
X7225031Y-66151506D01*
X7227657Y-66191485D01*
X7227657Y-66256917D01*
X7183035Y-66233842D01*
X7147673Y-66205724D01*
X7123451Y-66167848D01*
X7119291Y-66157551D01*
X7087594Y-66117637D01*
X7043554Y-66097624D01*
X6995531Y-66099572D01*
X6951886Y-66125543D01*
X6933420Y-66146635D01*
X6922663Y-66173619D01*
X6934178Y-66197634D01*
X6969981Y-66221791D01*
X7032090Y-66249199D01*
X7041515Y-66252985D01*
X7098058Y-66277759D01*
X7146580Y-66302189D01*
X7177451Y-66321486D01*
X7208371Y-66355953D01*
X7228927Y-66410957D01*
X7226744Y-66469983D01*
X7202424Y-66525845D01*
X7156568Y-66571355D01*
X7119438Y-66590727D01*
X7047711Y-66604292D01*
X7007852Y-66602462D01*
X6970953Y-66592568D01*
X6956797Y-66571806D01*
X6962091Y-66537613D01*
X6963631Y-66533092D01*
X6975842Y-66509116D01*
X6996174Y-66500042D01*
X7034908Y-66500649D01*
X7062257Y-66501474D01*
X7094257Y-66494392D01*
X7116182Y-66473219D01*
X7128670Y-66447152D01*
X7130062Y-66419845D01*
X7129998Y-66419685D01*
X7113807Y-66404930D01*
X7079155Y-66383457D01*
X7034321Y-66359458D01*
X6987582Y-66337125D01*
X6947217Y-66320652D01*
X6921504Y-66314229D01*
X6917679Y-66320518D01*
X6912864Y-66350115D01*
X6909566Y-66398447D01*
X6908343Y-66459372D01*
X6908058Y-66501542D01*
X6906718Y-66554653D01*
X6904528Y-66591025D01*
X6901769Y-66604514D01*
X6887344Y-66599981D01*
X6858226Y-66587670D01*
X6821257Y-66570826D01*
X6821257Y-66354721D01*
X6821493Y-66299327D01*
X6823729Y-66215207D01*
X6829423Y-66152800D01*
X6839903Y-66107358D01*
X6856497Y-66074133D01*
X6880531Y-66048378D01*
X6913333Y-66025344D01*
X6955124Y-66006335D01*
X7032287Y-65994914D01*
X7067495Y-65996220D01*
G37*
X7067495Y-65996220D02*
X7098599Y-66004121D01*
X7127559Y-66023817D01*
X7164831Y-66060484D01*
X7188801Y-66086378D01*
X7213770Y-66119997D01*
X7225031Y-66151506D01*
X7227657Y-66191485D01*
X7227657Y-66256917D01*
X7183035Y-66233842D01*
X7147673Y-66205724D01*
X7123451Y-66167848D01*
X7119291Y-66157551D01*
X7087594Y-66117637D01*
X7043554Y-66097624D01*
X6995531Y-66099572D01*
X6951886Y-66125543D01*
X6933420Y-66146635D01*
X6922663Y-66173619D01*
X6934178Y-66197634D01*
X6969981Y-66221791D01*
X7032090Y-66249199D01*
X7041515Y-66252985D01*
X7098058Y-66277759D01*
X7146580Y-66302189D01*
X7177451Y-66321486D01*
X7208371Y-66355953D01*
X7228927Y-66410957D01*
X7226744Y-66469983D01*
X7202424Y-66525845D01*
X7156568Y-66571355D01*
X7119438Y-66590727D01*
X7047711Y-66604292D01*
X7007852Y-66602462D01*
X6970953Y-66592568D01*
X6956797Y-66571806D01*
X6962091Y-66537613D01*
X6963631Y-66533092D01*
X6975842Y-66509116D01*
X6996174Y-66500042D01*
X7034908Y-66500649D01*
X7062257Y-66501474D01*
X7094257Y-66494392D01*
X7116182Y-66473219D01*
X7128670Y-66447152D01*
X7130062Y-66419845D01*
X7129998Y-66419685D01*
X7113807Y-66404930D01*
X7079155Y-66383457D01*
X7034321Y-66359458D01*
X6987582Y-66337125D01*
X6947217Y-66320652D01*
X6921504Y-66314229D01*
X6917679Y-66320518D01*
X6912864Y-66350115D01*
X6909566Y-66398447D01*
X6908343Y-66459372D01*
X6908058Y-66501542D01*
X6906718Y-66554653D01*
X6904528Y-66591025D01*
X6901769Y-66604514D01*
X6887344Y-66599981D01*
X6858226Y-66587670D01*
X6821257Y-66570826D01*
X6821257Y-66354721D01*
X6821493Y-66299327D01*
X6823729Y-66215207D01*
X6829423Y-66152800D01*
X6839903Y-66107358D01*
X6856497Y-66074133D01*
X6880531Y-66048378D01*
X6913333Y-66025344D01*
X6955124Y-66006335D01*
X7032287Y-65994914D01*
X7067495Y-65996220D01*
G36*
X11257684Y-66354078D02*
G01*
X11255078Y-66377387D01*
X11235660Y-66460352D01*
X11200573Y-66523448D01*
X11147212Y-66571808D01*
X11144196Y-66573804D01*
X11076362Y-66602185D01*
X11005535Y-66604711D01*
X10937289Y-66583097D01*
X10877196Y-66539062D01*
X10830829Y-66474322D01*
X10830050Y-66472761D01*
X10814643Y-66432558D01*
X10803357Y-66386866D01*
X10797370Y-66343972D01*
X10797861Y-66312160D01*
X10806007Y-66299714D01*
X10813244Y-66300471D01*
X10847851Y-66314235D01*
X10887078Y-66339546D01*
X10920448Y-66368845D01*
X10937483Y-66394572D01*
X10955192Y-66429471D01*
X10991485Y-66461212D01*
X11033630Y-66473886D01*
X11049077Y-66470221D01*
X11079569Y-66451774D01*
X11106128Y-66426166D01*
X11117486Y-66402934D01*
X11117482Y-66402848D01*
X11104596Y-66392179D01*
X11070241Y-66372933D01*
X11019593Y-66347813D01*
X10957829Y-66319524D01*
X10957489Y-66319374D01*
X10890388Y-66289498D01*
X10845411Y-66267973D01*
X10818145Y-66251437D01*
X10804178Y-66236531D01*
X10799097Y-66219893D01*
X10798490Y-66198162D01*
X10802712Y-66157013D01*
X10946000Y-66157013D01*
X10960791Y-66169949D01*
X10997644Y-66189333D01*
X10998725Y-66189881D01*
X11042205Y-66210587D01*
X11081102Y-66227105D01*
X11105778Y-66234093D01*
X11115676Y-66224753D01*
X11117486Y-66192748D01*
X11109966Y-66152915D01*
X11083897Y-66116717D01*
X11046154Y-66097950D01*
X11004077Y-66099845D01*
X10965005Y-66125632D01*
X10949647Y-66143451D01*
X10946000Y-66157013D01*
X10802712Y-66157013D01*
X10803833Y-66146086D01*
X10830251Y-66075335D01*
X10874473Y-66019735D01*
X10931697Y-65981239D01*
X10997120Y-65961797D01*
X11065937Y-65963359D01*
X11133347Y-65987878D01*
X11194544Y-66037302D01*
X11228450Y-66086212D01*
X11252806Y-66156027D01*
X11256767Y-66192748D01*
X11262299Y-66244055D01*
X11257684Y-66354078D01*
G37*
X11257684Y-66354078D02*
X11255078Y-66377387D01*
X11235660Y-66460352D01*
X11200573Y-66523448D01*
X11147212Y-66571808D01*
X11144196Y-66573804D01*
X11076362Y-66602185D01*
X11005535Y-66604711D01*
X10937289Y-66583097D01*
X10877196Y-66539062D01*
X10830829Y-66474322D01*
X10830050Y-66472761D01*
X10814643Y-66432558D01*
X10803357Y-66386866D01*
X10797370Y-66343972D01*
X10797861Y-66312160D01*
X10806007Y-66299714D01*
X10813244Y-66300471D01*
X10847851Y-66314235D01*
X10887078Y-66339546D01*
X10920448Y-66368845D01*
X10937483Y-66394572D01*
X10955192Y-66429471D01*
X10991485Y-66461212D01*
X11033630Y-66473886D01*
X11049077Y-66470221D01*
X11079569Y-66451774D01*
X11106128Y-66426166D01*
X11117486Y-66402934D01*
X11117482Y-66402848D01*
X11104596Y-66392179D01*
X11070241Y-66372933D01*
X11019593Y-66347813D01*
X10957829Y-66319524D01*
X10957489Y-66319374D01*
X10890388Y-66289498D01*
X10845411Y-66267973D01*
X10818145Y-66251437D01*
X10804178Y-66236531D01*
X10799097Y-66219893D01*
X10798490Y-66198162D01*
X10802712Y-66157013D01*
X10946000Y-66157013D01*
X10960791Y-66169949D01*
X10997644Y-66189333D01*
X10998725Y-66189881D01*
X11042205Y-66210587D01*
X11081102Y-66227105D01*
X11105778Y-66234093D01*
X11115676Y-66224753D01*
X11117486Y-66192748D01*
X11109966Y-66152915D01*
X11083897Y-66116717D01*
X11046154Y-66097950D01*
X11004077Y-66099845D01*
X10965005Y-66125632D01*
X10949647Y-66143451D01*
X10946000Y-66157013D01*
X10802712Y-66157013D01*
X10803833Y-66146086D01*
X10830251Y-66075335D01*
X10874473Y-66019735D01*
X10931697Y-65981239D01*
X10997120Y-65961797D01*
X11065937Y-65963359D01*
X11133347Y-65987878D01*
X11194544Y-66037302D01*
X11228450Y-66086212D01*
X11252806Y-66156027D01*
X11256767Y-66192748D01*
X11262299Y-66244055D01*
X11257684Y-66354078D01*
G36*
X8707691Y-66016467D02*
G01*
X8712273Y-66019003D01*
X8749704Y-66048057D01*
X8783170Y-66085410D01*
X8789007Y-66093852D01*
X8800165Y-66113553D01*
X8808136Y-66136935D01*
X8813618Y-66169067D01*
X8817307Y-66215019D01*
X8819899Y-66279859D01*
X8822092Y-66368657D01*
X8822402Y-66383669D01*
X8823400Y-66480999D01*
X8821994Y-66549934D01*
X8818164Y-66590948D01*
X8811889Y-66604514D01*
X8792898Y-66600452D01*
X8760638Y-66588144D01*
X8753041Y-66584545D01*
X8741176Y-66576398D01*
X8732994Y-66563004D01*
X8727643Y-66539608D01*
X8724269Y-66501455D01*
X8722019Y-66443790D01*
X8720040Y-66361857D01*
X8719498Y-66337907D01*
X8717403Y-66262266D01*
X8714683Y-66209328D01*
X8710515Y-66174075D01*
X8704079Y-66151487D01*
X8694550Y-66136544D01*
X8681106Y-66124227D01*
X8641305Y-66102634D01*
X8592341Y-66098476D01*
X8548529Y-66114999D01*
X8517008Y-66149210D01*
X8504914Y-66198114D01*
X8504578Y-66211407D01*
X8497972Y-66235472D01*
X8478470Y-66239144D01*
X8440283Y-66224813D01*
X8431438Y-66220217D01*
X8407534Y-66193186D01*
X8407061Y-66152994D01*
X8429836Y-66097409D01*
X8450727Y-66067117D01*
X8504142Y-66024084D01*
X8570074Y-65999755D01*
X8640574Y-65996443D01*
X8707691Y-66016467D01*
G37*
X8707691Y-66016467D02*
X8712273Y-66019003D01*
X8749704Y-66048057D01*
X8783170Y-66085410D01*
X8789007Y-66093852D01*
X8800165Y-66113553D01*
X8808136Y-66136935D01*
X8813618Y-66169067D01*
X8817307Y-66215019D01*
X8819899Y-66279859D01*
X8822092Y-66368657D01*
X8822402Y-66383669D01*
X8823400Y-66480999D01*
X8821994Y-66549934D01*
X8818164Y-66590948D01*
X8811889Y-66604514D01*
X8792898Y-66600452D01*
X8760638Y-66588144D01*
X8753041Y-66584545D01*
X8741176Y-66576398D01*
X8732994Y-66563004D01*
X8727643Y-66539608D01*
X8724269Y-66501455D01*
X8722019Y-66443790D01*
X8720040Y-66361857D01*
X8719498Y-66337907D01*
X8717403Y-66262266D01*
X8714683Y-66209328D01*
X8710515Y-66174075D01*
X8704079Y-66151487D01*
X8694550Y-66136544D01*
X8681106Y-66124227D01*
X8641305Y-66102634D01*
X8592341Y-66098476D01*
X8548529Y-66114999D01*
X8517008Y-66149210D01*
X8504914Y-66198114D01*
X8504578Y-66211407D01*
X8497972Y-66235472D01*
X8478470Y-66239144D01*
X8440283Y-66224813D01*
X8431438Y-66220217D01*
X8407534Y-66193186D01*
X8407061Y-66152994D01*
X8429836Y-66097409D01*
X8450727Y-66067117D01*
X8504142Y-66024084D01*
X8570074Y-65999755D01*
X8640574Y-65996443D01*
X8707691Y-66016467D01*
G36*
X11811252Y-66463000D02*
G01*
X11811651Y-66495339D01*
X11812929Y-66603455D01*
X11813185Y-66686186D01*
X11811634Y-66746426D01*
X11807490Y-66787073D01*
X11799964Y-66811023D01*
X11788271Y-66821171D01*
X11771624Y-66820414D01*
X11749236Y-66811648D01*
X11720321Y-66797769D01*
X11714142Y-66794808D01*
X11688413Y-66780311D01*
X11674976Y-66763065D01*
X11669834Y-66734308D01*
X11668990Y-66685283D01*
X11668952Y-66597257D01*
X11578276Y-66597257D01*
X11522498Y-66594815D01*
X11478640Y-66584908D01*
X11442218Y-66564886D01*
X11439503Y-66562929D01*
X11402546Y-66529869D01*
X11376826Y-66489931D01*
X11360606Y-66437657D01*
X11352148Y-66367588D01*
X11350083Y-66288430D01*
X11494857Y-66288430D01*
X11494882Y-66301697D01*
X11496261Y-66361584D01*
X11500687Y-66400732D01*
X11509461Y-66426153D01*
X11523886Y-66444857D01*
X11524784Y-66445750D01*
X11560237Y-66469952D01*
X11594596Y-66467567D01*
X11633403Y-66438260D01*
X11642895Y-66428244D01*
X11656876Y-66407708D01*
X11664760Y-66380997D01*
X11668245Y-66340499D01*
X11669029Y-66278603D01*
X11668350Y-66241130D01*
X11660983Y-66172980D01*
X11644168Y-66128330D01*
X11616234Y-66103926D01*
X11575509Y-66096514D01*
X11558350Y-66098094D01*
X11528660Y-66113766D01*
X11509031Y-66148691D01*
X11498188Y-66205901D01*
X11494857Y-66288430D01*
X11350083Y-66288430D01*
X11349714Y-66274267D01*
X11350253Y-66206169D01*
X11352707Y-66154587D01*
X11358158Y-66118816D01*
X11367686Y-66092015D01*
X11382371Y-66067338D01*
X11395852Y-66048480D01*
X11444799Y-65997568D01*
X11500256Y-65969918D01*
X11569928Y-65961165D01*
X11649664Y-65969890D01*
X11718595Y-66001185D01*
X11773113Y-66056381D01*
X11777223Y-66062224D01*
X11786808Y-66077753D01*
X11794151Y-66095498D01*
X11799612Y-66119290D01*
X11803550Y-66152958D01*
X11806323Y-66200333D01*
X11808292Y-66265245D01*
X11808528Y-66278603D01*
X11809815Y-66351524D01*
X11811252Y-66463000D01*
G37*
X11811252Y-66463000D02*
X11811651Y-66495339D01*
X11812929Y-66603455D01*
X11813185Y-66686186D01*
X11811634Y-66746426D01*
X11807490Y-66787073D01*
X11799964Y-66811023D01*
X11788271Y-66821171D01*
X11771624Y-66820414D01*
X11749236Y-66811648D01*
X11720321Y-66797769D01*
X11714142Y-66794808D01*
X11688413Y-66780311D01*
X11674976Y-66763065D01*
X11669834Y-66734308D01*
X11668990Y-66685283D01*
X11668952Y-66597257D01*
X11578276Y-66597257D01*
X11522498Y-66594815D01*
X11478640Y-66584908D01*
X11442218Y-66564886D01*
X11439503Y-66562929D01*
X11402546Y-66529869D01*
X11376826Y-66489931D01*
X11360606Y-66437657D01*
X11352148Y-66367588D01*
X11350083Y-66288430D01*
X11494857Y-66288430D01*
X11494882Y-66301697D01*
X11496261Y-66361584D01*
X11500687Y-66400732D01*
X11509461Y-66426153D01*
X11523886Y-66444857D01*
X11524784Y-66445750D01*
X11560237Y-66469952D01*
X11594596Y-66467567D01*
X11633403Y-66438260D01*
X11642895Y-66428244D01*
X11656876Y-66407708D01*
X11664760Y-66380997D01*
X11668245Y-66340499D01*
X11669029Y-66278603D01*
X11668350Y-66241130D01*
X11660983Y-66172980D01*
X11644168Y-66128330D01*
X11616234Y-66103926D01*
X11575509Y-66096514D01*
X11558350Y-66098094D01*
X11528660Y-66113766D01*
X11509031Y-66148691D01*
X11498188Y-66205901D01*
X11494857Y-66288430D01*
X11350083Y-66288430D01*
X11349714Y-66274267D01*
X11350253Y-66206169D01*
X11352707Y-66154587D01*
X11358158Y-66118816D01*
X11367686Y-66092015D01*
X11382371Y-66067338D01*
X11395852Y-66048480D01*
X11444799Y-65997568D01*
X11500256Y-65969918D01*
X11569928Y-65961165D01*
X11649664Y-65969890D01*
X11718595Y-66001185D01*
X11773113Y-66056381D01*
X11777223Y-66062224D01*
X11786808Y-66077753D01*
X11794151Y-66095498D01*
X11799612Y-66119290D01*
X11803550Y-66152958D01*
X11806323Y-66200333D01*
X11808292Y-66265245D01*
X11808528Y-66278603D01*
X11809815Y-66351524D01*
X11811252Y-66463000D01*
%TD*%
%LPC*%
D12*
%TO.C,J3*%
X12920000Y-22700000D03*
D13*
X12920000Y-20160000D03*
X15460000Y-22700000D03*
X15460000Y-20160000D03*
X18000000Y-22700000D03*
X18000000Y-20160000D03*
X20540000Y-22700000D03*
X20540000Y-20160000D03*
%TD*%
D14*
%TO.C,J4*%
X33509669Y-16715000D03*
X33509669Y-19485000D03*
X33509669Y-22255000D03*
X33509669Y-25025000D03*
X33509669Y-27795000D03*
X33509669Y-30565000D03*
X33509669Y-33335000D03*
X33509669Y-36105000D03*
X33509669Y-38875000D03*
X33509669Y-41645000D03*
X33509669Y-44415000D03*
X33509669Y-47185000D03*
X30669669Y-15330000D03*
X30669669Y-18100000D03*
X30669669Y-20870000D03*
X30669669Y-23640000D03*
X30669669Y-26410000D03*
X30669669Y-29180000D03*
X30669669Y-31950000D03*
X30669669Y-34720000D03*
X30669669Y-37490000D03*
X30669669Y-40260000D03*
X30669669Y-43030000D03*
X30669669Y-45800000D03*
D15*
X30669669Y-48570000D03*
D16*
X32089669Y-8400000D03*
X32089669Y-55500000D03*
%TD*%
D17*
%TO.C,H1*%
X-1697056Y-1697056D03*
X0Y-2400000D03*
D18*
X0Y0D03*
D17*
X-2400000Y0D03*
X2400000Y0D03*
X0Y2400000D03*
X1697056Y-1697056D03*
X-1697056Y1697056D03*
X1697056Y1697056D03*
%TD*%
D19*
%TO.C,J1*%
X400000Y-22790000D03*
X400000Y-28570000D03*
D20*
X-3250000Y-30000000D03*
D21*
X930000Y-30000000D03*
X930000Y-21360000D03*
D20*
X-3250000Y-21360000D03*
%TD*%
D17*
%TO.C,H4*%
X36000000Y-66400000D03*
D18*
X36000000Y-64000000D03*
D17*
X37697056Y-62302944D03*
X38400000Y-64000000D03*
X33600000Y-64000000D03*
X34302944Y-65697056D03*
X34302944Y-62302944D03*
X36000000Y-61600000D03*
X37697056Y-65697056D03*
%TD*%
D19*
%TO.C,J2*%
X400000Y-50410000D03*
X400000Y-56190000D03*
D20*
X-3250000Y-48980000D03*
D21*
X930000Y-57620000D03*
X930000Y-48980000D03*
D20*
X-3250000Y-57620000D03*
%TD*%
D17*
%TO.C,H3*%
X34302944Y1697056D03*
X36000000Y2400000D03*
X33600000Y0D03*
X37697056Y1697056D03*
D18*
X36000000Y0D03*
D17*
X36000000Y-2400000D03*
X37697056Y-1697056D03*
X38400000Y0D03*
X34302944Y-1697056D03*
%TD*%
%TO.C,H2*%
X2400000Y-64000000D03*
X-1697056Y-65697056D03*
X1697056Y-65697056D03*
X1697056Y-62302944D03*
X0Y-66400000D03*
X0Y-61600000D03*
X-2400000Y-64000000D03*
X-1697056Y-62302944D03*
D18*
X0Y-64000000D03*
%TD*%
M02*
