%TF.GenerationSoftware,KiCad,Pcbnew,(6.0.9)*%
%TF.CreationDate,2022-12-11T16:10:59+10:00*%
%TF.ProjectId,OpenRetroPad,4f70656e-5265-4747-926f-5061642e6b69,rev?*%
%TF.SameCoordinates,Original*%
%TF.FileFunction,Soldermask,Bot*%
%TF.FilePolarity,Negative*%
%FSLAX46Y46*%
G04 Gerber Fmt 4.6, Leading zero omitted, Abs format (unit mm)*
G04 Created by KiCad (PCBNEW (6.0.9)) date 2022-12-11 16:10:59*
%MOMM*%
%LPD*%
G01*
G04 APERTURE LIST*
%ADD10R,1.700000X1.700000*%
%ADD11O,1.700000X1.700000*%
%ADD12C,1.600000*%
%ADD13R,1.600000X1.600000*%
%ADD14C,4.000000*%
%ADD15C,0.800000*%
%ADD16C,6.400000*%
%ADD17C,0.650000*%
%ADD18O,1.600000X1.000000*%
%ADD19O,2.100000X1.000000*%
G04 APERTURE END LIST*
D10*
%TO.C,J3*%
X12920000Y-22700000D03*
D11*
X12920000Y-20160000D03*
X15460000Y-22700000D03*
X15460000Y-20160000D03*
X18000000Y-22700000D03*
X18000000Y-20160000D03*
X20540000Y-22700000D03*
X20540000Y-20160000D03*
%TD*%
D12*
%TO.C,J4*%
X33509669Y-16715000D03*
X33509669Y-19485000D03*
X33509669Y-22255000D03*
X33509669Y-25025000D03*
X33509669Y-27795000D03*
X33509669Y-30565000D03*
X33509669Y-33335000D03*
X33509669Y-36105000D03*
X33509669Y-38875000D03*
X33509669Y-41645000D03*
X33509669Y-44415000D03*
X33509669Y-47185000D03*
X30669669Y-15330000D03*
X30669669Y-18100000D03*
X30669669Y-20870000D03*
X30669669Y-23640000D03*
X30669669Y-26410000D03*
X30669669Y-29180000D03*
X30669669Y-31950000D03*
X30669669Y-34720000D03*
X30669669Y-37490000D03*
X30669669Y-40260000D03*
X30669669Y-43030000D03*
X30669669Y-45800000D03*
D13*
X30669669Y-48570000D03*
D14*
X32089669Y-8400000D03*
X32089669Y-55500000D03*
%TD*%
D15*
%TO.C,H1*%
X-1697056Y-1697056D03*
X0Y-2400000D03*
D16*
X0Y0D03*
D15*
X-2400000Y0D03*
X2400000Y0D03*
X0Y2400000D03*
X1697056Y-1697056D03*
X-1697056Y1697056D03*
X1697056Y1697056D03*
%TD*%
D17*
%TO.C,J1*%
X400000Y-22790000D03*
X400000Y-28570000D03*
D18*
X-3250000Y-30000000D03*
D19*
X930000Y-30000000D03*
X930000Y-21360000D03*
D18*
X-3250000Y-21360000D03*
%TD*%
D15*
%TO.C,H4*%
X36000000Y-66400000D03*
D16*
X36000000Y-64000000D03*
D15*
X37697056Y-62302944D03*
X38400000Y-64000000D03*
X33600000Y-64000000D03*
X34302944Y-65697056D03*
X34302944Y-62302944D03*
X36000000Y-61600000D03*
X37697056Y-65697056D03*
%TD*%
D17*
%TO.C,J2*%
X400000Y-50410000D03*
X400000Y-56190000D03*
D18*
X-3250000Y-48980000D03*
D19*
X930000Y-57620000D03*
X930000Y-48980000D03*
D18*
X-3250000Y-57620000D03*
%TD*%
D15*
%TO.C,H3*%
X34302944Y1697056D03*
X36000000Y2400000D03*
X33600000Y0D03*
X37697056Y1697056D03*
D16*
X36000000Y0D03*
D15*
X36000000Y-2400000D03*
X37697056Y-1697056D03*
X38400000Y0D03*
X34302944Y-1697056D03*
%TD*%
%TO.C,H2*%
X2400000Y-64000000D03*
X-1697056Y-65697056D03*
X1697056Y-65697056D03*
X1697056Y-62302944D03*
X0Y-66400000D03*
X0Y-61600000D03*
X-2400000Y-64000000D03*
X-1697056Y-62302944D03*
D16*
X0Y-64000000D03*
%TD*%
M02*
