M48
; DRILL file {KiCad (6.0.9)} date Tue Dec 20 19:16:25 2022
; FORMAT={-:-/ absolute / inch / decimal}
; #@! TF.CreationDate,2022-12-20T19:16:25+10:00
; #@! TF.GenerationSoftware,Kicad,Pcbnew,(6.0.9)
; #@! TF.FileFunction,Plated,1,4,PTH
FMAT,2
INCH
; #@! TA.AperFunction,Plated,PTH,ViaDrill
T1C0.0118
; #@! TA.AperFunction,Plated,PTH,ViaDrill
T2C0.0157
; #@! TA.AperFunction,Plated,PTH,ComponentDrill
T3C0.0197
; #@! TA.AperFunction,Plated,PTH,ComponentDrill
T4C0.0236
; #@! TA.AperFunction,Plated,PTH,ComponentDrill
T5C0.0394
; #@! TA.AperFunction,Plated,PTH,ComponentDrill
T6C0.1260
%
G90
G05
T1
X-0.1457Y-1.5866
X-0.0512Y-0.2008
X0.0118Y-1.4409
X0.0591Y-0.2047
X0.122Y-1.2402
X0.1339Y-0.9597
X0.1378Y-2.0471
X0.1378Y-2.1024
X0.1417Y-1.0236
X0.1496Y-1.4685
X0.1496Y-2.3268
X0.1614Y-0.2047
X0.1772Y-1.685
X0.2362Y-1.4213
X0.2559Y-1.1614
X0.2559Y-2.248
X0.3031Y-1.5079
X0.3185Y-1.7793
X0.3465Y-1.3425
X0.374Y-1.1299
X0.3819Y-2.0236
X0.3937Y-1.5079
X0.4134Y-1.2835
X0.4843Y-1.4134
X0.4843Y-2.0433
X0.5315Y-1.3701
X0.5354Y-1.8307
X0.5354Y-1.8819
X0.5354Y-2.0591
X0.5472Y-1.4882
X0.5669Y-1.3189
X0.5906Y-0.9843
X0.5984Y-2.0551
X0.6024Y-1.3622
X0.626Y-1.5433
X0.6339Y-1.0276
X0.6339Y-1.2717
X0.685Y-2.4193
X0.6929Y-1.3898
X0.6929Y-1.5236
X0.7047Y-1.622
X0.7087Y-2.6417
X0.7303Y-2.4193
X0.7402Y-1.4429
X0.7677Y-2.1732
X0.7717Y-1.9685
X0.7736Y-1.3858
X0.7953Y-1.7283
X0.8031Y-1.4429
X0.815Y-1.9094
X0.8228Y-1.126
X0.872Y-1.8228
X0.874Y-1.3583
X0.9094Y-0.9882
X0.9528Y-1.0276
X0.9606Y-1.5632
X1.0433Y-1.7205
X1.0472Y-1.2165
X1.0787Y-1.4705
X1.0906Y-1.2598
X1.0925Y-1.6772
X1.0945Y-1.8661
T2
X-0.1102Y-0.2598
X-0.1102Y-0.2953
X-0.1102Y-0.3307
X-0.1102Y-0.3661
X-0.1102Y-0.4016
X-0.0748Y-0.2598
X-0.0748Y-0.2953
X-0.0748Y-0.3307
X-0.0748Y-0.3661
X-0.0748Y-0.4016
X-0.0591Y-0.6142
X-0.0591Y-0.689
X0.0157Y-0.689
X0.0886Y-0.4587
X0.0886Y-0.4961
X0.0886Y-0.5335
X0.124Y-0.4587
X0.124Y-0.4961
X0.124Y-0.5335
X0.2126Y-0.689
X0.2736Y-1.9114
X0.2736Y-1.9508
X0.2736Y-1.9902
X0.2835Y-0.5906
X0.2835Y-0.6654
X0.2835Y-0.7362
X0.2846Y-0.8043
X0.2874Y-0.2559
X0.2874Y-0.2913
X0.2874Y-0.3268
X0.2874Y-0.3622
X0.2874Y-0.3976
X0.2874Y-0.872
X0.2874Y-0.9114
X0.3228Y-0.2559
X0.3228Y-0.2913
X0.3228Y-0.3268
X0.3228Y-0.3622
X0.3228Y-0.3976
X0.7598Y-0.5295
X0.9783Y-2.1732
T3
X-0.0945Y0.0
X-0.0945Y-2.5197
X-0.0668Y0.0668
X-0.0668Y-0.0668
X-0.0668Y-2.4529
X-0.0668Y-2.5865
X0.0Y0.0945
X0.0Y-0.0945
X0.0Y-2.4252
X0.0Y-2.6142
X0.0668Y0.0668
X0.0668Y-0.0668
X0.0668Y-2.4529
X0.0668Y-2.5865
X0.0945Y0.0
X0.0945Y-2.5197
X1.3228Y0.0
X1.3228Y-2.5197
X1.3505Y0.0668
X1.3505Y-0.0668
X1.3505Y-2.4529
X1.3505Y-2.5865
X1.4173Y0.0945
X1.4173Y-0.0945
X1.4173Y-2.4252
X1.4173Y-2.6142
X1.4841Y0.0668
X1.4841Y-0.0668
X1.4841Y-2.4529
X1.4841Y-2.5865
X1.5118Y0.0
X1.5118Y-2.5197
T5
X0.5087Y-0.7937
X0.5087Y-0.8937
X0.6087Y-0.7937
X0.6087Y-0.8937
X0.7087Y-0.7937
X0.7087Y-0.8937
X0.8087Y-0.7937
X0.8087Y-0.8937
X1.2075Y-0.6035
X1.2075Y-0.7126
X1.2075Y-0.8217
X1.2075Y-0.9307
X1.2075Y-1.0398
X1.2075Y-1.1488
X1.2075Y-1.2579
X1.2075Y-1.3669
X1.2075Y-1.476
X1.2075Y-1.585
X1.2075Y-1.6941
X1.2075Y-1.8031
X1.2075Y-1.9122
X1.3193Y-0.6581
X1.3193Y-0.7671
X1.3193Y-0.8762
X1.3193Y-0.9852
X1.3193Y-1.0943
X1.3193Y-1.2033
X1.3193Y-1.3124
X1.3193Y-1.4215
X1.3193Y-1.5305
X1.3193Y-1.6396
X1.3193Y-1.7486
X1.3193Y-1.8577
T6
X0.0Y0.0
X0.0Y-2.5197
X1.2634Y-0.3307
X1.2634Y-2.185
X1.4173Y0.0
X1.4173Y-2.5197
T4
G00X-0.1161Y-0.8409
M15
G01X-0.1398Y-0.8409
M16
G05
G00X-0.1161Y-1.1811
M15
G01X-0.1398Y-1.1811
M16
G05
G00X-0.1161Y-1.9283
M15
G01X-0.1398Y-1.9283
M16
G05
G00X-0.1161Y-2.2685
M15
G01X-0.1398Y-2.2685
M16
G05
G00X0.0583Y-0.8409
M15
G01X0.015Y-0.8409
M16
G05
G00X0.0583Y-1.1811
M15
G01X0.015Y-1.1811
M16
G05
G00X0.0583Y-1.9283
M15
G01X0.015Y-1.9283
M16
G05
G00X0.0583Y-2.2685
M15
G01X0.015Y-2.2685
M16
G05
T0
M30
