%TF.GenerationSoftware,KiCad,Pcbnew,(6.0.9)*%
%TF.CreationDate,2022-12-20T19:16:25+10:00*%
%TF.ProjectId,OpenRetroPad,4f70656e-5265-4747-926f-5061642e6b69,rev?*%
%TF.SameCoordinates,Original*%
%TF.FileFunction,Copper,L4,Bot*%
%TF.FilePolarity,Positive*%
%FSLAX46Y46*%
G04 Gerber Fmt 4.6, Leading zero omitted, Abs format (unit mm)*
G04 Created by KiCad (PCBNEW (6.0.9)) date 2022-12-20 19:16:25*
%MOMM*%
%LPD*%
G01*
G04 APERTURE LIST*
%TA.AperFunction,ComponentPad*%
%ADD10C,4.000000*%
%TD*%
%TA.AperFunction,ComponentPad*%
%ADD11R,1.600000X1.600000*%
%TD*%
%TA.AperFunction,ComponentPad*%
%ADD12C,1.600000*%
%TD*%
%TA.AperFunction,ComponentPad*%
%ADD13C,0.800000*%
%TD*%
%TA.AperFunction,ComponentPad*%
%ADD14C,6.400000*%
%TD*%
%TA.AperFunction,ComponentPad*%
%ADD15O,1.600000X1.000000*%
%TD*%
%TA.AperFunction,ComponentPad*%
%ADD16O,2.100000X1.000000*%
%TD*%
%TA.AperFunction,ComponentPad*%
%ADD17R,1.700000X1.700000*%
%TD*%
%TA.AperFunction,ComponentPad*%
%ADD18O,1.700000X1.700000*%
%TD*%
%TA.AperFunction,ViaPad*%
%ADD19C,0.800000*%
%TD*%
%TA.AperFunction,ViaPad*%
%ADD20C,0.600000*%
%TD*%
%TA.AperFunction,Conductor*%
%ADD21C,0.203200*%
%TD*%
G04 APERTURE END LIST*
D10*
%TO.P,J4,0,PAD*%
%TO.N,GND*%
X32089669Y-55500000D03*
X32089669Y-8400000D03*
D11*
%TO.P,J4,1,1*%
%TO.N,/DB25/TX*%
X30669669Y-48570000D03*
D12*
%TO.P,J4,2,2*%
%TO.N,/DB25/PD1*%
X30669669Y-45800000D03*
%TO.P,J4,3,3*%
%TO.N,/DB25/PD0*%
X30669669Y-43030000D03*
%TO.P,J4,4,4*%
%TO.N,/DB25/PD4*%
X30669669Y-40260000D03*
%TO.P,J4,5,5*%
%TO.N,/DB25/PC6*%
X30669669Y-37490000D03*
%TO.P,J4,6,6*%
%TO.N,/DB25/PD7*%
X30669669Y-34720000D03*
%TO.P,J4,7,7*%
%TO.N,/DB25/CE*%
X30669669Y-31950000D03*
%TO.P,J4,8,8*%
%TO.N,/DB25/PB4*%
X30669669Y-29180000D03*
%TO.P,J4,9,9*%
%TO.N,/DB25/PB5*%
X30669669Y-26410000D03*
%TO.P,J4,10,10*%
%TO.N,/DB25/PB6*%
X30669669Y-23640000D03*
%TO.P,J4,11,11*%
%TO.N,/DB25/RX*%
X30669669Y-20870000D03*
%TO.P,J4,12,12*%
%TO.N,unconnected-(J4-Pad12)*%
X30669669Y-18100000D03*
%TO.P,J4,13,13*%
%TO.N,unconnected-(J4-Pad13)*%
X30669669Y-15330000D03*
%TO.P,J4,14,P14*%
%TO.N,/DB25/MISO*%
X33509669Y-47185000D03*
%TO.P,J4,15,P15*%
%TO.N,/DB25/SCK*%
X33509669Y-44415000D03*
%TO.P,J4,16,P16*%
%TO.N,/DB25/MOSI*%
X33509669Y-41645000D03*
%TO.P,J4,17,P17*%
%TO.N,unconnected-(J4-Pad17)*%
X33509669Y-38875000D03*
%TO.P,J4,18,P18*%
%TO.N,/DB25/PF7*%
X33509669Y-36105000D03*
%TO.P,J4,19,P19*%
%TO.N,/DB25/PF6*%
X33509669Y-33335000D03*
%TO.P,J4,20,P20*%
%TO.N,/DB25/PF5*%
X33509669Y-30565000D03*
%TO.P,J4,21,P21*%
%TO.N,/DB25/PF4*%
X33509669Y-27795000D03*
%TO.P,J4,22,P22*%
%TO.N,unconnected-(J4-Pad22)*%
X33509669Y-25025000D03*
%TO.P,J4,23,P23*%
%TO.N,/DB25/3V3F*%
X33509669Y-22255000D03*
%TO.P,J4,24,P24*%
%TO.N,/DB25/5VF*%
X33509669Y-19485000D03*
%TO.P,J4,25,P25*%
%TO.N,GND*%
X33509669Y-16715000D03*
%TD*%
D13*
%TO.P,H1,1,1*%
%TO.N,unconnected-(H1-Pad1)*%
X1697056Y1697056D03*
X-1697056Y1697056D03*
X1697056Y-1697056D03*
X0Y2400000D03*
X2400000Y0D03*
X-2400000Y0D03*
D14*
X0Y0D03*
D13*
X0Y-2400000D03*
X-1697056Y-1697056D03*
%TD*%
D15*
%TO.P,J1,S1,SHIELD*%
%TO.N,GND*%
X-3250000Y-30000000D03*
D16*
X930000Y-30000000D03*
X930000Y-21360000D03*
D15*
X-3250000Y-21360000D03*
%TD*%
D13*
%TO.P,H4,1,1*%
%TO.N,unconnected-(H4-Pad1)*%
X36000000Y-66400000D03*
D14*
X36000000Y-64000000D03*
D13*
X37697056Y-62302944D03*
X38400000Y-64000000D03*
X33600000Y-64000000D03*
X34302944Y-65697056D03*
X34302944Y-62302944D03*
X36000000Y-61600000D03*
X37697056Y-65697056D03*
%TD*%
D15*
%TO.P,J2,S1,SHIELD*%
%TO.N,GND*%
X-3250000Y-48980000D03*
D16*
X930000Y-57620000D03*
X930000Y-48980000D03*
D15*
X-3250000Y-57620000D03*
%TD*%
D13*
%TO.P,H3,1,1*%
%TO.N,unconnected-(H3-Pad1)*%
X34302944Y1697056D03*
X36000000Y2400000D03*
X33600000Y0D03*
X37697056Y1697056D03*
D14*
X36000000Y0D03*
D13*
X36000000Y-2400000D03*
X37697056Y-1697056D03*
X38400000Y0D03*
X34302944Y-1697056D03*
%TD*%
%TO.P,H2,1,1*%
%TO.N,unconnected-(H2-Pad1)*%
X2400000Y-64000000D03*
X-1697056Y-65697056D03*
X1697056Y-65697056D03*
X1697056Y-62302944D03*
X0Y-66400000D03*
X0Y-61600000D03*
X-2400000Y-64000000D03*
X-1697056Y-62302944D03*
D14*
X0Y-64000000D03*
%TD*%
D17*
%TO.P,J3,1,Pin_1*%
%TO.N,GND*%
X12920000Y-22700000D03*
D18*
%TO.P,J3,2,Pin_2*%
%TO.N,+3V3*%
X12920000Y-20160000D03*
%TO.P,J3,3,Pin_3*%
%TO.N,/DB25/CE*%
X15460000Y-22700000D03*
%TO.P,J3,4,Pin_4*%
%TO.N,/DB25/CSN*%
X15460000Y-20160000D03*
%TO.P,J3,5,Pin_5*%
%TO.N,/DB25/SCK*%
X18000000Y-22700000D03*
%TO.P,J3,6,Pin_6*%
%TO.N,/DB25/MOSI*%
X18000000Y-20160000D03*
%TO.P,J3,7,Pin_7*%
%TO.N,/DB25/MISO*%
X20540000Y-22700000D03*
%TO.P,J3,8,Pin_8*%
%TO.N,/DB25/IRQ*%
X20540000Y-20160000D03*
%TD*%
D19*
%TO.N,GND*%
X24850000Y-55200000D03*
D20*
X20900000Y-28600000D03*
X6500000Y-57100000D03*
X9500000Y-28700000D03*
X4100000Y-5200000D03*
X13600000Y-52300000D03*
X-1300000Y-5100000D03*
D19*
X400000Y-17500000D03*
D20*
X26600000Y-30900000D03*
X9700000Y-51400000D03*
X27750000Y-42600000D03*
X13900000Y-37800000D03*
D19*
X-1500000Y-17500000D03*
D20*
X3800000Y-37300000D03*
X15000000Y-25000000D03*
D19*
X-1500000Y-15600000D03*
D20*
X20200000Y-43900000D03*
X6000000Y-36100000D03*
X18000000Y-67100000D03*
X1500000Y-5200000D03*
X-3700000Y-40300000D03*
X3500000Y-53400000D03*
X22150000Y-46300000D03*
X24200000Y-26100000D03*
X6500000Y-29500000D03*
X8088733Y-45194455D03*
X3600000Y-26000000D03*
D19*
%TO.N,+5V*%
X7300000Y-23150000D03*
D20*
X12300000Y-51900000D03*
X16100000Y-26100000D03*
D19*
X5400000Y-17500000D03*
D20*
X14400000Y-33500000D03*
D19*
X7300000Y-22150000D03*
D20*
X300000Y-36600000D03*
X23100000Y-25100000D03*
X4500000Y-42800000D03*
X19500000Y-55200000D03*
D19*
X7230000Y-20430000D03*
X6950000Y-49550000D03*
D20*
X8800000Y-34100000D03*
D19*
X7200000Y-15000000D03*
X7200000Y-16900000D03*
D20*
X26500000Y-43700000D03*
X27700000Y-32000000D03*
D19*
X6950000Y-48550000D03*
X19300000Y-13450000D03*
X6950000Y-50550000D03*
X7200000Y-18700000D03*
%TO.N,+3V3*%
X2250000Y-13550000D03*
X-1900000Y-10200000D03*
X8200000Y-7400000D03*
X8200000Y-9200000D03*
X7300000Y-6500000D03*
X-2800000Y-7500000D03*
X-1900000Y-8400000D03*
X7300000Y-9200000D03*
X8200000Y-6500000D03*
X7300000Y-7400000D03*
X-2800000Y-10200000D03*
X3150000Y-11650000D03*
X-1900000Y-7500000D03*
X-1900000Y-9300000D03*
X3150000Y-13550000D03*
X-2800000Y-9300000D03*
X-1900000Y-6600000D03*
X-2800000Y-6600000D03*
X7300000Y-8300000D03*
X2250000Y-12600000D03*
X8200000Y-8300000D03*
X-2800000Y-8400000D03*
X8200000Y-10100000D03*
X3150000Y-12600000D03*
X2250000Y-11650000D03*
X7300000Y-10100000D03*
D20*
%TO.N,/DB25/RST*%
X7700000Y-38300000D03*
X17400000Y-61450000D03*
X15200000Y-52200000D03*
X10000000Y-38300000D03*
%TO.N,/IO/RX_LED*%
X20700000Y-48500000D03*
X10500000Y-32600000D03*
%TO.N,/DB25/SCK*%
X13500000Y-34800000D03*
%TO.N,/DB25/MOSI*%
X15300000Y-34600000D03*
%TO.N,/DB25/MISO*%
X16100000Y-32300000D03*
X12300000Y-35900000D03*
%TO.N,/DB25/PD7*%
X20400000Y-36650000D03*
%TO.N,/DB25/RX*%
X17600000Y-35300000D03*
%TO.N,/DB25/PD1*%
X17600000Y-38700000D03*
%TO.N,/DB25/PB6*%
X22200000Y-34500000D03*
%TO.N,/DB25/TX*%
X13600000Y-47800000D03*
X19600000Y-50000000D03*
X13600000Y-46500000D03*
%TO.N,/DB25/PD0*%
X17900000Y-41200000D03*
X15900000Y-39200000D03*
%TO.N,/DB25/PD4*%
X18800000Y-36650000D03*
%TO.N,/DB25/PB5*%
X27400000Y-37350000D03*
X24400000Y-39706500D03*
%TO.N,/USB Data/CC1*%
X3100000Y-31500000D03*
X3400000Y-24376500D03*
%TO.N,/USB Program/CC1*%
X3800000Y-59100000D03*
X3500000Y-51996500D03*
%TO.N,/IO/SW_HWB*%
X27800000Y-47400000D03*
X18550000Y-61450000D03*
%TO.N,/DB25/CE*%
X19650000Y-35200000D03*
%TD*%
D21*
%TO.N,/DB25/RST*%
X12900000Y-49900000D02*
X15200000Y-52200000D01*
X10000000Y-38300000D02*
X12900000Y-41200000D01*
X15500000Y-59550000D02*
X15500000Y-52500000D01*
X15500000Y-52500000D02*
X15200000Y-52200000D01*
X10000000Y-38300000D02*
X7700000Y-38300000D01*
X17400000Y-61450000D02*
X15500000Y-59550000D01*
X12900000Y-41200000D02*
X12900000Y-49900000D01*
%TO.N,/IO/RX_LED*%
X10500000Y-36600000D02*
X10500000Y-32600000D01*
X20700000Y-48500000D02*
X20700000Y-46800000D01*
X20700000Y-46800000D02*
X10500000Y-36600000D01*
%TO.N,/DB25/SCK*%
X13500000Y-34800000D02*
X14600000Y-34800000D01*
X13500000Y-32400000D02*
X13500000Y-34800000D01*
X18000000Y-27900000D02*
X13500000Y-32400000D01*
X24215000Y-44415000D02*
X33509669Y-44415000D01*
X14600000Y-34800000D02*
X24215000Y-44415000D01*
X18000000Y-22700000D02*
X18000000Y-27900000D01*
%TO.N,/DB25/MOSI*%
X22345000Y-41645000D02*
X15300000Y-34600000D01*
X19300000Y-27816525D02*
X19300000Y-21380000D01*
X15300000Y-31816525D02*
X19300000Y-27816525D01*
X15300000Y-34600000D02*
X15300000Y-31816525D01*
X19300000Y-21380000D02*
X18080000Y-20160000D01*
X33509669Y-41645000D02*
X22345000Y-41645000D01*
%TO.N,/DB25/MISO*%
X24300000Y-46500000D02*
X29300000Y-46500000D01*
X13700000Y-35900000D02*
X24300000Y-46500000D01*
X12300000Y-35900000D02*
X13700000Y-35900000D01*
X16100000Y-32300000D02*
X20540000Y-27860000D01*
X29300000Y-46500000D02*
X29985000Y-47185000D01*
X29985000Y-47185000D02*
X33509669Y-47185000D01*
X20540000Y-27860000D02*
X20540000Y-22700000D01*
%TO.N,/DB25/PD7*%
X20400000Y-36650000D02*
X28739669Y-36650000D01*
X28739669Y-36650000D02*
X30669669Y-34720000D01*
%TO.N,/DB25/RX*%
X17600000Y-35300000D02*
X17600000Y-33939669D01*
X17600000Y-33939669D02*
X30669669Y-20870000D01*
%TO.N,/DB25/PD1*%
X24700000Y-45800000D02*
X17600000Y-38700000D01*
X30669669Y-45800000D02*
X24700000Y-45800000D01*
%TO.N,/DB25/PB6*%
X22200000Y-32109669D02*
X30669669Y-23640000D01*
X22200000Y-34500000D02*
X22200000Y-32109669D01*
%TO.N,/DB25/TX*%
X13600000Y-46500000D02*
X13600000Y-47800000D01*
X13600000Y-47800000D02*
X17400000Y-47800000D01*
X17400000Y-47800000D02*
X19600000Y-50000000D01*
%TO.N,/DB25/PD0*%
X17900000Y-41200000D02*
X15900000Y-39200000D01*
%TO.N,/DB25/PD4*%
X22410000Y-40260000D02*
X30669669Y-40260000D01*
X18800000Y-36650000D02*
X22410000Y-40260000D01*
%TO.N,/DB25/PB5*%
X25043500Y-39706500D02*
X24400000Y-39706500D01*
X27400000Y-37350000D02*
X25043500Y-39706500D01*
%TO.N,/USB Data/CC1*%
X3046000Y-24730500D02*
X3046000Y-31446000D01*
X3400000Y-24376500D02*
X3046000Y-24730500D01*
X3046000Y-31446000D02*
X3100000Y-31500000D01*
%TO.N,/USB Program/CC1*%
X2946000Y-52550500D02*
X2946000Y-58246000D01*
X2946000Y-58246000D02*
X3800000Y-59100000D01*
X3500000Y-51996500D02*
X2946000Y-52550500D01*
%TO.N,/IO/SW_HWB*%
X18550000Y-61450000D02*
X20500000Y-59500000D01*
X20500000Y-59500000D02*
X20500000Y-54700000D01*
X20500000Y-54700000D02*
X27800000Y-47400000D01*
%TO.N,/DB25/CE*%
X19950000Y-35500000D02*
X27119669Y-35500000D01*
X27119669Y-35500000D02*
X30669669Y-31950000D01*
X19650000Y-35200000D02*
X19950000Y-35500000D01*
%TD*%
%TA.AperFunction,Conductor*%
%TO.N,+3V3*%
G36*
X8736054Y-5920484D02*
G01*
X8782986Y-5973757D01*
X8794805Y-6026900D01*
X8799863Y-10673863D01*
X8779935Y-10742005D01*
X8726330Y-10788557D01*
X8673863Y-10800000D01*
X4342784Y-10800008D01*
X3702667Y-10800009D01*
X3702667Y-16674009D01*
X3682665Y-16742130D01*
X3629009Y-16788623D01*
X3576667Y-16800009D01*
X1828667Y-16800009D01*
X1760546Y-16780007D01*
X1714053Y-16726351D01*
X1702667Y-16674009D01*
X1702667Y-10800009D01*
X1207275Y-10800008D01*
X-3274000Y-10800000D01*
X-3342121Y-10779998D01*
X-3388614Y-10726342D01*
X-3400000Y-10674000D01*
X-3400000Y-6124971D01*
X-3379998Y-6056850D01*
X-3326342Y-6010357D01*
X-3275034Y-5998975D01*
X1206259Y-5962227D01*
X1251212Y-5970126D01*
X1296562Y-5986992D01*
X1296568Y-5986994D01*
X1303168Y-5989448D01*
X1310149Y-5990379D01*
X1310151Y-5990380D01*
X1475980Y-6012507D01*
X1475984Y-6012507D01*
X1482961Y-6013438D01*
X1489972Y-6012800D01*
X1489976Y-6012800D01*
X1641877Y-5998975D01*
X1663600Y-5996998D01*
X1670303Y-5994820D01*
X1670308Y-5994819D01*
X1766749Y-5963484D01*
X1804651Y-5957321D01*
X3015449Y-5947391D01*
X3750169Y-5941366D01*
X3795119Y-5949265D01*
X3829973Y-5962227D01*
X3896558Y-5986990D01*
X3896560Y-5986990D01*
X3903168Y-5989448D01*
X3986995Y-6000633D01*
X4075980Y-6012507D01*
X4075984Y-6012507D01*
X4082961Y-6013438D01*
X4089972Y-6012800D01*
X4089976Y-6012800D01*
X4241877Y-5998975D01*
X4263600Y-5996998D01*
X4270300Y-5994821D01*
X4270305Y-5994820D01*
X4434066Y-5941611D01*
X4471969Y-5935448D01*
X8667772Y-5901041D01*
X8736054Y-5920484D01*
G37*
%TD.AperFunction*%
%TD*%
M02*
