%TF.GenerationSoftware,KiCad,Pcbnew,(6.0.9)*%
%TF.CreationDate,2022-12-20T19:16:25+10:00*%
%TF.ProjectId,OpenRetroPad,4f70656e-5265-4747-926f-5061642e6b69,rev?*%
%TF.SameCoordinates,Original*%
%TF.FileFunction,Copper,L1,Top*%
%TF.FilePolarity,Positive*%
%FSLAX46Y46*%
G04 Gerber Fmt 4.6, Leading zero omitted, Abs format (unit mm)*
G04 Created by KiCad (PCBNEW (6.0.9)) date 2022-12-20 19:16:25*
%MOMM*%
%LPD*%
G01*
G04 APERTURE LIST*
G04 Aperture macros list*
%AMRoundRect*
0 Rectangle with rounded corners*
0 $1 Rounding radius*
0 $2 $3 $4 $5 $6 $7 $8 $9 X,Y pos of 4 corners*
0 Add a 4 corners polygon primitive as box body*
4,1,4,$2,$3,$4,$5,$6,$7,$8,$9,$2,$3,0*
0 Add four circle primitives for the rounded corners*
1,1,$1+$1,$2,$3*
1,1,$1+$1,$4,$5*
1,1,$1+$1,$6,$7*
1,1,$1+$1,$8,$9*
0 Add four rect primitives between the rounded corners*
20,1,$1+$1,$2,$3,$4,$5,0*
20,1,$1+$1,$4,$5,$6,$7,0*
20,1,$1+$1,$6,$7,$8,$9,0*
20,1,$1+$1,$8,$9,$2,$3,0*%
%AMRotRect*
0 Rectangle, with rotation*
0 The origin of the aperture is its center*
0 $1 length*
0 $2 width*
0 $3 Rotation angle, in degrees counterclockwise*
0 Add horizontal line*
21,1,$1,$2,0,0,$3*%
%AMFreePoly0*
4,1,22,0.500000,-0.750000,0.000000,-0.750000,0.000000,-0.745033,-0.079941,-0.743568,-0.215256,-0.701293,-0.333266,-0.622738,-0.424486,-0.514219,-0.481581,-0.384460,-0.499164,-0.250000,-0.500000,-0.250000,-0.500000,0.250000,-0.499164,0.250000,-0.499963,0.256109,-0.478152,0.396186,-0.417904,0.524511,-0.324060,0.630769,-0.204165,0.706417,-0.067858,0.745374,0.000000,0.744959,0.000000,0.750000,
0.500000,0.750000,0.500000,-0.750000,0.500000,-0.750000,$1*%
%AMFreePoly1*
4,1,20,0.000000,0.744959,0.073905,0.744508,0.209726,0.703889,0.328688,0.626782,0.421226,0.519385,0.479903,0.390333,0.500000,0.250000,0.500000,-0.250000,0.499851,-0.262216,0.476331,-0.402017,0.414519,-0.529596,0.319384,-0.634700,0.198574,-0.708877,0.061801,-0.746166,0.000000,-0.745033,0.000000,-0.750000,-0.500000,-0.750000,-0.500000,0.750000,0.000000,0.750000,0.000000,0.744959,
0.000000,0.744959,$1*%
G04 Aperture macros list end*
%TA.AperFunction,SMDPad,CuDef*%
%ADD10RoundRect,0.225000X-0.250000X0.225000X-0.250000X-0.225000X0.250000X-0.225000X0.250000X0.225000X0*%
%TD*%
%TA.AperFunction,SMDPad,CuDef*%
%ADD11RoundRect,0.150000X-0.512500X-0.150000X0.512500X-0.150000X0.512500X0.150000X-0.512500X0.150000X0*%
%TD*%
%TA.AperFunction,ComponentPad*%
%ADD12C,4.000000*%
%TD*%
%TA.AperFunction,ComponentPad*%
%ADD13R,1.600000X1.600000*%
%TD*%
%TA.AperFunction,ComponentPad*%
%ADD14C,1.600000*%
%TD*%
%TA.AperFunction,SMDPad,CuDef*%
%ADD15R,0.600000X0.450000*%
%TD*%
%TA.AperFunction,SMDPad,CuDef*%
%ADD16RoundRect,0.200000X0.200000X0.275000X-0.200000X0.275000X-0.200000X-0.275000X0.200000X-0.275000X0*%
%TD*%
%TA.AperFunction,SMDPad,CuDef*%
%ADD17RoundRect,0.225000X0.225000X0.250000X-0.225000X0.250000X-0.225000X-0.250000X0.225000X-0.250000X0*%
%TD*%
%TA.AperFunction,SMDPad,CuDef*%
%ADD18RoundRect,0.243750X0.243750X0.456250X-0.243750X0.456250X-0.243750X-0.456250X0.243750X-0.456250X0*%
%TD*%
%TA.AperFunction,SMDPad,CuDef*%
%ADD19RoundRect,0.225000X0.335876X0.017678X0.017678X0.335876X-0.335876X-0.017678X-0.017678X-0.335876X0*%
%TD*%
%TA.AperFunction,SMDPad,CuDef*%
%ADD20RoundRect,0.200000X-0.200000X-0.275000X0.200000X-0.275000X0.200000X0.275000X-0.200000X0.275000X0*%
%TD*%
%TA.AperFunction,SMDPad,CuDef*%
%ADD21RoundRect,0.225000X-0.335876X-0.017678X-0.017678X-0.335876X0.335876X0.017678X0.017678X0.335876X0*%
%TD*%
%TA.AperFunction,SMDPad,CuDef*%
%ADD22RoundRect,0.225000X-0.225000X-0.250000X0.225000X-0.250000X0.225000X0.250000X-0.225000X0.250000X0*%
%TD*%
%TA.AperFunction,SMDPad,CuDef*%
%ADD23RoundRect,0.200000X0.275000X-0.200000X0.275000X0.200000X-0.275000X0.200000X-0.275000X-0.200000X0*%
%TD*%
%TA.AperFunction,SMDPad,CuDef*%
%ADD24RoundRect,0.218750X0.256250X-0.218750X0.256250X0.218750X-0.256250X0.218750X-0.256250X-0.218750X0*%
%TD*%
%TA.AperFunction,SMDPad,CuDef*%
%ADD25RoundRect,0.225000X0.250000X-0.225000X0.250000X0.225000X-0.250000X0.225000X-0.250000X-0.225000X0*%
%TD*%
%TA.AperFunction,ComponentPad*%
%ADD26C,0.800000*%
%TD*%
%TA.AperFunction,ComponentPad*%
%ADD27C,6.400000*%
%TD*%
%TA.AperFunction,SMDPad,CuDef*%
%ADD28RoundRect,0.150000X0.150000X-0.825000X0.150000X0.825000X-0.150000X0.825000X-0.150000X-0.825000X0*%
%TD*%
%TA.AperFunction,SMDPad,CuDef*%
%ADD29R,1.500000X2.000000*%
%TD*%
%TA.AperFunction,SMDPad,CuDef*%
%ADD30R,3.800000X2.000000*%
%TD*%
%TA.AperFunction,SMDPad,CuDef*%
%ADD31RoundRect,0.225000X-0.017678X0.335876X-0.335876X0.017678X0.017678X-0.335876X0.335876X-0.017678X0*%
%TD*%
%TA.AperFunction,SMDPad,CuDef*%
%ADD32RoundRect,0.218750X-0.256250X0.218750X-0.256250X-0.218750X0.256250X-0.218750X0.256250X0.218750X0*%
%TD*%
%TA.AperFunction,SMDPad,CuDef*%
%ADD33RoundRect,0.218750X-0.335876X-0.026517X-0.026517X-0.335876X0.335876X0.026517X0.026517X0.335876X0*%
%TD*%
%TA.AperFunction,SMDPad,CuDef*%
%ADD34RoundRect,0.200000X0.335876X0.053033X0.053033X0.335876X-0.335876X-0.053033X-0.053033X-0.335876X0*%
%TD*%
%TA.AperFunction,SMDPad,CuDef*%
%ADD35RoundRect,0.218750X0.335876X0.026517X0.026517X0.335876X-0.335876X-0.026517X-0.026517X-0.335876X0*%
%TD*%
%TA.AperFunction,SMDPad,CuDef*%
%ADD36RoundRect,0.250000X-0.250000X-0.475000X0.250000X-0.475000X0.250000X0.475000X-0.250000X0.475000X0*%
%TD*%
%TA.AperFunction,SMDPad,CuDef*%
%ADD37RoundRect,0.218750X0.026517X-0.335876X0.335876X-0.026517X-0.026517X0.335876X-0.335876X0.026517X0*%
%TD*%
%TA.AperFunction,SMDPad,CuDef*%
%ADD38FreePoly0,180.000000*%
%TD*%
%TA.AperFunction,SMDPad,CuDef*%
%ADD39FreePoly1,180.000000*%
%TD*%
%TA.AperFunction,SMDPad,CuDef*%
%ADD40R,1.450000X0.600000*%
%TD*%
%TA.AperFunction,SMDPad,CuDef*%
%ADD41R,1.450000X0.300000*%
%TD*%
%TA.AperFunction,ComponentPad*%
%ADD42O,1.600000X1.000000*%
%TD*%
%TA.AperFunction,ComponentPad*%
%ADD43O,2.100000X1.000000*%
%TD*%
%TA.AperFunction,SMDPad,CuDef*%
%ADD44RotRect,1.500000X0.550000X315.000000*%
%TD*%
%TA.AperFunction,SMDPad,CuDef*%
%ADD45RotRect,1.500000X0.550000X45.000000*%
%TD*%
%TA.AperFunction,SMDPad,CuDef*%
%ADD46RoundRect,0.200000X-0.335876X-0.053033X-0.053033X-0.335876X0.335876X0.053033X0.053033X0.335876X0*%
%TD*%
%TA.AperFunction,SMDPad,CuDef*%
%ADD47RoundRect,0.218750X0.218750X0.256250X-0.218750X0.256250X-0.218750X-0.256250X0.218750X-0.256250X0*%
%TD*%
%TA.AperFunction,SMDPad,CuDef*%
%ADD48RoundRect,0.250000X-0.475000X0.250000X-0.475000X-0.250000X0.475000X-0.250000X0.475000X0.250000X0*%
%TD*%
%TA.AperFunction,SMDPad,CuDef*%
%ADD49RotRect,1.400000X1.200000X135.000000*%
%TD*%
%TA.AperFunction,ComponentPad*%
%ADD50R,1.700000X1.700000*%
%TD*%
%TA.AperFunction,ComponentPad*%
%ADD51O,1.700000X1.700000*%
%TD*%
%TA.AperFunction,SMDPad,CuDef*%
%ADD52RoundRect,0.250000X-0.750000X0.250000X-0.750000X-0.250000X0.750000X-0.250000X0.750000X0.250000X0*%
%TD*%
%TA.AperFunction,ViaPad*%
%ADD53C,0.800000*%
%TD*%
%TA.AperFunction,ViaPad*%
%ADD54C,0.600000*%
%TD*%
%TA.AperFunction,Conductor*%
%ADD55C,0.203200*%
%TD*%
%TA.AperFunction,Conductor*%
%ADD56C,0.406400*%
%TD*%
%TA.AperFunction,Conductor*%
%ADD57C,0.508000*%
%TD*%
%TA.AperFunction,Conductor*%
%ADD58C,1.016000*%
%TD*%
G04 APERTURE END LIST*
%TO.C,JP1*%
G36*
X-1528000Y-36876000D02*
G01*
X-2028000Y-36876000D01*
X-2028000Y-36276000D01*
X-1528000Y-36276000D01*
X-1528000Y-36876000D01*
G37*
%TD*%
D10*
%TO.P,C5,1*%
%TO.N,GND*%
X5300000Y-5175000D03*
%TO.P,C5,2*%
%TO.N,+3V3*%
X5300000Y-6725000D03*
%TD*%
D11*
%TO.P,U4,1,I/O1*%
%TO.N,/USB Data/D-*%
X4962500Y-25050000D03*
%TO.P,U4,2,GND*%
%TO.N,GND*%
X4962500Y-26000000D03*
%TO.P,U4,3,I/O2*%
%TO.N,/USB Data/D+*%
X4962500Y-26950000D03*
%TO.P,U4,4,I/O2*%
%TO.N,/Microcontroller/USB_DATA.DP*%
X7237500Y-26950000D03*
%TO.P,U4,5,VBUS*%
%TO.N,/USB Data/VBUS*%
X7237500Y-26000000D03*
%TO.P,U4,6,I/O1*%
%TO.N,/Microcontroller/USB_DATA.DM*%
X7237500Y-25050000D03*
%TD*%
D12*
%TO.P,J4,0,PAD*%
%TO.N,GND*%
X32089669Y-55500000D03*
X32089669Y-8400000D03*
D13*
%TO.P,J4,1,1*%
%TO.N,/DB25/TX*%
X30669669Y-48570000D03*
D14*
%TO.P,J4,2,2*%
%TO.N,/DB25/PD1*%
X30669669Y-45800000D03*
%TO.P,J4,3,3*%
%TO.N,/DB25/PD0*%
X30669669Y-43030000D03*
%TO.P,J4,4,4*%
%TO.N,/DB25/PD4*%
X30669669Y-40260000D03*
%TO.P,J4,5,5*%
%TO.N,/DB25/PC6*%
X30669669Y-37490000D03*
%TO.P,J4,6,6*%
%TO.N,/DB25/PD7*%
X30669669Y-34720000D03*
%TO.P,J4,7,7*%
%TO.N,/DB25/CE*%
X30669669Y-31950000D03*
%TO.P,J4,8,8*%
%TO.N,/DB25/PB4*%
X30669669Y-29180000D03*
%TO.P,J4,9,9*%
%TO.N,/DB25/PB5*%
X30669669Y-26410000D03*
%TO.P,J4,10,10*%
%TO.N,/DB25/PB6*%
X30669669Y-23640000D03*
%TO.P,J4,11,11*%
%TO.N,/DB25/RX*%
X30669669Y-20870000D03*
%TO.P,J4,12,12*%
%TO.N,unconnected-(J4-Pad12)*%
X30669669Y-18100000D03*
%TO.P,J4,13,13*%
%TO.N,unconnected-(J4-Pad13)*%
X30669669Y-15330000D03*
%TO.P,J4,14,P14*%
%TO.N,/DB25/MISO*%
X33509669Y-47185000D03*
%TO.P,J4,15,P15*%
%TO.N,/DB25/SCK*%
X33509669Y-44415000D03*
%TO.P,J4,16,P16*%
%TO.N,/DB25/MOSI*%
X33509669Y-41645000D03*
%TO.P,J4,17,P17*%
%TO.N,unconnected-(J4-Pad17)*%
X33509669Y-38875000D03*
%TO.P,J4,18,P18*%
%TO.N,/DB25/PF7*%
X33509669Y-36105000D03*
%TO.P,J4,19,P19*%
%TO.N,/DB25/PF6*%
X33509669Y-33335000D03*
%TO.P,J4,20,P20*%
%TO.N,/DB25/PF5*%
X33509669Y-30565000D03*
%TO.P,J4,21,P21*%
%TO.N,/DB25/PF4*%
X33509669Y-27795000D03*
%TO.P,J4,22,P22*%
%TO.N,unconnected-(J4-Pad22)*%
X33509669Y-25025000D03*
%TO.P,J4,23,P23*%
%TO.N,/DB25/3V3F*%
X33509669Y-22255000D03*
%TO.P,J4,24,P24*%
%TO.N,/DB25/5VF*%
X33509669Y-19485000D03*
%TO.P,J4,25,P25*%
%TO.N,GND*%
X33509669Y-16715000D03*
%TD*%
D15*
%TO.P,D9,1,K*%
%TO.N,+5V*%
X5800000Y-50700000D03*
%TO.P,D9,2,A*%
%TO.N,/USB Program/VBUS*%
X3700000Y-50700000D03*
%TD*%
D16*
%TO.P,R16,1*%
%TO.N,/DB25/RST*%
X16275000Y-61450000D03*
%TO.P,R16,2*%
%TO.N,Net-(R16-Pad2)*%
X14625000Y-61450000D03*
%TD*%
D17*
%TO.P,C19,1*%
%TO.N,/DB25/RST*%
X6375000Y-38300000D03*
%TO.P,C19,2*%
%TO.N,GND*%
X4825000Y-38300000D03*
%TD*%
D18*
%TO.P,F2,1*%
%TO.N,/DB25/5VF*%
X22537500Y-13450000D03*
%TO.P,F2,2*%
%TO.N,+5V*%
X20662500Y-13450000D03*
%TD*%
D19*
%TO.P,C10,1*%
%TO.N,GND*%
X22998008Y-45448008D03*
%TO.P,C10,2*%
%TO.N,/Microcontroller/AVCC_P24*%
X21901992Y-44351992D03*
%TD*%
D20*
%TO.P,R11,1*%
%TO.N,+5V*%
X4775000Y-39800000D03*
%TO.P,R11,2*%
%TO.N,/DB25/RST*%
X6425000Y-39800000D03*
%TD*%
D21*
%TO.P,C9,1*%
%TO.N,GND*%
X14112652Y-25891332D03*
%TO.P,C9,2*%
%TO.N,+5V*%
X15208668Y-26987348D03*
%TD*%
D22*
%TO.P,C7,1*%
%TO.N,GND*%
X7225000Y-35300000D03*
%TO.P,C7,2*%
%TO.N,+5V*%
X8775000Y-35300000D03*
%TD*%
D23*
%TO.P,R7,1*%
%TO.N,Net-(D2-Pad1)*%
X16700000Y-50825000D03*
%TO.P,R7,2*%
%TO.N,/DB25/TX*%
X16700000Y-49175000D03*
%TD*%
D24*
%TO.P,D8,1,K*%
%TO.N,GND*%
X23500000Y-55187500D03*
%TO.P,D8,2,A*%
%TO.N,Net-(D8-Pad2)*%
X23500000Y-53612500D03*
%TD*%
D25*
%TO.P,C15,1*%
%TO.N,GND*%
X15200000Y-50775000D03*
%TO.P,C15,2*%
%TO.N,+5V*%
X15200000Y-49225000D03*
%TD*%
D21*
%TO.P,C20,1*%
%TO.N,GND*%
X25751992Y-31751992D03*
%TO.P,C20,2*%
%TO.N,+5V*%
X26848008Y-32848008D03*
%TD*%
D20*
%TO.P,R9,1*%
%TO.N,/IO/SW_HWB*%
X19675000Y-61450000D03*
%TO.P,R9,2*%
%TO.N,Net-(R9-Pad2)*%
X21325000Y-61450000D03*
%TD*%
D16*
%TO.P,R4,1*%
%TO.N,GND*%
X5425000Y-57900000D03*
%TO.P,R4,2*%
%TO.N,/USB Program/CC1*%
X3775000Y-57900000D03*
%TD*%
D26*
%TO.P,H1,1,1*%
%TO.N,unconnected-(H1-Pad1)*%
X1697056Y1697056D03*
X-1697056Y1697056D03*
X1697056Y-1697056D03*
X0Y2400000D03*
X2400000Y0D03*
X-2400000Y0D03*
D27*
X0Y0D03*
D26*
X0Y-2400000D03*
X-1697056Y-1697056D03*
%TD*%
D20*
%TO.P,R1,1*%
%TO.N,/USB Data/CC2*%
X3775000Y-28800000D03*
%TO.P,R1,2*%
%TO.N,GND*%
X5425000Y-28800000D03*
%TD*%
D21*
%TO.P,C13,1*%
%TO.N,GND*%
X9870011Y-30133973D03*
%TO.P,C13,2*%
%TO.N,/Microcontroller/UCAP*%
X10966027Y-31229989D03*
%TD*%
D11*
%TO.P,U5,1,I/O1*%
%TO.N,/USB Program/D-*%
X4862500Y-52450000D03*
%TO.P,U5,2,GND*%
%TO.N,GND*%
X4862500Y-53400000D03*
%TO.P,U5,3,I/O2*%
%TO.N,/USB Program/D+*%
X4862500Y-54350000D03*
%TO.P,U5,4,I/O2*%
%TO.N,/UART/USB_PRGM.DP*%
X7137500Y-54350000D03*
%TO.P,U5,5,VBUS*%
%TO.N,/USB Program/VBUS*%
X7137500Y-53400000D03*
%TO.P,U5,6,I/O1*%
%TO.N,/UART/USB_PRGM.DM*%
X7137500Y-52450000D03*
%TD*%
D23*
%TO.P,R8,1*%
%TO.N,Net-(D3-Pad1)*%
X18300000Y-50825000D03*
%TO.P,R8,2*%
%TO.N,/DB25/RX*%
X18300000Y-49175000D03*
%TD*%
D28*
%TO.P,U3,1,UD+*%
%TO.N,/UART/USB_PRGM.DP*%
X9795000Y-54675000D03*
%TO.P,U3,2,UD-*%
%TO.N,/UART/USB_PRGM.DM*%
X11065000Y-54675000D03*
%TO.P,U3,3,GND*%
%TO.N,GND*%
X12335000Y-54675000D03*
%TO.P,U3,4,~{RTS}*%
%TO.N,/UART/RTS*%
X13605000Y-54675000D03*
%TO.P,U3,5,VCC*%
%TO.N,+5V*%
X13605000Y-49725000D03*
%TO.P,U3,6,TXD*%
%TO.N,/DB25/TX*%
X12335000Y-49725000D03*
%TO.P,U3,7,RXD*%
%TO.N,/DB25/RX*%
X11065000Y-49725000D03*
%TO.P,U3,8,V3*%
%TO.N,/UART/V3*%
X9795000Y-49725000D03*
%TD*%
D29*
%TO.P,U1,1,GND*%
%TO.N,GND*%
X400000Y-15550000D03*
%TO.P,U1,2,VO*%
%TO.N,+3V3*%
X2700000Y-15550000D03*
D30*
X2700000Y-9250000D03*
D29*
%TO.P,U1,3,VI*%
%TO.N,+5V*%
X5000000Y-15550000D03*
%TD*%
D31*
%TO.P,C11,1*%
%TO.N,/Microcontroller/XTAL1*%
X10121664Y-45000000D03*
%TO.P,C11,2*%
%TO.N,GND*%
X9025648Y-46096016D03*
%TD*%
D21*
%TO.P,C14,1*%
%TO.N,GND*%
X10930671Y-29073313D03*
%TO.P,C14,2*%
%TO.N,/Microcontroller/UGND*%
X12026687Y-30169329D03*
%TD*%
D32*
%TO.P,D3,1,K*%
%TO.N,Net-(D3-Pad1)*%
X18300000Y-53612500D03*
%TO.P,D3,2,A*%
%TO.N,+5V*%
X18300000Y-55187500D03*
%TD*%
D31*
%TO.P,C18,1*%
%TO.N,GND*%
X23300000Y-27000000D03*
%TO.P,C18,2*%
%TO.N,/Microcontroller/AVCC_P44*%
X22203984Y-28096016D03*
%TD*%
D33*
%TO.P,FB3,1*%
%TO.N,/Microcontroller/AVCC_P24*%
X22943153Y-43293153D03*
%TO.P,FB3,2*%
%TO.N,+5V*%
X24056847Y-44406847D03*
%TD*%
D34*
%TO.P,R6,1*%
%TO.N,/Microcontroller/D-*%
X14183363Y-28083363D03*
%TO.P,R6,2*%
%TO.N,/Microcontroller/USB_DATA.DM*%
X13016637Y-26916637D03*
%TD*%
%TO.P,R10,1*%
%TO.N,GND*%
X26183363Y-42333363D03*
%TO.P,R10,2*%
%TO.N,Net-(D4-Pad1)*%
X25016637Y-41166637D03*
%TD*%
D31*
%TO.P,C12,1*%
%TO.N,/Microcontroller/XTAL2*%
X8283188Y-43161525D03*
%TO.P,C12,2*%
%TO.N,GND*%
X7187172Y-44257541D03*
%TD*%
D35*
%TO.P,D4,1,K*%
%TO.N,Net-(D4-Pad1)*%
X27256847Y-41206847D03*
%TO.P,D4,2,A*%
%TO.N,/IO/LED_USER*%
X26143153Y-40093153D03*
%TD*%
D36*
%TO.P,C6,1*%
%TO.N,GND*%
X3850000Y-48750000D03*
%TO.P,C6,2*%
%TO.N,+5V*%
X5750000Y-48750000D03*
%TD*%
D37*
%TO.P,FB4,1*%
%TO.N,/Microcontroller/AVCC_P44*%
X21143153Y-27056847D03*
%TO.P,FB4,2*%
%TO.N,+5V*%
X22256847Y-25943153D03*
%TD*%
D38*
%TO.P,JP1,1,A*%
%TO.N,+5V*%
X-1128000Y-36576000D03*
D39*
%TO.P,JP1,2,B*%
%TO.N,Net-(D6-Pad2)*%
X-2428000Y-36576000D03*
%TD*%
D16*
%TO.P,R2,1*%
%TO.N,GND*%
X5425000Y-30300000D03*
%TO.P,R2,2*%
%TO.N,/USB Data/CC1*%
X3775000Y-30300000D03*
%TD*%
D34*
%TO.P,R5,1*%
%TO.N,/Microcontroller/D+*%
X13122702Y-29144024D03*
%TO.P,R5,2*%
%TO.N,/Microcontroller/USB_DATA.DP*%
X11955976Y-27977298D03*
%TD*%
D40*
%TO.P,J1,A1,GND*%
%TO.N,GND*%
X1845000Y-22430000D03*
%TO.P,J1,A4,VBUS*%
%TO.N,/USB Data/VBUS*%
X1845000Y-23230000D03*
D41*
%TO.P,J1,A5,CC1*%
%TO.N,/USB Data/CC1*%
X1845000Y-24430000D03*
%TO.P,J1,A6,D+*%
%TO.N,/USB Data/D+*%
X1845000Y-25430000D03*
%TO.P,J1,A7,D-*%
%TO.N,/USB Data/D-*%
X1845000Y-25930000D03*
%TO.P,J1,A8,SBU1*%
%TO.N,unconnected-(J1-PadA8)*%
X1845000Y-26930000D03*
D40*
%TO.P,J1,A9,VBUS*%
%TO.N,/USB Data/VBUS*%
X1845000Y-28130000D03*
%TO.P,J1,A12,GND*%
%TO.N,GND*%
X1845000Y-28930000D03*
%TO.P,J1,B1,GND*%
X1845000Y-28930000D03*
%TO.P,J1,B4,VBUS*%
%TO.N,/USB Data/VBUS*%
X1845000Y-28130000D03*
D41*
%TO.P,J1,B5,CC2*%
%TO.N,/USB Data/CC2*%
X1845000Y-27430000D03*
%TO.P,J1,B6,D+*%
%TO.N,/USB Data/D+*%
X1845000Y-26430000D03*
%TO.P,J1,B7,D-*%
%TO.N,/USB Data/D-*%
X1845000Y-24930000D03*
%TO.P,J1,B8,SBU2*%
%TO.N,unconnected-(J1-PadB8)*%
X1845000Y-23930000D03*
D40*
%TO.P,J1,B9,VBUS*%
%TO.N,/USB Data/VBUS*%
X1845000Y-23230000D03*
%TO.P,J1,B12,GND*%
%TO.N,GND*%
X1845000Y-22430000D03*
D42*
%TO.P,J1,S1,SHIELD*%
X-3250000Y-30000000D03*
D43*
X930000Y-30000000D03*
X930000Y-21360000D03*
D42*
X-3250000Y-21360000D03*
%TD*%
D10*
%TO.P,C4,1*%
%TO.N,GND*%
X2700000Y-5175000D03*
%TO.P,C4,2*%
%TO.N,+3V3*%
X2700000Y-6725000D03*
%TD*%
D26*
%TO.P,H4,1,1*%
%TO.N,unconnected-(H4-Pad1)*%
X36000000Y-66400000D03*
D27*
X36000000Y-64000000D03*
D26*
X37697056Y-62302944D03*
X38400000Y-64000000D03*
X33600000Y-64000000D03*
X34302944Y-65697056D03*
X34302944Y-62302944D03*
X36000000Y-61600000D03*
X37697056Y-65697056D03*
%TD*%
D44*
%TO.P,U2,1,PE6*%
%TO.N,/DB25/CE*%
X16797918Y-29141064D03*
%TO.P,U2,2,UVCC*%
%TO.N,+5V*%
X16232233Y-29706750D03*
%TO.P,U2,3,D-*%
%TO.N,/Microcontroller/D-*%
X15666548Y-30272435D03*
%TO.P,U2,4,D+*%
%TO.N,/Microcontroller/D+*%
X15100862Y-30838120D03*
%TO.P,U2,5,UGND*%
%TO.N,/Microcontroller/UGND*%
X14535177Y-31403806D03*
%TO.P,U2,6,UCAP*%
%TO.N,/Microcontroller/UCAP*%
X13969491Y-31969491D03*
%TO.P,U2,7,VBUS*%
%TO.N,+5V*%
X13403806Y-32535177D03*
%TO.P,U2,8,PB0*%
%TO.N,/IO/RX_LED*%
X12838120Y-33100862D03*
%TO.P,U2,9,PB1*%
%TO.N,/DB25/SCK*%
X12272435Y-33666548D03*
%TO.P,U2,10,PB2*%
%TO.N,/DB25/MOSI*%
X11706750Y-34232233D03*
%TO.P,U2,11,PB3*%
%TO.N,/DB25/MISO*%
X11141064Y-34797918D03*
D45*
%TO.P,U2,12,PB7*%
%TO.N,unconnected-(U2-Pad12)*%
X11141064Y-37202082D03*
%TO.P,U2,13,~{RESET}*%
%TO.N,/DB25/RST*%
X11706750Y-37767767D03*
%TO.P,U2,14,VCC*%
%TO.N,+5V*%
X12272435Y-38333452D03*
%TO.P,U2,15,GND*%
%TO.N,GND*%
X12838120Y-38899138D03*
%TO.P,U2,16,XTAL2*%
%TO.N,/Microcontroller/XTAL2*%
X13403806Y-39464823D03*
%TO.P,U2,17,XTAL1*%
%TO.N,/Microcontroller/XTAL1*%
X13969491Y-40030509D03*
%TO.P,U2,18,PD0*%
%TO.N,/DB25/PD0*%
X14535177Y-40596194D03*
%TO.P,U2,19,PD1*%
%TO.N,/DB25/PD1*%
X15100862Y-41161880D03*
%TO.P,U2,20,PD2*%
%TO.N,/DB25/TX*%
X15666548Y-41727565D03*
%TO.P,U2,21,PD3*%
%TO.N,/DB25/RX*%
X16232233Y-42293250D03*
%TO.P,U2,22,PD5*%
%TO.N,/IO/TX_LED*%
X16797918Y-42858936D03*
D44*
%TO.P,U2,23,GND*%
%TO.N,GND*%
X19202082Y-42858936D03*
%TO.P,U2,24,AVCC*%
%TO.N,/Microcontroller/AVCC_P24*%
X19767767Y-42293250D03*
%TO.P,U2,25,PD4*%
%TO.N,/DB25/PD4*%
X20333452Y-41727565D03*
%TO.P,U2,26,PD6*%
%TO.N,unconnected-(U2-Pad26)*%
X20899138Y-41161880D03*
%TO.P,U2,27,PD7*%
%TO.N,/DB25/PD7*%
X21464823Y-40596194D03*
%TO.P,U2,28,PB4*%
%TO.N,/DB25/CSN*%
X22030509Y-40030509D03*
%TO.P,U2,29,PB5*%
%TO.N,/DB25/PB5*%
X22596194Y-39464823D03*
%TO.P,U2,30,PB6*%
%TO.N,/DB25/PB6*%
X23161880Y-38899138D03*
%TO.P,U2,31,PC6*%
%TO.N,/DB25/PC6*%
X23727565Y-38333452D03*
%TO.P,U2,32,PC7*%
%TO.N,/IO/LED_USER*%
X24293250Y-37767767D03*
%TO.P,U2,33,~{HWB}/PE2*%
%TO.N,/IO/SW_HWB*%
X24858936Y-37202082D03*
D45*
%TO.P,U2,34,VCC*%
%TO.N,+5V*%
X24858936Y-34797918D03*
%TO.P,U2,35,GND*%
%TO.N,GND*%
X24293250Y-34232233D03*
%TO.P,U2,36,PF7*%
%TO.N,/DB25/PF7*%
X23727565Y-33666548D03*
%TO.P,U2,37,PF6*%
%TO.N,/DB25/PF6*%
X23161880Y-33100862D03*
%TO.P,U2,38,PF5*%
%TO.N,/DB25/PF5*%
X22596194Y-32535177D03*
%TO.P,U2,39,PF4*%
%TO.N,/DB25/PF4*%
X22030509Y-31969491D03*
%TO.P,U2,40,PF1*%
%TO.N,/DB25/IRQ*%
X21464823Y-31403806D03*
%TO.P,U2,41,PF0*%
%TO.N,unconnected-(U2-Pad41)*%
X20899138Y-30838120D03*
%TO.P,U2,42,AREF*%
%TO.N,unconnected-(U2-Pad42)*%
X20333452Y-30272435D03*
%TO.P,U2,43,GND*%
%TO.N,GND*%
X19767767Y-29706750D03*
%TO.P,U2,44,AVCC*%
%TO.N,/Microcontroller/AVCC_P44*%
X19202082Y-29141064D03*
%TD*%
D15*
%TO.P,D1,1,K*%
%TO.N,+5V*%
X5850000Y-23250000D03*
%TO.P,D1,2,A*%
%TO.N,/USB Data/VBUS*%
X3750000Y-23250000D03*
%TD*%
D16*
%TO.P,R13,1*%
%TO.N,Net-(D6-Pad1)*%
X-953000Y-40276000D03*
%TO.P,R13,2*%
%TO.N,GND*%
X-2603000Y-40276000D03*
%TD*%
D22*
%TO.P,C8,1*%
%TO.N,GND*%
X7225000Y-36800000D03*
%TO.P,C8,2*%
%TO.N,+5V*%
X8775000Y-36800000D03*
%TD*%
D15*
%TO.P,D5,1,K*%
%TO.N,+5V*%
X4450000Y-41500000D03*
%TO.P,D5,2,A*%
%TO.N,/DB25/RST*%
X6550000Y-41500000D03*
%TD*%
D46*
%TO.P,R12,1*%
%TO.N,/DB25/PB5*%
X23966637Y-42216637D03*
%TO.P,R12,2*%
%TO.N,+5V*%
X25133363Y-43383363D03*
%TD*%
D20*
%TO.P,R3,1*%
%TO.N,/USB Program/CC2*%
X3775000Y-56400000D03*
%TO.P,R3,2*%
%TO.N,GND*%
X5425000Y-56400000D03*
%TD*%
D18*
%TO.P,F1,1*%
%TO.N,/DB25/3V3F*%
X22537500Y-9250000D03*
%TO.P,F1,2*%
%TO.N,+3V3*%
X20662500Y-9250000D03*
%TD*%
D23*
%TO.P,R15,1*%
%TO.N,Net-(D8-Pad2)*%
X23500000Y-50825000D03*
%TO.P,R15,2*%
%TO.N,/IO/TX_LED*%
X23500000Y-49175000D03*
%TD*%
D40*
%TO.P,J2,A1,GND*%
%TO.N,GND*%
X1845000Y-50050000D03*
%TO.P,J2,A4,VBUS*%
%TO.N,/USB Program/VBUS*%
X1845000Y-50850000D03*
D41*
%TO.P,J2,A5,CC1*%
%TO.N,/USB Program/CC1*%
X1845000Y-52050000D03*
%TO.P,J2,A6,D+*%
%TO.N,/USB Program/D+*%
X1845000Y-53050000D03*
%TO.P,J2,A7,D-*%
%TO.N,/USB Program/D-*%
X1845000Y-53550000D03*
%TO.P,J2,A8,SBU1*%
%TO.N,unconnected-(J2-PadA8)*%
X1845000Y-54550000D03*
D40*
%TO.P,J2,A9,VBUS*%
%TO.N,/USB Program/VBUS*%
X1845000Y-55750000D03*
%TO.P,J2,A12,GND*%
%TO.N,GND*%
X1845000Y-56550000D03*
%TO.P,J2,B1,GND*%
X1845000Y-56550000D03*
%TO.P,J2,B4,VBUS*%
%TO.N,/USB Program/VBUS*%
X1845000Y-55750000D03*
D41*
%TO.P,J2,B5,CC2*%
%TO.N,/USB Program/CC2*%
X1845000Y-55050000D03*
%TO.P,J2,B6,D+*%
%TO.N,/USB Program/D+*%
X1845000Y-54050000D03*
%TO.P,J2,B7,D-*%
%TO.N,/USB Program/D-*%
X1845000Y-52550000D03*
%TO.P,J2,B8,SBU2*%
%TO.N,unconnected-(J2-PadB8)*%
X1845000Y-51550000D03*
D40*
%TO.P,J2,B9,VBUS*%
%TO.N,/USB Program/VBUS*%
X1845000Y-50850000D03*
%TO.P,J2,B12,GND*%
%TO.N,GND*%
X1845000Y-50050000D03*
D42*
%TO.P,J2,S1,SHIELD*%
X-3250000Y-48980000D03*
D43*
X930000Y-57620000D03*
X930000Y-48980000D03*
D42*
X-3250000Y-57620000D03*
%TD*%
D26*
%TO.P,H3,1,1*%
%TO.N,unconnected-(H3-Pad1)*%
X34302944Y1697056D03*
X36000000Y2400000D03*
X33600000Y0D03*
X37697056Y1697056D03*
D27*
X36000000Y0D03*
D26*
X36000000Y-2400000D03*
X37697056Y-1697056D03*
X38400000Y0D03*
X34302944Y-1697056D03*
%TD*%
D23*
%TO.P,R14,1*%
%TO.N,Net-(D7-Pad2)*%
X21900000Y-50825000D03*
%TO.P,R14,2*%
%TO.N,/IO/RX_LED*%
X21900000Y-49175000D03*
%TD*%
D47*
%TO.P,D6,1,K*%
%TO.N,Net-(D6-Pad1)*%
X-990500Y-38676000D03*
%TO.P,D6,2,A*%
%TO.N,Net-(D6-Pad2)*%
X-2565500Y-38676000D03*
%TD*%
D26*
%TO.P,H2,1,1*%
%TO.N,unconnected-(H2-Pad1)*%
X2400000Y-64000000D03*
X-1697056Y-65697056D03*
X1697056Y-65697056D03*
X1697056Y-62302944D03*
X0Y-66400000D03*
X0Y-61600000D03*
X-2400000Y-64000000D03*
X-1697056Y-62302944D03*
D27*
X0Y-64000000D03*
%TD*%
D24*
%TO.P,D7,1,K*%
%TO.N,GND*%
X21900000Y-55187500D03*
%TO.P,D7,2,A*%
%TO.N,Net-(D7-Pad2)*%
X21900000Y-53612500D03*
%TD*%
D48*
%TO.P,C3,1*%
%TO.N,GND*%
X100000Y-5050000D03*
%TO.P,C3,2*%
%TO.N,+3V3*%
X100000Y-6950000D03*
%TD*%
D49*
%TO.P,Y1,1,1*%
%TO.N,/Microcontroller/XTAL1*%
X12578858Y-42259962D03*
%TO.P,Y1,2,2*%
%TO.N,GND*%
X11023223Y-40704327D03*
%TO.P,Y1,3,3*%
%TO.N,/Microcontroller/XTAL2*%
X9821142Y-41906408D03*
%TO.P,Y1,4,4*%
%TO.N,GND*%
X11376777Y-43462043D03*
%TD*%
D25*
%TO.P,C17,1*%
%TO.N,/UART/RTS*%
X15200000Y-55175000D03*
%TO.P,C17,2*%
%TO.N,/DB25/RST*%
X15200000Y-53625000D03*
%TD*%
D22*
%TO.P,C2,1*%
%TO.N,GND*%
X4275000Y-19500000D03*
%TO.P,C2,2*%
%TO.N,+5V*%
X5825000Y-19500000D03*
%TD*%
D50*
%TO.P,J3,1,Pin_1*%
%TO.N,GND*%
X12920000Y-22700000D03*
D51*
%TO.P,J3,2,Pin_2*%
%TO.N,+3V3*%
X12920000Y-20160000D03*
%TO.P,J3,3,Pin_3*%
%TO.N,/DB25/CE*%
X15460000Y-22700000D03*
%TO.P,J3,4,Pin_4*%
%TO.N,/DB25/CSN*%
X15460000Y-20160000D03*
%TO.P,J3,5,Pin_5*%
%TO.N,/DB25/SCK*%
X18000000Y-22700000D03*
%TO.P,J3,6,Pin_6*%
%TO.N,/DB25/MOSI*%
X18000000Y-20160000D03*
%TO.P,J3,7,Pin_7*%
%TO.N,/DB25/MISO*%
X20540000Y-22700000D03*
%TO.P,J3,8,Pin_8*%
%TO.N,/DB25/IRQ*%
X20540000Y-20160000D03*
%TD*%
D52*
%TO.P,SW2,1,1*%
%TO.N,Net-(R16-Pad2)*%
X15500000Y-62900000D03*
%TO.P,SW2,2,2*%
%TO.N,GND*%
X15500000Y-67100000D03*
%TD*%
D32*
%TO.P,D2,1,K*%
%TO.N,Net-(D2-Pad1)*%
X16700000Y-53612500D03*
%TO.P,D2,2,A*%
%TO.N,+5V*%
X16700000Y-55187500D03*
%TD*%
D52*
%TO.P,SW1,1,1*%
%TO.N,Net-(R9-Pad2)*%
X20500000Y-62900000D03*
%TO.P,SW1,2,2*%
%TO.N,GND*%
X20500000Y-67100000D03*
%TD*%
D36*
%TO.P,C1,1*%
%TO.N,GND*%
X3950000Y-21300000D03*
%TO.P,C1,2*%
%TO.N,+5V*%
X5850000Y-21300000D03*
%TD*%
D25*
%TO.P,C16,1*%
%TO.N,GND*%
X8200000Y-50775000D03*
%TO.P,C16,2*%
%TO.N,/UART/V3*%
X8200000Y-49225000D03*
%TD*%
D53*
%TO.N,GND*%
X24850000Y-55200000D03*
D54*
X20900000Y-28600000D03*
X6500000Y-57100000D03*
X9500000Y-28700000D03*
X4100000Y-5200000D03*
X13600000Y-52300000D03*
X-1300000Y-5100000D03*
D53*
X400000Y-17500000D03*
D54*
X26600000Y-30900000D03*
X9700000Y-51400000D03*
X27750000Y-42600000D03*
X13900000Y-37800000D03*
D53*
X-1500000Y-17500000D03*
D54*
X3800000Y-37300000D03*
X15000000Y-25000000D03*
D53*
X-1500000Y-15600000D03*
D54*
X20200000Y-43900000D03*
X6000000Y-36100000D03*
X18000000Y-67100000D03*
X1500000Y-5200000D03*
X-3700000Y-40300000D03*
X3500000Y-53400000D03*
X22150000Y-46300000D03*
X24200000Y-26100000D03*
X6500000Y-29500000D03*
X8088733Y-45194455D03*
X3600000Y-26000000D03*
D53*
%TO.N,+5V*%
X7300000Y-23150000D03*
D54*
X12300000Y-51900000D03*
X16100000Y-26100000D03*
D53*
X5400000Y-17500000D03*
D54*
X14400000Y-33500000D03*
D53*
X7300000Y-22150000D03*
D54*
X300000Y-36600000D03*
X23100000Y-25100000D03*
X4500000Y-42800000D03*
X19500000Y-55200000D03*
D53*
X7230000Y-20430000D03*
X6950000Y-49550000D03*
D54*
X8800000Y-34100000D03*
D53*
X7200000Y-15000000D03*
X7200000Y-16900000D03*
D54*
X26500000Y-43700000D03*
X27700000Y-32000000D03*
D53*
X6950000Y-48550000D03*
X19300000Y-13450000D03*
X6950000Y-50550000D03*
X7200000Y-18700000D03*
%TO.N,+3V3*%
X2250000Y-13550000D03*
X-1900000Y-10200000D03*
X8200000Y-7400000D03*
X8200000Y-9200000D03*
X7300000Y-6500000D03*
X-2800000Y-7500000D03*
X-1900000Y-8400000D03*
X7300000Y-9200000D03*
X8200000Y-6500000D03*
X7300000Y-7400000D03*
X-2800000Y-10200000D03*
X3150000Y-11650000D03*
X-1900000Y-7500000D03*
X-1900000Y-9300000D03*
X3150000Y-13550000D03*
X-2800000Y-9300000D03*
X-1900000Y-6600000D03*
X-2800000Y-6600000D03*
X7300000Y-8300000D03*
X2250000Y-12600000D03*
X8200000Y-8300000D03*
X-2800000Y-8400000D03*
X8200000Y-10100000D03*
X3150000Y-12600000D03*
X2250000Y-11650000D03*
X7300000Y-10100000D03*
D54*
%TO.N,/DB25/RST*%
X7700000Y-38300000D03*
X17400000Y-61450000D03*
X15200000Y-52200000D03*
X10000000Y-38300000D03*
%TO.N,/IO/RX_LED*%
X20700000Y-48500000D03*
X10500000Y-32600000D03*
%TO.N,/DB25/SCK*%
X13500000Y-34800000D03*
%TO.N,/DB25/MOSI*%
X15300000Y-34600000D03*
%TO.N,/DB25/MISO*%
X16100000Y-32300000D03*
X12300000Y-35900000D03*
%TO.N,/DB25/PD7*%
X20400000Y-36650000D03*
%TO.N,/DB25/RX*%
X17600000Y-35300000D03*
%TO.N,/DB25/PD1*%
X17600000Y-38700000D03*
%TO.N,/DB25/PB6*%
X22200000Y-34500000D03*
%TO.N,/DB25/TX*%
X13600000Y-47800000D03*
X19600000Y-50000000D03*
X13600000Y-46500000D03*
%TO.N,/DB25/PD0*%
X17900000Y-41200000D03*
X15900000Y-39200000D03*
%TO.N,/DB25/PD4*%
X18800000Y-36650000D03*
%TO.N,/DB25/PB5*%
X27400000Y-37350000D03*
X24400000Y-39706500D03*
%TO.N,/USB Data/CC1*%
X3100000Y-31500000D03*
X3400000Y-24376500D03*
%TO.N,/USB Program/CC1*%
X3800000Y-59100000D03*
X3500000Y-51996500D03*
%TO.N,/IO/SW_HWB*%
X27800000Y-47400000D03*
X18550000Y-61450000D03*
%TO.N,/DB25/CE*%
X19650000Y-35200000D03*
%TD*%
D55*
%TO.N,/Microcontroller/D+*%
X13122702Y-29144024D02*
X13406766Y-29144024D01*
X13406766Y-29144024D02*
X15100862Y-30838120D01*
%TO.N,/Microcontroller/D-*%
X14183363Y-28083363D02*
X14183363Y-28789250D01*
X14183363Y-28789250D02*
X15666548Y-30272435D01*
D56*
%TO.N,/USB Data/VBUS*%
X1865000Y-23250000D02*
X3750000Y-23250000D01*
X1845000Y-23230000D02*
X1865000Y-23250000D01*
%TO.N,/USB Program/VBUS*%
X3100000Y-50700000D02*
X3700000Y-50700000D01*
X2950000Y-50850000D02*
X3100000Y-50700000D01*
X1845000Y-50850000D02*
X2950000Y-50850000D01*
D55*
%TO.N,GND*%
X27483363Y-42333363D02*
X27750000Y-42600000D01*
X12838120Y-38861880D02*
X13900000Y-37800000D01*
X5900000Y-28800000D02*
X6500000Y-29400000D01*
X4962500Y-26000000D02*
X3600000Y-26000000D01*
X5900000Y-30300000D02*
X6500000Y-29700000D01*
X12335000Y-53565000D02*
X12335000Y-54675000D01*
X10930671Y-29073313D02*
X10557358Y-28700000D01*
X7187170Y-44257541D02*
X8088735Y-45159102D01*
X6000000Y-36000000D02*
X6000000Y-36100000D01*
X26183363Y-42333363D02*
X27483363Y-42333363D01*
X24837500Y-55187500D02*
X24850000Y-55200000D01*
X7225000Y-36800000D02*
X6700000Y-36800000D01*
X22998008Y-45451992D02*
X22150000Y-46300000D01*
X19793250Y-29706750D02*
X20900000Y-28600000D01*
X6500000Y-29400000D02*
X6500000Y-29500000D01*
X15125000Y-50775000D02*
X15200000Y-50775000D01*
X9500000Y-29763962D02*
X9870011Y-30133973D01*
D57*
X2700000Y-5175000D02*
X1525000Y-5175000D01*
D55*
X25751992Y-31751992D02*
X25751992Y-32773491D01*
X5425000Y-56400000D02*
X5800000Y-56400000D01*
X20500000Y-67100000D02*
X18000000Y-67100000D01*
X-2603000Y-40276000D02*
X-3676000Y-40276000D01*
X14112652Y-25891332D02*
X14112652Y-25887348D01*
X8124090Y-45194457D02*
X8088733Y-45194455D01*
D57*
X-1250000Y-5050000D02*
X-1300000Y-5100000D01*
D55*
X7225000Y-35300000D02*
X6700000Y-35300000D01*
X23300000Y-27000000D02*
X24200000Y-26100000D01*
X13600000Y-52300000D02*
X15125000Y-50775000D01*
X14112652Y-25887348D02*
X15000000Y-25000000D01*
X5700000Y-57900000D02*
X6500000Y-57100000D01*
X12838120Y-38899138D02*
X12838120Y-38861880D01*
X19767767Y-29706750D02*
X19793250Y-29706750D01*
X23500000Y-55187500D02*
X24837500Y-55187500D01*
X3825000Y-37300000D02*
X4825000Y-38300000D01*
X19202082Y-42902082D02*
X20200000Y-43900000D01*
X5425000Y-28800000D02*
X5900000Y-28800000D01*
X6700000Y-35300000D02*
X6000000Y-36000000D01*
X10557358Y-28700000D02*
X9500000Y-28700000D01*
X8200000Y-50775000D02*
X9075000Y-50775000D01*
X9025649Y-46096018D02*
X8124090Y-45194457D01*
X25751992Y-32773491D02*
X24293250Y-34232233D01*
D57*
X4100000Y-5200000D02*
X5275000Y-5200000D01*
X100000Y-5050000D02*
X-1250000Y-5050000D01*
D55*
X25751992Y-31751992D02*
X25751992Y-31748008D01*
X25751992Y-31748008D02*
X26600000Y-30900000D01*
X8088735Y-45159102D02*
X8088733Y-45194455D01*
X4862500Y-53400000D02*
X3500000Y-53400000D01*
X9500000Y-28700000D02*
X9500000Y-29763962D01*
X22998008Y-45448008D02*
X22998008Y-45451992D01*
X-3676000Y-40276000D02*
X-3700000Y-40300000D01*
X3800000Y-37300000D02*
X3825000Y-37300000D01*
X21900000Y-55187500D02*
X23500000Y-55187500D01*
X5425000Y-30300000D02*
X5900000Y-30300000D01*
D57*
X5275000Y-5200000D02*
X5300000Y-5175000D01*
X1525000Y-5175000D02*
X1500000Y-5200000D01*
D55*
X15500000Y-67100000D02*
X18000000Y-67100000D01*
X6500000Y-29700000D02*
X6500000Y-29500000D01*
X5425000Y-57900000D02*
X5700000Y-57900000D01*
X19202082Y-42858936D02*
X19202082Y-42902082D01*
X5800000Y-56400000D02*
X6500000Y-57100000D01*
X13600000Y-52300000D02*
X12335000Y-53565000D01*
X9075000Y-50775000D02*
X9700000Y-51400000D01*
X6700000Y-36800000D02*
X6000000Y-36100000D01*
%TO.N,+5V*%
X8775000Y-34125000D02*
X8800000Y-34100000D01*
X-1128000Y-36576000D02*
X276000Y-36576000D01*
X11705887Y-38900000D02*
X9400000Y-38900000D01*
X12272435Y-38333452D02*
X11705887Y-38900000D01*
X24858936Y-34797918D02*
X24898098Y-34797918D01*
X8775000Y-35300000D02*
X8775000Y-36800000D01*
X8775000Y-38275000D02*
X8775000Y-36800000D01*
X8775000Y-35300000D02*
X8775000Y-34125000D01*
X9400000Y-38900000D02*
X8775000Y-38275000D01*
X13605000Y-49225000D02*
X13605000Y-49725000D01*
X24109879Y-44406847D02*
X25133363Y-43383363D01*
X16700000Y-55187500D02*
X18200000Y-55187500D01*
X4775000Y-39800000D02*
X4775000Y-41175000D01*
X276000Y-36576000D02*
X300000Y-36600000D01*
X24898098Y-34797918D02*
X26848008Y-32848008D01*
X18200000Y-55187500D02*
X19487500Y-55187500D01*
X13605000Y-50895000D02*
X13605000Y-49725000D01*
X22256847Y-25943153D02*
X23100000Y-25100000D01*
X15208668Y-26987348D02*
X15212652Y-26987348D01*
X15208668Y-26987348D02*
X15208668Y-28683185D01*
X12600000Y-51900000D02*
X13605000Y-50895000D01*
X13435177Y-32535177D02*
X14400000Y-33500000D01*
X12300000Y-51900000D02*
X12600000Y-51900000D01*
X15212652Y-26987348D02*
X16100000Y-26100000D01*
X4450000Y-41500000D02*
X4450000Y-42750000D01*
X24056847Y-44406847D02*
X24109879Y-44406847D01*
X19487500Y-55187500D02*
X19500000Y-55200000D01*
X4775000Y-41175000D02*
X4450000Y-41500000D01*
X26183363Y-43383363D02*
X26500000Y-43700000D01*
X15208668Y-28683185D02*
X16232233Y-29706750D01*
X25133363Y-43383363D02*
X26183363Y-43383363D01*
X13403806Y-32535177D02*
X13435177Y-32535177D01*
X15200000Y-49225000D02*
X13605000Y-49225000D01*
X26848008Y-32848008D02*
X26851992Y-32848008D01*
X26851992Y-32848008D02*
X27700000Y-32000000D01*
D58*
X20662500Y-13450000D02*
X19300000Y-13450000D01*
D55*
X4450000Y-42750000D02*
X4500000Y-42800000D01*
D58*
%TO.N,+3V3*%
X12920000Y-20160000D02*
X12920000Y-9280000D01*
X12900000Y-9250000D02*
X20662500Y-9250000D01*
X2700000Y-9250000D02*
X12900000Y-9250000D01*
D55*
%TO.N,/DB25/RST*%
X7700000Y-38300000D02*
X6375000Y-38300000D01*
X6550000Y-38475000D02*
X6550000Y-41500000D01*
X10000000Y-38300000D02*
X11174517Y-38300000D01*
X11174517Y-38300000D02*
X11706750Y-37767767D01*
X17400000Y-61450000D02*
X16275000Y-61450000D01*
X15200000Y-53625000D02*
X15200000Y-52200000D01*
X6375000Y-38300000D02*
X6550000Y-38475000D01*
%TO.N,Net-(D3-Pad1)*%
X18200000Y-50825000D02*
X18200000Y-53612500D01*
%TO.N,Net-(D4-Pad1)*%
X27216637Y-41166637D02*
X27256847Y-41206847D01*
X25016637Y-41166637D02*
X27216637Y-41166637D01*
%TO.N,Net-(D6-Pad1)*%
X-990500Y-40238500D02*
X-953000Y-40276000D01*
X-990500Y-38676000D02*
X-990500Y-40238500D01*
%TO.N,Net-(D6-Pad2)*%
X-2428000Y-36576000D02*
X-2428000Y-38538500D01*
X-2428000Y-38538500D02*
X-2565500Y-38676000D01*
%TO.N,/IO/RX_LED*%
X21225000Y-48500000D02*
X21900000Y-49175000D01*
X12137258Y-32400000D02*
X11400000Y-32400000D01*
X11200000Y-32600000D02*
X10500000Y-32600000D01*
X11400000Y-32400000D02*
X11200000Y-32600000D01*
X12838120Y-33100862D02*
X12137258Y-32400000D01*
X20700000Y-48500000D02*
X21225000Y-48500000D01*
%TO.N,/IO/TX_LED*%
X21492053Y-47650000D02*
X18700000Y-47650000D01*
X23500000Y-49175000D02*
X23017053Y-49175000D01*
X16150000Y-45100000D02*
X16150000Y-43506854D01*
X18700000Y-47650000D02*
X16150000Y-45100000D01*
X16150000Y-43506854D02*
X16797918Y-42858936D01*
X23017053Y-49175000D02*
X21492053Y-47650000D01*
%TO.N,/Microcontroller/USB_DATA.DP*%
X8271342Y-26200000D02*
X10950000Y-26200000D01*
X10950000Y-26200000D02*
X11955976Y-27205976D01*
X7521342Y-26950000D02*
X8271342Y-26200000D01*
X11955976Y-27205976D02*
X11955976Y-27977298D01*
X7237500Y-26950000D02*
X7521342Y-26950000D01*
%TO.N,/Microcontroller/USB_DATA.DM*%
X8221342Y-25750000D02*
X11100000Y-25750000D01*
X12266637Y-26916637D02*
X13016637Y-26916637D01*
X7521342Y-25050000D02*
X8221342Y-25750000D01*
X7237500Y-25050000D02*
X7521342Y-25050000D01*
X11100000Y-25750000D02*
X12266637Y-26916637D01*
%TO.N,Net-(D2-Pad1)*%
X16700000Y-50825000D02*
X16700000Y-53612500D01*
%TO.N,/UART/USB_PRGM.DP*%
X9795000Y-54150000D02*
X9795000Y-54675000D01*
X7137500Y-54350000D02*
X7337500Y-54150000D01*
X7337500Y-54150000D02*
X9795000Y-54150000D01*
%TO.N,/UART/USB_PRGM.DM*%
X11065000Y-54065000D02*
X11065000Y-54675000D01*
X8896000Y-53446000D02*
X10446000Y-53446000D01*
X7137500Y-52450000D02*
X7900000Y-52450000D01*
X10446000Y-53446000D02*
X11065000Y-54065000D01*
X7900000Y-52450000D02*
X8896000Y-53446000D01*
%TO.N,/DB25/CSN*%
X16750000Y-21450000D02*
X15460000Y-20160000D01*
X22030509Y-40030509D02*
X21100000Y-39100000D01*
X16750000Y-23400000D02*
X16750000Y-21450000D01*
X21100000Y-35300000D02*
X18050000Y-32250000D01*
X18050000Y-24700000D02*
X16750000Y-23400000D01*
X18050000Y-32250000D02*
X18050000Y-24700000D01*
X21100000Y-39100000D02*
X21100000Y-35300000D01*
%TO.N,/DB25/SCK*%
X13500000Y-34800000D02*
X13405887Y-34800000D01*
X13405887Y-34800000D02*
X12272435Y-33666548D01*
%TO.N,/DB25/MOSI*%
X15300000Y-34600000D02*
X14546000Y-35354000D01*
X14546000Y-35354000D02*
X12828517Y-35354000D01*
X12828517Y-35354000D02*
X11706750Y-34232233D01*
%TO.N,/DB25/MISO*%
X16100000Y-32300000D02*
X16100000Y-34800000D01*
X16100000Y-34800000D02*
X15000000Y-35900000D01*
X11141064Y-34797918D02*
X11197918Y-34797918D01*
X11197918Y-34797918D02*
X12300000Y-35900000D01*
X15000000Y-35900000D02*
X12300000Y-35900000D01*
%TO.N,/DB25/IRQ*%
X25000000Y-24620000D02*
X20540000Y-20160000D01*
X21464823Y-31403806D02*
X25000000Y-27868629D01*
X25000000Y-27868629D02*
X25000000Y-24620000D01*
%TO.N,/DB25/PF5*%
X25931371Y-29200000D02*
X22596194Y-32535177D01*
X33509669Y-30565000D02*
X29365000Y-30565000D01*
X28000000Y-29200000D02*
X25931371Y-29200000D01*
X29365000Y-30565000D02*
X28000000Y-29200000D01*
%TO.N,/DB25/PF7*%
X33509669Y-36105000D02*
X33204669Y-35800000D01*
X33204669Y-35800000D02*
X24000000Y-35800000D01*
X24000000Y-35800000D02*
X23000000Y-34800000D01*
X23000000Y-34394113D02*
X23727565Y-33666548D01*
X23000000Y-34800000D02*
X23000000Y-34394113D01*
%TO.N,/DB25/PD7*%
X20400000Y-39531371D02*
X21464823Y-40596194D01*
X20400000Y-36650000D02*
X20400000Y-39531371D01*
%TO.N,/DB25/RX*%
X18200000Y-48450000D02*
X16950000Y-47200000D01*
X17600000Y-37250000D02*
X18500000Y-38150000D01*
X12300000Y-47200000D02*
X11065000Y-48435000D01*
X17000000Y-41525483D02*
X16232233Y-42293250D01*
X18500000Y-39200000D02*
X17000000Y-40700000D01*
X16950000Y-47200000D02*
X12300000Y-47200000D01*
X18200000Y-49175000D02*
X18200000Y-48450000D01*
X17600000Y-35300000D02*
X17600000Y-37250000D01*
X15100000Y-43425483D02*
X15100000Y-47200000D01*
X18500000Y-38150000D02*
X18500000Y-39200000D01*
X11065000Y-48435000D02*
X11065000Y-49725000D01*
X17000000Y-40700000D02*
X17000000Y-41525483D01*
X16232233Y-42293250D02*
X15100000Y-43425483D01*
%TO.N,/DB25/PD1*%
X15138120Y-41161880D02*
X15100862Y-41161880D01*
X17600000Y-38700000D02*
X15138120Y-41161880D01*
%TO.N,/DB25/PF4*%
X33509669Y-27795000D02*
X26205000Y-27795000D01*
X26205000Y-27795000D02*
X22030509Y-31969491D01*
%TO.N,/DB25/PF6*%
X26162742Y-30100000D02*
X27600000Y-30100000D01*
X28800000Y-31300000D02*
X28800000Y-32700000D01*
X23161880Y-33100862D02*
X26162742Y-30100000D01*
X27600000Y-30100000D02*
X28800000Y-31300000D01*
X28800000Y-32700000D02*
X29435000Y-33335000D01*
X29435000Y-33335000D02*
X33509669Y-33335000D01*
%TO.N,/DB25/PC6*%
X29335269Y-36155600D02*
X24044400Y-36155600D01*
X23100000Y-37705887D02*
X23727565Y-38333452D01*
X30669669Y-37490000D02*
X29335269Y-36155600D01*
X23100000Y-37100000D02*
X23100000Y-37705887D01*
X24044400Y-36155600D02*
X23100000Y-37100000D01*
%TO.N,/DB25/PB6*%
X22200000Y-37937258D02*
X22200000Y-34500000D01*
X23161880Y-38899138D02*
X22200000Y-37937258D01*
%TO.N,/DB25/TX*%
X13600000Y-47800000D02*
X12975000Y-47800000D01*
X19600000Y-50000000D02*
X29239669Y-50000000D01*
X16700000Y-48450000D02*
X16700000Y-49175000D01*
X13600000Y-47800000D02*
X16050000Y-47800000D01*
X14400000Y-42994113D02*
X15666548Y-41727565D01*
X12335000Y-48440000D02*
X12335000Y-49725000D01*
X29239669Y-50000000D02*
X30669669Y-48570000D01*
X14400000Y-45700000D02*
X14400000Y-42994113D01*
X13600000Y-46500000D02*
X14400000Y-45700000D01*
X12975000Y-47800000D02*
X12335000Y-48440000D01*
X16050000Y-47800000D02*
X16700000Y-48450000D01*
%TO.N,/DB25/PD0*%
X32100000Y-46400000D02*
X32100000Y-44460331D01*
X29500000Y-47200000D02*
X31300000Y-47200000D01*
X31300000Y-47200000D02*
X32100000Y-46400000D01*
X17900000Y-41200000D02*
X17900000Y-43100000D01*
X15900000Y-39200000D02*
X15900000Y-39231371D01*
X15900000Y-39231371D02*
X14535177Y-40596194D01*
X28700000Y-48000000D02*
X29500000Y-47200000D01*
X32100000Y-44460331D02*
X30669669Y-43030000D01*
X17900000Y-43100000D02*
X22800000Y-48000000D01*
X22800000Y-48000000D02*
X28700000Y-48000000D01*
%TO.N,/DB25/PD4*%
X19300000Y-40694113D02*
X20333452Y-41727565D01*
X18800000Y-36650000D02*
X19300000Y-37150000D01*
X19300000Y-37150000D02*
X19300000Y-40694113D01*
%TO.N,/DB25/PB5*%
X30669669Y-26410000D02*
X34110000Y-26410000D01*
X34110000Y-26410000D02*
X34900000Y-27200000D01*
X24400000Y-39750000D02*
X23640685Y-40509315D01*
X32800000Y-37450000D02*
X31400000Y-38850000D01*
X31400000Y-38850000D02*
X28900000Y-38850000D01*
X34900000Y-36660500D02*
X34110500Y-37450000D01*
X34900000Y-27200000D02*
X34900000Y-36660500D01*
X23640685Y-40509315D02*
X22596194Y-39464823D01*
X34110500Y-37450000D02*
X32800000Y-37450000D01*
X23966637Y-40835266D02*
X23640685Y-40509315D01*
X28900000Y-38850000D02*
X27400000Y-37350000D01*
X24400000Y-39706500D02*
X24400000Y-39750000D01*
X23966637Y-42216637D02*
X23966637Y-40835266D01*
%TO.N,/UART/V3*%
X8200000Y-49225000D02*
X9295000Y-49225000D01*
X9295000Y-49225000D02*
X9795000Y-49725000D01*
%TO.N,/UART/RTS*%
X13605000Y-55175000D02*
X15200000Y-55175000D01*
X13605000Y-54675000D02*
X13605000Y-55175000D01*
%TO.N,/Microcontroller/XTAL1*%
X12578858Y-41204327D02*
X12578858Y-42259962D01*
X11187980Y-45000000D02*
X10121664Y-45000000D01*
X12578858Y-42259962D02*
X12578858Y-43609122D01*
X13840031Y-39943154D02*
X12578858Y-41204327D01*
X12578858Y-43609122D02*
X11187980Y-45000000D01*
%TO.N,/Microcontroller/XTAL2*%
X8566025Y-43161525D02*
X8283188Y-43161525D01*
X13486478Y-39651561D02*
X11231631Y-41906408D01*
X13486478Y-39589600D02*
X13486478Y-39651561D01*
X11231631Y-41906408D02*
X9821142Y-41906408D01*
X9821142Y-41906408D02*
X8566025Y-43161525D01*
%TO.N,/USB Data/CC1*%
X3346500Y-24430000D02*
X3400000Y-24376500D01*
X3775000Y-30300000D02*
X3775000Y-30825000D01*
X3775000Y-30825000D02*
X3100000Y-31500000D01*
X1845000Y-24430000D02*
X3346500Y-24430000D01*
%TO.N,/USB Data/CC2*%
X1845000Y-27430000D02*
X3230000Y-27430000D01*
X3775000Y-27975000D02*
X3775000Y-28800000D01*
X3230000Y-27430000D02*
X3775000Y-27975000D01*
%TO.N,/USB Program/CC1*%
X3446500Y-52050000D02*
X3500000Y-51996500D01*
X3800000Y-59100000D02*
X3800000Y-57925000D01*
X3800000Y-57925000D02*
X3775000Y-57900000D01*
X1845000Y-52050000D02*
X3446500Y-52050000D01*
%TO.N,/USB Program/CC2*%
X3775000Y-55875000D02*
X3775000Y-56400000D01*
X1845000Y-55050000D02*
X2950000Y-55050000D01*
X2950000Y-55050000D02*
X3775000Y-55875000D01*
%TO.N,/Microcontroller/UCAP*%
X13229989Y-31229989D02*
X13969491Y-31969491D01*
X10966027Y-31229989D02*
X13229989Y-31229989D01*
%TO.N,/Microcontroller/UGND*%
X13300700Y-30169329D02*
X14535177Y-31403806D01*
X12026687Y-30169329D02*
X13300700Y-30169329D01*
%TO.N,/USB Data/VBUS*%
X6100000Y-24775000D02*
X5575000Y-24250000D01*
D56*
X400000Y-27469457D02*
X1060543Y-28130000D01*
X400000Y-23890543D02*
X400000Y-27469457D01*
D55*
X6400000Y-26000000D02*
X6100000Y-25700000D01*
D56*
X1060543Y-23230000D02*
X400000Y-23890543D01*
D55*
X5575000Y-24250000D02*
X4750000Y-24250000D01*
X7237500Y-26000000D02*
X6400000Y-26000000D01*
D56*
X1845000Y-23230000D02*
X1060543Y-23230000D01*
D55*
X4750000Y-24250000D02*
X3750000Y-23250000D01*
X6100000Y-25700000D02*
X6100000Y-24775000D01*
D56*
X1060543Y-28130000D02*
X1845000Y-28130000D01*
%TO.N,/USB Program/VBUS*%
X1845000Y-50850000D02*
X1060543Y-50850000D01*
D55*
X6000000Y-53050000D02*
X6000000Y-51850000D01*
X7137500Y-53400000D02*
X6350000Y-53400000D01*
D56*
X1060543Y-50850000D02*
X400000Y-51510543D01*
D55*
X4600000Y-51600000D02*
X3700000Y-50700000D01*
D56*
X400000Y-55000000D02*
X1150000Y-55750000D01*
D55*
X6350000Y-53400000D02*
X6000000Y-53050000D01*
X6000000Y-51850000D02*
X5750000Y-51600000D01*
D56*
X400000Y-51510543D02*
X400000Y-55000000D01*
X1150000Y-55750000D02*
X1845000Y-55750000D01*
D55*
X5750000Y-51600000D02*
X4600000Y-51600000D01*
%TO.N,Net-(R9-Pad2)*%
X21325000Y-62075000D02*
X20500000Y-62900000D01*
X21325000Y-61450000D02*
X21325000Y-62075000D01*
%TO.N,Net-(R16-Pad2)*%
X14625000Y-61450000D02*
X14625000Y-62025000D01*
X14625000Y-62025000D02*
X15500000Y-62900000D01*
%TO.N,/IO/SW_HWB*%
X28650000Y-40993146D02*
X28650000Y-46550000D01*
X28650000Y-46550000D02*
X27800000Y-47400000D01*
X19675000Y-61450000D02*
X18550000Y-61450000D01*
X24858936Y-37202082D02*
X28650000Y-40993146D01*
%TO.N,Net-(D7-Pad2)*%
X21900000Y-50775000D02*
X21900000Y-53612500D01*
%TO.N,Net-(D8-Pad2)*%
X23500000Y-50775000D02*
X23500000Y-53612500D01*
D58*
%TO.N,/DB25/3V3F*%
X33595000Y-22255000D02*
X33509669Y-22255000D01*
X22537500Y-9250000D02*
X25950000Y-9250000D01*
X36950000Y-14800000D02*
X36950000Y-18900000D01*
X36950000Y-18900000D02*
X33595000Y-22255000D01*
X33900000Y-11750000D02*
X36950000Y-14800000D01*
X25950000Y-9250000D02*
X28450000Y-11750000D01*
X28450000Y-11750000D02*
X33900000Y-11750000D01*
%TO.N,/DB25/5VF*%
X35300000Y-17694669D02*
X33509669Y-19485000D01*
X33200000Y-13450000D02*
X35300000Y-15550000D01*
X35300000Y-15550000D02*
X35300000Y-17694669D01*
X22537500Y-13450000D02*
X33200000Y-13450000D01*
D55*
%TO.N,/IO/LED_USER*%
X26143153Y-39617670D02*
X26143153Y-40093153D01*
X24293250Y-37767767D02*
X26143153Y-39617670D01*
%TO.N,/DB25/CE*%
X17200000Y-24440000D02*
X15460000Y-22700000D01*
X19650000Y-35200000D02*
X17444400Y-32994400D01*
X17444400Y-32994400D02*
X17444400Y-29787546D01*
X17444400Y-29787546D02*
X16797918Y-29141064D01*
X17200000Y-28738982D02*
X17200000Y-24440000D01*
X16797918Y-29141064D02*
X17200000Y-28738982D01*
%TO.N,/USB Data/D+*%
X2773200Y-25430000D02*
X2870000Y-25526800D01*
X3650000Y-26950000D02*
X4962500Y-26950000D01*
X2870000Y-26430000D02*
X3130000Y-26430000D01*
X3130000Y-26430000D02*
X3650000Y-26950000D01*
X1845000Y-26430000D02*
X2870000Y-26430000D01*
X1845000Y-25430000D02*
X2773200Y-25430000D01*
X2870000Y-25526800D02*
X2870000Y-26430000D01*
%TO.N,/USB Data/D-*%
X1845000Y-24930000D02*
X916800Y-24930000D01*
X4842500Y-24930000D02*
X4962500Y-25050000D01*
X1845000Y-24930000D02*
X4842500Y-24930000D01*
X866000Y-24980800D02*
X866000Y-25834000D01*
X962000Y-25930000D02*
X1845000Y-25930000D01*
X866000Y-25834000D02*
X962000Y-25930000D01*
X916800Y-24930000D02*
X866000Y-24980800D01*
%TO.N,/USB Program/D+*%
X1845000Y-53050000D02*
X2773200Y-53050000D01*
X3239000Y-54050000D02*
X3539000Y-54350000D01*
X1845000Y-54050000D02*
X2850000Y-54050000D01*
X2850000Y-54050000D02*
X3239000Y-54050000D01*
X2850000Y-53126800D02*
X2850000Y-54050000D01*
X3539000Y-54350000D02*
X4862500Y-54350000D01*
X2773200Y-53050000D02*
X2850000Y-53126800D01*
%TO.N,/USB Program/D-*%
X4762500Y-52550000D02*
X4862500Y-52450000D01*
X1845000Y-52550000D02*
X916800Y-52550000D01*
X962000Y-53550000D02*
X1845000Y-53550000D01*
X866000Y-52600800D02*
X866000Y-53454000D01*
X1845000Y-52550000D02*
X4762500Y-52550000D01*
X866000Y-53454000D02*
X962000Y-53550000D01*
X916800Y-52550000D02*
X866000Y-52600800D01*
%TO.N,/Microcontroller/AVCC_P24*%
X21901992Y-44351992D02*
X21826509Y-44351992D01*
X22943153Y-43293153D02*
X22943153Y-43310831D01*
X21826509Y-44351992D02*
X19767767Y-42293250D01*
X22943153Y-43310831D02*
X21901992Y-44351992D01*
%TO.N,/Microcontroller/AVCC_P44*%
X22182322Y-28096016D02*
X21143153Y-27056847D01*
X22203984Y-28096016D02*
X22182322Y-28096016D01*
X21143153Y-27056847D02*
X19202082Y-28997918D01*
X19202082Y-28997918D02*
X19202082Y-29141064D01*
%TD*%
%TA.AperFunction,Conductor*%
%TO.N,+3V3*%
G36*
X8736054Y-5920484D02*
G01*
X8782986Y-5973757D01*
X8794805Y-6026900D01*
X8799863Y-10673863D01*
X8779935Y-10742005D01*
X8726330Y-10788557D01*
X8673863Y-10800000D01*
X4342784Y-10800008D01*
X3702667Y-10800009D01*
X3702667Y-16674009D01*
X3682665Y-16742130D01*
X3629009Y-16788623D01*
X3576667Y-16800009D01*
X1828667Y-16800009D01*
X1760546Y-16780007D01*
X1714053Y-16726351D01*
X1702667Y-16674009D01*
X1702667Y-10800009D01*
X1207275Y-10800008D01*
X-3274000Y-10800000D01*
X-3342121Y-10779998D01*
X-3388614Y-10726342D01*
X-3400000Y-10674000D01*
X-3400000Y-6124971D01*
X-3379998Y-6056850D01*
X-3326342Y-6010357D01*
X-3275034Y-5998975D01*
X-2287509Y-5990877D01*
X-754323Y-5978305D01*
X-701520Y-5989784D01*
X-697738Y-5992115D01*
X-690790Y-5994419D01*
X-690787Y-5994421D01*
X-536389Y-6045632D01*
X-536387Y-6045632D01*
X-529861Y-6047797D01*
X-523025Y-6048497D01*
X-523022Y-6048498D01*
X-479969Y-6052909D01*
X-425400Y-6058500D01*
X625400Y-6058500D01*
X628646Y-6058163D01*
X628650Y-6058163D01*
X724308Y-6048238D01*
X724312Y-6048237D01*
X731166Y-6047526D01*
X737702Y-6045345D01*
X737704Y-6045345D01*
X800372Y-6024437D01*
X898946Y-5991550D01*
X905167Y-5987700D01*
X905174Y-5987697D01*
X912843Y-5982951D01*
X978114Y-5964098D01*
X1206259Y-5962227D01*
X1251212Y-5970126D01*
X1296562Y-5986992D01*
X1296568Y-5986994D01*
X1303168Y-5989448D01*
X1310149Y-5990379D01*
X1310151Y-5990380D01*
X1475980Y-6012507D01*
X1475984Y-6012507D01*
X1482961Y-6013438D01*
X1489972Y-6012800D01*
X1489976Y-6012800D01*
X1641877Y-5998975D01*
X1663600Y-5996998D01*
X1670303Y-5994820D01*
X1670308Y-5994819D01*
X1766749Y-5963484D01*
X1804650Y-5957321D01*
X1891340Y-5956609D01*
X1919530Y-5956378D01*
X1987811Y-5975820D01*
X1990381Y-5977638D01*
X1992298Y-5979552D01*
X1998415Y-5983323D01*
X1998417Y-5983324D01*
X2119843Y-6058172D01*
X2137899Y-6069302D01*
X2300243Y-6123149D01*
X2307080Y-6123849D01*
X2307082Y-6123850D01*
X2348401Y-6128083D01*
X2401268Y-6133500D01*
X2998732Y-6133500D01*
X3001978Y-6133163D01*
X3001982Y-6133163D01*
X3036083Y-6129625D01*
X3101019Y-6122887D01*
X3254726Y-6071606D01*
X3256324Y-6071073D01*
X3256326Y-6071072D01*
X3263268Y-6068756D01*
X3296425Y-6048238D01*
X3402482Y-5982608D01*
X3402483Y-5982607D01*
X3408713Y-5978752D01*
X3413891Y-5973565D01*
X3417489Y-5970713D01*
X3483299Y-5944074D01*
X3494719Y-5943461D01*
X3750169Y-5941366D01*
X3795119Y-5949265D01*
X3821132Y-5958939D01*
X3896558Y-5986990D01*
X3896560Y-5986990D01*
X3903168Y-5989448D01*
X3986995Y-6000633D01*
X4075980Y-6012507D01*
X4075984Y-6012507D01*
X4082961Y-6013438D01*
X4089972Y-6012800D01*
X4089976Y-6012800D01*
X4241877Y-5998975D01*
X4263600Y-5996998D01*
X4270302Y-5994820D01*
X4270304Y-5994820D01*
X4350794Y-5968667D01*
X4389730Y-5962500D01*
X4528920Y-5962500D01*
X4595036Y-5981240D01*
X4720375Y-6058500D01*
X4737899Y-6069302D01*
X4900243Y-6123149D01*
X4907080Y-6123849D01*
X4907082Y-6123850D01*
X4948401Y-6128083D01*
X5001268Y-6133500D01*
X5598732Y-6133500D01*
X5601978Y-6133163D01*
X5601982Y-6133163D01*
X5636083Y-6129625D01*
X5701019Y-6122887D01*
X5854726Y-6071606D01*
X5856324Y-6071073D01*
X5856326Y-6071072D01*
X5863268Y-6068756D01*
X6008713Y-5978752D01*
X6028492Y-5958938D01*
X6090773Y-5924859D01*
X6116625Y-5921961D01*
X7713326Y-5908867D01*
X8667772Y-5901041D01*
X8736054Y-5920484D01*
G37*
%TD.AperFunction*%
%TD*%
%TA.AperFunction,Conductor*%
%TO.N,GND*%
G36*
X11500117Y-39276102D02*
G01*
X11521091Y-39293005D01*
X12342166Y-40114080D01*
X12376192Y-40176392D01*
X12371127Y-40247207D01*
X12342167Y-40292270D01*
X12169632Y-40464806D01*
X12107320Y-40498831D01*
X12036504Y-40493767D01*
X11991441Y-40464806D01*
X11819510Y-40292875D01*
X11805566Y-40285261D01*
X11803731Y-40285392D01*
X11797121Y-40289640D01*
X11382433Y-40704327D01*
X11112318Y-40974443D01*
X11050006Y-41008468D01*
X10979190Y-41003403D01*
X10934128Y-40974442D01*
X10181851Y-40222165D01*
X10167907Y-40214551D01*
X10166074Y-40214682D01*
X10159459Y-40218933D01*
X9911068Y-40467324D01*
X9903254Y-40476845D01*
X9871617Y-40524191D01*
X9862300Y-40546682D01*
X9845847Y-40629399D01*
X9812940Y-40692308D01*
X9746849Y-40728396D01*
X9707063Y-40736310D01*
X9663301Y-40745014D01*
X9663300Y-40745014D01*
X9651130Y-40747435D01*
X9640813Y-40754329D01*
X9640812Y-40754329D01*
X9627765Y-40763047D01*
X9588198Y-40789485D01*
X8704221Y-41673464D01*
X8662169Y-41736396D01*
X8642418Y-41835697D01*
X8662169Y-41934998D01*
X8704219Y-41997931D01*
X8876023Y-42169735D01*
X8910049Y-42232047D01*
X8904984Y-42302862D01*
X8876023Y-42347925D01*
X8760057Y-42463891D01*
X8697745Y-42497917D01*
X8626930Y-42492852D01*
X8581867Y-42463891D01*
X8574882Y-42456906D01*
X8572473Y-42454498D01*
X8526508Y-42417540D01*
X8519321Y-42414272D01*
X8519319Y-42414271D01*
X8409645Y-42364405D01*
X8409644Y-42364405D01*
X8401474Y-42360690D01*
X8392591Y-42359418D01*
X8392588Y-42359417D01*
X8274392Y-42342491D01*
X8265510Y-42341219D01*
X8256628Y-42342491D01*
X8138433Y-42359417D01*
X8138431Y-42359418D01*
X8129546Y-42360690D01*
X8004513Y-42417540D01*
X7958547Y-42454497D01*
X7576161Y-42836884D01*
X7539203Y-42882850D01*
X7482353Y-43007883D01*
X7481081Y-43016768D01*
X7481080Y-43016770D01*
X7475106Y-43058486D01*
X7462882Y-43143847D01*
X7464154Y-43152729D01*
X7480469Y-43266654D01*
X7482353Y-43279811D01*
X7486068Y-43287981D01*
X7486070Y-43287989D01*
X7491040Y-43298919D01*
X7501028Y-43369210D01*
X7471427Y-43433742D01*
X7411637Y-43472026D01*
X7340641Y-43471908D01*
X7324187Y-43465771D01*
X7313486Y-43460905D01*
X7296430Y-43455917D01*
X7178377Y-43439012D01*
X7160612Y-43439012D01*
X7042559Y-43455917D01*
X7025499Y-43460907D01*
X6915961Y-43510711D01*
X6902614Y-43518930D01*
X6865512Y-43548760D01*
X6863704Y-43550383D01*
X6856494Y-43563587D01*
X6856625Y-43565420D01*
X6860876Y-43572035D01*
X7869446Y-44580605D01*
X7883390Y-44588219D01*
X7885223Y-44588088D01*
X7891731Y-44583906D01*
X7895953Y-44579201D01*
X7925783Y-44542099D01*
X7934002Y-44528752D01*
X7983806Y-44419214D01*
X7988796Y-44402154D01*
X8005701Y-44284101D01*
X8005701Y-44266336D01*
X7988796Y-44148283D01*
X7983808Y-44131227D01*
X7978942Y-44120526D01*
X7968954Y-44050236D01*
X7998554Y-43985704D01*
X8058343Y-43947419D01*
X8129339Y-43947536D01*
X8145794Y-43953673D01*
X8156724Y-43958643D01*
X8156732Y-43958645D01*
X8164902Y-43962360D01*
X8173785Y-43963632D01*
X8173788Y-43963633D01*
X8291984Y-43980559D01*
X8300866Y-43981831D01*
X8309748Y-43980559D01*
X8427943Y-43963633D01*
X8427945Y-43963632D01*
X8436830Y-43962360D01*
X8469433Y-43947536D01*
X8554669Y-43908781D01*
X8561863Y-43905510D01*
X8607829Y-43868553D01*
X8990215Y-43486166D01*
X9027173Y-43440200D01*
X9043858Y-43403503D01*
X10200983Y-43403503D01*
X10215854Y-43478266D01*
X10225170Y-43500758D01*
X10256804Y-43548102D01*
X10264622Y-43557627D01*
X10580490Y-43873495D01*
X10594434Y-43881109D01*
X10596269Y-43880978D01*
X10602879Y-43876730D01*
X11004756Y-43474854D01*
X11012369Y-43460911D01*
X11012238Y-43459077D01*
X11007987Y-43452463D01*
X10535405Y-42979881D01*
X10521461Y-42972267D01*
X10519628Y-42972398D01*
X10513013Y-42976649D01*
X10264622Y-43225040D01*
X10256808Y-43234561D01*
X10225171Y-43281907D01*
X10215854Y-43304398D01*
X10200983Y-43379161D01*
X10200983Y-43403503D01*
X9043858Y-43403503D01*
X9084023Y-43315167D01*
X9085348Y-43305920D01*
X9102222Y-43188085D01*
X9103494Y-43179203D01*
X9103261Y-43177579D01*
X9122224Y-43112998D01*
X9139127Y-43092024D01*
X9379625Y-42851526D01*
X9441937Y-42817500D01*
X9512752Y-42822565D01*
X9557815Y-42851526D01*
X9725239Y-43018950D01*
X9725244Y-43018954D01*
X9729619Y-43023329D01*
X9792552Y-43065381D01*
X9891853Y-43085132D01*
X9904025Y-43082711D01*
X9978983Y-43067802D01*
X9978984Y-43067802D01*
X9991154Y-43065381D01*
X10054086Y-43023331D01*
X10778002Y-42299413D01*
X10840315Y-42265388D01*
X10867098Y-42262508D01*
X10922962Y-42262508D01*
X10991083Y-42282510D01*
X11037576Y-42336166D01*
X11047680Y-42406440D01*
X11018186Y-42471020D01*
X11012057Y-42477603D01*
X10894614Y-42595046D01*
X10887000Y-42608990D01*
X10887131Y-42610823D01*
X10891382Y-42617438D01*
X11646892Y-43372948D01*
X11680918Y-43435260D01*
X11675853Y-43506075D01*
X11646892Y-43551138D01*
X11376777Y-43821253D01*
X10965326Y-44232705D01*
X10957712Y-44246649D01*
X10957843Y-44248484D01*
X10962093Y-44255097D01*
X11106592Y-44399596D01*
X11140618Y-44461908D01*
X11135553Y-44532723D01*
X11106592Y-44577786D01*
X11077383Y-44606995D01*
X11015071Y-44641021D01*
X10988288Y-44643900D01*
X10814068Y-44643900D01*
X10745947Y-44623898D01*
X10724973Y-44606996D01*
X10413357Y-44295381D01*
X10410949Y-44292973D01*
X10364984Y-44256015D01*
X10357797Y-44252747D01*
X10357795Y-44252746D01*
X10248121Y-44202880D01*
X10248120Y-44202880D01*
X10239950Y-44199165D01*
X10231067Y-44197893D01*
X10231064Y-44197892D01*
X10112868Y-44180966D01*
X10103986Y-44179694D01*
X10095104Y-44180966D01*
X9976909Y-44197892D01*
X9976907Y-44197893D01*
X9968022Y-44199165D01*
X9959847Y-44202882D01*
X9860703Y-44247961D01*
X9842989Y-44256015D01*
X9797023Y-44292972D01*
X9414637Y-44675359D01*
X9377679Y-44721325D01*
X9320829Y-44846358D01*
X9319557Y-44855243D01*
X9319556Y-44855245D01*
X9306982Y-44943047D01*
X9301358Y-44982322D01*
X9320829Y-45118286D01*
X9324544Y-45126456D01*
X9324546Y-45126464D01*
X9329516Y-45137394D01*
X9339504Y-45207685D01*
X9309903Y-45272217D01*
X9250113Y-45310501D01*
X9179117Y-45310383D01*
X9162663Y-45304246D01*
X9151962Y-45299380D01*
X9134906Y-45294392D01*
X9016853Y-45277487D01*
X8999088Y-45277487D01*
X8881035Y-45294392D01*
X8863975Y-45299382D01*
X8754437Y-45349186D01*
X8741090Y-45357405D01*
X8703988Y-45387235D01*
X8702180Y-45388858D01*
X8694970Y-45402062D01*
X8695101Y-45403895D01*
X8699352Y-45410510D01*
X9707922Y-46419080D01*
X9721866Y-46426694D01*
X9723699Y-46426563D01*
X9730207Y-46422381D01*
X9734429Y-46417676D01*
X9764259Y-46380574D01*
X9772478Y-46367227D01*
X9822282Y-46257689D01*
X9827272Y-46240629D01*
X9844177Y-46122576D01*
X9844177Y-46104811D01*
X9827272Y-45986758D01*
X9822284Y-45969702D01*
X9817418Y-45959001D01*
X9807430Y-45888711D01*
X9837030Y-45824179D01*
X9896819Y-45785894D01*
X9967815Y-45786011D01*
X9984270Y-45792148D01*
X9995200Y-45797118D01*
X9995208Y-45797120D01*
X10003378Y-45800835D01*
X10012261Y-45802107D01*
X10012264Y-45802108D01*
X10130460Y-45819034D01*
X10139342Y-45820306D01*
X10148224Y-45819034D01*
X10266419Y-45802108D01*
X10266421Y-45802107D01*
X10275306Y-45800835D01*
X10307909Y-45786011D01*
X10393145Y-45747256D01*
X10400339Y-45743985D01*
X10446305Y-45707028D01*
X10760327Y-45393005D01*
X10822640Y-45358980D01*
X10849423Y-45356100D01*
X11136552Y-45356100D01*
X11156601Y-45358234D01*
X11160791Y-45358432D01*
X11170973Y-45360624D01*
X11201820Y-45356973D01*
X11207195Y-45356656D01*
X11207184Y-45356528D01*
X11212362Y-45356100D01*
X11217564Y-45356100D01*
X11228899Y-45354213D01*
X11235223Y-45353161D01*
X11241095Y-45352326D01*
X11278354Y-45347916D01*
X11278361Y-45347914D01*
X11288702Y-45346690D01*
X11296448Y-45342970D01*
X11304922Y-45341560D01*
X11347089Y-45318808D01*
X11352376Y-45316115D01*
X11388422Y-45298805D01*
X11388425Y-45298803D01*
X11395570Y-45295372D01*
X11399580Y-45292001D01*
X11401518Y-45290063D01*
X11403169Y-45288548D01*
X11403579Y-45288327D01*
X11403617Y-45288369D01*
X11403800Y-45288208D01*
X11409254Y-45285265D01*
X11421316Y-45272217D01*
X11443512Y-45248205D01*
X11446942Y-45244639D01*
X12794291Y-43897290D01*
X12809987Y-43884613D01*
X12813083Y-43881796D01*
X12821832Y-43876147D01*
X12841065Y-43851750D01*
X12844643Y-43847723D01*
X12844545Y-43847640D01*
X12847900Y-43843681D01*
X12851578Y-43840003D01*
X12854597Y-43835779D01*
X12854605Y-43835769D01*
X12861994Y-43825428D01*
X12865559Y-43820679D01*
X12888777Y-43791227D01*
X12895226Y-43783047D01*
X12898072Y-43774942D01*
X12903068Y-43767951D01*
X12916792Y-43722060D01*
X12918626Y-43716415D01*
X12931879Y-43678675D01*
X12931880Y-43678672D01*
X12934506Y-43671193D01*
X12934958Y-43665974D01*
X12934958Y-43663263D01*
X12935056Y-43660986D01*
X12935191Y-43660537D01*
X12935245Y-43660539D01*
X12935260Y-43660306D01*
X12937035Y-43654370D01*
X12935055Y-43603972D01*
X12934958Y-43599026D01*
X12934958Y-43305920D01*
X12954960Y-43237799D01*
X12971862Y-43216825D01*
X13691400Y-42497285D01*
X13695779Y-42492906D01*
X13737831Y-42429974D01*
X13757582Y-42330673D01*
X13737831Y-42231372D01*
X13702284Y-42178171D01*
X13699220Y-42173585D01*
X13699217Y-42173581D01*
X13695781Y-42168439D01*
X12996159Y-41468818D01*
X12962134Y-41406505D01*
X12967198Y-41335690D01*
X12996159Y-41290627D01*
X13168341Y-41118445D01*
X13230653Y-41084419D01*
X13301468Y-41089484D01*
X13346528Y-41118443D01*
X14470204Y-42242120D01*
X14504229Y-42304430D01*
X14499164Y-42375246D01*
X14470203Y-42420308D01*
X14184565Y-42705946D01*
X14168875Y-42718618D01*
X14165774Y-42721440D01*
X14157026Y-42727088D01*
X14150579Y-42735266D01*
X14137797Y-42751480D01*
X14134216Y-42755510D01*
X14134314Y-42755593D01*
X14130961Y-42759550D01*
X14127280Y-42763231D01*
X14124256Y-42767463D01*
X14124254Y-42767465D01*
X14116851Y-42777824D01*
X14113288Y-42782569D01*
X14090080Y-42812008D01*
X14090079Y-42812010D01*
X14083632Y-42820188D01*
X14080786Y-42828293D01*
X14075790Y-42835284D01*
X14062151Y-42880889D01*
X14062066Y-42881175D01*
X14060232Y-42886820D01*
X14046979Y-42924560D01*
X14044352Y-42932042D01*
X14043900Y-42937261D01*
X14043900Y-42939972D01*
X14043802Y-42942249D01*
X14043667Y-42942698D01*
X14043613Y-42942696D01*
X14043598Y-42942929D01*
X14041823Y-42948865D01*
X14042934Y-42977133D01*
X14025622Y-43045984D01*
X14006126Y-43071174D01*
X9217777Y-47859523D01*
X9155465Y-47893549D01*
X9084650Y-47888484D01*
X9039587Y-47859523D01*
X7954619Y-46774556D01*
X8712648Y-46774556D01*
X8712779Y-46776389D01*
X8717030Y-46783004D01*
X8734267Y-46800241D01*
X8739344Y-46804797D01*
X8776446Y-46834627D01*
X8789793Y-46842846D01*
X8899330Y-46892651D01*
X8916390Y-46897640D01*
X9034443Y-46914545D01*
X9052208Y-46914545D01*
X9170261Y-46897640D01*
X9187321Y-46892650D01*
X9296859Y-46842846D01*
X9310206Y-46834627D01*
X9347308Y-46804797D01*
X9349116Y-46803174D01*
X9356326Y-46789970D01*
X9356195Y-46788137D01*
X9351944Y-46781522D01*
X9038460Y-46468038D01*
X9024516Y-46460424D01*
X9022683Y-46460555D01*
X9016068Y-46464806D01*
X8720262Y-46760612D01*
X8712648Y-46774556D01*
X7954619Y-46774556D01*
X7267284Y-46087221D01*
X8207119Y-46087221D01*
X8224024Y-46205274D01*
X8229013Y-46222334D01*
X8278818Y-46331871D01*
X8287037Y-46345218D01*
X8316867Y-46382320D01*
X8321423Y-46387397D01*
X8335428Y-46401402D01*
X8349372Y-46409016D01*
X8351205Y-46408885D01*
X8357820Y-46404634D01*
X8653626Y-46108828D01*
X8661240Y-46094884D01*
X8661109Y-46093051D01*
X8656858Y-46086436D01*
X8343374Y-45772952D01*
X8329430Y-45765338D01*
X8327597Y-45765469D01*
X8321089Y-45769651D01*
X8316867Y-45774356D01*
X8287037Y-45811458D01*
X8278818Y-45824805D01*
X8229014Y-45934343D01*
X8224024Y-45951403D01*
X8207119Y-46069456D01*
X8207119Y-46087221D01*
X7267284Y-46087221D01*
X6317457Y-45137394D01*
X6116144Y-44936081D01*
X6874172Y-44936081D01*
X6874303Y-44937914D01*
X6878554Y-44944529D01*
X6895791Y-44961766D01*
X6900868Y-44966322D01*
X6937970Y-44996152D01*
X6951317Y-45004371D01*
X7060854Y-45054176D01*
X7077914Y-45059165D01*
X7195967Y-45076070D01*
X7213732Y-45076070D01*
X7331785Y-45059165D01*
X7348845Y-45054175D01*
X7458383Y-45004371D01*
X7471730Y-44996152D01*
X7508832Y-44966322D01*
X7510640Y-44964699D01*
X7517850Y-44951495D01*
X7517719Y-44949662D01*
X7513468Y-44943047D01*
X7199984Y-44629563D01*
X7186040Y-44621949D01*
X7184207Y-44622080D01*
X7177592Y-44626331D01*
X6881786Y-44922137D01*
X6874172Y-44936081D01*
X6116144Y-44936081D01*
X5428808Y-44248746D01*
X6368643Y-44248746D01*
X6385548Y-44366799D01*
X6390537Y-44383859D01*
X6440342Y-44493396D01*
X6448561Y-44506743D01*
X6478391Y-44543845D01*
X6482947Y-44548922D01*
X6496952Y-44562927D01*
X6510896Y-44570541D01*
X6512729Y-44570410D01*
X6519344Y-44566159D01*
X6815150Y-44270353D01*
X6822764Y-44256409D01*
X6822633Y-44254576D01*
X6818382Y-44247961D01*
X6504898Y-43934477D01*
X6490954Y-43926863D01*
X6489121Y-43926994D01*
X6482613Y-43931176D01*
X6478391Y-43935881D01*
X6448561Y-43972983D01*
X6440342Y-43986330D01*
X6390538Y-44095868D01*
X6385548Y-44112928D01*
X6368643Y-44230981D01*
X6368643Y-44248746D01*
X5428808Y-44248746D01*
X5402954Y-44222892D01*
X5368929Y-44160580D01*
X5373993Y-44089765D01*
X5402954Y-44044702D01*
X9596378Y-39851274D01*
X10533446Y-39851274D01*
X10533577Y-39853107D01*
X10537828Y-39859722D01*
X11010411Y-40332305D01*
X11024355Y-40339919D01*
X11026188Y-40339788D01*
X11032803Y-40335537D01*
X11434678Y-39933661D01*
X11442289Y-39919723D01*
X11442157Y-39917887D01*
X11437908Y-39911275D01*
X11118809Y-39592176D01*
X11109280Y-39584355D01*
X11061938Y-39552721D01*
X11039444Y-39543403D01*
X10964683Y-39528533D01*
X10940341Y-39528533D01*
X10865578Y-39543404D01*
X10843087Y-39552720D01*
X10795744Y-39584354D01*
X10786218Y-39592172D01*
X10541060Y-39837330D01*
X10533446Y-39851274D01*
X9596378Y-39851274D01*
X10154647Y-39293005D01*
X10216959Y-39258980D01*
X10243742Y-39256100D01*
X11431996Y-39256100D01*
X11500117Y-39276102D01*
G37*
%TD.AperFunction*%
%TD*%
%TA.AperFunction,Conductor*%
%TO.N,+5V*%
G36*
X7342121Y-47770002D02*
G01*
X7388614Y-47823658D01*
X7400000Y-47876000D01*
X7400000Y-48462492D01*
X7379998Y-48530613D01*
X7374694Y-48538044D01*
X7370448Y-48542298D01*
X7280698Y-48687899D01*
X7226851Y-48850243D01*
X7216500Y-48951268D01*
X7216500Y-49498732D01*
X7227113Y-49601019D01*
X7281244Y-49763268D01*
X7371248Y-49908713D01*
X7373404Y-49910866D01*
X7399383Y-49975049D01*
X7400000Y-49987502D01*
X7400000Y-50012492D01*
X7379998Y-50080613D01*
X7374694Y-50088044D01*
X7370448Y-50092298D01*
X7280698Y-50237899D01*
X7226851Y-50400243D01*
X7216500Y-50501268D01*
X7216500Y-51024000D01*
X7196498Y-51092121D01*
X7142842Y-51138614D01*
X7090500Y-51150000D01*
X6211932Y-51150000D01*
X6143811Y-51129998D01*
X6125680Y-51115851D01*
X6117239Y-51107925D01*
X6111458Y-51102496D01*
X6094681Y-51093272D01*
X6078168Y-51082425D01*
X6069302Y-51075548D01*
X6069297Y-51075545D01*
X6063034Y-51070687D01*
X6024150Y-51053861D01*
X6013505Y-51048646D01*
X5976378Y-51028235D01*
X5957838Y-51023475D01*
X5939141Y-51017074D01*
X5921565Y-51009468D01*
X5879722Y-51002841D01*
X5868103Y-51000435D01*
X5827074Y-50989900D01*
X5807936Y-50989900D01*
X5788225Y-50988349D01*
X5769316Y-50985354D01*
X5756199Y-50986594D01*
X5727139Y-50989341D01*
X5715281Y-50989900D01*
X5126000Y-50989900D01*
X5057879Y-50969898D01*
X5011386Y-50916242D01*
X5000000Y-50863900D01*
X5000000Y-47876000D01*
X5020002Y-47807879D01*
X5073658Y-47761386D01*
X5126000Y-47750000D01*
X7274000Y-47750000D01*
X7342121Y-47770002D01*
G37*
%TD.AperFunction*%
%TD*%
%TA.AperFunction,Conductor*%
%TO.N,+5V*%
G36*
X7842121Y-14070002D02*
G01*
X7888614Y-14123658D01*
X7900000Y-14176000D01*
X7900000Y-23774000D01*
X7879998Y-23842121D01*
X7826342Y-23888614D01*
X7774000Y-23900000D01*
X5671993Y-23900000D01*
X5645473Y-23897177D01*
X5644549Y-23896978D01*
X5637071Y-23894352D01*
X5631852Y-23893900D01*
X5629143Y-23893900D01*
X5626864Y-23893802D01*
X5626415Y-23893667D01*
X5626417Y-23893613D01*
X5626184Y-23893598D01*
X5620248Y-23891823D01*
X5570385Y-23893782D01*
X5569850Y-23893803D01*
X5564904Y-23893900D01*
X5326000Y-23893900D01*
X5257879Y-23873898D01*
X5211386Y-23820242D01*
X5200000Y-23767900D01*
X5200000Y-18000000D01*
X4126000Y-18000000D01*
X4057879Y-17979998D01*
X4011386Y-17926342D01*
X4000000Y-17874000D01*
X4000000Y-17199056D01*
X4020002Y-17130935D01*
X4030775Y-17116544D01*
X4108748Y-17026559D01*
X4108750Y-17026556D01*
X4114649Y-17019748D01*
X4175365Y-16886799D01*
X4195367Y-16818678D01*
X4216167Y-16674009D01*
X4216167Y-14176000D01*
X4236169Y-14107879D01*
X4289825Y-14061386D01*
X4342167Y-14050000D01*
X7774000Y-14050000D01*
X7842121Y-14070002D01*
G37*
%TD.AperFunction*%
%TD*%
%TA.AperFunction,Conductor*%
%TO.N,GND*%
G36*
X4525500Y-47769962D02*
G01*
X4580038Y-47824500D01*
X4600000Y-47899000D01*
X4600000Y-50671627D01*
X4580038Y-50746127D01*
X4525500Y-50800665D01*
X4451000Y-50820627D01*
X4376500Y-50800665D01*
X4345641Y-50776986D01*
X4344141Y-50775486D01*
X4305577Y-50708691D01*
X4300500Y-50670127D01*
X4300500Y-50430354D01*
X4297382Y-50404154D01*
X4251939Y-50301847D01*
X4172713Y-50222759D01*
X4160133Y-50217197D01*
X4160131Y-50217196D01*
X4080574Y-50182024D01*
X4080573Y-50182024D01*
X4070327Y-50177494D01*
X4055682Y-50175787D01*
X4048930Y-50174999D01*
X4048922Y-50174999D01*
X4044646Y-50174500D01*
X3355354Y-50174500D01*
X3329154Y-50177618D01*
X3316260Y-50183345D01*
X3315977Y-50183471D01*
X3255492Y-50196300D01*
X3172043Y-50196300D01*
X3160094Y-50195820D01*
X3151164Y-50195101D01*
X3140812Y-50192759D01*
X3130220Y-50193416D01*
X3130218Y-50193416D01*
X3088345Y-50196014D01*
X3079119Y-50196300D01*
X3063829Y-50196300D01*
X3054543Y-50197630D01*
X3042643Y-50198849D01*
X2996806Y-50201693D01*
X2986817Y-50205299D01*
X2977144Y-50207302D01*
X2967680Y-50210069D01*
X2957174Y-50211574D01*
X2947516Y-50215965D01*
X2947513Y-50215966D01*
X2932573Y-50222759D01*
X2915354Y-50230588D01*
X2904286Y-50235093D01*
X2871081Y-50247080D01*
X2871076Y-50247083D01*
X2861095Y-50250686D01*
X2852523Y-50256948D01*
X2843808Y-50261582D01*
X2836411Y-50266312D01*
X2834242Y-50267000D01*
X2830631Y-50269110D01*
X2825835Y-50271291D01*
X2825189Y-50269871D01*
X2762892Y-50289630D01*
X2695891Y-50277059D01*
X2650574Y-50257024D01*
X2650573Y-50257024D01*
X2640327Y-50252494D01*
X2624819Y-50250686D01*
X2618930Y-50249999D01*
X2618922Y-50249999D01*
X2614646Y-50249500D01*
X1113794Y-50249500D01*
X1039294Y-50229538D01*
X984756Y-50175000D01*
X977567Y-50158855D01*
X977354Y-50158955D01*
X973365Y-50150477D01*
X970467Y-50141559D01*
X885786Y-50008123D01*
X832015Y-49957628D01*
X777413Y-49906352D01*
X777409Y-49906349D01*
X770582Y-49899938D01*
X687135Y-49854063D01*
X640309Y-49828320D01*
X640307Y-49828319D01*
X632092Y-49823803D01*
X479019Y-49784500D01*
X360650Y-49784500D01*
X356006Y-49785087D01*
X356001Y-49785087D01*
X308236Y-49791121D01*
X243208Y-49799336D01*
X234493Y-49802786D01*
X234491Y-49802787D01*
X181412Y-49823803D01*
X96268Y-49857514D01*
X-31587Y-49950406D01*
X-132324Y-50072177D01*
X-136313Y-50080654D01*
X-136315Y-50080657D01*
X-161248Y-50133642D01*
X-199614Y-50215174D01*
X-201370Y-50224379D01*
X-218863Y-50316083D01*
X-229227Y-50370412D01*
X-219304Y-50528138D01*
X-170467Y-50678441D01*
X-85786Y-50811877D01*
X-76468Y-50820627D01*
X22582Y-50913643D01*
X22584Y-50913645D01*
X29418Y-50920062D01*
X33172Y-50922126D01*
X80159Y-50980147D01*
X92226Y-51056325D01*
X64588Y-51128331D01*
X55732Y-51139376D01*
X35371Y-51162430D01*
X29066Y-51169138D01*
X18254Y-51179950D01*
X15078Y-51184188D01*
X15075Y-51184191D01*
X12629Y-51187455D01*
X5083Y-51196723D01*
X-18297Y-51223196D01*
X-18300Y-51223201D01*
X-25326Y-51231156D01*
X-29837Y-51240765D01*
X-35259Y-51249019D01*
X-39997Y-51257672D01*
X-46363Y-51266167D01*
X-62491Y-51309190D01*
X-67125Y-51320187D01*
X-86644Y-51361761D01*
X-88277Y-51372250D01*
X-91168Y-51381706D01*
X-93284Y-51391333D01*
X-97009Y-51401269D01*
X-97795Y-51411852D01*
X-100412Y-51447059D01*
X-101775Y-51458936D01*
X-103700Y-51471302D01*
X-103700Y-51485787D01*
X-104110Y-51496829D01*
X-107701Y-51545154D01*
X-105485Y-51555537D01*
X-104763Y-51566125D01*
X-105122Y-51566149D01*
X-103700Y-51579622D01*
X-103700Y-54927957D01*
X-104180Y-54939906D01*
X-104899Y-54948836D01*
X-107241Y-54959188D01*
X-106584Y-54969780D01*
X-106584Y-54969782D01*
X-103986Y-55011655D01*
X-103700Y-55020881D01*
X-103700Y-55036171D01*
X-102949Y-55041414D01*
X-102370Y-55045457D01*
X-101151Y-55057357D01*
X-98307Y-55103194D01*
X-94701Y-55113183D01*
X-92698Y-55122856D01*
X-89931Y-55132320D01*
X-88426Y-55142826D01*
X-84035Y-55152484D01*
X-84034Y-55152487D01*
X-69416Y-55184636D01*
X-64907Y-55195714D01*
X-52920Y-55228919D01*
X-52917Y-55228924D01*
X-49314Y-55238905D01*
X-43051Y-55247478D01*
X-38416Y-55256195D01*
X-33102Y-55264504D01*
X-28707Y-55274170D01*
X-21778Y-55282212D01*
X-21777Y-55282213D01*
X1276Y-55308968D01*
X8711Y-55318332D01*
X16083Y-55328422D01*
X26323Y-55338662D01*
X33840Y-55346759D01*
X65475Y-55383473D01*
X74384Y-55389248D01*
X82382Y-55396225D01*
X82146Y-55396496D01*
X92679Y-55405018D01*
X105489Y-55417828D01*
X144053Y-55484623D01*
X144053Y-55561751D01*
X105489Y-55628546D01*
X87710Y-55643730D01*
X-24000Y-55724892D01*
X-24008Y-55724900D01*
X-31587Y-55730406D01*
X-132324Y-55852177D01*
X-136313Y-55860654D01*
X-136315Y-55860657D01*
X-146441Y-55882176D01*
X-199614Y-55995174D01*
X-229227Y-56150412D01*
X-219304Y-56308138D01*
X-216406Y-56317056D01*
X-216406Y-56317058D01*
X-194386Y-56384826D01*
X-170467Y-56458441D01*
X-85786Y-56591877D01*
X-37176Y-56637525D01*
X22587Y-56693648D01*
X22591Y-56693651D01*
X29418Y-56700062D01*
X37629Y-56704576D01*
X159691Y-56771680D01*
X159693Y-56771681D01*
X167908Y-56776197D01*
X320981Y-56815500D01*
X439350Y-56815500D01*
X443994Y-56814913D01*
X443999Y-56814913D01*
X491764Y-56808879D01*
X556792Y-56800664D01*
X565507Y-56797214D01*
X565509Y-56797213D01*
X630262Y-56771575D01*
X703732Y-56742486D01*
X831587Y-56649594D01*
X932324Y-56527823D01*
X936313Y-56519346D01*
X936315Y-56519343D01*
X975506Y-56436058D01*
X1025289Y-56377148D01*
X1097858Y-56351022D01*
X1110325Y-56350500D01*
X2614646Y-56350500D01*
X2640846Y-56347382D01*
X2743153Y-56301939D01*
X2752871Y-56292204D01*
X2752874Y-56292202D01*
X2820049Y-56224909D01*
X2886810Y-56186286D01*
X2963938Y-56186218D01*
X3030766Y-56224724D01*
X3069389Y-56291485D01*
X3074500Y-56330175D01*
X3074501Y-56527823D01*
X3074501Y-56722376D01*
X3081149Y-56783580D01*
X3131474Y-56917824D01*
X3217454Y-57032546D01*
X3225948Y-57038912D01*
X3231677Y-57044641D01*
X3270241Y-57111436D01*
X3270241Y-57188564D01*
X3231677Y-57255359D01*
X3225948Y-57261088D01*
X3217454Y-57267454D01*
X3131474Y-57382176D01*
X3081149Y-57516420D01*
X3074500Y-57577623D01*
X3074501Y-58222376D01*
X3081149Y-58283580D01*
X3131474Y-58417824D01*
X3137840Y-58426318D01*
X3139553Y-58429447D01*
X3157820Y-58504380D01*
X3136172Y-58578408D01*
X3080411Y-58631695D01*
X3008858Y-58650000D01*
X-4550500Y-58650000D01*
X-4625000Y-58630038D01*
X-4679538Y-58575500D01*
X-4699500Y-58501000D01*
X-4699500Y-47899000D01*
X-4679538Y-47824500D01*
X-4625000Y-47769962D01*
X-4550500Y-47750000D01*
X4451000Y-47750000D01*
X4525500Y-47769962D01*
G37*
%TD.AperFunction*%
%TA.AperFunction,Conductor*%
G36*
X4093837Y-52972062D02*
G01*
X4107862Y-52981249D01*
X4127851Y-52996013D01*
X4127854Y-52996015D01*
X4136816Y-53002634D01*
X4264631Y-53047519D01*
X4273674Y-53048374D01*
X4273675Y-53048374D01*
X4276395Y-53048631D01*
X4296166Y-53050500D01*
X4451000Y-53050500D01*
X4525500Y-53070462D01*
X4580038Y-53125000D01*
X4600000Y-53199500D01*
X4600000Y-53600500D01*
X4580038Y-53675000D01*
X4525500Y-53729538D01*
X4451000Y-53749500D01*
X4296166Y-53749500D01*
X4276395Y-53751369D01*
X4273675Y-53751626D01*
X4273674Y-53751626D01*
X4264631Y-53752481D01*
X4136816Y-53797366D01*
X4027850Y-53877850D01*
X4021232Y-53886810D01*
X4021230Y-53886812D01*
X4020775Y-53887428D01*
X4019983Y-53888059D01*
X4013357Y-53894685D01*
X4012608Y-53893936D01*
X3960454Y-53935492D01*
X3900926Y-53947900D01*
X3767273Y-53947900D01*
X3692773Y-53927938D01*
X3661914Y-53904259D01*
X3478294Y-53720639D01*
X3467850Y-53715318D01*
X3467848Y-53715316D01*
X3460197Y-53711418D01*
X3440256Y-53699198D01*
X3433312Y-53694152D01*
X3433308Y-53694150D01*
X3423825Y-53687260D01*
X3412676Y-53683637D01*
X3412673Y-53683636D01*
X3406951Y-53681777D01*
X3404510Y-53680984D01*
X3382904Y-53672035D01*
X3375256Y-53668138D01*
X3364805Y-53662813D01*
X3354434Y-53661170D01*
X3290372Y-53619568D01*
X3255356Y-53550847D01*
X3252100Y-53519867D01*
X3252100Y-53101100D01*
X3272062Y-53026600D01*
X3326600Y-52972062D01*
X3401100Y-52952100D01*
X4019337Y-52952100D01*
X4093837Y-52972062D01*
G37*
%TD.AperFunction*%
%TD*%
%TA.AperFunction,Conductor*%
%TO.N,GND*%
G36*
X1114667Y-14069962D02*
G01*
X1169205Y-14124500D01*
X1189167Y-14199000D01*
X1189167Y-16674009D01*
X1200901Y-16783158D01*
X1212287Y-16835500D01*
X1213546Y-16839284D01*
X1213547Y-16839286D01*
X1222839Y-16867202D01*
X1246957Y-16939666D01*
X1325975Y-17062621D01*
X1372468Y-17116277D01*
X1376491Y-17119763D01*
X1398574Y-17138898D01*
X1441805Y-17202772D01*
X1450000Y-17251505D01*
X1450000Y-18350000D01*
X4750412Y-18350000D01*
X4824912Y-18369962D01*
X4879450Y-18424500D01*
X4899411Y-18499587D01*
X4880412Y-23325486D01*
X4879913Y-23452128D01*
X4859657Y-23526548D01*
X4804905Y-23580871D01*
X4730327Y-23600540D01*
X4655907Y-23580284D01*
X4625555Y-23556900D01*
X4394141Y-23325486D01*
X4355577Y-23258691D01*
X4350500Y-23220127D01*
X4350500Y-22980354D01*
X4347382Y-22954154D01*
X4301939Y-22851847D01*
X4222713Y-22772759D01*
X4210133Y-22767197D01*
X4210131Y-22767196D01*
X4130574Y-22732024D01*
X4130573Y-22732024D01*
X4120327Y-22727494D01*
X4105682Y-22725787D01*
X4098930Y-22724999D01*
X4098922Y-22724999D01*
X4094646Y-22724500D01*
X3405354Y-22724500D01*
X3379154Y-22727618D01*
X3366260Y-22733345D01*
X3365977Y-22733471D01*
X3305492Y-22746300D01*
X2873016Y-22746300D01*
X2798516Y-22726338D01*
X2767750Y-22702752D01*
X2752449Y-22687478D01*
X2742713Y-22677759D01*
X2730133Y-22672197D01*
X2730131Y-22672196D01*
X2650574Y-22637024D01*
X2650573Y-22637024D01*
X2640327Y-22632494D01*
X2625682Y-22630787D01*
X2618930Y-22629999D01*
X2618922Y-22629999D01*
X2614646Y-22629500D01*
X1113794Y-22629500D01*
X1039294Y-22609538D01*
X984756Y-22555000D01*
X977567Y-22538855D01*
X977354Y-22538955D01*
X973365Y-22530477D01*
X970467Y-22521559D01*
X885786Y-22388123D01*
X832015Y-22337628D01*
X777413Y-22286352D01*
X777409Y-22286349D01*
X770582Y-22279938D01*
X687135Y-22234063D01*
X640309Y-22208320D01*
X640307Y-22208319D01*
X632092Y-22203803D01*
X479019Y-22164500D01*
X360650Y-22164500D01*
X356006Y-22165087D01*
X356001Y-22165087D01*
X308236Y-22171121D01*
X243208Y-22179336D01*
X234493Y-22182786D01*
X234491Y-22182787D01*
X181412Y-22203803D01*
X96268Y-22237514D01*
X-31587Y-22330406D01*
X-132324Y-22452177D01*
X-136313Y-22460654D01*
X-136315Y-22460657D01*
X-161248Y-22513642D01*
X-199614Y-22595174D01*
X-201370Y-22604379D01*
X-225995Y-22733471D01*
X-229227Y-22750412D01*
X-223457Y-22842129D01*
X-222054Y-22864419D01*
X-219304Y-22908138D01*
X-216406Y-22917056D01*
X-216406Y-22917058D01*
X-195839Y-22980354D01*
X-170467Y-23058441D01*
X-85786Y-23191877D01*
X-55703Y-23220127D01*
X22582Y-23293643D01*
X22584Y-23293645D01*
X29418Y-23300062D01*
X33172Y-23302126D01*
X80159Y-23360147D01*
X92226Y-23436325D01*
X64588Y-23508331D01*
X55732Y-23519376D01*
X35371Y-23542430D01*
X29066Y-23549138D01*
X18254Y-23559950D01*
X15078Y-23564188D01*
X15075Y-23564191D01*
X12629Y-23567455D01*
X5083Y-23576723D01*
X-18297Y-23603196D01*
X-18300Y-23603201D01*
X-25326Y-23611156D01*
X-29837Y-23620765D01*
X-35259Y-23629019D01*
X-39997Y-23637672D01*
X-46363Y-23646167D01*
X-62491Y-23689190D01*
X-67125Y-23700187D01*
X-86644Y-23741761D01*
X-88277Y-23752250D01*
X-91168Y-23761706D01*
X-93284Y-23771333D01*
X-97009Y-23781269D01*
X-97795Y-23791852D01*
X-100412Y-23827059D01*
X-101775Y-23838936D01*
X-103700Y-23851302D01*
X-103700Y-23865787D01*
X-104110Y-23876829D01*
X-107701Y-23925154D01*
X-105485Y-23935537D01*
X-104763Y-23946125D01*
X-105122Y-23946149D01*
X-103700Y-23959622D01*
X-103700Y-27397414D01*
X-104180Y-27409363D01*
X-104899Y-27418293D01*
X-107241Y-27428645D01*
X-106584Y-27439237D01*
X-106584Y-27439239D01*
X-103986Y-27481112D01*
X-103700Y-27490338D01*
X-103700Y-27505628D01*
X-102949Y-27510871D01*
X-102370Y-27514914D01*
X-101151Y-27526814D01*
X-98307Y-27572651D01*
X-94701Y-27582640D01*
X-92698Y-27592313D01*
X-89931Y-27601777D01*
X-88426Y-27612283D01*
X-84035Y-27621941D01*
X-84034Y-27621944D01*
X-69416Y-27654093D01*
X-64907Y-27665171D01*
X-52920Y-27698376D01*
X-52917Y-27698381D01*
X-49314Y-27708362D01*
X-43051Y-27716935D01*
X-38416Y-27725652D01*
X-33102Y-27733961D01*
X-28707Y-27743627D01*
X-21778Y-27751669D01*
X-21777Y-27751670D01*
X1276Y-27778425D01*
X8711Y-27787789D01*
X16083Y-27797879D01*
X26323Y-27808119D01*
X33841Y-27816217D01*
X58867Y-27845261D01*
X92375Y-27914730D01*
X86659Y-27991646D01*
X43251Y-28055399D01*
X33571Y-28063065D01*
X-24003Y-28104895D01*
X-24007Y-28104899D01*
X-31587Y-28110406D01*
X-132324Y-28232177D01*
X-136313Y-28240654D01*
X-136315Y-28240657D01*
X-173715Y-28320137D01*
X-199614Y-28375174D01*
X-201370Y-28384379D01*
X-219925Y-28481651D01*
X-229227Y-28530412D01*
X-219304Y-28688138D01*
X-216406Y-28697056D01*
X-216406Y-28697058D01*
X-194386Y-28764826D01*
X-170467Y-28838441D01*
X-85786Y-28971877D01*
X-37176Y-29017525D01*
X22587Y-29073648D01*
X22591Y-29073651D01*
X29418Y-29080062D01*
X37629Y-29084576D01*
X159691Y-29151680D01*
X159693Y-29151681D01*
X167908Y-29156197D01*
X320981Y-29195500D01*
X439350Y-29195500D01*
X443994Y-29194913D01*
X443999Y-29194913D01*
X491764Y-29188879D01*
X556792Y-29180664D01*
X565507Y-29177214D01*
X565509Y-29177213D01*
X630262Y-29151575D01*
X703732Y-29122486D01*
X831587Y-29029594D01*
X932324Y-28907823D01*
X936313Y-28899346D01*
X936315Y-28899343D01*
X975506Y-28816058D01*
X1025289Y-28757148D01*
X1097858Y-28731022D01*
X1110325Y-28730500D01*
X2614646Y-28730500D01*
X2640846Y-28727382D01*
X2743153Y-28681939D01*
X2752871Y-28672204D01*
X2752874Y-28672202D01*
X2820049Y-28604909D01*
X2886810Y-28566286D01*
X2963938Y-28566218D01*
X3030766Y-28604724D01*
X3069389Y-28671485D01*
X3074500Y-28710175D01*
X3074501Y-28915044D01*
X3074501Y-29122376D01*
X3081149Y-29183580D01*
X3131474Y-29317824D01*
X3217454Y-29432546D01*
X3225948Y-29438912D01*
X3231677Y-29444641D01*
X3270241Y-29511436D01*
X3270241Y-29588564D01*
X3231677Y-29655359D01*
X3225948Y-29661088D01*
X3217454Y-29667454D01*
X3131474Y-29782176D01*
X3081149Y-29916420D01*
X3074500Y-29977623D01*
X3074501Y-30622376D01*
X3081149Y-30683580D01*
X3084428Y-30692326D01*
X3091509Y-30711216D01*
X3098968Y-30787983D01*
X3067044Y-30858194D01*
X3004292Y-30903037D01*
X2971440Y-30911243D01*
X2952920Y-30913681D01*
X2952917Y-30913682D01*
X2943238Y-30914956D01*
X2797159Y-30975464D01*
X2753915Y-31008646D01*
X2682663Y-31038160D01*
X2662504Y-31039432D01*
X-4192386Y-31006317D01*
X-4551220Y-31004583D01*
X-4625623Y-30984261D01*
X-4679896Y-30929461D01*
X-4699500Y-30855585D01*
X-4699500Y-14199000D01*
X-4679538Y-14124500D01*
X-4625000Y-14069962D01*
X-4550500Y-14050000D01*
X1040167Y-14050000D01*
X1114667Y-14069962D01*
G37*
%TD.AperFunction*%
%TA.AperFunction,Conductor*%
G36*
X3991103Y-25352062D02*
G01*
X4045843Y-25408847D01*
X4047366Y-25413184D01*
X4127850Y-25522150D01*
X4236816Y-25602634D01*
X4364631Y-25647519D01*
X4373674Y-25648374D01*
X4373675Y-25648374D01*
X4376395Y-25648631D01*
X4396166Y-25650500D01*
X4721670Y-25650500D01*
X4796170Y-25670462D01*
X4850708Y-25725000D01*
X4870669Y-25800087D01*
X4869090Y-26201087D01*
X4848834Y-26275508D01*
X4794082Y-26329830D01*
X4720091Y-26349500D01*
X4396166Y-26349500D01*
X4376395Y-26351369D01*
X4373675Y-26351626D01*
X4373674Y-26351626D01*
X4364631Y-26352481D01*
X4236816Y-26397366D01*
X4127850Y-26477850D01*
X4121232Y-26486810D01*
X4121230Y-26486812D01*
X4120775Y-26487428D01*
X4119983Y-26488059D01*
X4113357Y-26494685D01*
X4112608Y-26493936D01*
X4060454Y-26535492D01*
X4000926Y-26547900D01*
X3878273Y-26547900D01*
X3803773Y-26527938D01*
X3772914Y-26504259D01*
X3369294Y-26100639D01*
X3358850Y-26095318D01*
X3358848Y-26095316D01*
X3353458Y-26092570D01*
X3296140Y-26040963D01*
X3272304Y-25967610D01*
X3272100Y-25959809D01*
X3272100Y-25481100D01*
X3292062Y-25406600D01*
X3346600Y-25352062D01*
X3421100Y-25332100D01*
X3916603Y-25332100D01*
X3991103Y-25352062D01*
G37*
%TD.AperFunction*%
%TD*%
M02*
