%TF.GenerationSoftware,KiCad,Pcbnew,(6.0.9)*%
%TF.CreationDate,2022-12-29T14:51:20+10:00*%
%TF.ProjectId,OpenRetroPad,4f70656e-5265-4747-926f-5061642e6b69,rev?*%
%TF.SameCoordinates,Original*%
%TF.FileFunction,Paste,Top*%
%TF.FilePolarity,Positive*%
%FSLAX46Y46*%
G04 Gerber Fmt 4.6, Leading zero omitted, Abs format (unit mm)*
G04 Created by KiCad (PCBNEW (6.0.9)) date 2022-12-29 14:51:20*
%MOMM*%
%LPD*%
G01*
G04 APERTURE LIST*
G04 Aperture macros list*
%AMRoundRect*
0 Rectangle with rounded corners*
0 $1 Rounding radius*
0 $2 $3 $4 $5 $6 $7 $8 $9 X,Y pos of 4 corners*
0 Add a 4 corners polygon primitive as box body*
4,1,4,$2,$3,$4,$5,$6,$7,$8,$9,$2,$3,0*
0 Add four circle primitives for the rounded corners*
1,1,$1+$1,$2,$3*
1,1,$1+$1,$4,$5*
1,1,$1+$1,$6,$7*
1,1,$1+$1,$8,$9*
0 Add four rect primitives between the rounded corners*
20,1,$1+$1,$2,$3,$4,$5,0*
20,1,$1+$1,$4,$5,$6,$7,0*
20,1,$1+$1,$6,$7,$8,$9,0*
20,1,$1+$1,$8,$9,$2,$3,0*%
%AMRotRect*
0 Rectangle, with rotation*
0 The origin of the aperture is its center*
0 $1 length*
0 $2 width*
0 $3 Rotation angle, in degrees counterclockwise*
0 Add horizontal line*
21,1,$1,$2,0,0,$3*%
G04 Aperture macros list end*
%ADD10RoundRect,0.225000X-0.250000X0.225000X-0.250000X-0.225000X0.250000X-0.225000X0.250000X0.225000X0*%
%ADD11RoundRect,0.150000X-0.512500X-0.150000X0.512500X-0.150000X0.512500X0.150000X-0.512500X0.150000X0*%
%ADD12RoundRect,0.200000X0.275000X-0.200000X0.275000X0.200000X-0.275000X0.200000X-0.275000X-0.200000X0*%
%ADD13R,0.600000X0.450000*%
%ADD14RoundRect,0.200000X0.200000X0.275000X-0.200000X0.275000X-0.200000X-0.275000X0.200000X-0.275000X0*%
%ADD15RoundRect,0.225000X0.225000X0.250000X-0.225000X0.250000X-0.225000X-0.250000X0.225000X-0.250000X0*%
%ADD16RoundRect,0.243750X0.243750X0.456250X-0.243750X0.456250X-0.243750X-0.456250X0.243750X-0.456250X0*%
%ADD17RoundRect,0.225000X0.335876X0.017678X0.017678X0.335876X-0.335876X-0.017678X-0.017678X-0.335876X0*%
%ADD18RoundRect,0.200000X-0.200000X-0.275000X0.200000X-0.275000X0.200000X0.275000X-0.200000X0.275000X0*%
%ADD19RoundRect,0.225000X-0.335876X-0.017678X-0.017678X-0.335876X0.335876X0.017678X0.017678X0.335876X0*%
%ADD20RoundRect,0.225000X-0.225000X-0.250000X0.225000X-0.250000X0.225000X0.250000X-0.225000X0.250000X0*%
%ADD21RoundRect,0.218750X0.256250X-0.218750X0.256250X0.218750X-0.256250X0.218750X-0.256250X-0.218750X0*%
%ADD22RoundRect,0.225000X0.250000X-0.225000X0.250000X0.225000X-0.250000X0.225000X-0.250000X-0.225000X0*%
%ADD23RoundRect,0.150000X0.150000X-0.825000X0.150000X0.825000X-0.150000X0.825000X-0.150000X-0.825000X0*%
%ADD24R,1.500000X2.000000*%
%ADD25R,3.800000X2.000000*%
%ADD26RoundRect,0.225000X-0.017678X0.335876X-0.335876X0.017678X0.017678X-0.335876X0.335876X-0.017678X0*%
%ADD27RoundRect,0.218750X-0.256250X0.218750X-0.256250X-0.218750X0.256250X-0.218750X0.256250X0.218750X0*%
%ADD28RoundRect,0.218750X-0.335876X-0.026517X-0.026517X-0.335876X0.335876X0.026517X0.026517X0.335876X0*%
%ADD29RoundRect,0.200000X0.335876X0.053033X0.053033X0.335876X-0.335876X-0.053033X-0.053033X-0.335876X0*%
%ADD30RoundRect,0.218750X0.335876X0.026517X0.026517X0.335876X-0.335876X-0.026517X-0.026517X-0.335876X0*%
%ADD31RoundRect,0.250000X-0.250000X-0.475000X0.250000X-0.475000X0.250000X0.475000X-0.250000X0.475000X0*%
%ADD32RoundRect,0.218750X0.026517X-0.335876X0.335876X-0.026517X-0.026517X0.335876X-0.335876X0.026517X0*%
%ADD33R,1.450000X0.600000*%
%ADD34R,1.450000X0.300000*%
%ADD35RotRect,1.500000X0.550000X315.000000*%
%ADD36RotRect,1.500000X0.550000X45.000000*%
%ADD37RoundRect,0.200000X-0.335876X-0.053033X-0.053033X-0.335876X0.335876X0.053033X0.053033X0.335876X0*%
%ADD38RoundRect,0.225000X0.017678X-0.335876X0.335876X-0.017678X-0.017678X0.335876X-0.335876X0.017678X0*%
%ADD39RoundRect,0.218750X0.218750X0.256250X-0.218750X0.256250X-0.218750X-0.256250X0.218750X-0.256250X0*%
%ADD40RoundRect,0.250000X-0.475000X0.250000X-0.475000X-0.250000X0.475000X-0.250000X0.475000X0.250000X0*%
%ADD41RotRect,1.400000X1.200000X135.000000*%
%ADD42RoundRect,0.250000X-0.750000X0.250000X-0.750000X-0.250000X0.750000X-0.250000X0.750000X0.250000X0*%
G04 APERTURE END LIST*
D10*
%TO.C,C5*%
X5300000Y-5175000D03*
X5300000Y-6725000D03*
%TD*%
D11*
%TO.C,U4*%
X4962500Y-25050000D03*
X4962500Y-26000000D03*
X4962500Y-26950000D03*
X7237500Y-26950000D03*
X7237500Y-26000000D03*
X7237500Y-25050000D03*
%TD*%
D12*
%TO.C,R17*%
X16700000Y-47825000D03*
X16700000Y-46175000D03*
%TD*%
D13*
%TO.C,D9*%
X5800000Y-50700000D03*
X3700000Y-50700000D03*
%TD*%
D14*
%TO.C,R16*%
X16325000Y-61400000D03*
X14675000Y-61400000D03*
%TD*%
D15*
%TO.C,C19*%
X5775000Y-38300000D03*
X4225000Y-38300000D03*
%TD*%
D16*
%TO.C,F2*%
X22537500Y-13450000D03*
X20662500Y-13450000D03*
%TD*%
D17*
%TO.C,C10*%
X22998008Y-45448008D03*
X21901992Y-44351992D03*
%TD*%
D18*
%TO.C,R11*%
X4175000Y-39800000D03*
X5825000Y-39800000D03*
%TD*%
D19*
%TO.C,C9*%
X14112652Y-25891332D03*
X15208668Y-26987348D03*
%TD*%
D20*
%TO.C,C7*%
X7225000Y-35300000D03*
X8775000Y-35300000D03*
%TD*%
D12*
%TO.C,R7*%
X16700000Y-50825000D03*
X16700000Y-49175000D03*
%TD*%
D21*
%TO.C,D8*%
X23500000Y-55187500D03*
X23500000Y-53612500D03*
%TD*%
D22*
%TO.C,C15*%
X15200000Y-50775000D03*
X15200000Y-49225000D03*
%TD*%
D19*
%TO.C,C20*%
X25751992Y-31751992D03*
X26848008Y-32848008D03*
%TD*%
D18*
%TO.C,R9*%
X19675000Y-61400000D03*
X21325000Y-61400000D03*
%TD*%
D14*
%TO.C,R4*%
X5425000Y-57900000D03*
X3775000Y-57900000D03*
%TD*%
D18*
%TO.C,R1*%
X3775000Y-28800000D03*
X5425000Y-28800000D03*
%TD*%
D19*
%TO.C,C13*%
X10951992Y-29051992D03*
X12048008Y-30148008D03*
%TD*%
D11*
%TO.C,U5*%
X4862500Y-52450000D03*
X4862500Y-53400000D03*
X4862500Y-54350000D03*
X7137500Y-54350000D03*
X7137500Y-53400000D03*
X7137500Y-52450000D03*
%TD*%
D12*
%TO.C,R8*%
X18300000Y-50825000D03*
X18300000Y-49175000D03*
%TD*%
D23*
%TO.C,U3*%
X9795000Y-54675000D03*
X11065000Y-54675000D03*
X12335000Y-54675000D03*
X13605000Y-54675000D03*
X13605000Y-49725000D03*
X12335000Y-49725000D03*
X11065000Y-49725000D03*
X9795000Y-49725000D03*
%TD*%
D24*
%TO.C,U1*%
X400000Y-15550000D03*
X2700000Y-15550000D03*
D25*
X2700000Y-9250000D03*
D24*
X5000000Y-15550000D03*
%TD*%
D18*
%TO.C,R19*%
X19675000Y-59900000D03*
X21325000Y-59900000D03*
%TD*%
D26*
%TO.C,C11*%
X10121664Y-45000000D03*
X9025648Y-46096016D03*
%TD*%
D12*
%TO.C,R18*%
X18300000Y-47825000D03*
X18300000Y-46175000D03*
%TD*%
D27*
%TO.C,D3*%
X18300000Y-53612500D03*
X18300000Y-55187500D03*
%TD*%
D26*
%TO.C,C18*%
X22348008Y-26051992D03*
X21251992Y-27148008D03*
%TD*%
D28*
%TO.C,FB3*%
X22943153Y-43293153D03*
X24056847Y-44406847D03*
%TD*%
D29*
%TO.C,R6*%
X14183363Y-28083363D03*
X13016637Y-26916637D03*
%TD*%
%TO.C,R10*%
X26183363Y-42333363D03*
X25016637Y-41166637D03*
%TD*%
D26*
%TO.C,C12*%
X8283188Y-43161525D03*
X7187172Y-44257541D03*
%TD*%
D30*
%TO.C,D4*%
X27256847Y-41206847D03*
X26143153Y-40093153D03*
%TD*%
D31*
%TO.C,C6*%
X3850000Y-48750000D03*
X5750000Y-48750000D03*
%TD*%
D32*
%TO.C,FB4*%
X20191161Y-26108839D03*
X21304855Y-24995145D03*
%TD*%
D14*
%TO.C,R2*%
X5425000Y-30300000D03*
X3775000Y-30300000D03*
%TD*%
D29*
%TO.C,R5*%
X13122702Y-29144024D03*
X11955976Y-27977298D03*
%TD*%
D33*
%TO.C,J1*%
X1845000Y-22430000D03*
X1845000Y-23230000D03*
D34*
X1845000Y-24430000D03*
X1845000Y-25430000D03*
X1845000Y-25930000D03*
X1845000Y-26930000D03*
D33*
X1845000Y-28130000D03*
X1845000Y-28930000D03*
X1845000Y-28930000D03*
X1845000Y-28130000D03*
D34*
X1845000Y-27430000D03*
X1845000Y-26430000D03*
X1845000Y-24930000D03*
X1845000Y-23930000D03*
D33*
X1845000Y-23230000D03*
X1845000Y-22430000D03*
%TD*%
D10*
%TO.C,C4*%
X2700000Y-5175000D03*
X2700000Y-6725000D03*
%TD*%
D35*
%TO.C,U2*%
X16797918Y-29141064D03*
X16232233Y-29706750D03*
X15666548Y-30272435D03*
X15100862Y-30838120D03*
X14535177Y-31403806D03*
X13969491Y-31969491D03*
X13403806Y-32535177D03*
X12838120Y-33100862D03*
X12272435Y-33666548D03*
X11706750Y-34232233D03*
X11141064Y-34797918D03*
D36*
X11141064Y-37202082D03*
X11706750Y-37767767D03*
X12272435Y-38333452D03*
X12838120Y-38899138D03*
X13403806Y-39464823D03*
X13969491Y-40030509D03*
X14535177Y-40596194D03*
X15100862Y-41161880D03*
X15666548Y-41727565D03*
X16232233Y-42293250D03*
X16797918Y-42858936D03*
D35*
X19202082Y-42858936D03*
X19767767Y-42293250D03*
X20333452Y-41727565D03*
X20899138Y-41161880D03*
X21464823Y-40596194D03*
X22030509Y-40030509D03*
X22596194Y-39464823D03*
X23161880Y-38899138D03*
X23727565Y-38333452D03*
X24293250Y-37767767D03*
X24858936Y-37202082D03*
D36*
X24858936Y-34797918D03*
X24293250Y-34232233D03*
X23727565Y-33666548D03*
X23161880Y-33100862D03*
X22596194Y-32535177D03*
X22030509Y-31969491D03*
X21464823Y-31403806D03*
X20899138Y-30838120D03*
X20333452Y-30272435D03*
X19767767Y-29706750D03*
X19202082Y-29141064D03*
%TD*%
D13*
%TO.C,D1*%
X5850000Y-23250000D03*
X3750000Y-23250000D03*
%TD*%
D14*
%TO.C,R13*%
X-953000Y-40276000D03*
X-2603000Y-40276000D03*
%TD*%
D20*
%TO.C,C8*%
X7225000Y-36800000D03*
X8775000Y-36800000D03*
%TD*%
D13*
%TO.C,D5*%
X3850000Y-41500000D03*
X5950000Y-41500000D03*
%TD*%
D37*
%TO.C,R12*%
X23966637Y-42216637D03*
X25133363Y-43383363D03*
%TD*%
D38*
%TO.C,C21*%
X22351992Y-28248008D03*
X23448008Y-27151992D03*
%TD*%
D18*
%TO.C,R3*%
X3775000Y-56400000D03*
X5425000Y-56400000D03*
%TD*%
D16*
%TO.C,F1*%
X22537500Y-9250000D03*
X20662500Y-9250000D03*
%TD*%
D12*
%TO.C,R15*%
X23500000Y-50825000D03*
X23500000Y-49175000D03*
%TD*%
D33*
%TO.C,J2*%
X1845000Y-50050000D03*
X1845000Y-50850000D03*
D34*
X1845000Y-52050000D03*
X1845000Y-53050000D03*
X1845000Y-53550000D03*
X1845000Y-54550000D03*
D33*
X1845000Y-55750000D03*
X1845000Y-56550000D03*
X1845000Y-56550000D03*
X1845000Y-55750000D03*
D34*
X1845000Y-55050000D03*
X1845000Y-54050000D03*
X1845000Y-52550000D03*
X1845000Y-51550000D03*
D33*
X1845000Y-50850000D03*
X1845000Y-50050000D03*
%TD*%
D12*
%TO.C,R14*%
X21900000Y-50825000D03*
X21900000Y-49175000D03*
%TD*%
D39*
%TO.C,D6*%
X-990500Y-38676000D03*
X-2565500Y-38676000D03*
%TD*%
D21*
%TO.C,D7*%
X21900000Y-55187500D03*
X21900000Y-53612500D03*
%TD*%
D40*
%TO.C,C3*%
X100000Y-5050000D03*
X100000Y-6950000D03*
%TD*%
D41*
%TO.C,Y1*%
X12578858Y-42259962D03*
X11023223Y-40704327D03*
X9821142Y-41906408D03*
X11376777Y-43462043D03*
%TD*%
D22*
%TO.C,C17*%
X15200000Y-55175000D03*
X15200000Y-53625000D03*
%TD*%
D20*
%TO.C,C2*%
X4275000Y-19500000D03*
X5825000Y-19500000D03*
%TD*%
D42*
%TO.C,SW2*%
X15500000Y-62900000D03*
X15500000Y-67100000D03*
%TD*%
D27*
%TO.C,D2*%
X16700000Y-53612500D03*
X16700000Y-55187500D03*
%TD*%
D42*
%TO.C,SW1*%
X20500000Y-62900000D03*
X20500000Y-67100000D03*
%TD*%
D31*
%TO.C,C1*%
X3950000Y-21300000D03*
X5850000Y-21300000D03*
%TD*%
D22*
%TO.C,C16*%
X8200000Y-50775000D03*
X8200000Y-49225000D03*
%TD*%
M02*
