M48
; DRILL file {KiCad (6.0.9)} date Mon Jan  9 11:29:15 2023
; FORMAT={-:-/ absolute / inch / decimal}
; #@! TF.CreationDate,2023-01-09T11:29:15+10:00
; #@! TF.GenerationSoftware,Kicad,Pcbnew,(6.0.9)
; #@! TF.FileFunction,Plated,1,4,PTH
FMAT,2
INCH
; #@! TA.AperFunction,Plated,PTH,ViaDrill
T1C0.0118
; #@! TA.AperFunction,Plated,PTH,ViaDrill
T2C0.0157
; #@! TA.AperFunction,Plated,PTH,ComponentDrill
T3C0.0197
; #@! TA.AperFunction,Plated,PTH,ComponentDrill
T4C0.0236
; #@! TA.AperFunction,Plated,PTH,ComponentDrill
T5C0.0394
; #@! TA.AperFunction,Plated,PTH,ComponentDrill
T6C0.1260
%
G90
G05
T1
X-0.1457Y-1.5866
X-0.0512Y-0.2008
X0.0118Y-1.4409
X0.0591Y-0.2047
X0.1181Y-1.685
X0.1339Y-0.9597
X0.1378Y-2.0471
X0.1398Y-2.1024
X0.1457Y-1.0236
X0.1496Y-1.2421
X0.1496Y-2.3268
X0.1535Y-1.685
X0.1575Y-0.2047
X0.1673Y-1.4626
X0.2126Y-1.2421
X0.2126Y-2.3268
X0.2598Y-0.2047
X0.2835Y-1.5197
X0.2844Y-1.3415
X0.3185Y-1.7793
X0.3465Y-1.3425
X0.378Y-1.7205
X0.3819Y-2.0236
X0.3839Y-1.498
X0.3937Y-1.1811
X0.3976Y-1.5669
X0.4134Y-1.2638
X0.4843Y-1.2375
X0.4862Y-2.0335
X0.5236Y-1.4252
X0.5237Y-1.366
X0.5315Y-1.1929
X0.5354Y-2.0591
X0.5472Y-1.4882
X0.563Y-1.3169
X0.5906Y-0.9843
X0.5925Y-1.3347
X0.5984Y-2.0551
X0.626Y-1.5433
X0.6339Y-1.0276
X0.6388Y-1.2923
X0.6457Y-1.3976
X0.6673Y-1.2205
X0.685Y-2.3583
X0.685Y-2.4173
X0.6909Y-1.4331
X0.6929Y-1.5236
X0.7047Y-1.622
X0.7087Y-2.6417
X0.7274Y-1.3809
X0.7283Y-2.3583
X0.7283Y-2.4173
X0.7756Y-2.1299
X0.7756Y-2.1732
X0.7777Y-1.3131
X0.7835Y-1.3583
X0.7913Y-1.7362
X0.8071Y-1.2913
X0.8091Y-1.4429
X0.815Y-1.9094
X0.8228Y-1.126
X0.878Y-0.9449
X0.9016Y-1.8504
X0.9291Y-1.0197
X0.9488Y-1.8622
X0.9783Y-2.1732
X1.0276Y-1.8583
X1.0472Y-1.2165
X1.0787Y-1.6772
X1.0906Y-1.2598
X1.1102Y-1.8661
T2
X-0.1102Y-0.2598
X-0.1102Y-0.2953
X-0.1102Y-0.3307
X-0.1102Y-0.3661
X-0.1102Y-0.4016
X-0.0748Y-0.2598
X-0.0748Y-0.2953
X-0.0748Y-0.3307
X-0.0748Y-0.3661
X-0.0748Y-0.4016
X-0.0591Y-0.6142
X-0.0591Y-0.689
X0.0157Y-0.689
X0.0886Y-0.4587
X0.0886Y-0.4961
X0.0886Y-0.5335
X0.124Y-0.4587
X0.124Y-0.4961
X0.124Y-0.5335
X0.1496Y-1.8484
X0.1772Y-0.4961
X0.2126Y-0.689
X0.2362Y-1.8583
X0.2736Y-1.9173
X0.2736Y-1.9902
X0.2835Y-1.8622
X0.2874Y-0.2559
X0.2874Y-0.2913
X0.2874Y-0.3268
X0.2874Y-0.3622
X0.2874Y-0.3976
X0.2874Y-0.5748
X0.2874Y-0.6496
X0.2874Y-0.7362
X0.2874Y-0.8043
X0.2874Y-0.8819
X0.3051Y-0.4567
X0.3228Y-0.2559
X0.3228Y-0.2913
X0.3228Y-0.3268
X0.3228Y-0.3622
X0.3228Y-0.3976
X0.3346Y-0.6102
X0.3346Y-0.6929
X0.3346Y-0.7677
X0.3346Y-0.8425
X0.3346Y-0.9272
X0.376Y-0.315
X0.376Y-0.4134
X0.7047Y-0.5315
X0.7598Y-0.5295
T3
X-0.0945Y0.0
X-0.0945Y-2.5197
X-0.0668Y0.0668
X-0.0668Y-0.0668
X-0.0668Y-2.4529
X-0.0668Y-2.5865
X0.0Y0.0945
X0.0Y-0.0945
X0.0Y-2.4252
X0.0Y-2.6142
X0.0668Y0.0668
X0.0668Y-0.0668
X0.0668Y-2.4529
X0.0668Y-2.5865
X0.0945Y0.0
X0.0945Y-2.5197
X1.3228Y0.0
X1.3228Y-2.5197
X1.3505Y0.0668
X1.3505Y-0.0668
X1.3505Y-2.4529
X1.3505Y-2.5865
X1.4173Y0.0945
X1.4173Y-0.0945
X1.4173Y-2.4252
X1.4173Y-2.6142
X1.4841Y0.0668
X1.4841Y-0.0668
X1.4841Y-2.4529
X1.4841Y-2.5865
X1.5118Y0.0
X1.5118Y-2.5197
T5
X0.5087Y-0.7937
X0.5087Y-0.8937
X0.6087Y-0.7937
X0.6087Y-0.8937
X0.7087Y-0.7937
X0.7087Y-0.8937
X0.8087Y-0.7937
X0.8087Y-0.8937
X1.2075Y-0.6035
X1.2075Y-0.7126
X1.2075Y-0.8217
X1.2075Y-0.9307
X1.2075Y-1.0398
X1.2075Y-1.1488
X1.2075Y-1.2579
X1.2075Y-1.3669
X1.2075Y-1.476
X1.2075Y-1.585
X1.2075Y-1.6941
X1.2075Y-1.8031
X1.2075Y-1.9122
X1.3193Y-0.6581
X1.3193Y-0.7671
X1.3193Y-0.8762
X1.3193Y-0.9852
X1.3193Y-1.0943
X1.3193Y-1.2033
X1.3193Y-1.3124
X1.3193Y-1.4215
X1.3193Y-1.5305
X1.3193Y-1.6396
X1.3193Y-1.7486
X1.3193Y-1.8577
T6
X0.0Y0.0
X0.0Y-2.5197
X1.2634Y-0.3307
X1.2634Y-2.185
X1.4173Y0.0
X1.4173Y-2.5197
T4
G00X-0.1161Y-0.8409
M15
G01X-0.1398Y-0.8409
M16
G05
G00X-0.1161Y-1.1811
M15
G01X-0.1398Y-1.1811
M16
G05
G00X-0.1161Y-1.9283
M15
G01X-0.1398Y-1.9283
M16
G05
G00X-0.1161Y-2.2685
M15
G01X-0.1398Y-2.2685
M16
G05
G00X0.0583Y-0.8409
M15
G01X0.015Y-0.8409
M16
G05
G00X0.0583Y-1.1811
M15
G01X0.015Y-1.1811
M16
G05
G00X0.0583Y-1.9283
M15
G01X0.015Y-1.9283
M16
G05
G00X0.0583Y-2.2685
M15
G01X0.015Y-2.2685
M16
G05
T0
M30
