%TF.GenerationSoftware,KiCad,Pcbnew,(6.0.9)*%
%TF.CreationDate,2022-12-11T23:18:13+10:00*%
%TF.ProjectId,OpenRetroPad,4f70656e-5265-4747-926f-5061642e6b69,rev?*%
%TF.SameCoordinates,Original*%
%TF.FileFunction,Copper,L2,Inr*%
%TF.FilePolarity,Positive*%
%FSLAX46Y46*%
G04 Gerber Fmt 4.6, Leading zero omitted, Abs format (unit mm)*
G04 Created by KiCad (PCBNEW (6.0.9)) date 2022-12-11 23:18:13*
%MOMM*%
%LPD*%
G01*
G04 APERTURE LIST*
%TA.AperFunction,ComponentPad*%
%ADD10C,4.000000*%
%TD*%
%TA.AperFunction,ComponentPad*%
%ADD11R,1.600000X1.600000*%
%TD*%
%TA.AperFunction,ComponentPad*%
%ADD12C,1.600000*%
%TD*%
%TA.AperFunction,ComponentPad*%
%ADD13C,0.800000*%
%TD*%
%TA.AperFunction,ComponentPad*%
%ADD14C,6.400000*%
%TD*%
%TA.AperFunction,ComponentPad*%
%ADD15O,1.600000X1.000000*%
%TD*%
%TA.AperFunction,ComponentPad*%
%ADD16O,2.100000X1.000000*%
%TD*%
%TA.AperFunction,ComponentPad*%
%ADD17R,1.700000X1.700000*%
%TD*%
%TA.AperFunction,ComponentPad*%
%ADD18O,1.700000X1.700000*%
%TD*%
%TA.AperFunction,ViaPad*%
%ADD19C,0.800000*%
%TD*%
%TA.AperFunction,ViaPad*%
%ADD20C,0.600000*%
%TD*%
G04 APERTURE END LIST*
D10*
%TO.N,GND*%
%TO.C,J4*%
X32089669Y-55500000D03*
X32089669Y-8400000D03*
D11*
%TO.N,/DB25/TX*%
X30669669Y-48570000D03*
D12*
%TO.N,/DB25/PD1*%
X30669669Y-45800000D03*
%TO.N,/DB25/PD0*%
X30669669Y-43030000D03*
%TO.N,/DB25/PD4*%
X30669669Y-40260000D03*
%TO.N,/DB25/PC6*%
X30669669Y-37490000D03*
%TO.N,/DB25/PD7*%
X30669669Y-34720000D03*
%TO.N,/DB25/CE*%
X30669669Y-31950000D03*
%TO.N,/DB25/PB4*%
X30669669Y-29180000D03*
%TO.N,/DB25/PB5*%
X30669669Y-26410000D03*
%TO.N,/DB25/PB6*%
X30669669Y-23640000D03*
%TO.N,/DB25/RX*%
X30669669Y-20870000D03*
%TO.N,unconnected-(J4-Pad12)*%
X30669669Y-18100000D03*
%TO.N,unconnected-(J4-Pad13)*%
X30669669Y-15330000D03*
%TO.N,/DB25/MISO*%
X33509669Y-47185000D03*
%TO.N,/DB25/SCK*%
X33509669Y-44415000D03*
%TO.N,/DB25/MOSI*%
X33509669Y-41645000D03*
%TO.N,unconnected-(J4-Pad17)*%
X33509669Y-38875000D03*
%TO.N,/DB25/PF7*%
X33509669Y-36105000D03*
%TO.N,/DB25/PF6*%
X33509669Y-33335000D03*
%TO.N,/DB25/PF5*%
X33509669Y-30565000D03*
%TO.N,/DB25/PF4*%
X33509669Y-27795000D03*
%TO.N,unconnected-(J4-Pad22)*%
X33509669Y-25025000D03*
%TO.N,/DB25/3V3F*%
X33509669Y-22255000D03*
%TO.N,/DB25/5VF*%
X33509669Y-19485000D03*
%TO.N,GND*%
X33509669Y-16715000D03*
%TD*%
D13*
%TO.N,unconnected-(H1-Pad1)*%
%TO.C,H1*%
X1697056Y1697056D03*
X-1697056Y1697056D03*
X1697056Y-1697056D03*
X0Y2400000D03*
X2400000Y0D03*
X-2400000Y0D03*
D14*
X0Y0D03*
D13*
X0Y-2400000D03*
X-1697056Y-1697056D03*
%TD*%
D15*
%TO.N,GND*%
%TO.C,J1*%
X-3250000Y-30000000D03*
D16*
X930000Y-30000000D03*
X930000Y-21360000D03*
D15*
X-3250000Y-21360000D03*
%TD*%
D13*
%TO.N,unconnected-(H4-Pad1)*%
%TO.C,H4*%
X36000000Y-66400000D03*
D14*
X36000000Y-64000000D03*
D13*
X37697056Y-62302944D03*
X38400000Y-64000000D03*
X33600000Y-64000000D03*
X34302944Y-65697056D03*
X34302944Y-62302944D03*
X36000000Y-61600000D03*
X37697056Y-65697056D03*
%TD*%
D15*
%TO.N,GND*%
%TO.C,J2*%
X-3250000Y-48980000D03*
D16*
X930000Y-57620000D03*
X930000Y-48980000D03*
D15*
X-3250000Y-57620000D03*
%TD*%
D13*
%TO.N,unconnected-(H3-Pad1)*%
%TO.C,H3*%
X34302944Y1697056D03*
X36000000Y2400000D03*
X33600000Y0D03*
X37697056Y1697056D03*
D14*
X36000000Y0D03*
D13*
X36000000Y-2400000D03*
X37697056Y-1697056D03*
X38400000Y0D03*
X34302944Y-1697056D03*
%TD*%
%TO.N,unconnected-(H2-Pad1)*%
%TO.C,H2*%
X2400000Y-64000000D03*
X-1697056Y-65697056D03*
X1697056Y-65697056D03*
X1697056Y-62302944D03*
X0Y-66400000D03*
X0Y-61600000D03*
X-2400000Y-64000000D03*
X-1697056Y-62302944D03*
D14*
X0Y-64000000D03*
%TD*%
D17*
%TO.N,GND*%
%TO.C,J3*%
X12920000Y-22700000D03*
D18*
%TO.N,+3V3*%
X12920000Y-20160000D03*
%TO.N,/DB25/CE*%
X15460000Y-22700000D03*
%TO.N,/DB25/CSN*%
X15460000Y-20160000D03*
%TO.N,/DB25/SCK*%
X18000000Y-22700000D03*
%TO.N,/DB25/MOSI*%
X18000000Y-20160000D03*
%TO.N,/DB25/MISO*%
X20540000Y-22700000D03*
%TO.N,/DB25/IRQ*%
X20540000Y-20160000D03*
%TD*%
D19*
%TO.N,GND*%
X24850000Y-55200000D03*
D20*
X20900000Y-28600000D03*
X6500000Y-57100000D03*
X9500000Y-28700000D03*
X4100000Y-5200000D03*
X13600000Y-52300000D03*
X-1300000Y-5100000D03*
X26600000Y-30900000D03*
X9700000Y-51400000D03*
X27750000Y-42600000D03*
X13900000Y-37800000D03*
X3800000Y-37300000D03*
X15000000Y-25000000D03*
X20200000Y-43900000D03*
X6000000Y-36100000D03*
X18000000Y-67100000D03*
X1500000Y-5200000D03*
X-3700000Y-40300000D03*
X3500000Y-53400000D03*
X22150000Y-46300000D03*
X24200000Y-26100000D03*
X6500000Y-29500000D03*
X8088733Y-45194455D03*
X3600000Y-26000000D03*
D19*
%TO.N,+5V*%
X7300000Y-23300000D03*
D20*
X12300000Y-51900000D03*
X16100000Y-26100000D03*
D19*
X5600000Y-48600000D03*
D20*
X14400000Y-33500000D03*
D19*
X7300000Y-22300000D03*
X5650000Y-46900000D03*
D20*
X300000Y-36600000D03*
X23100000Y-25100000D03*
X4500000Y-42800000D03*
X19500000Y-55200000D03*
X8800000Y-34100000D03*
X26500000Y-43700000D03*
X27700000Y-32000000D03*
D19*
X19300000Y-13450000D03*
%TO.N,+3V3*%
X2250000Y-13550000D03*
X-1900000Y-10200000D03*
X8200000Y-7400000D03*
X8200000Y-9200000D03*
X7300000Y-6500000D03*
X-2800000Y-7500000D03*
X-1900000Y-8400000D03*
X7300000Y-9200000D03*
X8200000Y-6500000D03*
X7300000Y-7400000D03*
X-2800000Y-10200000D03*
X3150000Y-11650000D03*
X-1900000Y-7500000D03*
X-1900000Y-9300000D03*
X3150000Y-13550000D03*
X-2800000Y-9300000D03*
X-1900000Y-6600000D03*
X-2800000Y-6600000D03*
X7300000Y-8300000D03*
X2250000Y-12600000D03*
X8200000Y-8300000D03*
X-2800000Y-8400000D03*
X8200000Y-10100000D03*
X3150000Y-12600000D03*
X2250000Y-11650000D03*
X7300000Y-10100000D03*
D20*
%TO.N,/DB25/RST*%
X7700000Y-38300000D03*
X17400000Y-61450000D03*
X15200000Y-52200000D03*
X10000000Y-38300000D03*
%TO.N,/IO/RX_LED*%
X20700000Y-48500000D03*
X10500000Y-32600000D03*
%TO.N,/DB25/SCK*%
X13500000Y-34800000D03*
%TO.N,/DB25/MOSI*%
X15300000Y-34600000D03*
%TO.N,/DB25/MISO*%
X16100000Y-32300000D03*
X12300000Y-35900000D03*
%TO.N,/DB25/PD7*%
X20400000Y-36650000D03*
%TO.N,/DB25/RX*%
X17600000Y-35300000D03*
%TO.N,/DB25/PD1*%
X17600000Y-38700000D03*
%TO.N,/DB25/PB6*%
X22200000Y-34500000D03*
%TO.N,/DB25/TX*%
X13600000Y-47800000D03*
X19600000Y-50000000D03*
X13600000Y-46500000D03*
%TO.N,/DB25/PD0*%
X17900000Y-41200000D03*
X15900000Y-39200000D03*
%TO.N,/DB25/PD4*%
X18800000Y-36650000D03*
%TO.N,/DB25/PB5*%
X27400000Y-37350000D03*
X24400000Y-39706500D03*
%TO.N,/USB Data/CC1*%
X3100000Y-31500000D03*
X3400000Y-24376500D03*
%TO.N,/USB Program/CC1*%
X3800000Y-59100000D03*
X3500000Y-51996500D03*
%TO.N,/IO/SW_HWB*%
X27800000Y-47400000D03*
X18550000Y-61450000D03*
%TO.N,/DB25/CE*%
X19650000Y-35200000D03*
%TD*%
%TA.AperFunction,Conductor*%
%TO.N,GND*%
G36*
X35986332Y4692400D02*
G01*
X36000000Y4689990D01*
X36013045Y4692290D01*
X36026289Y4692290D01*
X36026289Y4692276D01*
X36037972Y4693042D01*
X36155188Y4687924D01*
X36402564Y4677123D01*
X36415721Y4675972D01*
X36808677Y4624239D01*
X36821685Y4621945D01*
X37208619Y4536164D01*
X37221377Y4532746D01*
X37599386Y4413560D01*
X37611797Y4409042D01*
X37977957Y4257373D01*
X37989928Y4251791D01*
X38341489Y4068780D01*
X38352927Y4062176D01*
X38687190Y3849227D01*
X38698009Y3841652D01*
X39012451Y3600373D01*
X39022555Y3591895D01*
X39314789Y3324112D01*
X39324112Y3314789D01*
X39591895Y3022555D01*
X39600373Y3012451D01*
X39841652Y2698009D01*
X39849227Y2687190D01*
X40062176Y2352927D01*
X40068780Y2341489D01*
X40251791Y1989928D01*
X40257373Y1977957D01*
X40409042Y1611797D01*
X40413560Y1599386D01*
X40532746Y1221377D01*
X40536164Y1208619D01*
X40621945Y821685D01*
X40624239Y808677D01*
X40675972Y415721D01*
X40677123Y402564D01*
X40693042Y37974D01*
X40692276Y26289D01*
X40692290Y26289D01*
X40692290Y13045D01*
X40689990Y0D01*
X40692290Y-13044D01*
X40692400Y-13668D01*
X40694700Y-39958D01*
X40694700Y-63960042D01*
X40692400Y-63986332D01*
X40689990Y-64000000D01*
X40692290Y-64013045D01*
X40692290Y-64026289D01*
X40692276Y-64026289D01*
X40693042Y-64037974D01*
X40677123Y-64402564D01*
X40675972Y-64415721D01*
X40624239Y-64808677D01*
X40621945Y-64821685D01*
X40536164Y-65208619D01*
X40532746Y-65221377D01*
X40413560Y-65599386D01*
X40409042Y-65611797D01*
X40257373Y-65977957D01*
X40251791Y-65989928D01*
X40068780Y-66341489D01*
X40062176Y-66352927D01*
X39849227Y-66687190D01*
X39841652Y-66698009D01*
X39600373Y-67012451D01*
X39591895Y-67022555D01*
X39324112Y-67314789D01*
X39314789Y-67324112D01*
X39022555Y-67591895D01*
X39012451Y-67600373D01*
X38698009Y-67841652D01*
X38687190Y-67849227D01*
X38352927Y-68062176D01*
X38341489Y-68068780D01*
X37989928Y-68251791D01*
X37977957Y-68257373D01*
X37611797Y-68409042D01*
X37599386Y-68413560D01*
X37221377Y-68532746D01*
X37208619Y-68536164D01*
X36821685Y-68621945D01*
X36808677Y-68624239D01*
X36415721Y-68675972D01*
X36402564Y-68677123D01*
X36155188Y-68687924D01*
X36037972Y-68693042D01*
X36026289Y-68692276D01*
X36026289Y-68692290D01*
X36013045Y-68692290D01*
X36000000Y-68689990D01*
X35986956Y-68692290D01*
X35986332Y-68692400D01*
X35960042Y-68694700D01*
X39958Y-68694700D01*
X13668Y-68692400D01*
X13044Y-68692290D01*
X0Y-68689990D01*
X-13045Y-68692290D01*
X-26289Y-68692290D01*
X-26289Y-68692276D01*
X-37972Y-68693042D01*
X-155188Y-68687924D01*
X-402564Y-68677123D01*
X-415721Y-68675972D01*
X-808677Y-68624239D01*
X-821685Y-68621945D01*
X-1208619Y-68536164D01*
X-1221377Y-68532746D01*
X-1599386Y-68413560D01*
X-1611797Y-68409042D01*
X-1977957Y-68257373D01*
X-1989928Y-68251791D01*
X-2341489Y-68068780D01*
X-2352927Y-68062176D01*
X-2687190Y-67849227D01*
X-2698009Y-67841652D01*
X-3012451Y-67600373D01*
X-3022555Y-67591895D01*
X-3314789Y-67324112D01*
X-3324112Y-67314789D01*
X-3591895Y-67022555D01*
X-3600373Y-67012451D01*
X-3841652Y-66698009D01*
X-3849227Y-66687190D01*
X-4062176Y-66352927D01*
X-4068780Y-66341489D01*
X-4251791Y-65989928D01*
X-4257373Y-65977957D01*
X-4409042Y-65611797D01*
X-4413560Y-65599386D01*
X-4532746Y-65221377D01*
X-4536164Y-65208619D01*
X-4621945Y-64821685D01*
X-4624239Y-64808677D01*
X-4675972Y-64415721D01*
X-4677123Y-64402564D01*
X-4693042Y-64037974D01*
X-4692276Y-64026289D01*
X-4692290Y-64026289D01*
X-4692290Y-64013045D01*
X-4689990Y-64000000D01*
X-3510110Y-64000000D01*
X-3490881Y-64366906D01*
X-3433406Y-64729793D01*
X-3338313Y-65084684D01*
X-3206645Y-65427690D01*
X-3204847Y-65431219D01*
X-3204846Y-65431221D01*
X-3115953Y-65605682D01*
X-3039844Y-65755055D01*
X-2839739Y-66063191D01*
X-2608520Y-66348722D01*
X-2348722Y-66608520D01*
X-2063191Y-66839739D01*
X-1755055Y-67039844D01*
X-1427690Y-67206645D01*
X-1423993Y-67208064D01*
X-1133292Y-67319654D01*
X-1084684Y-67338313D01*
X-907238Y-67385860D01*
X-733620Y-67432381D01*
X-733612Y-67432383D01*
X-729793Y-67433406D01*
X-725889Y-67434024D01*
X-725881Y-67434026D01*
X-505479Y-67468933D01*
X-366906Y-67490881D01*
X0Y-67510110D01*
X366906Y-67490881D01*
X505479Y-67468933D01*
X725881Y-67434026D01*
X725889Y-67434024D01*
X729793Y-67433406D01*
X733612Y-67432383D01*
X733620Y-67432381D01*
X907238Y-67385860D01*
X1084684Y-67338313D01*
X1133293Y-67319654D01*
X1423993Y-67208064D01*
X1427690Y-67206645D01*
X1755055Y-67039844D01*
X2063191Y-66839739D01*
X2348722Y-66608520D01*
X2608520Y-66348722D01*
X2839739Y-66063191D01*
X3039844Y-65755055D01*
X3115954Y-65605682D01*
X3204846Y-65431221D01*
X3204847Y-65431219D01*
X3206645Y-65427690D01*
X3338313Y-65084684D01*
X3433406Y-64729793D01*
X3490881Y-64366906D01*
X3510110Y-64000000D01*
X32489890Y-64000000D01*
X32509119Y-64366906D01*
X32566594Y-64729793D01*
X32661687Y-65084684D01*
X32793355Y-65427690D01*
X32795153Y-65431219D01*
X32795154Y-65431221D01*
X32884047Y-65605682D01*
X32960156Y-65755055D01*
X33160261Y-66063191D01*
X33391480Y-66348722D01*
X33651278Y-66608520D01*
X33936809Y-66839739D01*
X34244945Y-67039844D01*
X34572310Y-67206645D01*
X34576007Y-67208064D01*
X34866708Y-67319654D01*
X34915316Y-67338313D01*
X35092762Y-67385860D01*
X35266380Y-67432381D01*
X35266388Y-67432383D01*
X35270207Y-67433406D01*
X35274111Y-67434024D01*
X35274119Y-67434026D01*
X35494521Y-67468933D01*
X35633094Y-67490881D01*
X36000000Y-67510110D01*
X36366906Y-67490881D01*
X36505479Y-67468933D01*
X36725881Y-67434026D01*
X36725889Y-67434024D01*
X36729793Y-67433406D01*
X36733612Y-67432383D01*
X36733620Y-67432381D01*
X36907238Y-67385860D01*
X37084684Y-67338313D01*
X37133293Y-67319654D01*
X37423993Y-67208064D01*
X37427690Y-67206645D01*
X37755055Y-67039844D01*
X38063191Y-66839739D01*
X38348722Y-66608520D01*
X38608520Y-66348722D01*
X38839739Y-66063191D01*
X39039844Y-65755055D01*
X39115954Y-65605682D01*
X39204846Y-65431221D01*
X39204847Y-65431219D01*
X39206645Y-65427690D01*
X39338313Y-65084684D01*
X39433406Y-64729793D01*
X39490881Y-64366906D01*
X39510110Y-64000000D01*
X39490881Y-63633094D01*
X39433406Y-63270207D01*
X39338313Y-62915316D01*
X39206645Y-62572310D01*
X39039844Y-62244945D01*
X38839739Y-61936809D01*
X38692724Y-61755261D01*
X38611011Y-61654354D01*
X38611010Y-61654353D01*
X38608520Y-61651278D01*
X38348722Y-61391480D01*
X38063191Y-61160261D01*
X37755055Y-60960156D01*
X37690596Y-60927312D01*
X37431221Y-60795154D01*
X37431219Y-60795153D01*
X37427690Y-60793355D01*
X37084684Y-60661687D01*
X36907238Y-60614140D01*
X36733620Y-60567619D01*
X36733612Y-60567617D01*
X36729793Y-60566594D01*
X36725889Y-60565976D01*
X36725881Y-60565974D01*
X36505479Y-60531067D01*
X36366906Y-60509119D01*
X36000000Y-60489890D01*
X35633094Y-60509119D01*
X35494521Y-60531067D01*
X35274119Y-60565974D01*
X35274111Y-60565976D01*
X35270207Y-60566594D01*
X35266388Y-60567617D01*
X35266380Y-60567619D01*
X35092762Y-60614140D01*
X34915316Y-60661687D01*
X34572310Y-60793355D01*
X34568781Y-60795153D01*
X34568779Y-60795154D01*
X34309405Y-60927312D01*
X34244945Y-60960156D01*
X33936809Y-61160261D01*
X33651278Y-61391480D01*
X33391480Y-61651278D01*
X33388990Y-61654353D01*
X33388989Y-61654354D01*
X33307276Y-61755261D01*
X33160261Y-61936809D01*
X32960156Y-62244945D01*
X32793355Y-62572310D01*
X32661687Y-62915316D01*
X32566594Y-63270207D01*
X32509119Y-63633094D01*
X32489890Y-64000000D01*
X3510110Y-64000000D01*
X3490881Y-63633094D01*
X3433406Y-63270207D01*
X3338313Y-62915316D01*
X3206645Y-62572310D01*
X3039844Y-62244945D01*
X2839739Y-61936809D01*
X2692724Y-61755261D01*
X2611011Y-61654354D01*
X2611010Y-61654353D01*
X2608520Y-61651278D01*
X2407242Y-61450000D01*
X16789477Y-61450000D01*
X16810280Y-61608015D01*
X16871272Y-61755261D01*
X16968295Y-61881705D01*
X17094738Y-61978728D01*
X17103902Y-61982524D01*
X17103904Y-61982525D01*
X17232815Y-62035922D01*
X17232817Y-62035923D01*
X17241985Y-62039720D01*
X17400000Y-62060523D01*
X17558015Y-62039720D01*
X17567183Y-62035923D01*
X17567185Y-62035922D01*
X17696096Y-61982525D01*
X17696098Y-61982524D01*
X17705262Y-61978728D01*
X17831705Y-61881705D01*
X17854887Y-61851493D01*
X17917062Y-61803786D01*
X17994762Y-61793556D01*
X18067167Y-61823547D01*
X18095112Y-61851492D01*
X18118295Y-61881705D01*
X18244738Y-61978728D01*
X18253902Y-61982524D01*
X18253904Y-61982525D01*
X18382815Y-62035922D01*
X18382817Y-62035923D01*
X18391985Y-62039720D01*
X18550000Y-62060523D01*
X18708015Y-62039720D01*
X18717183Y-62035923D01*
X18717185Y-62035922D01*
X18846096Y-61982525D01*
X18846098Y-61982524D01*
X18855262Y-61978728D01*
X18981705Y-61881705D01*
X19078728Y-61755261D01*
X19139720Y-61608015D01*
X19160523Y-61450000D01*
X19139720Y-61291985D01*
X19085158Y-61160261D01*
X19082525Y-61153905D01*
X19082524Y-61153903D01*
X19078728Y-61144739D01*
X18981705Y-61018295D01*
X18855262Y-60921272D01*
X18846098Y-60917476D01*
X18846096Y-60917475D01*
X18717185Y-60864078D01*
X18717183Y-60864077D01*
X18708015Y-60860280D01*
X18550000Y-60839477D01*
X18391985Y-60860280D01*
X18382818Y-60864077D01*
X18382815Y-60864078D01*
X18253905Y-60917475D01*
X18253903Y-60917476D01*
X18244739Y-60921272D01*
X18118295Y-61018295D01*
X18095113Y-61048507D01*
X18032938Y-61096214D01*
X17955238Y-61106444D01*
X17882833Y-61076453D01*
X17854888Y-61048508D01*
X17831705Y-61018295D01*
X17705262Y-60921272D01*
X17696098Y-60917476D01*
X17696096Y-60917475D01*
X17567185Y-60864078D01*
X17567183Y-60864077D01*
X17558015Y-60860280D01*
X17400000Y-60839477D01*
X17241985Y-60860280D01*
X17232818Y-60864077D01*
X17232815Y-60864078D01*
X17103905Y-60917475D01*
X17103903Y-60917476D01*
X17094739Y-60921272D01*
X16968295Y-61018295D01*
X16871272Y-61144739D01*
X16867476Y-61153903D01*
X16867475Y-61153905D01*
X16864843Y-61160261D01*
X16810280Y-61291985D01*
X16789477Y-61450000D01*
X2407242Y-61450000D01*
X2348722Y-61391480D01*
X2063191Y-61160261D01*
X1755055Y-60960156D01*
X1690596Y-60927312D01*
X1431221Y-60795154D01*
X1431219Y-60795153D01*
X1427690Y-60793355D01*
X1084684Y-60661687D01*
X907238Y-60614140D01*
X733620Y-60567619D01*
X733612Y-60567617D01*
X729793Y-60566594D01*
X725889Y-60565976D01*
X725881Y-60565974D01*
X505479Y-60531067D01*
X366906Y-60509119D01*
X0Y-60489890D01*
X-366906Y-60509119D01*
X-505479Y-60531067D01*
X-725881Y-60565974D01*
X-725889Y-60565976D01*
X-729793Y-60566594D01*
X-733612Y-60567617D01*
X-733620Y-60567619D01*
X-907238Y-60614140D01*
X-1084684Y-60661687D01*
X-1427690Y-60793355D01*
X-1431219Y-60795153D01*
X-1431221Y-60795154D01*
X-1690595Y-60927312D01*
X-1755055Y-60960156D01*
X-2063191Y-61160261D01*
X-2348722Y-61391480D01*
X-2608520Y-61651278D01*
X-2611010Y-61654353D01*
X-2611011Y-61654354D01*
X-2692724Y-61755261D01*
X-2839739Y-61936809D01*
X-3039844Y-62244945D01*
X-3206645Y-62572310D01*
X-3338313Y-62915316D01*
X-3433406Y-63270207D01*
X-3490881Y-63633094D01*
X-3510110Y-64000000D01*
X-4689990Y-64000000D01*
X-4692400Y-63986332D01*
X-4694700Y-63960042D01*
X-4694700Y-59100000D01*
X3189477Y-59100000D01*
X3210280Y-59258015D01*
X3271272Y-59405261D01*
X3368295Y-59531705D01*
X3494738Y-59628728D01*
X3503902Y-59632524D01*
X3503904Y-59632525D01*
X3632815Y-59685922D01*
X3632817Y-59685923D01*
X3641985Y-59689720D01*
X3800000Y-59710523D01*
X3958015Y-59689720D01*
X3967183Y-59685923D01*
X3967185Y-59685922D01*
X4096096Y-59632525D01*
X4096098Y-59632524D01*
X4105262Y-59628728D01*
X4231705Y-59531705D01*
X4328728Y-59405261D01*
X4389720Y-59258015D01*
X4410523Y-59100000D01*
X4389720Y-58941985D01*
X4328728Y-58794739D01*
X4231705Y-58668295D01*
X4105262Y-58571272D01*
X4096098Y-58567476D01*
X4096096Y-58567475D01*
X3967185Y-58514078D01*
X3967183Y-58514077D01*
X3958015Y-58510280D01*
X3800000Y-58489477D01*
X3641985Y-58510280D01*
X3632818Y-58514077D01*
X3632815Y-58514078D01*
X3503905Y-58567475D01*
X3503903Y-58567476D01*
X3494739Y-58571272D01*
X3368295Y-58668295D01*
X3271272Y-58794739D01*
X3210280Y-58941985D01*
X3189477Y-59100000D01*
X-4694700Y-59100000D01*
X-4694700Y-57830768D01*
X-4327716Y-57830768D01*
X-4327018Y-57834981D01*
X-4285540Y-57956823D01*
X-4278377Y-57972044D01*
X-4192638Y-58111411D01*
X-4182282Y-58124666D01*
X-4067797Y-58241574D01*
X-4054763Y-58252205D01*
X-3917217Y-58340847D01*
X-3902157Y-58348323D01*
X-3748395Y-58404288D01*
X-3732039Y-58408244D01*
X-3605708Y-58424204D01*
X-3596233Y-58424800D01*
X-3473133Y-58424800D01*
X-3457412Y-58420588D01*
X-3453200Y-58404867D01*
X-3046800Y-58404867D01*
X-3042588Y-58420588D01*
X-3026867Y-58424800D01*
X-2908840Y-58424800D01*
X-2900388Y-58424327D01*
X-2778981Y-58410709D01*
X-2762580Y-58406984D01*
X-2608047Y-58353170D01*
X-2592880Y-58345902D01*
X-2454113Y-58259191D01*
X-2440935Y-58248746D01*
X-2324824Y-58133443D01*
X-2314285Y-58120334D01*
X-2226610Y-57982181D01*
X-2219234Y-57967058D01*
X-2174694Y-57841977D01*
X-2173792Y-57830768D01*
X-397716Y-57830768D01*
X-397018Y-57834981D01*
X-355540Y-57956823D01*
X-348377Y-57972044D01*
X-262638Y-58111411D01*
X-252282Y-58124666D01*
X-137797Y-58241574D01*
X-124763Y-58252205D01*
X12783Y-58340847D01*
X27843Y-58348323D01*
X181605Y-58404288D01*
X197961Y-58408244D01*
X324292Y-58424204D01*
X333767Y-58424800D01*
X706867Y-58424800D01*
X722588Y-58420588D01*
X726800Y-58404867D01*
X1133200Y-58404867D01*
X1137412Y-58420588D01*
X1153133Y-58424800D01*
X1521160Y-58424800D01*
X1529612Y-58424327D01*
X1651019Y-58410709D01*
X1667420Y-58406984D01*
X1821953Y-58353170D01*
X1837120Y-58345902D01*
X1975887Y-58259191D01*
X1989065Y-58248746D01*
X2105176Y-58133443D01*
X2115715Y-58120334D01*
X2203390Y-57982181D01*
X2210766Y-57967058D01*
X2255306Y-57841977D01*
X2256611Y-57825756D01*
X2254208Y-57824098D01*
X2249009Y-57823200D01*
X1153133Y-57823200D01*
X1137412Y-57827412D01*
X1133200Y-57843133D01*
X1133200Y-58404867D01*
X726800Y-58404867D01*
X726800Y-57843133D01*
X722588Y-57827412D01*
X706867Y-57823200D01*
X-381096Y-57823200D01*
X-396817Y-57827412D01*
X-397716Y-57830768D01*
X-2173792Y-57830768D01*
X-2173389Y-57825756D01*
X-2175792Y-57824098D01*
X-2180991Y-57823200D01*
X-3026867Y-57823200D01*
X-3042588Y-57827412D01*
X-3046800Y-57843133D01*
X-3046800Y-58404867D01*
X-3453200Y-58404867D01*
X-3453200Y-57843133D01*
X-3457412Y-57827412D01*
X-3473133Y-57823200D01*
X-4311096Y-57823200D01*
X-4326817Y-57827412D01*
X-4327716Y-57830768D01*
X-4694700Y-57830768D01*
X-4694700Y-57414244D01*
X-4326611Y-57414244D01*
X-4324208Y-57415902D01*
X-4319009Y-57416800D01*
X-3473133Y-57416800D01*
X-3457412Y-57412588D01*
X-3453200Y-57396867D01*
X-3046800Y-57396867D01*
X-3042588Y-57412588D01*
X-3026867Y-57416800D01*
X-2188904Y-57416800D01*
X-2179364Y-57414244D01*
X-396611Y-57414244D01*
X-394208Y-57415902D01*
X-389009Y-57416800D01*
X706867Y-57416800D01*
X722588Y-57412588D01*
X726800Y-57396867D01*
X1133200Y-57396867D01*
X1137412Y-57412588D01*
X1153133Y-57416800D01*
X2241096Y-57416800D01*
X2256817Y-57412588D01*
X2257716Y-57409232D01*
X2257018Y-57405019D01*
X2215540Y-57283177D01*
X2208377Y-57267956D01*
X2208098Y-57267503D01*
X30615492Y-57267503D01*
X30621602Y-57278086D01*
X30679859Y-57329177D01*
X30687712Y-57335201D01*
X30930674Y-57497544D01*
X30939237Y-57502488D01*
X31201321Y-57631733D01*
X31210466Y-57635521D01*
X31487174Y-57729450D01*
X31496717Y-57732007D01*
X31783324Y-57789018D01*
X31793135Y-57790309D01*
X32084726Y-57809421D01*
X32094612Y-57809421D01*
X32386203Y-57790309D01*
X32396014Y-57789018D01*
X32682621Y-57732007D01*
X32692164Y-57729450D01*
X32968872Y-57635521D01*
X32978017Y-57631733D01*
X33240101Y-57502488D01*
X33248664Y-57497544D01*
X33491626Y-57335201D01*
X33499479Y-57329177D01*
X33554818Y-57280645D01*
X33563860Y-57267113D01*
X33558456Y-57256155D01*
X32103765Y-55801464D01*
X32089669Y-55793326D01*
X32075573Y-55801464D01*
X30623630Y-57253407D01*
X30615492Y-57267503D01*
X2208098Y-57267503D01*
X2122638Y-57128589D01*
X2112282Y-57115334D01*
X1997797Y-56998426D01*
X1984763Y-56987795D01*
X1847217Y-56899153D01*
X1832157Y-56891677D01*
X1678395Y-56835712D01*
X1662039Y-56831756D01*
X1535708Y-56815796D01*
X1526233Y-56815200D01*
X1153133Y-56815200D01*
X1137412Y-56819412D01*
X1133200Y-56835133D01*
X1133200Y-57396867D01*
X726800Y-57396867D01*
X726800Y-56815200D01*
X730524Y-56815200D01*
X730525Y-56770655D01*
X769712Y-56702785D01*
X787766Y-56687365D01*
X834900Y-56653121D01*
X936410Y-56530416D01*
X1004216Y-56386322D01*
X1020772Y-56299533D01*
X1032271Y-56239249D01*
X1032271Y-56239248D01*
X1034056Y-56229891D01*
X1024057Y-56070955D01*
X974846Y-55919498D01*
X925822Y-55842248D01*
X894619Y-55793080D01*
X894617Y-55793078D01*
X889515Y-55785038D01*
X877336Y-55773601D01*
X780371Y-55682544D01*
X780367Y-55682541D01*
X773426Y-55676023D01*
X765079Y-55671434D01*
X765076Y-55671432D01*
X642217Y-55603891D01*
X642216Y-55603891D01*
X633873Y-55599304D01*
X479625Y-55559700D01*
X360341Y-55559700D01*
X355626Y-55560296D01*
X355620Y-55560296D01*
X261237Y-55572219D01*
X242005Y-55574649D01*
X93937Y-55633274D01*
X86235Y-55638870D01*
X86231Y-55638872D01*
X26122Y-55682544D01*
X-34900Y-55726879D01*
X-136410Y-55849584D01*
X-204216Y-55993678D01*
X-206001Y-56003036D01*
X-206002Y-56003039D01*
X-232271Y-56140751D01*
X-234056Y-56150109D01*
X-224057Y-56309045D01*
X-174846Y-56460502D01*
X-89515Y-56594962D01*
X-82575Y-56601479D01*
X-82571Y-56601484D01*
X3350Y-56682169D01*
X44648Y-56748776D01*
X47110Y-56827107D01*
X10076Y-56896175D01*
X-20060Y-56920929D01*
X-115887Y-56980809D01*
X-129065Y-56991254D01*
X-245176Y-57106557D01*
X-255715Y-57119666D01*
X-343390Y-57257819D01*
X-350766Y-57272942D01*
X-395306Y-57398023D01*
X-396611Y-57414244D01*
X-2179364Y-57414244D01*
X-2173183Y-57412588D01*
X-2172284Y-57409232D01*
X-2172982Y-57405019D01*
X-2214460Y-57283177D01*
X-2221623Y-57267956D01*
X-2307362Y-57128589D01*
X-2317718Y-57115334D01*
X-2432203Y-56998426D01*
X-2445237Y-56987795D01*
X-2582783Y-56899153D01*
X-2597843Y-56891677D01*
X-2751605Y-56835712D01*
X-2767961Y-56831756D01*
X-2894292Y-56815796D01*
X-2903767Y-56815200D01*
X-3026867Y-56815200D01*
X-3042588Y-56819412D01*
X-3046800Y-56835133D01*
X-3046800Y-57396867D01*
X-3453200Y-57396867D01*
X-3453200Y-56835133D01*
X-3457412Y-56819412D01*
X-3473133Y-56815200D01*
X-3591160Y-56815200D01*
X-3599612Y-56815673D01*
X-3721019Y-56829291D01*
X-3737420Y-56833016D01*
X-3891953Y-56886830D01*
X-3907120Y-56894098D01*
X-4045887Y-56980809D01*
X-4059065Y-56991254D01*
X-4175176Y-57106557D01*
X-4185715Y-57119666D01*
X-4273390Y-57257819D01*
X-4280766Y-57272942D01*
X-4325306Y-57398023D01*
X-4326611Y-57414244D01*
X-4694700Y-57414244D01*
X-4694700Y-55200000D01*
X18889477Y-55200000D01*
X18910280Y-55358015D01*
X18971272Y-55505261D01*
X19068295Y-55631705D01*
X19194738Y-55728728D01*
X19203902Y-55732524D01*
X19203904Y-55732525D01*
X19332815Y-55785922D01*
X19332817Y-55785923D01*
X19341985Y-55789720D01*
X19500000Y-55810523D01*
X19658015Y-55789720D01*
X19667183Y-55785923D01*
X19667185Y-55785922D01*
X19796096Y-55732525D01*
X19796098Y-55732524D01*
X19805262Y-55728728D01*
X19931705Y-55631705D01*
X20028728Y-55505261D01*
X20028860Y-55504943D01*
X29780248Y-55504943D01*
X29799360Y-55796534D01*
X29800651Y-55806345D01*
X29857662Y-56092952D01*
X29860219Y-56102495D01*
X29954148Y-56379203D01*
X29957936Y-56388348D01*
X30087179Y-56650427D01*
X30092124Y-56658992D01*
X30254472Y-56901964D01*
X30260491Y-56909808D01*
X30309024Y-56965149D01*
X30322556Y-56974191D01*
X30333514Y-56968787D01*
X31788205Y-55514096D01*
X31796343Y-55500000D01*
X32382995Y-55500000D01*
X32391133Y-55514096D01*
X33843076Y-56966039D01*
X33857172Y-56974177D01*
X33867755Y-56968067D01*
X33918847Y-56909808D01*
X33924866Y-56901964D01*
X34087214Y-56658992D01*
X34092159Y-56650427D01*
X34221402Y-56388348D01*
X34225190Y-56379203D01*
X34319119Y-56102495D01*
X34321676Y-56092952D01*
X34378687Y-55806345D01*
X34379978Y-55796534D01*
X34399090Y-55504943D01*
X34399090Y-55495057D01*
X34379978Y-55203466D01*
X34378687Y-55193655D01*
X34321676Y-54907048D01*
X34319119Y-54897505D01*
X34225190Y-54620797D01*
X34221402Y-54611652D01*
X34092159Y-54349573D01*
X34087214Y-54341008D01*
X33924866Y-54098036D01*
X33918847Y-54090192D01*
X33870314Y-54034851D01*
X33856782Y-54025809D01*
X33845824Y-54031213D01*
X32391133Y-55485904D01*
X32382995Y-55500000D01*
X31796343Y-55500000D01*
X31788205Y-55485904D01*
X30336262Y-54033961D01*
X30322166Y-54025823D01*
X30311583Y-54031933D01*
X30260491Y-54090192D01*
X30254472Y-54098036D01*
X30092124Y-54341008D01*
X30087179Y-54349573D01*
X29957936Y-54611652D01*
X29954148Y-54620797D01*
X29860219Y-54897505D01*
X29857662Y-54907048D01*
X29800651Y-55193655D01*
X29799360Y-55203466D01*
X29780248Y-55495057D01*
X29780248Y-55504943D01*
X20028860Y-55504943D01*
X20089720Y-55358015D01*
X20110523Y-55200000D01*
X20089720Y-55041985D01*
X20028728Y-54894739D01*
X19931705Y-54768295D01*
X19805262Y-54671272D01*
X19796098Y-54667476D01*
X19796096Y-54667475D01*
X19667185Y-54614078D01*
X19667183Y-54614077D01*
X19658015Y-54610280D01*
X19500000Y-54589477D01*
X19341985Y-54610280D01*
X19332818Y-54614077D01*
X19332815Y-54614078D01*
X19203905Y-54667475D01*
X19203903Y-54667476D01*
X19194739Y-54671272D01*
X19068295Y-54768295D01*
X18971272Y-54894739D01*
X18910280Y-55041985D01*
X18889477Y-55200000D01*
X-4694700Y-55200000D01*
X-4694700Y-53732887D01*
X30615478Y-53732887D01*
X30620882Y-53743845D01*
X32075573Y-55198536D01*
X32089669Y-55206674D01*
X32103765Y-55198536D01*
X33555708Y-53746593D01*
X33563846Y-53732497D01*
X33557736Y-53721914D01*
X33499479Y-53670823D01*
X33491626Y-53664799D01*
X33248664Y-53502456D01*
X33240101Y-53497512D01*
X32978017Y-53368267D01*
X32968872Y-53364479D01*
X32692164Y-53270550D01*
X32682621Y-53267993D01*
X32396014Y-53210982D01*
X32386203Y-53209691D01*
X32094612Y-53190579D01*
X32084726Y-53190579D01*
X31793135Y-53209691D01*
X31783324Y-53210982D01*
X31496717Y-53267993D01*
X31487174Y-53270550D01*
X31210466Y-53364479D01*
X31201321Y-53368267D01*
X30939242Y-53497510D01*
X30930677Y-53502455D01*
X30687705Y-53664803D01*
X30679861Y-53670822D01*
X30624520Y-53719355D01*
X30615478Y-53732887D01*
X-4694700Y-53732887D01*
X-4694700Y-51996500D01*
X2889477Y-51996500D01*
X2910280Y-52154515D01*
X2914077Y-52163682D01*
X2914078Y-52163685D01*
X2931300Y-52205261D01*
X2971272Y-52301761D01*
X3068295Y-52428205D01*
X3194738Y-52525228D01*
X3203902Y-52529024D01*
X3203904Y-52529025D01*
X3332815Y-52582422D01*
X3332817Y-52582423D01*
X3341985Y-52586220D01*
X3500000Y-52607023D01*
X3658015Y-52586220D01*
X3667183Y-52582423D01*
X3667185Y-52582422D01*
X3796096Y-52529025D01*
X3796098Y-52529024D01*
X3805262Y-52525228D01*
X3931705Y-52428205D01*
X4028728Y-52301761D01*
X4068700Y-52205261D01*
X4085922Y-52163685D01*
X4085923Y-52163682D01*
X4089720Y-52154515D01*
X4110523Y-51996500D01*
X4097819Y-51900000D01*
X11689477Y-51900000D01*
X11710280Y-52058015D01*
X11714077Y-52067182D01*
X11714078Y-52067185D01*
X11750252Y-52154515D01*
X11771272Y-52205261D01*
X11868295Y-52331705D01*
X11994738Y-52428728D01*
X12003902Y-52432524D01*
X12003904Y-52432525D01*
X12132815Y-52485922D01*
X12132817Y-52485923D01*
X12141985Y-52489720D01*
X12300000Y-52510523D01*
X12458015Y-52489720D01*
X12467183Y-52485923D01*
X12467185Y-52485922D01*
X12596096Y-52432525D01*
X12596098Y-52432524D01*
X12605262Y-52428728D01*
X12731705Y-52331705D01*
X12828728Y-52205261D01*
X12830907Y-52200000D01*
X14589477Y-52200000D01*
X14610280Y-52358015D01*
X14614077Y-52367182D01*
X14614078Y-52367185D01*
X14665371Y-52491015D01*
X14671272Y-52505261D01*
X14768295Y-52631705D01*
X14894738Y-52728728D01*
X14903902Y-52732524D01*
X14903904Y-52732525D01*
X15032815Y-52785922D01*
X15032817Y-52785923D01*
X15041985Y-52789720D01*
X15200000Y-52810523D01*
X15358015Y-52789720D01*
X15367183Y-52785923D01*
X15367185Y-52785922D01*
X15496096Y-52732525D01*
X15496098Y-52732524D01*
X15505262Y-52728728D01*
X15631705Y-52631705D01*
X15728728Y-52505261D01*
X15734629Y-52491015D01*
X15785922Y-52367185D01*
X15785923Y-52367182D01*
X15789720Y-52358015D01*
X15810523Y-52200000D01*
X15789720Y-52041985D01*
X15770880Y-51996500D01*
X15732525Y-51903905D01*
X15732524Y-51903903D01*
X15728728Y-51894739D01*
X15631705Y-51768295D01*
X15505262Y-51671272D01*
X15496098Y-51667476D01*
X15496096Y-51667475D01*
X15367185Y-51614078D01*
X15367183Y-51614077D01*
X15358015Y-51610280D01*
X15200000Y-51589477D01*
X15041985Y-51610280D01*
X15032818Y-51614077D01*
X15032815Y-51614078D01*
X14903905Y-51667475D01*
X14903903Y-51667476D01*
X14894739Y-51671272D01*
X14768295Y-51768295D01*
X14671272Y-51894739D01*
X14667476Y-51903903D01*
X14667475Y-51903905D01*
X14629121Y-51996500D01*
X14610280Y-52041985D01*
X14589477Y-52200000D01*
X12830907Y-52200000D01*
X12849748Y-52154515D01*
X12885922Y-52067185D01*
X12885923Y-52067182D01*
X12889720Y-52058015D01*
X12910523Y-51900000D01*
X12889720Y-51741985D01*
X12862932Y-51677312D01*
X12832525Y-51603905D01*
X12832524Y-51603903D01*
X12828728Y-51594739D01*
X12731705Y-51468295D01*
X12605262Y-51371272D01*
X12596098Y-51367476D01*
X12596096Y-51367475D01*
X12467185Y-51314078D01*
X12467183Y-51314077D01*
X12458015Y-51310280D01*
X12300000Y-51289477D01*
X12141985Y-51310280D01*
X12132818Y-51314077D01*
X12132815Y-51314078D01*
X12003905Y-51367475D01*
X12003903Y-51367476D01*
X11994739Y-51371272D01*
X11868295Y-51468295D01*
X11771272Y-51594739D01*
X11767476Y-51603903D01*
X11767475Y-51603905D01*
X11737069Y-51677312D01*
X11710280Y-51741985D01*
X11689477Y-51900000D01*
X4097819Y-51900000D01*
X4089720Y-51838485D01*
X4058144Y-51762253D01*
X4032525Y-51700405D01*
X4032524Y-51700403D01*
X4028728Y-51691239D01*
X3931705Y-51564795D01*
X3805262Y-51467772D01*
X3796098Y-51463976D01*
X3796096Y-51463975D01*
X3667185Y-51410578D01*
X3667183Y-51410577D01*
X3658015Y-51406780D01*
X3500000Y-51385977D01*
X3341985Y-51406780D01*
X3332818Y-51410577D01*
X3332815Y-51410578D01*
X3203905Y-51463975D01*
X3203903Y-51463976D01*
X3194739Y-51467772D01*
X3068295Y-51564795D01*
X2971272Y-51691239D01*
X2967476Y-51700403D01*
X2967475Y-51700405D01*
X2941857Y-51762253D01*
X2910280Y-51838485D01*
X2889477Y-51996500D01*
X-4694700Y-51996500D01*
X-4694700Y-49190768D01*
X-4327716Y-49190768D01*
X-4327018Y-49194981D01*
X-4285540Y-49316823D01*
X-4278377Y-49332044D01*
X-4192638Y-49471411D01*
X-4182282Y-49484666D01*
X-4067797Y-49601574D01*
X-4054763Y-49612205D01*
X-3917217Y-49700847D01*
X-3902157Y-49708323D01*
X-3748395Y-49764288D01*
X-3732039Y-49768244D01*
X-3605708Y-49784204D01*
X-3596233Y-49784800D01*
X-3473133Y-49784800D01*
X-3457412Y-49780588D01*
X-3453200Y-49764867D01*
X-3046800Y-49764867D01*
X-3042588Y-49780588D01*
X-3026867Y-49784800D01*
X-2908840Y-49784800D01*
X-2900388Y-49784327D01*
X-2778981Y-49770709D01*
X-2762580Y-49766984D01*
X-2608047Y-49713170D01*
X-2592880Y-49705902D01*
X-2454113Y-49619191D01*
X-2440935Y-49608746D01*
X-2324824Y-49493443D01*
X-2314285Y-49480334D01*
X-2226610Y-49342181D01*
X-2219234Y-49327058D01*
X-2174694Y-49201977D01*
X-2173792Y-49190768D01*
X-397716Y-49190768D01*
X-397018Y-49194981D01*
X-355540Y-49316823D01*
X-348377Y-49332044D01*
X-262638Y-49471411D01*
X-252282Y-49484666D01*
X-137797Y-49601574D01*
X-124763Y-49612205D01*
X-18892Y-49680434D01*
X33751Y-49738492D01*
X50312Y-49815092D01*
X26355Y-49889711D01*
X-11917Y-49930181D01*
X-34900Y-49946879D01*
X-136410Y-50069584D01*
X-204216Y-50213678D01*
X-206001Y-50223036D01*
X-206002Y-50223039D01*
X-232271Y-50360751D01*
X-234056Y-50370109D01*
X-224057Y-50529045D01*
X-174846Y-50680502D01*
X-89515Y-50814962D01*
X-82574Y-50821480D01*
X19629Y-50917456D01*
X19633Y-50917459D01*
X26574Y-50923977D01*
X34921Y-50928566D01*
X34924Y-50928568D01*
X157783Y-50996109D01*
X166127Y-51000696D01*
X320375Y-51040300D01*
X439659Y-51040300D01*
X444374Y-51039704D01*
X444380Y-51039704D01*
X548543Y-51026545D01*
X557995Y-51025351D01*
X706063Y-50966726D01*
X713765Y-50961130D01*
X713769Y-50961128D01*
X827192Y-50878721D01*
X834900Y-50873121D01*
X936410Y-50750416D01*
X1004216Y-50606322D01*
X1008108Y-50585922D01*
X1032271Y-50459249D01*
X1032271Y-50459248D01*
X1034056Y-50449891D01*
X1024057Y-50290955D01*
X983842Y-50167185D01*
X977789Y-50148555D01*
X977788Y-50148553D01*
X974846Y-50139498D01*
X889515Y-50005038D01*
X884150Y-50000000D01*
X18989477Y-50000000D01*
X19010280Y-50158015D01*
X19014077Y-50167182D01*
X19014078Y-50167185D01*
X19037214Y-50223039D01*
X19071272Y-50305261D01*
X19168295Y-50431705D01*
X19294738Y-50528728D01*
X19303902Y-50532524D01*
X19303904Y-50532525D01*
X19432815Y-50585922D01*
X19432817Y-50585923D01*
X19441985Y-50589720D01*
X19600000Y-50610523D01*
X19758015Y-50589720D01*
X19767183Y-50585923D01*
X19767185Y-50585922D01*
X19896096Y-50532525D01*
X19896098Y-50532524D01*
X19905262Y-50528728D01*
X20031705Y-50431705D01*
X20128728Y-50305261D01*
X20162786Y-50223039D01*
X20185922Y-50167185D01*
X20185923Y-50167182D01*
X20189720Y-50158015D01*
X20210523Y-50000000D01*
X20189720Y-49841985D01*
X20178581Y-49815092D01*
X20132525Y-49703905D01*
X20132524Y-49703903D01*
X20128728Y-49694739D01*
X20031705Y-49568295D01*
X19905262Y-49471272D01*
X19896098Y-49467476D01*
X19896096Y-49467475D01*
X19770275Y-49415358D01*
X29564369Y-49415358D01*
X29567536Y-49441978D01*
X29580548Y-49471272D01*
X29608030Y-49533144D01*
X29608032Y-49533146D01*
X29613705Y-49545919D01*
X29623596Y-49555793D01*
X29623597Y-49555794D01*
X29636120Y-49568295D01*
X29694197Y-49626270D01*
X29798218Y-49672258D01*
X29809525Y-49673576D01*
X29809528Y-49673577D01*
X29815761Y-49674303D01*
X29824311Y-49675300D01*
X31515027Y-49675300D01*
X31529510Y-49673577D01*
X31530368Y-49673475D01*
X31530369Y-49673475D01*
X31541647Y-49672133D01*
X31589793Y-49650747D01*
X31632813Y-49631639D01*
X31632815Y-49631637D01*
X31645588Y-49625964D01*
X31725939Y-49545472D01*
X31771927Y-49441451D01*
X31774969Y-49415358D01*
X31774969Y-47724642D01*
X31771802Y-47698022D01*
X31742838Y-47632815D01*
X31731308Y-47606856D01*
X31731306Y-47606854D01*
X31725633Y-47594081D01*
X31693339Y-47561843D01*
X31685305Y-47553824D01*
X31645141Y-47513730D01*
X31541120Y-47467742D01*
X31529813Y-47466424D01*
X31529810Y-47466423D01*
X31523577Y-47465697D01*
X31515027Y-47464700D01*
X29824311Y-47464700D01*
X29811958Y-47466170D01*
X29808970Y-47466525D01*
X29808969Y-47466525D01*
X29797691Y-47467867D01*
X29757219Y-47485844D01*
X29706525Y-47508361D01*
X29706523Y-47508363D01*
X29693750Y-47514036D01*
X29613399Y-47594528D01*
X29597751Y-47629923D01*
X29576162Y-47678756D01*
X29567411Y-47698549D01*
X29564369Y-47724642D01*
X29564369Y-49415358D01*
X19770275Y-49415358D01*
X19767185Y-49414078D01*
X19767183Y-49414077D01*
X19758015Y-49410280D01*
X19600000Y-49389477D01*
X19441985Y-49410280D01*
X19432818Y-49414077D01*
X19432815Y-49414078D01*
X19303905Y-49467475D01*
X19303903Y-49467476D01*
X19294739Y-49471272D01*
X19168295Y-49568295D01*
X19071272Y-49694739D01*
X19067476Y-49703903D01*
X19067475Y-49703905D01*
X19021420Y-49815092D01*
X19010280Y-49841985D01*
X18989477Y-50000000D01*
X884150Y-50000000D01*
X774148Y-49896701D01*
X732851Y-49830094D01*
X732135Y-49784800D01*
X726800Y-49784800D01*
X726800Y-49764867D01*
X1133200Y-49764867D01*
X1137412Y-49780588D01*
X1153133Y-49784800D01*
X1521160Y-49784800D01*
X1529612Y-49784327D01*
X1651019Y-49770709D01*
X1667420Y-49766984D01*
X1821953Y-49713170D01*
X1837120Y-49705902D01*
X1975887Y-49619191D01*
X1989065Y-49608746D01*
X2105176Y-49493443D01*
X2115715Y-49480334D01*
X2203390Y-49342181D01*
X2210766Y-49327058D01*
X2255306Y-49201977D01*
X2256611Y-49185756D01*
X2254208Y-49184098D01*
X2249009Y-49183200D01*
X1153133Y-49183200D01*
X1137412Y-49187412D01*
X1133200Y-49203133D01*
X1133200Y-49764867D01*
X726800Y-49764867D01*
X726800Y-49203133D01*
X722588Y-49187412D01*
X706867Y-49183200D01*
X-381096Y-49183200D01*
X-396817Y-49187412D01*
X-397716Y-49190768D01*
X-2173792Y-49190768D01*
X-2173389Y-49185756D01*
X-2175792Y-49184098D01*
X-2180991Y-49183200D01*
X-3026867Y-49183200D01*
X-3042588Y-49187412D01*
X-3046800Y-49203133D01*
X-3046800Y-49764867D01*
X-3453200Y-49764867D01*
X-3453200Y-49203133D01*
X-3457412Y-49187412D01*
X-3473133Y-49183200D01*
X-4311096Y-49183200D01*
X-4326817Y-49187412D01*
X-4327716Y-49190768D01*
X-4694700Y-49190768D01*
X-4694700Y-48774244D01*
X-4326611Y-48774244D01*
X-4324208Y-48775902D01*
X-4319009Y-48776800D01*
X-3473133Y-48776800D01*
X-3457412Y-48772588D01*
X-3453200Y-48756867D01*
X-3046800Y-48756867D01*
X-3042588Y-48772588D01*
X-3026867Y-48776800D01*
X-2188904Y-48776800D01*
X-2179364Y-48774244D01*
X-396611Y-48774244D01*
X-394208Y-48775902D01*
X-389009Y-48776800D01*
X706867Y-48776800D01*
X722588Y-48772588D01*
X726800Y-48756867D01*
X1133200Y-48756867D01*
X1137412Y-48772588D01*
X1153133Y-48776800D01*
X2241096Y-48776800D01*
X2256817Y-48772588D01*
X2257716Y-48769232D01*
X2257018Y-48765019D01*
X2215540Y-48643177D01*
X2208377Y-48627956D01*
X2186601Y-48592560D01*
X4889559Y-48592560D01*
X4908292Y-48762239D01*
X4966958Y-48922551D01*
X4972047Y-48930125D01*
X4972049Y-48930128D01*
X5040857Y-49032525D01*
X5062170Y-49064242D01*
X5068915Y-49070379D01*
X5068918Y-49070383D01*
X5181679Y-49172988D01*
X5181683Y-49172991D01*
X5188432Y-49179132D01*
X5196452Y-49183486D01*
X5196454Y-49183488D01*
X5217622Y-49194981D01*
X5338455Y-49260588D01*
X5347281Y-49262904D01*
X5347285Y-49262905D01*
X5494748Y-49301591D01*
X5494750Y-49301591D01*
X5503577Y-49303907D01*
X5584213Y-49305174D01*
X5665135Y-49306445D01*
X5665138Y-49306445D01*
X5674265Y-49306588D01*
X5683163Y-49304550D01*
X5683164Y-49304550D01*
X5723405Y-49295334D01*
X5840667Y-49268477D01*
X5848822Y-49264375D01*
X5848826Y-49264374D01*
X5985016Y-49195877D01*
X5993174Y-49191774D01*
X6122982Y-49080907D01*
X6128308Y-49073496D01*
X6128310Y-49073493D01*
X6217272Y-48949688D01*
X6222598Y-48942276D01*
X6286271Y-48783886D01*
X6310324Y-48614879D01*
X6310480Y-48600000D01*
X6298378Y-48500000D01*
X20089477Y-48500000D01*
X20110280Y-48658015D01*
X20114077Y-48667182D01*
X20114078Y-48667185D01*
X20159111Y-48775902D01*
X20171272Y-48805261D01*
X20268295Y-48931705D01*
X20394738Y-49028728D01*
X20403902Y-49032524D01*
X20403904Y-49032525D01*
X20532815Y-49085922D01*
X20532817Y-49085923D01*
X20541985Y-49089720D01*
X20700000Y-49110523D01*
X20858015Y-49089720D01*
X20867183Y-49085923D01*
X20867185Y-49085922D01*
X20996096Y-49032525D01*
X20996098Y-49032524D01*
X21005262Y-49028728D01*
X21131705Y-48931705D01*
X21228728Y-48805261D01*
X21240889Y-48775902D01*
X21285922Y-48667185D01*
X21285923Y-48667182D01*
X21289720Y-48658015D01*
X21310523Y-48500000D01*
X21289720Y-48341985D01*
X21285802Y-48332525D01*
X21232525Y-48203905D01*
X21232524Y-48203903D01*
X21228728Y-48194739D01*
X21131705Y-48068295D01*
X21005262Y-47971272D01*
X20996098Y-47967476D01*
X20996096Y-47967475D01*
X20867185Y-47914078D01*
X20867183Y-47914077D01*
X20858015Y-47910280D01*
X20700000Y-47889477D01*
X20541985Y-47910280D01*
X20532818Y-47914077D01*
X20532815Y-47914078D01*
X20403905Y-47967475D01*
X20403903Y-47967476D01*
X20394739Y-47971272D01*
X20268295Y-48068295D01*
X20171272Y-48194739D01*
X20167476Y-48203903D01*
X20167475Y-48203905D01*
X20114199Y-48332525D01*
X20110280Y-48341985D01*
X20089477Y-48500000D01*
X6298378Y-48500000D01*
X6289971Y-48430527D01*
X6237822Y-48292517D01*
X6232857Y-48279376D01*
X6232855Y-48279373D01*
X6229630Y-48270837D01*
X6213131Y-48246830D01*
X6138106Y-48137669D01*
X6132939Y-48130151D01*
X6005481Y-48016590D01*
X5997417Y-48012320D01*
X5997415Y-48012319D01*
X5862682Y-47940982D01*
X5862680Y-47940981D01*
X5854613Y-47936710D01*
X5715035Y-47901650D01*
X5646561Y-47863537D01*
X5621433Y-47821552D01*
X5604097Y-47851946D01*
X5536432Y-47891486D01*
X5522150Y-47894249D01*
X5518339Y-47894229D01*
X5352347Y-47934080D01*
X5200651Y-48012376D01*
X5160205Y-48047659D01*
X5078887Y-48118596D01*
X5078883Y-48118600D01*
X5072010Y-48124596D01*
X4973852Y-48264262D01*
X4911841Y-48423311D01*
X4910651Y-48432352D01*
X4910650Y-48432355D01*
X4900450Y-48509837D01*
X4889559Y-48592560D01*
X2186601Y-48592560D01*
X2122638Y-48488589D01*
X2112282Y-48475334D01*
X1997797Y-48358426D01*
X1984763Y-48347795D01*
X1847217Y-48259153D01*
X1832157Y-48251677D01*
X1678395Y-48195712D01*
X1662039Y-48191756D01*
X1535708Y-48175796D01*
X1526233Y-48175200D01*
X1153133Y-48175200D01*
X1137412Y-48179412D01*
X1133200Y-48195133D01*
X1133200Y-48756867D01*
X726800Y-48756867D01*
X726800Y-48195133D01*
X722588Y-48179412D01*
X706867Y-48175200D01*
X338840Y-48175200D01*
X330388Y-48175673D01*
X208981Y-48189291D01*
X192580Y-48193016D01*
X38047Y-48246830D01*
X22880Y-48254098D01*
X-115887Y-48340809D01*
X-129065Y-48351254D01*
X-245176Y-48466557D01*
X-255715Y-48479666D01*
X-343390Y-48617819D01*
X-350766Y-48632942D01*
X-395306Y-48758023D01*
X-396611Y-48774244D01*
X-2179364Y-48774244D01*
X-2173183Y-48772588D01*
X-2172284Y-48769232D01*
X-2172982Y-48765019D01*
X-2214460Y-48643177D01*
X-2221623Y-48627956D01*
X-2307362Y-48488589D01*
X-2317718Y-48475334D01*
X-2432203Y-48358426D01*
X-2445237Y-48347795D01*
X-2582783Y-48259153D01*
X-2597843Y-48251677D01*
X-2751605Y-48195712D01*
X-2767961Y-48191756D01*
X-2894292Y-48175796D01*
X-2903767Y-48175200D01*
X-3026867Y-48175200D01*
X-3042588Y-48179412D01*
X-3046800Y-48195133D01*
X-3046800Y-48756867D01*
X-3453200Y-48756867D01*
X-3453200Y-48195133D01*
X-3457412Y-48179412D01*
X-3473133Y-48175200D01*
X-3591160Y-48175200D01*
X-3599612Y-48175673D01*
X-3721019Y-48189291D01*
X-3737420Y-48193016D01*
X-3891953Y-48246830D01*
X-3907120Y-48254098D01*
X-4045887Y-48340809D01*
X-4059065Y-48351254D01*
X-4175176Y-48466557D01*
X-4185715Y-48479666D01*
X-4273390Y-48617819D01*
X-4280766Y-48632942D01*
X-4325306Y-48758023D01*
X-4326611Y-48774244D01*
X-4694700Y-48774244D01*
X-4694700Y-47800000D01*
X12989477Y-47800000D01*
X13010280Y-47958015D01*
X13014077Y-47967182D01*
X13014078Y-47967185D01*
X13067475Y-48096095D01*
X13071272Y-48105261D01*
X13168295Y-48231705D01*
X13176169Y-48237747D01*
X13180025Y-48240706D01*
X13294738Y-48328728D01*
X13303902Y-48332524D01*
X13303904Y-48332525D01*
X13432815Y-48385922D01*
X13432817Y-48385923D01*
X13441985Y-48389720D01*
X13600000Y-48410523D01*
X13758015Y-48389720D01*
X13767183Y-48385923D01*
X13767185Y-48385922D01*
X13896096Y-48332525D01*
X13896098Y-48332524D01*
X13905262Y-48328728D01*
X14019975Y-48240706D01*
X14023831Y-48237747D01*
X14031705Y-48231705D01*
X14128728Y-48105261D01*
X14132525Y-48096095D01*
X14185922Y-47967185D01*
X14185923Y-47967182D01*
X14189720Y-47958015D01*
X14210523Y-47800000D01*
X14189720Y-47641985D01*
X14175358Y-47607311D01*
X14132525Y-47503905D01*
X14132524Y-47503903D01*
X14128728Y-47494739D01*
X14056033Y-47400000D01*
X27189477Y-47400000D01*
X27210280Y-47558015D01*
X27214077Y-47567182D01*
X27214078Y-47567185D01*
X27245062Y-47641985D01*
X27271272Y-47705261D01*
X27368295Y-47831705D01*
X27494738Y-47928728D01*
X27503902Y-47932524D01*
X27503904Y-47932525D01*
X27632815Y-47985922D01*
X27632817Y-47985923D01*
X27641985Y-47989720D01*
X27768189Y-48006335D01*
X27782287Y-48008191D01*
X27800000Y-48010523D01*
X27817714Y-48008191D01*
X27831811Y-48006335D01*
X27958015Y-47989720D01*
X27967183Y-47985923D01*
X27967185Y-47985922D01*
X28096096Y-47932525D01*
X28096098Y-47932524D01*
X28105262Y-47928728D01*
X28231705Y-47831705D01*
X28328728Y-47705261D01*
X28354938Y-47641985D01*
X28385922Y-47567185D01*
X28385923Y-47567182D01*
X28389720Y-47558015D01*
X28410523Y-47400000D01*
X28389720Y-47241985D01*
X28382972Y-47225692D01*
X28354080Y-47155943D01*
X32400014Y-47155943D01*
X32413300Y-47358648D01*
X32415007Y-47365370D01*
X32415008Y-47365375D01*
X32442210Y-47472479D01*
X32463304Y-47555537D01*
X32466211Y-47561842D01*
X32466211Y-47561843D01*
X32543290Y-47729040D01*
X32548350Y-47740017D01*
X32665592Y-47905910D01*
X32670562Y-47910752D01*
X32670565Y-47910755D01*
X32692913Y-47932525D01*
X32811101Y-48047659D01*
X32816876Y-48051518D01*
X32816880Y-48051521D01*
X32894224Y-48103200D01*
X32980006Y-48160518D01*
X32986387Y-48163260D01*
X32986388Y-48163260D01*
X33159762Y-48237747D01*
X33166649Y-48240706D01*
X33173418Y-48242238D01*
X33173419Y-48242238D01*
X33358009Y-48284006D01*
X33364780Y-48285538D01*
X33371714Y-48285810D01*
X33371718Y-48285811D01*
X33499228Y-48290821D01*
X33567764Y-48293514D01*
X33574640Y-48292517D01*
X33574641Y-48292517D01*
X33665272Y-48279376D01*
X33768802Y-48264365D01*
X33775372Y-48262135D01*
X33775375Y-48262134D01*
X33954592Y-48201297D01*
X33954593Y-48201297D01*
X33961161Y-48199067D01*
X34138400Y-48099809D01*
X34294582Y-47969913D01*
X34424478Y-47813731D01*
X34523736Y-47636492D01*
X34533887Y-47606588D01*
X34586803Y-47450706D01*
X34586804Y-47450703D01*
X34589034Y-47444133D01*
X34618183Y-47243095D01*
X34618523Y-47230128D01*
X34619587Y-47189460D01*
X34619704Y-47185000D01*
X34601116Y-46982712D01*
X34545976Y-46787199D01*
X34532666Y-46760208D01*
X34459200Y-46611236D01*
X34456129Y-46605008D01*
X34442362Y-46586571D01*
X34389094Y-46515237D01*
X34334586Y-46442242D01*
X34185415Y-46304350D01*
X34013614Y-46195952D01*
X33920193Y-46158681D01*
X33831379Y-46123247D01*
X33831374Y-46123246D01*
X33824936Y-46120677D01*
X33625699Y-46081046D01*
X33618756Y-46080955D01*
X33618755Y-46080955D01*
X33547734Y-46080025D01*
X33422577Y-46078387D01*
X33415740Y-46079562D01*
X33415738Y-46079562D01*
X33229214Y-46111613D01*
X33229212Y-46111613D01*
X33222371Y-46112789D01*
X33215858Y-46115192D01*
X33215857Y-46115192D01*
X33038300Y-46180696D01*
X33038298Y-46180697D01*
X33031787Y-46183099D01*
X32996815Y-46203905D01*
X32863168Y-46283416D01*
X32863164Y-46283419D01*
X32857207Y-46286963D01*
X32851997Y-46291532D01*
X32851993Y-46291535D01*
X32773140Y-46360687D01*
X32704478Y-46420902D01*
X32578715Y-46580432D01*
X32575486Y-46586570D01*
X32575485Y-46586571D01*
X32494976Y-46739594D01*
X32484130Y-46760208D01*
X32423891Y-46954211D01*
X32400014Y-47155943D01*
X28354080Y-47155943D01*
X28332525Y-47103905D01*
X28332524Y-47103903D01*
X28328728Y-47094739D01*
X28231705Y-46968295D01*
X28105262Y-46871272D01*
X28096098Y-46867476D01*
X28096096Y-46867475D01*
X27967185Y-46814078D01*
X27967183Y-46814077D01*
X27958015Y-46810280D01*
X27800000Y-46789477D01*
X27641985Y-46810280D01*
X27632818Y-46814077D01*
X27632815Y-46814078D01*
X27503905Y-46867475D01*
X27503903Y-46867476D01*
X27494739Y-46871272D01*
X27368295Y-46968295D01*
X27271272Y-47094739D01*
X27267476Y-47103903D01*
X27267475Y-47103905D01*
X27217029Y-47225692D01*
X27210280Y-47241985D01*
X27189477Y-47400000D01*
X14056033Y-47400000D01*
X14031705Y-47368295D01*
X13905262Y-47271272D01*
X13907267Y-47268659D01*
X13864310Y-47225708D01*
X13844022Y-47150009D01*
X13864301Y-47074308D01*
X13907267Y-47031342D01*
X13905262Y-47028728D01*
X14023831Y-46937747D01*
X14031705Y-46931705D01*
X14128728Y-46805261D01*
X14136210Y-46787199D01*
X14185922Y-46667185D01*
X14185923Y-46667182D01*
X14189720Y-46658015D01*
X14210523Y-46500000D01*
X14189720Y-46341985D01*
X14181716Y-46322660D01*
X14132525Y-46203905D01*
X14132524Y-46203903D01*
X14128728Y-46194739D01*
X14031705Y-46068295D01*
X13905262Y-45971272D01*
X13896098Y-45967476D01*
X13896096Y-45967475D01*
X13767185Y-45914078D01*
X13767183Y-45914077D01*
X13758015Y-45910280D01*
X13600000Y-45889477D01*
X13441985Y-45910280D01*
X13432818Y-45914077D01*
X13432815Y-45914078D01*
X13303905Y-45967475D01*
X13303903Y-45967476D01*
X13294739Y-45971272D01*
X13168295Y-46068295D01*
X13071272Y-46194739D01*
X13067476Y-46203903D01*
X13067475Y-46203905D01*
X13018285Y-46322660D01*
X13010280Y-46341985D01*
X12989477Y-46500000D01*
X13010280Y-46658015D01*
X13014077Y-46667182D01*
X13014078Y-46667185D01*
X13063790Y-46787199D01*
X13071272Y-46805261D01*
X13168295Y-46931705D01*
X13176169Y-46937747D01*
X13294738Y-47028728D01*
X13292733Y-47031341D01*
X13335690Y-47074292D01*
X13355978Y-47149991D01*
X13335699Y-47225692D01*
X13292737Y-47268663D01*
X13294739Y-47271272D01*
X13168295Y-47368295D01*
X13071272Y-47494739D01*
X13067476Y-47503903D01*
X13067475Y-47503905D01*
X13024643Y-47607311D01*
X13010280Y-47641985D01*
X12989477Y-47800000D01*
X-4694700Y-47800000D01*
X-4694700Y-46892560D01*
X4939559Y-46892560D01*
X4958292Y-47062239D01*
X5016958Y-47222551D01*
X5022047Y-47230125D01*
X5022049Y-47230128D01*
X5107081Y-47356669D01*
X5112170Y-47364242D01*
X5118915Y-47370379D01*
X5118918Y-47370383D01*
X5231679Y-47472988D01*
X5231683Y-47472991D01*
X5238432Y-47479132D01*
X5246452Y-47483486D01*
X5246454Y-47483488D01*
X5379152Y-47555537D01*
X5388455Y-47560588D01*
X5459445Y-47579212D01*
X5534902Y-47599008D01*
X5602976Y-47637837D01*
X5626887Y-47678756D01*
X5643198Y-47649452D01*
X5710445Y-47609205D01*
X5723990Y-47606584D01*
X5724265Y-47606588D01*
X5890667Y-47568477D01*
X5898822Y-47564375D01*
X5898826Y-47564374D01*
X6035016Y-47495877D01*
X6043174Y-47491774D01*
X6108078Y-47436340D01*
X6166039Y-47386837D01*
X6172982Y-47380907D01*
X6178308Y-47373496D01*
X6178310Y-47373493D01*
X6267272Y-47249688D01*
X6272598Y-47242276D01*
X6336271Y-47083886D01*
X6360324Y-46914879D01*
X6360480Y-46900000D01*
X6339971Y-46730527D01*
X6306694Y-46642460D01*
X6282857Y-46579376D01*
X6282855Y-46579373D01*
X6279630Y-46570837D01*
X6182939Y-46430151D01*
X6104974Y-46360687D01*
X6062294Y-46322660D01*
X6062293Y-46322659D01*
X6055481Y-46316590D01*
X6047417Y-46312320D01*
X6047415Y-46312319D01*
X5912682Y-46240982D01*
X5912680Y-46240981D01*
X5904613Y-46236710D01*
X5739047Y-46195122D01*
X5729920Y-46195074D01*
X5729918Y-46195074D01*
X5652870Y-46194671D01*
X5568339Y-46194229D01*
X5559464Y-46196360D01*
X5559461Y-46196360D01*
X5454766Y-46221495D01*
X5402347Y-46234080D01*
X5250651Y-46312376D01*
X5195271Y-46360687D01*
X5128887Y-46418596D01*
X5128883Y-46418600D01*
X5122010Y-46424596D01*
X5023852Y-46564262D01*
X4961841Y-46723311D01*
X4960651Y-46732352D01*
X4960650Y-46732355D01*
X4941590Y-46877134D01*
X4939559Y-46892560D01*
X-4694700Y-46892560D01*
X-4694700Y-45770943D01*
X29560014Y-45770943D01*
X29562211Y-45804460D01*
X29569396Y-45914078D01*
X29573300Y-45973648D01*
X29575007Y-45980370D01*
X29575008Y-45980375D01*
X29599924Y-46078478D01*
X29623304Y-46170537D01*
X29626211Y-46176842D01*
X29626211Y-46176843D01*
X29687163Y-46309058D01*
X29708350Y-46355017D01*
X29825592Y-46520910D01*
X29830562Y-46525752D01*
X29830565Y-46525755D01*
X29862430Y-46556796D01*
X29971101Y-46662659D01*
X29976876Y-46666518D01*
X29976880Y-46666521D01*
X30049153Y-46714812D01*
X30140006Y-46775518D01*
X30146387Y-46778260D01*
X30146388Y-46778260D01*
X30217903Y-46808985D01*
X30326649Y-46855706D01*
X30333418Y-46857238D01*
X30333419Y-46857238D01*
X30500641Y-46895076D01*
X30524780Y-46900538D01*
X30531714Y-46900810D01*
X30531718Y-46900811D01*
X30659228Y-46905821D01*
X30727764Y-46908514D01*
X30734640Y-46907517D01*
X30734641Y-46907517D01*
X30794149Y-46898889D01*
X30928802Y-46879365D01*
X30935372Y-46877135D01*
X30935375Y-46877134D01*
X31114592Y-46816297D01*
X31114593Y-46816297D01*
X31121161Y-46814067D01*
X31298400Y-46714809D01*
X31454582Y-46584913D01*
X31584478Y-46428731D01*
X31683736Y-46251492D01*
X31703158Y-46194277D01*
X31746803Y-46065706D01*
X31746804Y-46065703D01*
X31749034Y-46059133D01*
X31778183Y-45858095D01*
X31779704Y-45800000D01*
X31761116Y-45597712D01*
X31705976Y-45402199D01*
X31692666Y-45375208D01*
X31619200Y-45226236D01*
X31616129Y-45220008D01*
X31602362Y-45201571D01*
X31498742Y-45062808D01*
X31494586Y-45057242D01*
X31345415Y-44919350D01*
X31173614Y-44810952D01*
X31080193Y-44773681D01*
X30991379Y-44738247D01*
X30991374Y-44738246D01*
X30984936Y-44735677D01*
X30785699Y-44696046D01*
X30778756Y-44695955D01*
X30778755Y-44695955D01*
X30707734Y-44695025D01*
X30582577Y-44693387D01*
X30575740Y-44694562D01*
X30575738Y-44694562D01*
X30389214Y-44726613D01*
X30389212Y-44726613D01*
X30382371Y-44727789D01*
X30375858Y-44730192D01*
X30375857Y-44730192D01*
X30198300Y-44795696D01*
X30198298Y-44795697D01*
X30191787Y-44798099D01*
X30143674Y-44826723D01*
X30023168Y-44898416D01*
X30023164Y-44898419D01*
X30017207Y-44901963D01*
X30011997Y-44906532D01*
X30011993Y-44906535D01*
X29933140Y-44975687D01*
X29864478Y-45035902D01*
X29738715Y-45195432D01*
X29735486Y-45201570D01*
X29735485Y-45201571D01*
X29666232Y-45333200D01*
X29644130Y-45375208D01*
X29583891Y-45569211D01*
X29560014Y-45770943D01*
X-4694700Y-45770943D01*
X-4694700Y-44385943D01*
X32400014Y-44385943D01*
X32413300Y-44588648D01*
X32415007Y-44595370D01*
X32415008Y-44595375D01*
X32439924Y-44693478D01*
X32463304Y-44785537D01*
X32466211Y-44791842D01*
X32466211Y-44791843D01*
X32527163Y-44924058D01*
X32548350Y-44970017D01*
X32665592Y-45135910D01*
X32670562Y-45140752D01*
X32670565Y-45140755D01*
X32721102Y-45189986D01*
X32811101Y-45277659D01*
X32816876Y-45281518D01*
X32816880Y-45281521D01*
X32894224Y-45333200D01*
X32980006Y-45390518D01*
X33166649Y-45470706D01*
X33173418Y-45472238D01*
X33173419Y-45472238D01*
X33358009Y-45514006D01*
X33364780Y-45515538D01*
X33371714Y-45515810D01*
X33371718Y-45515811D01*
X33499228Y-45520821D01*
X33567764Y-45523514D01*
X33574640Y-45522517D01*
X33574641Y-45522517D01*
X33634149Y-45513889D01*
X33768802Y-45494365D01*
X33775372Y-45492135D01*
X33775375Y-45492134D01*
X33954592Y-45431297D01*
X33954593Y-45431297D01*
X33961161Y-45429067D01*
X34138400Y-45329809D01*
X34294582Y-45199913D01*
X34424478Y-45043731D01*
X34523736Y-44866492D01*
X34551217Y-44785537D01*
X34586803Y-44680706D01*
X34586804Y-44680703D01*
X34589034Y-44674133D01*
X34618183Y-44473095D01*
X34619704Y-44415000D01*
X34601116Y-44212712D01*
X34545976Y-44017199D01*
X34532666Y-43990208D01*
X34467475Y-43858015D01*
X34456129Y-43835008D01*
X34442362Y-43816571D01*
X34338742Y-43677808D01*
X34334586Y-43672242D01*
X34185415Y-43534350D01*
X34013614Y-43425952D01*
X33913278Y-43385922D01*
X33831379Y-43353247D01*
X33831374Y-43353246D01*
X33824936Y-43350677D01*
X33625699Y-43311046D01*
X33618756Y-43310955D01*
X33618755Y-43310955D01*
X33547734Y-43310025D01*
X33422577Y-43308387D01*
X33415740Y-43309562D01*
X33415738Y-43309562D01*
X33229214Y-43341613D01*
X33229212Y-43341613D01*
X33222371Y-43342789D01*
X33215858Y-43345192D01*
X33215857Y-43345192D01*
X33038300Y-43410696D01*
X33038298Y-43410697D01*
X33031787Y-43413099D01*
X32983674Y-43441723D01*
X32863168Y-43513416D01*
X32863164Y-43513419D01*
X32857207Y-43516963D01*
X32851997Y-43521532D01*
X32851993Y-43521535D01*
X32773140Y-43590687D01*
X32704478Y-43650902D01*
X32578715Y-43810432D01*
X32575486Y-43816570D01*
X32575485Y-43816571D01*
X32506232Y-43948200D01*
X32484130Y-43990208D01*
X32423891Y-44184211D01*
X32400014Y-44385943D01*
X-4694700Y-44385943D01*
X-4694700Y-43700000D01*
X25889477Y-43700000D01*
X25910280Y-43858015D01*
X25914077Y-43867182D01*
X25914078Y-43867185D01*
X25967475Y-43996095D01*
X25971272Y-44005261D01*
X26068295Y-44131705D01*
X26194738Y-44228728D01*
X26203902Y-44232524D01*
X26203904Y-44232525D01*
X26332815Y-44285922D01*
X26332817Y-44285923D01*
X26341985Y-44289720D01*
X26500000Y-44310523D01*
X26658015Y-44289720D01*
X26667183Y-44285923D01*
X26667185Y-44285922D01*
X26796096Y-44232525D01*
X26796098Y-44232524D01*
X26805262Y-44228728D01*
X26931705Y-44131705D01*
X27028728Y-44005261D01*
X27032525Y-43996095D01*
X27085922Y-43867185D01*
X27085923Y-43867182D01*
X27089720Y-43858015D01*
X27110523Y-43700000D01*
X27089720Y-43541985D01*
X27081250Y-43521535D01*
X27032525Y-43403905D01*
X27032524Y-43403903D01*
X27028728Y-43394739D01*
X26931705Y-43268295D01*
X26805262Y-43171272D01*
X26796098Y-43167476D01*
X26796096Y-43167475D01*
X26667185Y-43114078D01*
X26667183Y-43114077D01*
X26658015Y-43110280D01*
X26500000Y-43089477D01*
X26341985Y-43110280D01*
X26332818Y-43114077D01*
X26332815Y-43114078D01*
X26203905Y-43167475D01*
X26203903Y-43167476D01*
X26194739Y-43171272D01*
X26068295Y-43268295D01*
X25971272Y-43394739D01*
X25967476Y-43403903D01*
X25967475Y-43403905D01*
X25918751Y-43521535D01*
X25910280Y-43541985D01*
X25889477Y-43700000D01*
X-4694700Y-43700000D01*
X-4694700Y-42800000D01*
X3889477Y-42800000D01*
X3910280Y-42958015D01*
X3914077Y-42967182D01*
X3914078Y-42967185D01*
X3964734Y-43089477D01*
X3971272Y-43105261D01*
X4068295Y-43231705D01*
X4194738Y-43328728D01*
X4203902Y-43332524D01*
X4203904Y-43332525D01*
X4332815Y-43385922D01*
X4332817Y-43385923D01*
X4341985Y-43389720D01*
X4468189Y-43406335D01*
X4472048Y-43406843D01*
X4500000Y-43410523D01*
X4527953Y-43406843D01*
X4531811Y-43406335D01*
X4658015Y-43389720D01*
X4667183Y-43385923D01*
X4667185Y-43385922D01*
X4796096Y-43332525D01*
X4796098Y-43332524D01*
X4805262Y-43328728D01*
X4931705Y-43231705D01*
X5028728Y-43105261D01*
X5035266Y-43089477D01*
X5071939Y-43000943D01*
X29560014Y-43000943D01*
X29573300Y-43203648D01*
X29575007Y-43210370D01*
X29575008Y-43210375D01*
X29606031Y-43332525D01*
X29623304Y-43400537D01*
X29626211Y-43406842D01*
X29626211Y-43406843D01*
X29687163Y-43539058D01*
X29708350Y-43585017D01*
X29825592Y-43750910D01*
X29830562Y-43755752D01*
X29830565Y-43755755D01*
X29881102Y-43804986D01*
X29971101Y-43892659D01*
X29976876Y-43896518D01*
X29976880Y-43896521D01*
X30054224Y-43948200D01*
X30140006Y-44005518D01*
X30326649Y-44085706D01*
X30333418Y-44087238D01*
X30333419Y-44087238D01*
X30495143Y-44123832D01*
X30524780Y-44130538D01*
X30531714Y-44130810D01*
X30531718Y-44130811D01*
X30659228Y-44135821D01*
X30727764Y-44138514D01*
X30734640Y-44137517D01*
X30734641Y-44137517D01*
X30829024Y-44123832D01*
X30928802Y-44109365D01*
X30935372Y-44107135D01*
X30935375Y-44107134D01*
X31114592Y-44046297D01*
X31114593Y-44046297D01*
X31121161Y-44044067D01*
X31298400Y-43944809D01*
X31454582Y-43814913D01*
X31584478Y-43658731D01*
X31683736Y-43481492D01*
X31713185Y-43394739D01*
X31746803Y-43295706D01*
X31746804Y-43295703D01*
X31749034Y-43289133D01*
X31778183Y-43088095D01*
X31779704Y-43030000D01*
X31761116Y-42827712D01*
X31705976Y-42632199D01*
X31692666Y-42605208D01*
X31619200Y-42456236D01*
X31616129Y-42450008D01*
X31602362Y-42431571D01*
X31498742Y-42292808D01*
X31494586Y-42287242D01*
X31345415Y-42149350D01*
X31173614Y-42040952D01*
X31080193Y-42003681D01*
X30991379Y-41968247D01*
X30991374Y-41968246D01*
X30984936Y-41965677D01*
X30785699Y-41926046D01*
X30778756Y-41925955D01*
X30778755Y-41925955D01*
X30707734Y-41925025D01*
X30582577Y-41923387D01*
X30575740Y-41924562D01*
X30575738Y-41924562D01*
X30389214Y-41956613D01*
X30389212Y-41956613D01*
X30382371Y-41957789D01*
X30375858Y-41960192D01*
X30375857Y-41960192D01*
X30198300Y-42025696D01*
X30198298Y-42025697D01*
X30191787Y-42028099D01*
X30143674Y-42056723D01*
X30023168Y-42128416D01*
X30023164Y-42128419D01*
X30017207Y-42131963D01*
X30011997Y-42136532D01*
X30011993Y-42136535D01*
X29927903Y-42210280D01*
X29864478Y-42265902D01*
X29738715Y-42425432D01*
X29735486Y-42431570D01*
X29735485Y-42431571D01*
X29666232Y-42563200D01*
X29644130Y-42605208D01*
X29583891Y-42799211D01*
X29581308Y-42821033D01*
X29566260Y-42948176D01*
X29560014Y-43000943D01*
X5071939Y-43000943D01*
X5085922Y-42967185D01*
X5085923Y-42967182D01*
X5089720Y-42958015D01*
X5110523Y-42800000D01*
X5089720Y-42641985D01*
X5085667Y-42632199D01*
X5032525Y-42503905D01*
X5032524Y-42503903D01*
X5028728Y-42494739D01*
X4931705Y-42368295D01*
X4805262Y-42271272D01*
X4796098Y-42267476D01*
X4796096Y-42267475D01*
X4667185Y-42214078D01*
X4667183Y-42214077D01*
X4658015Y-42210280D01*
X4500000Y-42189477D01*
X4341985Y-42210280D01*
X4332818Y-42214077D01*
X4332815Y-42214078D01*
X4203905Y-42267475D01*
X4203903Y-42267476D01*
X4194739Y-42271272D01*
X4068295Y-42368295D01*
X3971272Y-42494739D01*
X3967476Y-42503903D01*
X3967475Y-42503905D01*
X3914334Y-42632199D01*
X3910280Y-42641985D01*
X3889477Y-42800000D01*
X-4694700Y-42800000D01*
X-4694700Y-41200000D01*
X17289477Y-41200000D01*
X17310280Y-41358015D01*
X17314077Y-41367182D01*
X17314078Y-41367185D01*
X17367475Y-41496095D01*
X17371272Y-41505261D01*
X17468295Y-41631705D01*
X17594738Y-41728728D01*
X17603902Y-41732524D01*
X17603904Y-41732525D01*
X17732815Y-41785922D01*
X17732817Y-41785923D01*
X17741985Y-41789720D01*
X17900000Y-41810523D01*
X18058015Y-41789720D01*
X18067183Y-41785923D01*
X18067185Y-41785922D01*
X18196096Y-41732525D01*
X18196098Y-41732524D01*
X18205262Y-41728728D01*
X18331705Y-41631705D01*
X18343799Y-41615943D01*
X32400014Y-41615943D01*
X32402211Y-41649460D01*
X32412683Y-41809228D01*
X32413300Y-41818648D01*
X32415007Y-41825370D01*
X32415008Y-41825375D01*
X32439924Y-41923478D01*
X32463304Y-42015537D01*
X32466211Y-42021842D01*
X32466211Y-42021843D01*
X32527163Y-42154058D01*
X32548350Y-42200017D01*
X32665592Y-42365910D01*
X32670562Y-42370752D01*
X32670565Y-42370755D01*
X32676122Y-42376168D01*
X32811101Y-42507659D01*
X32816876Y-42511518D01*
X32816880Y-42511521D01*
X32894224Y-42563200D01*
X32980006Y-42620518D01*
X33166649Y-42700706D01*
X33173418Y-42702238D01*
X33173419Y-42702238D01*
X33358009Y-42744006D01*
X33364780Y-42745538D01*
X33371714Y-42745810D01*
X33371718Y-42745811D01*
X33499228Y-42750821D01*
X33567764Y-42753514D01*
X33574640Y-42752517D01*
X33574641Y-42752517D01*
X33634149Y-42743889D01*
X33768802Y-42724365D01*
X33775372Y-42722135D01*
X33775375Y-42722134D01*
X33954592Y-42661297D01*
X33954593Y-42661297D01*
X33961161Y-42659067D01*
X34138400Y-42559809D01*
X34294582Y-42429913D01*
X34424478Y-42273731D01*
X34523736Y-42096492D01*
X34551217Y-42015537D01*
X34586803Y-41910706D01*
X34586804Y-41910703D01*
X34589034Y-41904133D01*
X34618183Y-41703095D01*
X34619704Y-41645000D01*
X34601116Y-41442712D01*
X34545976Y-41247199D01*
X34532666Y-41220208D01*
X34459200Y-41071236D01*
X34456129Y-41065008D01*
X34442362Y-41046571D01*
X34338742Y-40907808D01*
X34334586Y-40902242D01*
X34185415Y-40764350D01*
X34013614Y-40655952D01*
X33908656Y-40614078D01*
X33831379Y-40583247D01*
X33831374Y-40583246D01*
X33824936Y-40580677D01*
X33625699Y-40541046D01*
X33618756Y-40540955D01*
X33618755Y-40540955D01*
X33547734Y-40540025D01*
X33422577Y-40538387D01*
X33415740Y-40539562D01*
X33415738Y-40539562D01*
X33229214Y-40571613D01*
X33229212Y-40571613D01*
X33222371Y-40572789D01*
X33215858Y-40575192D01*
X33215857Y-40575192D01*
X33038300Y-40640696D01*
X33038298Y-40640697D01*
X33031787Y-40643099D01*
X32990815Y-40667475D01*
X32863168Y-40743416D01*
X32863164Y-40743419D01*
X32857207Y-40746963D01*
X32851997Y-40751532D01*
X32851993Y-40751535D01*
X32773140Y-40820687D01*
X32704478Y-40880902D01*
X32578715Y-41040432D01*
X32575486Y-41046570D01*
X32575485Y-41046571D01*
X32506232Y-41178200D01*
X32484130Y-41220208D01*
X32423891Y-41414211D01*
X32400014Y-41615943D01*
X18343799Y-41615943D01*
X18428728Y-41505261D01*
X18432525Y-41496095D01*
X18485922Y-41367185D01*
X18485923Y-41367182D01*
X18489720Y-41358015D01*
X18510523Y-41200000D01*
X18489720Y-41041985D01*
X18434142Y-40907808D01*
X18432525Y-40903905D01*
X18432524Y-40903903D01*
X18428728Y-40894739D01*
X18331705Y-40768295D01*
X18205262Y-40671272D01*
X18196098Y-40667476D01*
X18196096Y-40667475D01*
X18067185Y-40614078D01*
X18067183Y-40614077D01*
X18058015Y-40610280D01*
X17900000Y-40589477D01*
X17741985Y-40610280D01*
X17732818Y-40614077D01*
X17732815Y-40614078D01*
X17603905Y-40667475D01*
X17603903Y-40667476D01*
X17594739Y-40671272D01*
X17468295Y-40768295D01*
X17371272Y-40894739D01*
X17367476Y-40903903D01*
X17367475Y-40903905D01*
X17365859Y-40907808D01*
X17310280Y-41041985D01*
X17289477Y-41200000D01*
X-4694700Y-41200000D01*
X-4694700Y-39200000D01*
X15289477Y-39200000D01*
X15310280Y-39358015D01*
X15314077Y-39367182D01*
X15314078Y-39367185D01*
X15367395Y-39495902D01*
X15371272Y-39505261D01*
X15468295Y-39631705D01*
X15594738Y-39728728D01*
X15603902Y-39732524D01*
X15603904Y-39732525D01*
X15732815Y-39785922D01*
X15732817Y-39785923D01*
X15741985Y-39789720D01*
X15900000Y-39810523D01*
X16058015Y-39789720D01*
X16067183Y-39785923D01*
X16067185Y-39785922D01*
X16196096Y-39732525D01*
X16196098Y-39732524D01*
X16205262Y-39728728D01*
X16234230Y-39706500D01*
X23789477Y-39706500D01*
X23810280Y-39864515D01*
X23814077Y-39873682D01*
X23814078Y-39873685D01*
X23867475Y-40002595D01*
X23871272Y-40011761D01*
X23968295Y-40138205D01*
X24094738Y-40235228D01*
X24103902Y-40239024D01*
X24103904Y-40239025D01*
X24232815Y-40292422D01*
X24232817Y-40292423D01*
X24241985Y-40296220D01*
X24400000Y-40317023D01*
X24558015Y-40296220D01*
X24567183Y-40292423D01*
X24567185Y-40292422D01*
X24696096Y-40239025D01*
X24696098Y-40239024D01*
X24705262Y-40235228D01*
X24710846Y-40230943D01*
X29560014Y-40230943D01*
X29573300Y-40433648D01*
X29575007Y-40440370D01*
X29575008Y-40440375D01*
X29599924Y-40538478D01*
X29623304Y-40630537D01*
X29626211Y-40636842D01*
X29626211Y-40636843D01*
X29687163Y-40769058D01*
X29708350Y-40815017D01*
X29825592Y-40980910D01*
X29830562Y-40985752D01*
X29830565Y-40985755D01*
X29878874Y-41032815D01*
X29971101Y-41122659D01*
X29976876Y-41126518D01*
X29976880Y-41126521D01*
X30054224Y-41178200D01*
X30140006Y-41235518D01*
X30326649Y-41315706D01*
X30333418Y-41317238D01*
X30333419Y-41317238D01*
X30518009Y-41359006D01*
X30524780Y-41360538D01*
X30531714Y-41360810D01*
X30531718Y-41360811D01*
X30659228Y-41365821D01*
X30727764Y-41368514D01*
X30734640Y-41367517D01*
X30734641Y-41367517D01*
X30800175Y-41358015D01*
X30928802Y-41339365D01*
X30935372Y-41337135D01*
X30935375Y-41337134D01*
X31114592Y-41276297D01*
X31114593Y-41276297D01*
X31121161Y-41274067D01*
X31298400Y-41174809D01*
X31437109Y-41059445D01*
X31449240Y-41049356D01*
X31454582Y-41044913D01*
X31584478Y-40888731D01*
X31683736Y-40711492D01*
X31711217Y-40630537D01*
X31746803Y-40525706D01*
X31746804Y-40525703D01*
X31749034Y-40519133D01*
X31778183Y-40318095D01*
X31779704Y-40260000D01*
X31761116Y-40057712D01*
X31705976Y-39862199D01*
X31692666Y-39835208D01*
X31642169Y-39732812D01*
X31616129Y-39680008D01*
X31602362Y-39661571D01*
X31517916Y-39548485D01*
X31494586Y-39517242D01*
X31345415Y-39379350D01*
X31173614Y-39270952D01*
X31052640Y-39222688D01*
X30991379Y-39198247D01*
X30991374Y-39198246D01*
X30984936Y-39195677D01*
X30785699Y-39156046D01*
X30778756Y-39155955D01*
X30778755Y-39155955D01*
X30707734Y-39155025D01*
X30582577Y-39153387D01*
X30575740Y-39154562D01*
X30575738Y-39154562D01*
X30389214Y-39186613D01*
X30389212Y-39186613D01*
X30382371Y-39187789D01*
X30375858Y-39190192D01*
X30375857Y-39190192D01*
X30198300Y-39255696D01*
X30198298Y-39255697D01*
X30191787Y-39258099D01*
X30150490Y-39282668D01*
X30023168Y-39358416D01*
X30023164Y-39358419D01*
X30017207Y-39361963D01*
X30011997Y-39366532D01*
X30011993Y-39366535D01*
X29933140Y-39435687D01*
X29864478Y-39495902D01*
X29738715Y-39655432D01*
X29735486Y-39661570D01*
X29735485Y-39661571D01*
X29657799Y-39809228D01*
X29644130Y-39835208D01*
X29583891Y-40029211D01*
X29560014Y-40230943D01*
X24710846Y-40230943D01*
X24831705Y-40138205D01*
X24928728Y-40011761D01*
X24932525Y-40002595D01*
X24985922Y-39873685D01*
X24985923Y-39873682D01*
X24989720Y-39864515D01*
X25010523Y-39706500D01*
X24989720Y-39548485D01*
X24973394Y-39509069D01*
X24932525Y-39410405D01*
X24932524Y-39410403D01*
X24928728Y-39401239D01*
X24831705Y-39274795D01*
X24814572Y-39261648D01*
X24793575Y-39245537D01*
X24705262Y-39177772D01*
X24696098Y-39173976D01*
X24696096Y-39173975D01*
X24567185Y-39120578D01*
X24567183Y-39120577D01*
X24558015Y-39116780D01*
X24400000Y-39095977D01*
X24241985Y-39116780D01*
X24232818Y-39120577D01*
X24232815Y-39120578D01*
X24103905Y-39173975D01*
X24103903Y-39173976D01*
X24094739Y-39177772D01*
X23968295Y-39274795D01*
X23871272Y-39401239D01*
X23867476Y-39410403D01*
X23867475Y-39410405D01*
X23826607Y-39509069D01*
X23810280Y-39548485D01*
X23789477Y-39706500D01*
X16234230Y-39706500D01*
X16331705Y-39631705D01*
X16428728Y-39505261D01*
X16432605Y-39495902D01*
X16485922Y-39367185D01*
X16485923Y-39367182D01*
X16489720Y-39358015D01*
X16510523Y-39200000D01*
X16489720Y-39041985D01*
X16474509Y-39005261D01*
X16432525Y-38903905D01*
X16432524Y-38903903D01*
X16428728Y-38894739D01*
X16331705Y-38768295D01*
X16242701Y-38700000D01*
X16989477Y-38700000D01*
X17010280Y-38858015D01*
X17014077Y-38867182D01*
X17014078Y-38867185D01*
X17043207Y-38937507D01*
X17071272Y-39005261D01*
X17168295Y-39131705D01*
X17294738Y-39228728D01*
X17303902Y-39232524D01*
X17303904Y-39232525D01*
X17432815Y-39285922D01*
X17432817Y-39285923D01*
X17441985Y-39289720D01*
X17600000Y-39310523D01*
X17758015Y-39289720D01*
X17767183Y-39285923D01*
X17767185Y-39285922D01*
X17896096Y-39232525D01*
X17896098Y-39232524D01*
X17905262Y-39228728D01*
X18031705Y-39131705D01*
X18128728Y-39005261D01*
X18156793Y-38937507D01*
X18185922Y-38867185D01*
X18185923Y-38867182D01*
X18189720Y-38858015D01*
X18191309Y-38845943D01*
X32400014Y-38845943D01*
X32413300Y-39048648D01*
X32415007Y-39055370D01*
X32415008Y-39055375D01*
X32439924Y-39153478D01*
X32463304Y-39245537D01*
X32466211Y-39251842D01*
X32466211Y-39251843D01*
X32531455Y-39393368D01*
X32548350Y-39430017D01*
X32665592Y-39595910D01*
X32670562Y-39600752D01*
X32670565Y-39600755D01*
X32702336Y-39631705D01*
X32811101Y-39737659D01*
X32816876Y-39741518D01*
X32816880Y-39741521D01*
X32894224Y-39793200D01*
X32980006Y-39850518D01*
X32986387Y-39853260D01*
X32986388Y-39853260D01*
X33033929Y-39873685D01*
X33166649Y-39930706D01*
X33173418Y-39932238D01*
X33173419Y-39932238D01*
X33358009Y-39974006D01*
X33364780Y-39975538D01*
X33371714Y-39975810D01*
X33371718Y-39975811D01*
X33499228Y-39980821D01*
X33567764Y-39983514D01*
X33574640Y-39982517D01*
X33574641Y-39982517D01*
X33634149Y-39973889D01*
X33768802Y-39954365D01*
X33775372Y-39952135D01*
X33775375Y-39952134D01*
X33954592Y-39891297D01*
X33954593Y-39891297D01*
X33961161Y-39889067D01*
X34138400Y-39789809D01*
X34294582Y-39659913D01*
X34424478Y-39503731D01*
X34523736Y-39326492D01*
X34529157Y-39310523D01*
X34586803Y-39140706D01*
X34586804Y-39140703D01*
X34589034Y-39134133D01*
X34618183Y-38933095D01*
X34619704Y-38875000D01*
X34601116Y-38672712D01*
X34545976Y-38477199D01*
X34536516Y-38458015D01*
X34459200Y-38301236D01*
X34456129Y-38295008D01*
X34442362Y-38276571D01*
X34363731Y-38171272D01*
X34334586Y-38132242D01*
X34185415Y-37994350D01*
X34013614Y-37885952D01*
X33920193Y-37848681D01*
X33831379Y-37813247D01*
X33831374Y-37813246D01*
X33824936Y-37810677D01*
X33625699Y-37771046D01*
X33618756Y-37770955D01*
X33618755Y-37770955D01*
X33547734Y-37770025D01*
X33422577Y-37768387D01*
X33415740Y-37769562D01*
X33415738Y-37769562D01*
X33229214Y-37801613D01*
X33229212Y-37801613D01*
X33222371Y-37802789D01*
X33215858Y-37805192D01*
X33215857Y-37805192D01*
X33038300Y-37870696D01*
X33038298Y-37870697D01*
X33031787Y-37873099D01*
X32983674Y-37901723D01*
X32863168Y-37973416D01*
X32863164Y-37973419D01*
X32857207Y-37976963D01*
X32851997Y-37981532D01*
X32851993Y-37981535D01*
X32727432Y-38090772D01*
X32704478Y-38110902D01*
X32578715Y-38270432D01*
X32575486Y-38276570D01*
X32575485Y-38276571D01*
X32506232Y-38408200D01*
X32484130Y-38450208D01*
X32423891Y-38644211D01*
X32409204Y-38768295D01*
X32402052Y-38828728D01*
X32400014Y-38845943D01*
X18191309Y-38845943D01*
X18210523Y-38700000D01*
X18189720Y-38541985D01*
X18174938Y-38506297D01*
X18132525Y-38403905D01*
X18132524Y-38403903D01*
X18128728Y-38394739D01*
X18031705Y-38268295D01*
X17905262Y-38171272D01*
X17896098Y-38167476D01*
X17896096Y-38167475D01*
X17767185Y-38114078D01*
X17767183Y-38114077D01*
X17758015Y-38110280D01*
X17600000Y-38089477D01*
X17441985Y-38110280D01*
X17432818Y-38114077D01*
X17432815Y-38114078D01*
X17303905Y-38167475D01*
X17303903Y-38167476D01*
X17294739Y-38171272D01*
X17168295Y-38268295D01*
X17071272Y-38394739D01*
X17067476Y-38403903D01*
X17067475Y-38403905D01*
X17025063Y-38506297D01*
X17010280Y-38541985D01*
X16989477Y-38700000D01*
X16242701Y-38700000D01*
X16205262Y-38671272D01*
X16196098Y-38667476D01*
X16196096Y-38667475D01*
X16067185Y-38614078D01*
X16067183Y-38614077D01*
X16058015Y-38610280D01*
X15900000Y-38589477D01*
X15741985Y-38610280D01*
X15732818Y-38614077D01*
X15732815Y-38614078D01*
X15603905Y-38667475D01*
X15603903Y-38667476D01*
X15594739Y-38671272D01*
X15468295Y-38768295D01*
X15371272Y-38894739D01*
X15367476Y-38903903D01*
X15367475Y-38903905D01*
X15325492Y-39005261D01*
X15310280Y-39041985D01*
X15289477Y-39200000D01*
X-4694700Y-39200000D01*
X-4694700Y-38300000D01*
X7089477Y-38300000D01*
X7110280Y-38458015D01*
X7114077Y-38467182D01*
X7114078Y-38467185D01*
X7167475Y-38596095D01*
X7171272Y-38605261D01*
X7268295Y-38731705D01*
X7394738Y-38828728D01*
X7403902Y-38832524D01*
X7403904Y-38832525D01*
X7532815Y-38885922D01*
X7532817Y-38885923D01*
X7541985Y-38889720D01*
X7700000Y-38910523D01*
X7858015Y-38889720D01*
X7867183Y-38885923D01*
X7867185Y-38885922D01*
X7996096Y-38832525D01*
X7996098Y-38832524D01*
X8005262Y-38828728D01*
X8131705Y-38731705D01*
X8228728Y-38605261D01*
X8232525Y-38596095D01*
X8285922Y-38467185D01*
X8285923Y-38467182D01*
X8289720Y-38458015D01*
X8310523Y-38300000D01*
X9389477Y-38300000D01*
X9410280Y-38458015D01*
X9414077Y-38467182D01*
X9414078Y-38467185D01*
X9467475Y-38596095D01*
X9471272Y-38605261D01*
X9568295Y-38731705D01*
X9694738Y-38828728D01*
X9703902Y-38832524D01*
X9703904Y-38832525D01*
X9832815Y-38885922D01*
X9832817Y-38885923D01*
X9841985Y-38889720D01*
X10000000Y-38910523D01*
X10158015Y-38889720D01*
X10167183Y-38885923D01*
X10167185Y-38885922D01*
X10296096Y-38832525D01*
X10296098Y-38832524D01*
X10305262Y-38828728D01*
X10431705Y-38731705D01*
X10528728Y-38605261D01*
X10532525Y-38596095D01*
X10585922Y-38467185D01*
X10585923Y-38467182D01*
X10589720Y-38458015D01*
X10610523Y-38300000D01*
X10589720Y-38141985D01*
X10585685Y-38132242D01*
X10532525Y-38003905D01*
X10532524Y-38003903D01*
X10528728Y-37994739D01*
X10431705Y-37868295D01*
X10305262Y-37771272D01*
X10296098Y-37767476D01*
X10296096Y-37767475D01*
X10167185Y-37714078D01*
X10167183Y-37714077D01*
X10158015Y-37710280D01*
X10000000Y-37689477D01*
X9841985Y-37710280D01*
X9832818Y-37714077D01*
X9832815Y-37714078D01*
X9703905Y-37767475D01*
X9703903Y-37767476D01*
X9694739Y-37771272D01*
X9568295Y-37868295D01*
X9471272Y-37994739D01*
X9467476Y-38003903D01*
X9467475Y-38003905D01*
X9414316Y-38132242D01*
X9410280Y-38141985D01*
X9389477Y-38300000D01*
X8310523Y-38300000D01*
X8289720Y-38141985D01*
X8285685Y-38132242D01*
X8232525Y-38003905D01*
X8232524Y-38003903D01*
X8228728Y-37994739D01*
X8131705Y-37868295D01*
X8005262Y-37771272D01*
X7996098Y-37767476D01*
X7996096Y-37767475D01*
X7867185Y-37714078D01*
X7867183Y-37714077D01*
X7858015Y-37710280D01*
X7700000Y-37689477D01*
X7541985Y-37710280D01*
X7532818Y-37714077D01*
X7532815Y-37714078D01*
X7403905Y-37767475D01*
X7403903Y-37767476D01*
X7394739Y-37771272D01*
X7268295Y-37868295D01*
X7171272Y-37994739D01*
X7167476Y-38003903D01*
X7167475Y-38003905D01*
X7114316Y-38132242D01*
X7110280Y-38141985D01*
X7089477Y-38300000D01*
X-4694700Y-38300000D01*
X-4694700Y-37350000D01*
X26789477Y-37350000D01*
X26810280Y-37508015D01*
X26814077Y-37517182D01*
X26814078Y-37517185D01*
X26826882Y-37548095D01*
X26871272Y-37655261D01*
X26968295Y-37781705D01*
X27094738Y-37878728D01*
X27103902Y-37882524D01*
X27103904Y-37882525D01*
X27232815Y-37935922D01*
X27232817Y-37935923D01*
X27241985Y-37939720D01*
X27400000Y-37960523D01*
X27558015Y-37939720D01*
X27567183Y-37935923D01*
X27567185Y-37935922D01*
X27696096Y-37882525D01*
X27696098Y-37882524D01*
X27705262Y-37878728D01*
X27831705Y-37781705D01*
X27928728Y-37655261D01*
X27973118Y-37548095D01*
X27985922Y-37517185D01*
X27985923Y-37517182D01*
X27989720Y-37508015D01*
X27995917Y-37460943D01*
X29560014Y-37460943D01*
X29563099Y-37508015D01*
X29572150Y-37646095D01*
X29573300Y-37663648D01*
X29575007Y-37670370D01*
X29575008Y-37670375D01*
X29599924Y-37768478D01*
X29623304Y-37860537D01*
X29626211Y-37866842D01*
X29626211Y-37866843D01*
X29687163Y-37999058D01*
X29708350Y-38045017D01*
X29712356Y-38050686D01*
X29712357Y-38050687D01*
X29751682Y-38106330D01*
X29825592Y-38210910D01*
X29830562Y-38215752D01*
X29830565Y-38215755D01*
X29878297Y-38262253D01*
X29971101Y-38352659D01*
X29976876Y-38356518D01*
X29976880Y-38356521D01*
X30054224Y-38408200D01*
X30140006Y-38465518D01*
X30326649Y-38545706D01*
X30333418Y-38547238D01*
X30333419Y-38547238D01*
X30518009Y-38589006D01*
X30524780Y-38590538D01*
X30531714Y-38590810D01*
X30531718Y-38590811D01*
X30659228Y-38595821D01*
X30727764Y-38598514D01*
X30734640Y-38597517D01*
X30734641Y-38597517D01*
X30794149Y-38588889D01*
X30928802Y-38569365D01*
X30935372Y-38567135D01*
X30935375Y-38567134D01*
X31114592Y-38506297D01*
X31114593Y-38506297D01*
X31121161Y-38504067D01*
X31298400Y-38404809D01*
X31454582Y-38274913D01*
X31584478Y-38118731D01*
X31683736Y-37941492D01*
X31707768Y-37870696D01*
X31746803Y-37755706D01*
X31746804Y-37755703D01*
X31749034Y-37749133D01*
X31778183Y-37548095D01*
X31779704Y-37490000D01*
X31761116Y-37287712D01*
X31705976Y-37092199D01*
X31696919Y-37073832D01*
X31624098Y-36926168D01*
X31616129Y-36910008D01*
X31602362Y-36891571D01*
X31503355Y-36758985D01*
X31494586Y-36747242D01*
X31345415Y-36609350D01*
X31173614Y-36500952D01*
X31050474Y-36451824D01*
X30991379Y-36428247D01*
X30991374Y-36428246D01*
X30984936Y-36425677D01*
X30785699Y-36386046D01*
X30778756Y-36385955D01*
X30778755Y-36385955D01*
X30707734Y-36385025D01*
X30582577Y-36383387D01*
X30575740Y-36384562D01*
X30575738Y-36384562D01*
X30389214Y-36416613D01*
X30389212Y-36416613D01*
X30382371Y-36417789D01*
X30375858Y-36420192D01*
X30375857Y-36420192D01*
X30198300Y-36485696D01*
X30198298Y-36485697D01*
X30191787Y-36488099D01*
X30156272Y-36509228D01*
X30023168Y-36588416D01*
X30023164Y-36588419D01*
X30017207Y-36591963D01*
X30011997Y-36596532D01*
X30011993Y-36596535D01*
X29933140Y-36665687D01*
X29864478Y-36725902D01*
X29738715Y-36885432D01*
X29735486Y-36891570D01*
X29735485Y-36891571D01*
X29650077Y-37053905D01*
X29644130Y-37065208D01*
X29583891Y-37259211D01*
X29560014Y-37460943D01*
X27995917Y-37460943D01*
X28010523Y-37350000D01*
X27989720Y-37191985D01*
X27985802Y-37182525D01*
X27932525Y-37053905D01*
X27932524Y-37053903D01*
X27928728Y-37044739D01*
X27831705Y-36918295D01*
X27705262Y-36821272D01*
X27696098Y-36817476D01*
X27696096Y-36817475D01*
X27567185Y-36764078D01*
X27567183Y-36764077D01*
X27558015Y-36760280D01*
X27400000Y-36739477D01*
X27241985Y-36760280D01*
X27232818Y-36764077D01*
X27232815Y-36764078D01*
X27103905Y-36817475D01*
X27103903Y-36817476D01*
X27094739Y-36821272D01*
X26968295Y-36918295D01*
X26871272Y-37044739D01*
X26867476Y-37053903D01*
X26867475Y-37053905D01*
X26814199Y-37182525D01*
X26810280Y-37191985D01*
X26789477Y-37350000D01*
X-4694700Y-37350000D01*
X-4694700Y-36600000D01*
X-310523Y-36600000D01*
X-289720Y-36758015D01*
X-285923Y-36767182D01*
X-285922Y-36767185D01*
X-234399Y-36891571D01*
X-228728Y-36905261D01*
X-131705Y-37031705D01*
X-5262Y-37128728D01*
X3902Y-37132524D01*
X3904Y-37132525D01*
X132815Y-37185922D01*
X132817Y-37185923D01*
X141985Y-37189720D01*
X300000Y-37210523D01*
X458015Y-37189720D01*
X467183Y-37185923D01*
X467185Y-37185922D01*
X596096Y-37132525D01*
X596098Y-37132524D01*
X605262Y-37128728D01*
X731705Y-37031705D01*
X828728Y-36905261D01*
X834399Y-36891571D01*
X885922Y-36767185D01*
X885923Y-36767182D01*
X889720Y-36758015D01*
X903940Y-36650000D01*
X18189477Y-36650000D01*
X18210280Y-36808015D01*
X18214077Y-36817182D01*
X18214078Y-36817185D01*
X18253821Y-36913132D01*
X18271272Y-36955261D01*
X18368295Y-37081705D01*
X18494738Y-37178728D01*
X18503902Y-37182524D01*
X18503904Y-37182525D01*
X18632815Y-37235922D01*
X18632817Y-37235923D01*
X18641985Y-37239720D01*
X18800000Y-37260523D01*
X18958015Y-37239720D01*
X18967183Y-37235923D01*
X18967185Y-37235922D01*
X19096096Y-37182525D01*
X19096098Y-37182524D01*
X19105262Y-37178728D01*
X19231705Y-37081705D01*
X19328728Y-36955261D01*
X19346179Y-36913132D01*
X19385922Y-36817185D01*
X19385923Y-36817182D01*
X19389720Y-36808015D01*
X19410523Y-36650000D01*
X19789477Y-36650000D01*
X19810280Y-36808015D01*
X19814077Y-36817182D01*
X19814078Y-36817185D01*
X19853821Y-36913132D01*
X19871272Y-36955261D01*
X19968295Y-37081705D01*
X20094738Y-37178728D01*
X20103902Y-37182524D01*
X20103904Y-37182525D01*
X20232815Y-37235922D01*
X20232817Y-37235923D01*
X20241985Y-37239720D01*
X20400000Y-37260523D01*
X20558015Y-37239720D01*
X20567183Y-37235923D01*
X20567185Y-37235922D01*
X20696096Y-37182525D01*
X20696098Y-37182524D01*
X20705262Y-37178728D01*
X20831705Y-37081705D01*
X20928728Y-36955261D01*
X20946179Y-36913132D01*
X20985922Y-36817185D01*
X20985923Y-36817182D01*
X20989720Y-36808015D01*
X21010523Y-36650000D01*
X20989720Y-36491985D01*
X20946400Y-36387401D01*
X20932525Y-36353905D01*
X20932524Y-36353903D01*
X20928728Y-36344739D01*
X20831705Y-36218295D01*
X20705262Y-36121272D01*
X20696098Y-36117476D01*
X20696096Y-36117475D01*
X20595829Y-36075943D01*
X32400014Y-36075943D01*
X32413300Y-36278648D01*
X32415007Y-36285370D01*
X32415008Y-36285375D01*
X32439924Y-36383478D01*
X32463304Y-36475537D01*
X32466211Y-36481842D01*
X32466211Y-36481843D01*
X32527163Y-36614058D01*
X32548350Y-36660017D01*
X32665592Y-36825910D01*
X32670562Y-36830752D01*
X32670565Y-36830755D01*
X32721102Y-36879986D01*
X32811101Y-36967659D01*
X32816876Y-36971518D01*
X32816880Y-36971521D01*
X32906952Y-37031705D01*
X32980006Y-37080518D01*
X32986387Y-37083260D01*
X32986388Y-37083260D01*
X33101056Y-37132525D01*
X33166649Y-37160706D01*
X33173418Y-37162238D01*
X33173419Y-37162238D01*
X33348366Y-37201824D01*
X33364780Y-37205538D01*
X33371714Y-37205810D01*
X33371718Y-37205811D01*
X33499228Y-37210821D01*
X33567764Y-37213514D01*
X33574640Y-37212517D01*
X33574641Y-37212517D01*
X33648389Y-37201824D01*
X33768802Y-37184365D01*
X33775372Y-37182135D01*
X33775375Y-37182134D01*
X33954592Y-37121297D01*
X33954593Y-37121297D01*
X33961161Y-37119067D01*
X34138400Y-37019809D01*
X34294582Y-36889913D01*
X34424478Y-36733731D01*
X34523736Y-36556492D01*
X34543463Y-36498378D01*
X34586803Y-36370706D01*
X34586804Y-36370703D01*
X34589034Y-36364133D01*
X34618183Y-36163095D01*
X34619704Y-36105000D01*
X34601116Y-35902712D01*
X34545976Y-35707199D01*
X34532666Y-35680208D01*
X34459200Y-35531236D01*
X34456129Y-35525008D01*
X34442362Y-35506571D01*
X34355105Y-35389720D01*
X34334586Y-35362242D01*
X34185415Y-35224350D01*
X34013614Y-35115952D01*
X33920193Y-35078681D01*
X33831379Y-35043247D01*
X33831374Y-35043246D01*
X33824936Y-35040677D01*
X33625699Y-35001046D01*
X33618756Y-35000955D01*
X33618755Y-35000955D01*
X33547734Y-35000025D01*
X33422577Y-34998387D01*
X33415740Y-34999562D01*
X33415738Y-34999562D01*
X33229214Y-35031613D01*
X33229212Y-35031613D01*
X33222371Y-35032789D01*
X33215858Y-35035192D01*
X33215857Y-35035192D01*
X33038300Y-35100696D01*
X33038298Y-35100697D01*
X33031787Y-35103099D01*
X32998861Y-35122688D01*
X32863168Y-35203416D01*
X32863164Y-35203419D01*
X32857207Y-35206963D01*
X32851997Y-35211532D01*
X32851993Y-35211535D01*
X32714030Y-35332525D01*
X32704478Y-35340902D01*
X32578715Y-35500432D01*
X32575486Y-35506570D01*
X32575485Y-35506571D01*
X32506232Y-35638200D01*
X32484130Y-35680208D01*
X32423891Y-35874211D01*
X32419593Y-35910523D01*
X32401051Y-36067185D01*
X32400014Y-36075943D01*
X20595829Y-36075943D01*
X20567185Y-36064078D01*
X20567183Y-36064077D01*
X20558015Y-36060280D01*
X20400000Y-36039477D01*
X20241985Y-36060280D01*
X20232818Y-36064077D01*
X20232815Y-36064078D01*
X20103905Y-36117475D01*
X20103903Y-36117476D01*
X20094739Y-36121272D01*
X19968295Y-36218295D01*
X19871272Y-36344739D01*
X19867476Y-36353903D01*
X19867475Y-36353905D01*
X19853601Y-36387401D01*
X19810280Y-36491985D01*
X19789477Y-36650000D01*
X19410523Y-36650000D01*
X19389720Y-36491985D01*
X19346400Y-36387401D01*
X19332525Y-36353905D01*
X19332524Y-36353903D01*
X19328728Y-36344739D01*
X19231705Y-36218295D01*
X19105262Y-36121272D01*
X19096098Y-36117476D01*
X19096096Y-36117475D01*
X18967185Y-36064078D01*
X18967183Y-36064077D01*
X18958015Y-36060280D01*
X18800000Y-36039477D01*
X18641985Y-36060280D01*
X18632818Y-36064077D01*
X18632815Y-36064078D01*
X18503905Y-36117475D01*
X18503903Y-36117476D01*
X18494739Y-36121272D01*
X18368295Y-36218295D01*
X18271272Y-36344739D01*
X18267476Y-36353903D01*
X18267475Y-36353905D01*
X18253601Y-36387401D01*
X18210280Y-36491985D01*
X18189477Y-36650000D01*
X903940Y-36650000D01*
X910523Y-36600000D01*
X889720Y-36441985D01*
X885802Y-36432525D01*
X832525Y-36303905D01*
X832524Y-36303903D01*
X828728Y-36294739D01*
X731705Y-36168295D01*
X605262Y-36071272D01*
X596098Y-36067476D01*
X596096Y-36067475D01*
X467185Y-36014078D01*
X467183Y-36014077D01*
X458015Y-36010280D01*
X300000Y-35989477D01*
X141985Y-36010280D01*
X132818Y-36014077D01*
X132815Y-36014078D01*
X3905Y-36067475D01*
X3903Y-36067476D01*
X-5261Y-36071272D01*
X-131705Y-36168295D01*
X-228728Y-36294739D01*
X-232524Y-36303903D01*
X-232525Y-36303905D01*
X-285801Y-36432525D01*
X-289720Y-36441985D01*
X-310523Y-36600000D01*
X-4694700Y-36600000D01*
X-4694700Y-35900000D01*
X11689477Y-35900000D01*
X11710280Y-36058015D01*
X11714077Y-36067182D01*
X11714078Y-36067185D01*
X11755960Y-36168295D01*
X11771272Y-36205261D01*
X11868295Y-36331705D01*
X11994738Y-36428728D01*
X12003902Y-36432524D01*
X12003904Y-36432525D01*
X12132815Y-36485922D01*
X12132817Y-36485923D01*
X12141985Y-36489720D01*
X12300000Y-36510523D01*
X12458015Y-36489720D01*
X12467183Y-36485923D01*
X12467185Y-36485922D01*
X12596096Y-36432525D01*
X12596098Y-36432524D01*
X12605262Y-36428728D01*
X12731705Y-36331705D01*
X12828728Y-36205261D01*
X12844040Y-36168295D01*
X12885922Y-36067185D01*
X12885923Y-36067182D01*
X12889720Y-36058015D01*
X12910523Y-35900000D01*
X12889720Y-35741985D01*
X12885802Y-35732525D01*
X12832525Y-35603905D01*
X12832524Y-35603903D01*
X12828728Y-35594739D01*
X12731705Y-35468295D01*
X12605262Y-35371272D01*
X12596098Y-35367476D01*
X12596096Y-35367475D01*
X12467185Y-35314078D01*
X12467183Y-35314077D01*
X12458015Y-35310280D01*
X12300000Y-35289477D01*
X12141985Y-35310280D01*
X12132818Y-35314077D01*
X12132815Y-35314078D01*
X12003905Y-35367475D01*
X12003903Y-35367476D01*
X11994739Y-35371272D01*
X11868295Y-35468295D01*
X11771272Y-35594739D01*
X11767476Y-35603903D01*
X11767475Y-35603905D01*
X11714199Y-35732525D01*
X11710280Y-35741985D01*
X11689477Y-35900000D01*
X-4694700Y-35900000D01*
X-4694700Y-34800000D01*
X12889477Y-34800000D01*
X12910280Y-34958015D01*
X12914077Y-34967182D01*
X12914078Y-34967185D01*
X12965173Y-35090537D01*
X12971272Y-35105261D01*
X13068295Y-35231705D01*
X13194738Y-35328728D01*
X13203902Y-35332524D01*
X13203904Y-35332525D01*
X13332815Y-35385922D01*
X13332817Y-35385923D01*
X13341985Y-35389720D01*
X13500000Y-35410523D01*
X13658015Y-35389720D01*
X13667183Y-35385923D01*
X13667185Y-35385922D01*
X13796096Y-35332525D01*
X13796098Y-35332524D01*
X13805262Y-35328728D01*
X13842701Y-35300000D01*
X16989477Y-35300000D01*
X17010280Y-35458015D01*
X17014077Y-35467182D01*
X17014078Y-35467185D01*
X17067475Y-35596095D01*
X17071272Y-35605261D01*
X17168295Y-35731705D01*
X17294738Y-35828728D01*
X17303902Y-35832524D01*
X17303904Y-35832525D01*
X17432815Y-35885922D01*
X17432817Y-35885923D01*
X17441985Y-35889720D01*
X17600000Y-35910523D01*
X17758015Y-35889720D01*
X17767183Y-35885923D01*
X17767185Y-35885922D01*
X17896096Y-35832525D01*
X17896098Y-35832524D01*
X17905262Y-35828728D01*
X18031705Y-35731705D01*
X18128728Y-35605261D01*
X18132525Y-35596095D01*
X18185922Y-35467185D01*
X18185923Y-35467182D01*
X18189720Y-35458015D01*
X18210523Y-35300000D01*
X18197358Y-35200000D01*
X19039477Y-35200000D01*
X19060280Y-35358015D01*
X19064077Y-35367182D01*
X19064078Y-35367185D01*
X19105500Y-35467185D01*
X19121272Y-35505261D01*
X19218295Y-35631705D01*
X19344738Y-35728728D01*
X19353902Y-35732524D01*
X19353904Y-35732525D01*
X19482815Y-35785922D01*
X19482817Y-35785923D01*
X19491985Y-35789720D01*
X19650000Y-35810523D01*
X19808015Y-35789720D01*
X19817183Y-35785923D01*
X19817185Y-35785922D01*
X19946096Y-35732525D01*
X19946098Y-35732524D01*
X19955262Y-35728728D01*
X20081705Y-35631705D01*
X20178728Y-35505261D01*
X20194500Y-35467185D01*
X20235922Y-35367185D01*
X20235923Y-35367182D01*
X20239720Y-35358015D01*
X20260523Y-35200000D01*
X20239720Y-35041985D01*
X20235802Y-35032525D01*
X20182525Y-34903905D01*
X20182524Y-34903903D01*
X20178728Y-34894739D01*
X20081705Y-34768295D01*
X19955262Y-34671272D01*
X19946098Y-34667476D01*
X19946096Y-34667475D01*
X19817185Y-34614078D01*
X19817183Y-34614077D01*
X19808015Y-34610280D01*
X19650000Y-34589477D01*
X19491985Y-34610280D01*
X19482818Y-34614077D01*
X19482815Y-34614078D01*
X19353905Y-34667475D01*
X19353903Y-34667476D01*
X19344739Y-34671272D01*
X19218295Y-34768295D01*
X19121272Y-34894739D01*
X19117476Y-34903903D01*
X19117475Y-34903905D01*
X19064199Y-35032525D01*
X19060280Y-35041985D01*
X19039477Y-35200000D01*
X18197358Y-35200000D01*
X18189720Y-35141985D01*
X18185802Y-35132525D01*
X18132525Y-35003905D01*
X18132524Y-35003903D01*
X18128728Y-34994739D01*
X18031705Y-34868295D01*
X17905262Y-34771272D01*
X17896098Y-34767476D01*
X17896096Y-34767475D01*
X17767185Y-34714078D01*
X17767183Y-34714077D01*
X17758015Y-34710280D01*
X17631811Y-34693665D01*
X17609837Y-34690772D01*
X17600000Y-34689477D01*
X17590163Y-34690772D01*
X17568189Y-34693665D01*
X17441985Y-34710280D01*
X17432818Y-34714077D01*
X17432815Y-34714078D01*
X17303905Y-34767475D01*
X17303903Y-34767476D01*
X17294739Y-34771272D01*
X17168295Y-34868295D01*
X17071272Y-34994739D01*
X17067476Y-35003903D01*
X17067475Y-35003905D01*
X17014199Y-35132525D01*
X17010280Y-35141985D01*
X16989477Y-35300000D01*
X13842701Y-35300000D01*
X13931705Y-35231705D01*
X14028728Y-35105261D01*
X14034827Y-35090537D01*
X14085922Y-34967185D01*
X14085923Y-34967182D01*
X14089720Y-34958015D01*
X14110523Y-34800000D01*
X14089720Y-34641985D01*
X14085802Y-34632525D01*
X14032525Y-34503905D01*
X14032524Y-34503903D01*
X14028728Y-34494739D01*
X13931705Y-34368295D01*
X13805262Y-34271272D01*
X13796098Y-34267476D01*
X13796096Y-34267475D01*
X13667185Y-34214078D01*
X13667183Y-34214077D01*
X13658015Y-34210280D01*
X13500000Y-34189477D01*
X13341985Y-34210280D01*
X13332818Y-34214077D01*
X13332815Y-34214078D01*
X13203905Y-34267475D01*
X13203903Y-34267476D01*
X13194739Y-34271272D01*
X13068295Y-34368295D01*
X12971272Y-34494739D01*
X12967476Y-34503903D01*
X12967475Y-34503905D01*
X12914199Y-34632525D01*
X12910280Y-34641985D01*
X12889477Y-34800000D01*
X-4694700Y-34800000D01*
X-4694700Y-34100000D01*
X8189477Y-34100000D01*
X8190772Y-34109837D01*
X8193665Y-34131811D01*
X8210280Y-34258015D01*
X8214077Y-34267182D01*
X8214078Y-34267185D01*
X8267475Y-34396095D01*
X8271272Y-34405261D01*
X8368295Y-34531705D01*
X8494738Y-34628728D01*
X8503902Y-34632524D01*
X8503904Y-34632525D01*
X8632815Y-34685922D01*
X8632817Y-34685923D01*
X8641985Y-34689720D01*
X8768189Y-34706335D01*
X8788318Y-34708985D01*
X8800000Y-34710523D01*
X8811683Y-34708985D01*
X8831811Y-34706335D01*
X8958015Y-34689720D01*
X8967183Y-34685923D01*
X8967185Y-34685922D01*
X9096096Y-34632525D01*
X9096098Y-34632524D01*
X9105262Y-34628728D01*
X9231705Y-34531705D01*
X9328728Y-34405261D01*
X9332525Y-34396095D01*
X9385922Y-34267185D01*
X9385923Y-34267182D01*
X9389720Y-34258015D01*
X9406335Y-34131811D01*
X9409228Y-34109837D01*
X9410523Y-34100000D01*
X9389720Y-33941985D01*
X9378161Y-33914078D01*
X9332525Y-33803905D01*
X9332524Y-33803903D01*
X9328728Y-33794739D01*
X9231705Y-33668295D01*
X9105262Y-33571272D01*
X9096098Y-33567476D01*
X9096096Y-33567475D01*
X8967185Y-33514078D01*
X8967183Y-33514077D01*
X8958015Y-33510280D01*
X8879930Y-33500000D01*
X13789477Y-33500000D01*
X13810280Y-33658015D01*
X13814077Y-33667182D01*
X13814078Y-33667185D01*
X13867475Y-33796095D01*
X13871272Y-33805261D01*
X13968295Y-33931705D01*
X14094738Y-34028728D01*
X14103902Y-34032524D01*
X14103904Y-34032525D01*
X14232815Y-34085922D01*
X14232817Y-34085923D01*
X14241985Y-34089720D01*
X14400000Y-34110523D01*
X14558015Y-34089720D01*
X14567183Y-34085923D01*
X14567185Y-34085922D01*
X14583779Y-34079048D01*
X14661479Y-34068818D01*
X14733884Y-34098809D01*
X14781593Y-34160984D01*
X14791823Y-34238684D01*
X14774003Y-34291180D01*
X14771272Y-34294739D01*
X14759898Y-34322199D01*
X14721721Y-34414365D01*
X14710280Y-34441985D01*
X14689477Y-34600000D01*
X14710280Y-34758015D01*
X14714077Y-34767182D01*
X14714078Y-34767185D01*
X14767475Y-34896095D01*
X14771272Y-34905261D01*
X14868295Y-35031705D01*
X14876169Y-35037747D01*
X14881692Y-35041985D01*
X14994738Y-35128728D01*
X15003902Y-35132524D01*
X15003904Y-35132525D01*
X15132815Y-35185922D01*
X15132817Y-35185923D01*
X15141985Y-35189720D01*
X15300000Y-35210523D01*
X15458015Y-35189720D01*
X15467183Y-35185923D01*
X15467185Y-35185922D01*
X15596096Y-35132525D01*
X15596098Y-35132524D01*
X15605262Y-35128728D01*
X15718308Y-35041985D01*
X15723831Y-35037747D01*
X15731705Y-35031705D01*
X15828728Y-34905261D01*
X15832525Y-34896095D01*
X15885922Y-34767185D01*
X15885923Y-34767182D01*
X15889720Y-34758015D01*
X15910523Y-34600000D01*
X15897358Y-34500000D01*
X21589477Y-34500000D01*
X21590772Y-34509837D01*
X21591809Y-34517712D01*
X21610280Y-34658015D01*
X21614077Y-34667182D01*
X21614078Y-34667185D01*
X21655500Y-34767185D01*
X21671272Y-34805261D01*
X21768295Y-34931705D01*
X21894738Y-35028728D01*
X21903902Y-35032524D01*
X21903904Y-35032525D01*
X22032815Y-35085922D01*
X22032817Y-35085923D01*
X22041985Y-35089720D01*
X22200000Y-35110523D01*
X22358015Y-35089720D01*
X22367183Y-35085923D01*
X22367185Y-35085922D01*
X22496096Y-35032525D01*
X22496098Y-35032524D01*
X22505262Y-35028728D01*
X22631705Y-34931705D01*
X22728728Y-34805261D01*
X22744500Y-34767185D01*
X22776081Y-34690943D01*
X29560014Y-34690943D01*
X29573300Y-34893648D01*
X29575007Y-34900370D01*
X29575008Y-34900375D01*
X29599924Y-34998478D01*
X29623304Y-35090537D01*
X29626211Y-35096842D01*
X29626211Y-35096843D01*
X29687163Y-35229058D01*
X29708350Y-35275017D01*
X29712356Y-35280686D01*
X29712357Y-35280687D01*
X29735956Y-35314078D01*
X29825592Y-35440910D01*
X29830562Y-35445752D01*
X29830565Y-35445755D01*
X29847501Y-35462253D01*
X29971101Y-35582659D01*
X29976876Y-35586518D01*
X29976880Y-35586521D01*
X30053546Y-35637747D01*
X30140006Y-35695518D01*
X30146387Y-35698260D01*
X30146388Y-35698260D01*
X30224234Y-35731705D01*
X30326649Y-35775706D01*
X30333418Y-35777238D01*
X30333419Y-35777238D01*
X30518009Y-35819006D01*
X30524780Y-35820538D01*
X30531714Y-35820810D01*
X30531718Y-35820811D01*
X30659228Y-35825821D01*
X30727764Y-35828514D01*
X30734640Y-35827517D01*
X30734641Y-35827517D01*
X30851846Y-35810523D01*
X30928802Y-35799365D01*
X30935372Y-35797135D01*
X30935375Y-35797134D01*
X31114592Y-35736297D01*
X31114593Y-35736297D01*
X31121161Y-35734067D01*
X31298400Y-35634809D01*
X31454582Y-35504913D01*
X31584478Y-35348731D01*
X31683736Y-35171492D01*
X31685966Y-35164923D01*
X31746803Y-34985706D01*
X31746804Y-34985703D01*
X31749034Y-34979133D01*
X31778183Y-34778095D01*
X31779704Y-34720000D01*
X31761116Y-34517712D01*
X31705976Y-34322199D01*
X31696955Y-34303905D01*
X31641163Y-34190772D01*
X31616129Y-34140008D01*
X31602362Y-34121571D01*
X31527226Y-34020952D01*
X31494586Y-33977242D01*
X31345415Y-33839350D01*
X31173614Y-33730952D01*
X31080193Y-33693681D01*
X30991379Y-33658247D01*
X30991374Y-33658246D01*
X30984936Y-33655677D01*
X30785699Y-33616046D01*
X30778756Y-33615955D01*
X30778755Y-33615955D01*
X30707734Y-33615025D01*
X30582577Y-33613387D01*
X30575740Y-33614562D01*
X30575738Y-33614562D01*
X30389214Y-33646613D01*
X30389212Y-33646613D01*
X30382371Y-33647789D01*
X30375858Y-33650192D01*
X30375857Y-33650192D01*
X30198300Y-33715696D01*
X30198298Y-33715697D01*
X30191787Y-33718099D01*
X30143674Y-33746723D01*
X30023168Y-33818416D01*
X30023164Y-33818419D01*
X30017207Y-33821963D01*
X30011997Y-33826532D01*
X30011993Y-33826535D01*
X29880347Y-33941985D01*
X29864478Y-33955902D01*
X29738715Y-34115432D01*
X29735486Y-34121570D01*
X29735485Y-34121571D01*
X29648518Y-34286868D01*
X29644130Y-34295208D01*
X29583891Y-34489211D01*
X29560014Y-34690943D01*
X22776081Y-34690943D01*
X22785922Y-34667185D01*
X22785923Y-34667182D01*
X22789720Y-34658015D01*
X22808191Y-34517712D01*
X22809228Y-34509837D01*
X22810523Y-34500000D01*
X22789720Y-34341985D01*
X22781525Y-34322199D01*
X22732525Y-34203905D01*
X22732524Y-34203903D01*
X22728728Y-34194739D01*
X22631705Y-34068295D01*
X22505262Y-33971272D01*
X22496098Y-33967476D01*
X22496096Y-33967475D01*
X22367185Y-33914078D01*
X22367183Y-33914077D01*
X22358015Y-33910280D01*
X22200000Y-33889477D01*
X22041985Y-33910280D01*
X22032818Y-33914077D01*
X22032815Y-33914078D01*
X21903905Y-33967475D01*
X21903903Y-33967476D01*
X21894739Y-33971272D01*
X21768295Y-34068295D01*
X21671272Y-34194739D01*
X21667476Y-34203903D01*
X21667475Y-34203905D01*
X21618476Y-34322199D01*
X21610280Y-34341985D01*
X21589477Y-34500000D01*
X15897358Y-34500000D01*
X15889720Y-34441985D01*
X15878280Y-34414365D01*
X15832525Y-34303905D01*
X15832524Y-34303903D01*
X15828728Y-34294739D01*
X15731705Y-34168295D01*
X15605262Y-34071272D01*
X15596098Y-34067476D01*
X15596096Y-34067475D01*
X15467185Y-34014078D01*
X15467183Y-34014077D01*
X15458015Y-34010280D01*
X15300000Y-33989477D01*
X15141985Y-34010280D01*
X15132818Y-34014077D01*
X15132815Y-34014078D01*
X15116221Y-34020952D01*
X15038521Y-34031182D01*
X14966116Y-34001191D01*
X14918407Y-33939016D01*
X14908177Y-33861316D01*
X14925997Y-33808820D01*
X14928728Y-33805261D01*
X14964832Y-33718099D01*
X14985922Y-33667185D01*
X14985923Y-33667182D01*
X14989720Y-33658015D01*
X15010523Y-33500000D01*
X14989720Y-33341985D01*
X14974791Y-33305943D01*
X32400014Y-33305943D01*
X32413300Y-33508648D01*
X32415007Y-33515370D01*
X32415008Y-33515375D01*
X32439924Y-33613478D01*
X32463304Y-33705537D01*
X32466211Y-33711842D01*
X32466211Y-33711843D01*
X32535119Y-33861316D01*
X32548350Y-33890017D01*
X32552356Y-33895686D01*
X32552357Y-33895687D01*
X32565355Y-33914078D01*
X32665592Y-34055910D01*
X32670562Y-34060752D01*
X32670565Y-34060755D01*
X32720324Y-34109228D01*
X32811101Y-34197659D01*
X32816876Y-34201518D01*
X32816880Y-34201521D01*
X32894224Y-34253200D01*
X32980006Y-34310518D01*
X32986387Y-34313260D01*
X32986388Y-34313260D01*
X33132811Y-34376168D01*
X33166649Y-34390706D01*
X33173418Y-34392238D01*
X33173419Y-34392238D01*
X33358009Y-34434006D01*
X33364780Y-34435538D01*
X33371714Y-34435810D01*
X33371718Y-34435811D01*
X33499228Y-34440821D01*
X33567764Y-34443514D01*
X33574640Y-34442517D01*
X33574641Y-34442517D01*
X33641554Y-34432815D01*
X33768802Y-34414365D01*
X33775372Y-34412135D01*
X33775375Y-34412134D01*
X33954592Y-34351297D01*
X33954593Y-34351297D01*
X33961161Y-34349067D01*
X34138400Y-34249809D01*
X34294582Y-34119913D01*
X34424478Y-33963731D01*
X34523736Y-33786492D01*
X34551217Y-33705537D01*
X34586803Y-33600706D01*
X34586804Y-33600703D01*
X34589034Y-33594133D01*
X34618183Y-33393095D01*
X34619704Y-33335000D01*
X34601116Y-33132712D01*
X34545976Y-32937199D01*
X34534108Y-32913132D01*
X34459200Y-32761236D01*
X34456129Y-32755008D01*
X34442362Y-32736571D01*
X34347270Y-32609228D01*
X34334586Y-32592242D01*
X34185415Y-32454350D01*
X34013614Y-32345952D01*
X33885248Y-32294739D01*
X33831379Y-32273247D01*
X33831374Y-32273246D01*
X33824936Y-32270677D01*
X33625699Y-32231046D01*
X33618756Y-32230955D01*
X33618755Y-32230955D01*
X33547734Y-32230025D01*
X33422577Y-32228387D01*
X33415740Y-32229562D01*
X33415738Y-32229562D01*
X33229214Y-32261613D01*
X33229212Y-32261613D01*
X33222371Y-32262789D01*
X33215858Y-32265192D01*
X33215857Y-32265192D01*
X33038300Y-32330696D01*
X33038298Y-32330697D01*
X33031787Y-32333099D01*
X32983674Y-32361723D01*
X32863168Y-32433416D01*
X32863164Y-32433419D01*
X32857207Y-32436963D01*
X32851997Y-32441532D01*
X32851993Y-32441535D01*
X32709691Y-32566330D01*
X32704478Y-32570902D01*
X32578715Y-32730432D01*
X32575486Y-32736570D01*
X32575485Y-32736571D01*
X32494356Y-32890772D01*
X32484130Y-32910208D01*
X32423891Y-33104211D01*
X32400014Y-33305943D01*
X14974791Y-33305943D01*
X14928728Y-33194739D01*
X14831705Y-33068295D01*
X14705262Y-32971272D01*
X14696098Y-32967476D01*
X14696096Y-32967475D01*
X14567185Y-32914078D01*
X14567183Y-32914077D01*
X14558015Y-32910280D01*
X14431811Y-32893665D01*
X14409837Y-32890772D01*
X14400000Y-32889477D01*
X14390163Y-32890772D01*
X14368189Y-32893665D01*
X14241985Y-32910280D01*
X14232818Y-32914077D01*
X14232815Y-32914078D01*
X14103905Y-32967475D01*
X14103903Y-32967476D01*
X14094739Y-32971272D01*
X13968295Y-33068295D01*
X13871272Y-33194739D01*
X13810280Y-33341985D01*
X13789477Y-33500000D01*
X8879930Y-33500000D01*
X8800000Y-33489477D01*
X8641985Y-33510280D01*
X8632818Y-33514077D01*
X8632815Y-33514078D01*
X8503905Y-33567475D01*
X8503903Y-33567476D01*
X8494739Y-33571272D01*
X8368295Y-33668295D01*
X8271272Y-33794739D01*
X8267476Y-33803903D01*
X8267475Y-33803905D01*
X8221840Y-33914078D01*
X8210280Y-33941985D01*
X8189477Y-34100000D01*
X-4694700Y-34100000D01*
X-4694700Y-32600000D01*
X9889477Y-32600000D01*
X9910280Y-32758015D01*
X9914077Y-32767182D01*
X9914078Y-32767185D01*
X9965270Y-32890772D01*
X9971272Y-32905261D01*
X10068295Y-33031705D01*
X10194738Y-33128728D01*
X10203902Y-33132524D01*
X10203904Y-33132525D01*
X10332815Y-33185922D01*
X10332817Y-33185923D01*
X10341985Y-33189720D01*
X10500000Y-33210523D01*
X10658015Y-33189720D01*
X10667183Y-33185923D01*
X10667185Y-33185922D01*
X10796096Y-33132525D01*
X10796098Y-33132524D01*
X10805262Y-33128728D01*
X10931705Y-33031705D01*
X11028728Y-32905261D01*
X11034730Y-32890772D01*
X11085922Y-32767185D01*
X11085923Y-32767182D01*
X11089720Y-32758015D01*
X11110523Y-32600000D01*
X11089720Y-32441985D01*
X11075455Y-32407545D01*
X11032525Y-32303905D01*
X11032524Y-32303903D01*
X11030907Y-32300000D01*
X15489477Y-32300000D01*
X15510280Y-32458015D01*
X15514077Y-32467182D01*
X15514078Y-32467185D01*
X15565018Y-32590163D01*
X15571272Y-32605261D01*
X15668295Y-32731705D01*
X15794738Y-32828728D01*
X15803902Y-32832524D01*
X15803904Y-32832525D01*
X15932815Y-32885922D01*
X15932817Y-32885923D01*
X15941985Y-32889720D01*
X16060031Y-32905261D01*
X16088318Y-32908985D01*
X16100000Y-32910523D01*
X16111683Y-32908985D01*
X16139969Y-32905261D01*
X16258015Y-32889720D01*
X16267183Y-32885923D01*
X16267185Y-32885922D01*
X16396096Y-32832525D01*
X16396098Y-32832524D01*
X16405262Y-32828728D01*
X16531705Y-32731705D01*
X16628728Y-32605261D01*
X16634982Y-32590163D01*
X16685922Y-32467185D01*
X16685923Y-32467182D01*
X16689720Y-32458015D01*
X16710523Y-32300000D01*
X16689720Y-32141985D01*
X16682125Y-32123648D01*
X16632525Y-32003905D01*
X16632524Y-32003903D01*
X16630907Y-32000000D01*
X27089477Y-32000000D01*
X27110280Y-32158015D01*
X27114077Y-32167182D01*
X27114078Y-32167185D01*
X27167475Y-32296095D01*
X27171272Y-32305261D01*
X27268295Y-32431705D01*
X27394738Y-32528728D01*
X27403902Y-32532524D01*
X27403904Y-32532525D01*
X27532815Y-32585922D01*
X27532817Y-32585923D01*
X27541985Y-32589720D01*
X27700000Y-32610523D01*
X27858015Y-32589720D01*
X27867183Y-32585923D01*
X27867185Y-32585922D01*
X27996096Y-32532525D01*
X27996098Y-32532524D01*
X28005262Y-32528728D01*
X28131705Y-32431705D01*
X28228728Y-32305261D01*
X28232525Y-32296095D01*
X28285922Y-32167185D01*
X28285923Y-32167182D01*
X28289720Y-32158015D01*
X28310523Y-32000000D01*
X28300115Y-31920943D01*
X29560014Y-31920943D01*
X29566015Y-32012500D01*
X29572440Y-32110523D01*
X29573300Y-32123648D01*
X29575007Y-32130370D01*
X29575008Y-32130375D01*
X29621423Y-32313132D01*
X29623304Y-32320537D01*
X29626211Y-32326842D01*
X29626211Y-32326843D01*
X29687163Y-32459058D01*
X29708350Y-32505017D01*
X29825592Y-32670910D01*
X29830562Y-32675752D01*
X29830565Y-32675755D01*
X29879918Y-32723832D01*
X29971101Y-32812659D01*
X29976876Y-32816518D01*
X29976880Y-32816521D01*
X30054224Y-32868200D01*
X30140006Y-32925518D01*
X30146387Y-32928260D01*
X30146388Y-32928260D01*
X30246502Y-32971272D01*
X30326649Y-33005706D01*
X30333418Y-33007238D01*
X30333419Y-33007238D01*
X30441549Y-33031705D01*
X30524780Y-33050538D01*
X30531714Y-33050810D01*
X30531718Y-33050811D01*
X30659228Y-33055821D01*
X30727764Y-33058514D01*
X30734640Y-33057517D01*
X30734641Y-33057517D01*
X30794149Y-33048889D01*
X30928802Y-33029365D01*
X30935372Y-33027135D01*
X30935375Y-33027134D01*
X31114592Y-32966297D01*
X31114593Y-32966297D01*
X31121161Y-32964067D01*
X31298400Y-32864809D01*
X31454582Y-32734913D01*
X31584478Y-32578731D01*
X31683736Y-32401492D01*
X31711217Y-32320537D01*
X31746803Y-32215706D01*
X31746804Y-32215703D01*
X31749034Y-32209133D01*
X31778183Y-32008095D01*
X31778653Y-31990163D01*
X31779587Y-31954460D01*
X31779704Y-31950000D01*
X31761116Y-31747712D01*
X31705976Y-31552199D01*
X31692666Y-31525208D01*
X31635350Y-31408985D01*
X31616129Y-31370008D01*
X31602362Y-31351571D01*
X31498742Y-31212808D01*
X31494586Y-31207242D01*
X31345415Y-31069350D01*
X31173614Y-30960952D01*
X31043358Y-30908985D01*
X30991379Y-30888247D01*
X30991374Y-30888246D01*
X30984936Y-30885677D01*
X30785699Y-30846046D01*
X30778756Y-30845955D01*
X30778755Y-30845955D01*
X30707734Y-30845025D01*
X30582577Y-30843387D01*
X30575740Y-30844562D01*
X30575738Y-30844562D01*
X30389214Y-30876613D01*
X30389212Y-30876613D01*
X30382371Y-30877789D01*
X30375858Y-30880192D01*
X30375857Y-30880192D01*
X30198300Y-30945696D01*
X30198298Y-30945697D01*
X30191787Y-30948099D01*
X30159219Y-30967475D01*
X30023168Y-31048416D01*
X30023164Y-31048419D01*
X30017207Y-31051963D01*
X30011997Y-31056532D01*
X30011993Y-31056535D01*
X29933140Y-31125687D01*
X29864478Y-31185902D01*
X29738715Y-31345432D01*
X29735486Y-31351570D01*
X29735485Y-31351571D01*
X29657393Y-31500000D01*
X29644130Y-31525208D01*
X29583891Y-31719211D01*
X29560014Y-31920943D01*
X28300115Y-31920943D01*
X28289720Y-31841985D01*
X28274509Y-31805261D01*
X28232525Y-31703905D01*
X28232524Y-31703903D01*
X28228728Y-31694739D01*
X28131705Y-31568295D01*
X28005262Y-31471272D01*
X27996098Y-31467476D01*
X27996096Y-31467475D01*
X27867185Y-31414078D01*
X27867183Y-31414077D01*
X27858015Y-31410280D01*
X27700000Y-31389477D01*
X27541985Y-31410280D01*
X27532818Y-31414077D01*
X27532815Y-31414078D01*
X27403905Y-31467475D01*
X27403903Y-31467476D01*
X27394739Y-31471272D01*
X27268295Y-31568295D01*
X27171272Y-31694739D01*
X27167476Y-31703903D01*
X27167475Y-31703905D01*
X27125492Y-31805261D01*
X27110280Y-31841985D01*
X27089477Y-32000000D01*
X16630907Y-32000000D01*
X16628728Y-31994739D01*
X16531705Y-31868295D01*
X16405262Y-31771272D01*
X16396098Y-31767476D01*
X16396096Y-31767475D01*
X16267185Y-31714078D01*
X16267183Y-31714077D01*
X16258015Y-31710280D01*
X16100000Y-31689477D01*
X15941985Y-31710280D01*
X15932818Y-31714077D01*
X15932815Y-31714078D01*
X15803905Y-31767475D01*
X15803903Y-31767476D01*
X15794739Y-31771272D01*
X15668295Y-31868295D01*
X15571272Y-31994739D01*
X15567476Y-32003903D01*
X15567475Y-32003905D01*
X15517876Y-32123648D01*
X15510280Y-32141985D01*
X15489477Y-32300000D01*
X11030907Y-32300000D01*
X11028728Y-32294739D01*
X10931705Y-32168295D01*
X10805262Y-32071272D01*
X10796098Y-32067476D01*
X10796096Y-32067475D01*
X10667185Y-32014078D01*
X10667183Y-32014077D01*
X10658015Y-32010280D01*
X10500000Y-31989477D01*
X10341985Y-32010280D01*
X10332818Y-32014077D01*
X10332815Y-32014078D01*
X10203905Y-32067475D01*
X10203903Y-32067476D01*
X10194739Y-32071272D01*
X10068295Y-32168295D01*
X9971272Y-32294739D01*
X9967476Y-32303903D01*
X9967475Y-32303905D01*
X9924546Y-32407545D01*
X9910280Y-32441985D01*
X9889477Y-32600000D01*
X-4694700Y-32600000D01*
X-4694700Y-31500000D01*
X2489477Y-31500000D01*
X2510280Y-31658015D01*
X2514077Y-31667182D01*
X2514078Y-31667185D01*
X2547434Y-31747712D01*
X2571272Y-31805261D01*
X2668295Y-31931705D01*
X2794738Y-32028728D01*
X2803902Y-32032524D01*
X2803904Y-32032525D01*
X2932815Y-32085922D01*
X2932817Y-32085923D01*
X2941985Y-32089720D01*
X3100000Y-32110523D01*
X3258015Y-32089720D01*
X3267183Y-32085923D01*
X3267185Y-32085922D01*
X3396096Y-32032525D01*
X3396098Y-32032524D01*
X3405262Y-32028728D01*
X3531705Y-31931705D01*
X3628728Y-31805261D01*
X3652566Y-31747712D01*
X3685922Y-31667185D01*
X3685923Y-31667182D01*
X3689720Y-31658015D01*
X3710523Y-31500000D01*
X3689720Y-31341985D01*
X3628728Y-31194739D01*
X3531705Y-31068295D01*
X3405262Y-30971272D01*
X3396098Y-30967476D01*
X3396096Y-30967475D01*
X3267185Y-30914078D01*
X3267183Y-30914077D01*
X3258015Y-30910280D01*
X3100000Y-30889477D01*
X2941985Y-30910280D01*
X2932818Y-30914077D01*
X2932815Y-30914078D01*
X2803905Y-30967475D01*
X2803903Y-30967476D01*
X2794739Y-30971272D01*
X2668295Y-31068295D01*
X2571272Y-31194739D01*
X2510280Y-31341985D01*
X2489477Y-31500000D01*
X-4694700Y-31500000D01*
X-4694700Y-30210768D01*
X-4327716Y-30210768D01*
X-4327018Y-30214981D01*
X-4285540Y-30336823D01*
X-4278377Y-30352044D01*
X-4192638Y-30491411D01*
X-4182282Y-30504666D01*
X-4067797Y-30621574D01*
X-4054763Y-30632205D01*
X-3917217Y-30720847D01*
X-3902157Y-30728323D01*
X-3748395Y-30784288D01*
X-3732039Y-30788244D01*
X-3605708Y-30804204D01*
X-3596233Y-30804800D01*
X-3473133Y-30804800D01*
X-3457412Y-30800588D01*
X-3453200Y-30784867D01*
X-3046800Y-30784867D01*
X-3042588Y-30800588D01*
X-3026867Y-30804800D01*
X-2908840Y-30804800D01*
X-2900388Y-30804327D01*
X-2778981Y-30790709D01*
X-2762580Y-30786984D01*
X-2608047Y-30733170D01*
X-2592880Y-30725902D01*
X-2454113Y-30639191D01*
X-2440935Y-30628746D01*
X-2324824Y-30513443D01*
X-2314285Y-30500334D01*
X-2226610Y-30362181D01*
X-2219234Y-30347058D01*
X-2174694Y-30221977D01*
X-2173792Y-30210768D01*
X-397716Y-30210768D01*
X-397018Y-30214981D01*
X-355540Y-30336823D01*
X-348377Y-30352044D01*
X-262638Y-30491411D01*
X-252282Y-30504666D01*
X-137797Y-30621574D01*
X-124763Y-30632205D01*
X12783Y-30720847D01*
X27843Y-30728323D01*
X181605Y-30784288D01*
X197961Y-30788244D01*
X324292Y-30804204D01*
X333767Y-30804800D01*
X706867Y-30804800D01*
X722588Y-30800588D01*
X726800Y-30784867D01*
X1133200Y-30784867D01*
X1137412Y-30800588D01*
X1153133Y-30804800D01*
X1521160Y-30804800D01*
X1529612Y-30804327D01*
X1651019Y-30790709D01*
X1667420Y-30786984D01*
X1821953Y-30733170D01*
X1837120Y-30725902D01*
X1975887Y-30639191D01*
X1989065Y-30628746D01*
X2082518Y-30535943D01*
X32400014Y-30535943D01*
X32402211Y-30569460D01*
X32412465Y-30725902D01*
X32413300Y-30738648D01*
X32415007Y-30745370D01*
X32415008Y-30745375D01*
X32439924Y-30843478D01*
X32463304Y-30935537D01*
X32466211Y-30941842D01*
X32466211Y-30941843D01*
X32527163Y-31074058D01*
X32548350Y-31120017D01*
X32665592Y-31285910D01*
X32670562Y-31290752D01*
X32670565Y-31290755D01*
X32713741Y-31332815D01*
X32811101Y-31427659D01*
X32816876Y-31431518D01*
X32816880Y-31431521D01*
X32919367Y-31500000D01*
X32980006Y-31540518D01*
X32986387Y-31543260D01*
X32986388Y-31543260D01*
X33062984Y-31576168D01*
X33166649Y-31620706D01*
X33173418Y-31622238D01*
X33173419Y-31622238D01*
X33358009Y-31664006D01*
X33364780Y-31665538D01*
X33371714Y-31665810D01*
X33371718Y-31665811D01*
X33499228Y-31670821D01*
X33567764Y-31673514D01*
X33574640Y-31672517D01*
X33574641Y-31672517D01*
X33674659Y-31658015D01*
X33768802Y-31644365D01*
X33775372Y-31642135D01*
X33775375Y-31642134D01*
X33954592Y-31581297D01*
X33954593Y-31581297D01*
X33961161Y-31579067D01*
X34138400Y-31479809D01*
X34294582Y-31349913D01*
X34424478Y-31193731D01*
X34523736Y-31016492D01*
X34551217Y-30935537D01*
X34586803Y-30830706D01*
X34586804Y-30830703D01*
X34589034Y-30824133D01*
X34618183Y-30623095D01*
X34619704Y-30565000D01*
X34601116Y-30362712D01*
X34545976Y-30167199D01*
X34532666Y-30140208D01*
X34459200Y-29991236D01*
X34456129Y-29985008D01*
X34442362Y-29966571D01*
X34338742Y-29827808D01*
X34334586Y-29822242D01*
X34185415Y-29684350D01*
X34013614Y-29575952D01*
X33920193Y-29538681D01*
X33831379Y-29503247D01*
X33831374Y-29503246D01*
X33824936Y-29500677D01*
X33625699Y-29461046D01*
X33618756Y-29460955D01*
X33618755Y-29460955D01*
X33547734Y-29460025D01*
X33422577Y-29458387D01*
X33415740Y-29459562D01*
X33415738Y-29459562D01*
X33229214Y-29491613D01*
X33229212Y-29491613D01*
X33222371Y-29492789D01*
X33215858Y-29495192D01*
X33215857Y-29495192D01*
X33038300Y-29560696D01*
X33038298Y-29560697D01*
X33031787Y-29563099D01*
X32983674Y-29591723D01*
X32863168Y-29663416D01*
X32863164Y-29663419D01*
X32857207Y-29666963D01*
X32851997Y-29671532D01*
X32851993Y-29671535D01*
X32722589Y-29785019D01*
X32704478Y-29800902D01*
X32578715Y-29960432D01*
X32575486Y-29966570D01*
X32575485Y-29966571D01*
X32506232Y-30098200D01*
X32484130Y-30140208D01*
X32423891Y-30334211D01*
X32400014Y-30535943D01*
X2082518Y-30535943D01*
X2105176Y-30513443D01*
X2115715Y-30500334D01*
X2203390Y-30362181D01*
X2210766Y-30347058D01*
X2255306Y-30221977D01*
X2256611Y-30205756D01*
X2254208Y-30204098D01*
X2249009Y-30203200D01*
X1153133Y-30203200D01*
X1137412Y-30207412D01*
X1133200Y-30223133D01*
X1133200Y-30784867D01*
X726800Y-30784867D01*
X726800Y-30223133D01*
X722588Y-30207412D01*
X706867Y-30203200D01*
X-381096Y-30203200D01*
X-396817Y-30207412D01*
X-397716Y-30210768D01*
X-2173792Y-30210768D01*
X-2173389Y-30205756D01*
X-2175792Y-30204098D01*
X-2180991Y-30203200D01*
X-3026867Y-30203200D01*
X-3042588Y-30207412D01*
X-3046800Y-30223133D01*
X-3046800Y-30784867D01*
X-3453200Y-30784867D01*
X-3453200Y-30223133D01*
X-3457412Y-30207412D01*
X-3473133Y-30203200D01*
X-4311096Y-30203200D01*
X-4326817Y-30207412D01*
X-4327716Y-30210768D01*
X-4694700Y-30210768D01*
X-4694700Y-29794244D01*
X-4326611Y-29794244D01*
X-4324208Y-29795902D01*
X-4319009Y-29796800D01*
X-3473133Y-29796800D01*
X-3457412Y-29792588D01*
X-3453200Y-29776867D01*
X-3046800Y-29776867D01*
X-3042588Y-29792588D01*
X-3026867Y-29796800D01*
X-2188904Y-29796800D01*
X-2179364Y-29794244D01*
X-396611Y-29794244D01*
X-394208Y-29795902D01*
X-389009Y-29796800D01*
X706867Y-29796800D01*
X722588Y-29792588D01*
X726800Y-29776867D01*
X1133200Y-29776867D01*
X1137412Y-29792588D01*
X1153133Y-29796800D01*
X2241096Y-29796800D01*
X2256817Y-29792588D01*
X2257716Y-29789232D01*
X2257018Y-29785019D01*
X2215540Y-29663177D01*
X2208377Y-29647956D01*
X2122638Y-29508589D01*
X2112282Y-29495334D01*
X1997797Y-29378426D01*
X1984763Y-29367795D01*
X1847217Y-29279153D01*
X1832157Y-29271677D01*
X1678395Y-29215712D01*
X1662039Y-29211756D01*
X1535708Y-29195796D01*
X1526233Y-29195200D01*
X1153133Y-29195200D01*
X1137412Y-29199412D01*
X1133200Y-29215133D01*
X1133200Y-29776867D01*
X726800Y-29776867D01*
X726800Y-29195200D01*
X730524Y-29195200D01*
X730525Y-29150943D01*
X29560014Y-29150943D01*
X29564221Y-29215133D01*
X29569845Y-29300929D01*
X29573300Y-29353648D01*
X29575007Y-29360370D01*
X29575008Y-29360375D01*
X29599924Y-29458478D01*
X29623304Y-29550537D01*
X29626211Y-29556842D01*
X29626211Y-29556843D01*
X29687163Y-29689058D01*
X29708350Y-29735017D01*
X29712356Y-29740686D01*
X29712357Y-29740687D01*
X29749037Y-29792588D01*
X29825592Y-29900910D01*
X29830562Y-29905752D01*
X29830565Y-29905755D01*
X29881102Y-29954986D01*
X29971101Y-30042659D01*
X29976876Y-30046518D01*
X29976880Y-30046521D01*
X30054224Y-30098200D01*
X30140006Y-30155518D01*
X30146387Y-30158260D01*
X30146388Y-30158260D01*
X30294694Y-30221977D01*
X30326649Y-30235706D01*
X30333418Y-30237238D01*
X30333419Y-30237238D01*
X30518009Y-30279006D01*
X30524780Y-30280538D01*
X30531714Y-30280810D01*
X30531718Y-30280811D01*
X30659228Y-30285821D01*
X30727764Y-30288514D01*
X30734640Y-30287517D01*
X30734641Y-30287517D01*
X30794149Y-30278889D01*
X30928802Y-30259365D01*
X30935372Y-30257135D01*
X30935375Y-30257134D01*
X31114592Y-30196297D01*
X31114593Y-30196297D01*
X31121161Y-30194067D01*
X31298400Y-30094809D01*
X31454582Y-29964913D01*
X31584478Y-29808731D01*
X31683736Y-29631492D01*
X31711217Y-29550537D01*
X31746803Y-29445706D01*
X31746804Y-29445703D01*
X31749034Y-29439133D01*
X31778183Y-29238095D01*
X31779704Y-29180000D01*
X31761116Y-28977712D01*
X31705976Y-28782199D01*
X31698147Y-28766322D01*
X31660037Y-28689045D01*
X31616129Y-28600008D01*
X31602362Y-28581571D01*
X31498742Y-28442808D01*
X31494586Y-28437242D01*
X31345415Y-28299350D01*
X31173614Y-28190952D01*
X31080193Y-28153681D01*
X30991379Y-28118247D01*
X30991374Y-28118246D01*
X30984936Y-28115677D01*
X30785699Y-28076046D01*
X30778756Y-28075955D01*
X30778755Y-28075955D01*
X30707734Y-28075025D01*
X30582577Y-28073387D01*
X30575740Y-28074562D01*
X30575738Y-28074562D01*
X30389214Y-28106613D01*
X30389212Y-28106613D01*
X30382371Y-28107789D01*
X30375858Y-28110192D01*
X30375857Y-28110192D01*
X30198300Y-28175696D01*
X30198298Y-28175697D01*
X30191787Y-28178099D01*
X30143674Y-28206723D01*
X30023168Y-28278416D01*
X30023164Y-28278419D01*
X30017207Y-28281963D01*
X30011997Y-28286532D01*
X30011993Y-28286535D01*
X29901951Y-28383039D01*
X29864478Y-28415902D01*
X29738715Y-28575432D01*
X29735486Y-28581570D01*
X29735485Y-28581571D01*
X29666232Y-28713200D01*
X29644130Y-28755208D01*
X29583891Y-28949211D01*
X29560014Y-29150943D01*
X730525Y-29150943D01*
X730525Y-29150655D01*
X769712Y-29082785D01*
X787766Y-29067365D01*
X834900Y-29033121D01*
X936410Y-28910416D01*
X1004216Y-28766322D01*
X1007508Y-28749068D01*
X1032271Y-28619249D01*
X1032271Y-28619248D01*
X1034056Y-28609891D01*
X1024057Y-28450955D01*
X993103Y-28355687D01*
X977789Y-28308555D01*
X977788Y-28308553D01*
X974846Y-28299498D01*
X889515Y-28165038D01*
X836951Y-28115677D01*
X780371Y-28062544D01*
X780367Y-28062541D01*
X773426Y-28056023D01*
X765079Y-28051434D01*
X765076Y-28051432D01*
X642217Y-27983891D01*
X642216Y-27983891D01*
X633873Y-27979304D01*
X479625Y-27939700D01*
X360341Y-27939700D01*
X355626Y-27940296D01*
X355620Y-27940296D01*
X261237Y-27952219D01*
X242005Y-27954649D01*
X93937Y-28013274D01*
X86235Y-28018870D01*
X86231Y-28018872D01*
X28652Y-28060706D01*
X-34900Y-28106879D01*
X-136410Y-28229584D01*
X-204216Y-28373678D01*
X-206001Y-28383036D01*
X-206002Y-28383039D01*
X-232271Y-28520751D01*
X-234056Y-28530109D01*
X-224057Y-28689045D01*
X-174846Y-28840502D01*
X-153356Y-28874365D01*
X-101485Y-28956100D01*
X-89515Y-28974962D01*
X-82575Y-28981479D01*
X-82571Y-28981484D01*
X3350Y-29062169D01*
X44648Y-29128776D01*
X47110Y-29207107D01*
X10076Y-29276175D01*
X-20060Y-29300929D01*
X-115887Y-29360809D01*
X-129065Y-29371254D01*
X-245176Y-29486557D01*
X-255715Y-29499666D01*
X-343390Y-29637819D01*
X-350766Y-29652942D01*
X-395306Y-29778023D01*
X-396611Y-29794244D01*
X-2179364Y-29794244D01*
X-2173183Y-29792588D01*
X-2172284Y-29789232D01*
X-2172982Y-29785019D01*
X-2214460Y-29663177D01*
X-2221623Y-29647956D01*
X-2307362Y-29508589D01*
X-2317718Y-29495334D01*
X-2432203Y-29378426D01*
X-2445237Y-29367795D01*
X-2582783Y-29279153D01*
X-2597843Y-29271677D01*
X-2751605Y-29215712D01*
X-2767961Y-29211756D01*
X-2894292Y-29195796D01*
X-2903767Y-29195200D01*
X-3026867Y-29195200D01*
X-3042588Y-29199412D01*
X-3046800Y-29215133D01*
X-3046800Y-29776867D01*
X-3453200Y-29776867D01*
X-3453200Y-29215133D01*
X-3457412Y-29199412D01*
X-3473133Y-29195200D01*
X-3591160Y-29195200D01*
X-3599612Y-29195673D01*
X-3721019Y-29209291D01*
X-3737420Y-29213016D01*
X-3891953Y-29266830D01*
X-3907120Y-29274098D01*
X-4045887Y-29360809D01*
X-4059065Y-29371254D01*
X-4175176Y-29486557D01*
X-4185715Y-29499666D01*
X-4273390Y-29637819D01*
X-4280766Y-29652942D01*
X-4325306Y-29778023D01*
X-4326611Y-29794244D01*
X-4694700Y-29794244D01*
X-4694700Y-27765943D01*
X32400014Y-27765943D01*
X32402211Y-27799460D01*
X32411442Y-27940296D01*
X32413300Y-27968648D01*
X32415007Y-27975370D01*
X32415008Y-27975375D01*
X32448638Y-28107789D01*
X32463304Y-28165537D01*
X32466211Y-28171842D01*
X32466211Y-28171843D01*
X32527163Y-28304058D01*
X32548350Y-28350017D01*
X32665592Y-28515910D01*
X32670562Y-28520752D01*
X32670565Y-28520755D01*
X32721102Y-28569986D01*
X32811101Y-28657659D01*
X32816876Y-28661518D01*
X32816880Y-28661521D01*
X32894224Y-28713200D01*
X32980006Y-28770518D01*
X32986387Y-28773260D01*
X32986388Y-28773260D01*
X33121818Y-28831445D01*
X33166649Y-28850706D01*
X33173418Y-28852238D01*
X33173419Y-28852238D01*
X33358009Y-28894006D01*
X33364780Y-28895538D01*
X33371714Y-28895810D01*
X33371718Y-28895811D01*
X33499228Y-28900821D01*
X33567764Y-28903514D01*
X33574640Y-28902517D01*
X33574641Y-28902517D01*
X33634149Y-28893889D01*
X33768802Y-28874365D01*
X33775372Y-28872135D01*
X33775375Y-28872134D01*
X33954592Y-28811297D01*
X33954593Y-28811297D01*
X33961161Y-28809067D01*
X34138400Y-28709809D01*
X34294582Y-28579913D01*
X34424478Y-28423731D01*
X34523736Y-28246492D01*
X34547768Y-28175696D01*
X34586803Y-28060706D01*
X34586804Y-28060703D01*
X34589034Y-28054133D01*
X34618183Y-27853095D01*
X34619704Y-27795000D01*
X34601116Y-27592712D01*
X34545976Y-27397199D01*
X34532666Y-27370208D01*
X34459200Y-27221236D01*
X34456129Y-27215008D01*
X34442362Y-27196571D01*
X34338742Y-27057808D01*
X34334586Y-27052242D01*
X34185415Y-26914350D01*
X34013614Y-26805952D01*
X33920193Y-26768681D01*
X33831379Y-26733247D01*
X33831374Y-26733246D01*
X33824936Y-26730677D01*
X33625699Y-26691046D01*
X33618756Y-26690955D01*
X33618755Y-26690955D01*
X33547734Y-26690025D01*
X33422577Y-26688387D01*
X33415740Y-26689562D01*
X33415738Y-26689562D01*
X33229214Y-26721613D01*
X33229212Y-26721613D01*
X33222371Y-26722789D01*
X33215858Y-26725192D01*
X33215857Y-26725192D01*
X33038300Y-26790696D01*
X33038298Y-26790697D01*
X33031787Y-26793099D01*
X32983674Y-26821723D01*
X32863168Y-26893416D01*
X32863164Y-26893419D01*
X32857207Y-26896963D01*
X32851997Y-26901532D01*
X32851993Y-26901535D01*
X32773140Y-26970687D01*
X32704478Y-27030902D01*
X32578715Y-27190432D01*
X32575486Y-27196570D01*
X32575485Y-27196571D01*
X32506232Y-27328200D01*
X32484130Y-27370208D01*
X32423891Y-27564211D01*
X32400014Y-27765943D01*
X-4694700Y-27765943D01*
X-4694700Y-26100000D01*
X15489477Y-26100000D01*
X15510280Y-26258015D01*
X15571272Y-26405261D01*
X15668295Y-26531705D01*
X15794738Y-26628728D01*
X15803902Y-26632524D01*
X15803904Y-26632525D01*
X15932815Y-26685922D01*
X15932817Y-26685923D01*
X15941985Y-26689720D01*
X16100000Y-26710523D01*
X16258015Y-26689720D01*
X16267183Y-26685923D01*
X16267185Y-26685922D01*
X16396096Y-26632525D01*
X16396098Y-26632524D01*
X16405262Y-26628728D01*
X16531705Y-26531705D01*
X16628728Y-26405261D01*
X16638801Y-26380943D01*
X29560014Y-26380943D01*
X29573300Y-26583648D01*
X29575007Y-26590370D01*
X29575008Y-26590375D01*
X29608339Y-26721613D01*
X29623304Y-26780537D01*
X29626211Y-26786842D01*
X29626211Y-26786843D01*
X29687163Y-26919058D01*
X29708350Y-26965017D01*
X29825592Y-27130910D01*
X29830562Y-27135752D01*
X29830565Y-27135755D01*
X29881102Y-27184986D01*
X29971101Y-27272659D01*
X29976876Y-27276518D01*
X29976880Y-27276521D01*
X30054224Y-27328200D01*
X30140006Y-27385518D01*
X30326649Y-27465706D01*
X30333418Y-27467238D01*
X30333419Y-27467238D01*
X30518009Y-27509006D01*
X30524780Y-27510538D01*
X30531714Y-27510810D01*
X30531718Y-27510811D01*
X30659228Y-27515821D01*
X30727764Y-27518514D01*
X30734640Y-27517517D01*
X30734641Y-27517517D01*
X30794149Y-27508889D01*
X30928802Y-27489365D01*
X30935372Y-27487135D01*
X30935375Y-27487134D01*
X31114592Y-27426297D01*
X31114593Y-27426297D01*
X31121161Y-27424067D01*
X31298400Y-27324809D01*
X31454582Y-27194913D01*
X31584478Y-27038731D01*
X31683736Y-26861492D01*
X31711217Y-26780537D01*
X31746803Y-26675706D01*
X31746804Y-26675703D01*
X31749034Y-26669133D01*
X31778183Y-26468095D01*
X31779704Y-26410000D01*
X31761116Y-26207712D01*
X31705976Y-26012199D01*
X31692666Y-25985208D01*
X31619200Y-25836236D01*
X31616129Y-25830008D01*
X31602362Y-25811571D01*
X31498742Y-25672808D01*
X31494586Y-25667242D01*
X31345415Y-25529350D01*
X31173614Y-25420952D01*
X31080193Y-25383681D01*
X30991379Y-25348247D01*
X30991374Y-25348246D01*
X30984936Y-25345677D01*
X30785699Y-25306046D01*
X30778756Y-25305955D01*
X30778755Y-25305955D01*
X30707734Y-25305025D01*
X30582577Y-25303387D01*
X30575740Y-25304562D01*
X30575738Y-25304562D01*
X30389214Y-25336613D01*
X30389212Y-25336613D01*
X30382371Y-25337789D01*
X30375858Y-25340192D01*
X30375857Y-25340192D01*
X30198300Y-25405696D01*
X30198298Y-25405697D01*
X30191787Y-25408099D01*
X30143674Y-25436723D01*
X30023168Y-25508416D01*
X30023164Y-25508419D01*
X30017207Y-25511963D01*
X30011997Y-25516532D01*
X30011993Y-25516535D01*
X29869691Y-25641330D01*
X29864478Y-25645902D01*
X29738715Y-25805432D01*
X29735486Y-25811570D01*
X29735485Y-25811571D01*
X29666232Y-25943200D01*
X29644130Y-25985208D01*
X29583891Y-26179211D01*
X29560014Y-26380943D01*
X16638801Y-26380943D01*
X16689720Y-26258015D01*
X16710523Y-26100000D01*
X16689720Y-25941985D01*
X16667218Y-25887659D01*
X16632525Y-25803905D01*
X16632524Y-25803903D01*
X16628728Y-25794739D01*
X16531705Y-25668295D01*
X16519682Y-25659069D01*
X16496563Y-25641330D01*
X16405262Y-25571272D01*
X16396098Y-25567476D01*
X16396096Y-25567475D01*
X16267185Y-25514078D01*
X16267183Y-25514077D01*
X16258015Y-25510280D01*
X16100000Y-25489477D01*
X15941985Y-25510280D01*
X15932818Y-25514077D01*
X15932815Y-25514078D01*
X15803905Y-25567475D01*
X15803903Y-25567476D01*
X15794739Y-25571272D01*
X15668295Y-25668295D01*
X15571272Y-25794739D01*
X15567476Y-25803903D01*
X15567475Y-25803905D01*
X15532783Y-25887659D01*
X15510280Y-25941985D01*
X15489477Y-26100000D01*
X-4694700Y-26100000D01*
X-4694700Y-25100000D01*
X22489477Y-25100000D01*
X22510280Y-25258015D01*
X22514077Y-25267182D01*
X22514078Y-25267185D01*
X22564455Y-25388804D01*
X22571272Y-25405261D01*
X22668295Y-25531705D01*
X22794738Y-25628728D01*
X22803902Y-25632524D01*
X22803904Y-25632525D01*
X22932815Y-25685922D01*
X22932817Y-25685923D01*
X22941985Y-25689720D01*
X23100000Y-25710523D01*
X23258015Y-25689720D01*
X23267183Y-25685923D01*
X23267185Y-25685922D01*
X23396096Y-25632525D01*
X23396098Y-25632524D01*
X23405262Y-25628728D01*
X23531705Y-25531705D01*
X23628728Y-25405261D01*
X23635545Y-25388804D01*
X23685922Y-25267185D01*
X23685923Y-25267182D01*
X23689720Y-25258015D01*
X23710523Y-25100000D01*
X23696824Y-24995943D01*
X32400014Y-24995943D01*
X32413300Y-25198648D01*
X32415007Y-25205370D01*
X32415008Y-25205375D01*
X32439924Y-25303478D01*
X32463304Y-25395537D01*
X32466211Y-25401842D01*
X32466211Y-25401843D01*
X32544319Y-25571272D01*
X32548350Y-25580017D01*
X32665592Y-25745910D01*
X32670562Y-25750752D01*
X32670565Y-25750755D01*
X32707636Y-25786868D01*
X32811101Y-25887659D01*
X32816876Y-25891518D01*
X32816880Y-25891521D01*
X32892405Y-25941985D01*
X32980006Y-26000518D01*
X33166649Y-26080706D01*
X33173418Y-26082238D01*
X33173419Y-26082238D01*
X33358009Y-26124006D01*
X33364780Y-26125538D01*
X33371714Y-26125810D01*
X33371718Y-26125811D01*
X33499228Y-26130821D01*
X33567764Y-26133514D01*
X33574640Y-26132517D01*
X33574641Y-26132517D01*
X33634149Y-26123889D01*
X33768802Y-26104365D01*
X33775372Y-26102135D01*
X33775375Y-26102134D01*
X33954592Y-26041297D01*
X33954593Y-26041297D01*
X33961161Y-26039067D01*
X34138400Y-25939809D01*
X34294582Y-25809913D01*
X34424478Y-25653731D01*
X34523736Y-25476492D01*
X34549076Y-25401843D01*
X34586803Y-25290706D01*
X34586804Y-25290703D01*
X34589034Y-25284133D01*
X34618183Y-25083095D01*
X34619704Y-25025000D01*
X34601116Y-24822712D01*
X34545976Y-24627199D01*
X34532666Y-24600208D01*
X34459200Y-24451236D01*
X34456129Y-24445008D01*
X34442362Y-24426571D01*
X34338742Y-24287808D01*
X34334586Y-24282242D01*
X34185415Y-24144350D01*
X34013614Y-24035952D01*
X33920193Y-23998681D01*
X33831379Y-23963247D01*
X33831374Y-23963246D01*
X33824936Y-23960677D01*
X33625699Y-23921046D01*
X33618756Y-23920955D01*
X33618755Y-23920955D01*
X33547734Y-23920025D01*
X33422577Y-23918387D01*
X33415740Y-23919562D01*
X33415738Y-23919562D01*
X33229214Y-23951613D01*
X33229212Y-23951613D01*
X33222371Y-23952789D01*
X33215858Y-23955192D01*
X33215857Y-23955192D01*
X33038300Y-24020696D01*
X33038298Y-24020697D01*
X33031787Y-24023099D01*
X32983674Y-24051723D01*
X32863168Y-24123416D01*
X32863164Y-24123419D01*
X32857207Y-24126963D01*
X32851997Y-24131532D01*
X32851993Y-24131535D01*
X32741626Y-24228324D01*
X32704478Y-24260902D01*
X32578715Y-24420432D01*
X32575486Y-24426570D01*
X32575485Y-24426571D01*
X32501352Y-24567475D01*
X32484130Y-24600208D01*
X32423891Y-24794211D01*
X32423076Y-24801100D01*
X32403982Y-24962422D01*
X32400014Y-24995943D01*
X23696824Y-24995943D01*
X23689720Y-24941985D01*
X23676068Y-24909025D01*
X23632525Y-24803905D01*
X23632524Y-24803903D01*
X23628728Y-24794739D01*
X23531705Y-24668295D01*
X23405262Y-24571272D01*
X23396098Y-24567476D01*
X23396096Y-24567475D01*
X23267185Y-24514078D01*
X23267183Y-24514077D01*
X23258015Y-24510280D01*
X23100000Y-24489477D01*
X22941985Y-24510280D01*
X22932818Y-24514077D01*
X22932815Y-24514078D01*
X22803905Y-24567475D01*
X22803903Y-24567476D01*
X22794739Y-24571272D01*
X22668295Y-24668295D01*
X22571272Y-24794739D01*
X22567476Y-24803903D01*
X22567475Y-24803905D01*
X22523933Y-24909025D01*
X22510280Y-24941985D01*
X22489477Y-25100000D01*
X-4694700Y-25100000D01*
X-4694700Y-24376500D01*
X2789477Y-24376500D01*
X2810280Y-24534515D01*
X2814077Y-24543682D01*
X2814078Y-24543685D01*
X2860724Y-24656297D01*
X2871272Y-24681761D01*
X2968295Y-24808205D01*
X3094738Y-24905228D01*
X3103902Y-24909024D01*
X3103904Y-24909025D01*
X3232815Y-24962422D01*
X3232817Y-24962423D01*
X3241985Y-24966220D01*
X3400000Y-24987023D01*
X3558015Y-24966220D01*
X3567183Y-24962423D01*
X3567185Y-24962422D01*
X3696096Y-24909025D01*
X3696098Y-24909024D01*
X3705262Y-24905228D01*
X3831705Y-24808205D01*
X3928728Y-24681761D01*
X3939276Y-24656297D01*
X3985922Y-24543685D01*
X3985923Y-24543682D01*
X3989720Y-24534515D01*
X4010523Y-24376500D01*
X3989720Y-24218485D01*
X3977389Y-24188714D01*
X3932525Y-24080405D01*
X3932524Y-24080403D01*
X3928728Y-24071239D01*
X3831705Y-23944795D01*
X3705262Y-23847772D01*
X3696098Y-23843976D01*
X3696096Y-23843975D01*
X3567185Y-23790578D01*
X3567183Y-23790577D01*
X3558015Y-23786780D01*
X3400000Y-23765977D01*
X3241985Y-23786780D01*
X3232818Y-23790577D01*
X3232815Y-23790578D01*
X3103905Y-23843975D01*
X3103903Y-23843976D01*
X3094739Y-23847772D01*
X2968295Y-23944795D01*
X2871272Y-24071239D01*
X2867476Y-24080403D01*
X2867475Y-24080405D01*
X2822612Y-24188714D01*
X2810280Y-24218485D01*
X2789477Y-24376500D01*
X-4694700Y-24376500D01*
X-4694700Y-21570768D01*
X-4327716Y-21570768D01*
X-4327018Y-21574981D01*
X-4285540Y-21696823D01*
X-4278377Y-21712044D01*
X-4192638Y-21851411D01*
X-4182282Y-21864666D01*
X-4067797Y-21981574D01*
X-4054763Y-21992205D01*
X-3917217Y-22080847D01*
X-3902157Y-22088323D01*
X-3748395Y-22144288D01*
X-3732039Y-22148244D01*
X-3605708Y-22164204D01*
X-3596233Y-22164800D01*
X-3473133Y-22164800D01*
X-3457412Y-22160588D01*
X-3453200Y-22144867D01*
X-3046800Y-22144867D01*
X-3042588Y-22160588D01*
X-3026867Y-22164800D01*
X-2908840Y-22164800D01*
X-2900388Y-22164327D01*
X-2778981Y-22150709D01*
X-2762580Y-22146984D01*
X-2608047Y-22093170D01*
X-2592880Y-22085902D01*
X-2454113Y-21999191D01*
X-2440935Y-21988746D01*
X-2324824Y-21873443D01*
X-2314285Y-21860334D01*
X-2226610Y-21722181D01*
X-2219234Y-21707058D01*
X-2174694Y-21581977D01*
X-2173792Y-21570768D01*
X-397716Y-21570768D01*
X-397018Y-21574981D01*
X-355540Y-21696823D01*
X-348377Y-21712044D01*
X-262638Y-21851411D01*
X-252282Y-21864666D01*
X-137797Y-21981574D01*
X-124763Y-21992205D01*
X-18892Y-22060434D01*
X33751Y-22118492D01*
X50312Y-22195092D01*
X26355Y-22269711D01*
X-11917Y-22310181D01*
X-34900Y-22326879D01*
X-136410Y-22449584D01*
X-204216Y-22593678D01*
X-206001Y-22603036D01*
X-206002Y-22603039D01*
X-231826Y-22738416D01*
X-234056Y-22750109D01*
X-224057Y-22909045D01*
X-206425Y-22963311D01*
X-183271Y-23034571D01*
X-174846Y-23060502D01*
X-169742Y-23068544D01*
X-104140Y-23171916D01*
X-89515Y-23194962D01*
X-82574Y-23201480D01*
X19629Y-23297456D01*
X19633Y-23297459D01*
X26574Y-23303977D01*
X34921Y-23308566D01*
X34924Y-23308568D01*
X157783Y-23376109D01*
X166127Y-23380696D01*
X320375Y-23420300D01*
X439659Y-23420300D01*
X444374Y-23419704D01*
X444380Y-23419704D01*
X548543Y-23406545D01*
X557995Y-23405351D01*
X706063Y-23346726D01*
X713765Y-23341130D01*
X713769Y-23341128D01*
X780617Y-23292560D01*
X6589559Y-23292560D01*
X6597362Y-23363241D01*
X6603401Y-23417933D01*
X6608292Y-23462239D01*
X6666958Y-23622551D01*
X6672047Y-23630125D01*
X6672049Y-23630128D01*
X6757081Y-23756669D01*
X6762170Y-23764242D01*
X6768915Y-23770379D01*
X6768918Y-23770383D01*
X6881679Y-23872988D01*
X6881683Y-23872991D01*
X6888432Y-23879132D01*
X6896452Y-23883486D01*
X6896454Y-23883488D01*
X6968123Y-23922401D01*
X7038455Y-23960588D01*
X7047281Y-23962904D01*
X7047285Y-23962905D01*
X7194748Y-24001591D01*
X7194750Y-24001591D01*
X7203577Y-24003907D01*
X7284213Y-24005174D01*
X7365135Y-24006445D01*
X7365138Y-24006445D01*
X7374265Y-24006588D01*
X7383163Y-24004550D01*
X7383164Y-24004550D01*
X7423405Y-23995334D01*
X7540667Y-23968477D01*
X7548822Y-23964375D01*
X7548826Y-23964374D01*
X7685016Y-23895877D01*
X7693174Y-23891774D01*
X7822982Y-23780907D01*
X7828308Y-23773496D01*
X7828310Y-23773493D01*
X7917272Y-23649688D01*
X7922598Y-23642276D01*
X7943289Y-23590807D01*
X11765200Y-23590807D01*
X11765730Y-23599737D01*
X11767020Y-23610580D01*
X11772972Y-23632239D01*
X11808781Y-23712856D01*
X11824348Y-23735507D01*
X11884924Y-23795978D01*
X11907595Y-23811501D01*
X11988254Y-23847160D01*
X12009977Y-23853082D01*
X12020344Y-23854291D01*
X12029110Y-23854800D01*
X12696867Y-23854800D01*
X12712588Y-23850588D01*
X12716800Y-23834867D01*
X12716800Y-22923133D01*
X12712588Y-22907412D01*
X12696867Y-22903200D01*
X11785133Y-22903200D01*
X11769412Y-22907412D01*
X11765200Y-22923133D01*
X11765200Y-23590807D01*
X7943289Y-23590807D01*
X7986271Y-23483886D01*
X8010324Y-23314879D01*
X8010480Y-23300000D01*
X7989971Y-23130527D01*
X7937596Y-22991919D01*
X7932857Y-22979376D01*
X7932855Y-22979373D01*
X7929630Y-22970837D01*
X7924464Y-22963320D01*
X7924459Y-22963311D01*
X7871042Y-22885590D01*
X7844881Y-22811715D01*
X7859162Y-22734657D01*
X7872865Y-22711488D01*
X7917269Y-22649694D01*
X7917273Y-22649686D01*
X7922598Y-22642276D01*
X7986271Y-22483886D01*
X8010324Y-22314879D01*
X8010480Y-22300000D01*
X7989971Y-22130527D01*
X7940344Y-21999191D01*
X7932857Y-21979376D01*
X7932855Y-21979373D01*
X7929630Y-21970837D01*
X7915558Y-21950361D01*
X7838106Y-21837669D01*
X7832939Y-21830151D01*
X7727851Y-21736521D01*
X7712294Y-21722660D01*
X7712293Y-21722659D01*
X7705481Y-21716590D01*
X7697417Y-21712320D01*
X7697415Y-21712319D01*
X7562682Y-21640982D01*
X7562680Y-21640981D01*
X7554613Y-21636710D01*
X7389047Y-21595122D01*
X7379920Y-21595074D01*
X7379918Y-21595074D01*
X7302870Y-21594671D01*
X7218339Y-21594229D01*
X7209464Y-21596360D01*
X7209461Y-21596360D01*
X7104766Y-21621495D01*
X7052347Y-21634080D01*
X6900651Y-21712376D01*
X6872973Y-21736521D01*
X6778887Y-21818596D01*
X6778883Y-21818600D01*
X6772010Y-21824596D01*
X6673852Y-21964262D01*
X6611841Y-22123311D01*
X6610651Y-22132352D01*
X6610650Y-22132355D01*
X6591647Y-22276701D01*
X6589559Y-22292560D01*
X6608292Y-22462239D01*
X6611429Y-22470811D01*
X6649805Y-22575677D01*
X6666958Y-22622551D01*
X6729679Y-22715890D01*
X6755063Y-22790032D01*
X6739975Y-22866937D01*
X6727888Y-22887376D01*
X6673852Y-22964262D01*
X6611841Y-23123311D01*
X6610651Y-23132352D01*
X6610650Y-23132355D01*
X6592652Y-23269067D01*
X6589559Y-23292560D01*
X780617Y-23292560D01*
X827192Y-23258721D01*
X834900Y-23253121D01*
X936410Y-23130416D01*
X1004216Y-22986322D01*
X1007167Y-22970855D01*
X1032271Y-22839249D01*
X1032271Y-22839248D01*
X1034056Y-22829891D01*
X1024057Y-22670955D01*
X990537Y-22567789D01*
X977789Y-22528555D01*
X977788Y-22528553D01*
X974846Y-22519498D01*
X912798Y-22421726D01*
X894619Y-22393080D01*
X894617Y-22393078D01*
X889515Y-22385038D01*
X774148Y-22276701D01*
X732851Y-22210094D01*
X732135Y-22164800D01*
X726800Y-22164800D01*
X726800Y-22144867D01*
X1133200Y-22144867D01*
X1137412Y-22160588D01*
X1153133Y-22164800D01*
X1521160Y-22164800D01*
X1529612Y-22164327D01*
X1651019Y-22150709D01*
X1667420Y-22146984D01*
X1821953Y-22093170D01*
X1837120Y-22085902D01*
X1975887Y-21999191D01*
X1989065Y-21988746D01*
X2105176Y-21873443D01*
X2115715Y-21860334D01*
X2203390Y-21722181D01*
X2210766Y-21707058D01*
X2255306Y-21581977D01*
X2256611Y-21565756D01*
X2254208Y-21564098D01*
X2249009Y-21563200D01*
X1153133Y-21563200D01*
X1137412Y-21567412D01*
X1133200Y-21583133D01*
X1133200Y-22144867D01*
X726800Y-22144867D01*
X726800Y-21583133D01*
X722588Y-21567412D01*
X706867Y-21563200D01*
X-381096Y-21563200D01*
X-396817Y-21567412D01*
X-397716Y-21570768D01*
X-2173792Y-21570768D01*
X-2173389Y-21565756D01*
X-2175792Y-21564098D01*
X-2180991Y-21563200D01*
X-3026867Y-21563200D01*
X-3042588Y-21567412D01*
X-3046800Y-21583133D01*
X-3046800Y-22144867D01*
X-3453200Y-22144867D01*
X-3453200Y-21583133D01*
X-3457412Y-21567412D01*
X-3473133Y-21563200D01*
X-4311096Y-21563200D01*
X-4326817Y-21567412D01*
X-4327716Y-21570768D01*
X-4694700Y-21570768D01*
X-4694700Y-21154244D01*
X-4326611Y-21154244D01*
X-4324208Y-21155902D01*
X-4319009Y-21156800D01*
X-3473133Y-21156800D01*
X-3457412Y-21152588D01*
X-3453200Y-21136867D01*
X-3046800Y-21136867D01*
X-3042588Y-21152588D01*
X-3026867Y-21156800D01*
X-2188904Y-21156800D01*
X-2179364Y-21154244D01*
X-396611Y-21154244D01*
X-394208Y-21155902D01*
X-389009Y-21156800D01*
X706867Y-21156800D01*
X722588Y-21152588D01*
X726800Y-21136867D01*
X1133200Y-21136867D01*
X1137412Y-21152588D01*
X1153133Y-21156800D01*
X2241096Y-21156800D01*
X2256817Y-21152588D01*
X2257716Y-21149232D01*
X2257018Y-21145019D01*
X2215540Y-21023177D01*
X2208377Y-21007956D01*
X2122638Y-20868589D01*
X2112282Y-20855334D01*
X1997797Y-20738426D01*
X1984763Y-20727795D01*
X1847217Y-20639153D01*
X1832157Y-20631677D01*
X1678395Y-20575712D01*
X1662039Y-20571756D01*
X1535708Y-20555796D01*
X1526233Y-20555200D01*
X1153133Y-20555200D01*
X1137412Y-20559412D01*
X1133200Y-20575133D01*
X1133200Y-21136867D01*
X726800Y-21136867D01*
X726800Y-20575133D01*
X722588Y-20559412D01*
X706867Y-20555200D01*
X338840Y-20555200D01*
X330388Y-20555673D01*
X208981Y-20569291D01*
X192580Y-20573016D01*
X38047Y-20626830D01*
X22880Y-20634098D01*
X-115887Y-20720809D01*
X-129065Y-20731254D01*
X-245176Y-20846557D01*
X-255715Y-20859666D01*
X-343390Y-20997819D01*
X-350766Y-21012942D01*
X-395306Y-21138023D01*
X-396611Y-21154244D01*
X-2179364Y-21154244D01*
X-2173183Y-21152588D01*
X-2172284Y-21149232D01*
X-2172982Y-21145019D01*
X-2214460Y-21023177D01*
X-2221623Y-21007956D01*
X-2307362Y-20868589D01*
X-2317718Y-20855334D01*
X-2432203Y-20738426D01*
X-2445237Y-20727795D01*
X-2582783Y-20639153D01*
X-2597843Y-20631677D01*
X-2751605Y-20575712D01*
X-2767961Y-20571756D01*
X-2894292Y-20555796D01*
X-2903767Y-20555200D01*
X-3026867Y-20555200D01*
X-3042588Y-20559412D01*
X-3046800Y-20575133D01*
X-3046800Y-21136867D01*
X-3453200Y-21136867D01*
X-3453200Y-20575133D01*
X-3457412Y-20559412D01*
X-3473133Y-20555200D01*
X-3591160Y-20555200D01*
X-3599612Y-20555673D01*
X-3721019Y-20569291D01*
X-3737420Y-20573016D01*
X-3891953Y-20626830D01*
X-3907120Y-20634098D01*
X-4045887Y-20720809D01*
X-4059065Y-20731254D01*
X-4175176Y-20846557D01*
X-4185715Y-20859666D01*
X-4273390Y-20997819D01*
X-4280766Y-21012942D01*
X-4325306Y-21138023D01*
X-4326611Y-21154244D01*
X-4694700Y-21154244D01*
X-4694700Y-20129628D01*
X11760149Y-20129628D01*
X11760603Y-20136550D01*
X11773392Y-20331672D01*
X11774036Y-20341503D01*
X11775742Y-20348222D01*
X11775743Y-20348226D01*
X11807228Y-20472199D01*
X11826301Y-20547299D01*
X11868673Y-20639211D01*
X11906291Y-20720809D01*
X11915195Y-20740124D01*
X12037740Y-20913521D01*
X12042710Y-20918363D01*
X12042713Y-20918366D01*
X12184860Y-21056840D01*
X12184863Y-21056843D01*
X12189832Y-21061683D01*
X12195602Y-21065539D01*
X12195604Y-21065540D01*
X12325880Y-21152588D01*
X12366377Y-21179647D01*
X12388901Y-21189324D01*
X12541057Y-21254695D01*
X12602603Y-21303213D01*
X12631644Y-21376005D01*
X12620398Y-21453564D01*
X12571880Y-21515110D01*
X12499088Y-21544151D01*
X12481293Y-21545200D01*
X12029193Y-21545200D01*
X12020263Y-21545730D01*
X12009420Y-21547020D01*
X11987761Y-21552972D01*
X11907144Y-21588781D01*
X11884493Y-21604348D01*
X11824022Y-21664924D01*
X11808499Y-21687595D01*
X11772840Y-21768254D01*
X11766918Y-21789977D01*
X11765709Y-21800344D01*
X11765200Y-21809110D01*
X11765200Y-22476867D01*
X11769412Y-22492588D01*
X11785133Y-22496800D01*
X12971800Y-22496800D01*
X13047500Y-22517084D01*
X13102916Y-22572500D01*
X13123200Y-22648200D01*
X13123200Y-23834867D01*
X13127412Y-23850588D01*
X13143133Y-23854800D01*
X13810807Y-23854800D01*
X13819737Y-23854270D01*
X13830580Y-23852980D01*
X13852239Y-23847028D01*
X13932856Y-23811219D01*
X13955507Y-23795652D01*
X14015978Y-23735076D01*
X14031501Y-23712405D01*
X14067160Y-23631746D01*
X14073082Y-23610023D01*
X14074291Y-23599656D01*
X14074800Y-23590890D01*
X14074800Y-23143319D01*
X14095084Y-23067619D01*
X14150500Y-23012203D01*
X14226200Y-22991919D01*
X14301900Y-23012203D01*
X14357316Y-23067619D01*
X14366194Y-23086877D01*
X14366301Y-23087299D01*
X14369204Y-23093596D01*
X14369205Y-23093599D01*
X14452289Y-23273821D01*
X14455195Y-23280124D01*
X14577740Y-23453521D01*
X14582710Y-23458363D01*
X14582713Y-23458366D01*
X14724860Y-23596840D01*
X14724863Y-23596843D01*
X14729832Y-23601683D01*
X14735602Y-23605539D01*
X14735604Y-23605540D01*
X14900603Y-23715789D01*
X14906377Y-23719647D01*
X14912757Y-23722388D01*
X15095089Y-23800724D01*
X15095093Y-23800725D01*
X15101463Y-23803462D01*
X15108222Y-23804992D01*
X15108227Y-23804993D01*
X15301789Y-23848792D01*
X15301794Y-23848793D01*
X15308557Y-23850323D01*
X15315488Y-23850595D01*
X15315493Y-23850596D01*
X15462217Y-23856360D01*
X15520723Y-23858659D01*
X15527599Y-23857662D01*
X15527600Y-23857662D01*
X15723981Y-23829188D01*
X15723984Y-23829187D01*
X15730855Y-23828191D01*
X15931916Y-23759940D01*
X16117172Y-23656192D01*
X16141980Y-23635560D01*
X16275085Y-23524857D01*
X16280420Y-23520420D01*
X16349208Y-23437712D01*
X16411751Y-23362512D01*
X16411752Y-23362510D01*
X16416192Y-23357172D01*
X16519940Y-23171916D01*
X16588191Y-22970855D01*
X16590360Y-22971591D01*
X16622382Y-22912618D01*
X16689206Y-22871672D01*
X16767549Y-22869624D01*
X16836421Y-22907021D01*
X16878942Y-22979572D01*
X16880656Y-22986322D01*
X16906301Y-23087299D01*
X16942292Y-23165369D01*
X16991126Y-23271297D01*
X16995195Y-23280124D01*
X17117740Y-23453521D01*
X17122710Y-23458363D01*
X17122713Y-23458366D01*
X17264860Y-23596840D01*
X17264863Y-23596843D01*
X17269832Y-23601683D01*
X17275602Y-23605539D01*
X17275604Y-23605540D01*
X17440603Y-23715789D01*
X17446377Y-23719647D01*
X17452757Y-23722388D01*
X17635089Y-23800724D01*
X17635093Y-23800725D01*
X17641463Y-23803462D01*
X17648222Y-23804992D01*
X17648227Y-23804993D01*
X17841789Y-23848792D01*
X17841794Y-23848793D01*
X17848557Y-23850323D01*
X17855488Y-23850595D01*
X17855493Y-23850596D01*
X18002217Y-23856360D01*
X18060723Y-23858659D01*
X18067599Y-23857662D01*
X18067600Y-23857662D01*
X18263981Y-23829188D01*
X18263984Y-23829187D01*
X18270855Y-23828191D01*
X18471916Y-23759940D01*
X18657172Y-23656192D01*
X18681980Y-23635560D01*
X18815085Y-23524857D01*
X18820420Y-23520420D01*
X18889208Y-23437712D01*
X18951751Y-23362512D01*
X18951752Y-23362510D01*
X18956192Y-23357172D01*
X19059940Y-23171916D01*
X19128191Y-22970855D01*
X19130360Y-22971591D01*
X19162382Y-22912618D01*
X19229206Y-22871672D01*
X19307549Y-22869624D01*
X19376421Y-22907021D01*
X19418942Y-22979572D01*
X19420656Y-22986322D01*
X19446301Y-23087299D01*
X19482292Y-23165369D01*
X19531126Y-23271297D01*
X19535195Y-23280124D01*
X19657740Y-23453521D01*
X19662710Y-23458363D01*
X19662713Y-23458366D01*
X19804860Y-23596840D01*
X19804863Y-23596843D01*
X19809832Y-23601683D01*
X19815602Y-23605539D01*
X19815604Y-23605540D01*
X19980603Y-23715789D01*
X19986377Y-23719647D01*
X19992757Y-23722388D01*
X20175089Y-23800724D01*
X20175093Y-23800725D01*
X20181463Y-23803462D01*
X20188222Y-23804992D01*
X20188227Y-23804993D01*
X20381789Y-23848792D01*
X20381794Y-23848793D01*
X20388557Y-23850323D01*
X20395488Y-23850595D01*
X20395493Y-23850596D01*
X20542217Y-23856360D01*
X20600723Y-23858659D01*
X20607599Y-23857662D01*
X20607600Y-23857662D01*
X20803981Y-23829188D01*
X20803984Y-23829187D01*
X20810855Y-23828191D01*
X21011916Y-23759940D01*
X21197172Y-23656192D01*
X21221980Y-23635560D01*
X21251579Y-23610943D01*
X29560014Y-23610943D01*
X29562689Y-23651751D01*
X29572733Y-23804993D01*
X29573300Y-23813648D01*
X29575007Y-23820370D01*
X29575008Y-23820375D01*
X29621032Y-24001591D01*
X29623304Y-24010537D01*
X29626211Y-24016842D01*
X29626211Y-24016843D01*
X29687163Y-24149058D01*
X29708350Y-24195017D01*
X29712356Y-24200686D01*
X29712357Y-24200687D01*
X29731889Y-24228324D01*
X29825592Y-24360910D01*
X29830562Y-24365752D01*
X29830565Y-24365755D01*
X29851693Y-24386337D01*
X29971101Y-24502659D01*
X29976876Y-24506518D01*
X29976880Y-24506521D01*
X30054224Y-24558200D01*
X30140006Y-24615518D01*
X30146387Y-24618260D01*
X30146388Y-24618260D01*
X30272857Y-24672595D01*
X30326649Y-24695706D01*
X30333418Y-24697238D01*
X30333419Y-24697238D01*
X30518009Y-24739006D01*
X30524780Y-24740538D01*
X30531714Y-24740810D01*
X30531718Y-24740811D01*
X30659228Y-24745821D01*
X30727764Y-24748514D01*
X30734640Y-24747517D01*
X30734641Y-24747517D01*
X30794149Y-24738889D01*
X30928802Y-24719365D01*
X30935372Y-24717135D01*
X30935375Y-24717134D01*
X31114592Y-24656297D01*
X31114593Y-24656297D01*
X31121161Y-24654067D01*
X31298400Y-24554809D01*
X31454582Y-24424913D01*
X31584478Y-24268731D01*
X31683736Y-24091492D01*
X31711217Y-24010537D01*
X31746803Y-23905706D01*
X31746804Y-23905703D01*
X31749034Y-23899133D01*
X31778183Y-23698095D01*
X31779704Y-23640000D01*
X31761116Y-23437712D01*
X31705976Y-23242199D01*
X31692666Y-23215208D01*
X31650905Y-23130527D01*
X31616129Y-23060008D01*
X31602362Y-23041571D01*
X31539060Y-22956800D01*
X31494586Y-22897242D01*
X31345415Y-22759350D01*
X31173614Y-22650952D01*
X31080193Y-22613681D01*
X30991379Y-22578247D01*
X30991374Y-22578246D01*
X30984936Y-22575677D01*
X30785699Y-22536046D01*
X30778756Y-22535955D01*
X30778755Y-22535955D01*
X30707734Y-22535025D01*
X30582577Y-22533387D01*
X30575740Y-22534562D01*
X30575738Y-22534562D01*
X30389214Y-22566613D01*
X30389212Y-22566613D01*
X30382371Y-22567789D01*
X30375858Y-22570192D01*
X30375857Y-22570192D01*
X30198300Y-22635696D01*
X30198298Y-22635697D01*
X30191787Y-22638099D01*
X30143674Y-22666723D01*
X30023168Y-22738416D01*
X30023164Y-22738419D01*
X30017207Y-22741963D01*
X30011997Y-22746532D01*
X30011993Y-22746535D01*
X29869691Y-22871330D01*
X29864478Y-22875902D01*
X29738715Y-23035432D01*
X29735486Y-23041570D01*
X29735485Y-23041571D01*
X29651353Y-23201480D01*
X29644130Y-23215208D01*
X29583891Y-23409211D01*
X29560014Y-23610943D01*
X21251579Y-23610943D01*
X21355085Y-23524857D01*
X21360420Y-23520420D01*
X21429208Y-23437712D01*
X21491751Y-23362512D01*
X21491752Y-23362510D01*
X21496192Y-23357172D01*
X21599940Y-23171916D01*
X21668191Y-22970855D01*
X21675111Y-22923133D01*
X21690008Y-22820384D01*
X21698659Y-22760723D01*
X21700249Y-22700000D01*
X21697458Y-22669628D01*
X21681456Y-22495471D01*
X21681456Y-22495470D01*
X21680821Y-22488561D01*
X21673398Y-22462239D01*
X21628101Y-22301632D01*
X21623186Y-22284204D01*
X21612544Y-22262623D01*
X21594455Y-22225943D01*
X32400014Y-22225943D01*
X32403787Y-22283510D01*
X32410442Y-22385038D01*
X32413300Y-22428648D01*
X32415007Y-22435370D01*
X32415008Y-22435375D01*
X32439924Y-22533478D01*
X32463304Y-22625537D01*
X32466211Y-22631842D01*
X32466211Y-22631843D01*
X32544040Y-22800667D01*
X32548350Y-22810017D01*
X32552356Y-22815686D01*
X32552357Y-22815687D01*
X32562579Y-22830151D01*
X32665592Y-22975910D01*
X32670562Y-22980752D01*
X32670565Y-22980755D01*
X32721102Y-23029986D01*
X32811101Y-23117659D01*
X32816876Y-23121518D01*
X32816880Y-23121521D01*
X32892302Y-23171916D01*
X32980006Y-23230518D01*
X32986387Y-23233260D01*
X32986388Y-23233260D01*
X33153261Y-23304954D01*
X33166649Y-23310706D01*
X33173418Y-23312238D01*
X33173419Y-23312238D01*
X33301096Y-23341128D01*
X33364780Y-23355538D01*
X33371714Y-23355810D01*
X33371718Y-23355811D01*
X33499228Y-23360821D01*
X33567764Y-23363514D01*
X33574640Y-23362517D01*
X33574641Y-23362517D01*
X33653306Y-23351111D01*
X33768802Y-23334365D01*
X33775372Y-23332135D01*
X33775375Y-23332134D01*
X33954592Y-23271297D01*
X33954593Y-23271297D01*
X33961161Y-23269067D01*
X34138400Y-23169809D01*
X34294582Y-23039913D01*
X34424478Y-22883731D01*
X34523736Y-22706492D01*
X34527447Y-22695559D01*
X34586803Y-22520706D01*
X34586804Y-22520703D01*
X34589034Y-22514133D01*
X34618183Y-22313095D01*
X34618765Y-22290885D01*
X34619319Y-22269711D01*
X34619704Y-22255000D01*
X34601116Y-22052712D01*
X34545976Y-21857199D01*
X34532666Y-21830208D01*
X34459200Y-21681236D01*
X34456129Y-21675008D01*
X34442362Y-21656571D01*
X34396475Y-21595122D01*
X34334586Y-21512242D01*
X34185415Y-21374350D01*
X34013614Y-21265952D01*
X33889785Y-21216549D01*
X33831379Y-21193247D01*
X33831374Y-21193246D01*
X33824936Y-21190677D01*
X33625699Y-21151046D01*
X33618756Y-21150955D01*
X33618755Y-21150955D01*
X33547734Y-21150025D01*
X33422577Y-21148387D01*
X33415740Y-21149562D01*
X33415738Y-21149562D01*
X33229214Y-21181613D01*
X33229212Y-21181613D01*
X33222371Y-21182789D01*
X33215858Y-21185192D01*
X33215857Y-21185192D01*
X33038300Y-21250696D01*
X33038298Y-21250697D01*
X33031787Y-21253099D01*
X32985432Y-21280677D01*
X32863168Y-21353416D01*
X32863164Y-21353419D01*
X32857207Y-21356963D01*
X32851997Y-21361532D01*
X32851993Y-21361535D01*
X32728882Y-21469500D01*
X32704478Y-21490902D01*
X32578715Y-21650432D01*
X32575486Y-21656570D01*
X32575485Y-21656571D01*
X32495187Y-21809193D01*
X32484130Y-21830208D01*
X32423891Y-22024211D01*
X32408919Y-22150709D01*
X32403666Y-22195092D01*
X32400014Y-22225943D01*
X21594455Y-22225943D01*
X21548302Y-22132355D01*
X21529275Y-22093772D01*
X21519624Y-22080847D01*
X21445493Y-21981574D01*
X21402233Y-21923642D01*
X21361834Y-21886297D01*
X21251419Y-21784231D01*
X21251418Y-21784231D01*
X21246315Y-21779513D01*
X21164374Y-21727812D01*
X21072610Y-21669913D01*
X21072606Y-21669911D01*
X21066742Y-21666211D01*
X21060303Y-21663642D01*
X21060301Y-21663641D01*
X20875971Y-21590100D01*
X20875970Y-21590100D01*
X20869529Y-21587530D01*
X20830697Y-21579806D01*
X20760408Y-21545144D01*
X20716867Y-21479982D01*
X20711741Y-21401780D01*
X20746403Y-21331491D01*
X20811566Y-21287950D01*
X20971074Y-21233804D01*
X21011916Y-21219940D01*
X21197172Y-21116192D01*
X21258075Y-21065540D01*
X21355085Y-20984857D01*
X21360420Y-20980420D01*
X21448546Y-20874460D01*
X21476422Y-20840943D01*
X29560014Y-20840943D01*
X29562211Y-20874460D01*
X29570961Y-21007956D01*
X29573300Y-21043648D01*
X29575007Y-21050370D01*
X29575008Y-21050375D01*
X29601388Y-21154244D01*
X29623304Y-21240537D01*
X29626211Y-21246842D01*
X29626211Y-21246843D01*
X29697638Y-21401780D01*
X29708350Y-21425017D01*
X29825592Y-21590910D01*
X29830562Y-21595752D01*
X29830565Y-21595755D01*
X29869907Y-21634080D01*
X29971101Y-21732659D01*
X29976876Y-21736518D01*
X29976880Y-21736521D01*
X30085518Y-21809110D01*
X30140006Y-21845518D01*
X30146387Y-21848260D01*
X30146388Y-21848260D01*
X30269929Y-21901337D01*
X30326649Y-21925706D01*
X30333418Y-21927238D01*
X30333419Y-21927238D01*
X30518009Y-21969006D01*
X30524780Y-21970538D01*
X30531714Y-21970810D01*
X30531718Y-21970811D01*
X30659228Y-21975821D01*
X30727764Y-21978514D01*
X30734640Y-21977517D01*
X30734641Y-21977517D01*
X30794149Y-21968889D01*
X30928802Y-21949365D01*
X30935372Y-21947135D01*
X30935375Y-21947134D01*
X31114592Y-21886297D01*
X31114593Y-21886297D01*
X31121161Y-21884067D01*
X31298400Y-21784809D01*
X31454582Y-21654913D01*
X31584478Y-21498731D01*
X31683736Y-21321492D01*
X31685966Y-21314923D01*
X31746803Y-21135706D01*
X31746804Y-21135703D01*
X31749034Y-21129133D01*
X31778183Y-20928095D01*
X31779704Y-20870000D01*
X31761116Y-20667712D01*
X31705976Y-20472199D01*
X31692666Y-20445208D01*
X31642169Y-20342812D01*
X31616129Y-20290008D01*
X31602362Y-20271571D01*
X31522378Y-20164460D01*
X31494586Y-20127242D01*
X31345415Y-19989350D01*
X31173614Y-19880952D01*
X31080193Y-19843681D01*
X30991379Y-19808247D01*
X30991374Y-19808246D01*
X30984936Y-19805677D01*
X30785699Y-19766046D01*
X30778756Y-19765955D01*
X30778755Y-19765955D01*
X30707734Y-19765025D01*
X30582577Y-19763387D01*
X30575740Y-19764562D01*
X30575738Y-19764562D01*
X30389214Y-19796613D01*
X30389212Y-19796613D01*
X30382371Y-19797789D01*
X30375858Y-19800192D01*
X30375857Y-19800192D01*
X30198300Y-19865696D01*
X30198298Y-19865697D01*
X30191787Y-19868099D01*
X30159945Y-19887043D01*
X30023168Y-19968416D01*
X30023164Y-19968419D01*
X30017207Y-19971963D01*
X30011997Y-19976532D01*
X30011993Y-19976535D01*
X29933140Y-20045687D01*
X29864478Y-20105902D01*
X29738715Y-20265432D01*
X29735486Y-20271570D01*
X29735485Y-20271571D01*
X29648221Y-20437433D01*
X29644130Y-20445208D01*
X29583891Y-20639211D01*
X29583076Y-20646100D01*
X29562828Y-20817172D01*
X29560014Y-20840943D01*
X21476422Y-20840943D01*
X21491751Y-20822512D01*
X21491752Y-20822510D01*
X21496192Y-20817172D01*
X21599940Y-20631916D01*
X21622871Y-20564365D01*
X21665958Y-20437433D01*
X21668191Y-20430855D01*
X21673337Y-20395369D01*
X21689420Y-20284445D01*
X21698659Y-20220723D01*
X21699196Y-20200237D01*
X21700132Y-20164460D01*
X21700249Y-20160000D01*
X21698094Y-20136550D01*
X21681456Y-19955471D01*
X21681456Y-19955470D01*
X21680821Y-19948561D01*
X21677418Y-19936492D01*
X21629320Y-19765955D01*
X21623186Y-19744204D01*
X21612544Y-19722623D01*
X21532346Y-19560000D01*
X21529275Y-19553772D01*
X21456223Y-19455943D01*
X32400014Y-19455943D01*
X32413300Y-19658648D01*
X32415007Y-19665370D01*
X32415008Y-19665375D01*
X32439924Y-19763478D01*
X32463304Y-19855537D01*
X32466211Y-19861842D01*
X32466211Y-19861843D01*
X32527163Y-19994058D01*
X32548350Y-20040017D01*
X32665592Y-20205910D01*
X32670562Y-20210752D01*
X32670565Y-20210755D01*
X32685328Y-20225136D01*
X32811101Y-20347659D01*
X32816876Y-20351518D01*
X32816880Y-20351521D01*
X32894224Y-20403200D01*
X32980006Y-20460518D01*
X33166649Y-20540706D01*
X33173418Y-20542238D01*
X33173419Y-20542238D01*
X33358009Y-20584006D01*
X33364780Y-20585538D01*
X33371714Y-20585810D01*
X33371718Y-20585811D01*
X33499228Y-20590821D01*
X33567764Y-20593514D01*
X33574640Y-20592517D01*
X33574641Y-20592517D01*
X33634149Y-20583889D01*
X33768802Y-20564365D01*
X33775372Y-20562135D01*
X33775375Y-20562134D01*
X33954592Y-20501297D01*
X33954593Y-20501297D01*
X33961161Y-20499067D01*
X34138400Y-20399809D01*
X34294582Y-20269913D01*
X34424478Y-20113731D01*
X34523736Y-19936492D01*
X34551217Y-19855537D01*
X34586803Y-19750706D01*
X34586804Y-19750703D01*
X34589034Y-19744133D01*
X34618183Y-19543095D01*
X34618416Y-19534222D01*
X34619587Y-19489460D01*
X34619704Y-19485000D01*
X34601116Y-19282712D01*
X34545976Y-19087199D01*
X34532666Y-19060208D01*
X34459200Y-18911236D01*
X34456129Y-18905008D01*
X34442362Y-18886571D01*
X34338742Y-18747808D01*
X34334586Y-18742242D01*
X34185415Y-18604350D01*
X34013614Y-18495952D01*
X33920193Y-18458681D01*
X33831379Y-18423247D01*
X33831374Y-18423246D01*
X33824936Y-18420677D01*
X33625699Y-18381046D01*
X33618756Y-18380955D01*
X33618755Y-18380955D01*
X33547734Y-18380025D01*
X33422577Y-18378387D01*
X33415740Y-18379562D01*
X33415738Y-18379562D01*
X33229214Y-18411613D01*
X33229212Y-18411613D01*
X33222371Y-18412789D01*
X33215858Y-18415192D01*
X33215857Y-18415192D01*
X33038300Y-18480696D01*
X33038298Y-18480697D01*
X33031787Y-18483099D01*
X32983674Y-18511723D01*
X32863168Y-18583416D01*
X32863164Y-18583419D01*
X32857207Y-18586963D01*
X32851997Y-18591532D01*
X32851993Y-18591535D01*
X32773140Y-18660687D01*
X32704478Y-18720902D01*
X32578715Y-18880432D01*
X32575486Y-18886570D01*
X32575485Y-18886571D01*
X32491513Y-19046176D01*
X32484130Y-19060208D01*
X32423891Y-19254211D01*
X32400014Y-19455943D01*
X21456223Y-19455943D01*
X21402233Y-19383642D01*
X21293048Y-19282712D01*
X21251419Y-19244231D01*
X21251418Y-19244231D01*
X21246315Y-19239513D01*
X21113489Y-19155706D01*
X21072610Y-19129913D01*
X21072606Y-19129911D01*
X21066742Y-19126211D01*
X21060303Y-19123642D01*
X21060301Y-19123641D01*
X20875971Y-19050100D01*
X20875970Y-19050100D01*
X20869529Y-19047530D01*
X20862725Y-19046177D01*
X20862723Y-19046176D01*
X20705027Y-19014809D01*
X20661279Y-19006107D01*
X20654336Y-19006016D01*
X20654335Y-19006016D01*
X20578195Y-19005019D01*
X20448968Y-19003328D01*
X20442131Y-19004503D01*
X20442129Y-19004503D01*
X20246547Y-19038110D01*
X20246544Y-19038111D01*
X20239705Y-19039286D01*
X20233192Y-19041689D01*
X20233191Y-19041689D01*
X20047013Y-19110373D01*
X20047011Y-19110374D01*
X20040500Y-19112776D01*
X19993211Y-19140910D01*
X19863984Y-19217792D01*
X19863980Y-19217795D01*
X19858023Y-19221339D01*
X19852813Y-19225908D01*
X19852809Y-19225911D01*
X19703598Y-19356765D01*
X19698385Y-19361337D01*
X19566933Y-19528083D01*
X19563704Y-19534221D01*
X19563703Y-19534222D01*
X19556344Y-19548209D01*
X19468070Y-19715992D01*
X19417648Y-19878378D01*
X19413777Y-19890843D01*
X19371957Y-19957123D01*
X19302600Y-19993613D01*
X19224290Y-19990536D01*
X19158010Y-19948716D01*
X19123471Y-19887043D01*
X19118128Y-19868099D01*
X19083186Y-19744204D01*
X19072544Y-19722623D01*
X18992346Y-19560000D01*
X18989275Y-19553772D01*
X18862233Y-19383642D01*
X18753048Y-19282712D01*
X18711419Y-19244231D01*
X18711418Y-19244231D01*
X18706315Y-19239513D01*
X18573489Y-19155706D01*
X18532610Y-19129913D01*
X18532606Y-19129911D01*
X18526742Y-19126211D01*
X18520303Y-19123642D01*
X18520301Y-19123641D01*
X18335971Y-19050100D01*
X18335970Y-19050100D01*
X18329529Y-19047530D01*
X18322725Y-19046177D01*
X18322723Y-19046176D01*
X18165027Y-19014809D01*
X18121279Y-19006107D01*
X18114336Y-19006016D01*
X18114335Y-19006016D01*
X18038195Y-19005019D01*
X17908968Y-19003328D01*
X17902131Y-19004503D01*
X17902129Y-19004503D01*
X17706547Y-19038110D01*
X17706544Y-19038111D01*
X17699705Y-19039286D01*
X17693192Y-19041689D01*
X17693191Y-19041689D01*
X17507013Y-19110373D01*
X17507011Y-19110374D01*
X17500500Y-19112776D01*
X17453211Y-19140910D01*
X17323984Y-19217792D01*
X17323980Y-19217795D01*
X17318023Y-19221339D01*
X17312813Y-19225908D01*
X17312809Y-19225911D01*
X17163598Y-19356765D01*
X17158385Y-19361337D01*
X17026933Y-19528083D01*
X17023704Y-19534221D01*
X17023703Y-19534222D01*
X17016344Y-19548209D01*
X16928070Y-19715992D01*
X16877648Y-19878378D01*
X16873777Y-19890843D01*
X16831957Y-19957123D01*
X16762600Y-19993613D01*
X16684290Y-19990536D01*
X16618010Y-19948716D01*
X16583471Y-19887043D01*
X16578128Y-19868099D01*
X16543186Y-19744204D01*
X16532544Y-19722623D01*
X16452346Y-19560000D01*
X16449275Y-19553772D01*
X16322233Y-19383642D01*
X16213048Y-19282712D01*
X16171419Y-19244231D01*
X16171418Y-19244231D01*
X16166315Y-19239513D01*
X16033489Y-19155706D01*
X15992610Y-19129913D01*
X15992606Y-19129911D01*
X15986742Y-19126211D01*
X15980303Y-19123642D01*
X15980301Y-19123641D01*
X15795971Y-19050100D01*
X15795970Y-19050100D01*
X15789529Y-19047530D01*
X15782725Y-19046177D01*
X15782723Y-19046176D01*
X15625027Y-19014809D01*
X15581279Y-19006107D01*
X15574336Y-19006016D01*
X15574335Y-19006016D01*
X15498195Y-19005019D01*
X15368968Y-19003328D01*
X15362131Y-19004503D01*
X15362129Y-19004503D01*
X15166547Y-19038110D01*
X15166544Y-19038111D01*
X15159705Y-19039286D01*
X15153192Y-19041689D01*
X15153191Y-19041689D01*
X14967013Y-19110373D01*
X14967011Y-19110374D01*
X14960500Y-19112776D01*
X14913211Y-19140910D01*
X14783984Y-19217792D01*
X14783980Y-19217795D01*
X14778023Y-19221339D01*
X14772813Y-19225908D01*
X14772809Y-19225911D01*
X14623598Y-19356765D01*
X14618385Y-19361337D01*
X14486933Y-19528083D01*
X14483704Y-19534221D01*
X14483703Y-19534222D01*
X14476344Y-19548209D01*
X14388070Y-19715992D01*
X14337648Y-19878378D01*
X14333777Y-19890843D01*
X14291957Y-19957123D01*
X14222600Y-19993613D01*
X14144290Y-19990536D01*
X14078010Y-19948716D01*
X14043471Y-19887043D01*
X14038128Y-19868099D01*
X14003186Y-19744204D01*
X13992544Y-19722623D01*
X13912346Y-19560000D01*
X13909275Y-19553772D01*
X13782233Y-19383642D01*
X13673048Y-19282712D01*
X13631419Y-19244231D01*
X13631418Y-19244231D01*
X13626315Y-19239513D01*
X13493489Y-19155706D01*
X13452610Y-19129913D01*
X13452606Y-19129911D01*
X13446742Y-19126211D01*
X13440303Y-19123642D01*
X13440301Y-19123641D01*
X13255971Y-19050100D01*
X13255970Y-19050100D01*
X13249529Y-19047530D01*
X13242725Y-19046177D01*
X13242723Y-19046176D01*
X13085027Y-19014809D01*
X13041279Y-19006107D01*
X13034336Y-19006016D01*
X13034335Y-19006016D01*
X12958195Y-19005019D01*
X12828968Y-19003328D01*
X12822131Y-19004503D01*
X12822129Y-19004503D01*
X12626547Y-19038110D01*
X12626544Y-19038111D01*
X12619705Y-19039286D01*
X12613192Y-19041689D01*
X12613191Y-19041689D01*
X12427013Y-19110373D01*
X12427011Y-19110374D01*
X12420500Y-19112776D01*
X12373211Y-19140910D01*
X12243984Y-19217792D01*
X12243980Y-19217795D01*
X12238023Y-19221339D01*
X12232813Y-19225908D01*
X12232809Y-19225911D01*
X12083598Y-19356765D01*
X12078385Y-19361337D01*
X11946933Y-19528083D01*
X11943704Y-19534221D01*
X11943703Y-19534222D01*
X11936344Y-19548209D01*
X11848070Y-19715992D01*
X11785105Y-19918771D01*
X11784290Y-19925657D01*
X11761399Y-20119069D01*
X11760149Y-20129628D01*
X-4694700Y-20129628D01*
X-4694700Y-18070943D01*
X29560014Y-18070943D01*
X29573300Y-18273648D01*
X29575007Y-18280370D01*
X29575008Y-18280375D01*
X29599924Y-18378478D01*
X29623304Y-18470537D01*
X29626211Y-18476842D01*
X29626211Y-18476843D01*
X29687163Y-18609058D01*
X29708350Y-18655017D01*
X29825592Y-18820910D01*
X29830562Y-18825752D01*
X29830565Y-18825755D01*
X29881102Y-18874986D01*
X29971101Y-18962659D01*
X29976876Y-18966518D01*
X29976880Y-18966521D01*
X30054224Y-19018200D01*
X30140006Y-19075518D01*
X30146387Y-19078260D01*
X30146388Y-19078260D01*
X30252016Y-19123641D01*
X30326649Y-19155706D01*
X30333418Y-19157238D01*
X30333419Y-19157238D01*
X30518009Y-19199006D01*
X30524780Y-19200538D01*
X30531714Y-19200810D01*
X30531718Y-19200811D01*
X30659228Y-19205821D01*
X30727764Y-19208514D01*
X30734640Y-19207517D01*
X30734641Y-19207517D01*
X30794149Y-19198889D01*
X30928802Y-19179365D01*
X30935372Y-19177135D01*
X30935375Y-19177134D01*
X31114592Y-19116297D01*
X31114593Y-19116297D01*
X31121161Y-19114067D01*
X31298400Y-19014809D01*
X31454582Y-18884913D01*
X31584478Y-18728731D01*
X31683736Y-18551492D01*
X31711217Y-18470537D01*
X31746803Y-18365706D01*
X31746804Y-18365703D01*
X31749034Y-18359133D01*
X31778183Y-18158095D01*
X31779704Y-18100000D01*
X31761116Y-17897712D01*
X31705976Y-17702199D01*
X31692666Y-17675208D01*
X31668732Y-17626676D01*
X32891319Y-17626676D01*
X32895061Y-17633157D01*
X32974473Y-17686219D01*
X32986626Y-17692818D01*
X33160426Y-17767489D01*
X33173574Y-17771761D01*
X33358077Y-17813509D01*
X33371784Y-17815314D01*
X33560793Y-17822739D01*
X33574615Y-17822015D01*
X33761811Y-17794874D01*
X33775260Y-17791645D01*
X33954380Y-17730842D01*
X33967018Y-17725215D01*
X34119815Y-17639643D01*
X34131472Y-17628288D01*
X34130099Y-17622882D01*
X34129838Y-17622537D01*
X33523765Y-17016464D01*
X33509669Y-17008326D01*
X33495573Y-17016464D01*
X32899457Y-17612580D01*
X32891319Y-17626676D01*
X31668732Y-17626676D01*
X31619200Y-17526236D01*
X31616129Y-17520008D01*
X31602362Y-17501571D01*
X31498742Y-17362808D01*
X31494586Y-17357242D01*
X31345415Y-17219350D01*
X31173614Y-17110952D01*
X31080193Y-17073681D01*
X30991379Y-17038247D01*
X30991374Y-17038246D01*
X30984936Y-17035677D01*
X30785699Y-16996046D01*
X30778756Y-16995955D01*
X30778755Y-16995955D01*
X30707734Y-16995025D01*
X30582577Y-16993387D01*
X30575740Y-16994562D01*
X30575738Y-16994562D01*
X30389214Y-17026613D01*
X30389212Y-17026613D01*
X30382371Y-17027789D01*
X30375858Y-17030192D01*
X30375857Y-17030192D01*
X30198300Y-17095696D01*
X30198298Y-17095697D01*
X30191787Y-17098099D01*
X30143674Y-17126723D01*
X30023168Y-17198416D01*
X30023164Y-17198419D01*
X30017207Y-17201963D01*
X30011997Y-17206532D01*
X30011993Y-17206535D01*
X29869691Y-17331330D01*
X29864478Y-17335902D01*
X29738715Y-17495432D01*
X29735486Y-17501570D01*
X29735485Y-17501571D01*
X29662842Y-17639643D01*
X29644130Y-17675208D01*
X29583891Y-17869211D01*
X29560014Y-18070943D01*
X-4694700Y-18070943D01*
X-4694700Y-16692878D01*
X32400970Y-16692878D01*
X32413342Y-16881649D01*
X32415503Y-16895289D01*
X32462070Y-17078647D01*
X32466682Y-17091672D01*
X32545880Y-17263465D01*
X32552790Y-17275433D01*
X32586454Y-17323068D01*
X32598965Y-17333473D01*
X32606671Y-17330630D01*
X33208205Y-16729096D01*
X33216343Y-16715000D01*
X33802995Y-16715000D01*
X33811133Y-16729096D01*
X34410477Y-17328440D01*
X34424573Y-17336578D01*
X34429403Y-17333789D01*
X34429665Y-17333444D01*
X34519884Y-17172349D01*
X34525511Y-17159711D01*
X34586314Y-16980591D01*
X34589543Y-16967142D01*
X34617041Y-16777484D01*
X34617798Y-16768609D01*
X34619085Y-16719459D01*
X34618794Y-16710560D01*
X34601258Y-16519714D01*
X34598740Y-16506126D01*
X34547391Y-16324060D01*
X34542436Y-16311151D01*
X34458772Y-16141499D01*
X34451547Y-16129708D01*
X34433883Y-16106053D01*
X34421101Y-16095977D01*
X34412714Y-16099323D01*
X33811133Y-16700904D01*
X33802995Y-16715000D01*
X33216343Y-16715000D01*
X33208205Y-16700904D01*
X32610367Y-16103066D01*
X32596271Y-16094928D01*
X32587650Y-16099905D01*
X32583430Y-16105259D01*
X32575905Y-16116846D01*
X32487824Y-16284260D01*
X32482537Y-16297026D01*
X32426440Y-16477687D01*
X32423567Y-16491204D01*
X32401331Y-16679069D01*
X32400970Y-16692878D01*
X-4694700Y-16692878D01*
X-4694700Y-15300943D01*
X29560014Y-15300943D01*
X29573300Y-15503648D01*
X29575007Y-15510370D01*
X29575008Y-15510375D01*
X29611416Y-15653728D01*
X29623304Y-15700537D01*
X29626211Y-15706842D01*
X29626211Y-15706843D01*
X29676951Y-15816906D01*
X29708350Y-15885017D01*
X29825592Y-16050910D01*
X29830562Y-16055752D01*
X29830565Y-16055755D01*
X29879131Y-16103066D01*
X29971101Y-16192659D01*
X29976876Y-16196518D01*
X29976880Y-16196521D01*
X30054224Y-16248200D01*
X30140006Y-16305518D01*
X30326649Y-16385706D01*
X30333418Y-16387238D01*
X30333419Y-16387238D01*
X30449641Y-16413536D01*
X30524780Y-16430538D01*
X30531714Y-16430810D01*
X30531718Y-16430811D01*
X30659228Y-16435821D01*
X30727764Y-16438514D01*
X30734640Y-16437517D01*
X30734641Y-16437517D01*
X30794149Y-16428889D01*
X30928802Y-16409365D01*
X30935372Y-16407135D01*
X30935375Y-16407134D01*
X31114592Y-16346297D01*
X31114593Y-16346297D01*
X31121161Y-16344067D01*
X31298400Y-16244809D01*
X31454582Y-16114913D01*
X31584478Y-15958731D01*
X31671577Y-15803203D01*
X32889549Y-15803203D01*
X32891241Y-15809204D01*
X33495573Y-16413536D01*
X33509669Y-16421674D01*
X33523765Y-16413536D01*
X34120395Y-15816906D01*
X34128533Y-15802810D01*
X34125119Y-15796897D01*
X34019263Y-15730107D01*
X34006933Y-15723825D01*
X33831236Y-15653728D01*
X33817990Y-15649805D01*
X33632457Y-15612900D01*
X33618703Y-15611454D01*
X33429556Y-15608978D01*
X33415775Y-15610062D01*
X33229347Y-15642097D01*
X33215986Y-15645676D01*
X33038517Y-15711149D01*
X33026035Y-15717103D01*
X32900903Y-15791548D01*
X32889549Y-15803203D01*
X31671577Y-15803203D01*
X31683736Y-15781492D01*
X31703312Y-15723825D01*
X31746803Y-15595706D01*
X31746804Y-15595703D01*
X31749034Y-15589133D01*
X31778183Y-15388095D01*
X31779704Y-15330000D01*
X31761116Y-15127712D01*
X31705976Y-14932199D01*
X31692666Y-14905208D01*
X31619200Y-14756236D01*
X31616129Y-14750008D01*
X31602362Y-14731571D01*
X31498742Y-14592808D01*
X31494586Y-14587242D01*
X31345415Y-14449350D01*
X31173614Y-14340952D01*
X31080193Y-14303681D01*
X30991379Y-14268247D01*
X30991374Y-14268246D01*
X30984936Y-14265677D01*
X30785699Y-14226046D01*
X30778756Y-14225955D01*
X30778755Y-14225955D01*
X30707734Y-14225025D01*
X30582577Y-14223387D01*
X30575740Y-14224562D01*
X30575738Y-14224562D01*
X30389214Y-14256613D01*
X30389212Y-14256613D01*
X30382371Y-14257789D01*
X30375858Y-14260192D01*
X30375857Y-14260192D01*
X30198300Y-14325696D01*
X30198298Y-14325697D01*
X30191787Y-14328099D01*
X30143674Y-14356723D01*
X30023168Y-14428416D01*
X30023164Y-14428419D01*
X30017207Y-14431963D01*
X30011997Y-14436532D01*
X30011993Y-14436535D01*
X29992012Y-14454058D01*
X29864478Y-14565902D01*
X29738715Y-14725432D01*
X29644130Y-14905208D01*
X29583891Y-15099211D01*
X29560014Y-15300943D01*
X-4694700Y-15300943D01*
X-4694700Y-13542560D01*
X1539559Y-13542560D01*
X1558292Y-13712239D01*
X1616958Y-13872551D01*
X1622047Y-13880125D01*
X1622049Y-13880128D01*
X1651189Y-13923493D01*
X1712170Y-14014242D01*
X1718915Y-14020379D01*
X1718918Y-14020383D01*
X1831679Y-14122988D01*
X1831683Y-14122991D01*
X1838432Y-14129132D01*
X1846452Y-14133486D01*
X1846454Y-14133488D01*
X1980430Y-14206231D01*
X1988455Y-14210588D01*
X1997281Y-14212904D01*
X1997285Y-14212905D01*
X2144748Y-14251591D01*
X2144750Y-14251591D01*
X2153577Y-14253907D01*
X2234213Y-14255174D01*
X2315135Y-14256445D01*
X2315138Y-14256445D01*
X2324265Y-14256588D01*
X2333163Y-14254550D01*
X2333164Y-14254550D01*
X2373405Y-14245334D01*
X2490667Y-14218477D01*
X2634003Y-14146387D01*
X2710744Y-14130495D01*
X2774269Y-14148591D01*
X2880430Y-14206231D01*
X2888455Y-14210588D01*
X2897281Y-14212904D01*
X2897285Y-14212905D01*
X3044748Y-14251591D01*
X3044750Y-14251591D01*
X3053577Y-14253907D01*
X3134213Y-14255174D01*
X3215135Y-14256445D01*
X3215138Y-14256445D01*
X3224265Y-14256588D01*
X3233163Y-14254550D01*
X3233164Y-14254550D01*
X3273405Y-14245334D01*
X3390667Y-14218477D01*
X3398822Y-14214375D01*
X3398826Y-14214374D01*
X3535016Y-14145877D01*
X3543174Y-14141774D01*
X3608078Y-14086341D01*
X3666039Y-14036837D01*
X3672982Y-14030907D01*
X3678308Y-14023496D01*
X3678310Y-14023493D01*
X3767272Y-13899688D01*
X3772598Y-13892276D01*
X3836271Y-13733886D01*
X3860324Y-13564879D01*
X3860480Y-13550000D01*
X3847478Y-13442560D01*
X18589559Y-13442560D01*
X18599600Y-13533510D01*
X18602517Y-13559926D01*
X18608292Y-13612239D01*
X18611429Y-13620811D01*
X18649502Y-13724849D01*
X18666958Y-13772551D01*
X18672047Y-13780125D01*
X18672049Y-13780128D01*
X18752390Y-13899688D01*
X18762170Y-13914242D01*
X18768915Y-13920379D01*
X18768918Y-13920383D01*
X18881679Y-14022988D01*
X18881683Y-14022991D01*
X18888432Y-14029132D01*
X18896452Y-14033486D01*
X18896454Y-14033488D01*
X18919272Y-14045877D01*
X19038455Y-14110588D01*
X19047281Y-14112904D01*
X19047285Y-14112905D01*
X19194748Y-14151591D01*
X19194750Y-14151591D01*
X19203577Y-14153907D01*
X19284213Y-14155174D01*
X19365135Y-14156445D01*
X19365138Y-14156445D01*
X19374265Y-14156588D01*
X19383163Y-14154550D01*
X19383164Y-14154550D01*
X19423405Y-14145334D01*
X19540667Y-14118477D01*
X19548822Y-14114375D01*
X19548826Y-14114374D01*
X19685016Y-14045877D01*
X19693174Y-14041774D01*
X19822982Y-13930907D01*
X19828308Y-13923496D01*
X19828310Y-13923493D01*
X19917272Y-13799688D01*
X19922598Y-13792276D01*
X19986271Y-13633886D01*
X20010324Y-13464879D01*
X20010480Y-13450000D01*
X19989971Y-13280527D01*
X19929630Y-13120837D01*
X19901668Y-13080151D01*
X19838106Y-12987669D01*
X19832939Y-12980151D01*
X19705481Y-12866590D01*
X19697417Y-12862320D01*
X19697415Y-12862319D01*
X19562682Y-12790982D01*
X19562680Y-12790981D01*
X19554613Y-12786710D01*
X19389047Y-12745122D01*
X19379920Y-12745074D01*
X19379918Y-12745074D01*
X19302870Y-12744671D01*
X19218339Y-12744229D01*
X19209464Y-12746360D01*
X19209461Y-12746360D01*
X19107617Y-12770811D01*
X19052347Y-12784080D01*
X18900651Y-12862376D01*
X18841497Y-12913979D01*
X18778887Y-12968596D01*
X18778883Y-12968600D01*
X18772010Y-12974596D01*
X18673852Y-13114262D01*
X18611841Y-13273311D01*
X18610651Y-13282352D01*
X18610650Y-13282355D01*
X18597726Y-13380527D01*
X18589559Y-13442560D01*
X3847478Y-13442560D01*
X3839971Y-13380527D01*
X3779630Y-13220837D01*
X3769983Y-13206800D01*
X3738606Y-13161145D01*
X3712446Y-13087270D01*
X3726728Y-13010212D01*
X3740429Y-12987044D01*
X3744008Y-12982064D01*
X3772598Y-12942276D01*
X3836271Y-12783886D01*
X3860324Y-12614879D01*
X3860480Y-12600000D01*
X3839971Y-12430527D01*
X3779630Y-12270837D01*
X3769983Y-12256800D01*
X3738606Y-12211145D01*
X3712446Y-12137270D01*
X3726728Y-12060212D01*
X3740429Y-12037044D01*
X3767272Y-11999688D01*
X3772598Y-11992276D01*
X3836271Y-11833886D01*
X3860324Y-11664879D01*
X3860480Y-11650000D01*
X3839971Y-11480527D01*
X3779630Y-11320837D01*
X3682939Y-11180151D01*
X3555481Y-11066590D01*
X3547417Y-11062320D01*
X3547415Y-11062319D01*
X3412682Y-10990982D01*
X3412680Y-10990981D01*
X3404613Y-10986710D01*
X3239047Y-10945122D01*
X3229920Y-10945074D01*
X3229918Y-10945074D01*
X3152870Y-10944671D01*
X3068339Y-10944229D01*
X3059464Y-10946360D01*
X3059461Y-10946360D01*
X2954766Y-10971495D01*
X2902347Y-10984080D01*
X2894234Y-10988267D01*
X2894235Y-10988267D01*
X2768762Y-11053028D01*
X2692191Y-11069723D01*
X2628479Y-11052293D01*
X2512682Y-10990982D01*
X2512680Y-10990981D01*
X2504613Y-10986710D01*
X2339047Y-10945122D01*
X2329920Y-10945074D01*
X2329918Y-10945074D01*
X2252870Y-10944671D01*
X2168339Y-10944229D01*
X2159464Y-10946360D01*
X2159461Y-10946360D01*
X2054766Y-10971495D01*
X2002347Y-10984080D01*
X1850651Y-11062376D01*
X1800174Y-11106410D01*
X1728887Y-11168596D01*
X1728883Y-11168600D01*
X1722010Y-11174596D01*
X1623852Y-11314262D01*
X1561841Y-11473311D01*
X1539559Y-11642560D01*
X1558292Y-11812239D01*
X1616958Y-11972551D01*
X1662503Y-12040330D01*
X1687887Y-12114471D01*
X1672800Y-12191375D01*
X1660711Y-12211816D01*
X1623852Y-12264262D01*
X1561841Y-12423311D01*
X1539559Y-12592560D01*
X1550165Y-12688625D01*
X1556304Y-12744229D01*
X1558292Y-12762239D01*
X1616958Y-12922551D01*
X1662503Y-12990330D01*
X1687887Y-13064471D01*
X1672800Y-13141375D01*
X1660711Y-13161816D01*
X1623852Y-13214262D01*
X1561841Y-13373311D01*
X1560651Y-13382352D01*
X1560650Y-13382355D01*
X1549786Y-13464879D01*
X1539559Y-13542560D01*
X-4694700Y-13542560D01*
X-4694700Y-10192560D01*
X-3510441Y-10192560D01*
X-3491708Y-10362239D01*
X-3433042Y-10522551D01*
X-3427953Y-10530125D01*
X-3427951Y-10530128D01*
X-3398811Y-10573493D01*
X-3337830Y-10664242D01*
X-3331085Y-10670379D01*
X-3331082Y-10670383D01*
X-3218321Y-10772988D01*
X-3218317Y-10772991D01*
X-3211568Y-10779132D01*
X-3203548Y-10783486D01*
X-3203546Y-10783488D01*
X-3069570Y-10856231D01*
X-3061545Y-10860588D01*
X-3052719Y-10862904D01*
X-3052715Y-10862905D01*
X-2905252Y-10901591D01*
X-2905250Y-10901591D01*
X-2896423Y-10903907D01*
X-2815787Y-10905174D01*
X-2734865Y-10906445D01*
X-2734862Y-10906445D01*
X-2725735Y-10906588D01*
X-2716837Y-10904550D01*
X-2716836Y-10904550D01*
X-2676595Y-10895334D01*
X-2559333Y-10868477D01*
X-2415997Y-10796387D01*
X-2339256Y-10780495D01*
X-2275731Y-10798591D01*
X-2169570Y-10856231D01*
X-2161545Y-10860588D01*
X-2152719Y-10862904D01*
X-2152715Y-10862905D01*
X-2005252Y-10901591D01*
X-2005250Y-10901591D01*
X-1996423Y-10903907D01*
X-1915787Y-10905174D01*
X-1834865Y-10906445D01*
X-1834862Y-10906445D01*
X-1825735Y-10906588D01*
X-1816837Y-10904550D01*
X-1816836Y-10904550D01*
X-1776595Y-10895334D01*
X-1659333Y-10868477D01*
X-1651178Y-10864375D01*
X-1651174Y-10864374D01*
X-1514984Y-10795877D01*
X-1506826Y-10791774D01*
X-1395143Y-10696387D01*
X-1383961Y-10686837D01*
X-1377018Y-10680907D01*
X-1371692Y-10673496D01*
X-1371690Y-10673493D01*
X-1282728Y-10549688D01*
X-1277402Y-10542276D01*
X-1213729Y-10383886D01*
X-1189676Y-10214879D01*
X-1189520Y-10200000D01*
X-1202522Y-10092560D01*
X6589559Y-10092560D01*
X6596277Y-10153407D01*
X6602517Y-10209926D01*
X6608292Y-10262239D01*
X6611429Y-10270811D01*
X6649502Y-10374849D01*
X6666958Y-10422551D01*
X6672047Y-10430125D01*
X6672049Y-10430128D01*
X6752390Y-10549688D01*
X6762170Y-10564242D01*
X6768915Y-10570379D01*
X6768918Y-10570383D01*
X6881679Y-10672988D01*
X6881683Y-10672991D01*
X6888432Y-10679132D01*
X6896452Y-10683486D01*
X6896454Y-10683488D01*
X6944217Y-10709421D01*
X7038455Y-10760588D01*
X7047281Y-10762904D01*
X7047285Y-10762905D01*
X7194748Y-10801591D01*
X7194750Y-10801591D01*
X7203577Y-10803907D01*
X7284213Y-10805174D01*
X7365135Y-10806445D01*
X7365138Y-10806445D01*
X7374265Y-10806588D01*
X7383163Y-10804550D01*
X7383164Y-10804550D01*
X7423405Y-10795334D01*
X7540667Y-10768477D01*
X7684003Y-10696387D01*
X7760744Y-10680495D01*
X7824269Y-10698591D01*
X7907325Y-10743686D01*
X7938455Y-10760588D01*
X7947281Y-10762904D01*
X7947285Y-10762905D01*
X8094748Y-10801591D01*
X8094750Y-10801591D01*
X8103577Y-10803907D01*
X8184213Y-10805174D01*
X8265135Y-10806445D01*
X8265138Y-10806445D01*
X8274265Y-10806588D01*
X8283163Y-10804550D01*
X8283164Y-10804550D01*
X8323405Y-10795334D01*
X8440667Y-10768477D01*
X8448822Y-10764375D01*
X8448826Y-10764374D01*
X8585016Y-10695877D01*
X8593174Y-10691774D01*
X8722982Y-10580907D01*
X8728308Y-10573496D01*
X8728310Y-10573493D01*
X8817272Y-10449688D01*
X8822598Y-10442276D01*
X8886271Y-10283886D01*
X8902835Y-10167503D01*
X30615492Y-10167503D01*
X30621602Y-10178086D01*
X30679859Y-10229177D01*
X30687712Y-10235201D01*
X30930674Y-10397544D01*
X30939237Y-10402488D01*
X31201321Y-10531733D01*
X31210466Y-10535521D01*
X31487174Y-10629450D01*
X31496717Y-10632007D01*
X31783324Y-10689018D01*
X31793135Y-10690309D01*
X32084726Y-10709421D01*
X32094612Y-10709421D01*
X32386203Y-10690309D01*
X32396014Y-10689018D01*
X32682621Y-10632007D01*
X32692164Y-10629450D01*
X32968872Y-10535521D01*
X32978017Y-10531733D01*
X33240101Y-10402488D01*
X33248664Y-10397544D01*
X33491626Y-10235201D01*
X33499479Y-10229177D01*
X33554818Y-10180645D01*
X33563860Y-10167113D01*
X33558456Y-10156155D01*
X32103765Y-8701464D01*
X32089669Y-8693326D01*
X32075573Y-8701464D01*
X30623630Y-10153407D01*
X30615492Y-10167503D01*
X8902835Y-10167503D01*
X8910324Y-10114879D01*
X8910480Y-10100000D01*
X8889971Y-9930527D01*
X8854518Y-9836701D01*
X8832857Y-9779376D01*
X8832855Y-9779373D01*
X8829630Y-9770837D01*
X8824124Y-9762826D01*
X8806170Y-9736701D01*
X8780010Y-9662826D01*
X8794292Y-9585768D01*
X8807993Y-9562601D01*
X8817271Y-9549689D01*
X8822598Y-9542276D01*
X8830528Y-9522551D01*
X8882865Y-9392358D01*
X8886271Y-9383886D01*
X8910324Y-9214879D01*
X8910480Y-9200000D01*
X8889971Y-9030527D01*
X8854518Y-8936701D01*
X8832857Y-8879376D01*
X8832855Y-8879373D01*
X8829630Y-8870837D01*
X8824124Y-8862826D01*
X8806170Y-8836701D01*
X8780010Y-8762826D01*
X8794292Y-8685768D01*
X8807993Y-8662601D01*
X8817271Y-8649689D01*
X8822598Y-8642276D01*
X8830528Y-8622551D01*
X8882865Y-8492358D01*
X8886271Y-8483886D01*
X8897506Y-8404943D01*
X29780248Y-8404943D01*
X29799360Y-8696534D01*
X29800651Y-8706345D01*
X29857662Y-8992952D01*
X29860219Y-9002495D01*
X29954148Y-9279203D01*
X29957936Y-9288348D01*
X30087179Y-9550427D01*
X30092124Y-9558992D01*
X30254472Y-9801964D01*
X30260491Y-9809808D01*
X30309024Y-9865149D01*
X30322556Y-9874191D01*
X30333514Y-9868787D01*
X31788205Y-8414096D01*
X31796343Y-8400000D01*
X32382995Y-8400000D01*
X32391133Y-8414096D01*
X33843076Y-9866039D01*
X33857172Y-9874177D01*
X33867755Y-9868067D01*
X33918847Y-9809808D01*
X33924866Y-9801964D01*
X34087214Y-9558992D01*
X34092159Y-9550427D01*
X34221402Y-9288348D01*
X34225190Y-9279203D01*
X34319119Y-9002495D01*
X34321676Y-8992952D01*
X34378687Y-8706345D01*
X34379978Y-8696534D01*
X34399090Y-8404943D01*
X34399090Y-8395057D01*
X34379978Y-8103466D01*
X34378687Y-8093655D01*
X34321676Y-7807048D01*
X34319119Y-7797505D01*
X34225190Y-7520797D01*
X34221402Y-7511652D01*
X34092159Y-7249573D01*
X34087214Y-7241008D01*
X33924866Y-6998036D01*
X33918847Y-6990192D01*
X33870314Y-6934851D01*
X33856782Y-6925809D01*
X33845824Y-6931213D01*
X32391133Y-8385904D01*
X32382995Y-8400000D01*
X31796343Y-8400000D01*
X31788205Y-8385904D01*
X30336262Y-6933961D01*
X30322166Y-6925823D01*
X30311583Y-6931933D01*
X30260491Y-6990192D01*
X30254472Y-6998036D01*
X30092124Y-7241008D01*
X30087179Y-7249573D01*
X29957936Y-7511652D01*
X29954148Y-7520797D01*
X29860219Y-7797505D01*
X29857662Y-7807048D01*
X29800651Y-8093655D01*
X29799360Y-8103466D01*
X29780248Y-8395057D01*
X29780248Y-8404943D01*
X8897506Y-8404943D01*
X8910324Y-8314879D01*
X8910480Y-8300000D01*
X8889971Y-8130527D01*
X8854518Y-8036701D01*
X8832857Y-7979376D01*
X8832855Y-7979373D01*
X8829630Y-7970837D01*
X8824124Y-7962826D01*
X8806170Y-7936701D01*
X8780010Y-7862826D01*
X8794292Y-7785768D01*
X8807993Y-7762601D01*
X8817271Y-7749689D01*
X8822598Y-7742276D01*
X8830528Y-7722551D01*
X8882865Y-7592358D01*
X8886271Y-7583886D01*
X8910324Y-7414879D01*
X8910480Y-7400000D01*
X8889971Y-7230527D01*
X8854518Y-7136701D01*
X8832857Y-7079376D01*
X8832855Y-7079373D01*
X8829630Y-7070837D01*
X8824124Y-7062826D01*
X8806170Y-7036701D01*
X8780010Y-6962826D01*
X8794292Y-6885768D01*
X8807993Y-6862601D01*
X8817271Y-6849689D01*
X8822598Y-6842276D01*
X8830528Y-6822551D01*
X8882865Y-6692358D01*
X8886271Y-6683886D01*
X8893529Y-6632887D01*
X30615478Y-6632887D01*
X30620882Y-6643845D01*
X32075573Y-8098536D01*
X32089669Y-8106674D01*
X32103765Y-8098536D01*
X33555708Y-6646593D01*
X33563846Y-6632497D01*
X33557736Y-6621914D01*
X33499479Y-6570823D01*
X33491626Y-6564799D01*
X33248664Y-6402456D01*
X33240101Y-6397512D01*
X32978017Y-6268267D01*
X32968872Y-6264479D01*
X32692164Y-6170550D01*
X32682621Y-6167993D01*
X32396014Y-6110982D01*
X32386203Y-6109691D01*
X32094612Y-6090579D01*
X32084726Y-6090579D01*
X31793135Y-6109691D01*
X31783324Y-6110982D01*
X31496717Y-6167993D01*
X31487174Y-6170550D01*
X31210466Y-6264479D01*
X31201321Y-6268267D01*
X30939242Y-6397510D01*
X30930677Y-6402455D01*
X30687705Y-6564803D01*
X30679861Y-6570822D01*
X30624520Y-6619355D01*
X30615478Y-6632887D01*
X8893529Y-6632887D01*
X8910324Y-6514879D01*
X8910480Y-6500000D01*
X8889971Y-6330527D01*
X8829630Y-6170837D01*
X8806835Y-6137669D01*
X8738106Y-6037669D01*
X8732939Y-6030151D01*
X8605481Y-5916590D01*
X8597417Y-5912320D01*
X8597415Y-5912319D01*
X8462682Y-5840982D01*
X8462680Y-5840981D01*
X8454613Y-5836710D01*
X8289047Y-5795122D01*
X8279920Y-5795074D01*
X8279918Y-5795074D01*
X8202870Y-5794671D01*
X8118339Y-5794229D01*
X8109464Y-5796360D01*
X8109461Y-5796360D01*
X8004766Y-5821495D01*
X7952347Y-5834080D01*
X7944234Y-5838267D01*
X7944235Y-5838267D01*
X7818762Y-5903028D01*
X7742191Y-5919723D01*
X7678479Y-5902293D01*
X7562682Y-5840982D01*
X7562680Y-5840981D01*
X7554613Y-5836710D01*
X7389047Y-5795122D01*
X7379920Y-5795074D01*
X7379918Y-5795074D01*
X7302870Y-5794671D01*
X7218339Y-5794229D01*
X7209464Y-5796360D01*
X7209461Y-5796360D01*
X7104766Y-5821495D01*
X7052347Y-5834080D01*
X6900651Y-5912376D01*
X6850174Y-5956410D01*
X6778887Y-6018596D01*
X6778883Y-6018600D01*
X6772010Y-6024596D01*
X6673852Y-6164262D01*
X6611841Y-6323311D01*
X6610651Y-6332352D01*
X6610650Y-6332355D01*
X6597726Y-6430527D01*
X6589559Y-6492560D01*
X6599600Y-6583510D01*
X6606565Y-6646593D01*
X6608292Y-6662239D01*
X6611429Y-6670811D01*
X6649502Y-6774849D01*
X6666958Y-6822551D01*
X6672049Y-6830127D01*
X6695326Y-6864768D01*
X6720711Y-6938914D01*
X6705621Y-7015818D01*
X6693535Y-7036256D01*
X6673852Y-7064262D01*
X6611841Y-7223311D01*
X6610651Y-7232352D01*
X6610650Y-7232355D01*
X6597726Y-7330527D01*
X6589559Y-7392560D01*
X6599600Y-7483510D01*
X6602517Y-7509926D01*
X6608292Y-7562239D01*
X6611429Y-7570811D01*
X6649502Y-7674849D01*
X6666958Y-7722551D01*
X6672049Y-7730127D01*
X6695326Y-7764768D01*
X6720711Y-7838914D01*
X6705621Y-7915818D01*
X6693535Y-7936256D01*
X6673852Y-7964262D01*
X6611841Y-8123311D01*
X6610651Y-8132352D01*
X6610650Y-8132355D01*
X6597726Y-8230527D01*
X6589559Y-8292560D01*
X6599600Y-8383510D01*
X6602517Y-8409926D01*
X6608292Y-8462239D01*
X6611429Y-8470811D01*
X6649502Y-8574849D01*
X6666958Y-8622551D01*
X6672049Y-8630127D01*
X6695326Y-8664768D01*
X6720711Y-8738914D01*
X6705621Y-8815818D01*
X6693535Y-8836256D01*
X6673852Y-8864262D01*
X6611841Y-9023311D01*
X6610651Y-9032352D01*
X6610650Y-9032355D01*
X6597726Y-9130527D01*
X6589559Y-9192560D01*
X6599125Y-9279203D01*
X6602517Y-9309926D01*
X6608292Y-9362239D01*
X6611429Y-9370811D01*
X6649502Y-9474849D01*
X6666958Y-9522551D01*
X6672049Y-9530127D01*
X6695326Y-9564768D01*
X6720711Y-9638914D01*
X6705621Y-9715818D01*
X6693535Y-9736256D01*
X6673852Y-9764262D01*
X6611841Y-9923311D01*
X6610651Y-9932352D01*
X6610650Y-9932355D01*
X6597726Y-10030527D01*
X6589559Y-10092560D01*
X-1202522Y-10092560D01*
X-1210029Y-10030527D01*
X-1270370Y-9870837D01*
X-1275541Y-9863313D01*
X-1293830Y-9836701D01*
X-1319990Y-9762826D01*
X-1305708Y-9685768D01*
X-1292007Y-9662601D01*
X-1282729Y-9649689D01*
X-1277402Y-9642276D01*
X-1269472Y-9622551D01*
X-1232318Y-9530127D01*
X-1213729Y-9483886D01*
X-1189676Y-9314879D01*
X-1189520Y-9300000D01*
X-1210029Y-9130527D01*
X-1253753Y-9014812D01*
X-1267143Y-8979376D01*
X-1267145Y-8979373D01*
X-1270370Y-8970837D01*
X-1275541Y-8963313D01*
X-1293830Y-8936701D01*
X-1319990Y-8862826D01*
X-1305708Y-8785768D01*
X-1292007Y-8762601D01*
X-1282729Y-8749689D01*
X-1277402Y-8742276D01*
X-1269472Y-8722551D01*
X-1232318Y-8630127D01*
X-1213729Y-8583886D01*
X-1189676Y-8414879D01*
X-1189520Y-8400000D01*
X-1210029Y-8230527D01*
X-1253753Y-8114812D01*
X-1267143Y-8079376D01*
X-1267145Y-8079373D01*
X-1270370Y-8070837D01*
X-1275541Y-8063313D01*
X-1293830Y-8036701D01*
X-1319990Y-7962826D01*
X-1305708Y-7885768D01*
X-1292007Y-7862601D01*
X-1282729Y-7849689D01*
X-1277402Y-7842276D01*
X-1269472Y-7822551D01*
X-1232318Y-7730127D01*
X-1213729Y-7683886D01*
X-1189676Y-7514879D01*
X-1189520Y-7500000D01*
X-1210029Y-7330527D01*
X-1270370Y-7170837D01*
X-1275541Y-7163313D01*
X-1293830Y-7136701D01*
X-1319990Y-7062826D01*
X-1305708Y-6985768D01*
X-1292007Y-6962601D01*
X-1282729Y-6949689D01*
X-1277402Y-6942276D01*
X-1269472Y-6922551D01*
X-1232318Y-6830127D01*
X-1213729Y-6783886D01*
X-1189676Y-6614879D01*
X-1189520Y-6600000D01*
X-1191515Y-6583510D01*
X-1208932Y-6439594D01*
X-1210029Y-6430527D01*
X-1270370Y-6270837D01*
X-1333229Y-6179376D01*
X-1361894Y-6137669D01*
X-1367061Y-6130151D01*
X-1494519Y-6016590D01*
X-1502583Y-6012320D01*
X-1502585Y-6012319D01*
X-1637318Y-5940982D01*
X-1637320Y-5940981D01*
X-1645387Y-5936710D01*
X-1810953Y-5895122D01*
X-1820080Y-5895074D01*
X-1820082Y-5895074D01*
X-1897130Y-5894671D01*
X-1981661Y-5894229D01*
X-1990536Y-5896360D01*
X-1990539Y-5896360D01*
X-2074802Y-5916590D01*
X-2147653Y-5934080D01*
X-2155766Y-5938267D01*
X-2155765Y-5938267D01*
X-2281238Y-6003028D01*
X-2357809Y-6019723D01*
X-2421521Y-6002293D01*
X-2537318Y-5940982D01*
X-2537320Y-5940981D01*
X-2545387Y-5936710D01*
X-2710953Y-5895122D01*
X-2720080Y-5895074D01*
X-2720082Y-5895074D01*
X-2797130Y-5894671D01*
X-2881661Y-5894229D01*
X-2890536Y-5896360D01*
X-2890539Y-5896360D01*
X-2974802Y-5916590D01*
X-3047653Y-5934080D01*
X-3199349Y-6012376D01*
X-3228343Y-6037669D01*
X-3321113Y-6118596D01*
X-3321117Y-6118600D01*
X-3327990Y-6124596D01*
X-3426148Y-6264262D01*
X-3488159Y-6423311D01*
X-3489349Y-6432352D01*
X-3489350Y-6432355D01*
X-3507579Y-6570823D01*
X-3510441Y-6592560D01*
X-3491708Y-6762239D01*
X-3433042Y-6922551D01*
X-3425479Y-6933806D01*
X-3404674Y-6964768D01*
X-3379289Y-7038914D01*
X-3394379Y-7115818D01*
X-3406465Y-7136256D01*
X-3426148Y-7164262D01*
X-3488159Y-7323311D01*
X-3489349Y-7332352D01*
X-3489350Y-7332355D01*
X-3500214Y-7414879D01*
X-3510441Y-7492560D01*
X-3491708Y-7662239D01*
X-3433042Y-7822551D01*
X-3427951Y-7830127D01*
X-3404674Y-7864768D01*
X-3379289Y-7938914D01*
X-3394379Y-8015818D01*
X-3406465Y-8036256D01*
X-3426148Y-8064262D01*
X-3488159Y-8223311D01*
X-3489349Y-8232352D01*
X-3489350Y-8232355D01*
X-3500214Y-8314879D01*
X-3510441Y-8392560D01*
X-3491708Y-8562239D01*
X-3433042Y-8722551D01*
X-3427951Y-8730127D01*
X-3404674Y-8764768D01*
X-3379289Y-8838914D01*
X-3394379Y-8915818D01*
X-3406465Y-8936256D01*
X-3426148Y-8964262D01*
X-3488159Y-9123311D01*
X-3489349Y-9132352D01*
X-3489350Y-9132355D01*
X-3500214Y-9214879D01*
X-3510441Y-9292560D01*
X-3491708Y-9462239D01*
X-3433042Y-9622551D01*
X-3427951Y-9630127D01*
X-3404674Y-9664768D01*
X-3379289Y-9738914D01*
X-3394379Y-9815818D01*
X-3406465Y-9836256D01*
X-3426148Y-9864262D01*
X-3488159Y-10023311D01*
X-3489349Y-10032352D01*
X-3489350Y-10032355D01*
X-3508872Y-10180645D01*
X-3510441Y-10192560D01*
X-4694700Y-10192560D01*
X-4694700Y-39958D01*
X-4692400Y-13668D01*
X-4692290Y-13044D01*
X-4689990Y0D01*
X-3510110Y0D01*
X-3490881Y-366906D01*
X-3433406Y-729793D01*
X-3338313Y-1084684D01*
X-3206645Y-1427690D01*
X-3039844Y-1755055D01*
X-2839739Y-2063191D01*
X-2608520Y-2348722D01*
X-2348722Y-2608520D01*
X-2063191Y-2839739D01*
X-1755055Y-3039844D01*
X-1427690Y-3206645D01*
X-1084684Y-3338313D01*
X-907239Y-3385859D01*
X-733620Y-3432381D01*
X-733612Y-3432383D01*
X-729793Y-3433406D01*
X-725889Y-3434024D01*
X-725881Y-3434026D01*
X-505479Y-3468933D01*
X-366906Y-3490881D01*
X0Y-3510110D01*
X366906Y-3490881D01*
X505479Y-3468933D01*
X725881Y-3434026D01*
X725889Y-3434024D01*
X729793Y-3433406D01*
X733612Y-3432383D01*
X733620Y-3432381D01*
X907239Y-3385859D01*
X1084684Y-3338313D01*
X1427690Y-3206645D01*
X1755055Y-3039844D01*
X2063191Y-2839739D01*
X2348722Y-2608520D01*
X2608520Y-2348722D01*
X2839739Y-2063191D01*
X3039844Y-1755055D01*
X3206645Y-1427690D01*
X3338313Y-1084684D01*
X3433406Y-729793D01*
X3490881Y-366906D01*
X3510110Y0D01*
X32489890Y0D01*
X32509119Y-366906D01*
X32566594Y-729793D01*
X32661687Y-1084684D01*
X32793355Y-1427690D01*
X32960156Y-1755055D01*
X33160261Y-2063191D01*
X33391480Y-2348722D01*
X33651278Y-2608520D01*
X33936809Y-2839739D01*
X34244945Y-3039844D01*
X34572310Y-3206645D01*
X34915316Y-3338313D01*
X35092761Y-3385859D01*
X35266380Y-3432381D01*
X35266388Y-3432383D01*
X35270207Y-3433406D01*
X35274111Y-3434024D01*
X35274119Y-3434026D01*
X35494521Y-3468933D01*
X35633094Y-3490881D01*
X36000000Y-3510110D01*
X36366906Y-3490881D01*
X36505479Y-3468933D01*
X36725881Y-3434026D01*
X36725889Y-3434024D01*
X36729793Y-3433406D01*
X36733612Y-3432383D01*
X36733620Y-3432381D01*
X36907239Y-3385859D01*
X37084684Y-3338313D01*
X37427690Y-3206645D01*
X37755055Y-3039844D01*
X38063191Y-2839739D01*
X38348722Y-2608520D01*
X38608520Y-2348722D01*
X38839739Y-2063191D01*
X39039844Y-1755055D01*
X39206645Y-1427690D01*
X39338313Y-1084684D01*
X39433406Y-729793D01*
X39490881Y-366906D01*
X39510110Y0D01*
X39490881Y366906D01*
X39433406Y729793D01*
X39338313Y1084684D01*
X39206645Y1427690D01*
X39204846Y1431221D01*
X39041650Y1751511D01*
X39041648Y1751515D01*
X39039844Y1755055D01*
X38839739Y2063191D01*
X38608520Y2348722D01*
X38348722Y2608520D01*
X38063191Y2839739D01*
X37755055Y3039844D01*
X37427690Y3206645D01*
X37145987Y3314781D01*
X37088381Y3336894D01*
X37088378Y3336895D01*
X37084684Y3338313D01*
X36907239Y3385859D01*
X36733620Y3432381D01*
X36733612Y3432383D01*
X36729793Y3433406D01*
X36725889Y3434024D01*
X36725881Y3434026D01*
X36505479Y3468933D01*
X36366906Y3490881D01*
X36000000Y3510110D01*
X35633094Y3490881D01*
X35494521Y3468933D01*
X35274119Y3434026D01*
X35274111Y3434024D01*
X35270207Y3433406D01*
X35266388Y3432383D01*
X35266380Y3432381D01*
X35092761Y3385859D01*
X34915316Y3338313D01*
X34911622Y3336895D01*
X34911619Y3336894D01*
X34854013Y3314781D01*
X34572310Y3206645D01*
X34244945Y3039844D01*
X33936809Y2839739D01*
X33651278Y2608520D01*
X33391480Y2348722D01*
X33160261Y2063191D01*
X32960156Y1755055D01*
X32958352Y1751515D01*
X32958350Y1751511D01*
X32795154Y1431221D01*
X32793355Y1427690D01*
X32661687Y1084684D01*
X32566594Y729793D01*
X32509119Y366906D01*
X32489890Y0D01*
X3510110Y0D01*
X3490881Y366906D01*
X3433406Y729793D01*
X3338313Y1084684D01*
X3206645Y1427690D01*
X3204846Y1431221D01*
X3041650Y1751511D01*
X3041648Y1751515D01*
X3039844Y1755055D01*
X2839739Y2063191D01*
X2608520Y2348722D01*
X2348722Y2608520D01*
X2063191Y2839739D01*
X1755055Y3039844D01*
X1427690Y3206645D01*
X1145987Y3314781D01*
X1088381Y3336894D01*
X1088378Y3336895D01*
X1084684Y3338313D01*
X907239Y3385859D01*
X733620Y3432381D01*
X733612Y3432383D01*
X729793Y3433406D01*
X725889Y3434024D01*
X725881Y3434026D01*
X505479Y3468933D01*
X366906Y3490881D01*
X0Y3510110D01*
X-366906Y3490881D01*
X-505479Y3468933D01*
X-725881Y3434026D01*
X-725889Y3434024D01*
X-729793Y3433406D01*
X-733612Y3432383D01*
X-733620Y3432381D01*
X-907239Y3385859D01*
X-1084684Y3338313D01*
X-1088378Y3336895D01*
X-1088381Y3336894D01*
X-1145987Y3314781D01*
X-1427690Y3206645D01*
X-1755055Y3039844D01*
X-2063191Y2839739D01*
X-2348722Y2608520D01*
X-2608520Y2348722D01*
X-2839739Y2063191D01*
X-3039844Y1755055D01*
X-3041648Y1751515D01*
X-3041650Y1751511D01*
X-3204846Y1431221D01*
X-3206645Y1427690D01*
X-3338313Y1084684D01*
X-3433406Y729793D01*
X-3490881Y366906D01*
X-3510110Y0D01*
X-4689990Y0D01*
X-4692290Y13045D01*
X-4692290Y26289D01*
X-4692276Y26289D01*
X-4693042Y37974D01*
X-4677123Y402564D01*
X-4675972Y415721D01*
X-4624239Y808677D01*
X-4621945Y821685D01*
X-4536164Y1208619D01*
X-4532746Y1221377D01*
X-4413560Y1599386D01*
X-4409042Y1611797D01*
X-4257373Y1977957D01*
X-4251791Y1989928D01*
X-4068780Y2341489D01*
X-4062176Y2352927D01*
X-3849227Y2687190D01*
X-3841652Y2698009D01*
X-3600373Y3012451D01*
X-3591895Y3022555D01*
X-3324112Y3314789D01*
X-3314789Y3324112D01*
X-3022555Y3591895D01*
X-3012451Y3600373D01*
X-2698009Y3841652D01*
X-2687190Y3849227D01*
X-2352927Y4062176D01*
X-2341489Y4068780D01*
X-1989928Y4251791D01*
X-1977957Y4257373D01*
X-1611797Y4409042D01*
X-1599386Y4413560D01*
X-1221377Y4532746D01*
X-1208619Y4536164D01*
X-821685Y4621945D01*
X-808677Y4624239D01*
X-415721Y4675972D01*
X-402564Y4677123D01*
X-155188Y4687924D01*
X-37972Y4693042D01*
X-26289Y4692276D01*
X-26289Y4692290D01*
X-13045Y4692290D01*
X0Y4689990D01*
X13044Y4692290D01*
X13668Y4692400D01*
X39958Y4694700D01*
X35960042Y4694700D01*
X35986332Y4692400D01*
G37*
%TD.AperFunction*%
%TD*%
M02*
