%TF.GenerationSoftware,KiCad,Pcbnew,(6.0.9)*%
%TF.CreationDate,2022-12-11T16:10:59+10:00*%
%TF.ProjectId,OpenRetroPad,4f70656e-5265-4747-926f-5061642e6b69,rev?*%
%TF.SameCoordinates,Original*%
%TF.FileFunction,Copper,L1,Top*%
%TF.FilePolarity,Positive*%
%FSLAX46Y46*%
G04 Gerber Fmt 4.6, Leading zero omitted, Abs format (unit mm)*
G04 Created by KiCad (PCBNEW (6.0.9)) date 2022-12-11 16:10:59*
%MOMM*%
%LPD*%
G01*
G04 APERTURE LIST*
G04 Aperture macros list*
%AMRoundRect*
0 Rectangle with rounded corners*
0 $1 Rounding radius*
0 $2 $3 $4 $5 $6 $7 $8 $9 X,Y pos of 4 corners*
0 Add a 4 corners polygon primitive as box body*
4,1,4,$2,$3,$4,$5,$6,$7,$8,$9,$2,$3,0*
0 Add four circle primitives for the rounded corners*
1,1,$1+$1,$2,$3*
1,1,$1+$1,$4,$5*
1,1,$1+$1,$6,$7*
1,1,$1+$1,$8,$9*
0 Add four rect primitives between the rounded corners*
20,1,$1+$1,$2,$3,$4,$5,0*
20,1,$1+$1,$4,$5,$6,$7,0*
20,1,$1+$1,$6,$7,$8,$9,0*
20,1,$1+$1,$8,$9,$2,$3,0*%
%AMRotRect*
0 Rectangle, with rotation*
0 The origin of the aperture is its center*
0 $1 length*
0 $2 width*
0 $3 Rotation angle, in degrees counterclockwise*
0 Add horizontal line*
21,1,$1,$2,0,0,$3*%
%AMFreePoly0*
4,1,22,0.500000,-0.750000,0.000000,-0.750000,0.000000,-0.745033,-0.079941,-0.743568,-0.215256,-0.701293,-0.333266,-0.622738,-0.424486,-0.514219,-0.481581,-0.384460,-0.499164,-0.250000,-0.500000,-0.250000,-0.500000,0.250000,-0.499164,0.250000,-0.499963,0.256109,-0.478152,0.396186,-0.417904,0.524511,-0.324060,0.630769,-0.204165,0.706417,-0.067858,0.745374,0.000000,0.744959,0.000000,0.750000,
0.500000,0.750000,0.500000,-0.750000,0.500000,-0.750000,$1*%
%AMFreePoly1*
4,1,20,0.000000,0.744959,0.073905,0.744508,0.209726,0.703889,0.328688,0.626782,0.421226,0.519385,0.479903,0.390333,0.500000,0.250000,0.500000,-0.250000,0.499851,-0.262216,0.476331,-0.402017,0.414519,-0.529596,0.319384,-0.634700,0.198574,-0.708877,0.061801,-0.746166,0.000000,-0.745033,0.000000,-0.750000,-0.500000,-0.750000,-0.500000,0.750000,0.000000,0.750000,0.000000,0.744959,
0.000000,0.744959,$1*%
G04 Aperture macros list end*
%TA.AperFunction,ComponentPad*%
%ADD10R,1.700000X1.700000*%
%TD*%
%TA.AperFunction,ComponentPad*%
%ADD11O,1.700000X1.700000*%
%TD*%
%TA.AperFunction,SMDPad,CuDef*%
%ADD12RoundRect,0.243750X0.243750X0.456250X-0.243750X0.456250X-0.243750X-0.456250X0.243750X-0.456250X0*%
%TD*%
%TA.AperFunction,SMDPad,CuDef*%
%ADD13RoundRect,0.225000X-0.250000X0.225000X-0.250000X-0.225000X0.250000X-0.225000X0.250000X0.225000X0*%
%TD*%
%TA.AperFunction,SMDPad,CuDef*%
%ADD14RoundRect,0.150000X-0.512500X-0.150000X0.512500X-0.150000X0.512500X0.150000X-0.512500X0.150000X0*%
%TD*%
%TA.AperFunction,ComponentPad*%
%ADD15C,1.600000*%
%TD*%
%TA.AperFunction,ComponentPad*%
%ADD16R,1.600000X1.600000*%
%TD*%
%TA.AperFunction,ComponentPad*%
%ADD17C,4.000000*%
%TD*%
%TA.AperFunction,SMDPad,CuDef*%
%ADD18RoundRect,0.200000X0.200000X0.275000X-0.200000X0.275000X-0.200000X-0.275000X0.200000X-0.275000X0*%
%TD*%
%TA.AperFunction,SMDPad,CuDef*%
%ADD19RoundRect,0.225000X0.225000X0.250000X-0.225000X0.250000X-0.225000X-0.250000X0.225000X-0.250000X0*%
%TD*%
%TA.AperFunction,SMDPad,CuDef*%
%ADD20RoundRect,0.225000X0.335876X0.017678X0.017678X0.335876X-0.335876X-0.017678X-0.017678X-0.335876X0*%
%TD*%
%TA.AperFunction,SMDPad,CuDef*%
%ADD21RoundRect,0.200000X-0.200000X-0.275000X0.200000X-0.275000X0.200000X0.275000X-0.200000X0.275000X0*%
%TD*%
%TA.AperFunction,SMDPad,CuDef*%
%ADD22RoundRect,0.225000X-0.335876X-0.017678X-0.017678X-0.335876X0.335876X0.017678X0.017678X0.335876X0*%
%TD*%
%TA.AperFunction,SMDPad,CuDef*%
%ADD23RoundRect,0.225000X-0.225000X-0.250000X0.225000X-0.250000X0.225000X0.250000X-0.225000X0.250000X0*%
%TD*%
%TA.AperFunction,SMDPad,CuDef*%
%ADD24RoundRect,0.200000X0.275000X-0.200000X0.275000X0.200000X-0.275000X0.200000X-0.275000X-0.200000X0*%
%TD*%
%TA.AperFunction,SMDPad,CuDef*%
%ADD25RoundRect,0.218750X0.256250X-0.218750X0.256250X0.218750X-0.256250X0.218750X-0.256250X-0.218750X0*%
%TD*%
%TA.AperFunction,SMDPad,CuDef*%
%ADD26RoundRect,0.225000X0.250000X-0.225000X0.250000X0.225000X-0.250000X0.225000X-0.250000X-0.225000X0*%
%TD*%
%TA.AperFunction,ComponentPad*%
%ADD27C,0.800000*%
%TD*%
%TA.AperFunction,ComponentPad*%
%ADD28C,6.400000*%
%TD*%
%TA.AperFunction,SMDPad,CuDef*%
%ADD29RoundRect,0.150000X0.150000X-0.825000X0.150000X0.825000X-0.150000X0.825000X-0.150000X-0.825000X0*%
%TD*%
%TA.AperFunction,SMDPad,CuDef*%
%ADD30R,1.500000X2.000000*%
%TD*%
%TA.AperFunction,SMDPad,CuDef*%
%ADD31R,3.800000X2.000000*%
%TD*%
%TA.AperFunction,SMDPad,CuDef*%
%ADD32RoundRect,0.225000X-0.017678X0.335876X-0.335876X0.017678X0.017678X-0.335876X0.335876X-0.017678X0*%
%TD*%
%TA.AperFunction,SMDPad,CuDef*%
%ADD33RoundRect,0.218750X-0.256250X0.218750X-0.256250X-0.218750X0.256250X-0.218750X0.256250X0.218750X0*%
%TD*%
%TA.AperFunction,SMDPad,CuDef*%
%ADD34RoundRect,0.218750X-0.335876X-0.026517X-0.026517X-0.335876X0.335876X0.026517X0.026517X0.335876X0*%
%TD*%
%TA.AperFunction,SMDPad,CuDef*%
%ADD35RoundRect,0.200000X0.335876X0.053033X0.053033X0.335876X-0.335876X-0.053033X-0.053033X-0.335876X0*%
%TD*%
%TA.AperFunction,SMDPad,CuDef*%
%ADD36RoundRect,0.218750X0.335876X0.026517X0.026517X0.335876X-0.335876X-0.026517X-0.026517X-0.335876X0*%
%TD*%
%TA.AperFunction,SMDPad,CuDef*%
%ADD37RoundRect,0.250000X-0.250000X-0.475000X0.250000X-0.475000X0.250000X0.475000X-0.250000X0.475000X0*%
%TD*%
%TA.AperFunction,SMDPad,CuDef*%
%ADD38RoundRect,0.218750X0.026517X-0.335876X0.335876X-0.026517X-0.026517X0.335876X-0.335876X0.026517X0*%
%TD*%
%TA.AperFunction,SMDPad,CuDef*%
%ADD39FreePoly0,180.000000*%
%TD*%
%TA.AperFunction,SMDPad,CuDef*%
%ADD40FreePoly1,180.000000*%
%TD*%
%TA.AperFunction,SMDPad,CuDef*%
%ADD41RoundRect,0.218750X-0.218750X-0.381250X0.218750X-0.381250X0.218750X0.381250X-0.218750X0.381250X0*%
%TD*%
%TA.AperFunction,SMDPad,CuDef*%
%ADD42R,1.450000X0.600000*%
%TD*%
%TA.AperFunction,SMDPad,CuDef*%
%ADD43R,1.450000X0.300000*%
%TD*%
%TA.AperFunction,ComponentPad*%
%ADD44O,1.600000X1.000000*%
%TD*%
%TA.AperFunction,ComponentPad*%
%ADD45O,2.100000X1.000000*%
%TD*%
%TA.AperFunction,SMDPad,CuDef*%
%ADD46RotRect,1.500000X0.550000X315.000000*%
%TD*%
%TA.AperFunction,SMDPad,CuDef*%
%ADD47RotRect,1.500000X0.550000X45.000000*%
%TD*%
%TA.AperFunction,SMDPad,CuDef*%
%ADD48R,0.600000X0.450000*%
%TD*%
%TA.AperFunction,SMDPad,CuDef*%
%ADD49RoundRect,0.200000X-0.335876X-0.053033X-0.053033X-0.335876X0.335876X0.053033X0.053033X0.335876X0*%
%TD*%
%TA.AperFunction,SMDPad,CuDef*%
%ADD50RoundRect,0.218750X0.218750X0.256250X-0.218750X0.256250X-0.218750X-0.256250X0.218750X-0.256250X0*%
%TD*%
%TA.AperFunction,SMDPad,CuDef*%
%ADD51RoundRect,0.250000X-0.475000X0.250000X-0.475000X-0.250000X0.475000X-0.250000X0.475000X0.250000X0*%
%TD*%
%TA.AperFunction,SMDPad,CuDef*%
%ADD52RotRect,1.400000X1.200000X135.000000*%
%TD*%
%TA.AperFunction,SMDPad,CuDef*%
%ADD53RoundRect,0.250000X-0.750000X0.250000X-0.750000X-0.250000X0.750000X-0.250000X0.750000X0.250000X0*%
%TD*%
%TA.AperFunction,SMDPad,CuDef*%
%ADD54RoundRect,0.218750X0.381250X-0.218750X0.381250X0.218750X-0.381250X0.218750X-0.381250X-0.218750X0*%
%TD*%
%TA.AperFunction,ViaPad*%
%ADD55C,0.600000*%
%TD*%
%TA.AperFunction,ViaPad*%
%ADD56C,0.800000*%
%TD*%
%TA.AperFunction,Conductor*%
%ADD57C,0.203200*%
%TD*%
%TA.AperFunction,Conductor*%
%ADD58C,1.016000*%
%TD*%
%TA.AperFunction,Conductor*%
%ADD59C,0.406400*%
%TD*%
%TA.AperFunction,Conductor*%
%ADD60C,0.508000*%
%TD*%
G04 APERTURE END LIST*
%TO.C,JP1*%
G36*
X-1528000Y-36876000D02*
G01*
X-2028000Y-36876000D01*
X-2028000Y-36276000D01*
X-1528000Y-36276000D01*
X-1528000Y-36876000D01*
G37*
%TD*%
D10*
%TO.P,J3,1,Pin_1*%
%TO.N,GND*%
X12920000Y-22700000D03*
D11*
%TO.P,J3,2,Pin_2*%
%TO.N,+3V3*%
X12920000Y-20160000D03*
%TO.P,J3,3,Pin_3*%
%TO.N,/DB25/CE*%
X15460000Y-22700000D03*
%TO.P,J3,4,Pin_4*%
%TO.N,/DB25/CSN*%
X15460000Y-20160000D03*
%TO.P,J3,5,Pin_5*%
%TO.N,/DB25/SCK*%
X18000000Y-22700000D03*
%TO.P,J3,6,Pin_6*%
%TO.N,/DB25/MOSI*%
X18000000Y-20160000D03*
%TO.P,J3,7,Pin_7*%
%TO.N,/DB25/MISO*%
X20540000Y-22700000D03*
%TO.P,J3,8,Pin_8*%
%TO.N,/DB25/IRQ*%
X20540000Y-20160000D03*
%TD*%
D12*
%TO.P,F2,1*%
%TO.N,/DB25/5VF*%
X22537500Y-13450000D03*
%TO.P,F2,2*%
%TO.N,+5V*%
X20662500Y-13450000D03*
%TD*%
%TO.P,F1,2*%
%TO.N,+3V3*%
X20662500Y-9250000D03*
%TO.P,F1,1*%
%TO.N,/DB25/3V3F*%
X22537500Y-9250000D03*
%TD*%
D13*
%TO.P,C5,1*%
%TO.N,GND*%
X5300000Y-5175000D03*
%TO.P,C5,2*%
%TO.N,+3V3*%
X5300000Y-6725000D03*
%TD*%
D14*
%TO.P,U4,1,I/O1*%
%TO.N,/USB Data/D-*%
X4962500Y-25050000D03*
%TO.P,U4,2,GND*%
%TO.N,GND*%
X4962500Y-26000000D03*
%TO.P,U4,3,I/O2*%
%TO.N,/USB Data/D+*%
X4962500Y-26950000D03*
%TO.P,U4,4,I/O2*%
%TO.N,/Microcontroller/USB_DATA.DP*%
X7237500Y-26950000D03*
%TO.P,U4,5,VBUS*%
%TO.N,/USB Data/VBUS*%
X7237500Y-26000000D03*
%TO.P,U4,6,I/O1*%
%TO.N,/Microcontroller/USB_DATA.DM*%
X7237500Y-25050000D03*
%TD*%
D15*
%TO.P,J4,25,P25*%
%TO.N,GND*%
X33509669Y-16715000D03*
%TO.P,J4,24,P24*%
%TO.N,/DB25/5VF*%
X33509669Y-19485000D03*
%TO.P,J4,23,P23*%
%TO.N,/DB25/3V3F*%
X33509669Y-22255000D03*
%TO.P,J4,22,P22*%
%TO.N,unconnected-(J4-Pad22)*%
X33509669Y-25025000D03*
%TO.P,J4,21,P21*%
%TO.N,/DB25/PF4*%
X33509669Y-27795000D03*
%TO.P,J4,20,P20*%
%TO.N,/DB25/PF5*%
X33509669Y-30565000D03*
%TO.P,J4,19,P19*%
%TO.N,/DB25/PF6*%
X33509669Y-33335000D03*
%TO.P,J4,18,P18*%
%TO.N,/DB25/PF7*%
X33509669Y-36105000D03*
%TO.P,J4,17,P17*%
%TO.N,unconnected-(J4-Pad17)*%
X33509669Y-38875000D03*
%TO.P,J4,16,P16*%
%TO.N,/DB25/MOSI*%
X33509669Y-41645000D03*
%TO.P,J4,15,P15*%
%TO.N,/DB25/SCK*%
X33509669Y-44415000D03*
%TO.P,J4,14,P14*%
%TO.N,/DB25/MISO*%
X33509669Y-47185000D03*
%TO.P,J4,13,13*%
%TO.N,unconnected-(J4-Pad13)*%
X30669669Y-15330000D03*
%TO.P,J4,12,12*%
%TO.N,unconnected-(J4-Pad12)*%
X30669669Y-18100000D03*
%TO.P,J4,11,11*%
%TO.N,/DB25/RX*%
X30669669Y-20870000D03*
%TO.P,J4,10,10*%
%TO.N,/DB25/PB6*%
X30669669Y-23640000D03*
%TO.P,J4,9,9*%
%TO.N,/DB25/PB5*%
X30669669Y-26410000D03*
%TO.P,J4,8,8*%
%TO.N,/DB25/PB4*%
X30669669Y-29180000D03*
%TO.P,J4,7,7*%
%TO.N,/DB25/CE*%
X30669669Y-31950000D03*
%TO.P,J4,6,6*%
%TO.N,/DB25/PD7*%
X30669669Y-34720000D03*
%TO.P,J4,5,5*%
%TO.N,/DB25/PC6*%
X30669669Y-37490000D03*
%TO.P,J4,4,4*%
%TO.N,/DB25/PD4*%
X30669669Y-40260000D03*
%TO.P,J4,3,3*%
%TO.N,/DB25/PD0*%
X30669669Y-43030000D03*
%TO.P,J4,2,2*%
%TO.N,/DB25/PD1*%
X30669669Y-45800000D03*
D16*
%TO.P,J4,1,1*%
%TO.N,/DB25/TX*%
X30669669Y-48570000D03*
D17*
%TO.P,J4,0,PAD*%
%TO.N,GND*%
X32089669Y-8400000D03*
X32089669Y-55500000D03*
%TD*%
D18*
%TO.P,R16,2*%
%TO.N,Net-(R16-Pad2)*%
X14625000Y-61450000D03*
%TO.P,R16,1*%
%TO.N,/DB25/RST*%
X16275000Y-61450000D03*
%TD*%
D19*
%TO.P,C19,2*%
%TO.N,GND*%
X4825000Y-38300000D03*
%TO.P,C19,1*%
%TO.N,/DB25/RST*%
X6375000Y-38300000D03*
%TD*%
D20*
%TO.P,C10,1*%
%TO.N,GND*%
X22998008Y-45448008D03*
%TO.P,C10,2*%
%TO.N,/Microcontroller/AVCC_P24*%
X21901992Y-44351992D03*
%TD*%
D21*
%TO.P,R11,2*%
%TO.N,/DB25/RST*%
X6425000Y-39800000D03*
%TO.P,R11,1*%
%TO.N,+5V*%
X4775000Y-39800000D03*
%TD*%
D22*
%TO.P,C9,1*%
%TO.N,GND*%
X14112652Y-25891332D03*
%TO.P,C9,2*%
%TO.N,+5V*%
X15208668Y-26987348D03*
%TD*%
D23*
%TO.P,C7,1*%
%TO.N,GND*%
X7225000Y-35300000D03*
%TO.P,C7,2*%
%TO.N,+5V*%
X8775000Y-35300000D03*
%TD*%
D24*
%TO.P,R7,1*%
%TO.N,Net-(D2-Pad1)*%
X16700000Y-50825000D03*
%TO.P,R7,2*%
%TO.N,/DB25/TX*%
X16700000Y-49175000D03*
%TD*%
D25*
%TO.P,D8,1,K*%
%TO.N,GND*%
X23500000Y-55187500D03*
%TO.P,D8,2,A*%
%TO.N,Net-(D8-Pad2)*%
X23500000Y-53612500D03*
%TD*%
D26*
%TO.P,C15,1*%
%TO.N,GND*%
X15200000Y-50775000D03*
%TO.P,C15,2*%
%TO.N,+5V*%
X15200000Y-49225000D03*
%TD*%
D22*
%TO.P,C20,1*%
%TO.N,GND*%
X25751992Y-31751992D03*
%TO.P,C20,2*%
%TO.N,+5V*%
X26848008Y-32848008D03*
%TD*%
D21*
%TO.P,R9,1*%
%TO.N,/IO/SW_HWB*%
X19675000Y-61450000D03*
%TO.P,R9,2*%
%TO.N,Net-(R9-Pad2)*%
X21325000Y-61450000D03*
%TD*%
D18*
%TO.P,R4,1*%
%TO.N,GND*%
X5425000Y-57900000D03*
%TO.P,R4,2*%
%TO.N,/USB Program/CC1*%
X3775000Y-57900000D03*
%TD*%
D27*
%TO.P,H1,1,1*%
%TO.N,unconnected-(H1-Pad1)*%
X-1697056Y-1697056D03*
X0Y-2400000D03*
D28*
X0Y0D03*
D27*
X-2400000Y0D03*
X2400000Y0D03*
X0Y2400000D03*
X1697056Y-1697056D03*
X-1697056Y1697056D03*
X1697056Y1697056D03*
%TD*%
D21*
%TO.P,R1,1*%
%TO.N,/USB Data/CC2*%
X3775000Y-28800000D03*
%TO.P,R1,2*%
%TO.N,GND*%
X5425000Y-28800000D03*
%TD*%
D22*
%TO.P,C13,1*%
%TO.N,GND*%
X9870011Y-30133973D03*
%TO.P,C13,2*%
%TO.N,/Microcontroller/UCAP*%
X10966027Y-31229989D03*
%TD*%
D14*
%TO.P,U5,1,I/O1*%
%TO.N,/USB Program/D-*%
X4862500Y-52450000D03*
%TO.P,U5,2,GND*%
%TO.N,GND*%
X4862500Y-53400000D03*
%TO.P,U5,3,I/O2*%
%TO.N,/USB Program/D+*%
X4862500Y-54350000D03*
%TO.P,U5,4,I/O2*%
%TO.N,/UART/USB_PRGM.DP*%
X7137500Y-54350000D03*
%TO.P,U5,5,VBUS*%
%TO.N,/USB Program/VBUS*%
X7137500Y-53400000D03*
%TO.P,U5,6,I/O1*%
%TO.N,/UART/USB_PRGM.DM*%
X7137500Y-52450000D03*
%TD*%
D24*
%TO.P,R8,1*%
%TO.N,Net-(D3-Pad1)*%
X18300000Y-50825000D03*
%TO.P,R8,2*%
%TO.N,/DB25/RX*%
X18300000Y-49175000D03*
%TD*%
D29*
%TO.P,U3,1,UD+*%
%TO.N,/UART/USB_PRGM.DP*%
X9795000Y-54675000D03*
%TO.P,U3,2,UD-*%
%TO.N,/UART/USB_PRGM.DM*%
X11065000Y-54675000D03*
%TO.P,U3,3,GND*%
%TO.N,GND*%
X12335000Y-54675000D03*
%TO.P,U3,4,~{RTS}*%
%TO.N,/UART/RTS*%
X13605000Y-54675000D03*
%TO.P,U3,5,VCC*%
%TO.N,+5V*%
X13605000Y-49725000D03*
%TO.P,U3,6,TXD*%
%TO.N,/DB25/TX*%
X12335000Y-49725000D03*
%TO.P,U3,7,RXD*%
%TO.N,/DB25/RX*%
X11065000Y-49725000D03*
%TO.P,U3,8,V3*%
%TO.N,/UART/V3*%
X9795000Y-49725000D03*
%TD*%
D30*
%TO.P,U1,1,GND*%
%TO.N,GND*%
X400000Y-15550000D03*
%TO.P,U1,2,VO*%
%TO.N,+3V3*%
X2700000Y-15550000D03*
D31*
X2700000Y-9250000D03*
D30*
%TO.P,U1,3,VI*%
%TO.N,/Power/VREGIN*%
X5000000Y-15550000D03*
%TD*%
D32*
%TO.P,C11,1*%
%TO.N,/Microcontroller/XTAL1*%
X10121664Y-45000000D03*
%TO.P,C11,2*%
%TO.N,GND*%
X9025648Y-46096016D03*
%TD*%
D22*
%TO.P,C14,1*%
%TO.N,GND*%
X10930671Y-29073313D03*
%TO.P,C14,2*%
%TO.N,/Microcontroller/UGND*%
X12026687Y-30169329D03*
%TD*%
D33*
%TO.P,D3,2,A*%
%TO.N,+5V*%
X18300000Y-55187500D03*
%TO.P,D3,1,K*%
%TO.N,Net-(D3-Pad1)*%
X18300000Y-53612500D03*
%TD*%
D32*
%TO.P,C18,1*%
%TO.N,GND*%
X23300000Y-27000000D03*
%TO.P,C18,2*%
%TO.N,/Microcontroller/AVCC_P44*%
X22203984Y-28096016D03*
%TD*%
D34*
%TO.P,FB3,1*%
%TO.N,/Microcontroller/AVCC_P24*%
X22943153Y-43293153D03*
%TO.P,FB3,2*%
%TO.N,+5V*%
X24056847Y-44406847D03*
%TD*%
D35*
%TO.P,R6,1*%
%TO.N,/Microcontroller/D-*%
X14183363Y-28083363D03*
%TO.P,R6,2*%
%TO.N,/Microcontroller/USB_DATA.DM*%
X13016637Y-26916637D03*
%TD*%
%TO.P,R10,1*%
%TO.N,GND*%
X26183363Y-42333363D03*
%TO.P,R10,2*%
%TO.N,Net-(D4-Pad1)*%
X25016637Y-41166637D03*
%TD*%
D32*
%TO.P,C12,1*%
%TO.N,/Microcontroller/XTAL2*%
X8283188Y-43161525D03*
%TO.P,C12,2*%
%TO.N,GND*%
X7187172Y-44257541D03*
%TD*%
D36*
%TO.P,D4,1,K*%
%TO.N,Net-(D4-Pad1)*%
X27256847Y-41206847D03*
%TO.P,D4,2,A*%
%TO.N,/IO/LED_USER*%
X26143153Y-40093153D03*
%TD*%
D37*
%TO.P,C6,1*%
%TO.N,GND*%
X2050000Y-46900000D03*
%TO.P,C6,2*%
%TO.N,+5V*%
X3950000Y-46900000D03*
%TD*%
D38*
%TO.P,FB4,1*%
%TO.N,/Microcontroller/AVCC_P44*%
X21143153Y-27056847D03*
%TO.P,FB4,2*%
%TO.N,+5V*%
X22256847Y-25943153D03*
%TD*%
D39*
%TO.P,JP1,1,A*%
%TO.N,+5V*%
X-1128000Y-36576000D03*
D40*
%TO.P,JP1,2,B*%
%TO.N,Net-(D6-Pad2)*%
X-2428000Y-36576000D03*
%TD*%
D18*
%TO.P,R2,1*%
%TO.N,GND*%
X5425000Y-30300000D03*
%TO.P,R2,2*%
%TO.N,/USB Data/CC1*%
X3775000Y-30300000D03*
%TD*%
D35*
%TO.P,R5,1*%
%TO.N,/Microcontroller/D+*%
X13122702Y-29144024D03*
%TO.P,R5,2*%
%TO.N,/Microcontroller/USB_DATA.DP*%
X11955976Y-27977298D03*
%TD*%
D41*
%TO.P,FB1,1*%
%TO.N,/USB Data/VBUS*%
X3837500Y-23200000D03*
%TO.P,FB1,2*%
%TO.N,+5V*%
X5962500Y-23200000D03*
%TD*%
D42*
%TO.P,J1,A1,GND*%
%TO.N,GND*%
X1845000Y-22430000D03*
%TO.P,J1,A4,VBUS*%
%TO.N,/USB Data/VBUS*%
X1845000Y-23230000D03*
D43*
%TO.P,J1,A5,CC1*%
%TO.N,/USB Data/CC1*%
X1845000Y-24430000D03*
%TO.P,J1,A6,D+*%
%TO.N,/USB Data/D+*%
X1845000Y-25430000D03*
%TO.P,J1,A7,D-*%
%TO.N,/USB Data/D-*%
X1845000Y-25930000D03*
%TO.P,J1,A8,SBU1*%
%TO.N,unconnected-(J1-PadA8)*%
X1845000Y-26930000D03*
D42*
%TO.P,J1,A9,VBUS*%
%TO.N,/USB Data/VBUS*%
X1845000Y-28130000D03*
%TO.P,J1,A12,GND*%
%TO.N,GND*%
X1845000Y-28930000D03*
%TO.P,J1,B1,GND*%
X1845000Y-28930000D03*
%TO.P,J1,B4,VBUS*%
%TO.N,/USB Data/VBUS*%
X1845000Y-28130000D03*
D43*
%TO.P,J1,B5,CC2*%
%TO.N,/USB Data/CC2*%
X1845000Y-27430000D03*
%TO.P,J1,B6,D+*%
%TO.N,/USB Data/D+*%
X1845000Y-26430000D03*
%TO.P,J1,B7,D-*%
%TO.N,/USB Data/D-*%
X1845000Y-24930000D03*
%TO.P,J1,B8,SBU2*%
%TO.N,unconnected-(J1-PadB8)*%
X1845000Y-23930000D03*
D42*
%TO.P,J1,B9,VBUS*%
%TO.N,/USB Data/VBUS*%
X1845000Y-23230000D03*
%TO.P,J1,B12,GND*%
%TO.N,GND*%
X1845000Y-22430000D03*
D44*
%TO.P,J1,S1,SHIELD*%
X-3250000Y-30000000D03*
D45*
X930000Y-30000000D03*
X930000Y-21360000D03*
D44*
X-3250000Y-21360000D03*
%TD*%
D13*
%TO.P,C4,1*%
%TO.N,GND*%
X2700000Y-5175000D03*
%TO.P,C4,2*%
%TO.N,+3V3*%
X2700000Y-6725000D03*
%TD*%
D27*
%TO.P,H4,1,1*%
%TO.N,unconnected-(H4-Pad1)*%
X36000000Y-66400000D03*
D28*
X36000000Y-64000000D03*
D27*
X37697056Y-62302944D03*
X38400000Y-64000000D03*
X33600000Y-64000000D03*
X34302944Y-65697056D03*
X34302944Y-62302944D03*
X36000000Y-61600000D03*
X37697056Y-65697056D03*
%TD*%
D46*
%TO.P,U2,1,PE6*%
%TO.N,/DB25/CE*%
X16797918Y-29141064D03*
%TO.P,U2,2,UVCC*%
%TO.N,+5V*%
X16232233Y-29706750D03*
%TO.P,U2,3,D-*%
%TO.N,/Microcontroller/D-*%
X15666548Y-30272435D03*
%TO.P,U2,4,D+*%
%TO.N,/Microcontroller/D+*%
X15100862Y-30838120D03*
%TO.P,U2,5,UGND*%
%TO.N,/Microcontroller/UGND*%
X14535177Y-31403806D03*
%TO.P,U2,6,UCAP*%
%TO.N,/Microcontroller/UCAP*%
X13969491Y-31969491D03*
%TO.P,U2,7,VBUS*%
%TO.N,+5V*%
X13403806Y-32535177D03*
%TO.P,U2,8,PB0*%
%TO.N,/IO/RX_LED*%
X12838120Y-33100862D03*
%TO.P,U2,9,PB1*%
%TO.N,/DB25/SCK*%
X12272435Y-33666548D03*
%TO.P,U2,10,PB2*%
%TO.N,/DB25/MOSI*%
X11706750Y-34232233D03*
%TO.P,U2,11,PB3*%
%TO.N,/DB25/MISO*%
X11141064Y-34797918D03*
D47*
%TO.P,U2,12,PB7*%
%TO.N,unconnected-(U2-Pad12)*%
X11141064Y-37202082D03*
%TO.P,U2,13,~{RESET}*%
%TO.N,/DB25/RST*%
X11706750Y-37767767D03*
%TO.P,U2,14,VCC*%
%TO.N,+5V*%
X12272435Y-38333452D03*
%TO.P,U2,15,GND*%
%TO.N,GND*%
X12838120Y-38899138D03*
%TO.P,U2,16,XTAL2*%
%TO.N,/Microcontroller/XTAL2*%
X13403806Y-39464823D03*
%TO.P,U2,17,XTAL1*%
%TO.N,/Microcontroller/XTAL1*%
X13969491Y-40030509D03*
%TO.P,U2,18,PD0*%
%TO.N,/DB25/PD0*%
X14535177Y-40596194D03*
%TO.P,U2,19,PD1*%
%TO.N,/DB25/PD1*%
X15100862Y-41161880D03*
%TO.P,U2,20,PD2*%
%TO.N,/DB25/TX*%
X15666548Y-41727565D03*
%TO.P,U2,21,PD3*%
%TO.N,/DB25/RX*%
X16232233Y-42293250D03*
%TO.P,U2,22,PD5*%
%TO.N,/IO/TX_LED*%
X16797918Y-42858936D03*
D46*
%TO.P,U2,23,GND*%
%TO.N,GND*%
X19202082Y-42858936D03*
%TO.P,U2,24,AVCC*%
%TO.N,/Microcontroller/AVCC_P24*%
X19767767Y-42293250D03*
%TO.P,U2,25,PD4*%
%TO.N,/DB25/PD4*%
X20333452Y-41727565D03*
%TO.P,U2,26,PD6*%
%TO.N,unconnected-(U2-Pad26)*%
X20899138Y-41161880D03*
%TO.P,U2,27,PD7*%
%TO.N,/DB25/PD7*%
X21464823Y-40596194D03*
%TO.P,U2,28,PB4*%
%TO.N,/DB25/CSN*%
X22030509Y-40030509D03*
%TO.P,U2,29,PB5*%
%TO.N,/DB25/PB5*%
X22596194Y-39464823D03*
%TO.P,U2,30,PB6*%
%TO.N,/DB25/PB6*%
X23161880Y-38899138D03*
%TO.P,U2,31,PC6*%
%TO.N,/DB25/PC6*%
X23727565Y-38333452D03*
%TO.P,U2,32,PC7*%
%TO.N,/IO/LED_USER*%
X24293250Y-37767767D03*
%TO.P,U2,33,~{HWB}/PE2*%
%TO.N,/IO/SW_HWB*%
X24858936Y-37202082D03*
D47*
%TO.P,U2,34,VCC*%
%TO.N,+5V*%
X24858936Y-34797918D03*
%TO.P,U2,35,GND*%
%TO.N,GND*%
X24293250Y-34232233D03*
%TO.P,U2,36,PF7*%
%TO.N,/DB25/PF7*%
X23727565Y-33666548D03*
%TO.P,U2,37,PF6*%
%TO.N,/DB25/PF6*%
X23161880Y-33100862D03*
%TO.P,U2,38,PF5*%
%TO.N,/DB25/PF5*%
X22596194Y-32535177D03*
%TO.P,U2,39,PF4*%
%TO.N,/DB25/PF4*%
X22030509Y-31969491D03*
%TO.P,U2,40,PF1*%
%TO.N,/DB25/IRQ*%
X21464823Y-31403806D03*
%TO.P,U2,41,PF0*%
%TO.N,unconnected-(U2-Pad41)*%
X20899138Y-30838120D03*
%TO.P,U2,42,AREF*%
%TO.N,unconnected-(U2-Pad42)*%
X20333452Y-30272435D03*
%TO.P,U2,43,GND*%
%TO.N,GND*%
X19767767Y-29706750D03*
%TO.P,U2,44,AVCC*%
%TO.N,/Microcontroller/AVCC_P44*%
X19202082Y-29141064D03*
%TD*%
D48*
%TO.P,D1,1,K*%
%TO.N,/Power/VREGIN*%
X9350000Y-21300000D03*
%TO.P,D1,2,A*%
%TO.N,+5V*%
X7250000Y-21300000D03*
%TD*%
D18*
%TO.P,R13,1*%
%TO.N,Net-(D6-Pad1)*%
X-953000Y-40276000D03*
%TO.P,R13,2*%
%TO.N,GND*%
X-2603000Y-40276000D03*
%TD*%
D23*
%TO.P,C8,1*%
%TO.N,GND*%
X7225000Y-36800000D03*
%TO.P,C8,2*%
%TO.N,+5V*%
X8775000Y-36800000D03*
%TD*%
D48*
%TO.P,D5,2,A*%
%TO.N,/DB25/RST*%
X6550000Y-41500000D03*
%TO.P,D5,1,K*%
%TO.N,+5V*%
X4450000Y-41500000D03*
%TD*%
D49*
%TO.P,R12,1*%
%TO.N,/DB25/PB5*%
X23966637Y-42216637D03*
%TO.P,R12,2*%
%TO.N,+5V*%
X25133363Y-43383363D03*
%TD*%
D21*
%TO.P,R3,1*%
%TO.N,/USB Program/CC2*%
X3775000Y-56400000D03*
%TO.P,R3,2*%
%TO.N,GND*%
X5425000Y-56400000D03*
%TD*%
D24*
%TO.P,R15,1*%
%TO.N,Net-(D8-Pad2)*%
X23500000Y-50825000D03*
%TO.P,R15,2*%
%TO.N,/IO/TX_LED*%
X23500000Y-49175000D03*
%TD*%
D42*
%TO.P,J2,A1,GND*%
%TO.N,GND*%
X1845000Y-50050000D03*
%TO.P,J2,A4,VBUS*%
%TO.N,/USB Program/VBUS*%
X1845000Y-50850000D03*
D43*
%TO.P,J2,A5,CC1*%
%TO.N,/USB Program/CC1*%
X1845000Y-52050000D03*
%TO.P,J2,A6,D+*%
%TO.N,/USB Program/D+*%
X1845000Y-53050000D03*
%TO.P,J2,A7,D-*%
%TO.N,/USB Program/D-*%
X1845000Y-53550000D03*
%TO.P,J2,A8,SBU1*%
%TO.N,unconnected-(J2-PadA8)*%
X1845000Y-54550000D03*
D42*
%TO.P,J2,A9,VBUS*%
%TO.N,/USB Program/VBUS*%
X1845000Y-55750000D03*
%TO.P,J2,A12,GND*%
%TO.N,GND*%
X1845000Y-56550000D03*
%TO.P,J2,B1,GND*%
X1845000Y-56550000D03*
%TO.P,J2,B4,VBUS*%
%TO.N,/USB Program/VBUS*%
X1845000Y-55750000D03*
D43*
%TO.P,J2,B5,CC2*%
%TO.N,/USB Program/CC2*%
X1845000Y-55050000D03*
%TO.P,J2,B6,D+*%
%TO.N,/USB Program/D+*%
X1845000Y-54050000D03*
%TO.P,J2,B7,D-*%
%TO.N,/USB Program/D-*%
X1845000Y-52550000D03*
%TO.P,J2,B8,SBU2*%
%TO.N,unconnected-(J2-PadB8)*%
X1845000Y-51550000D03*
D42*
%TO.P,J2,B9,VBUS*%
%TO.N,/USB Program/VBUS*%
X1845000Y-50850000D03*
%TO.P,J2,B12,GND*%
%TO.N,GND*%
X1845000Y-50050000D03*
D44*
%TO.P,J2,S1,SHIELD*%
X-3250000Y-48980000D03*
D45*
X930000Y-57620000D03*
X930000Y-48980000D03*
D44*
X-3250000Y-57620000D03*
%TD*%
D27*
%TO.P,H3,1,1*%
%TO.N,unconnected-(H3-Pad1)*%
X34302944Y1697056D03*
X36000000Y2400000D03*
X33600000Y0D03*
X37697056Y1697056D03*
D28*
X36000000Y0D03*
D27*
X36000000Y-2400000D03*
X37697056Y-1697056D03*
X38400000Y0D03*
X34302944Y-1697056D03*
%TD*%
D24*
%TO.P,R14,1*%
%TO.N,Net-(D7-Pad2)*%
X21900000Y-50825000D03*
%TO.P,R14,2*%
%TO.N,/IO/RX_LED*%
X21900000Y-49175000D03*
%TD*%
D50*
%TO.P,D6,1,K*%
%TO.N,Net-(D6-Pad1)*%
X-990500Y-38676000D03*
%TO.P,D6,2,A*%
%TO.N,Net-(D6-Pad2)*%
X-2565500Y-38676000D03*
%TD*%
D27*
%TO.P,H2,1,1*%
%TO.N,unconnected-(H2-Pad1)*%
X2400000Y-64000000D03*
X-1697056Y-65697056D03*
X1697056Y-65697056D03*
X1697056Y-62302944D03*
X0Y-66400000D03*
X0Y-61600000D03*
X-2400000Y-64000000D03*
X-1697056Y-62302944D03*
D28*
X0Y-64000000D03*
%TD*%
D25*
%TO.P,D7,2,A*%
%TO.N,Net-(D7-Pad2)*%
X21900000Y-53612500D03*
%TO.P,D7,1,K*%
%TO.N,GND*%
X21900000Y-55187500D03*
%TD*%
D51*
%TO.P,C3,2*%
%TO.N,+3V3*%
X100000Y-6950000D03*
%TO.P,C3,1*%
%TO.N,GND*%
X100000Y-5050000D03*
%TD*%
D52*
%TO.P,Y1,4,4*%
%TO.N,GND*%
X11376777Y-43462043D03*
%TO.P,Y1,3,3*%
%TO.N,/Microcontroller/XTAL2*%
X9821142Y-41906408D03*
%TO.P,Y1,2,2*%
%TO.N,GND*%
X11023223Y-40704327D03*
%TO.P,Y1,1,1*%
%TO.N,/Microcontroller/XTAL1*%
X12578858Y-42259962D03*
%TD*%
D26*
%TO.P,C17,1*%
%TO.N,/UART/RTS*%
X15200000Y-55175000D03*
%TO.P,C17,2*%
%TO.N,/DB25/RST*%
X15200000Y-53625000D03*
%TD*%
D53*
%TO.P,SW2,1,1*%
%TO.N,Net-(R16-Pad2)*%
X15500000Y-62900000D03*
%TO.P,SW2,2,2*%
%TO.N,GND*%
X15500000Y-67100000D03*
%TD*%
D33*
%TO.P,D2,1,K*%
%TO.N,Net-(D2-Pad1)*%
X16700000Y-53612500D03*
%TO.P,D2,2,A*%
%TO.N,+5V*%
X16700000Y-55187500D03*
%TD*%
D53*
%TO.P,SW1,1,1*%
%TO.N,Net-(R9-Pad2)*%
X20500000Y-62900000D03*
%TO.P,SW1,2,2*%
%TO.N,GND*%
X20500000Y-67100000D03*
%TD*%
D54*
%TO.P,FB2,1*%
%TO.N,/USB Program/VBUS*%
X4000000Y-50762500D03*
%TO.P,FB2,2*%
%TO.N,+5V*%
X4000000Y-48637500D03*
%TD*%
D37*
%TO.P,C1,1*%
%TO.N,GND*%
X3950000Y-21300000D03*
%TO.P,C1,2*%
%TO.N,+5V*%
X5850000Y-21300000D03*
%TD*%
D26*
%TO.P,C16,1*%
%TO.N,GND*%
X8200000Y-50775000D03*
%TO.P,C16,2*%
%TO.N,/UART/V3*%
X8200000Y-49225000D03*
%TD*%
D37*
%TO.P,C2,1*%
%TO.N,GND*%
X7350000Y-19300000D03*
%TO.P,C2,2*%
%TO.N,/Power/VREGIN*%
X9250000Y-19300000D03*
%TD*%
D55*
%TO.N,/DB25/PB5*%
X24400000Y-39706500D03*
X27400000Y-37350000D03*
%TO.N,GND*%
X22150000Y-46300000D03*
X27750000Y-42600000D03*
%TO.N,+5V*%
X26500000Y-43700000D03*
D56*
X19300000Y-13450000D03*
%TO.N,GND*%
X24850000Y-55200000D03*
%TO.N,+5V*%
X5650000Y-46900000D03*
X5600000Y-48600000D03*
X7300000Y-22300000D03*
X7300000Y-23300000D03*
%TO.N,+3V3*%
X2250000Y-11650000D03*
X3150000Y-11650000D03*
X2250000Y-12600000D03*
X3150000Y-12600000D03*
X2250000Y-13550000D03*
X3150000Y-13550000D03*
D55*
%TO.N,+5V*%
X19500000Y-55200000D03*
%TO.N,GND*%
X18000000Y-67100000D03*
%TO.N,/DB25/TX*%
X19600000Y-50000000D03*
%TO.N,/DB25/PB6*%
X22200000Y-34500000D03*
%TO.N,/DB25/PD7*%
X20400000Y-36650000D03*
%TO.N,/IO/RX_LED*%
X10500000Y-32600000D03*
X20700000Y-48500000D03*
%TO.N,/DB25/RX*%
X17600000Y-35300000D03*
%TO.N,/DB25/CE*%
X19650000Y-35200000D03*
%TO.N,/DB25/MISO*%
X16100000Y-32300000D03*
%TO.N,GND*%
X20900000Y-28600000D03*
X6500000Y-57100000D03*
X9500000Y-28700000D03*
X4100000Y-5200000D03*
X13600000Y-52300000D03*
X-1300000Y-5100000D03*
X26600000Y-30900000D03*
X9700000Y-51400000D03*
X13900000Y-37800000D03*
X3800000Y-37300000D03*
X15000000Y-25000000D03*
X20200000Y-43900000D03*
X6000000Y-36100000D03*
X1500000Y-5200000D03*
X-3700000Y-40300000D03*
X3500000Y-53400000D03*
X24200000Y-26100000D03*
X6500000Y-29500000D03*
X8088733Y-45194455D03*
X3600000Y-26000000D03*
%TO.N,+5V*%
X12300000Y-51900000D03*
X16100000Y-26100000D03*
X14400000Y-33500000D03*
X300000Y-36600000D03*
X23100000Y-25100000D03*
X4500000Y-42800000D03*
X8800000Y-34100000D03*
X27700000Y-32000000D03*
D56*
%TO.N,+3V3*%
X-1900000Y-10200000D03*
X8200000Y-7400000D03*
X8200000Y-9200000D03*
X7300000Y-6500000D03*
X-2800000Y-7500000D03*
X-1900000Y-8400000D03*
X7300000Y-9200000D03*
X8200000Y-6500000D03*
X7300000Y-7400000D03*
X-2800000Y-10200000D03*
X-1900000Y-7500000D03*
X-1900000Y-9300000D03*
X-2800000Y-9300000D03*
X-1900000Y-6600000D03*
X-2800000Y-6600000D03*
X7300000Y-8300000D03*
X8200000Y-8300000D03*
X-2800000Y-8400000D03*
X8200000Y-10100000D03*
X7300000Y-10100000D03*
D55*
%TO.N,/DB25/RST*%
X7700000Y-38300000D03*
X17400000Y-61450000D03*
X15200000Y-52200000D03*
X10000000Y-38300000D03*
%TO.N,/IO/SW_HWB*%
X27800000Y-47400000D03*
X18550000Y-61450000D03*
%TO.N,/DB25/SCK*%
X13500000Y-34800000D03*
%TO.N,/DB25/MOSI*%
X15300000Y-34600000D03*
%TO.N,/DB25/MISO*%
X12300000Y-35900000D03*
%TO.N,/DB25/PD1*%
X17600000Y-38700000D03*
%TO.N,/DB25/TX*%
X13600000Y-47800000D03*
X13600000Y-46500000D03*
%TO.N,/DB25/PD0*%
X17900000Y-41200000D03*
X15900000Y-39200000D03*
%TO.N,/DB25/PD4*%
X18800000Y-36650000D03*
%TO.N,/USB Data/CC1*%
X3100000Y-31500000D03*
X3400000Y-24376500D03*
%TO.N,/USB Program/CC1*%
X3800000Y-59100000D03*
X3500000Y-51996500D03*
%TD*%
D57*
%TO.N,/DB25/MISO*%
X16100000Y-34800000D02*
X15000000Y-35900000D01*
X16100000Y-32300000D02*
X16100000Y-34800000D01*
X15000000Y-35900000D02*
X12300000Y-35900000D01*
%TO.N,/DB25/PD0*%
X32100000Y-44460331D02*
X30669669Y-43030000D01*
X32100000Y-46400000D02*
X32100000Y-44460331D01*
X29500000Y-47200000D02*
X31300000Y-47200000D01*
X22544947Y-48200000D02*
X28500000Y-48200000D01*
X28500000Y-48200000D02*
X29500000Y-47200000D01*
X21639347Y-47294400D02*
X22544947Y-48200000D01*
X19994400Y-47294400D02*
X21639347Y-47294400D01*
X17900000Y-45200000D02*
X19994400Y-47294400D01*
X31300000Y-47200000D02*
X32100000Y-46400000D01*
X17900000Y-41200000D02*
X17900000Y-45200000D01*
%TO.N,/DB25/TX*%
X12335000Y-48440000D02*
X12335000Y-49725000D01*
X12975000Y-47800000D02*
X12335000Y-48440000D01*
X13600000Y-47800000D02*
X12975000Y-47800000D01*
%TO.N,/DB25/RX*%
X11065000Y-48435000D02*
X11065000Y-49725000D01*
X16950000Y-47200000D02*
X12300000Y-47200000D01*
X18200000Y-49175000D02*
X18200000Y-48450000D01*
X18200000Y-48450000D02*
X16950000Y-47200000D01*
X12300000Y-47200000D02*
X11065000Y-48435000D01*
%TO.N,/DB25/TX*%
X16050000Y-47800000D02*
X16700000Y-48450000D01*
X13600000Y-47800000D02*
X16050000Y-47800000D01*
X16700000Y-48450000D02*
X16700000Y-49175000D01*
%TO.N,/UART/USB_PRGM.DM*%
X7137500Y-52450000D02*
X9500000Y-52450000D01*
X9500000Y-52450000D02*
X11065000Y-54015000D01*
X11065000Y-54015000D02*
X11065000Y-54675000D01*
%TO.N,/DB25/CE*%
X17200000Y-24440000D02*
X15460000Y-22700000D01*
X17200000Y-28738982D02*
X17200000Y-24440000D01*
X16797918Y-29141064D02*
X17200000Y-28738982D01*
%TO.N,/Microcontroller/AVCC_P24*%
X21901992Y-44351992D02*
X21826509Y-44351992D01*
X21826509Y-44351992D02*
X19767767Y-42293250D01*
%TO.N,/DB25/CSN*%
X16750000Y-21450000D02*
X15460000Y-20160000D01*
X16750000Y-23400000D02*
X16750000Y-21450000D01*
X21100000Y-35300000D02*
X18050000Y-32250000D01*
X21100000Y-39100000D02*
X21100000Y-35300000D01*
X18050000Y-24700000D02*
X16750000Y-23400000D01*
X22030509Y-40030509D02*
X21100000Y-39100000D01*
X18050000Y-32250000D02*
X18050000Y-24700000D01*
%TO.N,/DB25/PB5*%
X31400000Y-38850000D02*
X28900000Y-38850000D01*
X34110500Y-37450000D02*
X32800000Y-37450000D01*
X34900000Y-36660500D02*
X34110500Y-37450000D01*
X34900000Y-27200000D02*
X34900000Y-36660500D01*
X28900000Y-38850000D02*
X27400000Y-37350000D01*
X34110000Y-26410000D02*
X34900000Y-27200000D01*
X32800000Y-37450000D02*
X31400000Y-38850000D01*
X30669669Y-26410000D02*
X34110000Y-26410000D01*
X24400000Y-39750000D02*
X23640685Y-40509315D01*
X24400000Y-39706500D02*
X24400000Y-39750000D01*
X23640685Y-40509315D02*
X22596194Y-39464823D01*
X23966637Y-40835266D02*
X23640685Y-40509315D01*
%TO.N,GND*%
X22998008Y-45451992D02*
X22150000Y-46300000D01*
X22998008Y-45448008D02*
X22998008Y-45451992D01*
X27483363Y-42333363D02*
X27750000Y-42600000D01*
X26183363Y-42333363D02*
X27483363Y-42333363D01*
%TO.N,+5V*%
X26183363Y-43383363D02*
X26500000Y-43700000D01*
X25133363Y-43383363D02*
X26183363Y-43383363D01*
%TO.N,Net-(D4-Pad1)*%
X27216637Y-41166637D02*
X27256847Y-41206847D01*
X25016637Y-41166637D02*
X27216637Y-41166637D01*
%TO.N,/IO/SW_HWB*%
X28650000Y-46550000D02*
X27800000Y-47400000D01*
X28650000Y-40993146D02*
X28650000Y-46550000D01*
X24858936Y-37202082D02*
X28650000Y-40993146D01*
%TO.N,/IO/LED_USER*%
X26143153Y-39617670D02*
X26143153Y-40093153D01*
X24293250Y-37767767D02*
X26143153Y-39617670D01*
%TO.N,/DB25/PB5*%
X23966637Y-42216637D02*
X23966637Y-40835266D01*
%TO.N,/Microcontroller/AVCC_P24*%
X22943153Y-43310831D02*
X21901992Y-44351992D01*
X22943153Y-43293153D02*
X22943153Y-43310831D01*
%TO.N,+5V*%
X24109879Y-44406847D02*
X25133363Y-43383363D01*
X24056847Y-44406847D02*
X24109879Y-44406847D01*
%TO.N,/IO/TX_LED*%
X16150000Y-43506854D02*
X16797918Y-42858936D01*
X16150000Y-45100000D02*
X16150000Y-43506854D01*
X18700000Y-47650000D02*
X16150000Y-45100000D01*
X21492053Y-47650000D02*
X18700000Y-47650000D01*
X23500000Y-49175000D02*
X23017053Y-49175000D01*
X23017053Y-49175000D02*
X21492053Y-47650000D01*
D58*
%TO.N,+5V*%
X20662500Y-13450000D02*
X19300000Y-13450000D01*
%TO.N,/DB25/5VF*%
X22537500Y-13450000D02*
X33200000Y-13450000D01*
%TO.N,/DB25/3V3F*%
X28450000Y-11750000D02*
X33900000Y-11750000D01*
X36950000Y-18900000D02*
X33595000Y-22255000D01*
X25950000Y-9250000D02*
X28450000Y-11750000D01*
X33900000Y-11750000D02*
X36950000Y-14800000D01*
X22537500Y-9250000D02*
X25950000Y-9250000D01*
X36950000Y-14800000D02*
X36950000Y-18900000D01*
X33595000Y-22255000D02*
X33509669Y-22255000D01*
%TO.N,/DB25/5VF*%
X35300000Y-17694669D02*
X33509669Y-19485000D01*
X35300000Y-15550000D02*
X35300000Y-17694669D01*
X33200000Y-13450000D02*
X35300000Y-15550000D01*
%TO.N,+3V3*%
X11650000Y-9250000D02*
X20662500Y-9250000D01*
D57*
%TO.N,Net-(R16-Pad2)*%
X14625000Y-62025000D02*
X15500000Y-62900000D01*
X14625000Y-61450000D02*
X14625000Y-62025000D01*
%TO.N,/DB25/RST*%
X17400000Y-61450000D02*
X16275000Y-61450000D01*
%TO.N,/IO/SW_HWB*%
X19675000Y-61450000D02*
X18550000Y-61450000D01*
%TO.N,Net-(R9-Pad2)*%
X21325000Y-61450000D02*
X21325000Y-62075000D01*
X21325000Y-62075000D02*
X20500000Y-62900000D01*
%TO.N,/IO/RX_LED*%
X21225000Y-48500000D02*
X21900000Y-49175000D01*
X20700000Y-48500000D02*
X21225000Y-48500000D01*
%TO.N,GND*%
X24837500Y-55187500D02*
X24850000Y-55200000D01*
X23500000Y-55187500D02*
X24837500Y-55187500D01*
X21900000Y-55187500D02*
X23500000Y-55187500D01*
%TO.N,Net-(D8-Pad2)*%
X23500000Y-50775000D02*
X23500000Y-53612500D01*
%TO.N,Net-(D7-Pad2)*%
X21900000Y-50775000D02*
X21900000Y-53612500D01*
D59*
%TO.N,/USB Program/VBUS*%
X1150000Y-55750000D02*
X1845000Y-55750000D01*
X400000Y-55000000D02*
X1150000Y-55750000D01*
X1845000Y-50850000D02*
X1060543Y-50850000D01*
X1060543Y-50850000D02*
X400000Y-51510543D01*
X400000Y-51510543D02*
X400000Y-55000000D01*
D57*
%TO.N,/DB25/PD7*%
X20400000Y-36650000D02*
X20400000Y-39531371D01*
X20400000Y-39531371D02*
X21464823Y-40596194D01*
%TO.N,/DB25/CE*%
X19650000Y-35200000D02*
X17444400Y-32994400D01*
X17444400Y-32994400D02*
X17444400Y-29787546D01*
X17444400Y-29787546D02*
X16797918Y-29141064D01*
%TO.N,/DB25/PD4*%
X19300000Y-37150000D02*
X19300000Y-40694113D01*
X18800000Y-36650000D02*
X19300000Y-37150000D01*
X19300000Y-40694113D02*
X20333452Y-41727565D01*
%TO.N,/DB25/RX*%
X17000000Y-41525483D02*
X16232233Y-42293250D01*
X17000000Y-40700000D02*
X17000000Y-41525483D01*
X18500000Y-38150000D02*
X18500000Y-39200000D01*
X18500000Y-39200000D02*
X17000000Y-40700000D01*
X17600000Y-37250000D02*
X18500000Y-38150000D01*
X17600000Y-35300000D02*
X17600000Y-37250000D01*
%TO.N,/DB25/TX*%
X13600000Y-46500000D02*
X14400000Y-45700000D01*
X14400000Y-45700000D02*
X14400000Y-42994113D01*
X14400000Y-42994113D02*
X15666548Y-41727565D01*
%TO.N,+5V*%
X8775000Y-38275000D02*
X8775000Y-36800000D01*
X11705887Y-38900000D02*
X9400000Y-38900000D01*
X12272435Y-38333452D02*
X11705887Y-38900000D01*
X9400000Y-38900000D02*
X8775000Y-38275000D01*
D60*
%TO.N,GND*%
X5275000Y-5200000D02*
X5300000Y-5175000D01*
X4100000Y-5200000D02*
X5275000Y-5200000D01*
X1525000Y-5175000D02*
X1500000Y-5200000D01*
X2700000Y-5175000D02*
X1525000Y-5175000D01*
D57*
%TO.N,/Microcontroller/XTAL2*%
X13486478Y-39651561D02*
X11231631Y-41906408D01*
X11231631Y-41906408D02*
X9821142Y-41906408D01*
X13486478Y-39589600D02*
X13486478Y-39651561D01*
%TO.N,/DB25/RX*%
X15100000Y-43425483D02*
X15100000Y-47200000D01*
X16232233Y-42293250D02*
X15100000Y-43425483D01*
%TO.N,+5V*%
X19487500Y-55187500D02*
X19500000Y-55200000D01*
X18200000Y-55187500D02*
X19487500Y-55187500D01*
X16700000Y-55187500D02*
X18200000Y-55187500D01*
%TO.N,GND*%
X15500000Y-67100000D02*
X18000000Y-67100000D01*
X20500000Y-67100000D02*
X18000000Y-67100000D01*
X3825000Y-37300000D02*
X4825000Y-38300000D01*
X3800000Y-37300000D02*
X3825000Y-37300000D01*
%TO.N,+5V*%
X4450000Y-41500000D02*
X4450000Y-42750000D01*
X4450000Y-42750000D02*
X4500000Y-42800000D01*
%TO.N,/DB25/TX*%
X19600000Y-50000000D02*
X29239669Y-50000000D01*
X29239669Y-50000000D02*
X30669669Y-48570000D01*
%TO.N,/DB25/PB6*%
X22200000Y-37937258D02*
X22200000Y-34500000D01*
X23161880Y-38899138D02*
X22200000Y-37937258D01*
%TO.N,/DB25/RST*%
X11174517Y-38300000D02*
X11706750Y-37767767D01*
X10000000Y-38300000D02*
X11174517Y-38300000D01*
%TO.N,/IO/RX_LED*%
X12337258Y-32600000D02*
X10500000Y-32600000D01*
X12838120Y-33100862D02*
X12337258Y-32600000D01*
%TO.N,GND*%
X12838120Y-38861880D02*
X13900000Y-37800000D01*
D60*
X930000Y-49767615D02*
X930000Y-48980000D01*
X930000Y-29212385D02*
X930000Y-30000000D01*
X7350000Y-19300000D02*
X4400000Y-19300000D01*
X930000Y-22147615D02*
X930000Y-21360000D01*
D57*
X4962500Y-26000000D02*
X3600000Y-26000000D01*
D60*
X2050000Y-46900000D02*
X2050000Y-47860000D01*
D57*
X12335000Y-53565000D02*
X12335000Y-54675000D01*
D60*
X1212385Y-56550000D02*
X930000Y-56832385D01*
D57*
X10930671Y-29073313D02*
X10557358Y-28700000D01*
X7187170Y-44257541D02*
X8088735Y-45159102D01*
X7225000Y-36800000D02*
X6700000Y-36800000D01*
X19793250Y-29706750D02*
X20900000Y-28600000D01*
X15125000Y-50775000D02*
X15200000Y-50775000D01*
X9500000Y-29763962D02*
X9870011Y-30133973D01*
X25751992Y-31751992D02*
X25751992Y-32773491D01*
D60*
X1212385Y-28930000D02*
X930000Y-29212385D01*
X3950000Y-19750000D02*
X3950000Y-21300000D01*
D57*
X5425000Y-56400000D02*
X5800000Y-56400000D01*
D60*
X930000Y-56832385D02*
X930000Y-57620000D01*
D57*
X-2603000Y-40276000D02*
X-3676000Y-40276000D01*
D60*
X990000Y-21300000D02*
X930000Y-21360000D01*
D57*
X14112652Y-25891332D02*
X14112652Y-25887348D01*
X8124090Y-45194457D02*
X8088733Y-45194455D01*
D60*
X-1250000Y-5050000D02*
X-1300000Y-5100000D01*
D57*
X23300000Y-27000000D02*
X24200000Y-26100000D01*
X13600000Y-52300000D02*
X15125000Y-50775000D01*
X14112652Y-25887348D02*
X15000000Y-25000000D01*
X5700000Y-57900000D02*
X6500000Y-57100000D01*
X12838120Y-38899138D02*
X12838120Y-38861880D01*
X19767767Y-29706750D02*
X19793250Y-29706750D01*
D60*
X2050000Y-47860000D02*
X930000Y-48980000D01*
X1212385Y-22430000D02*
X930000Y-22147615D01*
D57*
X19202082Y-42902082D02*
X20200000Y-43900000D01*
D60*
X1212385Y-50050000D02*
X930000Y-49767615D01*
D57*
X10557358Y-28700000D02*
X9500000Y-28700000D01*
X5700000Y-30300000D02*
X6500000Y-29500000D01*
X8200000Y-50775000D02*
X9075000Y-50775000D01*
X9025649Y-46096018D02*
X8124090Y-45194457D01*
X25751992Y-32773491D02*
X24293250Y-34232233D01*
D60*
X930000Y-21360000D02*
X400000Y-20830000D01*
D57*
X5800000Y-28800000D02*
X6500000Y-29500000D01*
D60*
X100000Y-5050000D02*
X-1250000Y-5050000D01*
X4400000Y-19300000D02*
X3950000Y-19750000D01*
D57*
X25751992Y-31751992D02*
X25751992Y-31748008D01*
D60*
X400000Y-20830000D02*
X400000Y-15550000D01*
D57*
X7225000Y-35300000D02*
X6800000Y-35300000D01*
X25751992Y-31748008D02*
X26600000Y-30900000D01*
X8088735Y-45159102D02*
X8088733Y-45194455D01*
X4862500Y-53400000D02*
X3500000Y-53400000D01*
X9500000Y-28700000D02*
X9500000Y-29763962D01*
X5425000Y-30300000D02*
X5700000Y-30300000D01*
X-3676000Y-40276000D02*
X-3700000Y-40300000D01*
D60*
X1845000Y-22430000D02*
X1212385Y-22430000D01*
X1845000Y-50050000D02*
X1212385Y-50050000D01*
X1845000Y-56550000D02*
X1212385Y-56550000D01*
D57*
X5425000Y-57900000D02*
X5700000Y-57900000D01*
D60*
X3950000Y-21300000D02*
X990000Y-21300000D01*
D57*
X19202082Y-42858936D02*
X19202082Y-42902082D01*
X6800000Y-35300000D02*
X6000000Y-36100000D01*
D60*
X1845000Y-28930000D02*
X1212385Y-28930000D01*
D57*
X5800000Y-56400000D02*
X6500000Y-57100000D01*
X5425000Y-28800000D02*
X5800000Y-28800000D01*
X13600000Y-52300000D02*
X12335000Y-53565000D01*
X9075000Y-50775000D02*
X9700000Y-51400000D01*
X6700000Y-36800000D02*
X6000000Y-36100000D01*
%TO.N,+5V*%
X8775000Y-34125000D02*
X8800000Y-34100000D01*
X-1128000Y-36576000D02*
X276000Y-36576000D01*
X24858936Y-34797918D02*
X24898098Y-34797918D01*
D60*
X5850000Y-21300000D02*
X7250000Y-21300000D01*
D57*
X8775000Y-35300000D02*
X8775000Y-36800000D01*
X8775000Y-35300000D02*
X8775000Y-34125000D01*
D60*
X5962500Y-21412500D02*
X5850000Y-21300000D01*
D57*
X13605000Y-49225000D02*
X13605000Y-49725000D01*
X4775000Y-39800000D02*
X4775000Y-41175000D01*
X276000Y-36576000D02*
X300000Y-36600000D01*
X24898098Y-34797918D02*
X26848008Y-32848008D01*
X13605000Y-50595000D02*
X13605000Y-49725000D01*
D60*
X5962500Y-23200000D02*
X5962500Y-21412500D01*
D57*
X22256847Y-25943153D02*
X23100000Y-25100000D01*
X15208668Y-26987348D02*
X15212652Y-26987348D01*
X15208668Y-26987348D02*
X15208668Y-28683185D01*
X13435177Y-32535177D02*
X14400000Y-33500000D01*
X15212652Y-26987348D02*
X16100000Y-26100000D01*
X4775000Y-41175000D02*
X4450000Y-41500000D01*
X15208668Y-28683185D02*
X16232233Y-29706750D01*
X12300000Y-51900000D02*
X13605000Y-50595000D01*
X13403806Y-32535177D02*
X13435177Y-32535177D01*
X15200000Y-49225000D02*
X13605000Y-49225000D01*
X26848008Y-32848008D02*
X26851992Y-32848008D01*
X26851992Y-32848008D02*
X27700000Y-32000000D01*
D58*
%TO.N,+3V3*%
X12920000Y-20160000D02*
X12920000Y-9280000D01*
X12920000Y-9280000D02*
X12950000Y-9250000D01*
X2700000Y-9250000D02*
X12950000Y-9250000D01*
D60*
%TO.N,/Power/VREGIN*%
X9350000Y-21300000D02*
X9350000Y-19400000D01*
X9350000Y-19400000D02*
X9250000Y-19300000D01*
X9250000Y-17550000D02*
X9250000Y-19300000D01*
X5000000Y-15550000D02*
X7250000Y-15550000D01*
X7250000Y-15550000D02*
X9250000Y-17550000D01*
D57*
%TO.N,/DB25/RST*%
X7700000Y-38300000D02*
X6375000Y-38300000D01*
X6550000Y-38475000D02*
X6550000Y-41500000D01*
X15200000Y-53625000D02*
X15200000Y-52200000D01*
X6375000Y-38300000D02*
X6550000Y-38475000D01*
%TO.N,Net-(D3-Pad1)*%
X18200000Y-50825000D02*
X18200000Y-53612500D01*
%TO.N,Net-(D6-Pad1)*%
X-990500Y-40238500D02*
X-953000Y-40276000D01*
X-990500Y-38676000D02*
X-990500Y-40238500D01*
%TO.N,Net-(D6-Pad2)*%
X-2428000Y-36576000D02*
X-2428000Y-38538500D01*
X-2428000Y-38538500D02*
X-2565500Y-38676000D01*
%TO.N,/Microcontroller/USB_DATA.DP*%
X10928678Y-26950000D02*
X11955976Y-27977298D01*
X7237500Y-26950000D02*
X10928678Y-26950000D01*
%TO.N,/Microcontroller/USB_DATA.DM*%
X7237500Y-25050000D02*
X11150000Y-25050000D01*
X11150000Y-25050000D02*
X13016637Y-26916637D01*
%TO.N,Net-(D2-Pad1)*%
X16700000Y-50825000D02*
X16700000Y-53612500D01*
%TO.N,/UART/USB_PRGM.DP*%
X7137500Y-54350000D02*
X9795000Y-54350000D01*
X9795000Y-54350000D02*
X9795000Y-54675000D01*
%TO.N,/DB25/SCK*%
X13500000Y-34800000D02*
X13405887Y-34800000D01*
X13405887Y-34800000D02*
X12272435Y-33666548D01*
%TO.N,/DB25/MOSI*%
X15300000Y-34600000D02*
X14546000Y-35354000D01*
X14546000Y-35354000D02*
X12828517Y-35354000D01*
X12828517Y-35354000D02*
X11706750Y-34232233D01*
%TO.N,/DB25/MISO*%
X11141064Y-34797918D02*
X11197918Y-34797918D01*
X11197918Y-34797918D02*
X12300000Y-35900000D01*
%TO.N,/DB25/IRQ*%
X25000000Y-24620000D02*
X20540000Y-20160000D01*
X21464823Y-31403806D02*
X25000000Y-27868629D01*
X25000000Y-27868629D02*
X25000000Y-24620000D01*
%TO.N,/DB25/PF5*%
X25931371Y-29200000D02*
X22596194Y-32535177D01*
X33509669Y-30565000D02*
X29365000Y-30565000D01*
X28000000Y-29200000D02*
X25931371Y-29200000D01*
X29365000Y-30565000D02*
X28000000Y-29200000D01*
%TO.N,/DB25/PF7*%
X33509669Y-36105000D02*
X33204669Y-35800000D01*
X33204669Y-35800000D02*
X24000000Y-35800000D01*
X24000000Y-35800000D02*
X23000000Y-34800000D01*
X23000000Y-34394113D02*
X23727565Y-33666548D01*
X23000000Y-34800000D02*
X23000000Y-34394113D01*
%TO.N,/DB25/PD1*%
X15138120Y-41161880D02*
X15100862Y-41161880D01*
X17600000Y-38700000D02*
X15138120Y-41161880D01*
%TO.N,/DB25/PF4*%
X33509669Y-27795000D02*
X26205000Y-27795000D01*
X26205000Y-27795000D02*
X22030509Y-31969491D01*
%TO.N,/DB25/PF6*%
X26162742Y-30100000D02*
X27600000Y-30100000D01*
X28800000Y-31300000D02*
X28800000Y-32700000D01*
X23161880Y-33100862D02*
X26162742Y-30100000D01*
X27600000Y-30100000D02*
X28800000Y-31300000D01*
X28800000Y-32700000D02*
X29435000Y-33335000D01*
X29435000Y-33335000D02*
X33509669Y-33335000D01*
%TO.N,/DB25/PC6*%
X29335269Y-36155600D02*
X24044400Y-36155600D01*
X23100000Y-37705887D02*
X23727565Y-38333452D01*
X30669669Y-37490000D02*
X29335269Y-36155600D01*
X23100000Y-37100000D02*
X23100000Y-37705887D01*
X24044400Y-36155600D02*
X23100000Y-37100000D01*
%TO.N,/DB25/PD0*%
X15900000Y-39200000D02*
X15900000Y-39231371D01*
X15900000Y-39231371D02*
X14535177Y-40596194D01*
%TO.N,/UART/V3*%
X8200000Y-49225000D02*
X9295000Y-49225000D01*
X9295000Y-49225000D02*
X9795000Y-49725000D01*
%TO.N,/UART/RTS*%
X13605000Y-55175000D02*
X15200000Y-55175000D01*
X13605000Y-54675000D02*
X13605000Y-55175000D01*
%TO.N,/Microcontroller/XTAL1*%
X12578858Y-41204327D02*
X12578858Y-42259962D01*
X11187980Y-45000000D02*
X10121664Y-45000000D01*
X12578858Y-42259962D02*
X12578858Y-43609122D01*
X13840031Y-39943154D02*
X12578858Y-41204327D01*
X12578858Y-43609122D02*
X11187980Y-45000000D01*
%TO.N,/Microcontroller/XTAL2*%
X8566025Y-43161525D02*
X8283188Y-43161525D01*
X9821142Y-41906408D02*
X8566025Y-43161525D01*
%TO.N,/USB Data/CC1*%
X3346500Y-24430000D02*
X3400000Y-24376500D01*
X3775000Y-30300000D02*
X3775000Y-30825000D01*
X3775000Y-30825000D02*
X3100000Y-31500000D01*
X1845000Y-24430000D02*
X3346500Y-24430000D01*
%TO.N,/USB Data/CC2*%
X1845000Y-27430000D02*
X3230000Y-27430000D01*
X3775000Y-27975000D02*
X3775000Y-28800000D01*
X3230000Y-27430000D02*
X3775000Y-27975000D01*
%TO.N,/USB Program/CC1*%
X3446500Y-52050000D02*
X3500000Y-51996500D01*
X3800000Y-59100000D02*
X3800000Y-57925000D01*
X3800000Y-57925000D02*
X3775000Y-57900000D01*
X1845000Y-52050000D02*
X3446500Y-52050000D01*
%TO.N,/USB Program/CC2*%
X3775000Y-55875000D02*
X3775000Y-56400000D01*
X1845000Y-55050000D02*
X2950000Y-55050000D01*
X2950000Y-55050000D02*
X3775000Y-55875000D01*
%TO.N,/Microcontroller/D+*%
X13406766Y-29144024D02*
X15100862Y-30838120D01*
X13122702Y-29144024D02*
X13406766Y-29144024D01*
%TO.N,/Microcontroller/D-*%
X14183363Y-28789250D02*
X15666548Y-30272435D01*
X14183363Y-28083363D02*
X14183363Y-28789250D01*
%TO.N,/Microcontroller/UCAP*%
X13229989Y-31229989D02*
X13969491Y-31969491D01*
X10966027Y-31229989D02*
X13229989Y-31229989D01*
%TO.N,/Microcontroller/UGND*%
X13300700Y-30169329D02*
X14535177Y-31403806D01*
X12026687Y-30169329D02*
X13300700Y-30169329D01*
%TO.N,/USB Data/VBUS*%
X5600000Y-24200000D02*
X5000000Y-24200000D01*
X4700000Y-23900000D02*
X4700000Y-23500000D01*
X6100000Y-24700000D02*
X5600000Y-24200000D01*
D59*
X400000Y-27469457D02*
X1060543Y-28130000D01*
D57*
X7237500Y-26000000D02*
X6500000Y-26000000D01*
D59*
X400000Y-23890543D02*
X400000Y-27469457D01*
X1845000Y-23230000D02*
X3807500Y-23230000D01*
D57*
X5000000Y-24200000D02*
X4700000Y-23900000D01*
X6500000Y-26000000D02*
X6100000Y-25600000D01*
X6100000Y-25600000D02*
X6100000Y-24700000D01*
X4400000Y-23200000D02*
X3837500Y-23200000D01*
D59*
X1060543Y-23230000D02*
X400000Y-23890543D01*
X1845000Y-23230000D02*
X1060543Y-23230000D01*
X3807500Y-23230000D02*
X3837500Y-23200000D01*
X1060543Y-28130000D02*
X1845000Y-28130000D01*
D57*
X4700000Y-23500000D02*
X4400000Y-23200000D01*
D59*
%TO.N,/USB Program/VBUS*%
X3912500Y-50850000D02*
X4000000Y-50762500D01*
D57*
X6000000Y-52762500D02*
X6000000Y-51800000D01*
X6637500Y-53400000D02*
X6000000Y-52762500D01*
X6000000Y-51800000D02*
X4962500Y-50762500D01*
D59*
X1845000Y-50850000D02*
X3912500Y-50850000D01*
D57*
X7137500Y-53400000D02*
X6637500Y-53400000D01*
X4962500Y-50762500D02*
X4000000Y-50762500D01*
%TO.N,/USB Data/D-*%
X1845000Y-24930000D02*
X916800Y-24930000D01*
X4842500Y-24930000D02*
X4962500Y-25050000D01*
X1845000Y-24930000D02*
X4842500Y-24930000D01*
X866000Y-24980800D02*
X866000Y-25834000D01*
X962000Y-25930000D02*
X1845000Y-25930000D01*
X866000Y-25834000D02*
X962000Y-25930000D01*
X916800Y-24930000D02*
X866000Y-24980800D01*
%TO.N,/USB Data/D+*%
X2773200Y-25430000D02*
X2870000Y-25526800D01*
X3650000Y-26950000D02*
X4962500Y-26950000D01*
X2870000Y-26430000D02*
X3130000Y-26430000D01*
X3130000Y-26430000D02*
X3650000Y-26950000D01*
X1845000Y-26430000D02*
X2870000Y-26430000D01*
X1845000Y-25430000D02*
X2773200Y-25430000D01*
X2870000Y-25526800D02*
X2870000Y-26430000D01*
%TO.N,/USB Program/D-*%
X4762500Y-52550000D02*
X4862500Y-52450000D01*
X1845000Y-52550000D02*
X916800Y-52550000D01*
X962000Y-53550000D02*
X1845000Y-53550000D01*
X866000Y-52600800D02*
X866000Y-53454000D01*
X1845000Y-52550000D02*
X4762500Y-52550000D01*
X866000Y-53454000D02*
X962000Y-53550000D01*
X916800Y-52550000D02*
X866000Y-52600800D01*
%TO.N,/USB Program/D+*%
X1845000Y-53050000D02*
X2773200Y-53050000D01*
X3239000Y-54050000D02*
X3539000Y-54350000D01*
X1845000Y-54050000D02*
X2850000Y-54050000D01*
X2850000Y-54050000D02*
X3239000Y-54050000D01*
X2850000Y-53126800D02*
X2850000Y-54050000D01*
X3539000Y-54350000D02*
X4862500Y-54350000D01*
X2773200Y-53050000D02*
X2850000Y-53126800D01*
%TO.N,/Microcontroller/AVCC_P44*%
X22182322Y-28096016D02*
X21143153Y-27056847D01*
X22203984Y-28096016D02*
X22182322Y-28096016D01*
X21143153Y-27056847D02*
X19202082Y-28997918D01*
X19202082Y-28997918D02*
X19202082Y-29141064D01*
%TD*%
%TA.AperFunction,Conductor*%
%TO.N,+3V3*%
G36*
X8736054Y-5920484D02*
G01*
X8782986Y-5973757D01*
X8794805Y-6026900D01*
X8799863Y-10673863D01*
X8779935Y-10742005D01*
X8726330Y-10788557D01*
X8673863Y-10800000D01*
X4342784Y-10800008D01*
X3702667Y-10800009D01*
X3702667Y-16674009D01*
X3682665Y-16742130D01*
X3629009Y-16788623D01*
X3576667Y-16800009D01*
X1828667Y-16800009D01*
X1760546Y-16780007D01*
X1714053Y-16726351D01*
X1702667Y-16674009D01*
X1702667Y-10800009D01*
X1207275Y-10800008D01*
X-3274000Y-10800000D01*
X-3342121Y-10779998D01*
X-3388614Y-10726342D01*
X-3400000Y-10674000D01*
X-3400000Y-6124971D01*
X-3379998Y-6056850D01*
X-3326342Y-6010357D01*
X-3275034Y-5998975D01*
X-2287509Y-5990877D01*
X-754323Y-5978305D01*
X-701520Y-5989784D01*
X-697738Y-5992115D01*
X-690790Y-5994419D01*
X-690787Y-5994421D01*
X-536389Y-6045632D01*
X-536387Y-6045632D01*
X-529861Y-6047797D01*
X-523025Y-6048497D01*
X-523022Y-6048498D01*
X-479969Y-6052909D01*
X-425400Y-6058500D01*
X625400Y-6058500D01*
X628646Y-6058163D01*
X628650Y-6058163D01*
X724308Y-6048238D01*
X724312Y-6048237D01*
X731166Y-6047526D01*
X737702Y-6045345D01*
X737704Y-6045345D01*
X800372Y-6024437D01*
X898946Y-5991550D01*
X905167Y-5987700D01*
X905174Y-5987697D01*
X912843Y-5982951D01*
X978114Y-5964098D01*
X1206259Y-5962227D01*
X1251212Y-5970126D01*
X1296562Y-5986992D01*
X1296568Y-5986994D01*
X1303168Y-5989448D01*
X1310149Y-5990379D01*
X1310151Y-5990380D01*
X1475980Y-6012507D01*
X1475984Y-6012507D01*
X1482961Y-6013438D01*
X1489972Y-6012800D01*
X1489976Y-6012800D01*
X1641877Y-5998975D01*
X1663600Y-5996998D01*
X1670303Y-5994820D01*
X1670308Y-5994819D01*
X1766749Y-5963484D01*
X1804650Y-5957321D01*
X1891340Y-5956609D01*
X1919530Y-5956378D01*
X1987811Y-5975820D01*
X1990381Y-5977638D01*
X1992298Y-5979552D01*
X1998415Y-5983323D01*
X1998417Y-5983324D01*
X2119843Y-6058172D01*
X2137899Y-6069302D01*
X2300243Y-6123149D01*
X2307080Y-6123849D01*
X2307082Y-6123850D01*
X2348401Y-6128083D01*
X2401268Y-6133500D01*
X2998732Y-6133500D01*
X3001978Y-6133163D01*
X3001982Y-6133163D01*
X3036083Y-6129625D01*
X3101019Y-6122887D01*
X3254726Y-6071606D01*
X3256324Y-6071073D01*
X3256326Y-6071072D01*
X3263268Y-6068756D01*
X3296425Y-6048238D01*
X3402482Y-5982608D01*
X3402483Y-5982607D01*
X3408713Y-5978752D01*
X3413891Y-5973565D01*
X3417489Y-5970713D01*
X3483299Y-5944074D01*
X3494719Y-5943461D01*
X3750169Y-5941366D01*
X3795119Y-5949265D01*
X3821132Y-5958939D01*
X3896558Y-5986990D01*
X3896560Y-5986990D01*
X3903168Y-5989448D01*
X3986995Y-6000633D01*
X4075980Y-6012507D01*
X4075984Y-6012507D01*
X4082961Y-6013438D01*
X4089972Y-6012800D01*
X4089976Y-6012800D01*
X4241877Y-5998975D01*
X4263600Y-5996998D01*
X4270302Y-5994820D01*
X4270304Y-5994820D01*
X4350794Y-5968667D01*
X4389730Y-5962500D01*
X4528920Y-5962500D01*
X4595036Y-5981240D01*
X4720375Y-6058500D01*
X4737899Y-6069302D01*
X4900243Y-6123149D01*
X4907080Y-6123849D01*
X4907082Y-6123850D01*
X4948401Y-6128083D01*
X5001268Y-6133500D01*
X5598732Y-6133500D01*
X5601978Y-6133163D01*
X5601982Y-6133163D01*
X5636083Y-6129625D01*
X5701019Y-6122887D01*
X5854726Y-6071606D01*
X5856324Y-6071073D01*
X5856326Y-6071072D01*
X5863268Y-6068756D01*
X6008713Y-5978752D01*
X6028492Y-5958938D01*
X6090773Y-5924859D01*
X6116625Y-5921961D01*
X7713326Y-5908867D01*
X8667772Y-5901041D01*
X8736054Y-5920484D01*
G37*
%TD.AperFunction*%
%TD*%
%TA.AperFunction,Conductor*%
%TO.N,GND*%
G36*
X11500117Y-39276102D02*
G01*
X11521091Y-39293005D01*
X12342166Y-40114080D01*
X12376192Y-40176392D01*
X12371127Y-40247207D01*
X12342167Y-40292270D01*
X12169632Y-40464806D01*
X12107320Y-40498831D01*
X12036504Y-40493767D01*
X11991441Y-40464806D01*
X11819510Y-40292875D01*
X11805566Y-40285261D01*
X11803731Y-40285392D01*
X11797121Y-40289640D01*
X11382433Y-40704327D01*
X11112318Y-40974443D01*
X11050006Y-41008468D01*
X10979190Y-41003403D01*
X10934128Y-40974442D01*
X10181851Y-40222165D01*
X10167907Y-40214551D01*
X10166074Y-40214682D01*
X10159459Y-40218933D01*
X9911068Y-40467324D01*
X9903254Y-40476845D01*
X9871617Y-40524191D01*
X9862300Y-40546682D01*
X9845847Y-40629399D01*
X9812940Y-40692308D01*
X9746849Y-40728396D01*
X9707063Y-40736310D01*
X9663301Y-40745014D01*
X9663300Y-40745014D01*
X9651130Y-40747435D01*
X9640813Y-40754329D01*
X9640812Y-40754329D01*
X9627765Y-40763047D01*
X9588198Y-40789485D01*
X8704221Y-41673464D01*
X8662169Y-41736396D01*
X8642418Y-41835697D01*
X8662169Y-41934998D01*
X8704219Y-41997931D01*
X8876023Y-42169735D01*
X8910049Y-42232047D01*
X8904984Y-42302862D01*
X8876023Y-42347925D01*
X8760057Y-42463891D01*
X8697745Y-42497917D01*
X8626930Y-42492852D01*
X8581867Y-42463891D01*
X8574882Y-42456906D01*
X8572473Y-42454498D01*
X8526508Y-42417540D01*
X8519321Y-42414272D01*
X8519319Y-42414271D01*
X8409645Y-42364405D01*
X8409644Y-42364405D01*
X8401474Y-42360690D01*
X8392591Y-42359418D01*
X8392588Y-42359417D01*
X8274392Y-42342491D01*
X8265510Y-42341219D01*
X8256628Y-42342491D01*
X8138433Y-42359417D01*
X8138431Y-42359418D01*
X8129546Y-42360690D01*
X8004513Y-42417540D01*
X7958547Y-42454497D01*
X7576161Y-42836884D01*
X7539203Y-42882850D01*
X7482353Y-43007883D01*
X7481081Y-43016768D01*
X7481080Y-43016770D01*
X7475106Y-43058486D01*
X7462882Y-43143847D01*
X7464154Y-43152729D01*
X7480469Y-43266654D01*
X7482353Y-43279811D01*
X7486068Y-43287981D01*
X7486070Y-43287989D01*
X7491040Y-43298919D01*
X7501028Y-43369210D01*
X7471427Y-43433742D01*
X7411637Y-43472026D01*
X7340641Y-43471908D01*
X7324187Y-43465771D01*
X7313486Y-43460905D01*
X7296430Y-43455917D01*
X7178377Y-43439012D01*
X7160612Y-43439012D01*
X7042559Y-43455917D01*
X7025499Y-43460907D01*
X6915961Y-43510711D01*
X6902614Y-43518930D01*
X6865512Y-43548760D01*
X6863704Y-43550383D01*
X6856494Y-43563587D01*
X6856625Y-43565420D01*
X6860876Y-43572035D01*
X7869446Y-44580605D01*
X7883390Y-44588219D01*
X7885223Y-44588088D01*
X7891731Y-44583906D01*
X7895953Y-44579201D01*
X7925783Y-44542099D01*
X7934002Y-44528752D01*
X7983806Y-44419214D01*
X7988796Y-44402154D01*
X8005701Y-44284101D01*
X8005701Y-44266336D01*
X7988796Y-44148283D01*
X7983808Y-44131227D01*
X7978942Y-44120526D01*
X7968954Y-44050236D01*
X7998554Y-43985704D01*
X8058343Y-43947419D01*
X8129339Y-43947536D01*
X8145794Y-43953673D01*
X8156724Y-43958643D01*
X8156732Y-43958645D01*
X8164902Y-43962360D01*
X8173785Y-43963632D01*
X8173788Y-43963633D01*
X8291984Y-43980559D01*
X8300866Y-43981831D01*
X8309748Y-43980559D01*
X8427943Y-43963633D01*
X8427945Y-43963632D01*
X8436830Y-43962360D01*
X8469433Y-43947536D01*
X8554669Y-43908781D01*
X8561863Y-43905510D01*
X8607829Y-43868553D01*
X8990215Y-43486166D01*
X9027173Y-43440200D01*
X9043858Y-43403503D01*
X10200983Y-43403503D01*
X10215854Y-43478266D01*
X10225170Y-43500758D01*
X10256804Y-43548102D01*
X10264622Y-43557627D01*
X10580490Y-43873495D01*
X10594434Y-43881109D01*
X10596269Y-43880978D01*
X10602879Y-43876730D01*
X11004756Y-43474854D01*
X11012369Y-43460911D01*
X11012238Y-43459077D01*
X11007987Y-43452463D01*
X10535405Y-42979881D01*
X10521461Y-42972267D01*
X10519628Y-42972398D01*
X10513013Y-42976649D01*
X10264622Y-43225040D01*
X10256808Y-43234561D01*
X10225171Y-43281907D01*
X10215854Y-43304398D01*
X10200983Y-43379161D01*
X10200983Y-43403503D01*
X9043858Y-43403503D01*
X9084023Y-43315167D01*
X9085348Y-43305920D01*
X9102222Y-43188085D01*
X9103494Y-43179203D01*
X9103261Y-43177579D01*
X9122224Y-43112998D01*
X9139127Y-43092024D01*
X9379625Y-42851526D01*
X9441937Y-42817500D01*
X9512752Y-42822565D01*
X9557815Y-42851526D01*
X9725239Y-43018950D01*
X9725244Y-43018954D01*
X9729619Y-43023329D01*
X9792552Y-43065381D01*
X9891853Y-43085132D01*
X9904025Y-43082711D01*
X9978983Y-43067802D01*
X9978984Y-43067802D01*
X9991154Y-43065381D01*
X10054086Y-43023331D01*
X10778002Y-42299413D01*
X10840315Y-42265388D01*
X10867098Y-42262508D01*
X10922962Y-42262508D01*
X10991083Y-42282510D01*
X11037576Y-42336166D01*
X11047680Y-42406440D01*
X11018186Y-42471020D01*
X11012057Y-42477603D01*
X10894614Y-42595046D01*
X10887000Y-42608990D01*
X10887131Y-42610823D01*
X10891382Y-42617438D01*
X11646892Y-43372948D01*
X11680918Y-43435260D01*
X11675853Y-43506075D01*
X11646892Y-43551138D01*
X11376777Y-43821253D01*
X10965326Y-44232705D01*
X10957712Y-44246649D01*
X10957843Y-44248484D01*
X10962093Y-44255097D01*
X11106592Y-44399596D01*
X11140618Y-44461908D01*
X11135553Y-44532723D01*
X11106592Y-44577786D01*
X11077383Y-44606995D01*
X11015071Y-44641021D01*
X10988288Y-44643900D01*
X10814068Y-44643900D01*
X10745947Y-44623898D01*
X10724973Y-44606996D01*
X10413357Y-44295381D01*
X10410949Y-44292973D01*
X10364984Y-44256015D01*
X10357797Y-44252747D01*
X10357795Y-44252746D01*
X10248121Y-44202880D01*
X10248120Y-44202880D01*
X10239950Y-44199165D01*
X10231067Y-44197893D01*
X10231064Y-44197892D01*
X10112868Y-44180966D01*
X10103986Y-44179694D01*
X10095104Y-44180966D01*
X9976909Y-44197892D01*
X9976907Y-44197893D01*
X9968022Y-44199165D01*
X9959847Y-44202882D01*
X9860703Y-44247961D01*
X9842989Y-44256015D01*
X9797023Y-44292972D01*
X9414637Y-44675359D01*
X9377679Y-44721325D01*
X9320829Y-44846358D01*
X9319557Y-44855243D01*
X9319556Y-44855245D01*
X9306982Y-44943047D01*
X9301358Y-44982322D01*
X9320829Y-45118286D01*
X9324544Y-45126456D01*
X9324546Y-45126464D01*
X9329516Y-45137394D01*
X9339504Y-45207685D01*
X9309903Y-45272217D01*
X9250113Y-45310501D01*
X9179117Y-45310383D01*
X9162663Y-45304246D01*
X9151962Y-45299380D01*
X9134906Y-45294392D01*
X9016853Y-45277487D01*
X8999088Y-45277487D01*
X8881035Y-45294392D01*
X8863975Y-45299382D01*
X8754437Y-45349186D01*
X8741090Y-45357405D01*
X8703988Y-45387235D01*
X8702180Y-45388858D01*
X8694970Y-45402062D01*
X8695101Y-45403895D01*
X8699352Y-45410510D01*
X9707922Y-46419080D01*
X9721866Y-46426694D01*
X9723699Y-46426563D01*
X9730207Y-46422381D01*
X9734429Y-46417676D01*
X9764259Y-46380574D01*
X9772478Y-46367227D01*
X9822282Y-46257689D01*
X9827272Y-46240629D01*
X9844177Y-46122576D01*
X9844177Y-46104811D01*
X9827272Y-45986758D01*
X9822284Y-45969702D01*
X9817418Y-45959001D01*
X9807430Y-45888711D01*
X9837030Y-45824179D01*
X9896819Y-45785894D01*
X9967815Y-45786011D01*
X9984270Y-45792148D01*
X9995200Y-45797118D01*
X9995208Y-45797120D01*
X10003378Y-45800835D01*
X10012261Y-45802107D01*
X10012264Y-45802108D01*
X10130460Y-45819034D01*
X10139342Y-45820306D01*
X10148224Y-45819034D01*
X10266419Y-45802108D01*
X10266421Y-45802107D01*
X10275306Y-45800835D01*
X10307909Y-45786011D01*
X10393145Y-45747256D01*
X10400339Y-45743985D01*
X10446305Y-45707028D01*
X10760327Y-45393005D01*
X10822640Y-45358980D01*
X10849423Y-45356100D01*
X11136552Y-45356100D01*
X11156601Y-45358234D01*
X11160791Y-45358432D01*
X11170973Y-45360624D01*
X11201820Y-45356973D01*
X11207195Y-45356656D01*
X11207184Y-45356528D01*
X11212362Y-45356100D01*
X11217564Y-45356100D01*
X11228899Y-45354213D01*
X11235223Y-45353161D01*
X11241095Y-45352326D01*
X11278354Y-45347916D01*
X11278361Y-45347914D01*
X11288702Y-45346690D01*
X11296448Y-45342970D01*
X11304922Y-45341560D01*
X11347089Y-45318808D01*
X11352376Y-45316115D01*
X11388422Y-45298805D01*
X11388425Y-45298803D01*
X11395570Y-45295372D01*
X11399580Y-45292001D01*
X11401518Y-45290063D01*
X11403169Y-45288548D01*
X11403579Y-45288327D01*
X11403617Y-45288369D01*
X11403800Y-45288208D01*
X11409254Y-45285265D01*
X11421316Y-45272217D01*
X11443512Y-45248205D01*
X11446942Y-45244639D01*
X12794291Y-43897290D01*
X12809987Y-43884613D01*
X12813083Y-43881796D01*
X12821832Y-43876147D01*
X12841065Y-43851750D01*
X12844643Y-43847723D01*
X12844545Y-43847640D01*
X12847900Y-43843681D01*
X12851578Y-43840003D01*
X12854597Y-43835779D01*
X12854605Y-43835769D01*
X12861994Y-43825428D01*
X12865559Y-43820679D01*
X12888777Y-43791227D01*
X12895226Y-43783047D01*
X12898072Y-43774942D01*
X12903068Y-43767951D01*
X12916792Y-43722060D01*
X12918626Y-43716415D01*
X12931879Y-43678675D01*
X12931880Y-43678672D01*
X12934506Y-43671193D01*
X12934958Y-43665974D01*
X12934958Y-43663263D01*
X12935056Y-43660986D01*
X12935191Y-43660537D01*
X12935245Y-43660539D01*
X12935260Y-43660306D01*
X12937035Y-43654370D01*
X12935055Y-43603972D01*
X12934958Y-43599026D01*
X12934958Y-43305920D01*
X12954960Y-43237799D01*
X12971862Y-43216825D01*
X13691400Y-42497285D01*
X13695779Y-42492906D01*
X13737831Y-42429974D01*
X13757582Y-42330673D01*
X13737831Y-42231372D01*
X13702284Y-42178171D01*
X13699220Y-42173585D01*
X13699217Y-42173581D01*
X13695781Y-42168439D01*
X12996159Y-41468818D01*
X12962134Y-41406505D01*
X12967198Y-41335690D01*
X12996159Y-41290627D01*
X13168341Y-41118445D01*
X13230653Y-41084419D01*
X13301468Y-41089484D01*
X13346528Y-41118443D01*
X14470204Y-42242120D01*
X14504229Y-42304430D01*
X14499164Y-42375246D01*
X14470203Y-42420308D01*
X14184565Y-42705946D01*
X14168875Y-42718618D01*
X14165774Y-42721440D01*
X14157026Y-42727088D01*
X14150579Y-42735266D01*
X14137797Y-42751480D01*
X14134216Y-42755510D01*
X14134314Y-42755593D01*
X14130961Y-42759550D01*
X14127280Y-42763231D01*
X14124256Y-42767463D01*
X14124254Y-42767465D01*
X14116851Y-42777824D01*
X14113288Y-42782569D01*
X14090080Y-42812008D01*
X14090079Y-42812010D01*
X14083632Y-42820188D01*
X14080786Y-42828293D01*
X14075790Y-42835284D01*
X14062151Y-42880889D01*
X14062066Y-42881175D01*
X14060232Y-42886820D01*
X14046979Y-42924560D01*
X14044352Y-42932042D01*
X14043900Y-42937261D01*
X14043900Y-42939972D01*
X14043802Y-42942249D01*
X14043667Y-42942698D01*
X14043613Y-42942696D01*
X14043598Y-42942929D01*
X14041823Y-42948865D01*
X14042934Y-42977133D01*
X14025622Y-43045984D01*
X14006126Y-43071174D01*
X9217777Y-47859523D01*
X9155465Y-47893549D01*
X9084650Y-47888484D01*
X9039587Y-47859523D01*
X7954619Y-46774556D01*
X8712648Y-46774556D01*
X8712779Y-46776389D01*
X8717030Y-46783004D01*
X8734267Y-46800241D01*
X8739344Y-46804797D01*
X8776446Y-46834627D01*
X8789793Y-46842846D01*
X8899330Y-46892651D01*
X8916390Y-46897640D01*
X9034443Y-46914545D01*
X9052208Y-46914545D01*
X9170261Y-46897640D01*
X9187321Y-46892650D01*
X9296859Y-46842846D01*
X9310206Y-46834627D01*
X9347308Y-46804797D01*
X9349116Y-46803174D01*
X9356326Y-46789970D01*
X9356195Y-46788137D01*
X9351944Y-46781522D01*
X9038460Y-46468038D01*
X9024516Y-46460424D01*
X9022683Y-46460555D01*
X9016068Y-46464806D01*
X8720262Y-46760612D01*
X8712648Y-46774556D01*
X7954619Y-46774556D01*
X7267284Y-46087221D01*
X8207119Y-46087221D01*
X8224024Y-46205274D01*
X8229013Y-46222334D01*
X8278818Y-46331871D01*
X8287037Y-46345218D01*
X8316867Y-46382320D01*
X8321423Y-46387397D01*
X8335428Y-46401402D01*
X8349372Y-46409016D01*
X8351205Y-46408885D01*
X8357820Y-46404634D01*
X8653626Y-46108828D01*
X8661240Y-46094884D01*
X8661109Y-46093051D01*
X8656858Y-46086436D01*
X8343374Y-45772952D01*
X8329430Y-45765338D01*
X8327597Y-45765469D01*
X8321089Y-45769651D01*
X8316867Y-45774356D01*
X8287037Y-45811458D01*
X8278818Y-45824805D01*
X8229014Y-45934343D01*
X8224024Y-45951403D01*
X8207119Y-46069456D01*
X8207119Y-46087221D01*
X7267284Y-46087221D01*
X6317457Y-45137394D01*
X6116144Y-44936081D01*
X6874172Y-44936081D01*
X6874303Y-44937914D01*
X6878554Y-44944529D01*
X6895791Y-44961766D01*
X6900868Y-44966322D01*
X6937970Y-44996152D01*
X6951317Y-45004371D01*
X7060854Y-45054176D01*
X7077914Y-45059165D01*
X7195967Y-45076070D01*
X7213732Y-45076070D01*
X7331785Y-45059165D01*
X7348845Y-45054175D01*
X7458383Y-45004371D01*
X7471730Y-44996152D01*
X7508832Y-44966322D01*
X7510640Y-44964699D01*
X7517850Y-44951495D01*
X7517719Y-44949662D01*
X7513468Y-44943047D01*
X7199984Y-44629563D01*
X7186040Y-44621949D01*
X7184207Y-44622080D01*
X7177592Y-44626331D01*
X6881786Y-44922137D01*
X6874172Y-44936081D01*
X6116144Y-44936081D01*
X5428808Y-44248746D01*
X6368643Y-44248746D01*
X6385548Y-44366799D01*
X6390537Y-44383859D01*
X6440342Y-44493396D01*
X6448561Y-44506743D01*
X6478391Y-44543845D01*
X6482947Y-44548922D01*
X6496952Y-44562927D01*
X6510896Y-44570541D01*
X6512729Y-44570410D01*
X6519344Y-44566159D01*
X6815150Y-44270353D01*
X6822764Y-44256409D01*
X6822633Y-44254576D01*
X6818382Y-44247961D01*
X6504898Y-43934477D01*
X6490954Y-43926863D01*
X6489121Y-43926994D01*
X6482613Y-43931176D01*
X6478391Y-43935881D01*
X6448561Y-43972983D01*
X6440342Y-43986330D01*
X6390538Y-44095868D01*
X6385548Y-44112928D01*
X6368643Y-44230981D01*
X6368643Y-44248746D01*
X5428808Y-44248746D01*
X5402954Y-44222892D01*
X5368929Y-44160580D01*
X5373993Y-44089765D01*
X5402954Y-44044702D01*
X9596378Y-39851274D01*
X10533446Y-39851274D01*
X10533577Y-39853107D01*
X10537828Y-39859722D01*
X11010411Y-40332305D01*
X11024355Y-40339919D01*
X11026188Y-40339788D01*
X11032803Y-40335537D01*
X11434678Y-39933661D01*
X11442289Y-39919723D01*
X11442157Y-39917887D01*
X11437908Y-39911275D01*
X11118809Y-39592176D01*
X11109280Y-39584355D01*
X11061938Y-39552721D01*
X11039444Y-39543403D01*
X10964683Y-39528533D01*
X10940341Y-39528533D01*
X10865578Y-39543404D01*
X10843087Y-39552720D01*
X10795744Y-39584354D01*
X10786218Y-39592172D01*
X10541060Y-39837330D01*
X10533446Y-39851274D01*
X9596378Y-39851274D01*
X10154647Y-39293005D01*
X10216959Y-39258980D01*
X10243742Y-39256100D01*
X11431996Y-39256100D01*
X11500117Y-39276102D01*
G37*
%TD.AperFunction*%
%TD*%
%TA.AperFunction,Conductor*%
%TO.N,+5V*%
G36*
X7842121Y-20420002D02*
G01*
X7888614Y-20473658D01*
X7900000Y-20526000D01*
X7900000Y-23874000D01*
X7879998Y-23942121D01*
X7826342Y-23988614D01*
X7774000Y-24000000D01*
X5959521Y-24000000D01*
X5891400Y-23979998D01*
X5870386Y-23962231D01*
X5867025Y-23957026D01*
X5842633Y-23937797D01*
X5838603Y-23934216D01*
X5838520Y-23934314D01*
X5834563Y-23930961D01*
X5830882Y-23927280D01*
X5826648Y-23924254D01*
X5816289Y-23916851D01*
X5811544Y-23913288D01*
X5782105Y-23890080D01*
X5782103Y-23890079D01*
X5773925Y-23883632D01*
X5765820Y-23880786D01*
X5758829Y-23875790D01*
X5712938Y-23862066D01*
X5707293Y-23860232D01*
X5669553Y-23846979D01*
X5669550Y-23846978D01*
X5662071Y-23844352D01*
X5656852Y-23843900D01*
X5654141Y-23843900D01*
X5651864Y-23843802D01*
X5651415Y-23843667D01*
X5651417Y-23843613D01*
X5651184Y-23843598D01*
X5645248Y-23841823D01*
X5595385Y-23843782D01*
X5594850Y-23843803D01*
X5589904Y-23843900D01*
X5326000Y-23843900D01*
X5257879Y-23823898D01*
X5211386Y-23770242D01*
X5200000Y-23717900D01*
X5200000Y-20526000D01*
X5220002Y-20457879D01*
X5273658Y-20411386D01*
X5326000Y-20400000D01*
X7774000Y-20400000D01*
X7842121Y-20420002D01*
G37*
%TD.AperFunction*%
%TD*%
%TA.AperFunction,Conductor*%
%TO.N,+5V*%
G36*
X6242121Y-45920002D02*
G01*
X6288614Y-45973658D01*
X6300000Y-46026000D01*
X6300000Y-49174000D01*
X6279998Y-49242121D01*
X6226342Y-49288614D01*
X6174000Y-49300000D01*
X3276000Y-49300000D01*
X3207879Y-49279998D01*
X3161386Y-49226342D01*
X3150000Y-49174000D01*
X3150000Y-46026000D01*
X3170002Y-45957879D01*
X3223658Y-45911386D01*
X3276000Y-45900000D01*
X6174000Y-45900000D01*
X6242121Y-45920002D01*
G37*
%TD.AperFunction*%
%TD*%
M02*
